<svg width="36" height="36" viewBox="0 0 36 36" fill="none" xmlns="http://www.w3.org/2000/svg">
<mask id="path-1-outside-1_2022_4276" maskUnits="userSpaceOnUse" x="5" y="2" width="26" height="32" fill="black">
<rect fill="white" x="5" y="2" width="26" height="32"/>
<path d="M12 22.3335C11.9501 22.3334 11.9008 22.3446 11.8558 22.3662C11.8108 22.3878 11.7712 22.4192 11.7399 22.4581C11.7087 22.4971 11.6866 22.5425 11.6752 22.5911C11.6639 22.6398 11.6637 22.6903 11.6745 22.7391L12.3412 25.739C12.3536 25.7952 12.3805 25.8472 12.419 25.89C12.4576 25.9327 12.5066 25.9647 12.5612 25.9829L14.3457 26.5777C14.4075 27.328 14.7489 28.0276 15.3023 28.538C15.8556 29.0485 16.5805 29.3323 17.3333 29.3335V31.6668H15.6667C15.5923 31.6668 15.5201 31.6917 15.4616 31.7374C15.403 31.7832 15.3614 31.8473 15.3434 31.9194L15.0101 33.2527C14.9978 33.3018 14.9969 33.3531 15.0074 33.4027C15.0179 33.4522 15.0395 33.4987 15.0707 33.5386C15.1019 33.5785 15.1417 33.6108 15.1872 33.633C15.2327 33.6552 15.2827 33.6668 15.3333 33.6668H21.3333C21.384 33.6668 21.4339 33.6552 21.4795 33.633C21.525 33.6108 21.5648 33.5785 21.596 33.5386C21.6271 33.4987 21.6488 33.4522 21.6593 33.4027C21.6698 33.3531 21.6689 33.3018 21.6566 33.2527L21.3232 31.9194C21.3053 31.8473 21.2637 31.7832 21.2051 31.7374C21.1465 31.6917 21.0743 31.6668 21 31.6668H19.3333V29.3335C20.0861 29.3323 20.8111 29.0485 21.3644 28.538C21.9178 28.0276 22.2592 27.328 22.321 26.5777L24.1055 25.9829C24.1601 25.9647 24.2091 25.9327 24.2476 25.89C24.2862 25.8472 24.313 25.7952 24.3255 25.739L24.9922 22.7391C25.003 22.6903 25.0028 22.6398 24.9914 22.5911C24.9801 22.5425 24.958 22.4971 24.9268 22.4581C24.8955 22.4192 24.8559 22.3878 24.8109 22.3662C24.7659 22.3446 24.7166 22.3334 24.6667 22.3335H22.3333V21.6054C22.5278 21.5369 22.6962 21.4099 22.8156 21.2418C22.9349 21.0738 22.9994 20.8729 23 20.6668V20.3335C22.9997 20.0683 22.8943 19.8141 22.7068 19.6267C22.5193 19.4392 22.2651 19.3337 22 19.3335H14.6667C14.4015 19.3337 14.1474 19.4392 13.9599 19.6267C13.7724 19.8141 13.667 20.0683 13.6667 20.3335V20.6668C13.6673 20.8729 13.7317 21.0738 13.8511 21.2418C13.9705 21.4099 14.1389 21.5369 14.3333 21.6053V22.3335H12ZM14.3333 25.8711L12.9512 25.4103L12.4157 23.0001H14.3333V25.8711ZM20.7396 32.3335L20.9063 33.0001H15.7604L15.9271 32.3335H20.7396ZM18 31.6668V29.3335H18.6667V31.6668H18ZM21.6667 26.3335C21.6659 26.9521 21.4199 27.5451 20.9824 27.9825C20.545 28.42 19.9519 28.666 19.3333 28.6668H17.3333C16.7147 28.666 16.1217 28.42 15.6842 27.9825C15.2468 27.5451 15.0008 26.9521 15 26.3335V21.6668H21.6667V26.3335ZM24.251 23.0001L23.7155 25.4103L22.3333 25.8711V23.0001H24.251ZM14.3333 20.3335C14.3334 20.2451 14.3685 20.1603 14.431 20.0978C14.4935 20.0353 14.5783 20.0002 14.6667 20.0001H22C22.0884 20.0002 22.1731 20.0353 22.2356 20.0978C22.2981 20.1603 22.3333 20.2451 22.3333 20.3335V20.6668C22.3333 20.7552 22.2981 20.8399 22.2356 20.9024C22.1731 20.9649 22.0884 21.0001 22 21.0001H14.6667C14.5783 21.0001 14.4935 20.9649 14.431 20.9024C14.3685 20.8399 14.3334 20.7552 14.3333 20.6668V20.3335Z"/>
<path d="M17.1438 25.5729L16.9742 26.6129C16.9642 26.6747 16.9717 26.738 16.9959 26.7957C17.0201 26.8534 17.0601 26.9031 17.1112 26.9391C17.1624 26.9751 17.2226 26.996 17.2851 26.9994C17.3475 27.0028 17.4097 26.9886 17.4644 26.9583L18.3333 26.4782L19.2021 26.9583C19.2568 26.9886 19.319 27.0029 19.3814 26.9995C19.4439 26.9961 19.5042 26.9752 19.5553 26.9391C19.6064 26.903 19.6463 26.8533 19.6705 26.7957C19.6948 26.738 19.7023 26.6747 19.6923 26.6129L19.5227 25.5729L20.2385 24.8392C20.2813 24.7953 20.3112 24.7405 20.3249 24.6808C20.3385 24.6211 20.3355 24.5588 20.316 24.5007C20.2966 24.4426 20.2615 24.391 20.2146 24.3515C20.1678 24.312 20.1109 24.2863 20.0504 24.277L19.0745 24.1279L18.635 23.1917C18.6081 23.1344 18.5655 23.0859 18.512 23.052C18.4586 23.018 18.3966 23 18.3333 23C18.27 23 18.2079 23.018 18.1545 23.052C18.1011 23.0859 18.0584 23.1344 18.0315 23.1917L17.5921 24.1279L16.6161 24.277C16.5556 24.2863 16.4988 24.312 16.4519 24.3515C16.405 24.391 16.3699 24.4426 16.3505 24.5007C16.3311 24.5588 16.328 24.6211 16.3417 24.6808C16.3553 24.7405 16.3852 24.7953 16.428 24.8392L17.1438 25.5729ZM17.8687 24.7601C17.9228 24.7518 17.9741 24.7304 18.0179 24.6976C18.0617 24.6649 18.0968 24.6218 18.12 24.5723L18.3333 24.1178L18.5465 24.5723C18.5697 24.6218 18.6048 24.6649 18.6486 24.6976C18.6925 24.7304 18.7437 24.7518 18.7978 24.7601L19.3082 24.8382L18.928 25.2279C18.8916 25.2652 18.8644 25.3106 18.8487 25.3603C18.833 25.4101 18.8291 25.4628 18.8375 25.5143L18.9238 26.043L18.4944 25.8057C18.4451 25.7783 18.3896 25.764 18.3333 25.764C18.2769 25.764 18.2214 25.7783 18.1721 25.8057L17.7428 26.043L17.829 25.5143C17.8374 25.4628 17.8336 25.4101 17.8178 25.3603C17.8021 25.3106 17.775 25.2652 17.7385 25.2279L17.3583 24.8382L17.8687 24.7601Z"/>
<path d="M18.3333 14C18.0696 14 17.8118 14.0782 17.5926 14.2247C17.3733 14.3712 17.2024 14.5795 17.1015 14.8231C17.0006 15.0667 16.9742 15.3348 17.0256 15.5935C17.0771 15.8521 17.2041 16.0897 17.3905 16.2761C17.577 16.4626 17.8146 16.5896 18.0732 16.641C18.3319 16.6925 18.5999 16.6661 18.8436 16.5652C19.0872 16.4643 19.2955 16.2934 19.442 16.0741C19.5885 15.8548 19.6667 15.597 19.6667 15.3333C19.6663 14.9798 19.5257 14.6409 19.2758 14.3909C19.0258 14.1409 18.6868 14.0004 18.3333 14ZM18.3333 16C18.2015 16 18.0726 15.9609 17.963 15.8876C17.8533 15.8144 17.7679 15.7103 17.7174 15.5885C17.667 15.4666 17.6538 15.3326 17.6795 15.2033C17.7052 15.074 17.7687 14.9552 17.8619 14.8619C17.9552 14.7687 18.074 14.7052 18.2033 14.6795C18.3326 14.6538 18.4666 14.667 18.5885 14.7174C18.7103 14.7679 18.8144 14.8533 18.8876 14.963C18.9609 15.0726 19 15.2015 19 15.3333C18.9998 15.5101 18.9295 15.6795 18.8045 15.8045C18.6795 15.9295 18.5101 15.9998 18.3333 16Z"/>
<path d="M22.9869 9.76905L22.0689 6.56462C22.0547 6.51489 22.0291 6.46917 21.9941 6.43106C21.9591 6.39295 21.9158 6.3635 21.8674 6.34506C21.8191 6.32661 21.7672 6.31967 21.7157 6.32479C21.6642 6.3299 21.6146 6.34693 21.5709 6.37452L18.7516 8.153C18.7096 8.17944 18.6741 8.2149 18.6476 8.25679C18.621 8.29869 18.6042 8.34596 18.5982 8.39519L18.0845 12.6793C17.4921 12.7337 16.9348 12.9843 16.501 13.3914C16.0672 13.7984 15.7817 14.3387 15.6898 14.9264C15.5978 15.5142 15.7047 16.1158 15.9935 16.6359C16.2823 17.156 16.7364 17.5648 17.2839 17.7975C17.8314 18.0302 18.4409 18.0735 19.0158 17.9205C19.5906 17.7675 20.098 17.427 20.4574 16.9529C20.8168 16.4789 21.0076 15.8984 20.9997 15.3036C20.9918 14.7087 20.7855 14.1336 20.4136 13.6693L22.94 10.0518C22.9683 10.0111 22.9872 9.9646 22.9953 9.91569C23.0035 9.86679 23.0006 9.8167 22.9869 9.76905ZM18.3333 17.3333C17.9377 17.3333 17.551 17.216 17.2221 16.9963C16.8932 16.7765 16.6369 16.4642 16.4855 16.0987C16.3341 15.7333 16.2945 15.3311 16.3717 14.9432C16.4489 14.5552 16.6393 14.1988 16.9191 13.9191C17.1988 13.6394 17.5551 13.4489 17.9431 13.3718C18.331 13.2946 18.7332 13.3342 19.0986 13.4856C19.4641 13.637 19.7764 13.8933 19.9962 14.2222C20.216 14.5511 20.3333 14.9378 20.3333 15.3333C20.3327 15.8636 20.1218 16.372 19.7468 16.7469C19.3719 17.1219 18.8635 17.3328 18.3333 17.3333ZM19.9274 13.2007C19.5824 12.9417 19.1793 12.7709 18.7533 12.7031L19.2415 8.63216L21.5507 7.17546L22.3023 9.80012L19.9274 13.2007Z"/>
<path d="M18.3333 3C15.0635 3.00367 11.9286 4.30425 9.6164 6.6164C7.30425 8.92856 6.00367 12.0635 6 15.3333C5.99998 15.3771 6.00858 15.4205 6.02532 15.4609C6.04207 15.5014 6.06662 15.5381 6.09758 15.5691C6.12853 15.6001 6.16529 15.6246 6.20574 15.6413C6.2462 15.6581 6.28955 15.6667 6.33333 15.6667H12.3333C12.3771 15.6667 12.4205 15.6581 12.4609 15.6413C12.5014 15.6246 12.5381 15.6001 12.5691 15.5691C12.6 15.5381 12.6246 15.5014 12.6413 15.4609C12.6581 15.4205 12.6667 15.3771 12.6667 15.3333C12.6663 13.8849 13.2207 12.4913 14.2161 11.4389C15.2114 10.3866 16.572 9.75549 18.0182 9.67529L17.9818 9.0096C16.4228 9.09597 14.9506 9.75532 13.8482 10.861C12.7457 11.9667 12.0906 13.4407 12.0088 15H6.67122C6.72404 13.1557 7.21348 11.3503 8.09937 9.73188C8.98525 8.11347 10.2423 6.72821 11.7674 5.68984C13.2925 4.65147 15.0421 3.98959 16.8726 3.75852C18.7031 3.52746 20.5623 3.7338 22.2975 4.36062L21.8311 5.54443L22.4515 5.7889L22.917 4.6075C24.9648 5.48479 26.7192 6.92919 27.9733 8.77047C29.2274 10.6118 29.929 12.7732 29.9954 15H24.6579C24.5811 13.4844 23.9594 12.0476 22.9072 10.9541L22.4261 11.4154C23.4385 12.4681 24.0027 13.8728 24 15.3333C24 15.3771 24.0086 15.4205 24.0253 15.4609C24.0421 15.5014 24.0666 15.5381 24.0976 15.5691C24.1285 15.6001 24.1653 15.6246 24.2057 15.6413C24.2462 15.6581 24.2896 15.6667 24.3333 15.6667H30.3333C30.3771 15.6667 30.4205 15.6581 30.4609 15.6413C30.5014 15.6246 30.5381 15.6001 30.5691 15.5691C30.6 15.5381 30.6246 15.5014 30.6413 15.4609C30.6581 15.4205 30.6667 15.3771 30.6667 15.3333C30.663 12.0635 29.3624 8.92856 27.0503 6.6164C24.7381 4.30425 21.6032 3.00367 18.3333 3Z"/>
<path d="M11.3332 13.3335H7.66655V14.0001H11.3332V13.3335Z"/>
<path d="M28.9999 13.3335H25.3333V14.0001H28.9999V13.3335Z"/>
</mask>
<path d="M12 22.3335C11.9501 22.3334 11.9008 22.3446 11.8558 22.3662C11.8108 22.3878 11.7712 22.4192 11.7399 22.4581C11.7087 22.4971 11.6866 22.5425 11.6752 22.5911C11.6639 22.6398 11.6637 22.6903 11.6745 22.7391L12.3412 25.739C12.3536 25.7952 12.3805 25.8472 12.419 25.89C12.4576 25.9327 12.5066 25.9647 12.5612 25.9829L14.3457 26.5777C14.4075 27.328 14.7489 28.0276 15.3023 28.538C15.8556 29.0485 16.5805 29.3323 17.3333 29.3335V31.6668H15.6667C15.5923 31.6668 15.5201 31.6917 15.4616 31.7374C15.403 31.7832 15.3614 31.8473 15.3434 31.9194L15.0101 33.2527C14.9978 33.3018 14.9969 33.3531 15.0074 33.4027C15.0179 33.4522 15.0395 33.4987 15.0707 33.5386C15.1019 33.5785 15.1417 33.6108 15.1872 33.633C15.2327 33.6552 15.2827 33.6668 15.3333 33.6668H21.3333C21.384 33.6668 21.4339 33.6552 21.4795 33.633C21.525 33.6108 21.5648 33.5785 21.596 33.5386C21.6271 33.4987 21.6488 33.4522 21.6593 33.4027C21.6698 33.3531 21.6689 33.3018 21.6566 33.2527L21.3232 31.9194C21.3053 31.8473 21.2637 31.7832 21.2051 31.7374C21.1465 31.6917 21.0743 31.6668 21 31.6668H19.3333V29.3335C20.0861 29.3323 20.8111 29.0485 21.3644 28.538C21.9178 28.0276 22.2592 27.328 22.321 26.5777L24.1055 25.9829C24.1601 25.9647 24.2091 25.9327 24.2476 25.89C24.2862 25.8472 24.313 25.7952 24.3255 25.739L24.9922 22.7391C25.003 22.6903 25.0028 22.6398 24.9914 22.5911C24.9801 22.5425 24.958 22.4971 24.9268 22.4581C24.8955 22.4192 24.8559 22.3878 24.8109 22.3662C24.7659 22.3446 24.7166 22.3334 24.6667 22.3335H22.3333V21.6054C22.5278 21.5369 22.6962 21.4099 22.8156 21.2418C22.9349 21.0738 22.9994 20.8729 23 20.6668V20.3335C22.9997 20.0683 22.8943 19.8141 22.7068 19.6267C22.5193 19.4392 22.2651 19.3337 22 19.3335H14.6667C14.4015 19.3337 14.1474 19.4392 13.9599 19.6267C13.7724 19.8141 13.667 20.0683 13.6667 20.3335V20.6668C13.6673 20.8729 13.7317 21.0738 13.8511 21.2418C13.9705 21.4099 14.1389 21.5369 14.3333 21.6053V22.3335H12ZM14.3333 25.8711L12.9512 25.4103L12.4157 23.0001H14.3333V25.8711ZM20.7396 32.3335L20.9063 33.0001H15.7604L15.9271 32.3335H20.7396ZM18 31.6668V29.3335H18.6667V31.6668H18ZM21.6667 26.3335C21.6659 26.9521 21.4199 27.5451 20.9824 27.9825C20.545 28.42 19.9519 28.666 19.3333 28.6668H17.3333C16.7147 28.666 16.1217 28.42 15.6842 27.9825C15.2468 27.5451 15.0008 26.9521 15 26.3335V21.6668H21.6667V26.3335ZM24.251 23.0001L23.7155 25.4103L22.3333 25.8711V23.0001H24.251ZM14.3333 20.3335C14.3334 20.2451 14.3685 20.1603 14.431 20.0978C14.4935 20.0353 14.5783 20.0002 14.6667 20.0001H22C22.0884 20.0002 22.1731 20.0353 22.2356 20.0978C22.2981 20.1603 22.3333 20.2451 22.3333 20.3335V20.6668C22.3333 20.7552 22.2981 20.8399 22.2356 20.9024C22.1731 20.9649 22.0884 21.0001 22 21.0001H14.6667C14.5783 21.0001 14.4935 20.9649 14.431 20.9024C14.3685 20.8399 14.3334 20.7552 14.3333 20.6668V20.3335Z" fill="white"/>
<path d="M17.1438 25.5729L16.9742 26.6129C16.9642 26.6747 16.9717 26.738 16.9959 26.7957C17.0201 26.8534 17.0601 26.9031 17.1112 26.9391C17.1624 26.9751 17.2226 26.996 17.2851 26.9994C17.3475 27.0028 17.4097 26.9886 17.4644 26.9583L18.3333 26.4782L19.2021 26.9583C19.2568 26.9886 19.319 27.0029 19.3814 26.9995C19.4439 26.9961 19.5042 26.9752 19.5553 26.9391C19.6064 26.903 19.6463 26.8533 19.6705 26.7957C19.6948 26.738 19.7023 26.6747 19.6923 26.6129L19.5227 25.5729L20.2385 24.8392C20.2813 24.7953 20.3112 24.7405 20.3249 24.6808C20.3385 24.6211 20.3355 24.5588 20.316 24.5007C20.2966 24.4426 20.2615 24.391 20.2146 24.3515C20.1678 24.312 20.1109 24.2863 20.0504 24.277L19.0745 24.1279L18.635 23.1917C18.6081 23.1344 18.5655 23.0859 18.512 23.052C18.4586 23.018 18.3966 23 18.3333 23C18.27 23 18.2079 23.018 18.1545 23.052C18.1011 23.0859 18.0584 23.1344 18.0315 23.1917L17.5921 24.1279L16.6161 24.277C16.5556 24.2863 16.4988 24.312 16.4519 24.3515C16.405 24.391 16.3699 24.4426 16.3505 24.5007C16.3311 24.5588 16.328 24.6211 16.3417 24.6808C16.3553 24.7405 16.3852 24.7953 16.428 24.8392L17.1438 25.5729ZM17.8687 24.7601C17.9228 24.7518 17.9741 24.7304 18.0179 24.6976C18.0617 24.6649 18.0968 24.6218 18.12 24.5723L18.3333 24.1178L18.5465 24.5723C18.5697 24.6218 18.6048 24.6649 18.6486 24.6976C18.6925 24.7304 18.7437 24.7518 18.7978 24.7601L19.3082 24.8382L18.928 25.2279C18.8916 25.2652 18.8644 25.3106 18.8487 25.3603C18.833 25.4101 18.8291 25.4628 18.8375 25.5143L18.9238 26.043L18.4944 25.8057C18.4451 25.7783 18.3896 25.764 18.3333 25.764C18.2769 25.764 18.2214 25.7783 18.1721 25.8057L17.7428 26.043L17.829 25.5143C17.8374 25.4628 17.8336 25.4101 17.8178 25.3603C17.8021 25.3106 17.775 25.2652 17.7385 25.2279L17.3583 24.8382L17.8687 24.7601Z" fill="white"/>
<path d="M18.3333 14C18.0696 14 17.8118 14.0782 17.5926 14.2247C17.3733 14.3712 17.2024 14.5795 17.1015 14.8231C17.0006 15.0667 16.9742 15.3348 17.0256 15.5935C17.0771 15.8521 17.2041 16.0897 17.3905 16.2761C17.577 16.4626 17.8146 16.5896 18.0732 16.641C18.3319 16.6925 18.5999 16.6661 18.8436 16.5652C19.0872 16.4643 19.2955 16.2934 19.442 16.0741C19.5885 15.8548 19.6667 15.597 19.6667 15.3333C19.6663 14.9798 19.5257 14.6409 19.2758 14.3909C19.0258 14.1409 18.6868 14.0004 18.3333 14ZM18.3333 16C18.2015 16 18.0726 15.9609 17.963 15.8876C17.8533 15.8144 17.7679 15.7103 17.7174 15.5885C17.667 15.4666 17.6538 15.3326 17.6795 15.2033C17.7052 15.074 17.7687 14.9552 17.8619 14.8619C17.9552 14.7687 18.074 14.7052 18.2033 14.6795C18.3326 14.6538 18.4666 14.667 18.5885 14.7174C18.7103 14.7679 18.8144 14.8533 18.8876 14.963C18.9609 15.0726 19 15.2015 19 15.3333C18.9998 15.5101 18.9295 15.6795 18.8045 15.8045C18.6795 15.9295 18.5101 15.9998 18.3333 16Z" fill="white"/>
<path d="M22.9869 9.76905L22.0689 6.56462C22.0547 6.51489 22.0291 6.46917 21.9941 6.43106C21.9591 6.39295 21.9158 6.3635 21.8674 6.34506C21.8191 6.32661 21.7672 6.31967 21.7157 6.32479C21.6642 6.3299 21.6146 6.34693 21.5709 6.37452L18.7516 8.153C18.7096 8.17944 18.6741 8.2149 18.6476 8.25679C18.621 8.29869 18.6042 8.34596 18.5982 8.39519L18.0845 12.6793C17.4921 12.7337 16.9348 12.9843 16.501 13.3914C16.0672 13.7984 15.7817 14.3387 15.6898 14.9264C15.5978 15.5142 15.7047 16.1158 15.9935 16.6359C16.2823 17.156 16.7364 17.5648 17.2839 17.7975C17.8314 18.0302 18.4409 18.0735 19.0158 17.9205C19.5906 17.7675 20.098 17.427 20.4574 16.9529C20.8168 16.4789 21.0076 15.8984 20.9997 15.3036C20.9918 14.7087 20.7855 14.1336 20.4136 13.6693L22.94 10.0518C22.9683 10.0111 22.9872 9.9646 22.9953 9.91569C23.0035 9.86679 23.0006 9.8167 22.9869 9.76905ZM18.3333 17.3333C17.9377 17.3333 17.551 17.216 17.2221 16.9963C16.8932 16.7765 16.6369 16.4642 16.4855 16.0987C16.3341 15.7333 16.2945 15.3311 16.3717 14.9432C16.4489 14.5552 16.6393 14.1988 16.9191 13.9191C17.1988 13.6394 17.5551 13.4489 17.9431 13.3718C18.331 13.2946 18.7332 13.3342 19.0986 13.4856C19.4641 13.637 19.7764 13.8933 19.9962 14.2222C20.216 14.5511 20.3333 14.9378 20.3333 15.3333C20.3327 15.8636 20.1218 16.372 19.7468 16.7469C19.3719 17.1219 18.8635 17.3328 18.3333 17.3333ZM19.9274 13.2007C19.5824 12.9417 19.1793 12.7709 18.7533 12.7031L19.2415 8.63216L21.5507 7.17546L22.3023 9.80012L19.9274 13.2007Z" fill="white"/>
<path d="M18.3333 3C15.0635 3.00367 11.9286 4.30425 9.6164 6.6164C7.30425 8.92856 6.00367 12.0635 6 15.3333C5.99998 15.3771 6.00858 15.4205 6.02532 15.4609C6.04207 15.5014 6.06662 15.5381 6.09758 15.5691C6.12853 15.6001 6.16529 15.6246 6.20574 15.6413C6.2462 15.6581 6.28955 15.6667 6.33333 15.6667H12.3333C12.3771 15.6667 12.4205 15.6581 12.4609 15.6413C12.5014 15.6246 12.5381 15.6001 12.5691 15.5691C12.6 15.5381 12.6246 15.5014 12.6413 15.4609C12.6581 15.4205 12.6667 15.3771 12.6667 15.3333C12.6663 13.8849 13.2207 12.4913 14.2161 11.4389C15.2114 10.3866 16.572 9.75549 18.0182 9.67529L17.9818 9.0096C16.4228 9.09597 14.9506 9.75532 13.8482 10.861C12.7457 11.9667 12.0906 13.4407 12.0088 15H6.67122C6.72404 13.1557 7.21348 11.3503 8.09937 9.73188C8.98525 8.11347 10.2423 6.72821 11.7674 5.68984C13.2925 4.65147 15.0421 3.98959 16.8726 3.75852C18.7031 3.52746 20.5623 3.7338 22.2975 4.36062L21.8311 5.54443L22.4515 5.7889L22.917 4.6075C24.9648 5.48479 26.7192 6.92919 27.9733 8.77047C29.2274 10.6118 29.929 12.7732 29.9954 15H24.6579C24.5811 13.4844 23.9594 12.0476 22.9072 10.9541L22.4261 11.4154C23.4385 12.4681 24.0027 13.8728 24 15.3333C24 15.3771 24.0086 15.4205 24.0253 15.4609C24.0421 15.5014 24.0666 15.5381 24.0976 15.5691C24.1285 15.6001 24.1653 15.6246 24.2057 15.6413C24.2462 15.6581 24.2896 15.6667 24.3333 15.6667H30.3333C30.3771 15.6667 30.4205 15.6581 30.4609 15.6413C30.5014 15.6246 30.5381 15.6001 30.5691 15.5691C30.6 15.5381 30.6246 15.5014 30.6413 15.4609C30.6581 15.4205 30.6667 15.3771 30.6667 15.3333C30.663 12.0635 29.3624 8.92856 27.0503 6.6164C24.7381 4.30425 21.6032 3.00367 18.3333 3Z" fill="white"/>
<path d="M11.3332 13.3335H7.66655V14.0001H11.3332V13.3335Z" fill="white"/>
<path d="M28.9999 13.3335H25.3333V14.0001H28.9999V13.3335Z" fill="white"/>
<path d="M12 22.3335C11.9501 22.3334 11.9008 22.3446 11.8558 22.3662C11.8108 22.3878 11.7712 22.4192 11.7399 22.4581C11.7087 22.4971 11.6866 22.5425 11.6752 22.5911C11.6639 22.6398 11.6637 22.6903 11.6745 22.7391L12.3412 25.739C12.3536 25.7952 12.3805 25.8472 12.419 25.89C12.4576 25.9327 12.5066 25.9647 12.5612 25.9829L14.3457 26.5777C14.4075 27.328 14.7489 28.0276 15.3023 28.538C15.8556 29.0485 16.5805 29.3323 17.3333 29.3335V31.6668H15.6667C15.5923 31.6668 15.5201 31.6917 15.4616 31.7374C15.403 31.7832 15.3614 31.8473 15.3434 31.9194L15.0101 33.2527C14.9978 33.3018 14.9969 33.3531 15.0074 33.4027C15.0179 33.4522 15.0395 33.4987 15.0707 33.5386C15.1019 33.5785 15.1417 33.6108 15.1872 33.633C15.2327 33.6552 15.2827 33.6668 15.3333 33.6668H21.3333C21.384 33.6668 21.4339 33.6552 21.4795 33.633C21.525 33.6108 21.5648 33.5785 21.596 33.5386C21.6271 33.4987 21.6488 33.4522 21.6593 33.4027C21.6698 33.3531 21.6689 33.3018 21.6566 33.2527L21.3232 31.9194C21.3053 31.8473 21.2637 31.7832 21.2051 31.7374C21.1465 31.6917 21.0743 31.6668 21 31.6668H19.3333V29.3335C20.0861 29.3323 20.8111 29.0485 21.3644 28.538C21.9178 28.0276 22.2592 27.328 22.321 26.5777L24.1055 25.9829C24.1601 25.9647 24.2091 25.9327 24.2476 25.89C24.2862 25.8472 24.313 25.7952 24.3255 25.739L24.9922 22.7391C25.003 22.6903 25.0028 22.6398 24.9914 22.5911C24.9801 22.5425 24.958 22.4971 24.9268 22.4581C24.8955 22.4192 24.8559 22.3878 24.8109 22.3662C24.7659 22.3446 24.7166 22.3334 24.6667 22.3335H22.3333V21.6054C22.5278 21.5369 22.6962 21.4099 22.8156 21.2418C22.9349 21.0738 22.9994 20.8729 23 20.6668V20.3335C22.9997 20.0683 22.8943 19.8141 22.7068 19.6267C22.5193 19.4392 22.2651 19.3337 22 19.3335H14.6667C14.4015 19.3337 14.1474 19.4392 13.9599 19.6267C13.7724 19.8141 13.667 20.0683 13.6667 20.3335V20.6668C13.6673 20.8729 13.7317 21.0738 13.8511 21.2418C13.9705 21.4099 14.1389 21.5369 14.3333 21.6053V22.3335H12ZM14.3333 25.8711L12.9512 25.4103L12.4157 23.0001H14.3333V25.8711ZM20.7396 32.3335L20.9063 33.0001H15.7604L15.9271 32.3335H20.7396ZM18 31.6668V29.3335H18.6667V31.6668H18ZM21.6667 26.3335C21.6659 26.9521 21.4199 27.5451 20.9824 27.9825C20.545 28.42 19.9519 28.666 19.3333 28.6668H17.3333C16.7147 28.666 16.1217 28.42 15.6842 27.9825C15.2468 27.5451 15.0008 26.9521 15 26.3335V21.6668H21.6667V26.3335ZM24.251 23.0001L23.7155 25.4103L22.3333 25.8711V23.0001H24.251ZM14.3333 20.3335C14.3334 20.2451 14.3685 20.1603 14.431 20.0978C14.4935 20.0353 14.5783 20.0002 14.6667 20.0001H22C22.0884 20.0002 22.1731 20.0353 22.2356 20.0978C22.2981 20.1603 22.3333 20.2451 22.3333 20.3335V20.6668C22.3333 20.7552 22.2981 20.8399 22.2356 20.9024C22.1731 20.9649 22.0884 21.0001 22 21.0001H14.6667C14.5783 21.0001 14.4935 20.9649 14.431 20.9024C14.3685 20.8399 14.3334 20.7552 14.3333 20.6668V20.3335Z" stroke="white" stroke-width="0.290909" mask="url(#path-1-outside-1_2022_4276)"/>
<path d="M17.1438 25.5729L16.9742 26.6129C16.9642 26.6747 16.9717 26.738 16.9959 26.7957C17.0201 26.8534 17.0601 26.9031 17.1112 26.9391C17.1624 26.9751 17.2226 26.996 17.2851 26.9994C17.3475 27.0028 17.4097 26.9886 17.4644 26.9583L18.3333 26.4782L19.2021 26.9583C19.2568 26.9886 19.319 27.0029 19.3814 26.9995C19.4439 26.9961 19.5042 26.9752 19.5553 26.9391C19.6064 26.903 19.6463 26.8533 19.6705 26.7957C19.6948 26.738 19.7023 26.6747 19.6923 26.6129L19.5227 25.5729L20.2385 24.8392C20.2813 24.7953 20.3112 24.7405 20.3249 24.6808C20.3385 24.6211 20.3355 24.5588 20.316 24.5007C20.2966 24.4426 20.2615 24.391 20.2146 24.3515C20.1678 24.312 20.1109 24.2863 20.0504 24.277L19.0745 24.1279L18.635 23.1917C18.6081 23.1344 18.5655 23.0859 18.512 23.052C18.4586 23.018 18.3966 23 18.3333 23C18.27 23 18.2079 23.018 18.1545 23.052C18.1011 23.0859 18.0584 23.1344 18.0315 23.1917L17.5921 24.1279L16.6161 24.277C16.5556 24.2863 16.4988 24.312 16.4519 24.3515C16.405 24.391 16.3699 24.4426 16.3505 24.5007C16.3311 24.5588 16.328 24.6211 16.3417 24.6808C16.3553 24.7405 16.3852 24.7953 16.428 24.8392L17.1438 25.5729ZM17.8687 24.7601C17.9228 24.7518 17.9741 24.7304 18.0179 24.6976C18.0617 24.6649 18.0968 24.6218 18.12 24.5723L18.3333 24.1178L18.5465 24.5723C18.5697 24.6218 18.6048 24.6649 18.6486 24.6976C18.6925 24.7304 18.7437 24.7518 18.7978 24.7601L19.3082 24.8382L18.928 25.2279C18.8916 25.2652 18.8644 25.3106 18.8487 25.3603C18.833 25.4101 18.8291 25.4628 18.8375 25.5143L18.9238 26.043L18.4944 25.8057C18.4451 25.7783 18.3896 25.764 18.3333 25.764C18.2769 25.764 18.2214 25.7783 18.1721 25.8057L17.7428 26.043L17.829 25.5143C17.8374 25.4628 17.8336 25.4101 17.8178 25.3603C17.8021 25.3106 17.775 25.2652 17.7385 25.2279L17.3583 24.8382L17.8687 24.7601Z" stroke="white" stroke-width="0.290909" mask="url(#path-1-outside-1_2022_4276)"/>
<path d="M18.3333 14C18.0696 14 17.8118 14.0782 17.5926 14.2247C17.3733 14.3712 17.2024 14.5795 17.1015 14.8231C17.0006 15.0667 16.9742 15.3348 17.0256 15.5935C17.0771 15.8521 17.2041 16.0897 17.3905 16.2761C17.577 16.4626 17.8146 16.5896 18.0732 16.641C18.3319 16.6925 18.5999 16.6661 18.8436 16.5652C19.0872 16.4643 19.2955 16.2934 19.442 16.0741C19.5885 15.8548 19.6667 15.597 19.6667 15.3333C19.6663 14.9798 19.5257 14.6409 19.2758 14.3909C19.0258 14.1409 18.6868 14.0004 18.3333 14ZM18.3333 16C18.2015 16 18.0726 15.9609 17.963 15.8876C17.8533 15.8144 17.7679 15.7103 17.7174 15.5885C17.667 15.4666 17.6538 15.3326 17.6795 15.2033C17.7052 15.074 17.7687 14.9552 17.8619 14.8619C17.9552 14.7687 18.074 14.7052 18.2033 14.6795C18.3326 14.6538 18.4666 14.667 18.5885 14.7174C18.7103 14.7679 18.8144 14.8533 18.8876 14.963C18.9609 15.0726 19 15.2015 19 15.3333C18.9998 15.5101 18.9295 15.6795 18.8045 15.8045C18.6795 15.9295 18.5101 15.9998 18.3333 16Z" stroke="white" stroke-width="0.290909" mask="url(#path-1-outside-1_2022_4276)"/>
<path d="M22.9869 9.76905L22.0689 6.56462C22.0547 6.51489 22.0291 6.46917 21.9941 6.43106C21.9591 6.39295 21.9158 6.3635 21.8674 6.34506C21.8191 6.32661 21.7672 6.31967 21.7157 6.32479C21.6642 6.3299 21.6146 6.34693 21.5709 6.37452L18.7516 8.153C18.7096 8.17944 18.6741 8.2149 18.6476 8.25679C18.621 8.29869 18.6042 8.34596 18.5982 8.39519L18.0845 12.6793C17.4921 12.7337 16.9348 12.9843 16.501 13.3914C16.0672 13.7984 15.7817 14.3387 15.6898 14.9264C15.5978 15.5142 15.7047 16.1158 15.9935 16.6359C16.2823 17.156 16.7364 17.5648 17.2839 17.7975C17.8314 18.0302 18.4409 18.0735 19.0158 17.9205C19.5906 17.7675 20.098 17.427 20.4574 16.9529C20.8168 16.4789 21.0076 15.8984 20.9997 15.3036C20.9918 14.7087 20.7855 14.1336 20.4136 13.6693L22.94 10.0518C22.9683 10.0111 22.9872 9.9646 22.9953 9.91569C23.0035 9.86679 23.0006 9.8167 22.9869 9.76905ZM18.3333 17.3333C17.9377 17.3333 17.551 17.216 17.2221 16.9963C16.8932 16.7765 16.6369 16.4642 16.4855 16.0987C16.3341 15.7333 16.2945 15.3311 16.3717 14.9432C16.4489 14.5552 16.6393 14.1988 16.9191 13.9191C17.1988 13.6394 17.5551 13.4489 17.9431 13.3718C18.331 13.2946 18.7332 13.3342 19.0986 13.4856C19.4641 13.637 19.7764 13.8933 19.9962 14.2222C20.216 14.5511 20.3333 14.9378 20.3333 15.3333C20.3327 15.8636 20.1218 16.372 19.7468 16.7469C19.3719 17.1219 18.8635 17.3328 18.3333 17.3333ZM19.9274 13.2007C19.5824 12.9417 19.1793 12.7709 18.7533 12.7031L19.2415 8.63216L21.5507 7.17546L22.3023 9.80012L19.9274 13.2007Z" stroke="white" stroke-width="0.290909" mask="url(#path-1-outside-1_2022_4276)"/>
<path d="M18.3333 3C15.0635 3.00367 11.9286 4.30425 9.6164 6.6164C7.30425 8.92856 6.00367 12.0635 6 15.3333C5.99998 15.3771 6.00858 15.4205 6.02532 15.4609C6.04207 15.5014 6.06662 15.5381 6.09758 15.5691C6.12853 15.6001 6.16529 15.6246 6.20574 15.6413C6.2462 15.6581 6.28955 15.6667 6.33333 15.6667H12.3333C12.3771 15.6667 12.4205 15.6581 12.4609 15.6413C12.5014 15.6246 12.5381 15.6001 12.5691 15.5691C12.6 15.5381 12.6246 15.5014 12.6413 15.4609C12.6581 15.4205 12.6667 15.3771 12.6667 15.3333C12.6663 13.8849 13.2207 12.4913 14.2161 11.4389C15.2114 10.3866 16.572 9.75549 18.0182 9.67529L17.9818 9.0096C16.4228 9.09597 14.9506 9.75532 13.8482 10.861C12.7457 11.9667 12.0906 13.4407 12.0088 15H6.67122C6.72404 13.1557 7.21348 11.3503 8.09937 9.73188C8.98525 8.11347 10.2423 6.72821 11.7674 5.68984C13.2925 4.65147 15.0421 3.98959 16.8726 3.75852C18.7031 3.52746 20.5623 3.7338 22.2975 4.36062L21.8311 5.54443L22.4515 5.7889L22.917 4.6075C24.9648 5.48479 26.7192 6.92919 27.9733 8.77047C29.2274 10.6118 29.929 12.7732 29.9954 15H24.6579C24.5811 13.4844 23.9594 12.0476 22.9072 10.9541L22.4261 11.4154C23.4385 12.4681 24.0027 13.8728 24 15.3333C24 15.3771 24.0086 15.4205 24.0253 15.4609C24.0421 15.5014 24.0666 15.5381 24.0976 15.5691C24.1285 15.6001 24.1653 15.6246 24.2057 15.6413C24.2462 15.6581 24.2896 15.6667 24.3333 15.6667H30.3333C30.3771 15.6667 30.4205 15.6581 30.4609 15.6413C30.5014 15.6246 30.5381 15.6001 30.5691 15.5691C30.6 15.5381 30.6246 15.5014 30.6413 15.4609C30.6581 15.4205 30.6667 15.3771 30.6667 15.3333C30.663 12.0635 29.3624 8.92856 27.0503 6.6164C24.7381 4.30425 21.6032 3.00367 18.3333 3Z" stroke="white" stroke-width="0.290909" mask="url(#path-1-outside-1_2022_4276)"/>
<path d="M11.3332 13.3335H7.66655V14.0001H11.3332V13.3335Z" stroke="white" stroke-width="0.290909" mask="url(#path-1-outside-1_2022_4276)"/>
<path d="M28.9999 13.3335H25.3333V14.0001H28.9999V13.3335Z" stroke="white" stroke-width="0.290909" mask="url(#path-1-outside-1_2022_4276)"/>
</svg>
