<svg width="32" height="32" viewBox="0 0 32 32" fill="none" xmlns="http://www.w3.org/2000/svg">
<path d="M15.9999 2.99991C13.4288 2.99991 10.9154 3.76235 8.77753 5.1908C6.63969 6.61926 4.97345 8.64958 3.98951 11.025C3.00557 13.4005 2.74813 16.0143 3.24974 18.5361C3.75134 21.0578 4.98947 23.3742 6.80756 25.1923C8.62564 27.0104 10.942 28.2485 13.4638 28.7501C15.9855 29.2517 18.5994 28.9943 20.9748 28.0103C23.3503 27.0264 25.3806 25.3602 26.809 23.2223C28.2375 21.0845 28.9999 18.5711 28.9999 15.9999C28.9963 12.5532 27.6255 9.24872 25.1883 6.81154C22.7511 4.37436 19.4466 3.00355 15.9999 2.99991ZM15.9999 26.9999C13.8244 26.9999 11.6976 26.3548 9.88867 25.1461C8.07973 23.9374 6.66983 22.2194 5.83727 20.2094C5.00471 18.1994 4.78687 15.9877 5.21131 13.8539C5.63574 11.7201 6.68339 9.76011 8.22177 8.22173C9.76015 6.68336 11.7202 5.63571 13.854 5.21127C15.9877 4.78683 18.1995 5.00467 20.2095 5.83723C22.2195 6.6698 23.9374 8.0797 25.1461 9.88864C26.3548 11.6976 26.9999 13.8243 26.9999 15.9999C26.9966 18.9163 25.8366 21.7122 23.7745 23.7744C21.7123 25.8366 18.9163 26.9966 15.9999 26.9999ZM23.9999 15.9999C23.9999 16.2651 23.8946 16.5195 23.7071 16.707C23.5195 16.8946 23.2652 16.9999 22.9999 16.9999H18.4137L21.7074 20.2924C21.8004 20.3853 21.8741 20.4956 21.9243 20.617C21.9746 20.7384 22.0005 20.8685 22.0005 20.9999C22.0005 21.1313 21.9746 21.2614 21.9243 21.3828C21.8741 21.5042 21.8004 21.6145 21.7074 21.7074C21.6145 21.8003 21.5042 21.874 21.3828 21.9243C21.2614 21.9746 21.1313 22.0005 20.9999 22.0005C20.8686 22.0005 20.7384 21.9746 20.617 21.9243C20.4957 21.874 20.3854 21.8003 20.2924 21.7074L15.2924 16.7074C15.1524 16.5676 15.0571 16.3893 15.0184 16.1952C14.9798 16.0011 14.9996 15.7999 15.0753 15.6171C15.1511 15.4343 15.2794 15.2781 15.444 15.1682C15.6086 15.0583 15.802 14.9998 15.9999 14.9999H22.9999C23.2652 14.9999 23.5195 15.1053 23.7071 15.2928C23.8946 15.4803 23.9999 15.7347 23.9999 15.9999Z" fill="white"/>
</svg>
