<svg width="32" height="32" viewBox="0 0 32 32" fill="none" xmlns="http://www.w3.org/2000/svg">
<mask id="path-1-outside-1_2022_3871" maskUnits="userSpaceOnUse" x="0.0124359" y="4.28" width="32" height="23" fill="black">
<rect fill="white" x="0.0124359" y="4.28" width="32" height="23"/>
<path d="M12.896 26.048C12.896 26.144 12.992 26.24 13.088 26.24H13.376V26.528C13.376 26.624 13.472 26.72 13.568 26.72C13.664 26.72 13.76 26.624 13.76 26.528V26.24H14.048C14.144 26.24 14.24 26.144 14.24 26.048C14.24 25.952 14.144 25.856 14.048 25.856H13.76V25.568C13.76 25.472 13.664 25.376 13.568 25.376C13.472 25.376 13.376 25.472 13.376 25.568V25.856H13.088C12.992 25.824 12.896 25.92 12.896 26.048Z"/>
<path d="M30.752 5.888H30.4V5.536C30.4 5.408 30.304 5.312 30.176 5.28C30.048 5.28 29.952 5.376 29.92 5.504V5.856H29.568C29.44 5.856 29.344 5.952 29.312 6.08C29.312 6.208 29.408 6.304 29.536 6.336H29.888V6.688C29.888 6.816 29.984 6.912 30.112 6.944C30.24 6.944 30.336 6.848 30.368 6.72V6.368H30.72C30.848 6.368 30.944 6.272 30.976 6.144C31.008 5.984 30.88 5.888 30.752 5.888Z"/>
<path d="M27.68 20.288C27.808 20.288 27.904 20.192 27.936 20.064V19.712H28.288C28.416 19.712 28.512 19.616 28.544 19.488C28.544 19.36 28.448 19.264 28.32 19.232H27.968V18.88C27.968 18.752 27.872 18.656 27.744 18.624C27.616 18.624 27.52 18.72 27.488 18.848V19.2H27.136C27.008 19.2 26.912 19.296 26.88 19.424C26.88 19.552 26.976 19.648 27.104 19.68H27.456V20.032C27.456 20.16 27.552 20.288 27.68 20.288Z"/>
<path d="M1.02398 15.328C1.08798 15.456 1.21598 15.52 1.34398 15.456L1.66398 15.328L1.79198 15.648C1.85598 15.776 1.98398 15.808 2.11198 15.776C2.23998 15.712 2.30398 15.584 2.23998 15.456L2.11198 15.136L2.43198 15.008C2.55998 14.944 2.59198 14.816 2.55998 14.688C2.49598 14.56 2.36798 14.528 2.23998 14.56L1.91998 14.688L1.79198 14.368C1.72798 14.24 1.59998 14.208 1.47198 14.24C1.34398 14.304 1.31198 14.432 1.34398 14.56L1.47198 14.88L1.15198 15.008C1.02398 15.072 0.991978 15.2 1.02398 15.328Z"/>
<path d="M1.75999 24.064C1.56799 24.064 1.43999 24.192 1.43999 24.384C1.43999 24.576 1.56799 24.704 1.75999 24.704H5.31199C5.50399 24.704 5.63199 24.576 5.63199 24.384C5.63199 24.192 5.50399 24.064 5.31199 24.064H1.75999Z"/>
<path d="M30.56 24.096H29.728C29.536 24.096 29.408 24.224 29.408 24.416C29.408 24.608 29.536 24.736 29.728 24.736H30.56C30.752 24.736 30.88 24.608 30.88 24.416C30.88 24.256 30.752 24.096 30.56 24.096Z"/>
<path d="M24.16 22.24H14.368C14.208 22.24 14.048 22.368 14.048 22.56C14.048 22.72 14.176 22.88 14.368 22.88H24.16C24.32 22.88 24.48 22.752 24.48 22.56C24.48 22.368 24.352 22.24 24.16 22.24Z"/>
<path d="M24.096 9.856C23.904 9.76 23.648 9.728 23.616 9.696V8.768C23.68 8.768 23.904 8.768 24.192 8.864C24.224 8.864 24.256 8.896 24.288 8.896C24.32 8.896 24.352 8.896 24.384 8.832C24.416 8.8 24.416 8.768 24.416 8.704C24.416 8.608 24.384 8.576 24.288 8.544C23.936 8.416 23.648 8.416 23.584 8.416V8.128C23.584 8.064 23.552 8.032 23.488 8.032C23.456 8.032 23.424 8.032 23.424 8.064C23.392 8.096 23.392 8.096 23.392 8.128V8.416C23.36 8.416 23.104 8.416 22.88 8.544C22.752 8.608 22.624 8.704 22.56 8.832C22.496 8.96 22.464 9.088 22.464 9.216C22.464 9.376 22.496 9.504 22.592 9.632C22.688 9.728 22.784 9.824 22.912 9.856C23.104 9.952 23.36 10.016 23.392 10.016V10.912C23.328 10.912 23.008 10.912 22.688 10.752C22.624 10.72 22.528 10.72 22.496 10.784C22.464 10.816 22.464 10.848 22.464 10.912C22.464 10.944 22.464 10.976 22.496 11.008C22.528 11.04 22.56 11.072 22.592 11.072C22.816 11.168 23.072 11.232 23.36 11.264H23.456V11.552C23.456 11.584 23.456 11.616 23.488 11.616C23.52 11.648 23.52 11.648 23.552 11.648C23.584 11.648 23.616 11.648 23.616 11.616C23.648 11.584 23.648 11.584 23.648 11.552V11.264C23.712 11.264 23.904 11.264 24.128 11.136C24.384 11.008 24.576 10.784 24.576 10.464C24.576 10.304 24.544 10.144 24.448 10.048C24.32 9.984 24.224 9.92 24.096 9.856ZM23.424 9.664C23.36 9.632 23.168 9.6 23.008 9.504C22.912 9.44 22.88 9.344 22.88 9.248C22.88 9.12 22.944 9.024 23.04 8.96C23.104 8.896 23.232 8.864 23.328 8.832L23.424 8.8V9.664ZM23.712 10.944L23.616 10.976V10.144C23.68 10.176 23.904 10.208 24.032 10.304C24.128 10.368 24.16 10.432 24.16 10.528C24.16 10.752 24.032 10.88 23.712 10.944Z"/>
<path d="M15.072 16.64C14.944 16.576 14.784 16.544 14.624 16.48L14.56 16.448V15.392H14.656C14.848 15.392 15.008 15.456 15.2 15.52C15.232 15.52 15.264 15.552 15.296 15.552C15.328 15.552 15.36 15.52 15.424 15.488C15.456 15.456 15.488 15.392 15.488 15.36C15.488 15.264 15.456 15.2 15.36 15.168C15.136 15.104 14.912 15.04 14.656 15.04H14.56V14.72C14.56 14.656 14.528 14.624 14.464 14.624C14.432 14.624 14.4 14.624 14.4 14.656C14.368 14.688 14.368 14.688 14.368 14.72V15.04C14.304 15.04 14.048 15.04 13.792 15.2C13.632 15.296 13.504 15.392 13.44 15.52C13.344 15.648 13.312 15.808 13.312 15.968C13.312 16.16 13.376 16.32 13.472 16.416C13.568 16.544 13.696 16.608 13.824 16.672C14.048 16.768 14.304 16.832 14.368 16.832V17.824C14.304 17.824 13.952 17.824 13.568 17.664C13.536 17.664 13.504 17.632 13.472 17.632C13.408 17.632 13.376 17.664 13.344 17.696C13.312 17.728 13.28 17.792 13.28 17.824C13.28 17.856 13.28 17.888 13.312 17.92C13.344 17.952 13.376 17.984 13.408 17.984C13.888 18.176 14.304 18.176 14.368 18.208V18.56C14.368 18.592 14.368 18.624 14.4 18.624C14.432 18.656 14.432 18.656 14.464 18.656C14.496 18.656 14.528 18.656 14.528 18.624C14.56 18.592 14.56 18.592 14.56 18.56V18.208C14.624 18.208 14.848 18.208 15.104 18.08C15.424 17.92 15.616 17.664 15.616 17.344C15.616 17.152 15.552 16.992 15.456 16.864C15.328 16.8 15.2 16.704 15.072 16.64ZM14.304 16.416C14.208 16.384 13.984 16.32 13.824 16.224C13.728 16.16 13.664 16.064 13.664 15.904C13.664 15.776 13.728 15.648 13.824 15.552C13.92 15.488 14.016 15.456 14.144 15.424L14.272 15.392V16.416H14.304ZM14.656 17.856L14.528 17.888V16.928L14.656 16.96C14.784 16.992 14.912 17.056 15.008 17.088C15.104 17.152 15.168 17.248 15.168 17.344C15.168 17.632 14.976 17.792 14.656 17.856Z"/>
<path d="M9.88798 9.536H8.22398C8.22398 9.088 7.83998 8.704 7.39198 8.704H4.35198C3.90398 8.704 3.51998 9.088 3.51998 9.536V15.52C3.51998 15.968 3.90398 16.352 4.35198 16.352H7.39198C7.77598 16.352 8.12798 16.064 8.19198 15.712H8.70398C8.47998 16.48 8.38398 17.216 8.38398 17.824C8.38398 20.256 10.112 21.504 12.192 21.952V24.064H7.90398C7.71198 24.064 7.58398 24.192 7.58398 24.384C7.58398 24.576 7.71198 24.704 7.90398 24.704H27.776C27.968 24.704 28.096 24.576 28.096 24.384C28.096 24.192 27.968 24.064 27.776 24.064H26.336V11.648H28.512C28.704 11.648 28.832 11.52 28.832 11.328V7.872C28.832 7.008 28.128 6.304 27.296 6.304H17.056C16.992 5.76 16.512 5.408 16 5.568C15.904 5.6 15.776 5.6 15.616 5.6C15.328 5.6 15.2 5.536 15.04 5.472C14.848 5.376 14.624 5.28 14.176 5.28C13.728 5.28 13.504 5.376 13.312 5.472C13.152 5.536 13.024 5.6 12.736 5.6C12.576 5.6 12.48 5.6 12.352 5.568C12.064 5.472 11.744 5.568 11.52 5.824C11.296 6.08 11.232 6.464 11.36 6.784L11.936 8.16L10.624 9.28C10.464 9.44 10.176 9.536 9.88798 9.536ZM7.58398 15.552C7.58398 15.648 7.48798 15.744 7.39198 15.744H4.35198C4.25598 15.744 4.15998 15.648 4.15998 15.552V9.568C4.15998 9.472 4.25598 9.376 4.35198 9.376H7.39198C7.48798 9.376 7.58398 9.472 7.58398 9.568V15.552ZM9.02398 17.856C9.02398 17.216 9.15198 16.448 9.40798 15.616C9.40798 15.584 9.43998 15.584 9.43998 15.552C10.048 13.888 11.072 12.544 11.808 11.712L14.176 10.944C14.304 10.912 14.464 10.944 14.56 11.072L14.88 11.488C15.168 11.872 15.616 12.064 16.064 12.032C15.712 12.416 15.648 13.024 15.968 13.44C15.808 13.536 15.68 13.632 15.616 13.792C15.232 13.632 14.816 13.536 14.4 13.536C12.672 13.536 11.264 14.944 11.264 16.672C11.264 18.4 12.672 19.808 14.4 19.808C16.128 19.808 17.536 18.4 17.536 16.672C17.536 16.288 17.472 15.904 17.312 15.52H18.336C18.528 15.52 18.72 15.456 18.88 15.36C19.2 16.32 19.232 16.864 19.264 16.992C19.264 17.088 19.296 17.184 19.296 17.28V17.44C19.296 17.536 19.328 17.728 19.328 17.824C19.328 21.28 15.36 21.536 14.144 21.536C12.928 21.536 9.02398 21.28 9.02398 17.856ZM16.896 16.672C16.896 18.048 15.776 19.168 14.4 19.168C13.024 19.168 11.904 18.048 11.904 16.672C11.904 15.296 13.024 14.176 14.4 14.176C14.752 14.176 15.104 14.24 15.424 14.4C15.424 15.008 15.936 15.52 16.544 15.52H16.608C16.8 15.872 16.896 16.256 16.896 16.672ZM16.544 14.88C16.288 14.88 16.064 14.656 16.064 14.4C16.064 14.144 16.288 13.92 16.544 13.92H18.336C18.592 13.92 18.816 14.144 18.816 14.4C18.816 14.656 18.592 14.88 18.336 14.88H16.544ZM18.688 13.248H16.896C16.64 13.248 16.416 13.024 16.416 12.768C16.416 12.512 16.64 12.288 16.896 12.288H18.688C18.944 12.288 19.168 12.512 19.168 12.768C19.2 13.056 18.976 13.248 18.688 13.248ZM18.88 11.648H17.088C17.056 11.648 17.024 11.648 16.96 11.616C17.152 11.424 17.312 11.168 17.376 10.88C17.376 10.816 17.408 10.72 17.408 10.656H18.88C19.136 10.656 19.36 10.88 19.36 11.136C19.36 11.392 19.136 11.648 18.88 11.648ZM18.368 9.056C18.624 9.056 18.848 9.28 18.848 9.536C18.848 9.792 18.624 10.016 18.368 10.016H17.248C17.216 9.952 17.184 9.888 17.12 9.824L16.576 9.056C16.608 9.056 18.4 9.056 18.368 9.056ZM12.832 24.096V22.08C13.28 22.144 13.728 22.176 14.208 22.176C16.704 22.176 18.528 21.408 19.392 20.032H24.16C24.32 20.032 24.48 19.904 24.48 19.712C24.48 19.52 24.352 19.392 24.16 19.392H19.712C19.904 18.912 20 18.4 20 17.792C20 17.664 20 17.472 19.968 17.344C19.968 17.28 19.968 17.248 19.968 17.184H24.16C24.32 17.184 24.48 17.056 24.48 16.864C24.48 16.672 24.352 16.544 24.16 16.544H19.872C19.776 15.968 19.616 15.36 19.392 14.752C19.456 14.624 19.456 14.496 19.488 14.368H24.192C24.352 14.368 24.512 14.24 24.512 14.048C24.512 13.856 24.384 13.728 24.192 13.728H19.296C19.296 13.696 19.264 13.696 19.264 13.664C19.872 13.312 20.032 12.512 19.552 11.968C19.712 11.84 19.808 11.712 19.904 11.52H21.056C21.216 11.52 21.376 11.392 21.376 11.2C21.376 11.04 21.248 10.88 21.056 10.88H19.968C19.904 10.496 19.648 10.144 19.296 10.016C19.552 9.568 19.488 9.056 19.168 8.704H21.056C21.216 8.704 21.376 8.576 21.376 8.384C21.376 8.192 21.248 8.064 21.056 8.064H16.384L16.928 6.816H26.016C25.824 7.072 25.696 7.392 25.696 7.744C25.728 29.184 25.696 22.688 25.696 23.968L12.832 24.096ZM28.192 7.872V11.04H26.336V7.904C26.336 7.392 26.752 6.976 27.264 6.976C27.776 6.976 28.192 7.36 28.192 7.872ZM12.032 6.24C12.064 6.208 12.128 6.176 12.192 6.176C12.352 6.24 12.544 6.24 12.736 6.24C13.152 6.24 13.376 6.144 13.6 6.048C13.76 5.984 13.888 5.92 14.208 5.92C14.496 5.92 14.624 5.984 14.816 6.048C15.008 6.144 15.232 6.24 15.648 6.24C15.872 6.24 16.032 6.208 16.192 6.176C16.288 6.144 16.32 6.176 16.352 6.24C16.416 6.304 16.448 6.4 16.384 6.528C16 7.424 15.616 8.32 15.616 8.288C15.552 8.256 15.488 8.224 15.424 8.224L13.824 7.68C13.408 7.552 12.928 7.584 12.544 7.776L12 6.496C11.936 6.4 11.968 6.272 12.032 6.24ZM12.48 8.544C12.8 8.256 13.216 8.192 13.632 8.288L15.264 8.768C15.52 8.832 15.744 9.024 15.904 9.216L16.576 10.176C16.64 10.272 16.672 10.336 16.704 10.432C16.736 10.528 16.736 10.624 16.704 10.72C16.672 10.912 16.544 11.104 16.384 11.2C16.064 11.424 15.616 11.328 15.392 11.04L15.072 10.624C14.816 10.272 14.368 10.144 13.984 10.272L11.552 11.04C11.488 11.072 11.456 11.104 11.424 11.136C10.656 11.968 9.63198 13.344 8.92798 15.04H8.22398V10.176H9.88798C10.336 10.176 10.752 10.016 11.104 9.728L12.48 8.544Z"/>
<path d="M5.85597 10.08C5.37597 10.08 5.02397 10.464 5.02397 10.944C5.02397 11.424 5.40797 11.776 5.85597 11.776C6.33597 11.776 6.68797 11.392 6.68797 10.944C6.71997 10.464 6.33597 10.08 5.85597 10.08ZM5.85597 11.456C5.56797 11.456 5.34397 11.232 5.34397 10.944C5.34397 10.656 5.56797 10.4 5.85597 10.4C6.14397 10.4 6.36797 10.624 6.36797 10.944C6.39997 11.232 6.14397 11.456 5.85597 11.456Z"/>
</mask>
<path d="M12.896 26.048C12.896 26.144 12.992 26.24 13.088 26.24H13.376V26.528C13.376 26.624 13.472 26.72 13.568 26.72C13.664 26.72 13.76 26.624 13.76 26.528V26.24H14.048C14.144 26.24 14.24 26.144 14.24 26.048C14.24 25.952 14.144 25.856 14.048 25.856H13.76V25.568C13.76 25.472 13.664 25.376 13.568 25.376C13.472 25.376 13.376 25.472 13.376 25.568V25.856H13.088C12.992 25.824 12.896 25.92 12.896 26.048Z" fill="white"/>
<path d="M30.752 5.888H30.4V5.536C30.4 5.408 30.304 5.312 30.176 5.28C30.048 5.28 29.952 5.376 29.92 5.504V5.856H29.568C29.44 5.856 29.344 5.952 29.312 6.08C29.312 6.208 29.408 6.304 29.536 6.336H29.888V6.688C29.888 6.816 29.984 6.912 30.112 6.944C30.24 6.944 30.336 6.848 30.368 6.72V6.368H30.72C30.848 6.368 30.944 6.272 30.976 6.144C31.008 5.984 30.88 5.888 30.752 5.888Z" fill="white"/>
<path d="M27.68 20.288C27.808 20.288 27.904 20.192 27.936 20.064V19.712H28.288C28.416 19.712 28.512 19.616 28.544 19.488C28.544 19.36 28.448 19.264 28.32 19.232H27.968V18.88C27.968 18.752 27.872 18.656 27.744 18.624C27.616 18.624 27.52 18.72 27.488 18.848V19.2H27.136C27.008 19.2 26.912 19.296 26.88 19.424C26.88 19.552 26.976 19.648 27.104 19.68H27.456V20.032C27.456 20.16 27.552 20.288 27.68 20.288Z" fill="white"/>
<path d="M1.02398 15.328C1.08798 15.456 1.21598 15.52 1.34398 15.456L1.66398 15.328L1.79198 15.648C1.85598 15.776 1.98398 15.808 2.11198 15.776C2.23998 15.712 2.30398 15.584 2.23998 15.456L2.11198 15.136L2.43198 15.008C2.55998 14.944 2.59198 14.816 2.55998 14.688C2.49598 14.56 2.36798 14.528 2.23998 14.56L1.91998 14.688L1.79198 14.368C1.72798 14.24 1.59998 14.208 1.47198 14.24C1.34398 14.304 1.31198 14.432 1.34398 14.56L1.47198 14.88L1.15198 15.008C1.02398 15.072 0.991978 15.2 1.02398 15.328Z" fill="white"/>
<path d="M1.75999 24.064C1.56799 24.064 1.43999 24.192 1.43999 24.384C1.43999 24.576 1.56799 24.704 1.75999 24.704H5.31199C5.50399 24.704 5.63199 24.576 5.63199 24.384C5.63199 24.192 5.50399 24.064 5.31199 24.064H1.75999Z" fill="white"/>
<path d="M30.56 24.096H29.728C29.536 24.096 29.408 24.224 29.408 24.416C29.408 24.608 29.536 24.736 29.728 24.736H30.56C30.752 24.736 30.88 24.608 30.88 24.416C30.88 24.256 30.752 24.096 30.56 24.096Z" fill="white"/>
<path d="M24.16 22.24H14.368C14.208 22.24 14.048 22.368 14.048 22.56C14.048 22.72 14.176 22.88 14.368 22.88H24.16C24.32 22.88 24.48 22.752 24.48 22.56C24.48 22.368 24.352 22.24 24.16 22.24Z" fill="white"/>
<path d="M24.096 9.856C23.904 9.76 23.648 9.728 23.616 9.696V8.768C23.68 8.768 23.904 8.768 24.192 8.864C24.224 8.864 24.256 8.896 24.288 8.896C24.32 8.896 24.352 8.896 24.384 8.832C24.416 8.8 24.416 8.768 24.416 8.704C24.416 8.608 24.384 8.576 24.288 8.544C23.936 8.416 23.648 8.416 23.584 8.416V8.128C23.584 8.064 23.552 8.032 23.488 8.032C23.456 8.032 23.424 8.032 23.424 8.064C23.392 8.096 23.392 8.096 23.392 8.128V8.416C23.36 8.416 23.104 8.416 22.88 8.544C22.752 8.608 22.624 8.704 22.56 8.832C22.496 8.96 22.464 9.088 22.464 9.216C22.464 9.376 22.496 9.504 22.592 9.632C22.688 9.728 22.784 9.824 22.912 9.856C23.104 9.952 23.36 10.016 23.392 10.016V10.912C23.328 10.912 23.008 10.912 22.688 10.752C22.624 10.72 22.528 10.72 22.496 10.784C22.464 10.816 22.464 10.848 22.464 10.912C22.464 10.944 22.464 10.976 22.496 11.008C22.528 11.04 22.56 11.072 22.592 11.072C22.816 11.168 23.072 11.232 23.36 11.264H23.456V11.552C23.456 11.584 23.456 11.616 23.488 11.616C23.52 11.648 23.52 11.648 23.552 11.648C23.584 11.648 23.616 11.648 23.616 11.616C23.648 11.584 23.648 11.584 23.648 11.552V11.264C23.712 11.264 23.904 11.264 24.128 11.136C24.384 11.008 24.576 10.784 24.576 10.464C24.576 10.304 24.544 10.144 24.448 10.048C24.32 9.984 24.224 9.92 24.096 9.856ZM23.424 9.664C23.36 9.632 23.168 9.6 23.008 9.504C22.912 9.44 22.88 9.344 22.88 9.248C22.88 9.12 22.944 9.024 23.04 8.96C23.104 8.896 23.232 8.864 23.328 8.832L23.424 8.8V9.664ZM23.712 10.944L23.616 10.976V10.144C23.68 10.176 23.904 10.208 24.032 10.304C24.128 10.368 24.16 10.432 24.16 10.528C24.16 10.752 24.032 10.88 23.712 10.944Z" fill="white"/>
<path d="M15.072 16.64C14.944 16.576 14.784 16.544 14.624 16.48L14.56 16.448V15.392H14.656C14.848 15.392 15.008 15.456 15.2 15.52C15.232 15.52 15.264 15.552 15.296 15.552C15.328 15.552 15.36 15.52 15.424 15.488C15.456 15.456 15.488 15.392 15.488 15.36C15.488 15.264 15.456 15.2 15.36 15.168C15.136 15.104 14.912 15.04 14.656 15.04H14.56V14.72C14.56 14.656 14.528 14.624 14.464 14.624C14.432 14.624 14.4 14.624 14.4 14.656C14.368 14.688 14.368 14.688 14.368 14.72V15.04C14.304 15.04 14.048 15.04 13.792 15.2C13.632 15.296 13.504 15.392 13.44 15.52C13.344 15.648 13.312 15.808 13.312 15.968C13.312 16.16 13.376 16.32 13.472 16.416C13.568 16.544 13.696 16.608 13.824 16.672C14.048 16.768 14.304 16.832 14.368 16.832V17.824C14.304 17.824 13.952 17.824 13.568 17.664C13.536 17.664 13.504 17.632 13.472 17.632C13.408 17.632 13.376 17.664 13.344 17.696C13.312 17.728 13.28 17.792 13.28 17.824C13.28 17.856 13.28 17.888 13.312 17.92C13.344 17.952 13.376 17.984 13.408 17.984C13.888 18.176 14.304 18.176 14.368 18.208V18.56C14.368 18.592 14.368 18.624 14.4 18.624C14.432 18.656 14.432 18.656 14.464 18.656C14.496 18.656 14.528 18.656 14.528 18.624C14.56 18.592 14.56 18.592 14.56 18.56V18.208C14.624 18.208 14.848 18.208 15.104 18.08C15.424 17.92 15.616 17.664 15.616 17.344C15.616 17.152 15.552 16.992 15.456 16.864C15.328 16.8 15.2 16.704 15.072 16.64ZM14.304 16.416C14.208 16.384 13.984 16.32 13.824 16.224C13.728 16.16 13.664 16.064 13.664 15.904C13.664 15.776 13.728 15.648 13.824 15.552C13.92 15.488 14.016 15.456 14.144 15.424L14.272 15.392V16.416H14.304ZM14.656 17.856L14.528 17.888V16.928L14.656 16.96C14.784 16.992 14.912 17.056 15.008 17.088C15.104 17.152 15.168 17.248 15.168 17.344C15.168 17.632 14.976 17.792 14.656 17.856Z" fill="white"/>
<path d="M9.88798 9.536H8.22398C8.22398 9.088 7.83998 8.704 7.39198 8.704H4.35198C3.90398 8.704 3.51998 9.088 3.51998 9.536V15.52C3.51998 15.968 3.90398 16.352 4.35198 16.352H7.39198C7.77598 16.352 8.12798 16.064 8.19198 15.712H8.70398C8.47998 16.48 8.38398 17.216 8.38398 17.824C8.38398 20.256 10.112 21.504 12.192 21.952V24.064H7.90398C7.71198 24.064 7.58398 24.192 7.58398 24.384C7.58398 24.576 7.71198 24.704 7.90398 24.704H27.776C27.968 24.704 28.096 24.576 28.096 24.384C28.096 24.192 27.968 24.064 27.776 24.064H26.336V11.648H28.512C28.704 11.648 28.832 11.52 28.832 11.328V7.872C28.832 7.008 28.128 6.304 27.296 6.304H17.056C16.992 5.76 16.512 5.408 16 5.568C15.904 5.6 15.776 5.6 15.616 5.6C15.328 5.6 15.2 5.536 15.04 5.472C14.848 5.376 14.624 5.28 14.176 5.28C13.728 5.28 13.504 5.376 13.312 5.472C13.152 5.536 13.024 5.6 12.736 5.6C12.576 5.6 12.48 5.6 12.352 5.568C12.064 5.472 11.744 5.568 11.52 5.824C11.296 6.08 11.232 6.464 11.36 6.784L11.936 8.16L10.624 9.28C10.464 9.44 10.176 9.536 9.88798 9.536ZM7.58398 15.552C7.58398 15.648 7.48798 15.744 7.39198 15.744H4.35198C4.25598 15.744 4.15998 15.648 4.15998 15.552V9.568C4.15998 9.472 4.25598 9.376 4.35198 9.376H7.39198C7.48798 9.376 7.58398 9.472 7.58398 9.568V15.552ZM9.02398 17.856C9.02398 17.216 9.15198 16.448 9.40798 15.616C9.40798 15.584 9.43998 15.584 9.43998 15.552C10.048 13.888 11.072 12.544 11.808 11.712L14.176 10.944C14.304 10.912 14.464 10.944 14.56 11.072L14.88 11.488C15.168 11.872 15.616 12.064 16.064 12.032C15.712 12.416 15.648 13.024 15.968 13.44C15.808 13.536 15.68 13.632 15.616 13.792C15.232 13.632 14.816 13.536 14.4 13.536C12.672 13.536 11.264 14.944 11.264 16.672C11.264 18.4 12.672 19.808 14.4 19.808C16.128 19.808 17.536 18.4 17.536 16.672C17.536 16.288 17.472 15.904 17.312 15.52H18.336C18.528 15.52 18.72 15.456 18.88 15.36C19.2 16.32 19.232 16.864 19.264 16.992C19.264 17.088 19.296 17.184 19.296 17.28V17.44C19.296 17.536 19.328 17.728 19.328 17.824C19.328 21.28 15.36 21.536 14.144 21.536C12.928 21.536 9.02398 21.28 9.02398 17.856ZM16.896 16.672C16.896 18.048 15.776 19.168 14.4 19.168C13.024 19.168 11.904 18.048 11.904 16.672C11.904 15.296 13.024 14.176 14.4 14.176C14.752 14.176 15.104 14.24 15.424 14.4C15.424 15.008 15.936 15.52 16.544 15.52H16.608C16.8 15.872 16.896 16.256 16.896 16.672ZM16.544 14.88C16.288 14.88 16.064 14.656 16.064 14.4C16.064 14.144 16.288 13.92 16.544 13.92H18.336C18.592 13.92 18.816 14.144 18.816 14.4C18.816 14.656 18.592 14.88 18.336 14.88H16.544ZM18.688 13.248H16.896C16.64 13.248 16.416 13.024 16.416 12.768C16.416 12.512 16.64 12.288 16.896 12.288H18.688C18.944 12.288 19.168 12.512 19.168 12.768C19.2 13.056 18.976 13.248 18.688 13.248ZM18.88 11.648H17.088C17.056 11.648 17.024 11.648 16.96 11.616C17.152 11.424 17.312 11.168 17.376 10.88C17.376 10.816 17.408 10.72 17.408 10.656H18.88C19.136 10.656 19.36 10.88 19.36 11.136C19.36 11.392 19.136 11.648 18.88 11.648ZM18.368 9.056C18.624 9.056 18.848 9.28 18.848 9.536C18.848 9.792 18.624 10.016 18.368 10.016H17.248C17.216 9.952 17.184 9.888 17.12 9.824L16.576 9.056C16.608 9.056 18.4 9.056 18.368 9.056ZM12.832 24.096V22.08C13.28 22.144 13.728 22.176 14.208 22.176C16.704 22.176 18.528 21.408 19.392 20.032H24.16C24.32 20.032 24.48 19.904 24.48 19.712C24.48 19.52 24.352 19.392 24.16 19.392H19.712C19.904 18.912 20 18.4 20 17.792C20 17.664 20 17.472 19.968 17.344C19.968 17.28 19.968 17.248 19.968 17.184H24.16C24.32 17.184 24.48 17.056 24.48 16.864C24.48 16.672 24.352 16.544 24.16 16.544H19.872C19.776 15.968 19.616 15.36 19.392 14.752C19.456 14.624 19.456 14.496 19.488 14.368H24.192C24.352 14.368 24.512 14.24 24.512 14.048C24.512 13.856 24.384 13.728 24.192 13.728H19.296C19.296 13.696 19.264 13.696 19.264 13.664C19.872 13.312 20.032 12.512 19.552 11.968C19.712 11.84 19.808 11.712 19.904 11.52H21.056C21.216 11.52 21.376 11.392 21.376 11.2C21.376 11.04 21.248 10.88 21.056 10.88H19.968C19.904 10.496 19.648 10.144 19.296 10.016C19.552 9.568 19.488 9.056 19.168 8.704H21.056C21.216 8.704 21.376 8.576 21.376 8.384C21.376 8.192 21.248 8.064 21.056 8.064H16.384L16.928 6.816H26.016C25.824 7.072 25.696 7.392 25.696 7.744C25.728 29.184 25.696 22.688 25.696 23.968L12.832 24.096ZM28.192 7.872V11.04H26.336V7.904C26.336 7.392 26.752 6.976 27.264 6.976C27.776 6.976 28.192 7.36 28.192 7.872ZM12.032 6.24C12.064 6.208 12.128 6.176 12.192 6.176C12.352 6.24 12.544 6.24 12.736 6.24C13.152 6.24 13.376 6.144 13.6 6.048C13.76 5.984 13.888 5.92 14.208 5.92C14.496 5.92 14.624 5.984 14.816 6.048C15.008 6.144 15.232 6.24 15.648 6.24C15.872 6.24 16.032 6.208 16.192 6.176C16.288 6.144 16.32 6.176 16.352 6.24C16.416 6.304 16.448 6.4 16.384 6.528C16 7.424 15.616 8.32 15.616 8.288C15.552 8.256 15.488 8.224 15.424 8.224L13.824 7.68C13.408 7.552 12.928 7.584 12.544 7.776L12 6.496C11.936 6.4 11.968 6.272 12.032 6.24ZM12.48 8.544C12.8 8.256 13.216 8.192 13.632 8.288L15.264 8.768C15.52 8.832 15.744 9.024 15.904 9.216L16.576 10.176C16.64 10.272 16.672 10.336 16.704 10.432C16.736 10.528 16.736 10.624 16.704 10.72C16.672 10.912 16.544 11.104 16.384 11.2C16.064 11.424 15.616 11.328 15.392 11.04L15.072 10.624C14.816 10.272 14.368 10.144 13.984 10.272L11.552 11.04C11.488 11.072 11.456 11.104 11.424 11.136C10.656 11.968 9.63198 13.344 8.92798 15.04H8.22398V10.176H9.88798C10.336 10.176 10.752 10.016 11.104 9.728L12.48 8.544Z" fill="white"/>
<path d="M5.85597 10.08C5.37597 10.08 5.02397 10.464 5.02397 10.944C5.02397 11.424 5.40797 11.776 5.85597 11.776C6.33597 11.776 6.68797 11.392 6.68797 10.944C6.71997 10.464 6.33597 10.08 5.85597 10.08ZM5.85597 11.456C5.56797 11.456 5.34397 11.232 5.34397 10.944C5.34397 10.656 5.56797 10.4 5.85597 10.4C6.14397 10.4 6.36797 10.624 6.36797 10.944C6.39997 11.232 6.14397 11.456 5.85597 11.456Z" fill="white"/>
<path d="M12.896 26.048C12.896 26.144 12.992 26.24 13.088 26.24H13.376V26.528C13.376 26.624 13.472 26.72 13.568 26.72C13.664 26.72 13.76 26.624 13.76 26.528V26.24H14.048C14.144 26.24 14.24 26.144 14.24 26.048C14.24 25.952 14.144 25.856 14.048 25.856H13.76V25.568C13.76 25.472 13.664 25.376 13.568 25.376C13.472 25.376 13.376 25.472 13.376 25.568V25.856H13.088C12.992 25.824 12.896 25.92 12.896 26.048Z" stroke="white" stroke-width="0.4" mask="url(#path-1-outside-1_2022_3871)"/>
<path d="M30.752 5.888H30.4V5.536C30.4 5.408 30.304 5.312 30.176 5.28C30.048 5.28 29.952 5.376 29.92 5.504V5.856H29.568C29.44 5.856 29.344 5.952 29.312 6.08C29.312 6.208 29.408 6.304 29.536 6.336H29.888V6.688C29.888 6.816 29.984 6.912 30.112 6.944C30.24 6.944 30.336 6.848 30.368 6.72V6.368H30.72C30.848 6.368 30.944 6.272 30.976 6.144C31.008 5.984 30.88 5.888 30.752 5.888Z" stroke="white" stroke-width="0.4" mask="url(#path-1-outside-1_2022_3871)"/>
<path d="M27.68 20.288C27.808 20.288 27.904 20.192 27.936 20.064V19.712H28.288C28.416 19.712 28.512 19.616 28.544 19.488C28.544 19.36 28.448 19.264 28.32 19.232H27.968V18.88C27.968 18.752 27.872 18.656 27.744 18.624C27.616 18.624 27.52 18.72 27.488 18.848V19.2H27.136C27.008 19.2 26.912 19.296 26.88 19.424C26.88 19.552 26.976 19.648 27.104 19.68H27.456V20.032C27.456 20.16 27.552 20.288 27.68 20.288Z" stroke="white" stroke-width="0.4" mask="url(#path-1-outside-1_2022_3871)"/>
<path d="M1.02398 15.328C1.08798 15.456 1.21598 15.52 1.34398 15.456L1.66398 15.328L1.79198 15.648C1.85598 15.776 1.98398 15.808 2.11198 15.776C2.23998 15.712 2.30398 15.584 2.23998 15.456L2.11198 15.136L2.43198 15.008C2.55998 14.944 2.59198 14.816 2.55998 14.688C2.49598 14.56 2.36798 14.528 2.23998 14.56L1.91998 14.688L1.79198 14.368C1.72798 14.24 1.59998 14.208 1.47198 14.24C1.34398 14.304 1.31198 14.432 1.34398 14.56L1.47198 14.88L1.15198 15.008C1.02398 15.072 0.991978 15.2 1.02398 15.328Z" stroke="white" stroke-width="0.4" mask="url(#path-1-outside-1_2022_3871)"/>
<path d="M1.75999 24.064C1.56799 24.064 1.43999 24.192 1.43999 24.384C1.43999 24.576 1.56799 24.704 1.75999 24.704H5.31199C5.50399 24.704 5.63199 24.576 5.63199 24.384C5.63199 24.192 5.50399 24.064 5.31199 24.064H1.75999Z" stroke="white" stroke-width="0.4" mask="url(#path-1-outside-1_2022_3871)"/>
<path d="M30.56 24.096H29.728C29.536 24.096 29.408 24.224 29.408 24.416C29.408 24.608 29.536 24.736 29.728 24.736H30.56C30.752 24.736 30.88 24.608 30.88 24.416C30.88 24.256 30.752 24.096 30.56 24.096Z" stroke="white" stroke-width="0.4" mask="url(#path-1-outside-1_2022_3871)"/>
<path d="M24.16 22.24H14.368C14.208 22.24 14.048 22.368 14.048 22.56C14.048 22.72 14.176 22.88 14.368 22.88H24.16C24.32 22.88 24.48 22.752 24.48 22.56C24.48 22.368 24.352 22.24 24.16 22.24Z" stroke="white" stroke-width="0.4" mask="url(#path-1-outside-1_2022_3871)"/>
<path d="M24.096 9.856C23.904 9.76 23.648 9.728 23.616 9.696V8.768C23.68 8.768 23.904 8.768 24.192 8.864C24.224 8.864 24.256 8.896 24.288 8.896C24.32 8.896 24.352 8.896 24.384 8.832C24.416 8.8 24.416 8.768 24.416 8.704C24.416 8.608 24.384 8.576 24.288 8.544C23.936 8.416 23.648 8.416 23.584 8.416V8.128C23.584 8.064 23.552 8.032 23.488 8.032C23.456 8.032 23.424 8.032 23.424 8.064C23.392 8.096 23.392 8.096 23.392 8.128V8.416C23.36 8.416 23.104 8.416 22.88 8.544C22.752 8.608 22.624 8.704 22.56 8.832C22.496 8.96 22.464 9.088 22.464 9.216C22.464 9.376 22.496 9.504 22.592 9.632C22.688 9.728 22.784 9.824 22.912 9.856C23.104 9.952 23.36 10.016 23.392 10.016V10.912C23.328 10.912 23.008 10.912 22.688 10.752C22.624 10.72 22.528 10.72 22.496 10.784C22.464 10.816 22.464 10.848 22.464 10.912C22.464 10.944 22.464 10.976 22.496 11.008C22.528 11.04 22.56 11.072 22.592 11.072C22.816 11.168 23.072 11.232 23.36 11.264H23.456V11.552C23.456 11.584 23.456 11.616 23.488 11.616C23.52 11.648 23.52 11.648 23.552 11.648C23.584 11.648 23.616 11.648 23.616 11.616C23.648 11.584 23.648 11.584 23.648 11.552V11.264C23.712 11.264 23.904 11.264 24.128 11.136C24.384 11.008 24.576 10.784 24.576 10.464C24.576 10.304 24.544 10.144 24.448 10.048C24.32 9.984 24.224 9.92 24.096 9.856ZM23.424 9.664C23.36 9.632 23.168 9.6 23.008 9.504C22.912 9.44 22.88 9.344 22.88 9.248C22.88 9.12 22.944 9.024 23.04 8.96C23.104 8.896 23.232 8.864 23.328 8.832L23.424 8.8V9.664ZM23.712 10.944L23.616 10.976V10.144C23.68 10.176 23.904 10.208 24.032 10.304C24.128 10.368 24.16 10.432 24.16 10.528C24.16 10.752 24.032 10.88 23.712 10.944Z" stroke="white" stroke-width="0.4" mask="url(#path-1-outside-1_2022_3871)"/>
<path d="M15.072 16.64C14.944 16.576 14.784 16.544 14.624 16.48L14.56 16.448V15.392H14.656C14.848 15.392 15.008 15.456 15.2 15.52C15.232 15.52 15.264 15.552 15.296 15.552C15.328 15.552 15.36 15.52 15.424 15.488C15.456 15.456 15.488 15.392 15.488 15.36C15.488 15.264 15.456 15.2 15.36 15.168C15.136 15.104 14.912 15.04 14.656 15.04H14.56V14.72C14.56 14.656 14.528 14.624 14.464 14.624C14.432 14.624 14.4 14.624 14.4 14.656C14.368 14.688 14.368 14.688 14.368 14.72V15.04C14.304 15.04 14.048 15.04 13.792 15.2C13.632 15.296 13.504 15.392 13.44 15.52C13.344 15.648 13.312 15.808 13.312 15.968C13.312 16.16 13.376 16.32 13.472 16.416C13.568 16.544 13.696 16.608 13.824 16.672C14.048 16.768 14.304 16.832 14.368 16.832V17.824C14.304 17.824 13.952 17.824 13.568 17.664C13.536 17.664 13.504 17.632 13.472 17.632C13.408 17.632 13.376 17.664 13.344 17.696C13.312 17.728 13.28 17.792 13.28 17.824C13.28 17.856 13.28 17.888 13.312 17.92C13.344 17.952 13.376 17.984 13.408 17.984C13.888 18.176 14.304 18.176 14.368 18.208V18.56C14.368 18.592 14.368 18.624 14.4 18.624C14.432 18.656 14.432 18.656 14.464 18.656C14.496 18.656 14.528 18.656 14.528 18.624C14.56 18.592 14.56 18.592 14.56 18.56V18.208C14.624 18.208 14.848 18.208 15.104 18.08C15.424 17.92 15.616 17.664 15.616 17.344C15.616 17.152 15.552 16.992 15.456 16.864C15.328 16.8 15.2 16.704 15.072 16.64ZM14.304 16.416C14.208 16.384 13.984 16.32 13.824 16.224C13.728 16.16 13.664 16.064 13.664 15.904C13.664 15.776 13.728 15.648 13.824 15.552C13.92 15.488 14.016 15.456 14.144 15.424L14.272 15.392V16.416H14.304ZM14.656 17.856L14.528 17.888V16.928L14.656 16.96C14.784 16.992 14.912 17.056 15.008 17.088C15.104 17.152 15.168 17.248 15.168 17.344C15.168 17.632 14.976 17.792 14.656 17.856Z" stroke="white" stroke-width="0.4" mask="url(#path-1-outside-1_2022_3871)"/>
<path d="M9.88798 9.536H8.22398C8.22398 9.088 7.83998 8.704 7.39198 8.704H4.35198C3.90398 8.704 3.51998 9.088 3.51998 9.536V15.52C3.51998 15.968 3.90398 16.352 4.35198 16.352H7.39198C7.77598 16.352 8.12798 16.064 8.19198 15.712H8.70398C8.47998 16.48 8.38398 17.216 8.38398 17.824C8.38398 20.256 10.112 21.504 12.192 21.952V24.064H7.90398C7.71198 24.064 7.58398 24.192 7.58398 24.384C7.58398 24.576 7.71198 24.704 7.90398 24.704H27.776C27.968 24.704 28.096 24.576 28.096 24.384C28.096 24.192 27.968 24.064 27.776 24.064H26.336V11.648H28.512C28.704 11.648 28.832 11.52 28.832 11.328V7.872C28.832 7.008 28.128 6.304 27.296 6.304H17.056C16.992 5.76 16.512 5.408 16 5.568C15.904 5.6 15.776 5.6 15.616 5.6C15.328 5.6 15.2 5.536 15.04 5.472C14.848 5.376 14.624 5.28 14.176 5.28C13.728 5.28 13.504 5.376 13.312 5.472C13.152 5.536 13.024 5.6 12.736 5.6C12.576 5.6 12.48 5.6 12.352 5.568C12.064 5.472 11.744 5.568 11.52 5.824C11.296 6.08 11.232 6.464 11.36 6.784L11.936 8.16L10.624 9.28C10.464 9.44 10.176 9.536 9.88798 9.536ZM7.58398 15.552C7.58398 15.648 7.48798 15.744 7.39198 15.744H4.35198C4.25598 15.744 4.15998 15.648 4.15998 15.552V9.568C4.15998 9.472 4.25598 9.376 4.35198 9.376H7.39198C7.48798 9.376 7.58398 9.472 7.58398 9.568V15.552ZM9.02398 17.856C9.02398 17.216 9.15198 16.448 9.40798 15.616C9.40798 15.584 9.43998 15.584 9.43998 15.552C10.048 13.888 11.072 12.544 11.808 11.712L14.176 10.944C14.304 10.912 14.464 10.944 14.56 11.072L14.88 11.488C15.168 11.872 15.616 12.064 16.064 12.032C15.712 12.416 15.648 13.024 15.968 13.44C15.808 13.536 15.68 13.632 15.616 13.792C15.232 13.632 14.816 13.536 14.4 13.536C12.672 13.536 11.264 14.944 11.264 16.672C11.264 18.4 12.672 19.808 14.4 19.808C16.128 19.808 17.536 18.4 17.536 16.672C17.536 16.288 17.472 15.904 17.312 15.52H18.336C18.528 15.52 18.72 15.456 18.88 15.36C19.2 16.32 19.232 16.864 19.264 16.992C19.264 17.088 19.296 17.184 19.296 17.28V17.44C19.296 17.536 19.328 17.728 19.328 17.824C19.328 21.28 15.36 21.536 14.144 21.536C12.928 21.536 9.02398 21.28 9.02398 17.856ZM16.896 16.672C16.896 18.048 15.776 19.168 14.4 19.168C13.024 19.168 11.904 18.048 11.904 16.672C11.904 15.296 13.024 14.176 14.4 14.176C14.752 14.176 15.104 14.24 15.424 14.4C15.424 15.008 15.936 15.52 16.544 15.52H16.608C16.8 15.872 16.896 16.256 16.896 16.672ZM16.544 14.88C16.288 14.88 16.064 14.656 16.064 14.4C16.064 14.144 16.288 13.92 16.544 13.92H18.336C18.592 13.92 18.816 14.144 18.816 14.4C18.816 14.656 18.592 14.88 18.336 14.88H16.544ZM18.688 13.248H16.896C16.64 13.248 16.416 13.024 16.416 12.768C16.416 12.512 16.64 12.288 16.896 12.288H18.688C18.944 12.288 19.168 12.512 19.168 12.768C19.2 13.056 18.976 13.248 18.688 13.248ZM18.88 11.648H17.088C17.056 11.648 17.024 11.648 16.96 11.616C17.152 11.424 17.312 11.168 17.376 10.88C17.376 10.816 17.408 10.72 17.408 10.656H18.88C19.136 10.656 19.36 10.88 19.36 11.136C19.36 11.392 19.136 11.648 18.88 11.648ZM18.368 9.056C18.624 9.056 18.848 9.28 18.848 9.536C18.848 9.792 18.624 10.016 18.368 10.016H17.248C17.216 9.952 17.184 9.888 17.12 9.824L16.576 9.056C16.608 9.056 18.4 9.056 18.368 9.056ZM12.832 24.096V22.08C13.28 22.144 13.728 22.176 14.208 22.176C16.704 22.176 18.528 21.408 19.392 20.032H24.16C24.32 20.032 24.48 19.904 24.48 19.712C24.48 19.52 24.352 19.392 24.16 19.392H19.712C19.904 18.912 20 18.4 20 17.792C20 17.664 20 17.472 19.968 17.344C19.968 17.28 19.968 17.248 19.968 17.184H24.16C24.32 17.184 24.48 17.056 24.48 16.864C24.48 16.672 24.352 16.544 24.16 16.544H19.872C19.776 15.968 19.616 15.36 19.392 14.752C19.456 14.624 19.456 14.496 19.488 14.368H24.192C24.352 14.368 24.512 14.24 24.512 14.048C24.512 13.856 24.384 13.728 24.192 13.728H19.296C19.296 13.696 19.264 13.696 19.264 13.664C19.872 13.312 20.032 12.512 19.552 11.968C19.712 11.84 19.808 11.712 19.904 11.52H21.056C21.216 11.52 21.376 11.392 21.376 11.2C21.376 11.04 21.248 10.88 21.056 10.88H19.968C19.904 10.496 19.648 10.144 19.296 10.016C19.552 9.568 19.488 9.056 19.168 8.704H21.056C21.216 8.704 21.376 8.576 21.376 8.384C21.376 8.192 21.248 8.064 21.056 8.064H16.384L16.928 6.816H26.016C25.824 7.072 25.696 7.392 25.696 7.744C25.728 29.184 25.696 22.688 25.696 23.968L12.832 24.096ZM28.192 7.872V11.04H26.336V7.904C26.336 7.392 26.752 6.976 27.264 6.976C27.776 6.976 28.192 7.36 28.192 7.872ZM12.032 6.24C12.064 6.208 12.128 6.176 12.192 6.176C12.352 6.24 12.544 6.24 12.736 6.24C13.152 6.24 13.376 6.144 13.6 6.048C13.76 5.984 13.888 5.92 14.208 5.92C14.496 5.92 14.624 5.984 14.816 6.048C15.008 6.144 15.232 6.24 15.648 6.24C15.872 6.24 16.032 6.208 16.192 6.176C16.288 6.144 16.32 6.176 16.352 6.24C16.416 6.304 16.448 6.4 16.384 6.528C16 7.424 15.616 8.32 15.616 8.288C15.552 8.256 15.488 8.224 15.424 8.224L13.824 7.68C13.408 7.552 12.928 7.584 12.544 7.776L12 6.496C11.936 6.4 11.968 6.272 12.032 6.24ZM12.48 8.544C12.8 8.256 13.216 8.192 13.632 8.288L15.264 8.768C15.52 8.832 15.744 9.024 15.904 9.216L16.576 10.176C16.64 10.272 16.672 10.336 16.704 10.432C16.736 10.528 16.736 10.624 16.704 10.72C16.672 10.912 16.544 11.104 16.384 11.2C16.064 11.424 15.616 11.328 15.392 11.04L15.072 10.624C14.816 10.272 14.368 10.144 13.984 10.272L11.552 11.04C11.488 11.072 11.456 11.104 11.424 11.136C10.656 11.968 9.63198 13.344 8.92798 15.04H8.22398V10.176H9.88798C10.336 10.176 10.752 10.016 11.104 9.728L12.48 8.544Z" stroke="white" stroke-width="0.4" mask="url(#path-1-outside-1_2022_3871)"/>
<path d="M5.85597 10.08C5.37597 10.08 5.02397 10.464 5.02397 10.944C5.02397 11.424 5.40797 11.776 5.85597 11.776C6.33597 11.776 6.68797 11.392 6.68797 10.944C6.71997 10.464 6.33597 10.08 5.85597 10.08ZM5.85597 11.456C5.56797 11.456 5.34397 11.232 5.34397 10.944C5.34397 10.656 5.56797 10.4 5.85597 10.4C6.14397 10.4 6.36797 10.624 6.36797 10.944C6.39997 11.232 6.14397 11.456 5.85597 11.456Z" stroke="white" stroke-width="0.4" mask="url(#path-1-outside-1_2022_3871)"/>
</svg>
