<?xml version="1.0" encoding="UTF-8"?>
<svg id="Layer_1" data-name="Layer 1" xmlns="http://www.w3.org/2000/svg" viewBox="0 0 24 24">
  <defs>
    <style>
      .cls-1 {
        stroke-width: 0px;
      }
    </style>
  </defs>
  <path class="cls-1" d="M21.5,9c1.38,0,2.5-1.12,2.5-2.5s-1.12-2.5-2.5-2.5-2.5,1.12-2.5,2.5,1.12,2.5,2.5,2.5ZM21.5,5c.83,0,1.5.67,1.5,1.5s-.67,1.5-1.5,1.5-1.5-.67-1.5-1.5.67-1.5,1.5-1.5ZM21.5,10c-1.38,0-2.5,1.12-2.5,2.5v5.5h-3v6h1v-5h4.5c1.38,0,2.5-1.12,2.5-2.5v-4c0-1.38-1.12-2.5-2.5-2.5ZM23,16.5c0,.83-.67,1.5-1.5,1.5h-1.5v-5.5c0-.83.67-1.5,1.5-1.5s1.5.67,1.5,1.5v4ZM17,14H7v-1h10v1ZM11.32,9.24c.19.17.44.26.68.26s.48-.08.66-.25l1.51-1.25h2.82V1.5c0-.83-.67-1.5-1.5-1.5h-7c-.83,0-1.5.67-1.5,1.5v6.5h2.82s1.5,1.24,1.5,1.24ZM8,1.5c0-.28.22-.5.5-.5h7c.28,0,.5.22.5.5v5.5h-2.18l-1.85,1.48-1.79-1.48h-2.18s0-5.5,0-5.5ZM19,21h5v1h-4v2h-1v-3ZM2.5,9c1.38,0,2.5-1.12,2.5-2.5s-1.12-2.5-2.5-2.5S0,5.12,0,6.5s1.12,2.5,2.5,2.5ZM2.5,5c.83,0,1.5.67,1.5,1.5s-.67,1.5-1.5,1.5-1.5-.67-1.5-1.5.67-1.5,1.5-1.5ZM5,12.5c0-1.38-1.12-2.5-2.5-2.5s-2.5,1.12-2.5,2.5v4c0,1.38,1.12,2.5,2.5,2.5h4.5v5h1v-6h-3v-5.5ZM2.5,18c-.83,0-1.5-.67-1.5-1.5v-4c0-.83.67-1.5,1.5-1.5s1.5.67,1.5,1.5v5.5h-1.5ZM0,21h5v3h-1v-2H0v-1Z"/>
</svg>