<?xml version="1.0" encoding="UTF-8"?>
<svg id="Layer_1" data-name="Layer 1" xmlns="http://www.w3.org/2000/svg" viewBox="0 0 24 24">
  <defs>
    <style>
      .cls-1 {
        stroke-width: 0px;
      }
    </style>
  </defs>
  <path class="cls-1" d="M21.5,9H4.5c-1.38,0-2.5,1.12-2.5,2.5v10.5h8.08l1.93,1.62c.28.25.64.38,1,.38s.7-.12.98-.37l1.98-1.63h8.04v-10.5c0-1.38-1.12-2.5-2.5-2.5h0ZM23,21h-7.4l-2.27,1.87c-.19.17-.47.17-.67,0l-2.21-1.86H3v-9.5c0-.83.67-1.5,1.5-1.5h17c.83,0,1.5.67,1.5,1.5v9.5h0ZM19.84,15h2.16v.46l-1.65.95.66,2.01-.38.26-1.63-1.26-1.64,1.27-.36-.27.65-2.04-1.66-.92h0s-1.65.95-1.65.95l.66,2.01-.38.26-1.63-1.26-1.64,1.27-.36-.27.65-2.04-1.66-.92h0s-1.65.95-1.65.95l.66,2.01-.38.26-1.63-1.26-1.64,1.27-.36-.27.65-2.04-1.66-.92v-.46h2.17l.59-2.25h.49l.59,2.25h4.34l.59-2.25h.49l.59,2.25h4.34l.59-2.25h.49l.59,2.25h0ZM18,7h-8v-1h8v1ZM4,6h4v1h-4v-1ZM12,4H4v-1h8v1ZM18,4h-4v-1h4v1ZM2.5,1c-.83,0-1.5.67-1.5,1.5v6.21c-.62.77-1,1.73-1,2.79V2.5C0,1.12,1.12,0,2.5,0h17c1.38,0,2.5,1.12,2.5,2.5v4.5h-1V2.5c0-.83-.67-1.5-1.5-1.5H2.5Z"/>
</svg>