<svg width="14" height="14" viewBox="0 0 14 14" fill="none" xmlns="http://www.w3.org/2000/svg">
<path d="M9.62208 10.6429H11.849C12.592 10.6429 13.195 10.0399 13.195 9.29688V7.25521C13.195 6.51217 12.592 5.90917 11.849 5.90917C11.1059 5.90917 10.5029 6.51217 10.5029 7.25521V9.9925H9.04167H8.97167V10.0625V13.125V13.195H9.04167H9.55208H9.62208V13.125V10.6429ZM9.55208 8.09083H9.62208V8.02083V7.51042V7.44042H9.55208H4.44792H4.37792V7.51042V8.02083V8.09083H4.44792H9.55208ZM9.54698 5.02833H9.61698V4.95833V1.64062C9.61698 1.17832 9.24366 0.805 8.78135 0.805H5.20844C4.74613 0.805 4.37281 1.17832 4.37281 1.64062V4.95833V5.02833H4.44281H5.857L6.60321 5.6452L6.62263 5.66125H6.62716C6.73434 5.74826 6.86943 5.79396 7 5.79396C7.13683 5.79396 7.27666 5.74858 7.38321 5.64887L8.13282 5.02833H9.54698ZM6.07104 4.37792H5.02833V1.64062C5.02833 1.53637 5.10928 1.45542 5.21354 1.45542H8.78646C8.89072 1.45542 8.97167 1.53637 8.97167 1.64062V4.37792H7.92896H7.9044L7.88523 4.39326L6.98542 5.11311L6.11565 4.39397L6.09623 4.37792H6.07104ZM10.5729 11.5238H10.5029V11.5938V13.125V13.195H10.5729H11.0833H11.1533V13.125V12.1742H13.125H13.195V12.1042V11.5938V11.5238H13.125H10.5729ZM4.95833 9.9925H3.49708V7.25521C3.49708 6.51217 2.89408 5.90917 2.15104 5.90917C1.40801 5.90917 0.805 6.51217 0.805 7.25521V9.29688C0.805 10.0399 1.40801 10.6429 2.15104 10.6429H4.37792V13.125V13.195H4.44792H4.95833H5.02833V13.125V10.0625V9.9925H4.95833ZM0.875 11.5238H0.805V11.5938V12.1042V12.1742H0.875H2.84667V13.125V13.195H2.91667H3.42708H3.49708V13.125V11.5938V11.5238H3.42708H0.875ZM11.849 5.53875C12.592 5.53875 13.195 4.93574 13.195 4.19271C13.195 3.44967 12.592 2.84667 11.849 2.84667C11.1059 2.84667 10.5029 3.44967 10.5029 4.19271C10.5029 4.93574 11.1059 5.53875 11.849 5.53875ZM11.849 3.49708C12.2339 3.49708 12.5446 3.80772 12.5446 4.19271C12.5446 4.57769 12.2339 4.88833 11.849 4.88833C11.464 4.88833 11.1533 4.57769 11.1533 4.19271C11.1533 3.80772 11.464 3.49708 11.849 3.49708ZM12.5446 9.29688C12.5446 9.68186 12.2339 9.9925 11.849 9.9925H11.1533V7.25521C11.1533 6.87022 11.464 6.55958 11.849 6.55958C12.2339 6.55958 12.5446 6.87022 12.5446 7.25521V9.29688ZM2.15104 5.53875C2.89408 5.53875 3.49708 4.93574 3.49708 4.19271C3.49708 3.44967 2.89408 2.84667 2.15104 2.84667C1.40801 2.84667 0.805 3.44967 0.805 4.19271C0.805 4.93574 1.40801 5.53875 2.15104 5.53875ZM2.15104 3.49708C2.53603 3.49708 2.84667 3.80772 2.84667 4.19271C2.84667 4.57769 2.53603 4.88833 2.15104 4.88833C1.76606 4.88833 1.45542 4.57769 1.45542 4.19271C1.45542 3.80772 1.76606 3.49708 2.15104 3.49708ZM2.15104 9.9925C1.76606 9.9925 1.45542 9.68186 1.45542 9.29688V7.25521C1.45542 6.87022 1.76606 6.55958 2.15104 6.55958C2.53603 6.55958 2.84667 6.87022 2.84667 7.25521V9.9925H2.15104Z" fill="white" stroke="white" stroke-width="0.14"/>
</svg>
