<svg width="312" height="143" viewBox="0 0 312 143" fill="none" xmlns="http://www.w3.org/2000/svg">
<g clip-path="url(#clip0_549_27325)">
<path d="M146.877 84.8244C156.043 78.4089 156.926 77.5835 161.561 68.9931L165.965 77.9841C147.109 83.2956 130.842 101.111 116.652 114.617C102.123 128.445 75.2724 148.809 71.3354 167.999C66.1146 154.783 58.045 156.487 48.6326 145.841C79.9199 137.19 124.08 100.782 146.877 84.8244Z" fill="#EBEBEB"/>
<path d="M103.104 181.703C100.854 175.528 93.0855 172.627 87.0939 175.327C87.1371 174.393 87.18 173.459 87.2233 172.525C86.6596 168.391 84.3707 164.52 81.0203 162.034C77.6698 159.547 73.3018 158.478 69.1817 159.136C68.8277 154.514 64.003 150.757 59.4353 151.545C60.1991 148.275 58.8941 144.613 56.2337 142.563C53.5734 140.512 49.7001 140.183 46.7319 141.755C42.0011 138.779 35.4321 139.081 30.9942 142.478C26.5563 145.876 24.5504 152.138 26.1882 157.482C19.0026 162.977 16.4076 173.696 20.2843 181.869" fill="#EBEBEB"/>
<path d="M171.608 75.3314L158.987 66.7443C154.459 66.1494 152.044 70.6235 152.232 73.8429C150.315 72.847 147.774 73.2343 146.24 74.756C144.707 76.2778 144.3 78.8154 145.281 80.7402C142.701 80.8683 140.551 83.5324 140.97 86.0808C141.389 88.6288 144.279 90.4646 146.763 89.7603C148.403 89.2957 149.738 87.9387 151.431 87.7461C153.019 87.5655 154.506 88.4474 156.029 88.9333C159.811 90.1406 164.136 88.7831 166.99 86.0226C169.843 83.2624 171.322 79.2909 171.608 75.3314Z" fill="#EBEBEB"/>
<path d="M163.506 69.9434C162.037 70.3473 160.653 71.0524 159.454 71.9934C158.67 72.6083 159.137 73.8704 160.133 73.84L160.159 73.8392C158.625 74.9083 157.162 76.0781 155.781 77.3382C154.899 78.1431 155.498 79.6091 156.691 79.56C161.366 79.3674 165.972 77.4497 169.343 74.1953L163.506 69.9434Z" fill="#E0E0E0"/>
<path d="M186.012 70.9992C186.012 71.0138 186.011 71.0479 186.009 71.099C185.804 76.9239 182.956 82.3385 178.285 85.8242L175.355 88.0107L175.055 79.1749L186.012 70.9992Z" fill="#E0E0E0"/>
<path d="M173.611 54.3808C173.598 54.3766 173.565 54.3679 173.516 54.3554C167.951 52.9136 162.032 54.0859 157.424 57.5241L154.534 59.6806L162.804 62.445L173.611 54.3808Z" fill="#E0E0E0"/>
<path d="M208.501 41.2822C207.52 39.9668 202.315 40.0862 194.957 42.078C187.713 44.0395 182.741 47.5684 182.741 47.5684L158.291 65.8125L163.098 72.2547L165.885 75.9887L170.692 82.4309L192.879 65.8753C195.047 64.2575 197.064 62.445 198.885 60.4449C200.451 58.7251 202.276 56.5157 203.883 54.0393C208.015 47.6707 209.483 42.5976 208.501 41.2822Z" fill="#F5F5F5"/>
<path d="M174.537 79.3005C174.513 79.3188 171.724 75.6663 168.308 71.144C164.891 66.62 162.141 62.9392 162.165 62.9209C162.189 62.903 164.977 66.5543 168.394 71.0783C171.811 75.6006 174.561 79.2822 174.537 79.3005Z" fill="#E0E0E0"/>
<path d="M173.741 79.7803C173.717 79.7982 170.928 76.1462 167.512 71.6238C164.095 67.0998 161.345 63.419 161.369 63.4012C161.393 63.3829 164.182 67.0345 167.599 71.5585C171.015 76.0804 173.765 79.762 173.741 79.7803Z" fill="#E0E0E0"/>
<path d="M172.969 80.3763C172.945 80.3942 170.156 76.7422 166.74 72.2198C163.323 67.6958 160.573 64.0151 160.597 63.9972C160.621 63.9793 163.41 67.6305 166.827 72.1545C170.243 76.6768 172.993 80.3584 172.969 80.3763Z" fill="#E0E0E0"/>
<path d="M172.197 80.9728C172.173 80.9911 169.384 77.3386 165.967 72.8163C162.55 68.2923 159.801 64.6115 159.824 64.5932C159.848 64.5753 162.637 68.2265 166.054 72.7505C169.47 77.2733 172.221 80.9549 172.197 80.9728Z" fill="#E0E0E0"/>
<path d="M171.425 81.57C171.401 81.5879 168.612 77.9359 165.195 73.4135C161.778 68.8895 159.029 65.2088 159.052 65.1909C159.076 65.1726 161.865 68.8242 165.282 73.3482C168.698 77.8701 171.448 81.5517 171.425 81.57Z" fill="#E0E0E0"/>
<path d="M179.818 62.7362C179.821 62.7383 179.787 62.7737 179.718 62.8394C179.65 62.9089 179.539 62.9913 179.401 63.1069C179.121 63.3328 178.71 63.6502 178.198 64.0383C177.175 64.8142 175.75 65.8691 174.169 67.0252C172.588 68.1813 171.15 69.2192 170.106 69.9659C169.59 70.3316 169.169 70.6298 168.866 70.8449C168.725 70.9414 168.612 71.0192 168.525 71.0791C168.446 71.1315 168.404 71.1577 168.402 71.1548C168.4 71.1519 168.438 71.1199 168.512 71.0612C168.596 70.9972 168.705 70.914 168.841 70.8104C169.139 70.5887 169.553 70.2808 170.06 69.9035C171.105 69.1377 172.53 68.0927 174.105 66.9374C175.681 65.7847 177.107 64.7414 178.152 63.9768C178.66 63.6011 179.075 63.2945 179.374 63.0736C179.515 62.9642 179.632 62.8852 179.702 62.824C179.774 62.7645 179.815 62.7342 179.818 62.7362Z" fill="#E0E0E0"/>
<path d="M186.012 70.9992C185.988 71.0171 183.213 67.3451 179.815 62.7982C176.416 58.2496 173.68 54.5493 173.704 54.531C173.728 54.5131 176.503 58.1847 179.902 62.7329C183.301 67.2802 186.036 70.9813 186.012 70.9992Z" fill="#E0E0E0"/>
<path d="M172.749 70.0849C172.75 70.0795 172.807 70.0836 172.897 70.1323C172.985 70.1801 173.104 70.2825 173.176 70.4539C173.25 70.6182 173.263 70.8769 173.104 71.0795C172.957 71.2771 172.671 71.4161 172.381 71.3412C172.093 71.2584 171.918 70.993 171.891 70.748C171.858 70.4925 172 70.2766 172.148 70.1726C172.297 70.062 172.451 70.0341 172.552 70.0379C172.653 70.0416 172.705 70.067 172.703 70.0724C172.701 70.0815 172.648 70.0711 172.554 70.0803C172.461 70.089 172.324 70.1269 172.195 70.2334C172.069 70.3361 171.957 70.5217 171.991 70.7359C172.017 70.9443 172.175 71.1702 172.41 71.2364C172.646 71.2988 172.896 71.1844 173.025 71.0184C173.163 70.8507 173.162 70.6344 173.105 70.4813C173.049 70.3249 172.95 70.2221 172.874 70.1676C172.797 70.1123 172.745 70.094 172.749 70.0849Z" fill="#E0E0E0"/>
<path d="M177.539 66.6467C177.541 66.6413 177.598 66.6454 177.687 66.6941C177.776 66.7419 177.894 66.8443 177.967 67.0157C178.041 67.18 178.054 67.4387 177.895 67.6413C177.748 67.8389 177.462 67.9779 177.172 67.903C176.884 67.8202 176.708 67.5548 176.682 67.3098C176.648 67.0543 176.791 66.8384 176.938 66.7344C177.088 66.6238 177.242 66.5959 177.342 66.5997C177.444 66.6034 177.496 66.6288 177.494 66.6342C177.492 66.6433 177.438 66.6325 177.344 66.6421C177.251 66.6508 177.114 66.6887 176.986 66.7952C176.859 66.8979 176.748 67.0835 176.781 67.2981C176.808 67.507 176.965 67.7324 177.2 67.7986C177.437 67.861 177.687 67.747 177.816 67.5806C177.954 67.4129 177.952 67.1966 177.895 67.0435C177.839 66.8871 177.74 66.7844 177.665 66.7294C177.588 66.6737 177.536 66.6554 177.539 66.6467Z" fill="#E0E0E0"/>
<path d="M154.855 82.0407C154.318 81.8377 153.646 82.1343 153.433 82.6672C153.22 83.2001 153.504 83.8782 154.033 84.1007C154.562 84.3233 155.245 84.052 155.477 83.5271C155.709 83.0021 155.451 82.3144 154.93 82.0723" fill="#E0E0E0"/>
<path d="M197.187 55.5909C196.147 58.5025 192.943 60.0197 190.031 58.9797C187.12 57.9393 185.603 54.7361 186.643 51.8245C187.683 48.9129 190.886 47.3957 193.798 48.4362C196.71 49.4757 198.227 52.6794 197.187 55.5909Z" fill="white"/>
<path d="M197.187 55.591C197.153 55.5822 197.353 55.1205 197.435 54.2402C197.512 53.3766 197.398 52.0258 196.529 50.7034C196.097 50.0544 195.488 49.4175 194.687 48.9637C193.889 48.5173 192.923 48.2041 191.888 48.2265C191.373 48.2228 190.846 48.306 190.331 48.4653C189.814 48.6167 189.309 48.8539 188.849 49.1733C187.913 49.7915 187.168 50.7491 186.758 51.8644C186.368 52.9872 186.337 54.2007 186.67 55.2723C186.824 55.811 187.064 56.3144 187.368 56.7595C187.665 57.2088 188.021 57.6077 188.422 57.9314C189.207 58.6045 190.154 58.9747 191.054 59.1345C191.962 59.2909 192.836 59.184 193.582 58.956C195.092 58.4834 196.036 57.5108 196.523 56.7932C197.018 56.0606 197.155 55.5768 197.187 55.591C197.195 55.5939 197.155 55.7104 197.072 55.9304C197.034 56.0419 196.979 56.1771 196.896 56.3281C196.818 56.4816 196.731 56.6618 196.601 56.8452C196.13 57.5903 195.184 58.6099 193.634 59.1191C192.868 59.3649 191.964 59.4864 191.022 59.3329C190.088 59.1765 189.101 58.7987 188.278 58.1032C187.859 57.7683 187.486 57.3548 187.175 56.8881C186.856 56.4255 186.604 55.9017 186.442 55.3401C186.092 54.2227 186.121 52.9535 186.529 51.7821C186.956 50.6181 187.738 49.6176 188.716 48.9753C189.197 48.6438 189.724 48.3983 190.264 48.2427C190.801 48.0793 191.351 47.9952 191.888 48.0019C192.965 47.9852 193.967 48.318 194.789 48.789C195.615 49.2674 196.237 49.9338 196.674 50.609C197.55 51.9851 197.637 53.3737 197.529 54.2485C197.513 54.4728 197.466 54.6666 197.429 54.8351C197.398 55.0048 197.354 55.1438 197.314 55.2548C197.238 55.4791 197.195 55.5939 197.187 55.591Z" fill="#E0E0E0"/>
<path d="M208.501 41.2822C207.52 39.9668 202.315 40.0862 194.957 42.078L203.883 54.0393C208.015 47.6707 209.483 42.5976 208.501 41.2822Z" fill="#E0E0E0"/>
<path d="M208.501 41.2821C208.501 41.2821 208.554 41.3641 208.648 41.533C208.722 41.7106 208.793 41.9923 208.813 42.3692C208.845 43.1242 208.648 44.2324 208.209 45.5961C207.312 48.3184 205.452 52.0944 202.407 56.3014C200.856 58.3806 199.026 60.5812 196.797 62.7057C195.68 63.7632 194.467 64.8011 193.154 65.7933C191.839 66.7771 190.483 67.7917 189.09 68.8347C183.512 73.0021 177.332 77.6197 170.764 82.5269L170.667 82.5988L170.595 82.5023C168.605 79.8354 166.519 77.0407 164.395 74.1952C162.271 71.3481 160.185 68.5518 158.195 65.884L158.123 65.7875L158.219 65.7155C164.796 60.8146 170.983 56.2037 176.567 52.0424C177.963 51.0028 179.321 49.9915 180.639 49.011C181.297 48.521 181.946 48.0384 182.583 47.5637C183.237 47.0987 183.908 46.6964 184.574 46.3099C187.243 44.7766 189.876 43.6459 192.329 42.7997C194.794 41.981 197.073 41.4381 199.081 41.0446C201.091 40.6615 202.84 40.4389 204.273 40.3911C205.705 40.342 206.824 40.4493 207.543 40.6814C207.717 40.7547 207.878 40.8008 208.001 40.8732C208.121 40.9514 208.231 41.0038 208.302 41.0692C208.438 41.2085 208.501 41.2821 208.501 41.2821C208.501 41.2821 208.426 41.2181 208.288 41.0879C208.217 41.0263 208.106 40.9781 207.986 40.9044C207.863 40.8362 207.702 40.7938 207.53 40.7251C206.815 40.5096 205.702 40.4164 204.277 40.4788C202.85 40.54 201.109 40.7742 199.105 41.1686C197.104 41.5725 194.832 42.1262 192.381 42.9516C189.941 43.8044 187.322 44.94 184.669 46.4742C184.009 46.8599 183.338 47.2651 182.698 47.7227C182.062 48.199 181.415 48.6828 180.757 49.1749C179.442 50.1583 178.086 51.1725 176.692 52.215C171.114 56.3825 164.933 61.001 158.363 65.9093L158.388 65.7413C160.379 68.4087 162.466 71.2042 164.59 74.0509C166.713 76.8972 168.799 79.6923 170.789 82.3601L170.62 82.3355C177.194 77.4363 183.381 72.8262 188.964 68.6653C190.359 67.6258 191.717 66.6145 193.033 65.6335C194.342 64.6489 195.553 63.6188 196.668 62.5693C198.892 60.4622 200.726 58.2728 202.279 56.207C205.331 52.0278 207.21 48.2705 208.127 45.5694C208.578 44.2162 208.786 43.118 208.769 42.3712C208.756 41.9985 208.694 41.7202 208.628 41.5421C208.541 41.3728 208.501 41.2821 208.501 41.2821Z" fill="#E0E0E0"/>
<path d="M191.455 57.8694C191.423 57.8648 191.452 57.4334 191.549 56.7433C191.646 56.0527 191.815 55.1055 192.022 54.0651C192.224 53.0725 192.407 52.1739 192.564 51.4043C192.704 50.7242 192.792 50.3028 192.827 50.3078C192.859 50.3123 192.83 50.7433 192.733 51.4334C192.637 52.124 192.468 53.0712 192.26 54.1121C192.058 55.1042 191.876 56.0028 191.719 56.7724C191.579 57.453 191.49 57.8744 191.455 57.8694Z" fill="#E0E0E0"/>
<path d="M190.464 56.5536C190.398 56.5448 190.523 55.4462 190.743 54.0996C190.964 52.7526 191.196 51.6714 191.262 51.6847C191.328 51.6976 191.203 52.7963 190.983 54.1387C190.764 55.4811 190.531 56.5623 190.464 56.5536Z" fill="#E0E0E0"/>
<path d="M58.5467 130.346L46.7277 124.59C45.9111 124.192 45.5712 123.207 45.9689 122.391L53.9353 106.032C54.333 105.215 55.3177 104.875 56.1343 105.273L63.6298 108.923L66.5197 117.729L60.7452 129.586C60.3479 130.404 59.3633 130.743 58.5467 130.346Z" fill="#EBEBEB"/>
<path d="M63.6297 108.923L61.3875 113.528C61.0176 114.287 61.3334 115.203 62.093 115.573L66.5197 117.729L63.6297 108.923Z" fill="#E0E0E0"/>
<path d="M60.4881 112.857C60.4594 112.916 59.2118 112.368 57.7022 111.633C56.1921 110.897 54.9915 110.253 55.0202 110.194C55.0489 110.135 56.2961 110.683 57.8066 111.418C59.3162 112.154 60.5172 112.798 60.4881 112.857Z" fill="white"/>
<path d="M62.752 117.18C62.7232 117.239 60.6852 116.306 58.2005 115.096C55.7149 113.885 53.7239 112.857 53.7526 112.798C53.7813 112.738 55.8193 113.671 58.3049 114.882C60.7893 116.092 62.7807 117.121 62.752 117.18Z" fill="white"/>
<path d="M62.504 119.748C62.4753 119.807 60.2555 118.786 57.5469 117.467C54.8375 116.147 52.6652 115.031 52.6939 114.971C52.7226 114.912 54.942 115.933 57.6514 117.253C60.36 118.572 62.5327 119.689 62.504 119.748Z" fill="white"/>
<path d="M61.5052 121.799C61.4765 121.858 59.2567 120.837 56.5482 119.518C53.8388 118.198 51.6664 117.081 51.6951 117.022C51.7238 116.963 53.9432 117.984 56.6526 119.304C59.3612 120.622 61.5339 121.74 61.5052 121.799Z" fill="white"/>
<path d="M60.5064 123.85C60.4777 123.909 58.2579 122.888 55.5493 121.569C52.8399 120.249 50.6676 119.132 50.6963 119.073C50.725 119.014 52.9444 120.035 55.6538 121.355C58.3623 122.673 60.5351 123.791 60.5064 123.85Z" fill="white"/>
<path d="M59.508 125.901C59.4793 125.96 57.2596 124.939 54.551 123.62C51.8416 122.3 49.6692 121.183 49.6979 121.124C49.7266 121.065 51.946 122.086 54.6554 123.405C57.3635 124.724 59.5367 125.842 59.508 125.901Z" fill="white"/>
<path d="M216.038 71.542C216.589 79.4106 223.43 85.3416 231.317 84.7891C239.203 84.2362 245.15 77.4097 244.599 69.5406C244.047 61.672 237.207 55.7415 229.32 56.2939C221.433 56.8464 215.486 63.6734 216.038 71.542Z" fill="#F5F5F5"/>
<path d="M219.436 71.3041C219.856 77.3004 225.069 81.8198 231.079 81.3988C237.089 80.9778 241.621 75.7749 241.201 69.7791C240.781 63.7824 235.568 59.263 229.558 59.684C223.547 60.1054 219.016 65.3075 219.436 71.3041Z" fill="#EBEBEB"/>
<path d="M219.414 70.9625C219.48 70.9604 219.493 70.4795 219.61 69.6338C219.732 68.7926 219.977 67.5713 220.632 66.2101C220.959 65.5325 221.386 64.8232 221.934 64.1318C222.487 63.4458 223.154 62.7715 223.95 62.1853C224.347 61.8908 224.771 61.6125 225.227 61.3695C225.681 61.1241 226.16 60.899 226.666 60.7206C227.171 60.5405 227.696 60.3845 228.241 60.2805C228.785 60.1756 229.344 60.1086 229.913 60.0829C230.482 60.065 231.045 60.0883 231.595 60.1507C232.146 60.2122 232.681 60.3275 233.199 60.4681C233.718 60.6074 234.212 60.795 234.684 61.0043C235.157 61.211 235.602 61.4565 236.02 61.7194C236.859 62.2427 237.576 62.8642 238.18 63.5053C238.779 64.1522 239.26 64.8265 239.638 65.4771C240.395 66.7834 240.734 67.9819 240.919 68.8114C241.101 69.6454 241.15 70.1238 241.217 70.1209C241.266 70.1201 241.327 69.6355 241.241 68.7594C241.15 67.8895 240.889 66.612 240.157 65.1951C239.792 64.4895 239.312 63.7536 238.696 63.0435C238.076 62.3392 237.327 61.6545 236.438 61.0738C235.996 60.7826 235.523 60.5105 235.016 60.28C234.512 60.0467 233.981 59.8387 233.424 59.6822C232.867 59.5246 232.29 59.3969 231.695 59.327C231.101 59.2563 230.494 59.2296 229.88 59.2496C229.266 59.2771 228.663 59.3507 228.077 59.4668C227.489 59.5824 226.924 59.7546 226.381 59.9543C225.837 60.1532 225.324 60.4019 224.839 60.6732C224.353 60.9423 223.902 61.2497 223.483 61.5738C222.642 62.2211 221.948 62.9612 221.383 63.7112C220.825 64.4662 220.402 65.2375 220.092 65.9693C219.471 67.439 219.31 68.7327 219.285 69.6068C219.267 70.487 219.366 70.965 219.414 70.9625Z" fill="#E0E0E0"/>
<path d="M229.542 77.1185L229.647 79.0163L231.341 78.9214L231.238 77.0752C232.91 76.8801 234.49 76.2661 235.381 75.4857L234.335 73.4706C233.522 74.1449 232.328 74.6695 231.115 74.8563L230.958 72.0267C232.813 71.4655 234.879 70.7217 234.744 68.2989C234.644 66.503 233.254 65.0345 230.561 64.8785L230.456 62.9978L228.762 63.0918L228.865 64.9389C227.6 65.1111 226.382 65.5184 225.483 66.1632L226.446 68.1999C227.283 67.6607 228.147 67.3238 228.989 67.1744L229.149 70.0548C227.293 70.5994 225.261 71.3415 225.393 73.7298C225.492 75.4915 226.864 76.9446 229.542 77.1185ZM230.819 69.5365L230.686 67.1312C231.595 67.2847 231.978 67.7564 232.01 68.3155C232.042 68.9079 231.552 69.2586 230.819 69.5365ZM228.132 73.7814C228.1 73.1881 228.573 72.8391 229.287 72.5442L229.417 74.8821C228.56 74.7431 228.163 74.3238 228.132 73.7814Z" fill="#E0E0E0"/>
<path d="M52.3333 28.32C51.9119 34.3324 46.6849 38.8639 40.6591 38.4417C34.633 38.0194 30.0894 32.8032 30.5108 26.7908C30.9322 20.7787 36.1588 16.2472 42.185 16.6695C48.2108 17.0917 52.7547 22.3079 52.3333 28.32Z" fill="#F5F5F5"/>
<path d="M49.7371 28.1381C49.416 32.7195 45.4332 36.1732 40.8405 35.8512C36.2487 35.5296 32.7859 31.5543 33.1067 26.9729C33.4282 22.3911 37.411 18.9379 42.0033 19.2594C46.5955 19.5814 50.0583 23.5563 49.7371 28.1381Z" fill="#EBEBEB"/>
<path d="M49.7534 27.8773C49.7026 27.8756 49.693 27.5083 49.6036 26.8618C49.5108 26.2191 49.3232 25.286 48.8232 24.246C48.5732 23.7281 48.247 23.1865 47.8281 22.6577C47.4054 22.1336 46.8963 21.6185 46.2876 21.1705C45.9844 20.9455 45.6603 20.7329 45.3117 20.5473C44.9644 20.3597 44.5987 20.1879 44.2122 20.0515C43.8266 19.9138 43.4256 19.7944 43.0096 19.7153C42.594 19.6355 42.1668 19.5839 41.732 19.5643C41.2969 19.5506 40.8668 19.5685 40.4462 19.6163C40.0252 19.6633 39.6163 19.7515 39.2206 19.8589C38.8242 19.9654 38.4465 20.1085 38.0858 20.2686C37.7239 20.4267 37.3844 20.6143 37.0649 20.8148C36.4239 21.2146 35.8764 21.6897 35.4151 22.1793C34.9571 22.6735 34.5902 23.1889 34.3006 23.6861C33.722 24.6841 33.4636 25.6001 33.3218 26.2336C33.1832 26.871 33.1454 27.2366 33.0946 27.2341C33.0572 27.2337 33.0106 26.8635 33.0763 26.1937C33.1458 25.5294 33.3455 24.553 33.9042 23.4702C34.1837 22.931 34.5502 22.3686 35.0207 21.8261C35.495 21.2882 36.0665 20.7649 36.7459 20.321C37.0841 20.0985 37.4456 19.8909 37.832 19.7145C38.2177 19.5365 38.6233 19.3771 39.0488 19.2577C39.4744 19.1375 39.9154 19.0398 40.3697 18.9865C40.8235 18.9324 41.2878 18.9121 41.7566 18.9274C42.2254 18.9482 42.6864 19.0048 43.1344 19.0934C43.5832 19.1816 44.0151 19.3135 44.4298 19.4657C44.8454 19.6176 45.2373 19.8077 45.6075 20.0149C45.9794 20.2204 46.3243 20.4554 46.6442 20.7029C47.2869 21.1976 47.8169 21.7633 48.2483 22.3361C48.6751 22.9131 48.9979 23.5022 49.235 24.0613C49.7088 25.1841 49.8324 26.1729 49.8511 26.8406C49.8661 27.5141 49.7908 27.8793 49.7534 27.8773Z" fill="#E0E0E0"/>
<path d="M42.0149 32.581L41.9346 34.0307L40.6404 33.9583L40.7186 32.5477C39.4415 32.3987 38.2343 31.9295 37.5533 31.333L38.3528 29.7933C38.9735 30.3084 39.8858 30.7094 40.8131 30.8521L40.9329 28.6901C39.5156 28.2612 37.9372 27.693 38.04 25.8418C38.1165 24.4698 39.1782 23.3474 41.2361 23.228L41.316 21.7912L42.6106 21.8631L42.532 23.2742C43.4983 23.4057 44.4289 23.7168 45.1153 24.2098L44.3798 25.766C43.7404 25.3542 43.0798 25.0967 42.4367 24.9827L42.3144 27.1834C43.7326 27.5994 45.2851 28.1668 45.1835 29.9914C45.1095 31.338 44.0608 32.4483 42.0149 32.581ZM41.039 26.7877L41.1409 24.9499C40.4466 25.0672 40.1537 25.4274 40.13 25.8547C40.1046 26.3073 40.4794 26.5752 41.039 26.7877ZM43.0919 30.0313C43.1169 29.5779 42.7554 29.3116 42.2096 29.0861L42.1101 30.8724C42.7653 30.7659 43.0686 30.4452 43.0919 30.0313Z" fill="#E0E0E0"/>
<path d="M155.45 108.235C154.823 112.548 157.819 116.552 162.142 117.181C166.464 117.809 170.476 114.822 171.103 110.51C171.729 106.197 168.733 102.192 164.411 101.564C160.089 100.936 156.076 103.923 155.45 108.235Z" fill="#F5F5F5"/>
<path d="M157.312 108.506C156.834 111.792 159.117 114.844 162.412 115.323C165.705 115.801 168.763 113.525 169.24 110.239C169.718 106.953 167.434 103.901 164.141 103.422C160.847 102.944 157.789 105.22 157.312 108.506Z" fill="#EBEBEB"/>
<path d="M157.34 108.319C157.376 108.326 157.44 108.067 157.602 107.625C157.766 107.185 158.042 106.554 158.556 105.897C158.812 105.569 159.126 105.236 159.503 104.928C159.883 104.622 160.321 104.336 160.82 104.114C161.069 104.001 161.331 103.901 161.606 103.823C161.88 103.744 162.165 103.679 162.459 103.642C162.753 103.604 163.054 103.581 163.36 103.589C163.667 103.596 163.976 103.626 164.286 103.679C164.595 103.736 164.897 103.815 165.186 103.913C165.477 104.011 165.752 104.136 166.015 104.273C166.279 104.409 166.524 104.569 166.754 104.737C166.985 104.904 167.196 105.089 167.391 105.28C167.782 105.661 168.096 106.08 168.347 106.497C168.594 106.917 168.775 107.338 168.903 107.733C169.158 108.527 169.2 109.214 169.203 109.683C169.203 110.155 169.173 110.419 169.209 110.425C169.236 110.43 169.326 110.176 169.382 109.693C169.435 109.213 169.444 108.492 169.216 107.642C169.102 107.218 168.929 106.764 168.68 106.308C168.428 105.855 168.104 105.398 167.693 104.98C167.488 104.771 167.265 104.569 167.018 104.385C166.773 104.2 166.511 104.025 166.229 103.875C165.947 103.725 165.65 103.588 165.338 103.48C165.025 103.372 164.7 103.287 164.367 103.225C164.033 103.168 163.698 103.137 163.368 103.131C163.038 103.124 162.712 103.151 162.396 103.195C162.079 103.238 161.773 103.312 161.479 103.402C161.185 103.49 160.905 103.603 160.641 103.729C160.111 103.98 159.649 104.297 159.257 104.636C158.866 104.978 158.548 105.344 158.294 105.703C157.786 106.424 157.547 107.103 157.431 107.572C157.317 108.045 157.314 108.315 157.34 108.319Z" fill="#E0E0E0"/>
<path d="M162.084 112.832L161.918 113.868L162.844 114.016L163.005 113.007C163.93 113.098 164.856 112.952 165.428 112.636L165.1 111.425C164.582 111.694 163.876 111.837 163.199 111.795L163.447 110.249C164.514 110.164 165.716 110.005 165.928 108.682C166.085 107.701 165.507 106.744 164.072 106.344L164.236 105.316L163.31 105.168L163.149 106.177C162.446 106.121 161.741 106.198 161.18 106.441L161.461 107.653C161.976 107.461 162.482 107.38 162.954 107.399L162.702 108.972C161.636 109.049 160.452 109.21 160.243 110.515C160.089 111.478 160.659 112.424 162.084 112.832ZM163.665 108.889L163.875 107.575C164.348 107.765 164.499 108.064 164.451 108.37C164.398 108.693 164.093 108.825 163.665 108.889ZM161.716 110.865C161.768 110.541 162.064 110.408 162.484 110.333L162.28 111.61C161.833 111.434 161.668 111.161 161.716 110.865Z" fill="#E0E0E0"/>
<path d="M292.666 132.003V140.692C292.666 140.93 292.859 141.124 293.098 141.124H293.829C294.068 141.124 294.261 141.317 294.261 141.556V141.729C294.261 141.967 294.068 142.16 293.829 142.16H293.098C292.859 142.16 292.666 142.354 292.666 142.593V148.123C292.666 148.361 292.472 148.555 292.233 148.555H263.282C263.044 148.555 262.85 148.361 262.85 148.123V143.169C262.85 142.93 263.044 142.737 263.282 142.737H264.627C264.866 142.737 265.059 142.543 265.059 142.305V141.902C265.059 141.663 264.865 141.469 264.627 141.469H263.282C263.044 141.469 262.85 141.276 262.85 141.037V140.001C262.85 139.762 262.657 139.568 262.418 139.568H262.3C262.062 139.568 261.868 139.375 261.868 139.136C261.868 138.897 262.062 138.704 262.3 138.704H262.602C262.841 138.704 263.034 138.51 263.034 138.272V132.002C263.034 131.763 263.227 131.569 263.465 131.569H292.234C292.472 131.571 292.666 131.765 292.666 132.003Z" fill="#F5F5F5"/>
<path d="M270.768 132.029V148.017C270.768 148.255 270.575 148.449 270.336 148.449H263.282C263.044 148.449 262.85 148.255 262.85 148.017V143.063C262.85 142.824 263.044 142.631 263.282 142.631H264.627C264.866 142.631 265.059 142.438 265.059 142.199V141.91C265.059 141.668 264.861 141.473 264.619 141.478L263.29 141.502C263.048 141.506 262.85 141.311 262.85 141.07V140.041C262.85 139.803 262.656 139.609 262.418 139.609H262.291C262.049 139.61 261.853 139.411 261.858 139.169L261.861 139.04C261.865 138.809 262.051 138.623 262.282 138.617L262.613 138.609C262.847 138.603 263.034 138.411 263.034 138.177V132.005C263.034 131.765 263.229 131.572 263.468 131.572L270.337 131.597C270.576 131.598 270.768 131.791 270.768 132.029Z" fill="#E0E0E0"/>
<path d="M270.204 142.024C270.204 142.083 275.599 142.13 282.253 142.13C288.909 142.13 294.303 142.083 294.303 142.024C294.303 141.966 288.909 141.918 282.253 141.918C275.599 141.918 270.204 141.965 270.204 142.024Z" fill="#E0E0E0"/>
<path d="M270.204 141.053C270.204 141.112 275.599 141.159 282.253 141.159C288.909 141.159 294.303 141.112 294.303 141.053C294.303 140.995 288.909 140.948 282.253 140.948C275.599 140.948 270.204 140.995 270.204 141.053Z" fill="#E0E0E0"/>
<path d="M268.656 138.442C268.656 138.501 274.051 138.548 280.705 138.548C287.361 138.548 292.755 138.5 292.755 138.442C292.755 138.384 287.361 138.336 280.705 138.336C274.051 138.336 268.656 138.384 268.656 138.442Z" fill="#E0E0E0"/>
<path d="M290.01 82.8401V91.5291C290.01 91.7679 290.204 91.9613 290.442 91.9613H291.173C291.412 91.9613 291.605 92.1548 291.605 92.3931V92.5658C291.605 92.8046 291.412 92.998 291.173 92.998H290.442C290.204 92.998 290.01 93.1914 290.01 93.4298V98.9597C290.01 99.1981 289.817 99.3915 289.578 99.3915H260.627C260.388 99.3915 260.195 99.1981 260.195 98.9597V94.006C260.195 93.7676 260.388 93.5737 260.627 93.5737H261.972C262.21 93.5737 262.403 93.3803 262.403 93.1419V92.7388C262.403 92.5 262.21 92.3066 261.972 92.3066H260.627C260.388 92.3066 260.195 92.1132 260.195 91.8748V90.8381C260.195 90.5993 260.001 90.4059 259.763 90.4059H259.645C259.407 90.4059 259.214 90.2125 259.214 89.9741C259.214 89.7353 259.407 89.5419 259.645 89.5419H259.947C260.186 89.5419 260.379 89.3484 260.379 89.1096V82.8397C260.379 82.6009 260.572 82.4075 260.811 82.4075H289.579C289.817 82.4079 290.01 82.6013 290.01 82.8401Z" fill="#F5F5F5"/>
<path d="M268.113 82.8659V98.8532C268.113 99.0916 267.92 99.285 267.681 99.285H260.627C260.389 99.285 260.195 99.0916 260.195 98.8532V93.8995C260.195 93.6607 260.389 93.4673 260.627 93.4673H261.972C262.211 93.4673 262.404 93.2738 262.404 93.0355V92.7464C262.404 92.5047 262.206 92.31 261.964 92.3145L260.635 92.3382C260.393 92.3424 260.195 92.1477 260.195 91.9064V90.8781C260.195 90.6393 260.001 90.4459 259.763 90.4459H259.636C259.394 90.4463 259.199 90.2474 259.203 90.0053L259.206 89.8772C259.21 89.6459 259.396 89.4595 259.627 89.4537L259.958 89.4454C260.192 89.4396 260.38 89.2478 260.38 89.0136V82.8414C260.38 82.6022 260.574 82.4083 260.813 82.4096L267.682 82.4341C267.92 82.435 268.113 82.628 268.113 82.8659Z" fill="#E0E0E0"/>
<path d="M267.549 92.8608C267.549 92.9194 272.944 92.9664 279.597 92.9664C286.253 92.9664 291.647 92.919 291.647 92.8608C291.647 92.8021 286.253 92.7547 279.597 92.7547C272.944 92.7547 267.549 92.8025 267.549 92.8608Z" fill="#E0E0E0"/>
<path d="M267.549 91.8902C267.549 91.9489 272.944 91.9963 279.597 91.9963C286.253 91.9963 291.647 91.9489 291.647 91.8902C291.647 91.832 286.253 91.7845 279.597 91.7845C272.944 91.7845 267.549 91.832 267.549 91.8902Z" fill="#E0E0E0"/>
<path d="M266.001 89.2786C266.001 89.3372 271.396 89.3847 278.05 89.3847C284.706 89.3847 290.1 89.3372 290.1 89.2786C290.1 89.2199 284.706 89.1729 278.05 89.1729C271.396 89.1729 266.001 89.2203 266.001 89.2786Z" fill="#E0E0E0"/>
<path d="M265.852 96.3955C265.852 96.4541 271.247 96.5015 277.901 96.5015C284.557 96.5015 289.951 96.4541 289.951 96.3955C289.951 96.3372 284.557 96.2898 277.901 96.2898C271.247 96.2898 265.852 96.3372 265.852 96.3955Z" fill="#E0E0E0"/>
<path d="M287.761 99.3516V108.041C287.761 108.279 287.955 108.473 288.193 108.473H288.924C289.163 108.473 289.356 108.666 289.356 108.905V109.078C289.356 109.316 289.163 109.51 288.924 109.51H288.193C287.955 109.51 287.761 109.703 287.761 109.942V115.472C287.761 115.71 287.568 115.904 287.329 115.904H258.378C258.139 115.904 257.946 115.71 257.946 115.472V110.518C257.946 110.279 258.139 110.086 258.378 110.086H259.722C259.961 110.086 260.154 109.892 260.154 109.654V109.251C260.154 109.012 259.961 108.819 259.722 108.819H258.378C258.139 108.819 257.946 108.625 257.946 108.387V107.35C257.946 107.111 257.753 106.918 257.514 106.918H257.396C257.157 106.918 256.964 106.724 256.964 106.486C256.964 106.247 257.157 106.054 257.396 106.054H257.698C257.936 106.054 258.13 105.86 258.13 105.622V99.3516C258.13 99.1128 258.323 98.9194 258.562 98.9194H287.329C287.568 98.9198 287.761 99.1132 287.761 99.3516Z" fill="#F5F5F5"/>
<path d="M265.864 99.3778V115.365C265.864 115.604 265.67 115.797 265.432 115.797H258.378C258.139 115.797 257.946 115.604 257.946 115.365V110.411C257.946 110.173 258.14 109.979 258.378 109.979H259.723C259.961 109.979 260.154 109.786 260.154 109.547V109.258C260.154 109.016 259.956 108.821 259.715 108.826L258.386 108.85C258.144 108.854 257.946 108.659 257.946 108.418V107.39C257.946 107.151 257.752 106.957 257.513 106.958H257.386C257.144 106.958 256.949 106.759 256.954 106.517L256.956 106.389C256.961 106.158 257.146 105.971 257.378 105.966L257.709 105.957C257.943 105.951 258.13 105.76 258.13 105.526V99.3533C258.13 99.1141 258.324 98.9203 258.564 98.9211L265.433 98.9456C265.671 98.9469 265.864 99.1399 265.864 99.3778Z" fill="#E0E0E0"/>
<path d="M265.3 109.373C265.3 109.431 270.695 109.478 277.348 109.478C284.004 109.478 289.398 109.431 289.398 109.373C289.398 109.314 284.004 109.267 277.348 109.267C270.695 109.267 265.3 109.314 265.3 109.373Z" fill="#E0E0E0"/>
<path d="M265.3 108.402C265.3 108.461 270.695 108.508 277.348 108.508C284.004 108.508 289.398 108.461 289.398 108.402C289.398 108.344 284.004 108.296 277.348 108.296C270.695 108.296 265.3 108.344 265.3 108.402Z" fill="#E0E0E0"/>
<path d="M263.752 105.79C263.752 105.849 269.147 105.896 275.801 105.896C282.457 105.896 287.851 105.849 287.851 105.79C287.851 105.732 282.457 105.685 275.801 105.685C269.147 105.685 263.752 105.732 263.752 105.79Z" fill="#E0E0E0"/>
<path d="M263.603 112.907C263.603 112.966 268.998 113.013 275.652 113.013C282.308 113.013 287.702 112.966 287.702 112.907C287.702 112.849 282.308 112.802 275.652 112.802C268.998 112.801 263.603 112.849 263.603 112.907Z" fill="#E0E0E0"/>
<path d="M290.374 115.641V124.33C290.374 124.569 290.568 124.762 290.807 124.762H291.538C291.776 124.762 291.97 124.955 291.97 125.194V125.366C291.97 125.605 291.776 125.798 291.538 125.798H290.807C290.568 125.798 290.374 125.992 290.374 126.231V131.76C290.374 131.999 290.181 132.192 289.942 132.192H260.991C260.752 132.192 260.559 131.999 260.559 131.76V126.807C260.559 126.568 260.752 126.374 260.991 126.374H262.336C262.574 126.374 262.768 126.181 262.768 125.942V125.539C262.768 125.301 262.574 125.107 262.336 125.107H260.991C260.752 125.107 260.559 124.914 260.559 124.675V123.638C260.559 123.4 260.365 123.206 260.127 123.206H260.01C259.771 123.206 259.578 123.013 259.578 122.774C259.578 122.535 259.771 122.342 260.01 122.342H260.311C260.55 122.342 260.743 122.149 260.743 121.91V115.64C260.743 115.401 260.937 115.208 261.175 115.208H289.943C290.181 115.209 290.374 115.402 290.374 115.641Z" fill="#F5F5F5"/>
<path d="M268.477 115.667V131.654C268.477 131.893 268.284 132.086 268.045 132.086H260.991C260.753 132.086 260.559 131.893 260.559 131.654V126.7C260.559 126.462 260.753 126.268 260.991 126.268H262.336C262.575 126.268 262.768 126.075 262.768 125.836V125.547C262.768 125.305 262.57 125.111 262.329 125.115L260.999 125.139C260.758 125.143 260.56 124.948 260.56 124.707V123.679C260.56 123.44 260.366 123.246 260.127 123.246H260C259.758 123.247 259.563 123.048 259.568 122.806L259.57 122.678C259.575 122.446 259.76 122.26 259.991 122.254L260.322 122.246C260.556 122.24 260.744 122.048 260.744 121.814V115.642C260.744 115.403 260.938 115.209 261.177 115.21L268.046 115.234C268.284 115.236 268.477 115.429 268.477 115.667Z" fill="#E0E0E0"/>
<path d="M267.913 125.661C267.913 125.72 273.308 125.767 279.962 125.767C286.618 125.767 292.012 125.72 292.012 125.661C292.012 125.603 286.618 125.556 279.962 125.556C273.308 125.556 267.913 125.603 267.913 125.661Z" fill="#E0E0E0"/>
<path d="M267.913 124.691C267.913 124.75 273.308 124.797 279.962 124.797C286.618 124.797 292.012 124.749 292.012 124.691C292.012 124.633 286.618 124.586 279.962 124.586C273.308 124.585 267.913 124.633 267.913 124.691Z" fill="#E0E0E0"/>
<path d="M266.365 122.079C266.365 122.138 271.76 122.185 278.414 122.185C285.07 122.185 290.463 122.137 290.463 122.079C290.463 122.021 285.07 121.974 278.414 121.974C271.76 121.974 266.365 122.021 266.365 122.079Z" fill="#E0E0E0"/>
<path d="M266.216 129.196C266.216 129.255 271.612 129.302 278.265 129.302C284.921 129.302 290.315 129.255 290.315 129.196C290.315 129.138 284.921 129.09 278.265 129.09C271.612 129.09 266.216 129.138 266.216 129.196Z" fill="#E0E0E0"/>
<path d="M147.405 7.79993H154.572V30.1841H147.405V7.79993Z" fill="#F5F5F5"/>
<path d="M136.704 12.9133H143.871V30.1844H136.704V12.9133Z" fill="#F5F5F5"/>
<path d="M126.797 19.928H133.964V30.1845H126.797V19.928Z" fill="#F5F5F5"/>
<path d="M172.465 24.7577C172.601 16.2301 165.806 9.18054 157.317 9.04368C148.829 8.90682 141.812 15.7334 141.675 24.261C141.539 32.7885 148.334 39.8381 156.823 39.9749C165.312 40.1118 172.328 33.2852 172.465 24.7577ZM149.709 24.3903C149.774 20.3131 153.13 17.0488 157.188 17.1145C161.247 17.1798 164.496 20.5507 164.431 24.6279C164.366 28.7051 161.011 31.9694 156.952 31.9037C152.894 31.8384 149.644 28.468 149.709 24.3903Z" fill="#455A64"/>
<path d="M172.465 24.7577C172.601 16.2297 165.806 9.18063 157.318 9.04376L157.189 17.1146C161.248 17.1803 164.497 20.5507 164.431 24.628C164.366 28.7052 161.011 31.9691 156.952 31.9038L156.823 39.9746C165.312 40.1119 172.328 33.2853 172.465 24.7577Z" fill="#0494FD"/>
<path d="M158.7 7.80238C148.769 7.64222 140.847 15.3494 140.687 25.326L150.086 25.4774C150.162 20.7071 153.792 17.704 158.541 17.7806L158.7 7.80238Z" fill="#263238"/>
<path d="M195.663 19.6071C195.775 13.3116 190.763 8.1167 184.468 8.00398C178.172 7.89127 172.977 12.9034 172.865 19.1989C172.752 25.4944 177.764 30.6893 184.06 30.802C190.355 30.9148 195.55 25.9026 195.663 19.6071Z" fill="#0494FD"/>
<g opacity="0.1">
<path d="M186.418 8.20294C180.234 7.01651 174.26 11.0675 173.073 17.2522C173.073 17.2522 180.874 19.1134 183.374 16.3079C185.875 13.5028 186.418 8.20294 186.418 8.20294Z" fill="white"/>
</g>
<path d="M192.639 20.8218C191.737 25.5231 187.196 28.6027 182.494 27.7008C177.793 26.7989 174.714 22.257 175.615 17.5558C176.517 12.8546 181.059 9.77454 185.76 10.6768C190.462 11.5787 193.541 16.1206 192.639 20.8218Z" fill="#0494FD"/>
<g opacity="0.2">
<path d="M192.639 20.8218C191.737 25.5231 187.196 28.6027 182.494 27.7008C177.793 26.7989 174.714 22.257 175.615 17.5558C176.517 12.8546 181.059 9.77454 185.76 10.6768C190.462 11.5787 193.541 16.1206 192.639 20.8218Z" fill="black"/>
</g>
<path d="M192.812 21.2225C191.922 25.8605 187.441 28.899 182.803 28.0092C178.165 27.1193 175.127 22.6382 176.016 18.0002C176.906 13.3622 181.387 10.3238 186.025 11.2136C190.663 12.1034 193.701 16.5845 192.812 21.2225Z" fill="#0494FD"/>
<g opacity="0.2">
<path d="M192.812 21.2225C191.922 25.8605 187.441 28.899 182.803 28.0092C178.165 27.1193 175.127 22.6382 176.016 18.0002C176.906 13.3622 181.387 10.3238 186.025 11.2136C190.663 12.1034 193.701 16.5845 192.812 21.2225Z" fill="white"/>
</g>
<path d="M184.888 18.9477L185.3 16.7995C185.304 16.7999 185.307 16.8008 185.311 16.8016C185.676 16.9164 186.043 17.0899 186.396 17.3183C186.683 17.545 186.866 17.7584 186.866 17.7584L186.907 17.6972L187.387 16.9871L187.497 16.8241L187.191 16.3486L186.991 16.396C186.567 16.0707 186.067 15.7836 185.521 15.648L185.748 14.4666L185.437 14.0997L185.38 14.3963L184.875 14.2994L184.644 15.5024C182.953 15.3435 181.983 16.1397 181.775 17.2255C181.491 18.7052 182.684 19.3313 183.811 19.8455L183.402 21.9746C182.607 21.7449 181.868 21.2827 181.428 20.7569L180.743 21.7403C181.204 22.3257 182.15 22.8602 183.182 23.1244L183.011 24.0167L182.594 23.9443L182.955 24.3062L183.828 24.4739L184.057 23.2816C185.761 23.4318 186.739 22.6485 186.947 21.5627C187.231 20.0813 186.015 19.4615 184.888 18.9477ZM184.058 18.5567C183.475 18.2572 183.063 17.9352 183.16 17.4243C183.25 16.9559 183.643 16.6339 184.421 16.6618L184.058 18.5567ZM184.279 22.1197L184.641 20.2357C185.245 20.5394 185.666 20.8738 185.566 21.3955C185.478 21.8531 185.079 22.1518 184.279 22.1197Z" fill="#0494FD"/>
<g opacity="0.3">
<path d="M184.888 18.9477L185.3 16.7995C185.304 16.7999 185.307 16.8008 185.311 16.8016C185.676 16.9164 186.043 17.0899 186.396 17.3183C186.683 17.545 186.866 17.7584 186.866 17.7584L186.907 17.6972L187.387 16.9871L187.497 16.8241L187.191 16.3486L186.991 16.396C186.567 16.0707 186.067 15.7836 185.521 15.648L185.748 14.4666L185.437 14.0997L185.38 14.3963L184.875 14.2994L184.644 15.5024C182.953 15.3435 181.983 16.1397 181.775 17.2255C181.491 18.7052 182.684 19.3313 183.811 19.8455L183.402 21.9746C182.607 21.7449 181.868 21.2827 181.428 20.7569L180.743 21.7403C181.204 22.3257 182.15 22.8602 183.182 23.1244L183.011 24.0167L182.594 23.9443L182.955 24.3062L183.828 24.4739L184.057 23.2816C185.761 23.4318 186.739 22.6485 186.947 21.5627C187.231 20.0813 186.015 19.4615 184.888 18.9477ZM184.058 18.5567C183.475 18.2572 183.063 17.9352 183.16 17.4243C183.25 16.9559 183.643 16.6339 184.421 16.6618L184.058 18.5567ZM184.279 22.1197L184.641 20.2357C185.245 20.5394 185.666 20.8738 185.566 21.3955C185.478 21.8531 185.079 22.1518 184.279 22.1197Z" fill="black"/>
</g>
<path d="M183.752 22.9189L183.523 24.1116L182.65 23.9439L182.877 22.7621C181.846 22.4979 180.899 21.9634 180.438 21.378L181.123 20.3946C181.563 20.9204 182.302 21.3822 183.097 21.6122L183.505 19.4832C182.379 18.969 181.185 18.3425 181.469 16.8628C181.678 15.7766 182.647 14.9804 184.338 15.1393L184.569 13.9362L185.443 14.1035L185.216 15.2853C185.996 15.4792 186.749 15.8665 187.253 16.3494L186.61 17.3408C186.109 16.9027 185.547 16.6074 184.995 16.4351L184.583 18.5859C185.709 19.1 186.926 19.7199 186.642 21.1996C186.434 22.2858 185.456 23.0695 183.752 22.9189ZM183.753 18.1948L184.117 16.2999C183.338 16.2721 182.946 16.594 182.856 17.0625C182.757 17.5733 183.17 17.8957 183.753 18.1948ZM185.262 21.034C185.362 20.5123 184.94 20.1779 184.336 19.8742L183.974 21.7587C184.774 21.7907 185.174 21.492 185.262 21.034Z" fill="#0494FD"/>
<path d="M173.727 22.824C173.724 22.8249 173.712 22.7916 173.692 22.7275C173.669 22.6543 173.641 22.5611 173.606 22.4455C173.567 22.3232 173.525 22.1722 173.488 21.9941C173.449 21.8165 173.396 21.6151 173.364 21.388C173.346 21.2744 173.326 21.1559 173.306 21.0327C173.287 20.9092 173.278 20.779 173.263 20.645C173.228 20.3771 173.221 20.0888 173.207 19.786C173.197 19.1795 173.229 18.5114 173.33 17.8183C173.438 17.1257 173.605 16.478 173.794 15.9014C173.896 15.616 173.989 15.3427 174.101 15.0973C174.155 14.9737 174.202 14.8522 174.257 14.7395C174.313 14.6276 174.366 14.5203 174.417 14.4171C174.515 14.2095 174.625 14.0331 174.714 13.8746C174.803 13.7153 174.888 13.5839 174.961 13.4782C175.028 13.3783 175.083 13.2976 175.126 13.2344C175.165 13.1791 175.186 13.1512 175.189 13.1529C175.191 13.1545 175.174 13.1857 175.14 13.244C175.101 13.3093 175.05 13.3929 174.988 13.4961C174.92 13.6042 174.839 13.7374 174.756 13.8983C174.671 14.0585 174.564 14.2357 174.471 14.4441C174.422 14.5473 174.37 14.655 174.317 14.767C174.263 14.8797 174.218 15.0012 174.166 15.1243C174.057 15.3697 173.968 15.6418 173.868 15.9259C173.685 16.5 173.521 17.1436 173.414 17.8308C173.314 18.5193 173.28 19.182 173.285 19.7843C173.297 20.0855 173.301 20.3717 173.332 20.6384C173.346 20.7715 173.353 20.9013 173.371 21.0244C173.389 21.1471 173.406 21.2653 173.423 21.3784C173.45 21.6052 173.499 21.8057 173.533 21.9837C173.566 22.1622 173.604 22.3136 173.637 22.4372C173.666 22.5541 173.689 22.6489 173.708 22.723C173.723 22.7879 173.73 22.8232 173.727 22.824Z" fill="white"/>
<path d="M182.027 17.8928C182.021 17.8987 181.919 17.8026 181.827 17.6C181.734 17.4007 181.665 17.0845 181.742 16.7484C181.819 16.4127 182.019 16.1577 182.189 16.0187C182.36 15.8765 182.494 15.834 182.497 15.8424C182.504 15.8553 182.383 15.9164 182.229 16.0637C182.077 16.208 181.897 16.4535 181.825 16.7676C181.753 17.0816 181.808 17.3807 181.882 17.5775C181.956 17.7768 182.039 17.8845 182.027 17.8928Z" fill="white"/>
<path d="M184.553 14.9978C184.53 14.9937 184.542 14.8331 184.579 14.6397C184.616 14.4462 184.664 14.2931 184.688 14.2977C184.71 14.3023 184.699 14.4624 184.662 14.6559C184.625 14.8489 184.576 15.0024 184.553 14.9978Z" fill="white"/>
<path d="M186.572 10.6053C186.57 10.6107 186.473 10.5883 186.3 10.5421C186.214 10.5179 186.108 10.4901 185.983 10.4647C185.859 10.4385 185.719 10.4019 185.561 10.3786C185.404 10.3503 185.232 10.3204 185.045 10.3012C184.859 10.2742 184.659 10.2634 184.448 10.2475C184.027 10.228 183.562 10.2317 183.078 10.2775C182.593 10.3278 182.137 10.4152 181.727 10.5171C181.524 10.5737 181.33 10.6236 181.153 10.6868C180.973 10.7422 180.81 10.8054 180.661 10.8641C180.511 10.9181 180.381 10.9814 180.264 11.0317C180.147 11.0808 180.049 11.1291 179.969 11.1694C179.808 11.2484 179.718 11.2896 179.715 11.2846C179.712 11.2796 179.797 11.2285 179.954 11.1399C180.032 11.0945 180.128 11.0417 180.244 10.9884C180.359 10.934 180.489 10.8666 180.639 10.8083C180.787 10.7459 180.951 10.6789 181.13 10.6199C181.308 10.5533 181.503 10.5005 181.708 10.4414C182.12 10.3345 182.58 10.2438 183.069 10.1931C183.559 10.1469 184.028 10.1452 184.453 10.1693C184.665 10.1872 184.867 10.201 185.054 10.2313C185.242 10.2538 185.415 10.2875 185.573 10.3195C185.731 10.347 185.871 10.3877 185.995 10.4185C186.119 10.4485 186.224 10.4809 186.309 10.51C186.48 10.5662 186.573 10.5999 186.572 10.6053Z" fill="white"/>
<path d="M183.597 30.2797C183.597 30.2855 183.523 30.2909 183.387 30.2955C183.251 30.3013 183.056 30.2988 182.813 30.2847C182.33 30.2576 181.662 30.164 180.951 29.9514C180.241 29.7368 179.631 29.446 179.213 29.2018C179.004 29.0799 178.839 28.9738 178.729 28.894C178.618 28.8153 178.559 28.7696 178.563 28.765C178.566 28.76 178.632 28.7966 178.747 28.8661C178.862 28.9372 179.031 29.0346 179.243 29.149C179.666 29.3786 180.272 29.6573 180.976 29.8699C181.679 30.0804 182.339 30.1827 182.818 30.2248C183.058 30.2464 183.253 30.258 183.388 30.2622C183.522 30.268 183.597 30.2738 183.597 30.2797Z" fill="white"/>
<path d="M181.589 79.977C180.553 83.7123 182.742 87.5802 186.477 88.6156C190.213 89.6515 194.08 87.4629 195.116 83.7277C196.152 79.992 193.963 76.1248 190.227 75.089C186.493 74.0527 182.625 76.2413 181.589 79.977Z" fill="#0494FD"/>
<g opacity="0.1">
<path d="M190.228 75.0886C193.964 76.1244 196.152 79.992 195.117 83.7272C195.117 83.7272 190.305 82.6219 189.692 80.3913C189.08 78.1603 190.228 75.0886 190.228 75.0886Z" fill="white"/>
</g>
<path d="M183.348 80.3489C182.561 83.1885 184.225 86.1288 187.065 86.9163C189.905 87.7038 192.844 86.0402 193.632 83.2001C194.419 80.3605 192.756 77.4202 189.916 76.6328C187.076 75.8457 184.136 77.5093 183.348 80.3489Z" fill="#0494FD"/>
<g opacity="0.2">
<path d="M183.348 80.3489C182.561 83.1885 184.225 86.1288 187.065 86.9163C189.905 87.7038 192.844 86.0402 193.632 83.2001C194.419 80.3605 192.756 77.4202 189.916 76.6328C187.076 75.8457 184.136 77.5093 183.348 80.3489Z" fill="black"/>
</g>
<path d="M183.144 80.5232C182.367 83.3245 184.008 86.2253 186.81 87.0024C189.612 87.7791 192.512 86.1379 193.289 83.3362C194.066 80.5344 192.425 77.6341 189.623 76.857C186.821 76.0799 183.92 77.7214 183.144 80.5232Z" fill="#0494FD"/>
<g opacity="0.2">
<path d="M183.144 80.5232C182.367 83.3245 184.008 86.2253 186.81 87.0024C189.612 87.7791 192.512 86.1379 193.289 83.3362C194.066 80.5344 192.425 77.6341 189.623 76.857C186.821 76.0799 183.92 77.7214 183.144 80.5232Z" fill="white"/>
</g>
<path d="M188.136 81.4339L188.496 80.1359C188.494 80.1351 188.492 80.1347 188.49 80.1343C188.257 80.0977 188.007 80.0931 187.75 80.1226C187.53 80.1692 187.37 80.237 187.37 80.237L187.364 80.1921L187.293 79.6692L187.277 79.549L187.576 79.3701L187.673 79.4512C187.996 79.388 188.35 79.3659 188.689 79.4404L188.887 78.7265L189.159 78.6092L189.109 78.7881L189.414 78.8725L189.213 79.5993C190.189 79.9737 190.506 80.678 190.324 81.334C190.076 82.2276 189.247 82.2471 188.485 82.223L188.129 83.5089C188.63 83.5991 189.164 83.5467 189.55 83.3766L189.66 84.1062C189.245 84.303 188.577 84.3392 187.936 84.2032L187.787 84.7423L188.037 84.8164L187.738 84.917L187.211 84.771L187.411 84.0509C186.43 83.6682 186.105 82.9685 186.287 82.3129C186.534 81.4189 187.374 81.4093 188.136 81.4339ZM188.701 81.4447C189.104 81.4389 189.42 81.374 189.506 81.0653C189.584 80.7824 189.455 80.4974 189.019 80.3003L188.701 81.4447ZM187.605 83.35L187.921 82.2118C187.505 82.2143 187.181 82.2837 187.093 82.5987C187.017 82.8753 187.155 83.149 187.605 83.35Z" fill="#0494FD"/>
<g opacity="0.3">
<path d="M188.136 81.4339L188.496 80.1359C188.494 80.1351 188.492 80.1347 188.49 80.1343C188.257 80.0977 188.007 80.0931 187.75 80.1226C187.53 80.1692 187.37 80.237 187.37 80.237L187.364 80.1921L187.293 79.6692L187.277 79.549L187.576 79.3701L187.673 79.4512C187.996 79.388 188.35 79.3659 188.689 79.4404L188.887 78.7265L189.159 78.6092L189.109 78.7881L189.414 78.8725L189.213 79.5993C190.189 79.9737 190.506 80.678 190.324 81.334C190.076 82.2276 189.247 82.2471 188.485 82.223L188.129 83.5089C188.63 83.5991 189.164 83.5467 189.55 83.3766L189.66 84.1062C189.245 84.303 188.577 84.3392 187.936 84.2032L187.787 84.7423L188.037 84.8164L187.738 84.917L187.211 84.771L187.411 84.0509C186.43 83.6682 186.105 82.9685 186.287 82.3129C186.534 81.4189 187.374 81.4093 188.136 81.4339ZM188.701 81.4447C189.104 81.4389 189.42 81.374 189.506 81.0653C189.584 80.7824 189.455 80.4974 189.019 80.3003L188.701 81.4447ZM187.605 83.35L187.921 82.2118C187.505 82.2143 187.181 82.2837 187.093 82.5987C187.017 82.8753 187.155 83.149 187.605 83.35Z" fill="black"/>
</g>
<path d="M187.678 83.9349L187.478 84.6554L188.006 84.8019L188.204 84.088C188.845 84.2241 189.513 84.1879 189.927 83.9911L189.818 83.2614C189.431 83.4312 188.897 83.484 188.396 83.3933L188.753 82.107C189.515 82.1316 190.344 82.112 190.592 81.218C190.774 80.562 190.457 79.8577 189.48 79.4833L189.682 78.7566L189.154 78.6101L188.956 79.324C188.473 79.2179 187.951 79.2254 187.542 79.3544L187.625 80.077C188.021 79.9721 188.412 79.9626 188.763 80.0183L188.403 81.3175C187.641 81.2933 186.801 81.3025 186.553 82.1965C186.371 82.8525 186.696 83.5522 187.678 83.9349ZM188.968 81.3287L189.286 80.1839C189.722 80.3811 189.851 80.666 189.773 80.9493C189.687 81.258 189.371 81.3229 188.968 81.3287ZM187.36 82.4827C187.447 82.1678 187.771 82.0983 188.187 82.0958L187.872 83.234C187.422 83.0331 187.283 82.7593 187.36 82.4827Z" fill="#0494FD"/>
<path d="M193.233 86.6221C193.234 86.6234 193.25 86.6084 193.279 86.5784C193.312 86.5443 193.353 86.5007 193.404 86.4466C193.458 86.3896 193.523 86.318 193.592 86.2298C193.662 86.1425 193.747 86.046 193.826 85.9291C193.867 85.8717 193.91 85.8113 193.955 85.7489C194 85.6861 194.04 85.6167 194.085 85.5468C194.177 85.4082 194.26 85.2514 194.351 85.0883C194.522 84.7564 194.687 84.3791 194.82 83.9689C194.95 83.5575 195.035 83.1544 195.089 82.7849C195.11 82.5994 195.134 82.4234 195.139 82.257C195.143 82.1743 195.15 82.0944 195.151 82.017C195.151 81.94 195.151 81.866 195.15 81.7953C195.153 81.6543 195.141 81.527 195.135 81.4146C195.13 81.3027 195.119 81.2066 195.107 81.1289C195.097 81.0552 195.089 80.9957 195.083 80.9491C195.077 80.908 195.073 80.8867 195.071 80.8872C195.069 80.8876 195.07 80.9092 195.073 80.9508C195.076 80.9978 195.081 81.0573 195.088 81.1313C195.096 81.2096 195.104 81.3052 195.106 81.4171C195.11 81.5286 195.12 81.6555 195.114 81.7957C195.113 81.866 195.112 81.9396 195.111 82.0162C195.109 82.0927 195.101 82.1722 195.096 82.2545C195.089 82.4197 195.064 82.594 195.042 82.7783C194.986 83.1448 194.9 83.5446 194.771 83.9531C194.639 84.3603 194.476 84.7352 194.309 85.0659C194.22 85.2285 194.139 85.3854 194.049 85.5239C194.005 85.5938 193.966 85.6633 193.922 85.7265C193.879 85.7893 193.837 85.8496 193.797 85.9074C193.719 86.0248 193.638 86.1221 193.57 86.2111C193.504 86.3006 193.441 86.3738 193.389 86.4329C193.342 86.4894 193.303 86.5352 193.272 86.571C193.245 86.6034 193.232 86.6209 193.233 86.6221Z" fill="white"/>
<path d="M190.003 81.634C190.004 81.639 190.087 81.6136 190.193 81.5271C190.299 81.4426 190.423 81.287 190.473 81.0807C190.522 80.8744 190.481 80.6793 190.425 80.5561C190.37 80.4309 190.308 80.371 190.304 80.3747C190.296 80.3797 190.347 80.4467 190.391 80.5698C190.436 80.6913 190.468 80.8756 190.422 81.0686C190.376 81.2616 190.264 81.4114 190.169 81.4996C190.073 81.589 189.999 81.6261 190.003 81.634Z" fill="white"/>
<path d="M189.4 79.3464C189.414 79.3501 189.452 79.2586 189.484 79.1421C189.516 79.0252 189.531 78.9274 189.517 78.9237C189.504 78.92 189.466 79.0115 189.434 79.1284C189.402 79.2448 189.387 79.3426 189.4 79.3464Z" fill="white"/>
<path d="M189.487 76.3719C189.487 76.3756 189.546 76.3893 189.655 76.411C189.709 76.4214 189.775 76.4347 189.85 76.4546C189.926 76.4742 190.013 76.4921 190.107 76.5225C190.201 76.5499 190.304 76.5803 190.413 76.621C190.523 76.6568 190.636 76.7055 190.757 76.7546C190.994 76.859 191.249 76.988 191.504 77.1456C191.758 77.3058 191.986 77.4788 192.184 77.6469C192.28 77.7338 192.374 77.8145 192.454 77.8973C192.538 77.9772 192.611 78.0562 192.677 78.1295C192.745 78.2006 192.8 78.2709 192.85 78.3304C192.901 78.3895 192.943 78.4431 192.975 78.4872C193.042 78.5746 193.081 78.622 193.084 78.6203C193.087 78.6183 193.054 78.5671 192.992 78.4756C192.962 78.4294 192.923 78.3741 192.874 78.3125C192.825 78.2509 192.772 78.1785 192.705 78.1053C192.64 78.0304 192.569 77.9489 192.485 77.8674C192.406 77.7821 192.312 77.6997 192.216 77.6111C192.018 77.4397 191.789 77.2638 191.533 77.1019C191.275 76.9426 191.017 76.8136 190.776 76.7109C190.654 76.6631 190.539 76.6152 190.427 76.5807C190.318 76.5416 190.213 76.5129 190.117 76.4875C190.022 76.4592 189.934 76.4438 189.857 76.4268C189.781 76.4093 189.714 76.3985 189.659 76.3914C189.549 76.3752 189.488 76.3681 189.487 76.3719Z" fill="white"/>
<path d="M185.751 88.0375C185.75 88.0408 185.789 88.0641 185.863 88.1036C185.936 88.144 186.045 88.196 186.182 88.2546C186.456 88.3719 186.851 88.503 187.301 88.5799C187.751 88.6556 188.166 88.6619 188.464 88.6415C188.613 88.6315 188.733 88.6182 188.815 88.604C188.898 88.5907 188.943 88.582 188.942 88.5783C188.942 88.5745 188.896 88.577 188.813 88.5837C188.73 88.5916 188.61 88.5991 188.462 88.6045C188.166 88.6153 187.755 88.6036 187.31 88.5283C186.864 88.4522 186.472 88.3282 186.196 88.2205C186.058 88.1668 185.947 88.1202 185.871 88.0857C185.796 88.0512 185.753 88.0341 185.751 88.0375Z" fill="white"/>
<path d="M117.56 70.308C116.858 72.8402 118.342 75.4618 120.874 76.164C123.406 76.8662 126.028 75.3824 126.73 72.8502C127.432 70.318 125.948 67.6963 123.416 66.9941C120.884 66.2919 118.262 67.7758 117.56 70.308Z" fill="#0494FD"/>
<g opacity="0.1">
<path d="M123.417 66.9942C125.949 67.6964 127.432 70.318 126.73 72.8502C126.73 72.8502 123.469 72.101 123.053 70.5889C122.638 69.0767 123.417 66.9942 123.417 66.9942Z" fill="white"/>
</g>
<path d="M118.752 70.5601C118.219 72.4853 119.346 74.4784 121.271 75.0121C123.196 75.5458 125.189 74.4181 125.723 72.4932C126.257 70.568 125.129 68.5749 123.204 68.0412C121.279 67.5075 119.286 68.6352 118.752 70.5601Z" fill="#0494FD"/>
<g opacity="0.2">
<path d="M118.752 70.5601C118.219 72.4853 119.346 74.4784 121.271 75.0121C123.196 75.5458 125.189 74.4181 125.723 72.4932C126.257 70.568 125.129 68.5749 123.204 68.0412C121.279 67.5075 119.286 68.6352 118.752 70.5601Z" fill="black"/>
</g>
<path d="M118.614 70.6783C118.087 72.5773 119.2 74.5437 121.099 75.0704C122.998 75.597 124.964 74.4842 125.491 72.5852C126.018 70.6862 124.905 68.7197 123.006 68.1931C121.107 67.6664 119.14 68.7792 118.614 70.6783Z" fill="#0494FD"/>
<g opacity="0.2">
<path d="M118.614 70.6783C118.087 72.5773 119.2 74.5437 121.099 75.0704C122.998 75.597 124.964 74.4842 125.491 72.5852C126.018 70.6862 124.905 68.7197 123.006 68.1931C121.107 67.6664 119.14 68.7792 118.614 70.6783Z" fill="white"/>
</g>
<path d="M121.998 71.2956L122.242 70.4158C122.241 70.4154 122.239 70.4149 122.238 70.4145C122.08 70.39 121.911 70.3867 121.737 70.4066C121.587 70.4382 121.479 70.484 121.479 70.484L121.475 70.4536L121.427 70.0992L121.416 70.0177L121.619 69.8966L121.685 69.9515C121.904 69.9087 122.144 69.8937 122.374 69.944L122.508 69.4602L122.692 69.3808L122.658 69.5022L122.865 69.5596L122.728 70.0522C123.39 70.306 123.605 70.7835 123.482 71.2282C123.314 71.8339 122.752 71.8472 122.235 71.8306L121.993 72.7025C122.333 72.7637 122.695 72.7279 122.957 72.6131L123.031 73.1077C122.75 73.2408 122.297 73.2658 121.863 73.1734L121.762 73.5387L121.931 73.5886L121.729 73.6568L121.371 73.5578L121.507 73.0694C120.841 72.8099 120.621 72.3356 120.744 71.8913C120.912 71.2852 121.482 71.279 121.998 71.2956ZM122.381 71.3031C122.654 71.2989 122.869 71.2553 122.926 71.046C122.98 70.8542 122.892 70.6612 122.596 70.5273L122.381 71.3031ZM121.638 72.5944L121.852 71.8227C121.57 71.8243 121.35 71.8714 121.291 72.0852C121.239 72.2728 121.333 72.4583 121.638 72.5944Z" fill="#0494FD"/>
<g opacity="0.3">
<path d="M121.998 71.2956L122.242 70.4158C122.241 70.4154 122.239 70.4149 122.238 70.4145C122.08 70.39 121.911 70.3867 121.737 70.4066C121.587 70.4382 121.479 70.484 121.479 70.484L121.475 70.4536L121.427 70.0992L121.416 70.0177L121.619 69.8966L121.685 69.9515C121.904 69.9087 122.144 69.8937 122.374 69.944L122.508 69.4602L122.692 69.3808L122.658 69.5022L122.865 69.5596L122.728 70.0522C123.39 70.306 123.605 70.7835 123.482 71.2282C123.314 71.8339 122.752 71.8472 122.235 71.8306L121.993 72.7025C122.333 72.7637 122.695 72.7279 122.957 72.6131L123.031 73.1077C122.75 73.2408 122.297 73.2658 121.863 73.1734L121.762 73.5387L121.931 73.5886L121.729 73.6568L121.371 73.5578L121.507 73.0694C120.841 72.8099 120.621 72.3356 120.744 71.8913C120.912 71.2852 121.482 71.279 121.998 71.2956ZM122.381 71.3031C122.654 71.2989 122.869 71.2553 122.926 71.046C122.98 70.8542 122.892 70.6612 122.596 70.5273L122.381 71.3031ZM121.638 72.5944L121.852 71.8227C121.57 71.8243 121.35 71.8714 121.291 72.0852C121.239 72.2728 121.333 72.4583 121.638 72.5944Z" fill="black"/>
</g>
<path d="M121.687 72.9914L121.552 73.4798L121.909 73.5788L122.043 73.095C122.478 73.1874 122.931 73.1624 123.212 73.0293L123.138 72.5347C122.876 72.6499 122.514 72.6857 122.174 72.6241L122.416 71.7522C122.932 71.7688 123.494 71.7555 123.662 71.1498C123.785 70.7051 123.571 70.2275 122.909 69.9738L123.045 69.4812L122.688 69.3822L122.553 69.866C122.226 69.7941 121.872 69.7995 121.594 69.8864L121.651 70.3765C121.919 70.3053 122.184 70.2991 122.423 70.337L122.178 71.2176C121.662 71.201 121.092 71.2076 120.924 71.8133C120.802 72.2576 121.022 72.7319 121.687 72.9914ZM122.562 71.2247L122.777 70.4489C123.073 70.5824 123.161 70.7758 123.107 70.9676C123.05 71.1769 122.835 71.2205 122.562 71.2247ZM121.472 72.0068C121.531 71.793 121.751 71.7459 122.033 71.7447L121.819 72.5164C121.514 72.3799 121.42 72.1944 121.472 72.0068Z" fill="#0494FD"/>
<path d="M125.453 74.8129C125.454 74.8138 125.465 74.8038 125.484 74.7834C125.506 74.7601 125.534 74.7306 125.569 74.694C125.606 74.6553 125.65 74.607 125.697 74.5471C125.744 74.4876 125.801 74.4223 125.855 74.3433C125.883 74.3042 125.912 74.2634 125.942 74.221C125.972 74.1781 126 74.1311 126.031 74.0841C126.093 73.9905 126.149 73.884 126.211 73.7734C126.327 73.5483 126.439 73.2925 126.529 73.0146C126.617 72.7354 126.675 72.4625 126.711 72.2117C126.725 72.0861 126.741 71.9667 126.745 71.8539C126.747 71.7978 126.752 71.7437 126.753 71.6913C126.753 71.6393 126.753 71.5889 126.753 71.5411C126.755 71.4454 126.746 71.3589 126.742 71.2832C126.739 71.2071 126.732 71.1422 126.724 71.0893C126.717 71.0394 126.711 70.9991 126.707 70.9674C126.703 70.9396 126.7 70.925 126.699 70.9254C126.697 70.9258 126.698 70.9404 126.7 70.9687C126.702 71.0003 126.706 71.0411 126.71 71.091C126.715 71.1438 126.721 71.2087 126.722 71.2844C126.725 71.3601 126.732 71.4458 126.728 71.5411C126.727 71.5889 126.727 71.6384 126.726 71.6904C126.725 71.7424 126.719 71.7961 126.716 71.8519C126.711 71.9638 126.694 72.0819 126.679 72.2071C126.641 72.4555 126.583 72.7267 126.496 73.0033C126.406 73.2791 126.296 73.5333 126.182 73.758C126.122 73.8682 126.067 73.9747 126.006 74.0683C125.976 74.1157 125.949 74.1627 125.92 74.2056C125.891 74.248 125.863 74.2892 125.836 74.3283C125.783 74.4078 125.728 74.4739 125.682 74.5342C125.637 74.595 125.595 74.6445 125.559 74.6844C125.527 74.7227 125.501 74.7539 125.48 74.778C125.462 74.8 125.452 74.8121 125.453 74.8129Z" fill="white"/>
<path d="M123.263 71.4312C123.265 71.4345 123.32 71.4175 123.392 71.3588C123.464 71.3014 123.548 71.1962 123.582 71.0564C123.615 70.9166 123.588 70.7839 123.55 70.7007C123.512 70.6158 123.47 70.5751 123.468 70.5776C123.463 70.5809 123.497 70.6262 123.527 70.7098C123.557 70.7922 123.579 70.917 123.548 71.0481C123.516 71.1787 123.44 71.2806 123.376 71.3401C123.312 71.4008 123.26 71.4258 123.263 71.4312Z" fill="white"/>
<path d="M122.855 69.8808C122.865 69.8833 122.89 69.8213 122.912 69.7423C122.934 69.6632 122.944 69.5967 122.935 69.5942C122.926 69.5917 122.9 69.6536 122.878 69.7327C122.856 69.8117 122.846 69.8779 122.855 69.8808Z" fill="white"/>
<path d="M122.914 67.864C122.914 67.8665 122.954 67.8757 123.028 67.8907C123.064 67.8977 123.109 67.9069 123.16 67.9206C123.211 67.9339 123.27 67.946 123.334 67.9668C123.398 67.9855 123.468 68.0059 123.542 68.0334C123.616 68.0575 123.693 68.0908 123.775 68.1236C123.936 68.1943 124.109 68.2817 124.282 68.3886C124.454 68.4972 124.608 68.6145 124.742 68.7285C124.808 68.7871 124.871 68.8421 124.926 68.8982C124.983 68.9523 125.032 69.006 125.077 69.0555C125.123 69.1037 125.16 69.1511 125.194 69.1915C125.229 69.2314 125.256 69.2676 125.279 69.2976C125.324 69.3571 125.35 69.3891 125.353 69.3879C125.355 69.3866 125.332 69.3517 125.29 69.2897C125.269 69.2585 125.243 69.2206 125.21 69.1794C125.177 69.1378 125.141 69.0883 125.095 69.0388C125.052 68.9881 125.003 68.9327 124.947 68.8774C124.892 68.8196 124.829 68.7638 124.764 68.7035C124.63 68.587 124.474 68.4681 124.301 68.3582C124.127 68.2501 123.951 68.1627 123.788 68.0933C123.705 68.0608 123.627 68.0284 123.552 68.0051C123.477 67.9789 123.406 67.9593 123.342 67.9418C123.277 67.9227 123.217 67.9119 123.165 67.9006C123.113 67.8886 123.068 67.8815 123.031 67.8765C122.956 67.8665 122.914 67.8615 122.914 67.864Z" fill="white"/>
<path d="M120.381 75.7723C120.38 75.7743 120.407 75.7901 120.457 75.8172C120.507 75.8446 120.581 75.88 120.673 75.9195C120.859 75.999 121.126 76.088 121.432 76.14C121.737 76.1912 122.019 76.1953 122.22 76.1816C122.322 76.175 122.403 76.1658 122.458 76.1562C122.514 76.1475 122.545 76.1413 122.545 76.1388C122.544 76.1363 122.513 76.1379 122.457 76.1425C122.401 76.1479 122.319 76.1529 122.219 76.1566C122.018 76.1641 121.74 76.1558 121.437 76.1051C121.135 76.0535 120.869 75.9694 120.683 75.8962C120.589 75.86 120.514 75.828 120.462 75.8047C120.412 75.7818 120.383 75.7698 120.381 75.7723Z" fill="white"/>
<path d="M142.693 76.3435H170.09V135.336H142.693V76.3435Z" fill="#0494FD"/>
<g opacity="0.3">
<path d="M142.693 76.3434H151.185V135.336H142.693V76.3434Z" fill="black"/>
</g>
<path d="M151.185 135.336C151.249 135.336 151.301 122.278 151.301 106.174C151.301 90.0645 151.249 77.0091 151.185 77.0091C151.121 77.0091 151.069 90.0645 151.069 106.174C151.069 122.278 151.121 135.336 151.185 135.336Z" fill="#263238"/>
<path d="M176.129 55.5455H203.526V135.336H176.129V55.5455Z" fill="#0494FD"/>
<g opacity="0.3">
<path d="M176.129 55.5456H184.622V135.336H176.129V55.5456Z" fill="black"/>
</g>
<path d="M184.622 135.336C184.686 135.336 184.738 117.674 184.738 95.893C184.738 74.1038 184.686 56.4462 184.622 56.4462C184.558 56.4462 184.506 74.1042 184.506 95.893C184.506 117.675 184.558 135.336 184.622 135.336Z" fill="#263238"/>
<path d="M108.89 93.5168H136.287V135.336H108.89V93.5168Z" fill="#0494FD"/>
<g opacity="0.3">
<path d="M108.89 93.5168H117.383V135.336H108.89V93.5168Z" fill="black"/>
</g>
<path d="M117.383 135.336C117.447 135.336 117.499 126.08 117.499 114.663C117.499 103.243 117.447 93.9885 117.383 93.9885C117.319 93.9885 117.267 103.243 117.267 114.663C117.267 126.08 117.319 135.336 117.383 135.336Z" fill="#263238"/>
<path d="M75.8194 112.517H103.216V135.336H75.8194V112.517Z" fill="#0494FD"/>
<g opacity="0.3">
<path d="M75.8194 112.517H84.312V135.336H75.8194V112.517Z" fill="black"/>
</g>
<path d="M84.312 135.336C84.376 135.336 84.428 130.285 84.428 124.056C84.428 117.824 84.376 112.775 84.312 112.775C84.2479 112.775 84.1959 117.824 84.1959 124.056C84.1959 130.285 84.2479 135.336 84.312 135.336Z" fill="#263238"/>
<path d="M42.3825 120.413H69.7794V135.336H42.3825V120.413Z" fill="#0494FD"/>
<g opacity="0.3">
<path d="M42.3825 120.413H50.8751V135.336H42.3825V120.413Z" fill="black"/>
</g>
<path d="M50.8752 135.336C50.9392 135.336 50.9912 132.033 50.9912 127.959C50.9912 123.884 50.9392 120.581 50.8752 120.581C50.8111 120.581 50.7591 123.884 50.7591 127.959C50.7591 132.033 50.8111 135.336 50.8752 135.336Z" fill="#263238"/>
<path d="M209.566 29.3151H236.963V135.321H209.566V29.3151Z" fill="#0494FD"/>
<g opacity="0.3">
<path d="M209.566 29.3151H218.059V135.321H209.566V29.3151Z" fill="black"/>
</g>
<path d="M218.059 135.752C218.123 135.752 218.175 112.191 218.175 83.1343C218.175 54.0671 218.123 30.5115 218.059 30.5115C217.995 30.5115 217.943 54.0671 217.943 83.1343C217.943 112.191 217.995 135.752 218.059 135.752Z" fill="#263238"/>
<path d="M243.003 7.79999H270.4V135.752H243.003V7.79999Z" fill="#0494FD"/>
<g opacity="0.3">
<path d="M243.003 7.79993H251.496V135.752H243.003V7.79993Z" fill="black"/>
</g>
<path d="M251.496 135.752C251.56 135.752 251.612 107.43 251.612 72.5013C251.612 37.5602 251.56 9.24435 251.496 9.24435C251.432 9.24435 251.38 37.5602 251.38 72.5013C251.38 107.43 251.432 135.752 251.496 135.752Z" fill="#263238"/>
<path d="M165.846 60.8817C173.81 55.4902 175.896 44.6633 170.504 36.6992C165.113 28.7351 154.286 26.6495 146.322 32.041C138.358 37.4325 136.272 48.2594 141.664 56.2235C147.055 64.1876 157.882 66.2732 165.846 60.8817Z" fill="#0494FD"/>
<path opacity="0.3" d="M165.846 60.8817C173.81 55.4902 175.896 44.6633 170.504 36.6992C165.113 28.7351 154.286 26.6495 146.322 32.041C138.358 37.4325 136.272 48.2594 141.664 56.2235C147.055 64.1876 157.882 66.2732 165.846 60.8817Z" fill="black"/>
<path d="M165.846 58.9581C173.81 53.5666 175.896 42.7398 170.504 34.7756C165.113 26.8115 154.286 24.726 146.322 30.1175C138.358 35.5089 136.272 46.3358 141.664 54.2999C147.055 62.2641 157.882 64.3496 165.846 58.9581Z" fill="#0494FD"/>
<path d="M156.084 56.1991C162.526 56.1991 167.748 50.9768 167.748 44.5349C167.748 38.0929 162.526 32.8706 156.084 32.8706C149.642 32.8706 144.42 38.0929 144.42 44.5349C144.42 50.9768 149.642 56.1991 156.084 56.1991Z" fill="white"/>
<path d="M160.119 48.571C162.348 46.3419 162.348 42.7279 160.119 40.4988C157.89 38.2697 154.276 38.2697 152.047 40.4988C149.818 42.7279 149.818 46.3419 152.047 48.571C154.276 50.8 157.89 50.8 160.119 48.571Z" fill="#0494FD"/>
<path d="M170.084 29.7905L169.611 26.0752L173.393 22.028L173.665 26.0374L170.084 29.7905Z" fill="#455A64"/>
<path d="M178.201 26.834L174.365 26.522L170.519 30.2211L174.365 30.6325L178.201 26.834Z" fill="#455A64"/>
<path opacity="0.3" d="M156.846 44.4512L170.162 34.2858C169.71 33.6102 169.135 32.9317 168.495 32.2524L156.846 43.5459V44.4512Z" fill="black"/>
<path d="M174.012 25.0423C171.975 27.1057 169.94 29.1686 167.903 31.232C164.673 34.5051 161.443 37.7782 158.213 41.0513C157.47 41.8038 156.727 42.5559 155.985 43.3085C155.279 44.0236 156.381 45.1276 157.088 44.4117C159.124 42.3483 161.16 40.2854 163.197 38.222C166.427 34.9489 169.657 31.6759 172.887 28.4028C173.63 27.6502 174.372 26.8981 175.115 26.1456C175.821 25.4304 174.718 24.3264 174.012 25.0423Z" fill="#263238"/>
<path d="M156.084 22.6844C156.024 22.6844 155.976 19.3522 155.976 15.2426C155.976 11.1317 156.024 7.79993 156.084 7.79993C156.144 7.79993 156.192 11.1317 156.192 15.2426C156.192 19.3522 156.144 22.6844 156.084 22.6844Z" fill="#263238"/>
<path d="M167.328 14.919C167.376 14.9548 166.186 16.6259 164.671 18.6505C163.155 20.676 161.887 22.2885 161.839 22.2527C161.791 22.2169 162.981 20.5462 164.497 18.5207C166.013 16.4957 167.281 14.8832 167.328 14.919Z" fill="#263238"/>
<path d="M144.704 14.5749C144.757 14.5462 145.79 16.3184 147.011 18.5328C148.233 20.7484 149.18 22.5671 149.128 22.5958C149.075 22.6245 148.043 20.8528 146.821 18.6376C145.599 16.4232 144.652 14.6036 144.704 14.5749Z" fill="#263238"/>
<path d="M145.593 26.4403L148.915 26.0526C150.254 27.4121 151.973 28.4305 153.962 28.9193C159.682 30.3249 165.458 26.8276 166.864 21.108C168.27 15.388 164.772 9.61188 159.053 8.20622C153.333 6.80055 147.557 10.2979 146.151 16.0174C145.564 18.4057 145.834 20.8027 146.762 22.8885L146.758 22.8839L145.593 26.4403Z" fill="white"/>
<path d="M145.593 26.4404C145.593 26.4404 145.611 26.3685 145.658 26.2183C145.708 26.0569 145.777 25.8327 145.868 25.5423C146.062 24.9266 146.345 24.031 146.712 22.8691L146.738 22.7859L146.794 22.8537C146.794 22.8537 146.797 22.8566 146.798 22.8583L146.717 22.9082C146.142 21.6306 145.634 19.8269 145.806 17.6824C145.882 16.6149 146.152 15.478 146.631 14.3502C147.108 13.2225 147.81 12.1034 148.755 11.1175C149.698 10.132 150.882 9.28168 152.246 8.69138C153.607 8.09983 155.149 7.77119 156.74 7.80197C159.916 7.83317 163.272 9.46348 165.284 12.3326C166.302 13.7911 166.98 15.4622 167.179 17.1641C167.397 18.8617 167.201 20.5632 166.675 22.0953C166.153 23.6328 165.27 24.9803 164.216 26.0598C163.159 27.141 161.918 27.9509 160.64 28.4805C158.07 29.5438 155.422 29.4797 153.384 28.8337C151.32 28.1993 149.836 27.0698 148.882 26.0856L148.919 26.0989C147.838 26.2125 147.004 26.3002 146.428 26.361C146.158 26.388 145.949 26.4092 145.798 26.4242C145.659 26.4371 145.593 26.4404 145.593 26.4404C145.593 26.4404 145.671 26.4267 145.816 26.4072C145.97 26.3868 146.183 26.3585 146.457 26.3223C147.024 26.2495 147.845 26.1438 148.909 26.0074L148.931 26.0045L148.947 26.0207C149.907 26.9841 151.385 28.0857 153.426 28.6972C155.442 29.3204 158.048 29.3674 160.571 28.3124C161.825 27.7866 163.041 26.9871 164.076 25.9225C165.108 24.8596 165.971 23.5363 166.48 22.0271C166.993 20.5228 167.182 18.8551 166.967 17.1919C166.771 15.5242 166.105 13.8872 165.108 12.4583C163.136 9.64735 159.851 8.04658 156.736 8.00997C155.176 7.97711 153.663 8.29576 152.324 8.87276C150.984 9.4485 149.818 10.2797 148.887 11.2448C147.954 12.2099 147.259 13.3073 146.784 14.4151C146.307 15.5233 146.032 16.642 145.951 17.6949C145.767 19.809 146.252 21.5961 146.805 22.8699L146.945 23.1919L146.724 22.9198C146.723 22.9182 146.72 22.9153 146.72 22.9153L146.803 22.8999C146.416 24.0397 146.117 24.9175 145.912 25.5215C145.811 25.8148 145.733 26.0411 145.677 26.2041C145.625 26.3576 145.593 26.4404 145.593 26.4404Z" fill="#263238"/>
<path d="M151.261 18.9682L152.575 17.5621L155.278 19.8043L160.257 14.6747L161.567 15.9917L155.172 22.4339L151.261 18.9682Z" fill="#2DC38D"/>
<path d="M178.16 27.7393C178.921 26.8936 179.929 26.1094 180.18 25.9542C180.658 25.6597 181.393 25.4925 181.393 25.4925C181.393 25.4925 187.578 23.786 188.878 23.6708C190.178 23.5556 190.047 24.6185 188.838 24.8186C187.629 25.0187 185.061 26.0587 185.061 26.0587C185.061 26.0587 185.592 26.1498 185.628 26.6997C185.665 27.2493 185.282 27.3678 185.282 27.3678C185.282 27.3678 185.623 27.81 185.624 28.1037C185.625 28.3974 185.325 28.8267 185.325 28.8267C185.325 28.8267 185.775 29.1924 185.632 29.6038C185.49 30.0152 184.852 30.5931 184.852 30.5931C184.852 30.5931 182.208 32.2654 181.638 32.3116C181.068 32.3577 180.407 32.4829 180.407 32.4829L179.477 33.156L176.981 29.2398C176.981 29.2406 177.352 28.637 178.16 27.7393Z" fill="#FFBF9D"/>
<path d="M185.065 26.0346C185.069 26.0534 184.83 26.1178 184.531 26.1786C184.232 26.2393 183.986 26.2734 183.981 26.2547C183.977 26.236 184.216 26.1715 184.515 26.1108C184.814 26.05 185.06 26.0159 185.065 26.0346Z" fill="#FF9A6C"/>
<path d="M185.323 27.3591C185.328 27.3783 185.092 27.4436 184.804 27.5301C184.516 27.6158 184.284 27.6898 184.274 27.672C184.265 27.6553 184.486 27.5513 184.779 27.4644C185.072 27.377 185.319 27.3408 185.323 27.3591Z" fill="#FF9A6C"/>
<path d="M185.473 28.6137C185.481 28.6324 185.224 28.7277 184.914 28.8562C184.604 28.984 184.357 29.0967 184.345 29.0801C184.333 29.0647 184.565 28.9236 184.879 28.7938C185.194 28.6636 185.466 28.5962 185.473 28.6137Z" fill="#FF9A6C"/>
<path d="M132.273 88.7191C132.273 88.7191 133.373 78.6149 135.739 77.4917C138.105 76.3681 141.385 75.6313 142.279 77.1435C143.174 78.6556 144.105 80.9345 144.462 83.3519C144.819 85.7692 144.615 89.4633 144.615 89.4633L141.919 89.163C141.919 89.163 142.051 79.0933 141.232 77.6044C140.413 76.1155 136.26 77.312 135.806 79.1053C135.351 80.8987 134.354 88.9466 134.354 88.9466L132.273 88.7191Z" fill="#455A64"/>
<path d="M122.881 102.963C123.007 98.7947 123.406 89.6073 123.584 85.5663C123.633 84.4643 124.544 83.5986 125.647 83.6048L150.43 83.7533C151.536 83.76 152.438 84.6419 152.469 85.7472L152.954 102.863C152.986 104.015 152.063 104.968 150.911 104.973L124.941 105.078C123.779 105.083 122.846 104.124 122.881 102.963Z" fill="#455A64"/>
<path d="M150.747 90.0333C150.747 90.0333 150.75 90.0932 150.751 90.2168C150.752 90.3482 150.752 90.5317 150.753 90.7688C150.751 91.2651 150.749 91.984 150.746 92.9058C150.735 94.7803 150.718 97.4797 150.699 100.812C150.697 101.022 150.696 101.233 150.694 101.447C150.702 101.659 150.666 101.903 150.549 102.103C150.433 102.304 150.256 102.475 150.038 102.571C149.823 102.679 149.566 102.678 149.347 102.673C148.438 102.671 147.493 102.671 146.513 102.669C144.555 102.666 142.462 102.662 140.261 102.659C138.059 102.654 135.748 102.648 133.352 102.642C132.154 102.639 130.935 102.636 129.698 102.632C129.079 102.631 128.456 102.629 127.828 102.627L127.357 102.625C127.205 102.622 127.038 102.637 126.866 102.594C126.53 102.517 126.234 102.281 126.09 101.965C126.027 101.831 125.991 101.684 125.984 101.537C125.979 101.388 125.988 101.261 125.989 101.123C125.995 100.851 126.001 100.581 126.006 100.311C126.018 99.7706 126.029 99.2344 126.04 98.7011C126.063 97.6349 126.085 96.5828 126.107 95.5474C126.152 93.477 126.196 91.4739 126.238 89.5616L126.24 89.4705L126.33 89.4759C133.451 89.9098 139.559 90.0283 143.882 90.0475C146.044 90.0575 147.759 90.0462 148.935 90.0371C149.52 90.0338 149.974 90.0308 150.289 90.0292C150.436 90.0292 150.549 90.0296 150.633 90.0296C150.71 90.0308 150.748 90.0317 150.747 90.0333C150.745 90.035 150.703 90.0375 150.624 90.0412C150.538 90.0446 150.423 90.0491 150.275 90.055C149.963 90.0645 149.515 90.0778 148.937 90.0953C147.761 90.1228 146.045 90.1506 143.883 90.156C139.558 90.1677 133.446 90.0724 126.321 89.651L126.413 89.5658C126.374 91.4781 126.333 93.4811 126.291 95.552C126.27 96.5874 126.248 97.6395 126.226 98.7057C126.215 99.2386 126.204 99.7752 126.192 100.315C126.186 100.585 126.181 100.856 126.175 101.127C126.171 101.405 126.142 101.663 126.259 101.888C126.379 102.152 126.628 102.35 126.908 102.415C127.044 102.451 127.197 102.438 127.358 102.441L127.83 102.443C128.457 102.445 129.08 102.447 129.699 102.449C130.936 102.453 132.155 102.458 133.353 102.462C135.749 102.471 138.06 102.48 140.262 102.489C142.464 102.499 144.556 102.508 146.515 102.517C147.494 102.522 148.439 102.526 149.349 102.531C149.581 102.536 149.789 102.538 149.98 102.445C150.171 102.361 150.328 102.212 150.43 102.037C150.534 101.856 150.566 101.661 150.56 101.448C150.563 101.235 150.565 101.026 150.568 100.818C150.618 97.5009 150.658 94.8136 150.687 92.9474C150.703 92.0189 150.716 91.2946 150.725 90.795C150.731 90.5533 150.735 90.3657 150.738 90.2313C150.741 90.1024 150.747 90.0333 150.747 90.0333Z" fill="#263238"/>
<path d="M143.625 101.029C143.625 101.017 143.778 101.026 144.059 100.97C144.333 100.907 144.75 100.761 145.132 100.377C145.517 99.9973 145.802 99.355 145.736 98.575C145.738 97.7954 145.742 96.9106 145.746 95.9338C145.748 95.4442 145.751 94.9317 145.754 94.398C145.788 93.8692 145.664 93.3234 145.313 92.8829C144.974 92.4432 144.431 92.1395 143.841 92.1012C143.239 92.0833 142.6 92.0887 141.955 92.0812C139.367 92.06 136.523 92.0363 133.537 92.0118C132.82 92.0039 132.125 92.3932 131.77 92.996C131.585 93.2914 131.489 93.6346 131.474 93.9761C131.469 94.3331 131.465 94.6875 131.46 95.0386C131.453 95.7429 131.446 96.4343 131.439 97.1115C131.436 97.4501 131.432 97.7854 131.428 98.1166C131.431 98.446 131.404 98.7822 131.443 99.085C131.523 99.704 131.901 100.251 132.407 100.554C132.658 100.709 132.938 100.806 133.222 100.841C133.502 100.87 133.806 100.858 134.09 100.866C135.24 100.88 136.312 100.894 137.292 100.906C139.239 100.936 140.819 100.961 141.926 100.978C142.464 100.991 142.886 101 143.186 101.007C143.322 101.012 143.43 101.016 143.514 101.019C143.587 101.023 143.625 101.026 143.625 101.029C143.625 101.033 143.587 101.036 143.514 101.038C143.43 101.039 143.322 101.041 143.186 101.044C142.885 101.045 142.463 101.047 141.925 101.05C140.818 101.047 139.238 101.042 137.29 101.037C136.31 101.031 135.239 101.026 134.089 101.019C133.798 101.012 133.515 101.028 133.203 100.998C132.897 100.962 132.594 100.858 132.322 100.693C131.775 100.368 131.363 99.7789 131.274 99.1079C131.23 98.768 131.258 98.4465 131.254 98.1141C131.256 97.7829 131.259 97.4476 131.261 97.109C131.267 96.4318 131.272 95.74 131.278 95.0361C131.282 94.6833 131.286 94.3272 131.29 93.9682C131.306 93.5963 131.411 93.2211 131.612 92.8991C131.998 92.2422 132.757 91.8162 133.539 91.8254C136.524 91.8554 139.368 91.8836 141.957 91.9094C142.606 91.9198 143.23 91.9165 143.853 91.9377C144.49 91.9818 145.073 92.3134 145.434 92.7872C145.809 93.2552 145.937 93.865 145.897 94.3984C145.89 94.9321 145.884 95.4446 145.877 95.9342C145.863 96.911 145.851 97.7958 145.84 98.5754C145.837 98.7693 145.836 98.9569 145.818 99.1424C145.79 99.3246 145.753 99.4994 145.688 99.657C145.566 99.9744 145.382 100.233 145.183 100.427C144.78 100.817 144.347 100.954 144.066 101.007C143.778 101.052 143.625 101.029 143.625 101.029Z" fill="#263238"/>
<g opacity="0.3">
<path d="M126.757 102.512C134.098 104.742 142.096 104.761 149.448 102.565L126.757 102.512Z" fill="black"/>
</g>
<path d="M140.879 94.6583L137.799 94.63C137.383 94.6263 137.049 94.2864 137.054 93.8708L137.055 93.7157C137.059 93.3001 137.399 92.9665 137.814 92.9706L140.894 92.9989C141.31 93.0026 141.643 93.3425 141.64 93.7577L141.638 93.9129C141.635 94.3284 141.295 94.6621 140.879 94.6583Z" fill="#E0E0E0"/>
<path d="M140.673 73.2901C140.673 73.2901 141.509 74.0331 141.801 74.546C142.093 75.0594 142.61 77.2887 142.61 77.2887C142.61 77.2887 142.198 77.6615 141.46 76.4858C140.721 75.3098 140.505 74.7187 140.505 74.7187L140.673 73.2901Z" fill="#FFBF9D"/>
<path d="M137.026 68.8639L138.009 70.5982L140.72 73.3372L141.739 77.4007C141.847 77.83 141.808 78.2888 141.601 78.6798C141.526 78.8209 141.435 78.9374 141.327 78.9823C141.023 79.1092 140.165 78.6699 140.165 78.6699C140.165 78.6699 139.54 79.447 138.872 78.9885C138.872 78.9885 137.909 79.4848 137.374 79.0035C137.374 79.0035 136.763 79.4877 136.308 79.1861C135.853 78.8849 134.551 76.9859 134.551 76.9859L132.805 70.7234L137.026 68.8639Z" fill="#FFBF9D"/>
<path d="M130.638 34.6033C130.638 34.6033 128.917 35.7132 128.823 38.0012C128.752 39.7088 127.473 51.2807 127.585 54.3945C127.697 57.5082 132.999 72.2442 132.999 72.2442L138.853 70.482L133.791 54.0047L134.292 43.6621L130.638 34.6033Z" fill="#EBEBEB"/>
<path d="M140.903 9.15403C141.188 8.55874 141.888 8.18808 142.546 8.28459C143.292 7.65518 144.492 7.63646 145.258 8.24216C145.825 7.8819 146.584 7.84113 147.187 8.13899C147.789 8.43643 148.215 9.06168 148.267 9.72728C148.936 9.5979 149.671 9.93403 150.005 10.5235C150.34 11.113 150.25 11.9104 149.791 12.4109C150.532 12.6218 151.042 13.4351 150.906 14.1872C150.769 14.9393 150.004 15.5251 149.235 15.4656L141.26 10.967C140.769 10.5218 140.617 9.74974 140.903 9.15403Z" fill="#263238"/>
<path d="M150.253 24.104C150.213 22.3888 149.844 18.8632 149.472 15.6763C149.071 12.2497 146.085 9.70292 142.609 9.82315L142.264 9.83521C138.547 10.1797 136.765 13.5023 137.215 17.1772L138.263 28.7636L145.454 35.2491L147.021 30.6656L146.772 28.3314C146.772 28.3314 150.333 27.6554 150.253 24.104Z" fill="#FFBF9D"/>
<path d="M146.801 28.3252C146.801 28.3252 144.52 28.5406 142.063 27.1258C142.063 27.1258 143.256 29.6426 146.816 29.1996L146.801 28.3252Z" fill="#FF9A6C"/>
<path d="M148.542 18.7617C148.561 19.0292 148.348 19.2655 148.067 19.2901C147.786 19.3146 147.543 19.1187 147.524 18.8512C147.505 18.5837 147.718 18.347 147.999 18.3224C148.279 18.2979 148.523 18.4947 148.542 18.7617Z" fill="#263238"/>
<path d="M148.763 17.4397C148.702 17.5079 148.305 17.2371 147.754 17.2575C147.204 17.2699 146.811 17.5645 146.749 17.5C146.719 17.4713 146.779 17.3498 146.95 17.2167C147.119 17.0844 147.41 16.9513 147.752 16.9409C148.095 16.9309 148.388 17.0461 148.558 17.1684C148.732 17.2912 148.793 17.4089 148.763 17.4397Z" fill="#263238"/>
<path d="M143.577 19.0289C143.596 19.2963 143.383 19.5326 143.102 19.5572C142.821 19.5821 142.578 19.3858 142.559 19.1183C142.54 18.8512 142.753 18.6145 143.034 18.5896C143.315 18.565 143.558 18.7618 143.577 19.0289Z" fill="#263238"/>
<path d="M143.359 17.728C143.298 17.7962 142.901 17.5254 142.351 17.5462C141.801 17.5586 141.408 17.8536 141.346 17.7887C141.315 17.76 141.375 17.6385 141.547 17.5058C141.715 17.3735 142.006 17.2404 142.349 17.23C142.692 17.22 142.984 17.3353 143.154 17.4576C143.327 17.5799 143.389 17.6972 143.359 17.728Z" fill="#263238"/>
<path d="M145.498 21.705C145.494 21.6738 145.834 21.6035 146.385 21.5141C146.525 21.4949 146.657 21.4625 146.678 21.3668C146.707 21.2649 146.643 21.1168 146.57 20.957C146.426 20.6247 146.275 20.276 146.117 19.9108C145.487 18.4203 145.026 17.1931 145.087 17.1685C145.147 17.144 145.707 18.3321 146.337 19.8222C146.489 20.1899 146.634 20.5402 146.773 20.8755C146.831 21.0319 146.929 21.2083 146.865 21.4196C146.83 21.5253 146.73 21.6043 146.641 21.6314C146.552 21.6617 146.473 21.6659 146.403 21.6726C145.847 21.7212 145.501 21.7358 145.498 21.705Z" fill="#263238"/>
<path d="M143.892 22.138C143.981 22.1297 144.003 22.7217 144.529 23.1244C145.054 23.5283 145.688 23.4401 145.696 23.5225C145.705 23.5595 145.558 23.6423 145.29 23.6589C145.026 23.6772 144.639 23.6065 144.317 23.3602C143.996 23.1131 143.85 22.7741 143.821 22.5316C143.789 22.2849 143.851 22.1359 143.892 22.138Z" fill="#263238"/>
<path d="M143.426 15.5852C143.377 15.7353 142.826 15.6842 142.183 15.7836C141.538 15.8701 141.024 16.0756 140.934 15.9454C140.894 15.883 140.979 15.7403 141.185 15.5893C141.388 15.4387 141.717 15.2911 142.103 15.2349C142.489 15.1796 142.846 15.2282 143.084 15.3152C143.324 15.4017 143.447 15.514 143.426 15.5852Z" fill="#263238"/>
<path d="M148.505 15.8676C148.413 15.9949 148.029 15.8793 147.573 15.8889C147.117 15.8826 146.735 16.0012 146.642 15.8747C146.6 15.8131 146.657 15.6867 146.821 15.564C146.983 15.4412 147.258 15.336 147.571 15.3348C147.885 15.3339 148.16 15.4367 148.323 15.5581C148.489 15.68 148.546 15.8061 148.505 15.8676Z" fill="#263238"/>
<path d="M149.07 14.0601C149.07 14.0601 148.048 11.8695 146.949 11.3882C145.618 10.8054 145.105 12.2493 143.845 11.9464C142.586 11.6436 141.316 11.0845 140.075 12.0841C138.716 13.1786 139.396 13.8904 139.365 15.4683C139.24 21.8664 138.127 23.713 137.687 20.7166C137.639 20.3883 136.708 20.1579 136.522 18.7705C136.282 16.9713 136.134 14.7815 136.496 13.4861C136.8 12.3945 137.395 11.627 138.48 10.7658C140.192 9.40677 142.605 9.29528 144.25 9.40219C145.895 9.50952 149.122 11.2713 149.07 14.0601Z" fill="#263238"/>
<path d="M137.911 20.6126C137.87 20.0655 137.379 19.6491 136.83 19.7202C136.165 19.8064 135.435 20.2078 135.527 21.5744C135.69 23.9988 138.111 23.3357 138.111 23.2662C138.11 23.2184 137.989 21.6264 137.911 20.6126Z" fill="#FFBF9D"/>
<path d="M137.517 22.3893C137.506 22.3822 137.476 22.4218 137.407 22.4592C137.339 22.4958 137.22 22.5258 137.089 22.4867C136.824 22.4097 136.579 22.0174 136.538 21.5814C136.517 21.3614 136.549 21.148 136.617 20.9691C136.68 20.7869 136.787 20.6554 136.915 20.6238C137.042 20.5855 137.14 20.6567 137.174 20.7228C137.212 20.7885 137.199 20.8376 137.213 20.8414C137.22 20.8472 137.262 20.7973 137.236 20.6983C137.223 20.6508 137.19 20.5955 137.129 20.5527C137.067 20.509 136.98 20.4907 136.89 20.5065C136.702 20.5319 136.544 20.7153 136.47 20.9117C136.386 21.1101 136.344 21.3497 136.368 21.5972C136.417 22.0848 136.7 22.5253 137.06 22.6031C137.235 22.636 137.375 22.5753 137.445 22.5133C137.517 22.448 137.526 22.3931 137.517 22.3893Z" fill="#FF9A6C"/>
<path d="M137.795 15.9085C138.12 16.1128 138.463 16.3228 138.848 16.3474C139.232 16.3719 139.662 16.1386 139.714 15.76C139.737 15.5903 139.689 15.3956 139.796 15.2612C139.924 15.101 140.172 15.141 140.378 15.1555C141.093 15.2059 141.804 14.6817 141.961 13.9887C142.152 14.252 142.575 14.2254 142.843 14.0407C143.111 13.8555 143.278 13.5623 143.485 13.3106C143.691 13.0593 143.985 12.8305 144.31 12.8646C144.492 12.8838 144.665 12.9849 144.846 12.9624C145.166 12.9229 145.31 12.5443 145.348 12.2265C145.385 11.9082 145.41 11.538 145.677 11.3566C145.923 11.1886 146.253 11.2693 146.551 11.3025C146.848 11.3354 147.227 11.2535 147.293 10.9639C147.328 10.8121 147.257 10.6561 147.168 10.5275C146.766 9.94597 145.926 9.7101 145.276 9.99714C145.009 9.20341 144.23 8.60562 143.389 8.54655C142.547 8.48789 141.692 8.9717 141.314 9.7205C140.781 9.27289 140.022 9.10357 139.347 9.28121C138.671 9.45884 138.097 9.97842 137.857 10.629C137.256 10.4943 136.585 10.7459 136.225 11.2414C135.865 11.7369 135.836 12.4474 136.155 12.9699C135.723 13.2345 135.362 13.6808 135.371 14.1838C135.379 14.6863 135.89 15.1697 136.374 15.0208C136.19 15.4185 136.37 15.9439 136.76 16.1494C137.149 16.3545 137.689 16.208 137.918 15.834" fill="#263238"/>
<path d="M136.195 15.0221C136.187 15.0159 136.158 15.2276 136.364 15.4834C136.467 15.6045 136.638 15.7285 136.865 15.7563C137.086 15.7855 137.355 15.7226 137.555 15.5313L137.451 15.5196C137.58 15.7243 137.747 15.9319 137.961 16.1079C138.099 16.2202 138.251 16.3146 138.416 16.3674C138.579 16.4253 138.762 16.4253 138.911 16.3957C139.22 16.3512 139.484 16.1765 139.603 15.9697C139.726 15.7672 139.761 15.5816 139.783 15.4581C139.804 15.3328 139.804 15.263 139.795 15.2613C139.785 15.2592 139.766 15.3266 139.73 15.4456C139.693 15.5633 139.642 15.7393 139.521 15.9148C139.301 16.2709 138.551 16.4748 138.051 15.9997C137.852 15.8362 137.691 15.6403 137.565 15.4485L137.52 15.3786L137.461 15.4368C137.299 15.5983 137.069 15.6615 136.877 15.6436C136.683 15.6274 136.527 15.53 136.426 15.4273C136.222 15.2135 136.217 15.015 136.195 15.0221Z" fill="#455A64"/>
<path d="M143.063 22.5208C143.103 22.5196 143.109 22.2633 143.309 22.0449C143.502 21.8195 143.758 21.7808 143.754 21.7417C143.754 21.7246 143.684 21.7063 143.574 21.7292C143.464 21.7508 143.319 21.8236 143.204 21.9526C143.089 22.082 143.035 22.2346 143.027 22.3453C143.019 22.4568 143.046 22.5225 143.063 22.5208Z" fill="#FF9A6C"/>
<path d="M142.822 21.8578C142.857 21.8774 142.943 21.79 143.071 21.728C143.197 21.6623 143.319 21.6456 143.324 21.6061C143.333 21.5691 143.176 21.5179 143.007 21.6032C142.839 21.6872 142.787 21.8428 142.822 21.8578Z" fill="#FF9A6C"/>
<path d="M147.302 8.20133C147.313 8.17762 147.566 8.33612 147.764 8.73839C147.863 8.93599 147.958 9.1885 147.983 9.48677C148.015 9.7838 147.938 10.1328 147.73 10.4182C147.518 10.7015 147.23 10.882 146.967 11.0056C146.701 11.1308 146.452 11.2123 146.244 11.2777C145.827 11.4033 145.569 11.4732 145.56 11.452C145.551 11.4291 145.798 11.3172 146.204 11.1628C146.405 11.0834 146.645 10.991 146.895 10.8637C147.145 10.7377 147.404 10.5655 147.59 10.3175C147.771 10.0658 147.844 9.76882 147.823 9.498C147.809 9.22594 147.732 8.983 147.652 8.78956C147.492 8.39477 147.288 8.21881 147.302 8.20133Z" fill="#E0E0E0"/>
<path d="M148.856 9.79711C148.876 9.79836 148.891 9.95104 148.825 10.1877C148.761 10.4232 148.596 10.7335 148.318 10.9902C148.038 11.2456 147.713 11.3842 147.471 11.4291C147.228 11.4757 147.076 11.4482 147.076 11.4287C147.075 11.4012 147.222 11.3842 147.44 11.3114C147.657 11.2402 147.943 11.0975 148.2 10.8637C148.455 10.6287 148.621 10.3571 148.71 10.1474C148.799 9.93731 148.828 9.79379 148.856 9.79711Z" fill="#E0E0E0"/>
<path d="M151.417 33.0641L154.937 61.1882C155.108 62.5556 153.87 65.0433 152.533 65.3806L134.737 67.3192C133.658 67.506 132.782 66.6761 132.655 65.5886C132.209 61.7727 131.904 53.758 131.354 48.536C130.748 42.7798 129.643 35.4607 130.982 34.4211C133.79 32.2392 137.797 30.2532 137.797 30.2532L138.095 27.639C138.095 27.639 146.031 28.5542 147.382 29.7257L148.012 32.2529L151.417 33.0641Z" fill="#EBEBEB"/>
<path d="M148.6 32.5687L164.927 34.1129L177.623 27.8924L180.309 33.4693L178.365 34.4798C175.235 36.4774 169.526 40.669 167.149 41.719C163.816 43.1908 147.077 41.2914 147.077 41.2914L148.6 32.5687Z" fill="#EBEBEB"/>
<path d="M153.226 41.9807C153.227 41.9566 152.832 41.984 152.15 41.8268C151.478 41.6691 150.499 41.2826 149.619 40.3957C148.747 39.5238 148.009 38.131 147.913 36.4899C147.876 35.677 148.034 34.8055 148.437 34.0168C148.636 33.6241 148.903 33.2505 149.307 33.0758C149.707 32.9023 150.19 32.8761 150.654 32.9111C154.479 33.1927 157.943 33.5342 160.449 33.7472C161.684 33.8533 162.692 33.9402 163.419 34.0026C163.752 34.028 164.02 34.0488 164.227 34.0646C164.411 34.0779 164.509 34.0813 164.51 34.0738C164.511 34.0663 164.415 34.0484 164.231 34.0214C164.025 33.9951 163.759 33.961 163.427 33.919C162.702 33.8396 161.696 33.7297 160.464 33.595C157.959 33.3429 154.504 32.9776 150.666 32.6951C150.178 32.6615 149.683 32.681 149.219 32.8799C148.749 33.0845 148.451 33.5151 148.248 33.9207C147.828 34.7494 147.67 35.655 147.714 36.5007C147.824 38.1997 148.601 39.6203 149.512 40.5051C150.431 41.4033 151.444 41.7752 152.133 41.91C152.481 41.979 152.757 41.9957 152.943 41.9982C153.129 41.9961 153.226 41.9869 153.226 41.9807Z" fill="#263238"/>
<path d="M137.796 30.2532C137.792 30.2869 138.369 30.3742 139.292 30.5518C140.216 30.7274 141.481 31.0186 142.878 31.3585C144.275 31.6983 145.555 31.9679 146.489 32.1052C146.957 32.1738 147.336 32.2213 147.6 32.2408C147.863 32.2629 148.009 32.2679 148.011 32.2529C148.015 32.2192 147.439 32.1318 146.516 31.9542C145.592 31.7786 144.326 31.4874 142.929 31.1476C141.532 30.8077 140.253 30.5385 139.318 30.4008C138.85 30.3322 138.471 30.2848 138.208 30.2652C137.944 30.2436 137.798 30.2386 137.796 30.2532Z" fill="#263238"/>
<path d="M130.472 37.3402C130.464 37.341 130.47 37.4479 130.488 37.6505C130.51 37.8735 130.539 38.1676 130.576 38.5349C130.657 39.3261 130.771 40.4306 130.91 41.7855C131.181 44.5307 131.513 48.328 131.743 52.5304C131.86 54.632 131.942 56.6359 131.998 58.4588C132.022 59.3694 132.044 60.2355 132.065 61.0476C132.084 61.8575 132.083 62.6138 132.129 63.3073C132.18 63.9987 132.273 64.6248 132.434 65.1556C132.591 65.6868 132.811 66.1195 133.044 66.4331C133.271 66.753 133.514 66.9431 133.677 67.0646C133.851 67.174 133.943 67.2277 133.947 67.2214C133.972 67.1927 133.548 67.0188 133.112 66.384C132.896 66.0712 132.694 65.6452 132.55 65.1223C132.403 64.5998 132.323 63.982 132.282 63.2977C132.246 62.613 132.255 61.8567 132.244 61.0447C132.234 60.233 132.222 59.3657 132.197 58.4534C132.151 56.6284 132.075 54.6225 131.958 52.5187C131.728 48.3117 131.372 44.5128 131.062 41.7697C130.906 40.3982 130.765 39.2899 130.659 38.5253C130.606 38.1601 130.563 37.8676 130.53 37.6455C130.5 37.4442 130.479 37.3393 130.472 37.3402Z" fill="#263238"/>
<path d="M166.749 106.485L163.562 113.591C163.562 113.591 171.952 116.876 172.019 118.437L155.693 118.142L155.713 116.778L159.313 105.055L166.749 106.485Z" fill="#455A64"/>
<path d="M158.778 112.315C158.461 112.396 158.236 112.747 158.303 113.068C158.371 113.388 158.726 113.62 159.045 113.545C159.364 113.47 159.647 113.056 159.544 112.745C159.441 112.434 159.009 112.185 158.717 112.335" fill="#E0E0E0"/>
<path d="M155.693 118.141L155.712 116.778L171.389 117.597C171.389 117.597 172.111 117.926 172.019 118.437L155.693 118.141Z" fill="#263238"/>
<path d="M163.828 113.513C163.824 113.593 163.425 113.622 163.028 113.871C162.625 114.11 162.416 114.452 162.344 114.418C162.27 114.402 162.398 113.927 162.884 113.634C163.366 113.336 163.847 113.44 163.828 113.513Z" fill="#263238"/>
<path d="M165.528 114.252C165.545 114.33 165.197 114.459 164.92 114.791C164.634 115.116 164.559 115.479 164.479 115.474C164.404 115.485 164.357 115.017 164.71 114.611C165.058 114.201 165.528 114.176 165.528 114.252Z" fill="#263238"/>
<path d="M166.463 116.319C166.39 116.335 166.287 115.935 166.499 115.502C166.709 115.067 167.088 114.902 167.121 114.969C167.164 115.035 166.918 115.265 166.749 115.623C166.572 115.977 166.543 116.313 166.463 116.319Z" fill="#263238"/>
<path d="M164.423 111.66C164.389 111.732 164.025 111.616 163.573 111.638C163.122 111.651 162.768 111.796 162.728 111.727C162.683 111.669 163.03 111.38 163.562 111.361C164.094 111.338 164.463 111.598 164.423 111.66Z" fill="#263238"/>
<path d="M138.038 123.853L137.674 137.405L144.801 137.385L145.183 124.162L138.038 123.853Z" fill="#455A64"/>
<path d="M141.213 136.718C141.272 136.719 141.362 133.83 141.413 130.265C141.464 126.7 141.457 123.809 141.398 123.809C141.338 123.808 141.249 126.697 141.197 130.262C141.146 133.827 141.153 136.718 141.213 136.718Z" fill="#263238"/>
<path d="M144.923 133.159C144.934 133.151 144.875 133.045 144.747 132.867C144.619 132.689 144.415 132.444 144.128 132.173C143.84 131.904 143.466 131.611 142.995 131.375C142.529 131.136 141.958 130.961 141.344 130.953C140.112 130.928 139.062 131.507 138.539 132.097C138.267 132.388 138.098 132.663 138 132.86C137.904 133.058 137.868 133.174 137.88 133.179C137.918 133.202 138.101 132.739 138.648 132.204C139.178 131.667 140.173 131.146 141.342 131.169C142.507 131.189 143.453 131.8 144.027 132.288C144.611 132.786 144.892 133.183 144.923 133.159Z" fill="#263238"/>
<path d="M137.701 137.418L144.795 137.385L144.847 135.783L137.693 135.816L137.701 137.418Z" fill="#263238"/>
<path d="M137.473 66.451L152.248 65.1556L152.495 66.778C156.258 69.794 167.992 77.0024 174.048 82.9067C174.048 82.9067 176.285 86.0263 175.393 88.7727L165.924 110.242L156.282 108.019L162.166 89.7957L144.071 81.3455C140.553 80.0438 137.384 75.6034 136.635 73.0579C135.995 70.881 137.378 69.2386 137.473 66.451Z" fill="#263238"/>
<path d="M149.881 83.5507L145.973 129.156L136.107 129.102C136.107 129.102 135.79 115.18 135.985 105.791C136.181 96.4034 135.041 77.3273 135.041 77.3273L149.881 83.5507Z" fill="#263238"/>
<path d="M137.473 66.451L132.732 66.9731C132.732 66.9731 132.263 76.4463 132.607 77.6464C132.95 78.8466 135.509 83.6023 135.509 83.6023L149.536 87.6853V77.0041L137.473 66.451Z" fill="#263238"/>
<path d="M138.722 76.1492C138.716 76.1521 138.756 76.2399 138.839 76.4042C138.928 76.5648 139.032 76.8181 139.227 77.1093C139.583 77.7088 140.182 78.5445 141.115 79.3861C142.039 80.2347 143.288 81.0734 144.756 81.833C146.221 82.6022 147.893 83.3069 149.616 84.1098C153.066 85.6906 156.189 87.1208 158.473 88.167C159.595 88.6708 160.51 89.0818 161.166 89.3763C161.472 89.509 161.717 89.6151 161.903 89.6958C162.072 89.767 162.163 89.8015 162.166 89.7952C162.168 89.789 162.084 89.7428 161.92 89.66C161.738 89.5706 161.498 89.4533 161.199 89.3069C160.549 88.9986 159.643 88.568 158.532 88.0406C156.254 86.9806 153.139 85.5313 149.697 83.9297C147.972 83.1264 146.3 82.4271 144.84 81.6716C143.376 80.9249 142.134 80.1079 141.208 79.2825C140.275 78.4642 139.666 77.6514 139.292 77.0686C138.914 76.4857 138.742 76.1384 138.722 76.1492Z" fill="#455A64"/>
<path d="M168.438 88.9765C168.443 88.9528 168.056 88.8542 167.417 88.7793C166.779 88.7049 165.883 88.6645 164.904 88.7764C163.924 88.8829 163.059 89.1233 162.456 89.3488C161.854 89.5785 161.507 89.7756 161.516 89.7952C161.529 89.8251 161.896 89.6741 162.502 89.4811C163.108 89.2923 163.963 89.0776 164.926 88.9732C165.889 88.8634 166.77 88.8808 167.405 88.9191C168.041 88.9574 168.434 89.0069 168.438 88.9765Z" fill="#455A64"/>
<path d="M152.601 66.7626L132.657 68.6466L132.721 67.1848L152.248 65.1555L152.601 66.7626Z" fill="#455A64"/>
<path d="M148.377 67.3686C148.318 67.2513 148.175 65.5212 148.175 65.5212L147.089 65.6339L147.35 67.7497L148.377 67.3686Z" fill="#263238"/>
<path d="M137.917 68.4826C137.859 68.3653 137.715 66.6352 137.715 66.6352L136.63 66.7479L136.891 68.8637L137.917 68.4826Z" fill="#263238"/>
</g>
<defs>
<clipPath id="clip0_549_27325">
<rect width="312" height="143" fill="white" transform="matrix(-1 0 0 1 312 0)"/>
</clipPath>
</defs>
</svg>
