<svg width="100" height="100" viewBox="0 0 100 100" fill="none" xmlns="http://www.w3.org/2000/svg">
<path d="M73.3501 26.86H26.4501C25.7156 26.86 25.1201 27.4554 25.1201 28.19V97.59C25.1201 98.3245 25.7156 98.92 26.4501 98.92H73.3501C74.0847 98.92 74.6801 98.3245 74.6801 97.59V28.19C74.6801 27.4554 74.0847 26.86 73.3501 26.86Z" fill="#8AA8F7"/>
<path d="M72.3502 30.74H27.4502V92.37H72.3502V30.74Z" fill="#CDDCF8"/>
<path d="M67.1901 35.34H32.6001V87.46H67.1901V35.34Z" fill="#F4F9FF"/>
<path d="M67.1901 35.34H32.6001V38.52H67.1901V35.34Z" fill="#E1E7FF"/>
<path d="M35.3799 37.0099C35.3799 37.4099 35.0499 37.7399 34.6499 37.7399C34.2499 37.7399 33.9199 37.4099 33.9199 37.0099C33.9199 36.6099 34.2499 36.2799 34.6499 36.2799C35.0499 36.2799 35.3799 36.6099 35.3799 37.0099Z" fill="#FF735E"/>
<path d="M37.8301 37.0099C37.8301 37.4099 37.5001 37.7399 37.1001 37.7399C36.7001 37.7399 36.3701 37.4099 36.3701 37.0099C36.3701 36.6099 36.7001 36.2799 37.1001 36.2799C37.5001 36.2799 37.8301 36.6099 37.8301 37.0099Z" fill="#FFAD36"/>
<path d="M40.2901 37.0099C40.2901 37.4099 39.9601 37.7399 39.5601 37.7399C39.1601 37.7399 38.8301 37.4099 38.8301 37.0099C38.8301 36.6099 39.1601 36.2799 39.5601 36.2799C39.9601 36.2799 40.2901 36.6099 40.2901 37.0099Z" fill="#6680E1"/>
<path d="M59.8302 55.88L56.9102 52.95L49.9002 59.9599L42.8902 52.95L39.9702 55.88L46.9702 62.88L39.9702 69.8899L42.8902 72.82L49.9002 65.8099L56.9102 72.82L59.8302 69.8899L52.8202 62.88L59.8302 55.88Z" fill="#E1E7FF"/>
<path d="M42.1099 14.09L35.7999 12.07L37.8399 5.70996L24.9499 1.57996L17.8599 23.72L37.0799 29.87L42.1199 14.12L42.0999 14.09H42.1099ZM29.5899 21.35C29.2799 21.5 28.9499 21.53 28.6099 21.42C28.2599 21.31 28.0099 21.1 27.8499 20.8C27.6899 20.5 27.6699 20.17 27.7799 19.83C27.8899 19.48 28.0999 19.23 28.3999 19.08C28.6999 18.93 29.0299 18.91 29.3799 19.02C29.7199 19.13 29.9699 19.34 30.1399 19.64C30.3099 19.95 30.3299 20.27 30.2299 20.61C30.1199 20.95 29.9099 21.2 29.5999 21.35H29.5899ZM33.8399 16.57C33.5499 16.78 33.1099 16.98 32.5299 17.16C32.1299 17.29 31.8399 17.4 31.6499 17.48C31.4599 17.56 31.2999 17.66 31.1799 17.8C31.0599 17.93 30.9599 18.11 30.8799 18.34L30.7999 18.59L28.4999 17.85L28.5899 17.58C28.8699 16.69 29.4499 16.11 30.3099 15.84L30.7299 15.71C31.1199 15.6 31.3999 15.5 31.5699 15.41C31.7399 15.32 31.8599 15.17 31.9199 14.97C32.0799 14.46 31.7399 14.08 30.8899 13.81C30.4999 13.68 30.0799 13.61 29.6199 13.58C29.1699 13.55 28.7199 13.58 28.2899 13.64L28.9299 11.63C29.8499 11.52 30.8099 11.63 31.7999 11.94C32.8699 12.28 33.6499 12.78 34.1299 13.43C34.6099 14.08 34.7299 14.8 34.4699 15.59C34.3299 16.03 34.1099 16.36 33.8199 16.57H33.8399Z" fill="#E1E7FF"/>
<path d="M38.7297 6.60999L37.2197 11.32L41.8897 12.82L38.7297 6.60999Z" fill="#E1E7FF"/>
<path d="M74.2402 11.58H60.9902V35.5H81.4202V18.46L74.2402 11.58Z" fill="#E84231"/>
<path d="M76.3475 33.2871H76.061L76.8895 31.0309H77.1715L78 33.2871H77.7135L77.0393 31.3878H77.0217L76.3475 33.2871ZM76.4532 32.4058H77.6078V32.6481H76.4532V32.4058Z" fill="white"/>
<path d="M74.4048 31.2733V31.0309H76.097V31.2733H75.3875V33.2871H75.1143V31.2733H74.4048Z" fill="white"/>
<path d="M72.7879 33.2871H72.5015L73.3299 31.0309H73.6119L74.4404 33.2871H74.154L73.4797 31.3878H73.4621L72.7879 33.2871ZM72.8937 32.4058H74.0482V32.6481H72.8937V32.4058Z" fill="white"/>
<path d="M71.2675 33.2871H70.5713V31.0309H71.2984C71.5173 31.0309 71.7045 31.0761 71.8602 31.1664C72.0159 31.256 72.1353 31.3849 72.2183 31.5531C72.3013 31.7205 72.3428 31.921 72.3428 32.1546C72.3428 32.3896 72.3009 32.592 72.2172 32.7616C72.1335 32.9305 72.0115 33.0605 71.8514 33.1516C71.6913 33.2419 71.4967 33.2871 71.2675 33.2871ZM70.8445 33.0447H71.2499C71.4365 33.0447 71.5911 33.0088 71.7137 32.9368C71.8364 32.8648 71.9278 32.7623 71.988 32.6294C72.0483 32.4965 72.0784 32.3382 72.0784 32.1546C72.0784 31.9724 72.0486 31.8156 71.9891 31.6842C71.9297 31.552 71.8408 31.4506 71.7225 31.3801C71.6043 31.3089 71.457 31.2733 71.2808 31.2733H70.8445V33.0447Z" fill="white"/>
<path d="M69.2394 32.159C69.2394 32.3969 69.1964 32.6026 69.1105 32.7759C69.0246 32.9492 68.9067 33.0829 68.7568 33.1769C68.607 33.2709 68.4359 33.3179 68.2435 33.3179C68.051 33.3179 67.8799 33.2709 67.7301 33.1769C67.5803 33.0829 67.4624 32.9492 67.3765 32.7759C67.2905 32.6026 67.2476 32.3969 67.2476 32.159C67.2476 31.921 67.2905 31.7154 67.3765 31.542C67.4624 31.3687 67.5803 31.235 67.7301 31.141C67.8799 31.047 68.051 31 68.2435 31C68.4359 31 68.607 31.047 68.7568 31.141C68.9067 31.235 69.0246 31.3687 69.1105 31.542C69.1964 31.7154 69.2394 31.921 69.2394 32.159ZM68.975 32.159C68.975 31.9636 68.9423 31.7987 68.8769 31.6643C68.8123 31.5299 68.7245 31.4282 68.6136 31.3591C68.5035 31.2901 68.3801 31.2556 68.2435 31.2556C68.1069 31.2556 67.9831 31.2901 67.8722 31.3591C67.762 31.4282 67.6743 31.5299 67.6089 31.6643C67.5443 31.7987 67.512 31.9636 67.512 32.159C67.512 32.3543 67.5443 32.5192 67.6089 32.6536C67.6743 32.788 67.762 32.8897 67.8722 32.9588C67.9831 33.0278 68.1069 33.0623 68.2435 33.0623C68.3801 33.0623 68.5035 33.0278 68.6136 32.9588C68.7245 32.8897 68.8123 32.788 68.8769 32.6536C68.9423 32.5192 68.975 32.3543 68.975 32.159Z" fill="white"/>
<path d="M66.7891 31.0309V33.2871H66.5247L65.2952 31.5156H65.2732V33.2871H65V31.0309H65.2644L66.4983 32.8068H66.5203V31.0309H66.7891Z" fill="white"/>
<path d="M74.2402 11.58L81.4202 18.46H74.2402V11.58Z" fill="#FFB0A7"/>
<path d="M69.0304 20.77C69.0304 21.49 68.6104 22.07 68.1004 22.07C67.5904 22.07 67.1704 21.49 67.1704 20.77C67.1704 20.05 67.5904 19.47 68.1004 19.47C68.6104 19.47 69.0304 20.05 69.0304 20.77Z" fill="white"/>
<path d="M74.2904 22.07C74.804 22.07 75.2204 21.4879 75.2204 20.77C75.2204 20.052 74.804 19.47 74.2904 19.47C73.7767 19.47 73.3604 20.052 73.3604 20.77C73.3604 21.4879 73.7767 22.07 74.2904 22.07Z" fill="white"/>
<path d="M68.6002 24.67C68.9902 24.25 69.5302 23.91 70.0602 23.72C71.4202 23.23 72.7302 23.74 73.7702 24.67C74.0502 24.92 74.4602 24.51 74.1802 24.26C73.0302 23.23 71.5502 22.62 70.0202 23.12C69.3502 23.34 68.6702 23.73 68.1902 24.26C67.9402 24.53 68.3502 24.94 68.6002 24.67Z" fill="white"/>
</svg>
