<svg width="20" height="20" viewBox="0 0 20 20" fill="none" xmlns="http://www.w3.org/2000/svg">
<path d="M17.3336 6.49694C18.2009 8.31085 18.3655 10.3817 17.7958 12.3099C17.226 14.238 15.9622 15.8868 14.2482 16.938C12.5343 17.9891 10.4918 18.3681 8.51484 18.0019C6.53789 17.6356 4.76669 16.55 3.54307 14.9547C2.31946 13.3593 1.73017 11.3672 1.88894 9.3629C2.04771 7.3586 2.94328 5.48415 4.40282 4.10132C5.86235 2.71849 7.78237 1.92531 9.79233 1.87488C11.8023 1.82444 13.7597 2.52031 15.2867 3.82819L17.0578 2.05632C17.1751 1.93904 17.3342 1.87316 17.5 1.87316C17.6659 1.87316 17.8249 1.93904 17.9422 2.05632C18.0595 2.17359 18.1254 2.33265 18.1254 2.4985C18.1254 2.66436 18.0595 2.82342 17.9422 2.94069L10.4422 10.4407C10.3249 10.558 10.1659 10.6239 10 10.6239C9.83416 10.6239 9.6751 10.558 9.55782 10.4407C9.44055 10.3234 9.37466 10.1644 9.37466 9.9985C9.37466 9.83265 9.44055 9.67359 9.55782 9.55632L11.7234 7.39069C11.1365 7.00253 10.4358 6.82381 9.73467 6.88346C9.03355 6.94311 8.37308 7.23765 7.86018 7.71938C7.34727 8.20111 7.01197 8.84185 6.90854 9.53786C6.8051 10.2339 6.9396 10.9444 7.29026 11.5545C7.64091 12.1646 8.18719 12.6384 8.84067 12.8994C9.49415 13.1603 10.2166 13.1931 10.891 12.9924C11.5654 12.7917 12.1524 12.3692 12.5568 11.7934C12.9613 11.2176 13.1595 10.5221 13.1195 9.8196C13.1149 9.73752 13.1265 9.65534 13.1537 9.57774C13.1808 9.50015 13.223 9.42866 13.2777 9.36736C13.3325 9.30606 13.3988 9.25615 13.4729 9.22047C13.5469 9.1848 13.6273 9.16406 13.7094 9.15944C13.8751 9.15012 14.0378 9.20702 14.1616 9.31764C14.2229 9.37241 14.2728 9.43872 14.3085 9.51278C14.3442 9.58685 14.3649 9.66721 14.3695 9.74929C14.4265 10.7436 14.1425 11.7277 13.5645 12.5388C12.9864 13.3498 12.1489 13.9394 11.1904 14.21C10.2318 14.4806 9.20968 14.4161 8.29281 14.027C7.37595 13.638 6.61927 12.9477 6.14783 12.0704C5.6764 11.193 5.51844 10.1811 5.70006 9.2018C5.88167 8.22251 6.39199 7.3345 7.14668 6.68454C7.90136 6.03458 8.85523 5.66158 9.85062 5.62718C10.846 5.59279 11.8234 5.89906 12.6211 6.49538L14.3984 4.71804C13.0959 3.63663 11.4398 3.07457 9.74818 3.13981C8.05652 3.20506 6.44862 3.89301 5.23328 5.07152C4.01794 6.25004 3.28087 7.83603 3.16364 9.52488C3.0464 11.2137 3.55726 12.8863 4.5981 14.2215C5.63894 15.5566 7.13637 16.4601 8.80279 16.7585C10.4692 17.0569 12.1871 16.729 13.6265 15.8379C15.0659 14.9469 16.1254 13.5554 16.6014 11.9308C17.0774 10.3062 16.9364 8.56299 16.2055 7.036C16.134 6.88641 16.1249 6.71454 16.1801 6.55821C16.2353 6.40188 16.3504 6.27389 16.5 6.20241C16.6496 6.13093 16.8215 6.1218 16.9778 6.17703C17.1341 6.23227 17.2621 6.34734 17.3336 6.49694Z" fill="black"/>
</svg>
