<svg width="20" height="20" viewBox="0 0 20 20" fill="none" xmlns="http://www.w3.org/2000/svg">
<path d="M17.3336 6.49694C18.2009 8.31085 18.3655 10.3817 17.7958 12.3099C17.226 14.238 15.9622 15.8868 14.2482 16.938C12.5343 17.9891 10.4918 18.3681 8.51484 18.0019C6.53789 17.6356 4.76669 16.55 3.54307 14.9547C2.31946 13.3593 1.73017 11.3672 1.88894 9.3629C2.04771 7.3586 2.94328 5.48415 4.40282 4.10132C5.86235 2.71849 7.78237 1.92531 9.79233 1.87488C11.8023 1.82444 13.7597 2.52031 15.2867 3.82819L17.0578 2.05632C17.1751 1.93904 17.3342 1.87316 17.5 1.87316C17.6659 1.87316 17.8249 1.93904 17.9422 2.05632C18.0595 2.17359 18.1254 2.33265 18.1254 2.4985C18.1254 2.66436 18.0595 2.82342 17.9422 2.94069L13.0938 7.78991L10.1477 10.736L8.27657 12.6071C8.76031 12.927 9.32353 13.1061 9.90322 13.1241C10.4829 13.1422 11.0562 12.9986 11.5589 12.7093C12.0616 12.4201 12.4739 11.9967 12.7497 11.4865C13.0254 10.9763 13.1538 10.3994 13.1203 9.82038C13.111 9.65462 13.1679 9.49194 13.2785 9.36814C13.3891 9.24434 13.5444 9.16955 13.7102 9.16022C13.8759 9.1509 14.0386 9.20781 14.1624 9.31842C14.2862 9.42904 14.361 9.58431 14.3703 9.75007C14.4207 10.6351 14.2011 11.5145 13.7406 12.2719C13.28 13.0293 12.6003 13.629 11.7913 13.9914C10.9824 14.3539 10.0824 14.4621 9.2106 14.3016C8.3388 14.1412 7.53631 13.7197 6.90938 13.093C6.12968 12.3104 5.67492 11.2618 5.63641 10.1577C5.5979 9.05366 5.9785 7.97591 6.70178 7.14086C7.42507 6.30582 8.43748 5.77531 9.53574 5.65587C10.634 5.53643 11.7368 5.8369 12.6227 6.49694L14.3984 4.71804C13.0959 3.63663 11.4398 3.07457 9.74818 3.13981C8.05652 3.20506 6.44862 3.89301 5.23328 5.07152C4.01794 6.25004 3.28087 7.83603 3.16364 9.52488C3.0464 11.2137 3.55726 12.8863 4.5981 14.2215C5.63894 15.5566 7.13637 16.4601 8.80279 16.7585C10.4692 17.0569 12.1871 16.729 13.6265 15.8379C15.0659 14.9469 16.1254 13.5554 16.6014 11.9308C17.0774 10.3062 16.9364 8.56299 16.2055 7.036C16.134 6.88641 16.1249 6.71454 16.1801 6.55821C16.2353 6.40188 16.3504 6.27389 16.5 6.20241C16.6496 6.13093 16.8215 6.1218 16.9778 6.17703C17.1341 6.23227 17.2621 6.34734 17.3336 6.49694Z" fill="#0494FD"/>
</svg>
