<svg width="110" height="100" viewBox="0 0 110 100" fill="none" xmlns="http://www.w3.org/2000/svg">
<path d="M25.5155 37.6719C25.2604 35.5864 23.4865 33.97 21.3319 33.97C21.1182 33.97 20.9103 33.9909 20.7051 34.0216C19.7247 32.0436 17.6908 30.6805 15.3334 30.6805C13.1057 30.6805 11.166 31.8976 10.1313 33.7005C9.87342 33.6497 9.60742 33.6218 9.33489 33.6218C7.2223 33.6218 5.48402 35.2192 5.259 37.2718C3.9846 37.395 2.98816 38.4683 2.98816 39.775C2.98816 41.1642 4.11435 42.2904 5.50356 42.2904C6.2891 42.2904 6.99022 41.9299 7.45166 41.3656C7.50487 41.3933 7.55942 41.4185 7.61398 41.4438C8.04123 42.7719 9.28549 43.7336 10.7556 43.7336C11.8568 43.7336 12.8294 43.1924 13.429 42.3634C13.566 42.4093 13.7061 42.4481 13.8475 42.4842C14.5755 43.2678 15.6116 43.7608 16.7655 43.7608C18.0673 43.7608 19.2195 43.134 19.947 42.1688C20.3813 42.32 20.846 42.4063 21.3319 42.4063C22.1793 42.4063 22.9664 42.1541 23.6274 41.7242C23.955 41.9112 24.3331 42.0195 24.7373 42.0195C25.977 42.0195 26.9818 41.0146 26.9818 39.775C26.9824 38.8095 26.3713 37.9887 25.5155 37.6719Z" fill="white"/>
<path d="M65.0204 6.54542C64.7816 4.59298 63.1207 3.07972 61.1036 3.07972C60.9036 3.07972 60.7087 3.09927 60.5168 3.12804C59.5988 1.27602 57.6944 0 55.4873 0C53.4016 0 51.5857 1.13949 50.6169 2.82756C50.3756 2.78006 50.1264 2.75373 49.8713 2.75373C47.8933 2.75373 46.2661 4.24934 46.0551 6.17111C44.8619 6.28647 43.929 7.29133 43.929 8.5147C43.929 9.81542 44.9835 10.87 46.2842 10.87C47.0198 10.87 47.6762 10.5323 48.108 10.0041C48.158 10.0299 48.2087 10.0535 48.26 10.0774C48.6599 11.3208 49.8249 12.2212 51.2013 12.2212C52.2322 12.2212 53.1429 11.7144 53.7042 10.9384C53.8326 10.9812 53.9637 11.0176 54.0962 11.0515C54.7778 11.7852 55.7479 12.247 56.8279 12.247C58.0467 12.247 59.1256 11.6601 59.8067 10.7565C60.2133 10.8979 60.6484 10.9788 61.1033 10.9788C61.8967 10.9788 62.6337 10.7427 63.2526 10.3401C63.5593 10.5152 63.9132 10.6164 64.2916 10.6164C65.4523 10.6164 66.3931 9.67563 66.3931 8.51497C66.3936 7.61027 65.8214 6.84183 65.0204 6.54542Z" fill="white"/>
<path d="M108.435 45.2697C108.212 43.45 106.664 42.0396 104.784 42.0396C104.598 42.0396 104.416 42.058 104.237 42.0846C103.382 40.3586 101.607 39.1691 99.5496 39.1691C97.6059 39.1691 95.9132 40.2313 95.0104 41.8042C94.7854 41.76 94.5533 41.7356 94.3155 41.7356C92.4719 41.7356 90.9554 43.1297 90.7589 44.9206C89.6468 45.0281 88.7774 45.9645 88.7774 47.1049C88.7774 48.3171 89.7603 49.3 90.9725 49.3C91.6582 49.3 92.27 48.9854 92.6725 48.493C92.7189 48.5171 92.7664 48.5391 92.8142 48.5611C93.1869 49.7201 94.2726 50.5592 95.5554 50.5592C96.5163 50.5592 97.3648 50.0869 97.8882 49.3637C98.0079 49.4039 98.13 49.4376 98.2535 49.4691C98.8887 50.1528 99.7928 50.583 100.8 50.583C101.936 50.583 102.941 50.0361 103.576 49.1938C103.955 49.3257 104.36 49.4009 104.784 49.4009C105.524 49.4009 106.211 49.1808 106.787 48.8057C107.073 48.9688 107.403 49.0633 107.756 49.0633C108.838 49.0633 109.715 48.1863 109.715 47.1046C109.714 46.2623 109.181 45.546 108.435 45.2697Z" fill="white"/>
<path d="M54.0704 100C83.9327 100 108.141 97.2773 108.141 93.9187C108.141 90.5601 83.9327 87.8375 54.0704 87.8375C24.2081 87.8375 -3.05176e-05 90.5601 -3.05176e-05 93.9187C-3.05176e-05 97.2773 24.2081 100 54.0704 100Z" fill="#4F91F1" fill-opacity="0.2"/>
<path d="M26.6502 94.3297H81.491C83.0919 94.3297 84.3897 93.0319 84.3897 91.431V22.8691C84.3897 21.2682 83.0919 19.9704 81.491 19.9704H26.6502C25.0493 19.9704 23.7515 21.2682 23.7515 22.8691V91.4307C23.7515 93.0317 25.0493 94.3297 26.6502 94.3297Z" fill="#0494FD"/>
<path d="M81.491 20.7847H26.6499C25.5007 20.7847 24.5656 21.7198 24.5656 22.8691V91.431C24.5656 92.5803 25.5007 93.5154 26.6499 93.5154H81.491C82.6402 93.5154 83.5753 92.5806 83.5753 91.431V22.8691C83.5751 21.7198 82.6402 20.7847 81.491 20.7847Z" fill="#4AB3FE"/>
<path d="M78.0587 26.5218H27.188V90.6224H78.0587V26.5218Z" fill="#0494FD"/>
<path d="M79.5057 25.201H28.635V89.3016H79.5057V25.201Z" fill="white"/>
<path d="M46.0682 43.0129H35.4336V32.3786H46.0679L46.0682 43.0129ZM35.8866 42.5602H45.6152V32.8314H35.8866V42.5602Z" fill="#BFBFC1"/>
<path d="M68.6377 35.6326H51.6767V36.7544H68.6377V35.6326Z" fill="#BFBFC1"/>
<path d="M68.6377 38.6371H51.6767V39.759H68.6377V38.6371Z" fill="#BFBFC1"/>
<path d="M46.0682 63.22H35.4336V52.5857H46.0679L46.0682 63.22ZM35.8866 62.7673H45.6152V53.0387H35.8866V62.7673Z" fill="#BFBFC1"/>
<path d="M68.6377 55.8394H51.6767V56.9612H68.6377V55.8394Z" fill="#BFBFC1"/>
<path d="M68.6377 58.8442H51.6767V59.9661H68.6377V58.8442Z" fill="#BFBFC1"/>
<path d="M46.0682 83.4272H35.4336V72.7928H46.0679L46.0682 83.4272ZM35.8866 82.9741H45.6152V73.2456H35.8866V82.9741Z" fill="#BFBFC1"/>
<path d="M68.6377 76.0465H51.6767V77.1684H68.6377V76.0465Z" fill="#BFBFC1"/>
<path d="M68.6377 79.0513H51.6767V80.1732H68.6377V79.0513Z" fill="#BFBFC1"/>
<path d="M36.6841 37.1106C38.6241 37.9721 40.2101 40.804 40.2101 40.804C40.2101 40.804 43.517 34.8755 47.1855 33.4084L45.7778 32.1522C45.7778 32.1522 41.1854 35.7105 40.3648 39.4237C40.3648 39.4237 39.0036 36.5861 37.3589 35.571L36.6841 37.1106Z" fill="#0494FD"/>
<path d="M36.6841 57.8836C38.6241 58.7452 40.2101 61.577 40.2101 61.577C40.2101 61.577 43.517 55.6486 47.1855 54.1815L45.7778 52.9253C45.7778 52.9253 41.1854 56.4838 40.3648 60.1968C40.3648 60.1968 39.0036 57.3592 37.3589 56.344L36.6841 57.8836Z" fill="#0494FD"/>
<path d="M79.4457 29.0872L79.2709 28.0704C79.2709 28.0704 79.494 26.2393 79.0437 25.8772C78.5934 25.5151 78.4481 27.0701 78.4481 27.0701C78.4481 27.0701 76.9102 24.8758 76.484 25.3232C76.0579 25.7705 76.5486 28.1787 78.0611 29.2223L79.4457 29.0872Z" fill="#FFD694"/>
<path d="M79.4353 29.0264C79.26 28.8659 79.038 28.7104 78.7532 28.5636C77.1613 27.743 76.6827 26.281 76.5492 25.2803C76.5258 25.29 76.5036 25.3031 76.4843 25.3234C76.0581 25.7707 76.5489 28.1789 78.0613 29.2226L79.4459 29.0874L79.4353 29.0264Z" fill="#E8B770"/>
<path d="M84.3294 21.7847C84.248 21.988 84.3294 28.9829 84.3294 28.9829C84.3294 28.9829 81.3015 29.6004 79.2712 28.0706L78.0614 29.2226C78.0614 29.2226 81.2909 33.4144 86.075 31.3743C90.0773 29.6675 89.2676 23.1954 86.034 21.0684L84.3294 21.7847Z" fill="#0494FD"/>
<path d="M86.034 21.0681L84.9314 21.5317C86.1249 23.3091 87.8543 26.4784 86.6154 28.8149C84.9871 31.8857 81.2426 31.1837 78.7533 28.5636L78.0614 29.2223C78.0614 29.2223 81.2909 33.4141 86.075 31.374C90.0771 29.6672 89.2676 23.1954 86.034 21.0681Z" fill="#4AB3FE"/>
<path d="M86.028 19.4508C86.3587 17.2488 84.8418 15.1956 82.6399 14.8649C80.438 14.5343 78.3849 16.0514 78.0542 18.2534C77.7236 20.4555 79.2405 22.5086 81.4424 22.8393C83.6443 23.1699 85.6974 21.6529 86.028 19.4508Z" fill="#FFD694"/>
<path d="M82.0429 14.8202C81.3793 14.8202 80.7547 14.9836 80.2026 15.2675C82.0964 15.5981 83.5375 17.2465 83.5375 19.2351C83.5375 20.798 82.6464 22.1506 81.3459 22.8194C81.5728 22.859 81.8046 22.8837 82.0429 22.8837C84.2695 22.8837 86.0749 21.0787 86.0749 18.8518C86.0749 16.625 84.2698 14.8202 82.0429 14.8202Z" fill="#E8B770"/>
<path d="M70.3574 19.9734C70.3574 19.9734 69.7364 18.8073 69.2497 17.4917L72.0118 17.028C72.0118 17.028 73.3788 19.0128 74.0547 19.9734H70.3574Z" fill="#0494FD"/>
<path d="M69.2497 17.4919C69.2497 17.4919 65.6841 16.3964 65.6556 15.6866C65.6271 14.9768 67.9329 15.6866 69.1183 15.8541C70.1593 16.0009 70.8341 16.0859 70.9274 15.065C71.0211 14.0441 72.0816 13.3487 72.1752 13.8835C72.2689 14.4182 71.6975 16.2232 72.0118 17.028L69.2497 17.4919Z" fill="#FFD694"/>
<path d="M81.5756 16.3581C81.5756 16.3581 80.9923 18.0315 83.0468 20.0714C83.0468 20.0714 83.5072 19.0627 84.0237 18.5546C84.0237 18.5546 84.5528 19.987 83.9651 22.3968C83.9651 22.3968 86.6814 22.0211 86.9373 18.9987C87.228 15.5655 84.6928 15.0259 84.6928 15.0259C84.6928 15.0259 83.5821 13.1544 80.6145 14.0121C78.8406 14.5249 78.4479 16.7295 78.4479 16.7295C78.4479 16.7295 80.3365 15.7243 81.5756 16.3581Z" fill="#0E0E54"/>
<path d="M85.1692 15.2032C85.1692 15.2032 86.4246 16.4008 85.7848 19.4292C85.7848 19.4292 85.6996 18.1564 84.5479 17.4919C84.5479 17.4919 86.0277 20.4593 83.9654 22.3971C83.9654 22.3971 86.6816 22.0214 86.9376 18.999C87.1471 16.5235 85.8882 15.5525 85.1692 15.2032Z" fill="#050533"/>
<path d="M70.6327 17.2596L72.0487 19.9734H74.0549C73.3791 19.0128 72.0121 17.028 72.0121 17.028L70.6327 17.2596Z" fill="#4AB3FE"/>
<path d="M70.6327 17.2596L72.0121 17.0281C71.6978 16.2232 72.2691 14.4182 72.1755 13.8835C72.1546 13.7635 72.0832 13.7081 71.9866 13.7019C71.7779 14.204 71.5726 14.8148 71.5192 15.3783C71.4 16.6277 70.6327 17.2596 70.6327 17.2596Z" fill="#E8B770"/>
<path d="M84.3293 28.9829C84.3293 28.9829 85.3176 28.5505 85.4631 27.0956C85.6086 25.641 84.3293 24.2043 84.3293 24.2043V28.9829Z" fill="#4AB3FE"/>
<path d="M39.2663 63.7591L12.7494 85.5058C12.5439 85.6744 12.302 85.7688 12.0561 85.793C11.6411 85.8334 11.2144 85.6727 10.9302 85.3261L10.0795 84.289C9.82463 83.9782 9.73886 83.5843 9.81079 83.2187C9.8667 82.9345 10.0179 82.6674 10.2592 82.4695L36.7761 60.7228L39.2663 63.7591Z" fill="#0494FD"/>
<path d="M36.7761 60.7226L41.2738 59.8127L39.2663 63.7591L36.7761 60.7226Z" fill="#FFD694"/>
<path d="M38.4528 62.7673L41.2738 59.8127L39.2663 63.7591L38.4528 62.7673Z" fill="#E8B770"/>
<path d="M39.2663 60.2188L41.2738 59.8127L40.3919 61.5464L39.2663 60.2188Z" fill="#0494FD"/>
<path d="M38.4528 62.767L10.7437 85.0987L10.9302 85.3258C11.2144 85.6725 11.6413 85.8332 12.0561 85.7927C12.302 85.7688 12.5439 85.6741 12.7493 85.5055L39.2663 63.7588L38.4528 62.767Z" fill="#4AB3FE"/>
<path d="M14.898 74.1022C14.898 74.1022 14.8801 74.1902 14.8505 74.3546C14.6608 75.4103 13.9949 79.6116 14.5595 83.8438C15.212 88.7351 14.1125 94.5675 14.1125 94.5675L16.0057 94.6847C16.0057 94.6847 17.0695 91.2679 17.7942 87.5237C18.5122 83.8156 18.6525 78.4691 18.6525 78.4691L19.2782 78.5587C19.2782 78.5587 21.2008 89.5752 20.343 93.9904L22.1388 93.7208C22.1388 93.7208 24.778 83.8281 22.6095 75.6554" fill="#0E0E54"/>
<path d="M14.8505 74.3547C14.6608 75.4103 13.9949 79.6116 14.5595 83.8438C15.212 88.7351 14.1125 94.5675 14.1125 94.5675L15.1966 94.6345C15.5983 92.4788 16.2639 88.3174 16.2639 84.3932C16.2639 78.7736 16.9758 74.9081 16.9758 74.9081L15.9495 74.3137L14.8983 74.1019C14.8983 74.1019 14.8801 74.1902 14.8505 74.3547Z" fill="#050533"/>
<path d="M20.3037 61.0317C20.3037 61.0317 15.8323 65.9005 14.8983 74.1022C14.8983 74.1022 20.3148 76.6551 23.5455 75.4027C23.5455 75.4027 23.7629 70.4758 23.7225 69.4153C23.7225 69.4153 29.2665 71.6023 33.2561 68.6271C33.2561 68.6271 33.2626 67.6181 32.8663 67.2251C32.8663 67.2251 26.3014 69.1819 23.6657 64.8636C23.6657 64.8636 23.052 62.6465 22.1392 62.2345C21.2258 61.8227 20.3037 61.0317 20.3037 61.0317Z" fill="#0494FD"/>
<path d="M20.3035 61.0314C20.3035 61.0314 15.8321 65.9002 14.8981 74.1019C14.8981 74.1019 15.749 74.5023 16.9756 74.9081C17.3831 69.3122 19.0451 65.0577 20.9897 61.5572C20.5849 61.2725 20.3035 61.0314 20.3035 61.0314Z" fill="#4AB3FE"/>
<path d="M26.9208 59.6185C27.5685 57.488 26.3665 55.2359 24.2359 54.5881C22.1053 53.9403 19.8531 55.1423 19.2053 57.2727C18.5576 59.4031 19.7597 61.6553 21.8903 62.3031C24.0208 62.9508 26.2731 61.7489 26.9208 59.6185Z" fill="#FFD694"/>
<path d="M22.8932 59.278C22.8932 57.4906 23.8742 55.9347 25.3253 55.1117C24.6795 54.6722 23.9 54.4146 23.0599 54.4146C20.8333 54.4146 19.028 56.2197 19.028 58.4466C19.028 60.6732 20.833 62.4782 23.0599 62.4782C23.3908 62.4782 23.7105 62.434 24.0183 62.3588C23.3169 61.526 22.8932 60.4519 22.8932 59.278Z" fill="#E8B770"/>
<path d="M25.6656 55.439C25.6656 55.439 25.8893 58.1322 23.6155 59.1023C21.1915 60.1365 22.296 62.4486 22.9686 63.0379C22.9686 63.0379 16.9661 61.4085 18.4275 56.7897C20.02 51.7562 25.4553 53.2689 26.4509 55.1204C27.2324 56.5736 26.9208 57.2835 26.9208 57.2835C26.9208 57.2835 26.5692 56.0036 25.6656 55.439Z" fill="#0E0E54"/>
<path d="M32.8658 67.2251C32.8658 67.2251 34.363 65.0813 34.524 65.5438C34.6847 66.0063 34.1442 67.0242 34.1442 67.0242C34.1442 67.0242 35.6814 66.8337 36.3877 66.0823C36.3877 66.0823 35.6084 69.2649 33.2556 68.6268C33.2556 68.6268 33.252 67.98 32.8658 67.2251Z" fill="#FFD694"/>
<path d="M22.1386 93.7206C22.1386 93.7206 24.8315 93.3845 25.1529 94.8674C25.4746 96.3505 20.1783 95.284 20.1783 95.284L20.3428 93.9898L22.1386 93.7206Z" fill="#0494FD"/>
<path d="M16.0058 94.6847C16.0058 94.6847 18.9587 96.0365 18.3721 96.8836C17.7856 97.7308 13.6388 96.8836 13.6388 96.8836L14.1125 94.5675L16.0058 94.6847Z" fill="#0494FD"/>
<path d="M21.2054 66.354C21.1389 68.3152 23.7219 69.415 23.7219 69.415C23.7219 69.415 29.2662 71.602 33.2556 68.6268C33.2556 68.6268 33.2081 68.3171 33.169 68.0418C27.2525 71.3194 21.2054 66.354 21.2054 66.354Z" fill="#4AB3FE"/>
<path d="M33.2556 68.6271C34.4475 68.9503 35.2349 68.2932 35.7224 67.566C34.6494 68.3505 33.169 68.0418 33.169 68.0418L33.1687 68.044C33.2526 68.3925 33.2556 68.6271 33.2556 68.6271Z" fill="#E8B770"/>
<path d="M18.6523 78.4691L19.2779 78.5587C19.2779 78.5587 21.2005 89.5752 20.3428 93.9904L21.1736 93.8655C22.467 87.5169 20.9893 77.5872 20.9893 77.5872L18.6523 78.4691Z" fill="#050533"/>
<path d="M15.1963 94.6345L14.1122 94.5675L13.6385 96.8836C13.6385 96.8836 14.654 97.091 15.7509 97.1977C14.6575 96.0297 15.1963 94.6345 15.1963 94.6345Z" fill="#4AB3FE"/>
<path d="M21.1736 93.8655L20.3428 93.9904L20.1783 95.2846C20.1783 95.2846 20.8935 95.4282 21.7817 95.5368C21.2583 94.7425 21.1736 93.8655 21.1736 93.8655Z" fill="#4AB3FE"/>
<path d="M22.9005 63.0181C22.853 62.9443 22.8025 62.8699 22.7436 62.7936C22.7428 62.7925 22.742 62.7914 22.7412 62.7904C22.7056 62.7448 22.6703 62.6967 22.6353 62.6446C20.6544 59.8966 22.1766 56.9387 22.1766 56.9387C21.0843 57.4729 20.1785 59.1395 20.1785 59.1395C19.0963 56.4398 20.6156 54.324 21.2266 53.6226C20.0553 54.0333 18.9964 54.9928 18.4278 56.7897C17.0581 61.1178 22.2428 62.821 22.9005 63.0181Z" fill="#050533"/>
<path d="M90.0222 76.1467C90.0222 76.1467 95.439 79.4894 96.7093 89.0302C96.7093 89.0302 90.0884 89.4259 89.1712 89.3111C89.1712 89.3111 88.8694 83.8332 88.203 82.2225C88.203 82.2225 83.9398 85.9078 82.6147 85.9244C81.2895 85.9409 77.6523 82.3485 77.6523 82.3485L79.3412 81.2321C79.3412 81.2321 82.5913 83.6986 83.2542 83.3588C83.917 83.0189 86.2278 78.946 88.0296 78.2226C88.0296 78.2226 88.6422 77.3565 88.2074 76.245L90.0222 76.1467Z" fill="#0494FD"/>
<path d="M89.5255 76.5243C89.5255 76.5243 95.1632 82.7337 94.9594 89.0956C94.9591 89.1073 94.9577 89.1173 94.9572 89.1287C95.9721 89.0744 96.7093 89.0302 96.7093 89.0302C95.4387 79.4892 90.0222 76.1467 90.0222 76.1467L89.4666 76.1768L89.5255 76.5243Z" fill="#4AB3FE"/>
<path d="M77.6525 82.3488C77.6525 82.3488 81.2898 85.9412 82.6149 85.9247C83.9401 85.9081 88.2033 82.2228 88.2033 82.2228C88.2041 82.225 88.2049 82.2274 88.206 82.2296L88.2741 81.9636C88.2741 81.9636 89.4334 80.9663 89.0645 79.807C89.0645 79.807 84.2164 85.34 82.8465 85.024C81.7898 84.7803 79.5428 82.6875 78.57 81.7429L77.6525 82.3488Z" fill="#4AB3FE"/>
<path d="M89.8811 75.951C91.4555 74.3765 91.4555 71.8239 89.8811 70.2494C88.3066 68.675 85.754 68.675 84.1795 70.2494C82.6051 71.8239 82.6051 74.3765 84.1795 75.951C85.754 77.5254 88.3066 77.5254 89.8811 75.951Z" fill="#FFD694"/>
<path d="M87.2892 69.0815C88.3277 69.8108 89.0082 71.0154 89.0082 72.381C89.0082 74.6076 87.2032 76.4127 84.9763 76.4127C84.8894 76.4127 84.8045 76.4051 84.7187 76.3997C85.3737 76.8597 86.1701 77.132 87.0313 77.132C89.2579 77.132 91.063 75.3269 91.063 73.1004C91.0632 70.9603 89.3953 69.2147 87.2892 69.0815Z" fill="#E8B770"/>
<path d="M90.535 69.7899C90.535 69.7899 90.0304 67.7718 87.9699 68.2416C86.4119 68.597 84.4225 69.9213 83.9684 68.55C83.9684 68.55 82.9234 69.4045 83.9684 71.0236C85.0135 72.6427 87.5527 73.356 88.6819 72.4497C88.6819 72.4497 88.2585 73.6422 88.8016 74.5086C89.3448 75.375 89.0478 76.591 89.0478 76.591C89.0478 76.591 91.5982 76.5289 92.2236 73.8541C92.8186 71.31 91.3255 69.6691 90.535 69.7899Z" fill="#0E0E54"/>
<path d="M77.6526 82.3487C77.6526 82.3487 74.2043 82.8894 74.1131 82.3778C74.0219 81.8661 76.9838 81.6153 77.6526 80.8941C78.3215 80.1729 78.1179 78.6662 78.5861 78.9588C79.0543 79.2514 79.3415 81.2321 79.3415 81.2321L77.6526 82.3487Z" fill="#FFD694"/>
<path d="M89.1713 89.3111L89.2289 89.9631C89.2289 89.9631 80.7739 89.8741 80.0047 91.5841C79.2351 93.2942 82.0176 95.5229 86.1576 95.5235C90.2975 95.524 96.1788 95.4182 96.7094 93.5469C97.2401 91.6756 96.7094 89.0302 96.7094 89.0302L89.1713 89.3111Z" fill="#0E0E54"/>
<path d="M78.2353 81.9633L79.3414 81.2323C79.3414 81.2323 79.0545 79.2517 78.586 78.9591C78.4916 78.9002 78.4253 78.9167 78.3727 78.9829C78.636 79.645 78.8178 80.4536 78.5776 81.177C78.4856 81.4544 78.367 81.7174 78.2353 81.9633Z" fill="#E8B770"/>
<path d="M91.2774 73.58L90.0654 71.9022C90.0654 71.9022 90.8084 74.2542 89.5255 76.524C90.294 76.3625 91.7682 75.8025 92.2239 73.8539C92.5906 72.286 92.1636 71.0632 91.5974 70.3825C91.7293 71.4902 91.7255 72.7274 91.2774 73.58Z" fill="#050533"/>
<path d="M96.7094 89.0304L94.9594 89.0956C95.3384 90.3113 95.4461 91.5638 94.6503 92.2771C92.8059 93.9293 86.7311 93.0993 83.5043 93.1918C82.0637 93.2331 80.8265 92.8487 79.8955 92.4106C80.1346 93.9345 82.6623 95.5235 86.1576 95.5237C90.2975 95.5243 96.1787 95.4184 96.7094 93.5471C97.24 91.6756 96.7094 89.0304 96.7094 89.0304Z" fill="#050533"/>
</svg>
