<svg width="34" height="34" viewBox="0 0 34 34" fill="none" xmlns="http://www.w3.org/2000/svg">
<mask id="path-1-outside-1_2022_3896" maskUnits="userSpaceOnUse" x="1" y="0" width="31" height="33" fill="black">
<rect fill="white" x="1" width="31" height="33"/>
<path d="M19.0025 26.501H18.0025V23.31L18.726 22.948C18.8955 22.8635 19.0025 22.69 19.0025 22.5005V20.0005C19.0025 19.0005 18.4085 18.142 17.5575 17.7425C17.8315 17.4 18.0025 16.972 18.0025 16.5005C18.0025 15.3975 17.1055 14.5005 16.0025 14.5005C14.8995 14.5005 14.0025 15.3975 14.0025 16.5005C14.0025 16.972 14.1735 17.4 14.4475 17.7425C13.5965 18.1425 13.0025 19.001 13.0025 20.001V22.501C13.0025 22.6905 13.1095 22.8635 13.279 22.9485L14.0025 23.3105V26.501H13.0025C12.7265 26.501 12.5025 26.725 12.5025 27.001V31.501C12.5025 31.777 12.7265 32.001 13.0025 32.001H19.0025C19.2785 32.001 19.5025 31.777 19.5025 31.501V27.001C19.5025 26.725 19.2785 26.501 19.0025 26.501ZM16.0025 15.501C16.554 15.501 17.0025 15.9495 17.0025 16.501C17.0025 17.0525 16.554 17.501 16.0025 17.501C15.451 17.501 15.0025 17.0525 15.0025 16.501C15.0025 15.9495 15.451 15.501 16.0025 15.501ZM14.0025 20.001C14.0025 19.174 14.6755 18.501 15.5025 18.501H16.5025C17.3295 18.501 18.0025 19.174 18.0025 20.001V22.192L17.279 22.554C17.1095 22.6385 17.0025 22.812 17.0025 23.0015V26.5015H15.0025V23.0015C15.0025 22.812 14.8955 22.639 14.726 22.554L14.0025 22.192V20.001ZM18.5025 31.001H13.5025V27.501H18.5025V31.001Z"/>
<path d="M27.0025 29.001H26.0025V25.81L26.726 25.448C26.8955 25.3635 27.0025 25.19 27.0025 25.0005V22.5005C27.0025 21.5005 26.4085 20.642 25.5575 20.2425C25.8315 19.9 26.0025 19.472 26.0025 19.0005C26.0025 17.8975 25.1055 17.0005 24.0025 17.0005C22.8995 17.0005 22.0025 17.8975 22.0025 19.0005C22.0025 19.472 22.1735 19.9 22.4475 20.2425C21.5965 20.6425 21.0025 21.501 21.0025 22.501V25.001C21.0025 25.1905 21.1095 25.3635 21.279 25.4485L22.0025 25.8105V29.001H21.0025C20.7265 29.001 20.5025 29.225 20.5025 29.501V31.501C20.5025 31.777 20.7265 32.001 21.0025 32.001H27.0025C27.2785 32.001 27.5025 31.777 27.5025 31.501V29.501C27.5025 29.225 27.2785 29.001 27.0025 29.001ZM24.0025 18.001C24.554 18.001 25.0025 18.4495 25.0025 19.001C25.0025 19.5525 24.554 20.001 24.0025 20.001C23.451 20.001 23.0025 19.5525 23.0025 19.001C23.0025 18.4495 23.451 18.001 24.0025 18.001ZM22.0025 22.501C22.0025 21.674 22.6755 21.001 23.5025 21.001H24.5025C25.3295 21.001 26.0025 21.674 26.0025 22.501V24.692L25.279 25.054C25.1095 25.1385 25.0025 25.312 25.0025 25.5015V29.0015H23.0025V25.5015C23.0025 25.312 22.8955 25.139 22.726 25.054L22.0025 24.692V22.501ZM26.5025 31.001H21.5025V30.001H26.5025V31.001Z"/>
<path d="M11.0025 29.001H10.0025V25.81L10.726 25.448C10.8955 25.3635 11.0025 25.19 11.0025 25.0005V22.5005C11.0025 21.5005 10.4085 20.642 9.5575 20.2425C9.8315 19.9 10.0025 19.472 10.0025 19.0005C10.0025 17.8975 9.1055 17.0005 8.0025 17.0005C6.8995 17.0005 6.0025 17.8975 6.0025 19.0005C6.0025 19.472 6.1735 19.9 6.4475 20.2425C5.5965 20.6425 5.0025 21.501 5.0025 22.501V25.001C5.0025 25.1905 5.1095 25.3635 5.279 25.4485L6.0025 25.8105V29.001H5.0025C4.7265 29.001 4.5025 29.225 4.5025 29.501V31.501C4.5025 31.777 4.7265 32.001 5.0025 32.001H11.0025C11.2785 32.001 11.5025 31.777 11.5025 31.501V29.501C11.5025 29.225 11.2785 29.001 11.0025 29.001ZM8.0025 18.001C8.554 18.001 9.0025 18.4495 9.0025 19.001C9.0025 19.5525 8.554 20.001 8.0025 20.001C7.451 20.001 7.0025 19.5525 7.0025 19.001C7.0025 18.4495 7.451 18.001 8.0025 18.001ZM6.0025 22.501C6.0025 21.674 6.6755 21.001 7.5025 21.001H8.5025C9.3295 21.001 10.0025 21.674 10.0025 22.501V24.692L9.279 25.054C9.1095 25.1385 9.0025 25.312 9.0025 25.5015V29.0015H7.0025V25.5015C7.0025 25.312 6.8955 25.139 6.726 25.054L6.0025 24.692V22.501ZM10.5025 31.001H5.5025V30.001H10.5025V31.001Z"/>
<path d="M19.4355 13.654L18.752 12.9235C18.533 13.1285 18.2915 13.3085 18.0345 13.4585L18.538 14.3225C18.86 14.1345 19.162 13.91 19.4355 13.654Z"/>
<path d="M13.783 13.3155C13.535 13.148 13.306 12.9525 13.1015 12.7345L12.372 13.418C12.6275 13.6905 12.9135 13.9345 13.2225 14.1435L13.783 13.3155Z"/>
<path d="M20.683 11.8125L19.751 11.4495C19.6425 11.7275 19.5025 11.9945 19.3345 12.2425L20.1625 12.8035C20.372 12.4935 20.5475 12.1605 20.683 11.8125Z"/>
<path d="M11.25 11.4965C11.3615 11.8535 11.514 12.198 11.703 12.5215L12.5665 12.0165C12.4155 11.7585 12.294 11.4835 12.205 11.1985L11.25 11.4965Z"/>
<path d="M20.84 9.609L20.0095 9.6895C20.033 9.989 20.0225 10.2905 19.98 10.5845L20.9695 10.7295C21.0235 10.3615 21.036 9.9855 21.0055 9.5975L20.84 9.609Z"/>
<path d="M11.0365 10.3885L11.0375 10.398L12.0335 10.311C12.0105 10.014 12.02 9.716 12.062 9.424L11.0725 9.281C11.02 9.6455 11.008 10.018 11.0365 10.3885Z"/>
<path d="M19.473 7.9765C19.624 8.234 19.7465 8.509 19.8365 8.7945L20.79 8.493C20.6775 8.1365 20.5245 7.7925 20.335 7.4705L19.473 7.9765Z"/>
<path d="M11.3565 8.198L12.289 8.559C12.3965 8.281 12.5365 8.014 12.7035 7.7655L11.875 7.206C11.6655 7.516 11.4915 7.85 11.3565 8.198Z"/>
<path d="M18.2535 6.6805C18.5015 6.8475 18.7315 7.0425 18.936 7.2605L19.6645 6.575C19.4085 6.3035 19.122 6.0595 18.812 5.851L18.2535 6.6805Z"/>
<path d="M12.6005 6.3535L13.285 7.0825C13.503 6.8775 13.744 6.697 14.002 6.546L13.4965 5.683C13.1745 5.872 12.8725 6.0975 12.6005 6.3535Z"/>
<path d="M17.8195 5.334C17.4705 5.199 17.1055 5.104 16.7355 5.0505L16.5935 6.0405C16.889 6.083 17.1805 6.159 17.459 6.2665L17.8195 5.334Z"/>
<path d="M15.618 5.017C15.244 5.047 14.8745 5.119 14.52 5.2305L14.8195 6.1845C15.103 6.0955 15.3985 6.038 15.6985 6.0135L15.618 5.017Z"/>
<path d="M13.5285 9.37C13.469 9.5475 13.514 9.744 13.6445 9.878L14.468 10.722L14.2725 11.92C14.2415 12.109 14.3215 12.299 14.478 12.4095C14.635 12.52 14.841 12.531 15.008 12.4385L16.002 11.889L16.996 12.4385C17.0725 12.48 17.1555 12.501 17.2385 12.501C17.3395 12.501 17.4405 12.47 17.5265 12.4095C17.683 12.2995 17.763 12.109 17.732 11.92L17.5365 10.722L18.36 9.878C18.491 9.744 18.536 9.548 18.476 9.37C18.416 9.192 18.2625 9.0625 18.0775 9.0345L16.9595 8.8635L16.455 7.7885C16.373 7.613 16.1965 7.501 16.0025 7.501C15.8085 7.501 15.6325 7.613 15.55 7.7885L15.045 8.8635L13.927 9.0345C13.7415 9.063 13.588 9.1925 13.5285 9.37ZM15.46 9.812C15.625 9.787 15.7665 9.6815 15.837 9.5305L16.0025 9.178L16.168 9.5305C16.239 9.6815 16.38 9.787 16.545 9.8125L16.965 9.8765L16.6445 10.205C16.5335 10.3185 16.4835 10.478 16.509 10.6345L16.5795 11.0655L16.2445 10.8805C16.1695 10.839 16.086 10.818 16.0025 10.818C15.919 10.818 15.836 10.839 15.7605 10.8805L15.4255 11.0655L15.496 10.6345C15.5215 10.478 15.4715 10.3185 15.3605 10.205L15.04 9.8765L15.46 9.812Z"/>
<path d="M4.122 20.2865C3.447 18.7715 3.0775 17.1635 3.0155 15.501H4.5025V14.501H3.015C3.091 12.4995 3.621 10.613 4.506 8.941L5.793 9.684L6.293 8.818L5.008 8.0765C6.0445 6.4365 7.437 5.044 9.077 4.0075L9.8185 5.2925L10.6845 4.7925L9.9415 3.5055C11.6135 2.6205 13.5 2.0905 15.5015 2.0145V3.501H16.5015V2.0135C18.503 2.0895 20.3895 2.6195 22.0615 3.5045L21.3185 4.7915L22.1845 5.2915L22.926 4.0065C24.566 5.043 25.9585 6.4355 26.995 8.0755L25.71 8.817L26.21 9.683L27.497 8.94C28.382 10.612 28.912 12.4985 28.988 14.5H27.5005V15.5H28.987C28.9635 16.1205 28.8965 16.7365 28.786 17.3435L27.6365 17.019C27.4525 16.967 27.255 17.0245 27.128 17.1665C27.0005 17.309 26.9655 17.511 27.037 17.688L28.057 20.2C28.1125 20.336 28.2245 20.441 28.364 20.487C28.415 20.504 28.468 20.512 28.5205 20.512C28.6115 20.512 28.702 20.487 28.781 20.439L31.2705 18.918C31.44 18.814 31.532 18.62 31.505 18.423C31.478 18.226 31.337 18.064 31.1455 18.01L29.7505 17.616C29.9125 16.7575 30 15.8805 30 15C30 7.2805 23.7195 1 16 1C8.2805 1 2 7.2805 2 15C2 16.9815 2.406 18.897 3.206 20.693L4.122 20.2865ZM28.764 19.2795L28.35 18.26L29.7745 18.662L28.764 19.2795Z"/>
</mask>
<path d="M19.0025 26.501H18.0025V23.31L18.726 22.948C18.8955 22.8635 19.0025 22.69 19.0025 22.5005V20.0005C19.0025 19.0005 18.4085 18.142 17.5575 17.7425C17.8315 17.4 18.0025 16.972 18.0025 16.5005C18.0025 15.3975 17.1055 14.5005 16.0025 14.5005C14.8995 14.5005 14.0025 15.3975 14.0025 16.5005C14.0025 16.972 14.1735 17.4 14.4475 17.7425C13.5965 18.1425 13.0025 19.001 13.0025 20.001V22.501C13.0025 22.6905 13.1095 22.8635 13.279 22.9485L14.0025 23.3105V26.501H13.0025C12.7265 26.501 12.5025 26.725 12.5025 27.001V31.501C12.5025 31.777 12.7265 32.001 13.0025 32.001H19.0025C19.2785 32.001 19.5025 31.777 19.5025 31.501V27.001C19.5025 26.725 19.2785 26.501 19.0025 26.501ZM16.0025 15.501C16.554 15.501 17.0025 15.9495 17.0025 16.501C17.0025 17.0525 16.554 17.501 16.0025 17.501C15.451 17.501 15.0025 17.0525 15.0025 16.501C15.0025 15.9495 15.451 15.501 16.0025 15.501ZM14.0025 20.001C14.0025 19.174 14.6755 18.501 15.5025 18.501H16.5025C17.3295 18.501 18.0025 19.174 18.0025 20.001V22.192L17.279 22.554C17.1095 22.6385 17.0025 22.812 17.0025 23.0015V26.5015H15.0025V23.0015C15.0025 22.812 14.8955 22.639 14.726 22.554L14.0025 22.192V20.001ZM18.5025 31.001H13.5025V27.501H18.5025V31.001Z" fill="white"/>
<path d="M27.0025 29.001H26.0025V25.81L26.726 25.448C26.8955 25.3635 27.0025 25.19 27.0025 25.0005V22.5005C27.0025 21.5005 26.4085 20.642 25.5575 20.2425C25.8315 19.9 26.0025 19.472 26.0025 19.0005C26.0025 17.8975 25.1055 17.0005 24.0025 17.0005C22.8995 17.0005 22.0025 17.8975 22.0025 19.0005C22.0025 19.472 22.1735 19.9 22.4475 20.2425C21.5965 20.6425 21.0025 21.501 21.0025 22.501V25.001C21.0025 25.1905 21.1095 25.3635 21.279 25.4485L22.0025 25.8105V29.001H21.0025C20.7265 29.001 20.5025 29.225 20.5025 29.501V31.501C20.5025 31.777 20.7265 32.001 21.0025 32.001H27.0025C27.2785 32.001 27.5025 31.777 27.5025 31.501V29.501C27.5025 29.225 27.2785 29.001 27.0025 29.001ZM24.0025 18.001C24.554 18.001 25.0025 18.4495 25.0025 19.001C25.0025 19.5525 24.554 20.001 24.0025 20.001C23.451 20.001 23.0025 19.5525 23.0025 19.001C23.0025 18.4495 23.451 18.001 24.0025 18.001ZM22.0025 22.501C22.0025 21.674 22.6755 21.001 23.5025 21.001H24.5025C25.3295 21.001 26.0025 21.674 26.0025 22.501V24.692L25.279 25.054C25.1095 25.1385 25.0025 25.312 25.0025 25.5015V29.0015H23.0025V25.5015C23.0025 25.312 22.8955 25.139 22.726 25.054L22.0025 24.692V22.501ZM26.5025 31.001H21.5025V30.001H26.5025V31.001Z" fill="white"/>
<path d="M11.0025 29.001H10.0025V25.81L10.726 25.448C10.8955 25.3635 11.0025 25.19 11.0025 25.0005V22.5005C11.0025 21.5005 10.4085 20.642 9.5575 20.2425C9.8315 19.9 10.0025 19.472 10.0025 19.0005C10.0025 17.8975 9.1055 17.0005 8.0025 17.0005C6.8995 17.0005 6.0025 17.8975 6.0025 19.0005C6.0025 19.472 6.1735 19.9 6.4475 20.2425C5.5965 20.6425 5.0025 21.501 5.0025 22.501V25.001C5.0025 25.1905 5.1095 25.3635 5.279 25.4485L6.0025 25.8105V29.001H5.0025C4.7265 29.001 4.5025 29.225 4.5025 29.501V31.501C4.5025 31.777 4.7265 32.001 5.0025 32.001H11.0025C11.2785 32.001 11.5025 31.777 11.5025 31.501V29.501C11.5025 29.225 11.2785 29.001 11.0025 29.001ZM8.0025 18.001C8.554 18.001 9.0025 18.4495 9.0025 19.001C9.0025 19.5525 8.554 20.001 8.0025 20.001C7.451 20.001 7.0025 19.5525 7.0025 19.001C7.0025 18.4495 7.451 18.001 8.0025 18.001ZM6.0025 22.501C6.0025 21.674 6.6755 21.001 7.5025 21.001H8.5025C9.3295 21.001 10.0025 21.674 10.0025 22.501V24.692L9.279 25.054C9.1095 25.1385 9.0025 25.312 9.0025 25.5015V29.0015H7.0025V25.5015C7.0025 25.312 6.8955 25.139 6.726 25.054L6.0025 24.692V22.501ZM10.5025 31.001H5.5025V30.001H10.5025V31.001Z" fill="white"/>
<path d="M19.4355 13.654L18.752 12.9235C18.533 13.1285 18.2915 13.3085 18.0345 13.4585L18.538 14.3225C18.86 14.1345 19.162 13.91 19.4355 13.654Z" fill="white"/>
<path d="M13.783 13.3155C13.535 13.148 13.306 12.9525 13.1015 12.7345L12.372 13.418C12.6275 13.6905 12.9135 13.9345 13.2225 14.1435L13.783 13.3155Z" fill="white"/>
<path d="M20.683 11.8125L19.751 11.4495C19.6425 11.7275 19.5025 11.9945 19.3345 12.2425L20.1625 12.8035C20.372 12.4935 20.5475 12.1605 20.683 11.8125Z" fill="white"/>
<path d="M11.25 11.4965C11.3615 11.8535 11.514 12.198 11.703 12.5215L12.5665 12.0165C12.4155 11.7585 12.294 11.4835 12.205 11.1985L11.25 11.4965Z" fill="white"/>
<path d="M20.84 9.609L20.0095 9.6895C20.033 9.989 20.0225 10.2905 19.98 10.5845L20.9695 10.7295C21.0235 10.3615 21.036 9.9855 21.0055 9.5975L20.84 9.609Z" fill="white"/>
<path d="M11.0365 10.3885L11.0375 10.398L12.0335 10.311C12.0105 10.014 12.02 9.716 12.062 9.424L11.0725 9.281C11.02 9.6455 11.008 10.018 11.0365 10.3885Z" fill="white"/>
<path d="M19.473 7.9765C19.624 8.234 19.7465 8.509 19.8365 8.7945L20.79 8.493C20.6775 8.1365 20.5245 7.7925 20.335 7.4705L19.473 7.9765Z" fill="white"/>
<path d="M11.3565 8.198L12.289 8.559C12.3965 8.281 12.5365 8.014 12.7035 7.7655L11.875 7.206C11.6655 7.516 11.4915 7.85 11.3565 8.198Z" fill="white"/>
<path d="M18.2535 6.6805C18.5015 6.8475 18.7315 7.0425 18.936 7.2605L19.6645 6.575C19.4085 6.3035 19.122 6.0595 18.812 5.851L18.2535 6.6805Z" fill="white"/>
<path d="M12.6005 6.3535L13.285 7.0825C13.503 6.8775 13.744 6.697 14.002 6.546L13.4965 5.683C13.1745 5.872 12.8725 6.0975 12.6005 6.3535Z" fill="white"/>
<path d="M17.8195 5.334C17.4705 5.199 17.1055 5.104 16.7355 5.0505L16.5935 6.0405C16.889 6.083 17.1805 6.159 17.459 6.2665L17.8195 5.334Z" fill="white"/>
<path d="M15.618 5.017C15.244 5.047 14.8745 5.119 14.52 5.2305L14.8195 6.1845C15.103 6.0955 15.3985 6.038 15.6985 6.0135L15.618 5.017Z" fill="white"/>
<path d="M13.5285 9.37C13.469 9.5475 13.514 9.744 13.6445 9.878L14.468 10.722L14.2725 11.92C14.2415 12.109 14.3215 12.299 14.478 12.4095C14.635 12.52 14.841 12.531 15.008 12.4385L16.002 11.889L16.996 12.4385C17.0725 12.48 17.1555 12.501 17.2385 12.501C17.3395 12.501 17.4405 12.47 17.5265 12.4095C17.683 12.2995 17.763 12.109 17.732 11.92L17.5365 10.722L18.36 9.878C18.491 9.744 18.536 9.548 18.476 9.37C18.416 9.192 18.2625 9.0625 18.0775 9.0345L16.9595 8.8635L16.455 7.7885C16.373 7.613 16.1965 7.501 16.0025 7.501C15.8085 7.501 15.6325 7.613 15.55 7.7885L15.045 8.8635L13.927 9.0345C13.7415 9.063 13.588 9.1925 13.5285 9.37ZM15.46 9.812C15.625 9.787 15.7665 9.6815 15.837 9.5305L16.0025 9.178L16.168 9.5305C16.239 9.6815 16.38 9.787 16.545 9.8125L16.965 9.8765L16.6445 10.205C16.5335 10.3185 16.4835 10.478 16.509 10.6345L16.5795 11.0655L16.2445 10.8805C16.1695 10.839 16.086 10.818 16.0025 10.818C15.919 10.818 15.836 10.839 15.7605 10.8805L15.4255 11.0655L15.496 10.6345C15.5215 10.478 15.4715 10.3185 15.3605 10.205L15.04 9.8765L15.46 9.812Z" fill="white"/>
<path d="M4.122 20.2865C3.447 18.7715 3.0775 17.1635 3.0155 15.501H4.5025V14.501H3.015C3.091 12.4995 3.621 10.613 4.506 8.941L5.793 9.684L6.293 8.818L5.008 8.0765C6.0445 6.4365 7.437 5.044 9.077 4.0075L9.8185 5.2925L10.6845 4.7925L9.9415 3.5055C11.6135 2.6205 13.5 2.0905 15.5015 2.0145V3.501H16.5015V2.0135C18.503 2.0895 20.3895 2.6195 22.0615 3.5045L21.3185 4.7915L22.1845 5.2915L22.926 4.0065C24.566 5.043 25.9585 6.4355 26.995 8.0755L25.71 8.817L26.21 9.683L27.497 8.94C28.382 10.612 28.912 12.4985 28.988 14.5H27.5005V15.5H28.987C28.9635 16.1205 28.8965 16.7365 28.786 17.3435L27.6365 17.019C27.4525 16.967 27.255 17.0245 27.128 17.1665C27.0005 17.309 26.9655 17.511 27.037 17.688L28.057 20.2C28.1125 20.336 28.2245 20.441 28.364 20.487C28.415 20.504 28.468 20.512 28.5205 20.512C28.6115 20.512 28.702 20.487 28.781 20.439L31.2705 18.918C31.44 18.814 31.532 18.62 31.505 18.423C31.478 18.226 31.337 18.064 31.1455 18.01L29.7505 17.616C29.9125 16.7575 30 15.8805 30 15C30 7.2805 23.7195 1 16 1C8.2805 1 2 7.2805 2 15C2 16.9815 2.406 18.897 3.206 20.693L4.122 20.2865ZM28.764 19.2795L28.35 18.26L29.7745 18.662L28.764 19.2795Z" fill="white"/>
<path d="M19.0025 26.501H18.0025V23.31L18.726 22.948C18.8955 22.8635 19.0025 22.69 19.0025 22.5005V20.0005C19.0025 19.0005 18.4085 18.142 17.5575 17.7425C17.8315 17.4 18.0025 16.972 18.0025 16.5005C18.0025 15.3975 17.1055 14.5005 16.0025 14.5005C14.8995 14.5005 14.0025 15.3975 14.0025 16.5005C14.0025 16.972 14.1735 17.4 14.4475 17.7425C13.5965 18.1425 13.0025 19.001 13.0025 20.001V22.501C13.0025 22.6905 13.1095 22.8635 13.279 22.9485L14.0025 23.3105V26.501H13.0025C12.7265 26.501 12.5025 26.725 12.5025 27.001V31.501C12.5025 31.777 12.7265 32.001 13.0025 32.001H19.0025C19.2785 32.001 19.5025 31.777 19.5025 31.501V27.001C19.5025 26.725 19.2785 26.501 19.0025 26.501ZM16.0025 15.501C16.554 15.501 17.0025 15.9495 17.0025 16.501C17.0025 17.0525 16.554 17.501 16.0025 17.501C15.451 17.501 15.0025 17.0525 15.0025 16.501C15.0025 15.9495 15.451 15.501 16.0025 15.501ZM14.0025 20.001C14.0025 19.174 14.6755 18.501 15.5025 18.501H16.5025C17.3295 18.501 18.0025 19.174 18.0025 20.001V22.192L17.279 22.554C17.1095 22.6385 17.0025 22.812 17.0025 23.0015V26.5015H15.0025V23.0015C15.0025 22.812 14.8955 22.639 14.726 22.554L14.0025 22.192V20.001ZM18.5025 31.001H13.5025V27.501H18.5025V31.001Z" stroke="white" stroke-width="0.533333" mask="url(#path-1-outside-1_2022_3896)"/>
<path d="M27.0025 29.001H26.0025V25.81L26.726 25.448C26.8955 25.3635 27.0025 25.19 27.0025 25.0005V22.5005C27.0025 21.5005 26.4085 20.642 25.5575 20.2425C25.8315 19.9 26.0025 19.472 26.0025 19.0005C26.0025 17.8975 25.1055 17.0005 24.0025 17.0005C22.8995 17.0005 22.0025 17.8975 22.0025 19.0005C22.0025 19.472 22.1735 19.9 22.4475 20.2425C21.5965 20.6425 21.0025 21.501 21.0025 22.501V25.001C21.0025 25.1905 21.1095 25.3635 21.279 25.4485L22.0025 25.8105V29.001H21.0025C20.7265 29.001 20.5025 29.225 20.5025 29.501V31.501C20.5025 31.777 20.7265 32.001 21.0025 32.001H27.0025C27.2785 32.001 27.5025 31.777 27.5025 31.501V29.501C27.5025 29.225 27.2785 29.001 27.0025 29.001ZM24.0025 18.001C24.554 18.001 25.0025 18.4495 25.0025 19.001C25.0025 19.5525 24.554 20.001 24.0025 20.001C23.451 20.001 23.0025 19.5525 23.0025 19.001C23.0025 18.4495 23.451 18.001 24.0025 18.001ZM22.0025 22.501C22.0025 21.674 22.6755 21.001 23.5025 21.001H24.5025C25.3295 21.001 26.0025 21.674 26.0025 22.501V24.692L25.279 25.054C25.1095 25.1385 25.0025 25.312 25.0025 25.5015V29.0015H23.0025V25.5015C23.0025 25.312 22.8955 25.139 22.726 25.054L22.0025 24.692V22.501ZM26.5025 31.001H21.5025V30.001H26.5025V31.001Z" stroke="white" stroke-width="0.533333" mask="url(#path-1-outside-1_2022_3896)"/>
<path d="M11.0025 29.001H10.0025V25.81L10.726 25.448C10.8955 25.3635 11.0025 25.19 11.0025 25.0005V22.5005C11.0025 21.5005 10.4085 20.642 9.5575 20.2425C9.8315 19.9 10.0025 19.472 10.0025 19.0005C10.0025 17.8975 9.1055 17.0005 8.0025 17.0005C6.8995 17.0005 6.0025 17.8975 6.0025 19.0005C6.0025 19.472 6.1735 19.9 6.4475 20.2425C5.5965 20.6425 5.0025 21.501 5.0025 22.501V25.001C5.0025 25.1905 5.1095 25.3635 5.279 25.4485L6.0025 25.8105V29.001H5.0025C4.7265 29.001 4.5025 29.225 4.5025 29.501V31.501C4.5025 31.777 4.7265 32.001 5.0025 32.001H11.0025C11.2785 32.001 11.5025 31.777 11.5025 31.501V29.501C11.5025 29.225 11.2785 29.001 11.0025 29.001ZM8.0025 18.001C8.554 18.001 9.0025 18.4495 9.0025 19.001C9.0025 19.5525 8.554 20.001 8.0025 20.001C7.451 20.001 7.0025 19.5525 7.0025 19.001C7.0025 18.4495 7.451 18.001 8.0025 18.001ZM6.0025 22.501C6.0025 21.674 6.6755 21.001 7.5025 21.001H8.5025C9.3295 21.001 10.0025 21.674 10.0025 22.501V24.692L9.279 25.054C9.1095 25.1385 9.0025 25.312 9.0025 25.5015V29.0015H7.0025V25.5015C7.0025 25.312 6.8955 25.139 6.726 25.054L6.0025 24.692V22.501ZM10.5025 31.001H5.5025V30.001H10.5025V31.001Z" stroke="white" stroke-width="0.533333" mask="url(#path-1-outside-1_2022_3896)"/>
<path d="M19.4355 13.654L18.752 12.9235C18.533 13.1285 18.2915 13.3085 18.0345 13.4585L18.538 14.3225C18.86 14.1345 19.162 13.91 19.4355 13.654Z" stroke="white" stroke-width="0.533333" mask="url(#path-1-outside-1_2022_3896)"/>
<path d="M13.783 13.3155C13.535 13.148 13.306 12.9525 13.1015 12.7345L12.372 13.418C12.6275 13.6905 12.9135 13.9345 13.2225 14.1435L13.783 13.3155Z" stroke="white" stroke-width="0.533333" mask="url(#path-1-outside-1_2022_3896)"/>
<path d="M20.683 11.8125L19.751 11.4495C19.6425 11.7275 19.5025 11.9945 19.3345 12.2425L20.1625 12.8035C20.372 12.4935 20.5475 12.1605 20.683 11.8125Z" stroke="white" stroke-width="0.533333" mask="url(#path-1-outside-1_2022_3896)"/>
<path d="M11.25 11.4965C11.3615 11.8535 11.514 12.198 11.703 12.5215L12.5665 12.0165C12.4155 11.7585 12.294 11.4835 12.205 11.1985L11.25 11.4965Z" stroke="white" stroke-width="0.533333" mask="url(#path-1-outside-1_2022_3896)"/>
<path d="M20.84 9.609L20.0095 9.6895C20.033 9.989 20.0225 10.2905 19.98 10.5845L20.9695 10.7295C21.0235 10.3615 21.036 9.9855 21.0055 9.5975L20.84 9.609Z" stroke="white" stroke-width="0.533333" mask="url(#path-1-outside-1_2022_3896)"/>
<path d="M11.0365 10.3885L11.0375 10.398L12.0335 10.311C12.0105 10.014 12.02 9.716 12.062 9.424L11.0725 9.281C11.02 9.6455 11.008 10.018 11.0365 10.3885Z" stroke="white" stroke-width="0.533333" mask="url(#path-1-outside-1_2022_3896)"/>
<path d="M19.473 7.9765C19.624 8.234 19.7465 8.509 19.8365 8.7945L20.79 8.493C20.6775 8.1365 20.5245 7.7925 20.335 7.4705L19.473 7.9765Z" stroke="white" stroke-width="0.533333" mask="url(#path-1-outside-1_2022_3896)"/>
<path d="M11.3565 8.198L12.289 8.559C12.3965 8.281 12.5365 8.014 12.7035 7.7655L11.875 7.206C11.6655 7.516 11.4915 7.85 11.3565 8.198Z" stroke="white" stroke-width="0.533333" mask="url(#path-1-outside-1_2022_3896)"/>
<path d="M18.2535 6.6805C18.5015 6.8475 18.7315 7.0425 18.936 7.2605L19.6645 6.575C19.4085 6.3035 19.122 6.0595 18.812 5.851L18.2535 6.6805Z" stroke="white" stroke-width="0.533333" mask="url(#path-1-outside-1_2022_3896)"/>
<path d="M12.6005 6.3535L13.285 7.0825C13.503 6.8775 13.744 6.697 14.002 6.546L13.4965 5.683C13.1745 5.872 12.8725 6.0975 12.6005 6.3535Z" stroke="white" stroke-width="0.533333" mask="url(#path-1-outside-1_2022_3896)"/>
<path d="M17.8195 5.334C17.4705 5.199 17.1055 5.104 16.7355 5.0505L16.5935 6.0405C16.889 6.083 17.1805 6.159 17.459 6.2665L17.8195 5.334Z" stroke="white" stroke-width="0.533333" mask="url(#path-1-outside-1_2022_3896)"/>
<path d="M15.618 5.017C15.244 5.047 14.8745 5.119 14.52 5.2305L14.8195 6.1845C15.103 6.0955 15.3985 6.038 15.6985 6.0135L15.618 5.017Z" stroke="white" stroke-width="0.533333" mask="url(#path-1-outside-1_2022_3896)"/>
<path d="M13.5285 9.37C13.469 9.5475 13.514 9.744 13.6445 9.878L14.468 10.722L14.2725 11.92C14.2415 12.109 14.3215 12.299 14.478 12.4095C14.635 12.52 14.841 12.531 15.008 12.4385L16.002 11.889L16.996 12.4385C17.0725 12.48 17.1555 12.501 17.2385 12.501C17.3395 12.501 17.4405 12.47 17.5265 12.4095C17.683 12.2995 17.763 12.109 17.732 11.92L17.5365 10.722L18.36 9.878C18.491 9.744 18.536 9.548 18.476 9.37C18.416 9.192 18.2625 9.0625 18.0775 9.0345L16.9595 8.8635L16.455 7.7885C16.373 7.613 16.1965 7.501 16.0025 7.501C15.8085 7.501 15.6325 7.613 15.55 7.7885L15.045 8.8635L13.927 9.0345C13.7415 9.063 13.588 9.1925 13.5285 9.37ZM15.46 9.812C15.625 9.787 15.7665 9.6815 15.837 9.5305L16.0025 9.178L16.168 9.5305C16.239 9.6815 16.38 9.787 16.545 9.8125L16.965 9.8765L16.6445 10.205C16.5335 10.3185 16.4835 10.478 16.509 10.6345L16.5795 11.0655L16.2445 10.8805C16.1695 10.839 16.086 10.818 16.0025 10.818C15.919 10.818 15.836 10.839 15.7605 10.8805L15.4255 11.0655L15.496 10.6345C15.5215 10.478 15.4715 10.3185 15.3605 10.205L15.04 9.8765L15.46 9.812Z" stroke="white" stroke-width="0.533333" mask="url(#path-1-outside-1_2022_3896)"/>
<path d="M4.122 20.2865C3.447 18.7715 3.0775 17.1635 3.0155 15.501H4.5025V14.501H3.015C3.091 12.4995 3.621 10.613 4.506 8.941L5.793 9.684L6.293 8.818L5.008 8.0765C6.0445 6.4365 7.437 5.044 9.077 4.0075L9.8185 5.2925L10.6845 4.7925L9.9415 3.5055C11.6135 2.6205 13.5 2.0905 15.5015 2.0145V3.501H16.5015V2.0135C18.503 2.0895 20.3895 2.6195 22.0615 3.5045L21.3185 4.7915L22.1845 5.2915L22.926 4.0065C24.566 5.043 25.9585 6.4355 26.995 8.0755L25.71 8.817L26.21 9.683L27.497 8.94C28.382 10.612 28.912 12.4985 28.988 14.5H27.5005V15.5H28.987C28.9635 16.1205 28.8965 16.7365 28.786 17.3435L27.6365 17.019C27.4525 16.967 27.255 17.0245 27.128 17.1665C27.0005 17.309 26.9655 17.511 27.037 17.688L28.057 20.2C28.1125 20.336 28.2245 20.441 28.364 20.487C28.415 20.504 28.468 20.512 28.5205 20.512C28.6115 20.512 28.702 20.487 28.781 20.439L31.2705 18.918C31.44 18.814 31.532 18.62 31.505 18.423C31.478 18.226 31.337 18.064 31.1455 18.01L29.7505 17.616C29.9125 16.7575 30 15.8805 30 15C30 7.2805 23.7195 1 16 1C8.2805 1 2 7.2805 2 15C2 16.9815 2.406 18.897 3.206 20.693L4.122 20.2865ZM28.764 19.2795L28.35 18.26L29.7745 18.662L28.764 19.2795Z" stroke="white" stroke-width="0.533333" mask="url(#path-1-outside-1_2022_3896)"/>
</svg>
