<?xml version="1.0" encoding="UTF-8"?>
<svg id="Layer_1" data-name="Layer 1" xmlns="http://www.w3.org/2000/svg" viewBox="0 0 25 25">
  <defs>
    <style>
      .cls-1 {
        stroke-width: 0px;
      }
    </style>
  </defs>
  <path class="cls-1" d="M13.5,11.5h4v1h-4v-1ZM21.5,4v18c0,1.38-1.12,2.5-2.5,2.5H6c-1.38,0-2.5-1.12-2.5-2.5V4c0-.83.67-1.5,1.5-1.5h3.55c.23-1.14,1.24-2,2.45-2h3c1.21,0,2.22.86,2.45,2h3.55c.83,0,1.5.67,1.5,1.5ZM19.7,3.5h-4.2v-.5c0-.83-.67-1.5-1.5-1.5h-3c-.83,0-1.5.67-1.5,1.5v.5h-4.2c-.44,0-.8.36-.8.8v17.7c0,.83.67,1.5,1.5,1.5h13c.83,0,1.5-.67,1.5-1.5V4.3c0-.44-.36-.8-.8-.8ZM9.28,11.45c-.06.06-.17.06-.23,0l-1.79-1.73-.7.72,1.77,1.72c.22.22.51.34.82.34s.6-.12.82-.34l3.36-3.31-.7-.71-3.36,3.31ZM13.5,18.5h4v-1h-4v1ZM9.28,17.45c-.06.06-.17.06-.23,0l-1.79-1.73-.7.72,1.77,1.72c.22.22.51.34.82.34s.6-.12.82-.34l3.36-3.31-.7-.71-3.36,3.31Z"/>
</svg>