<svg width="12" height="12" viewBox="0 0 12 12" fill="none" xmlns="http://www.w3.org/2000/svg">
<path d="M3.37515 8.61875H9.36875V1.88125H3.375C3.17775 1.88125 2.98857 1.95961 2.84909 2.09909C2.70961 2.23857 2.63125 2.42775 2.63125 2.625V8.81494C2.85699 8.68653 3.11325 8.61837 3.37515 8.61875ZM3.37515 8.61875L3.375 8.71875M9.75 1.11875H3.375C2.97552 1.11875 2.5924 1.27744 2.30992 1.55992C2.02744 1.8424 1.86875 2.22552 1.86875 2.625V10.5C1.86875 10.6011 1.90892 10.6981 1.98042 10.7696C2.05191 10.8411 2.14889 10.8813 2.25 10.8813H9C9.10111 10.8813 9.19809 10.8411 9.26959 10.7696C9.34108 10.6981 9.38125 10.6011 9.38125 10.5C9.38125 10.3989 9.34108 10.3019 9.26959 10.2304C9.19809 10.1589 9.10111 10.1187 9 10.1187H2.63128C2.63291 9.92375 2.71108 9.7371 2.84909 9.59909C2.98857 9.45961 3.17775 9.38125 3.375 9.38125H9.75C9.85111 9.38125 9.94809 9.34108 10.0196 9.26958C10.0911 9.19809 10.1313 9.10111 10.1313 9V1.5C10.1313 1.39889 10.0911 1.30191 10.0196 1.23042C9.94809 1.15892 9.85111 1.11875 9.75 1.11875Z" fill="#0494FD" stroke="#0494FD" stroke-width="0.2"/>
</svg>
