<?xml version="1.0" encoding="UTF-8"?>
<svg id="Layer_2" data-name="Layer 2" xmlns="http://www.w3.org/2000/svg" viewBox="0 0 25 25">
  <defs>
    <style>
      .cls-1 {
        stroke-width: 0px;
      }
    </style>
  </defs>
  <path class="cls-1" d="M13.48,11.5h4v1h-4v-1ZM21.48,4v18c0,1.38-1.12,2.5-2.5,2.5H5.98c-1.38,0-2.5-1.12-2.5-2.5V4c0-.83.67-1.5,1.5-1.5h3.55c.23-1.14,1.24-2,2.45-2h3c1.21,0,2.22.86,2.45,2h3.55c.83,0,1.5.67,1.5,1.5ZM19.68,3.5h-4.2v-.5c0-.83-.67-1.5-1.5-1.5h-3c-.83,0-1.5.67-1.5,1.5v.5h-4.2c-.44,0-.8.36-.8.8v17.7c0,.83.67,1.5,1.5,1.5h13c.83,0,1.5-.67,1.5-1.5V4.3c0-.44-.36-.8-.8-.8ZM13.48,18.5h4v-1h-4v1Z"/>
  <path class="cls-1" d="M12.1,10.93v-.39c0-1.08-.88-1.96-1.96-1.96h-.79v-1.57h-.79v1.57h-.79c-1.08,0-1.96.88-1.96,1.96s.77,1.98,1.83,2.15l2.49.4c.68.11,1.17.69,1.17,1.38,0,.65-.53,1.18-1.18,1.18h-2.36c-.65,0-1.18-.53-1.18-1.18v-.39h-.79v.39c0,1.08.88,1.96,1.96,1.96h.79v1.57h.79v-1.57h.79c1.08,0,1.96-.88,1.96-1.96s-.77-1.98-1.83-2.15l-2.49-.4c-.68-.11-1.17-.69-1.17-1.38,0-.65.53-1.18,1.18-1.18h2.36c.65,0,1.18.53,1.18,1.18v.39h.79Z"/>
</svg>