<svg width="14" height="14" viewBox="0 0 14 14" fill="none" xmlns="http://www.w3.org/2000/svg">
<path d="M11.849 2.91659H10.0625V2.15096C10.0625 1.44707 9.48972 0.875 8.78654 0.875H2.15096C1.44778 0.875 0.875 1.44707 0.875 2.15096V10.2431C0.875 10.5535 1.04487 10.8382 1.31906 10.9848C1.44419 11.0516 1.58033 11.0844 1.71671 11.0844C1.87964 11.0844 2.04186 11.037 2.18278 10.9434L3.9375 9.77348V11.5935H9.73017L11.8172 12.9855C11.9581 13.0795 12.1204 13.1264 12.2833 13.1264C12.4197 13.1264 12.5558 13.0937 12.6809 13.0269C12.9551 12.8805 13.125 12.5955 13.125 12.2852V4.19279C13.125 3.48889 12.5522 2.91659 11.849 2.91659ZM1.8995 10.5192C1.79686 10.5886 1.66981 10.5944 1.56 10.535C1.45065 10.4769 1.38534 10.3676 1.38534 10.2436V2.15096C1.38534 1.72891 1.72891 1.38534 2.15096 1.38534H8.7863C9.20835 1.38534 9.55192 1.72891 9.55192 2.15096V9.04159H4.11551L1.8995 10.5192ZM12.6147 12.2854C12.6147 12.4094 12.5493 12.5187 12.44 12.5769C12.3302 12.6355 12.2041 12.63 12.1005 12.5611L9.88473 11.0834H4.44784V9.55216H10.0625V3.42716H11.849C12.2711 3.42716 12.6147 3.77074 12.6147 4.19279V12.2854Z" fill="white"/>
<path fill-rule="evenodd" clip-rule="evenodd" d="M1.31917 10.9848C1.04498 10.8382 0.875107 10.5534 0.875107 10.2431V2.15095C0.875107 1.44705 1.44789 0.874985 2.15107 0.874985H8.78665C9.48982 0.874985 10.0626 1.44705 10.0626 2.15095V2.91657H11.8491C12.5523 2.91657 13.1251 3.48888 13.1251 4.19277V12.2852C13.1251 12.5955 12.9552 12.8805 12.681 13.0269C12.5559 13.0936 12.4198 13.1264 12.2834 13.1264C12.1205 13.1264 11.9582 13.0795 11.8173 12.9855L9.73028 11.5935H3.93761V9.77346L2.18289 10.9434C2.04197 11.037 1.87975 11.0844 1.71682 11.0844C1.58044 11.0844 1.4443 11.0516 1.31917 10.9848ZM3.79761 10.0351L2.26056 11.0599C2.09638 11.1689 1.90694 11.2244 1.71682 11.2244C1.55785 11.2244 1.39903 11.1861 1.25328 11.1083C0.933403 10.9372 0.735107 10.6049 0.735107 10.2431V2.15095C0.735107 1.36968 1.37062 0.734985 2.15107 0.734985H8.78665C9.56709 0.734985 10.2026 1.36968 10.2026 2.15095V2.77657H11.8491C12.6296 2.77657 13.2651 3.41154 13.2651 4.19277V12.2852C13.2651 12.6469 13.067 12.9795 12.747 13.1504C12.6012 13.2281 12.4424 13.2664 12.2834 13.2664C12.0935 13.2664 11.9042 13.2117 11.7396 13.102L9.68787 11.7335H3.79761V10.0351ZM1.82194 10.4027L4.07322 8.90157H9.41203V2.15095C9.41203 1.80622 9.13114 1.52532 8.78641 1.52532H2.15107C1.80634 1.52532 1.52544 1.80622 1.52544 2.15095V10.2436C1.52544 10.3161 1.56249 10.3777 1.62583 10.4114C1.69042 10.4463 1.76312 10.4425 1.82194 10.4027ZM4.11562 9.04157H9.55203V2.15095C9.55203 1.7289 9.20846 1.38532 8.78641 1.38532H2.15107C1.72902 1.38532 1.38544 1.7289 1.38544 2.15095V10.2436C1.38544 10.3675 1.45076 10.4769 1.5601 10.535C1.66992 10.5944 1.79697 10.5886 1.89961 10.5192L4.11562 9.04157ZM12.3744 12.4532C12.4377 12.4196 12.4748 12.3579 12.4748 12.2854V4.19277C12.4748 3.84804 12.1939 3.56715 11.8491 3.56715H10.2026V9.69215H4.58794V10.9434H9.92724L12.1781 12.4445M12.4401 12.5768C12.5495 12.5187 12.6148 12.4094 12.6148 12.2854V4.19277C12.6148 3.77072 12.2712 3.42715 11.8491 3.42715H10.0626V9.55215H4.44794V11.0834H9.88484L12.1006 12.5611C12.2042 12.63 12.3303 12.6355 12.4401 12.5768ZM12.3744 12.4532C12.3096 12.4878 12.2383 12.4845 12.1781 12.4445Z" fill="white"/>
</svg>
