<svg width="21" height="20" viewBox="0 0 21 20" fill="none"
    xmlns="http://www.w3.org/2000/svg">
    <circle cx="8.40001" cy="8" r="8" fill="#D9FFF1"/>
    <path d="M11.3332 14.8004L11.333 14.8003L8.77773 12.9751L9.75245 10.7261C9.92816 10.8837 10.1013 11.0574 10.2811 11.2379C10.3142 11.2711 10.3476 11.3045 10.3812 11.3381C10.8727 11.8354 11.4017 12.3704 12.0992 12.7801C12.798 13.1906 13.6642 13.4746 14.8307 13.4746C15.0782 13.4746 15.2814 13.2732 15.2845 13.0264H15.2846V13.0207H15.2845C15.2814 12.773 15.0773 12.5782 14.8307 12.5782C13.847 12.5782 13.1234 12.3417 12.5325 11.9915C11.9402 11.6405 11.4795 11.1744 11.021 10.7102L11.0208 10.71C10.991 10.6803 10.9612 10.6504 10.9314 10.6205C10.7222 10.4106 10.5099 10.1977 10.2844 10.0022L10.2844 10.0022C9.24328 9.10074 7.756 9.13836 6.00718 10.0813L6.00671 10.0816C5.20134 10.5271 4.44732 11.0641 3.7618 11.6868L3.76179 11.6867L3.76074 11.6877C3.58811 11.854 3.57483 12.1352 3.74143 12.3149C3.90819 12.5006 4.19559 12.5127 4.38056 12.3469L4.38065 12.3468C5.00922 11.7805 5.70568 11.2822 6.44732 10.8746C7.44951 10.335 8.28637 10.1492 8.94238 10.307L5.26833 18.763L5.26827 18.763L5.26732 18.7655C5.18468 18.988 5.27986 19.2376 5.49768 19.3401L5.49818 19.3403C5.72205 19.4427 5.99011 19.3468 6.09864 19.1233L6.09868 19.1233L6.09952 19.1214L8.4014 13.831L10.6112 15.4071V18.9365C10.6112 19.186 10.8156 19.3904 11.065 19.3904C11.3145 19.3904 11.5189 19.186 11.5189 18.9365V15.1709C11.5189 15.0247 11.4492 14.8841 11.3332 14.8004ZM11.0707 8.63383C12.2133 8.63383 13.1401 7.70701 13.1401 6.56449C13.1401 5.42188 12.2075 4.49515 11.0707 4.49515C9.934 4.49515 9.00139 5.42188 9.00139 6.56449C9.00139 7.70701 9.92822 8.63383 11.0707 8.63383ZM11.0707 5.40289C11.7088 5.40289 12.2323 5.92104 12.2323 6.56449C12.2323 7.20809 11.7143 7.7261 11.0707 7.7261C10.4271 7.7261 9.90913 7.20809 9.90913 6.56449C9.90913 5.92089 10.4271 5.40289 11.0707 5.40289Z" fill="#2DC38D" stroke="#2DC38D" stroke-width="0.1"/>
    <path d="M13.7158 10.514C13.606 10.3717 13.5997 10.1433 13.7031 9.99458C13.7031 9.99452 13.7031 9.99447 13.7032 9.99442L17.5308 4.41503C17.5309 4.41494 17.531 4.41485 17.531 4.41475C17.5971 4.31589 17.7095 4.26148 17.8211 4.29852C17.9012 4.32411 17.9613 4.39112 17.997 4.4706C18.0331 4.55081 18.0471 4.6489 18.0314 4.74652L18.0312 4.7472L18.0312 4.7472L17.474 7.92167L19.5153 9.15538L19.5172 9.15653L19.5171 9.15657C19.5993 9.21133 19.6564 9.31026 19.6752 9.42317L19.6849 9.48139H19.6755C19.6791 9.57607 19.6535 9.66803 19.6054 9.74284L19.6046 9.7441L19.6046 9.74409L15.7764 15.3242M13.7158 10.514C13.7157 10.5139 13.7157 10.5138 13.7156 10.5137L13.7556 10.4837L13.716 10.5143C13.716 10.5142 13.7159 10.5141 13.7158 10.514ZM13.7158 10.514C13.7346 10.539 13.7621 10.5679 13.7938 10.5843M13.7938 10.5843L15.8335 11.8171M13.7938 10.5843L13.7923 10.5834L13.8182 10.5406L13.7958 10.5853C13.7952 10.585 13.7945 10.5847 13.7938 10.5843ZM15.8335 11.8171L15.2763 14.9916L15.2762 14.9923C15.2514 15.1472 15.2994 15.3158 15.4146 15.404L15.4146 15.404L15.4162 15.4051C15.4758 15.4472 15.5444 15.4604 15.6101 15.4449C15.6752 15.4295 15.7335 15.3869 15.7764 15.3242M15.8335 11.8171L15.8395 11.7834L15.8887 11.792L15.8628 11.8348L15.8335 11.8171ZM15.7764 15.3242L15.7764 15.3243L15.7351 15.296M15.7764 15.3242L15.7351 15.296M15.7351 15.296C15.6612 15.4041 15.5417 15.4325 15.445 15.3643L19.6254 9.48139C19.6291 9.56657 19.6062 9.64916 19.5633 9.7158L15.7351 15.296ZM18.9062 9.61739L16.0936 13.713L16.4498 11.6874C16.4498 11.6873 16.4498 11.6872 16.4499 11.6871C16.4808 11.5195 16.4208 11.3418 16.2896 11.2655L14.3899 10.1157L17.2045 6.00948L16.8464 8.04572C16.8464 8.0458 16.8463 8.04588 16.8463 8.04595C16.8154 8.21354 16.8754 8.39131 17.0066 8.46758L18.9062 9.61739Z" fill="#2DC38D" stroke="#2DC38D" stroke-width="0.1"/>
</svg>
