<?xml version="1.0" encoding="UTF-8"?>
<svg id="Layer_1" data-name="Layer 1" xmlns="http://www.w3.org/2000/svg" viewBox="0 0 512 512">
  <defs>
    <style>
      .cls-1 {
        stroke-width: 0px;
      }
    </style>
  </defs>
  <path class="cls-1" d="M458.67,85.33h-74.67v-32c0-29.42-23.94-53.33-53.33-53.33H53.33C23.94,0,0,23.91,0,53.33v338.22c0,12.97,7.1,24.87,18.56,31,5.23,2.79,10.92,4.16,16.62,4.16,6.81,0,13.59-1.98,19.48-5.89l73.34-48.9v76.07h242.11l87.23,58.18c5.89,3.93,12.67,5.89,19.48,5.89,5.7,0,11.39-1.37,16.62-4.16,11.46-6.12,18.56-18.03,18.56-31V138.67c0-29.42-23.94-53.33-53.33-53.33ZM42.82,403.09c-4.29,2.9-9.6,3.14-14.19.66-4.57-2.43-7.3-7-7.3-12.18V53.33c0-17.64,14.36-32,32-32h277.33c17.64,0,32,14.36,32,32v288h-227.22l-92.61,61.76h-.02ZM490.67,476.91c0,5.18-2.73,9.75-7.3,12.18-4.59,2.45-9.86,2.22-14.19-.66l-92.61-61.76h-227.24v-64h234.67V106.67h74.67c17.64,0,32,14.36,32,32v338.24Z"/>
</svg>