<svg width="83" height="85" viewBox="0 0 83 85" fill="none" xmlns="http://www.w3.org/2000/svg">
<path d="M75.6557 70.6681C75.6557 72.8346 73.701 74.591 71.291 74.591H11.0112C8.60212 74.591 6.64746 72.8346 6.64746 70.6681V30.1248C6.64746 27.9574 8.60212 26.2018 11.0112 26.2018H71.291C73.701 26.2018 75.6557 27.9574 75.6557 30.1248V70.6681Z" fill="#3EDCA3"/>
<path d="M74.1633 26.9572L45.0723 8.01678C42.9076 6.60484 39.3968 6.60484 37.2321 8.01678C37.2321 8.01678 8.16369 26.9085 7.91304 27.1168C7.91304 27.1168 6.72656 28.3699 6.72656 29.426L37.233 49.3358C39.3968 50.7477 42.9076 50.7477 45.0742 49.3358L75.5779 29.426C75.3922 28.4972 74.9396 27.5351 74.1633 26.9572Z" fill="white"/>
<path d="M11.0108 74.5909H71.2906C73.4337 74.5909 75.209 73.1977 75.5759 71.3659L45.0704 47.6345C42.9048 46.2225 39.3949 46.2225 37.2301 47.6345L6.72461 71.3651C7.09156 73.1977 8.865 74.5909 11.0108 74.5909Z" fill="#2DC38D"/>
<path d="M16.0054 15.6301C14.7846 15.6301 13.7949 16.6198 13.7949 17.8406V32.8426C13.7949 33.5894 14.1719 34.2856 14.7973 34.6938L37.2328 49.3366C39.3967 50.7485 42.9075 50.7485 45.074 49.3366L67.5033 34.697C68.1286 34.2889 68.5056 33.5926 68.5056 32.8459V17.8406C68.5056 16.6198 67.5159 15.6301 66.2951 15.6301H16.0054Z" fill="#FFB000"/>
<path d="M37.2328 45.5149L13.7949 30.2179V34.0395L37.2328 49.3366C39.3967 50.7485 42.9075 50.7485 45.074 49.3366L68.5056 34.0428V30.2219L45.074 45.5149C42.9075 46.9285 39.3967 46.9285 37.2328 45.5149Z" fill="#FF9500"/>
<path d="M52.7309 23.9307H29.5689C28.9369 23.9307 28.4238 23.4703 28.4238 22.9021C28.4238 22.3339 28.936 21.8744 29.5689 21.8744H52.7309C53.3629 21.8744 53.8732 22.3347 53.8732 22.9021C53.8732 23.4695 53.3629 23.9307 52.7309 23.9307Z" fill="white"/>
<path d="M60.1522 29.5225H22.149C21.517 29.5225 21.0049 29.063 21.0049 28.4948C21.0049 27.9266 21.5161 27.4662 22.149 27.4662H60.1522C60.7842 27.4662 61.2964 27.9258 61.2964 28.4948C61.2955 29.0622 60.7842 29.5225 60.1522 29.5225Z" fill="white"/>
<path d="M60.1522 34.0428H22.149C21.517 34.0428 21.0049 33.5824 21.0049 33.0134C21.0049 32.4461 21.5161 31.9857 22.149 31.9857H60.1522C60.7842 31.9857 61.2964 32.4453 61.2964 33.0134C61.2955 33.5816 60.7842 34.0428 60.1522 34.0428Z" fill="white"/>
<path d="M60.1522 38.5622H22.149C21.517 38.5622 21.0049 38.1019 21.0049 37.5345C21.0049 36.9671 21.5161 36.506 22.149 36.506H60.1522C60.7842 36.506 61.2964 36.9663 61.2964 37.5345C61.2955 38.1019 60.7842 38.5622 60.1522 38.5622Z" fill="white"/>
<path d="M60.1516 38.5624C60.7836 38.5624 61.2957 38.102 61.2957 37.5346C61.2957 36.9673 60.7845 36.5061 60.1516 36.5061H58.8776L55.7266 38.5624H60.1516Z" fill="#E6EBF7"/>
<path d="M23.4283 36.506H22.148C21.516 36.506 21.0039 36.9664 21.0039 37.5346C21.0039 38.1019 21.5151 38.5623 22.148 38.5623H26.5785L23.4283 36.506Z" fill="#E6EBF7"/>
<g filter="url(#filter0_b_1923_12854)">
<path d="M72.1688 60.8947L62.1318 65.0883C62.1318 65.0883 62.8557 72.8515 64.0003 77.748C64.5297 80.0125 72.1685 84.8697 72.1685 84.8697C72.1685 84.8697 79.8079 80.0122 80.3372 77.748C81.4826 72.8515 82.2058 65.0883 82.2058 65.0883L72.1688 60.8947Z" fill="white" fill-opacity="0.33"/>
<path d="M72.1688 60.8947L62.1318 65.0883C62.1318 65.0883 62.8557 72.8515 64.0003 77.748C64.5297 80.0125 72.1685 84.8697 72.1685 84.8697C72.1685 84.8697 79.8079 80.0122 80.3372 77.748C81.4826 72.8515 82.2058 65.0883 82.2058 65.0883L72.1688 60.8947Z" fill="black" fill-opacity="0.04"/>
</g>
<g filter="url(#filter1_b_1923_12854)">
<path d="M80.3381 77.7484C81.4834 72.8518 82.2066 65.0886 82.2066 65.0886L72.1689 60.8951V84.8704C72.1689 84.8704 79.8084 80.0129 80.3381 77.7484Z" fill="white" fill-opacity="0.1"/>
<path d="M80.3381 77.7484C81.4834 72.8518 82.2066 65.0886 82.2066 65.0886L72.1689 60.8951V84.8704C72.1689 84.8704 79.8084 80.0129 80.3381 77.7484Z" fill="black" fill-opacity="0.1"/>
</g>
<path d="M72.1693 82.8676C68.8769 80.6786 65.9286 78.2066 65.6289 77.3445C64.7671 73.6561 64.1382 68.872 63.9053 66.1672L72.1687 62.7143L80.4324 66.1672C80.1988 68.8733 79.5693 73.6624 78.7028 77.3667C78.4084 78.2103 75.4607 80.6802 72.1693 82.8676Z" fill="white"/>
<path d="M72.1693 82.8675C75.4607 80.6801 78.4083 78.2102 78.7031 77.3662C79.5692 73.6623 80.1991 68.8729 80.4327 66.1667L72.1689 62.7139V82.8672L72.1693 82.8675Z" fill="white"/>
<path d="M72.1691 76.3797C71.9008 76.3797 71.6329 76.2774 71.4274 76.0726L68.9793 73.6245C68.5694 73.2146 68.5694 72.5503 68.9793 72.1404C69.3892 71.7309 70.0528 71.7309 70.4627 72.1404L72.1691 73.8468L76.3246 69.692C76.7342 69.2828 77.3985 69.2824 77.8077 69.6923C78.2176 70.1019 78.2176 70.7662 77.8077 71.1764L72.9112 76.073C72.7064 76.2774 72.4381 76.3797 72.1691 76.3797Z" fill="#2DC38D"/>
<path d="M72.911 76.0727L77.8076 71.1761C78.2175 70.7659 78.2175 70.1019 77.8076 69.692C77.3983 69.2821 76.734 69.2825 76.3245 69.6917L72.1689 73.8466V76.3794C72.4379 76.3797 72.7062 76.2775 72.911 76.0727Z" fill="#2DC38D"/>
<defs>
<filter id="filter0_b_1923_12854" x="29.7108" y="28.4737" width="84.9163" height="88.8171" filterUnits="userSpaceOnUse" color-interpolation-filters="sRGB">
<feFlood flood-opacity="0" result="BackgroundImageFix"/>
<feGaussianBlur in="BackgroundImageFix" stdDeviation="16.2105"/>
<feComposite in2="SourceAlpha" operator="in" result="effect1_backgroundBlur_1923_12854"/>
<feBlend mode="normal" in="SourceGraphic" in2="effect1_backgroundBlur_1923_12854" result="shape"/>
</filter>
<filter id="filter1_b_1923_12854" x="39.7479" y="28.474" width="74.8802" height="88.8175" filterUnits="userSpaceOnUse" color-interpolation-filters="sRGB">
<feFlood flood-opacity="0" result="BackgroundImageFix"/>
<feGaussianBlur in="BackgroundImageFix" stdDeviation="16.2105"/>
<feComposite in2="SourceAlpha" operator="in" result="effect1_backgroundBlur_1923_12854"/>
<feBlend mode="normal" in="SourceGraphic" in2="effect1_backgroundBlur_1923_12854" result="shape"/>
</filter>
</defs>
</svg>
