<svg width="108" height="116" viewBox="0 0 108 116" fill="none" xmlns="http://www.w3.org/2000/svg">
<path d="M75.7055 54.1813C73.3878 54.1813 71.5087 52.3022 71.5087 49.9841V27.7038C71.5087 18.6779 64.1657 11.335 55.1394 11.335H50.8547C41.8288 11.335 34.4853 18.6784 34.4853 27.7038V49.9841C34.4853 52.3022 32.6067 54.1813 30.2886 54.1813C27.9709 54.1813 26.0918 52.3022 26.0918 49.9841V27.7038C26.0918 14.0492 37.201 2.94095 50.8542 2.94095H55.1389C68.7931 2.94095 79.9018 14.0492 79.9018 27.7038V49.9841C79.9022 52.3022 78.0236 54.1813 75.7055 54.1813Z" fill="#4D4D4D"/>
<path d="M55.1394 2.94142H52.9971V11.335H55.1394C64.1658 11.335 71.5087 18.6784 71.5087 27.7038V49.9841C71.5087 52.3022 73.3878 54.1813 75.7055 54.1813C78.0237 54.1813 79.9023 52.3022 79.9023 49.9841V27.7038C79.9023 14.0496 68.7936 2.94142 55.1394 2.94142Z" fill="#404040"/>
<path d="M89.5674 94.0209C89.5674 97.9946 86.3461 101.216 82.3719 101.216H23.6208C19.6471 101.216 16.4258 97.9951 16.4258 94.0209V44.8033C16.4258 40.8301 19.6466 37.6088 23.6208 37.6088H82.3719C86.3456 37.6088 89.5674 40.8301 89.5674 44.8033V94.0209Z" fill="#22A2FF"/>
<path d="M82.3726 37.6092H52.9971V101.216H82.3726C86.3463 101.216 89.5681 97.9951 89.5681 94.0209V44.8033C89.5681 40.8301 86.3468 37.6092 82.3726 37.6092Z" fill="#0494FD"/>
<path d="M80.1669 77.0263C80.1669 78.5604 78.923 79.8048 77.3884 79.8048H28.6047C27.0701 79.8048 25.8262 78.5604 25.8262 77.0263V61.7984C25.8262 60.2643 27.0701 59.0199 28.6047 59.0199H77.3884C78.923 59.0199 80.1669 60.2643 80.1669 61.7984V77.0263Z" fill="#4D4D4D" fill-opacity="0.2"/>
<path d="M77.3889 59.0204H52.9971V79.8053H77.3889C78.9235 79.8053 80.1674 78.5609 80.1674 77.0268V61.7988C80.1674 60.2643 78.9235 59.0204 77.3889 59.0204Z" fill="#404040" fill-opacity="0.1"/>
<path d="M35.7175 69.7988L35.0478 69.4126L35.7184 69.0256C36.0942 68.8086 36.2227 68.327 36.0062 67.9513C35.7879 67.5747 35.3068 67.4456 34.9315 67.663L34.2618 68.0496V67.2774C34.2618 66.8426 33.9093 66.49 33.475 66.49C33.0402 66.49 32.6881 66.8426 32.6881 67.2774V68.0501L32.0184 67.663C31.6422 67.4456 31.1611 67.5751 30.9432 67.9513C30.7262 68.3275 30.8553 68.8086 31.2315 69.0256L31.9012 69.4122L31.2319 69.7983C30.8553 70.0157 30.7262 70.4968 30.9441 70.873C31.1611 71.2497 31.6426 71.3778 32.0184 71.1608L32.6881 70.7747V71.5484C32.6881 71.9832 33.0402 72.3353 33.475 72.3353C33.9093 72.3353 34.2618 71.9832 34.2618 71.5484V70.7752L34.9306 71.1618C35.3068 71.3787 35.7874 71.2497 36.0053 70.8735C36.2227 70.4968 36.0942 70.0162 35.7175 69.7988Z" fill="white"/>
<path d="M45.4789 69.7988L44.8102 69.4126L45.4799 69.0256C45.8556 68.8086 45.9841 68.327 45.7677 67.9513C45.5498 67.5747 45.0682 67.4456 44.693 67.663L44.0233 68.0496V67.2774C44.0233 66.8426 43.6712 66.49 43.2364 66.49C42.802 66.49 42.4495 66.8426 42.4495 67.2774V68.0501L41.7793 67.663C41.4031 67.4456 40.922 67.5751 40.7041 67.9513C40.4867 68.3275 40.6162 68.8086 40.9924 69.0256L41.6621 69.4122L40.9929 69.7983C40.6162 70.0157 40.4872 70.4968 40.7046 70.873C40.922 71.2497 41.4031 71.3778 41.7793 71.1608L42.449 70.7747V71.5484C42.449 71.9832 42.8016 72.3353 43.2359 72.3353C43.6707 72.3353 44.0228 71.9832 44.0228 71.5484V70.7752L44.6915 71.1618C45.0677 71.3787 45.5489 71.2497 45.7663 70.8735C45.9841 70.4968 45.8556 70.0162 45.4789 69.7988Z" fill="white"/>
<path d="M55.2409 69.7988L54.5717 69.4126L55.2423 69.0256C55.618 68.8086 55.7461 68.327 55.5297 67.9513C55.3123 67.5747 54.8302 67.4456 54.455 67.663L53.7857 68.0496V67.2774C53.7857 66.8426 53.4332 66.49 52.9984 66.49C52.564 66.49 52.2115 66.8426 52.2115 67.2774V68.0501L51.5418 67.663C51.1661 67.4456 50.6845 67.5751 50.4671 67.9513C50.2492 68.3275 50.3792 68.8086 50.7544 69.0256L51.4246 69.4122L50.7554 69.7983C50.3792 70.0157 50.2501 70.4968 50.4675 70.873C50.6845 71.2497 51.1665 71.3778 51.5423 71.1608L52.2115 70.7747V71.5484C52.2115 71.9832 52.564 72.3353 52.9984 72.3353C53.4332 72.3353 53.7857 71.9832 53.7857 71.5484V70.7752L54.454 71.1618C54.8302 71.3787 55.3118 71.2497 55.5287 70.8735C55.7466 70.4968 55.618 70.0162 55.2409 69.7988Z" fill="white"/>
<path d="M65.0017 69.7988L64.332 69.4126L65.0026 69.0256C65.3788 68.8086 65.5074 68.327 65.2904 67.9513C65.0726 67.5747 64.5914 67.4456 64.2157 67.663L63.546 68.0496V67.2774C63.546 66.8426 63.1935 66.49 62.7591 66.49C62.3243 66.49 61.9718 66.8426 61.9718 67.2774V68.0501L61.3021 67.663C60.9263 67.4456 60.4452 67.5751 60.2274 67.9513C60.0104 68.3275 60.1394 68.8086 60.5156 69.0256L61.1849 69.4122L60.5156 69.7983C60.139 70.0157 60.0109 70.4968 60.2278 70.873C60.4452 71.2497 60.9263 71.3778 61.3025 71.1608L61.9718 70.7747V71.5484C61.9718 71.9832 62.3243 72.3353 62.7591 72.3353C63.1935 72.3353 63.546 71.9832 63.546 71.5484V70.7752L64.2148 71.1618C64.591 71.3787 65.0726 71.2497 65.289 70.8735C65.5074 70.4968 65.3788 70.0162 65.0017 69.7988Z" fill="white"/>
<path d="M74.7633 69.7988L74.0936 69.4126L74.7642 69.0256C75.1404 68.8086 75.269 68.327 75.0521 67.9513C74.8347 67.5747 74.3535 67.4456 73.9773 67.663L73.3077 68.0496V67.2774C73.3077 66.8426 72.9551 66.49 72.5208 66.49C72.0864 66.49 71.7339 66.8426 71.7339 67.2774V68.0501L71.0637 67.663C70.688 67.4456 70.2069 67.5751 69.989 67.9513C69.7721 68.3275 69.9016 68.8086 70.2768 69.0256L70.947 69.4122L70.2773 69.7983C69.9016 70.0157 69.7725 70.4968 69.9895 70.873C70.2069 71.2497 70.6884 71.3778 71.0642 71.1608L71.7339 70.7747V71.5484C71.7339 71.9832 72.0864 72.3353 72.5208 72.3353C72.9551 72.3353 73.3077 71.9832 73.3077 71.5484V70.7752L73.9764 71.1618C74.3526 71.3787 74.8342 71.2497 75.0511 70.8735C75.269 70.4968 75.1404 70.0162 74.7633 69.7988Z" fill="white"/>
<rect x="72.7159" y="80.193" width="29.9123" height="29.9123" rx="14.9561" fill="white"/>
<rect x="72.7159" y="80.193" width="29.9123" height="29.9123" rx="14.9561" stroke="#EDEDED" stroke-width="0.964912"/>
<path d="M87.8516 98.9326C87.6466 98.9326 87.4856 98.8667 87.3684 98.735C87.2513 98.6032 87.1928 98.4129 87.1928 98.164C87.1928 97.6662 87.2513 97.1978 87.3684 96.7586C87.4856 96.3194 87.6759 95.8802 87.9394 95.441C88.2176 94.9872 88.5836 94.4967 89.0374 93.9697C89.3887 93.5598 89.6669 93.1938 89.8719 92.8717C90.0915 92.5496 90.2452 92.2422 90.333 91.9494C90.4355 91.642 90.4867 91.3272 90.4867 91.0051C90.4867 90.4195 90.2745 89.9584 89.8499 89.6217C89.44 89.2703 88.8617 89.0946 88.1151 89.0946C87.4563 89.0946 86.8487 89.1971 86.2924 89.4021C85.7508 89.5924 85.2237 89.8632 84.7113 90.2146C84.4771 90.3756 84.2575 90.4561 84.0525 90.4561C83.8476 90.4561 83.6792 90.3976 83.5475 90.2805C83.4303 90.1633 83.3498 90.0169 83.3059 89.8413C83.2766 89.6656 83.3059 89.4826 83.3937 89.2923C83.4816 89.0873 83.6353 88.9043 83.8549 88.7433C84.4405 88.3041 85.1212 87.9601 85.8971 87.7112C86.6731 87.4623 87.4416 87.3379 88.2029 87.3379C89.0667 87.3379 89.8206 87.4843 90.4648 87.7771C91.1089 88.0699 91.614 88.4798 91.98 89.0068C92.346 89.5192 92.529 90.1267 92.529 90.8295C92.529 91.2979 92.4631 91.7371 92.3313 92.147C92.1996 92.557 91.9873 92.9742 91.6945 93.3987C91.4017 93.8233 91.0064 94.2918 90.5087 94.8042C90.0549 95.2726 89.6815 95.7045 89.3887 96.0998C89.1106 96.4804 88.9056 96.8464 88.7739 97.1978C88.6568 97.5491 88.5762 97.9298 88.5323 98.3397C88.5177 98.5154 88.4518 98.6618 88.3347 98.7789C88.2176 98.8814 88.0565 98.9326 87.8516 98.9326ZM87.8296 103.105C87.4343 103.105 87.1123 102.981 86.8634 102.732C86.6291 102.483 86.512 102.168 86.512 101.787C86.512 101.407 86.6291 101.099 86.8634 100.865C87.1123 100.631 87.4343 100.514 87.8296 100.514C88.2249 100.514 88.5396 100.631 88.7739 100.865C89.0081 101.099 89.1252 101.407 89.1252 101.787C89.1252 102.168 89.0081 102.483 88.7739 102.732C88.5396 102.981 88.2249 103.105 87.8296 103.105Z" fill="#F1282E"/>
</svg>
