<svg width="320" height="320" viewBox="0 0 320 320" fill="none" xmlns="http://www.w3.org/2000/svg">
<path d="M159.965 306.848C233.576 306.848 293.25 271.452 293.25 227.789C293.25 184.126 233.576 148.73 159.965 148.73C86.3535 148.73 26.6797 184.126 26.6797 227.789C26.6797 271.452 86.3535 306.848 159.965 306.848Z" fill="url(#paint0_linear_514_20050)"/>
<path d="M82.1287 269.663C104.118 269.663 121.944 259.371 121.944 246.675C121.944 233.98 104.118 223.688 82.1287 223.688C60.1391 223.688 42.313 233.98 42.313 246.675C42.313 259.371 60.1391 269.663 82.1287 269.663Z" fill="white" fill-opacity="0.32"/>
<path d="M212.046 282.663C210.513 282.663 209.025 282.292 207.858 281.617L101.08 219.969C99.4068 219.002 98.4468 217.476 98.4468 215.78C98.4468 214.085 99.4061 212.559 101.079 211.592L165.513 174.392C166.68 173.718 168.168 173.346 169.701 173.346C171.233 173.346 172.721 173.718 173.889 174.392L280.668 236.04C282.341 237.007 284.446 237.93 284.446 240.229C284.446 242.529 282.341 243.452 280.667 244.417L216.235 281.618C215.066 282.292 213.578 282.663 212.046 282.663Z" fill="white" fill-opacity="0.32"/>
<path d="M265.273 214.325L257.381 209.773C257.381 209.773 254.85 197.462 256.55 185.107C259.447 164.058 270.877 160.908 275.246 162.397C279.614 163.888 280.894 168.957 273.704 179.364C269.463 185.504 264.268 198.282 265.273 214.325Z" fill="#37474F"/>
<path d="M260.314 207.444C260.332 207.444 260.349 207.443 260.368 207.441C260.579 207.411 260.726 207.215 260.696 207.004C258.4 190.796 264.86 173.009 272.163 165.824C272.314 165.675 272.317 165.429 272.167 165.277C272.017 165.127 271.772 165.123 271.62 165.273C264.185 172.589 257.601 190.666 259.932 207.112C259.958 207.305 260.124 207.445 260.314 207.444Z" fill="white"/>
<path d="M279.899 222.712C280.78 223.157 283.115 221.146 283.767 220.657C284.882 219.819 285.76 218.671 286.315 217.395C286.962 215.91 287.061 214.351 286.749 212.763C286.587 211.94 286.312 211.144 286.037 210.351C285.768 209.573 285.499 208.794 285.229 208.015C284.963 207.247 284.693 206.453 284.754 205.642C284.874 204.008 286.253 202.795 287.51 201.745C288.899 200.583 290.331 199.072 290.217 197.119C290.13 195.613 289.275 194.255 288.278 193.123C287.281 191.99 286.117 191.005 285.207 189.802C284.551 188.936 284.021 187.905 284.062 186.82C284.087 186.145 284.332 185.498 284.621 184.889C285.243 183.581 286.09 182.367 286.492 180.976C286.895 179.585 286.736 177.889 285.618 176.969C284.7 176.213 283.394 176.171 282.213 176.313C281.121 176.444 280.076 176.996 279.147 177.58C276.139 179.47 274.565 183.236 271.347 184.739C270.105 185.318 268.721 185.505 267.417 185.925C266.113 186.346 264.801 187.093 264.254 188.349C263.052 191.109 265.882 193.738 263.88 196.422C263.26 197.253 262.451 197.923 261.792 198.723C259.934 200.973 259.107 203.335 259.633 206.986C260.159 210.637 262.558 212.758 263.782 213.464C263.781 213.464 279.763 222.643 279.899 222.712Z" fill="#455A64"/>
<path d="M271.355 218.292C271.36 218.292 271.365 218.291 271.365 218.291C271.583 218.27 271.739 218.081 271.719 217.869C270.261 202.577 276.577 185.272 281.565 180.075C281.713 179.921 281.708 179.676 281.554 179.528C281.4 179.381 281.156 179.386 281.008 179.539C275.919 184.84 269.471 202.435 270.949 217.942C270.969 218.15 271.149 218.303 271.355 218.292Z" fill="white"/>
<path d="M272.816 199.427C272.854 199.425 272.892 199.417 272.929 199.403C277.771 197.617 283.894 197.02 283.955 197.015C284.167 196.995 284.324 196.806 284.304 196.593C284.283 196.381 284.113 196.221 283.882 196.244C283.819 196.251 277.6 196.856 272.661 198.678C272.461 198.751 272.358 198.973 272.432 199.174C272.493 199.338 272.651 199.436 272.816 199.427Z" fill="white"/>
<path d="M61.5015 235.737L66.5031 233.938C66.5031 233.938 67.5227 224.879 66.1646 215.905C64.1326 202.476 54.402 191.055 46.0897 189.457C35.3684 187.398 37.0023 197.364 43.0388 201.809C52.6503 208.887 60.027 219.514 61.5015 235.737Z" fill="#4AB3FE"/>
<g opacity="0.2">
<path d="M61.5015 235.737L66.5031 233.938C66.5031 233.938 67.5227 224.879 66.1646 215.905C64.1326 202.476 54.402 191.055 46.0897 189.457C35.3684 187.398 37.0023 197.364 43.0388 201.809C52.6503 208.887 60.027 219.514 61.5015 235.737Z" fill="black"/>
</g>
<path d="M63.9549 235.114C63.9351 235.112 63.9153 235.109 63.8954 235.105C63.578 235.035 63.3777 234.722 63.4468 234.404C66.1284 222.121 56.6039 198.932 43.1889 192.049C42.9002 191.901 42.7863 191.546 42.9348 191.258C43.0826 190.97 43.434 190.854 43.7265 191.003C57.5479 198.095 67.3604 221.994 64.5956 234.656C64.5309 234.954 64.2513 235.148 63.9549 235.114Z" fill="white"/>
<path d="M64.697 234.588C64.9389 233.134 65.0893 230.997 65.1316 230.472C65.282 228.622 65.0932 226.737 64.4858 224.978C63.6897 222.672 62.153 220.598 60.0788 219.313C58.9524 218.616 57.6237 218.099 56.9095 216.984C56.2951 216.025 56.2663 214.821 56.1601 213.687C55.986 211.836 55.4663 209.868 54.0186 208.7C52.5793 207.539 50.5665 207.443 48.7226 207.585C46.066 207.791 43.5783 208.078 41.1399 206.795C39.1617 205.754 37.2026 204.656 35.1098 203.87C32.4948 202.888 26.5997 201.421 25.2468 205.101C24.8801 206.099 25.1495 207.241 25.7037 208.148C26.258 209.055 27.0676 209.772 27.8657 210.474C29.2129 211.66 30.5607 212.847 31.9079 214.033C32.3655 214.436 32.8327 214.85 33.1265 215.385C33.8925 216.782 33.273 218.509 33.4068 220.097C33.5425 221.708 34.5037 223.196 35.8298 224.121C37.1559 225.046 38.8135 225.436 40.4295 225.372C42.5946 225.285 46.1697 223.724 47.4196 226.315C47.8292 227.164 47.8855 228.132 47.9809 229.069C48.0762 230.007 48.2349 230.984 48.8013 231.737C49.6327 232.842 51.1181 233.194 52.489 233.373C54.402 233.623 56.3783 233.696 58.1556 234.449C58.889 234.76 59.3293 235.722 59.7441 236.36C61.1079 235.898 62.6068 235.396 64.697 234.588Z" fill="#4AB3FE"/>
<path d="M62.3387 235.941C62.139 235.924 61.9573 235.796 61.8817 235.597C56.9909 222.676 45.3633 212.346 29.1419 206.509C28.8635 206.409 28.7189 206.102 28.8187 205.823C28.9198 205.544 29.2309 205.404 29.5048 205.5C46.0264 211.445 57.8805 221.999 62.8846 235.217C62.9889 235.494 62.8501 235.804 62.5729 235.908C62.4961 235.937 62.4155 235.948 62.3387 235.941Z" fill="white"/>
<path d="M210.617 276.407L103.839 214.758C102.373 213.912 101.184 211.853 101.184 210.159V196.158C101.184 194.465 102.372 192.406 103.839 191.559L168.272 154.358C169.738 153.512 172.116 153.512 173.583 154.358L280.361 216.007C281.827 216.854 283.017 218.913 283.017 220.606V234.607C283.017 236.301 281.828 238.36 280.361 239.206L215.928 276.407C214.461 277.254 212.083 277.254 210.617 276.407Z" fill="#4AB3FE"/>
<path opacity="0.2" d="M283.013 220.605V234.611C283.013 236.303 281.83 238.357 280.358 239.21L215.928 276.406C215.192 276.829 214.23 277.044 213.274 277.044V256.906C214.236 256.906 215.193 256.698 215.928 256.275L280.358 219.071C281.731 218.28 281.823 217.03 280.628 216.177C281.971 217.11 283.013 219.017 283.013 220.605Z" fill="black"/>
<path opacity="0.1" d="M213.274 256.906V277.044C212.311 277.044 211.354 276.829 210.618 276.406L103.841 214.762C102.37 213.916 101.187 211.855 101.187 210.163L101.18 196.157C101.18 194.569 102.228 192.662 103.565 191.729C102.376 192.582 102.468 193.832 103.836 194.623L210.618 256.275C211.354 256.698 212.311 256.906 213.274 256.906Z" fill="black"/>
<path d="M280.36 219.073L215.927 256.274C214.461 257.121 212.083 257.121 210.617 256.274L103.839 194.625C102.372 193.779 102.372 192.406 103.839 191.559L168.272 154.358C169.738 153.512 172.116 153.512 173.583 154.358L280.361 216.007C281.827 216.854 281.827 218.227 280.36 219.073Z" fill="#4AB3FE"/>
<path d="M142.767 217.49C141.363 216.68 140.056 216.646 138.997 217.264C138.638 217.473 137.145 218.319 136.759 218.558C135.603 219.276 134.754 220.788 134.416 222.941C134.028 222.34 133.572 221.821 133.061 221.378C133.061 221.378 133.311 221.235 133.446 221.156C134.213 220.71 134.577 219.586 134.577 218.065C134.577 214.365 132.863 212.126 130.689 210.871L126.771 208.609L124.931 209.666L124.933 207.548L122.055 205.887L119.905 207.128V211.619L117.004 202.97L114.127 201.309L111.977 202.55V204.643C110.873 201.028 108.837 197.901 106.502 196.553C105.125 195.758 103.845 195.716 102.796 196.297L102.804 196.285L102.722 196.332C102.721 196.333 102.719 196.333 102.718 196.334L100.611 197.54C99.5175 198.077 97.9854 200.015 97.9854 204.182C97.9854 209.862 100.618 215.79 104.352 217.945C105.802 218.783 107.104 218.826 108.147 218.219C108.507 218.01 109.898 217.2 110.243 217.01C110.949 216.619 111.537 215.933 111.976 214.992V221.994L114.854 223.656L117.004 222.415V217.923L119.905 226.571L122.783 228.233L124.621 227.171V229.295L129.412 232.06C130.589 232.74 131.543 232.841 132.236 232.456C132.614 232.246 134.065 231.4 134.426 231.188C134.661 231.049 134.866 230.853 135.038 230.602C136.084 234.255 138.098 237.428 140.617 238.882C142.015 239.69 143.277 239.759 144.302 239.218C144.705 239.005 146.157 238.14 146.5 237.953C148.108 237.076 149.118 234.678 149.118 231.222C149.119 225.542 146.271 219.514 142.767 217.49ZM107.135 212.692C106.935 212.63 106.727 212.545 106.502 212.415C104.145 211.054 103.242 207.634 103.242 204.735C103.242 203.601 103.404 202.564 103.731 201.792C103.928 201.851 104.133 201.934 104.353 202.061C106.588 203.351 107.598 206.833 107.598 209.732C107.598 210.866 107.45 211.913 107.135 212.692ZM129.649 226.297V224.47C130.156 225.069 130.443 225.82 130.496 226.787L129.649 226.297ZM143.4 233.629C143.2 233.567 142.992 233.482 142.767 233.352C140.41 231.991 139.507 228.571 139.507 225.672C139.507 224.538 139.669 223.5 139.996 222.729C140.193 222.788 140.398 222.871 140.618 222.998C142.853 224.288 143.862 227.771 143.862 230.669C143.862 231.804 143.714 232.85 143.4 233.629Z" fill="#4AB3FE"/>
<path d="M208.477 264.338L210.58 263.148L212.463 261.053C211.361 258.366 209.815 256.201 207.596 254.92C206.272 254.155 205.082 254.098 204.11 254.613C203.709 254.825 202.198 255.704 201.833 255.921C201.158 256.32 200.595 257.005 200.171 257.928V250.986L197.294 249.325L195.144 250.566V255.057L192.243 246.408L189.365 244.747L187.528 245.81V243.686L184.65 242.025L182.501 243.266V245.494C181.386 241.958 179.324 238.949 177.011 237.614L173.354 235.503L171.205 236.744V250.782L168.584 244.424C168.584 244.424 169.257 244.034 169.597 243.841C170.482 243.338 171.026 242.045 171.026 239.933C171.026 236.115 169.25 233.133 166.909 231.781L162.394 229.174L160.245 230.415V241.056L156.805 225.948L154.142 224.41L151.993 225.651L146.897 242.153L149.989 243.939L152.138 242.698L152.475 241.485L155.727 243.363L156.661 247.791L159.752 249.576L160.245 249.292V249.861L163.122 251.522L165.271 250.281V249.361L166.979 253.748L170.636 255.861L171.205 255.532V256.188L174.862 258.3C176.298 259.129 177.633 259.208 178.707 258.615C179.092 258.403 180.568 257.532 180.931 257.318C181.559 256.948 182.094 256.344 182.501 255.519V262.711L185.379 264.372L187.215 263.314V265.433L190.093 267.094L192.242 265.853V261.362L195.143 270.01L198.021 271.672L200.17 270.431V268.362C201.245 271.917 203.202 275.017 205.445 276.313C206.735 277.057 208.074 277.261 209.16 276.648C209.521 276.444 210.901 275.62 211.244 275.438C212.276 274.894 213.088 273.633 213.425 271.414V267.196L208.477 264.338ZM165.607 239.658L165.27 239.463V237.407C165.615 237.974 165.845 238.715 165.845 239.731C165.845 239.753 165.843 239.77 165.843 239.791C165.764 239.747 165.685 239.702 165.607 239.658ZM176.23 244.232C177.402 245.85 178.122 248.186 178.122 250.473C178.117 251.624 177.927 252.57 177.594 253.263C177.304 253.206 176.998 253.093 176.675 252.906L176.23 252.65V244.232ZM208.354 270.166C208.354 270.606 208.307 270.983 208.223 271.302C208.071 271.249 207.918 271.18 207.765 271.091C207.021 270.662 206.339 269.792 205.794 268.688L208.354 270.166ZM207.596 263.829L205.446 265.07V267.905C204.892 266.509 204.549 264.854 204.549 263.249C204.549 261.93 204.772 260.844 205.146 260.067C205.299 260.113 205.455 260.173 205.614 260.266C206.714 260.9 207.664 262.117 208.394 264.291L207.596 263.829Z" fill="#4AB3FE"/>
<path opacity="0.2" d="M140.617 218.732C144.121 220.755 146.968 226.783 146.968 232.463C146.968 235.92 145.955 238.314 144.347 239.193C144.797 238.95 146.167 238.135 146.5 237.954C148.107 237.076 149.118 234.679 149.118 231.222C149.118 225.542 146.271 219.515 142.767 217.491C141.363 216.681 140.057 216.646 138.996 217.265C138.638 217.474 137.145 218.319 136.759 218.559C136.754 218.561 136.751 218.565 136.746 218.568C137.825 217.89 139.169 217.896 140.617 218.732Z" fill="black"/>
<path opacity="0.3" d="M129.649 226.298V224.47C129.32 224.083 128.903 223.754 128.402 223.464L127.499 222.943V227.539L128.402 228.06C129.763 228.846 130.513 228.643 130.513 227.11C130.513 226.997 130.502 226.895 130.495 226.787L129.649 226.298Z" fill="black"/>
<path opacity="0.2" d="M119.875 219.177L119.905 219.195V211.619L117.005 202.971L114.127 201.309L111.978 202.55L114.855 204.212L119.875 219.177Z" fill="black"/>
<path opacity="0.1" d="M114.855 204.212L117.005 202.971L119.906 211.619L119.905 219.195L114.855 204.212Z" fill="black"/>
<path opacity="0.3" d="M129.642 218.146C129.642 216.755 128.984 215.786 127.729 215.061L127.499 214.929V219.124L127.729 219.256C128.969 219.973 129.642 219.772 129.642 218.146Z" fill="black"/>
<path opacity="0.2" d="M134.416 222.94C134.027 222.34 133.572 221.821 133.06 221.379C133.06 221.379 133.32 221.231 133.459 221.148C134.217 220.698 134.576 219.578 134.576 218.065C134.576 214.365 132.863 212.126 130.689 210.871L126.771 208.609L124.932 209.667L124.933 207.548L122.055 205.887L119.906 207.128L122.783 208.789V228.233L124.621 227.171V209.85L128.539 212.113C130.713 213.368 132.427 215.606 132.427 219.307C132.427 221.098 131.922 222.338 130.85 222.569C132.427 223.903 133.544 225.892 133.544 229.027C133.544 230.803 133.077 232.003 132.216 232.467C132.223 232.463 132.23 232.461 132.236 232.458C132.614 232.248 134.065 231.402 134.425 231.189C134.661 231.051 134.865 230.854 135.037 230.604C134.532 228.841 134.249 226.969 134.249 225.121C134.25 224.333 134.311 223.609 134.416 222.94Z" fill="black"/>
<path opacity="0.3" d="M142.767 233.353C140.409 231.992 139.506 228.572 139.506 225.673C139.506 224.539 139.668 223.501 139.995 222.729C140.089 222.758 140.186 222.792 140.285 222.834C138.295 221.96 137.357 224.164 137.357 226.913C137.357 229.813 138.26 233.232 140.617 234.593C142.014 235.4 142.909 234.841 143.398 233.629C143.199 233.567 142.991 233.482 142.767 233.353Z" fill="black"/>
<path opacity="0.2" d="M106.5 196.547C105.128 195.754 103.851 195.711 102.803 196.288L102.804 196.285L102.79 196.294C102.749 196.316 102.708 196.339 102.669 196.363L100.612 197.539C100.983 197.335 101.363 197.215 101.75 197.165C102.548 197.064 103.427 197.254 104.351 197.788C107.856 199.811 110.703 205.839 110.703 211.519C110.703 214.947 109.706 217.329 108.122 218.225C108.13 218.221 108.139 218.218 108.147 218.213C108.507 218.004 109.898 217.194 110.243 217.004C110.948 216.613 111.537 215.927 111.976 214.987V204.636C110.872 201.023 108.835 197.895 106.5 196.547Z" fill="black"/>
<path opacity="0.3" d="M103.242 204.735C103.242 203.601 103.404 202.564 103.73 201.792C103.825 201.821 103.922 201.855 104.021 201.897C102.031 201.023 101.092 203.227 101.092 205.976C101.092 208.876 101.995 212.295 104.352 213.656C105.749 214.463 106.645 213.904 107.134 212.693C106.934 212.63 106.726 212.545 106.502 212.415C104.145 211.054 103.242 207.635 103.242 204.735Z" fill="black"/>
<path opacity="0.2" d="M168.583 244.425C168.583 244.425 169.256 244.035 169.596 243.843C170.481 243.34 171.025 242.046 171.025 239.934C171.025 236.116 169.249 233.134 166.908 231.782L162.393 229.176L160.244 230.417L164.759 233.023C167.1 234.375 168.876 237.357 168.876 241.175C168.876 244.097 167.835 245.453 166.289 245.315L170.636 255.861V255.862L171.204 255.534V250.783L168.583 244.425Z" fill="black"/>
<path opacity="0.3" d="M205.148 260.067C205.217 260.088 205.288 260.113 205.359 260.141C203.703 259.432 202.401 261.283 202.401 264.49C202.401 267.789 203.839 271.307 205.615 272.332C206.738 272.981 207.85 272.713 208.223 271.302C208.071 271.249 207.918 271.18 207.764 271.091C207.021 270.662 206.339 269.793 205.794 268.688L205.446 268.487V267.904C204.892 266.508 204.55 264.854 204.55 263.249C204.55 261.93 204.772 260.844 205.148 260.067Z" fill="black"/>
<path opacity="0.2" d="M177.011 237.615L173.353 235.504L171.204 236.745L174.862 238.856C178.321 240.853 181.229 246.586 181.229 252.243C181.229 255.711 180.148 257.942 178.517 258.703C178.58 258.674 178.646 258.65 178.708 258.616C179.093 258.403 180.569 257.533 180.932 257.319C181.56 256.949 182.094 256.345 182.502 255.521V245.495C181.385 241.959 179.323 238.95 177.011 237.615Z" fill="black"/>
<path opacity="0.3" d="M176.23 252.649V244.231C175.736 243.547 175.162 242.989 174.525 242.621L174.081 242.364V253.889L174.525 254.146C175.898 254.938 176.987 254.524 177.593 253.262C177.303 253.204 176.998 253.092 176.674 252.905L176.23 252.649Z" fill="black"/>
<path opacity="0.3" d="M163.121 251.522L163.121 251.523L165.27 250.281V249.362L163.121 243.839V251.522Z" fill="black"/>
<path opacity="0.2" d="M190.094 247.65L195.113 262.616L195.144 262.634V255.057L192.243 246.41L189.365 244.748L187.528 245.811V243.687L184.65 242.026L182.501 243.267L185.379 244.928V264.372L187.215 263.314V245.989L190.094 247.65Z" fill="black"/>
<path opacity="0.3" d="M150.919 240.589L149.986 243.939H149.987L152.136 242.698L152.473 241.486L150.919 240.589Z" fill="black"/>
<path opacity="0.3" d="M153.307 232.422L151.899 237.266L154.746 238.909L153.337 232.44L153.307 232.422Z" fill="black"/>
<path opacity="0.3" d="M190.093 255.027V267.094V267.095L192.242 265.853V261.363L190.123 255.045L190.093 255.027Z" fill="black"/>
<path opacity="0.2" d="M200.171 257.928V250.987L197.293 249.325L195.144 250.566L198.021 252.228V271.672H198.021L200.171 270.431V268.363C199.618 266.534 199.294 264.586 199.294 262.696C199.293 260.757 199.613 259.14 200.171 257.928Z" fill="black"/>
<path opacity="0.2" d="M156.805 225.949L154.141 224.412L151.992 225.652L154.655 227.19L159.75 249.576L159.751 249.577L160.243 249.292V241.056L156.805 225.949Z" fill="black"/>
<path opacity="0.3" d="M165.27 239.463V237.408C164.792 236.621 164.089 236.172 163.457 235.807L163.121 235.613V240.704L163.457 240.899C164.534 241.52 165.82 242.143 165.843 239.791C165.764 239.747 165.685 239.702 165.607 239.658L165.27 239.463Z" fill="black"/>
<path opacity="0.2" d="M208.477 264.338L210.58 263.148L212.463 261.053C211.361 258.366 209.815 256.201 207.596 254.92C206.272 254.155 205.082 254.098 204.109 254.613C203.744 254.807 202.461 255.551 201.961 255.844C202.935 255.335 204.125 255.397 205.446 256.16C207.665 257.441 209.211 259.606 210.313 262.293L208.431 264.388C208.419 264.354 208.406 264.324 208.395 264.29L207.596 263.828L205.447 265.069L211.277 268.436V272.655C210.943 274.856 210.139 276.113 209.12 276.666C209.133 276.659 209.148 276.655 209.161 276.647C209.523 276.443 210.902 275.619 211.246 275.437C212.278 274.893 213.09 273.632 213.427 271.414V267.195L208.477 264.338Z" fill="black"/>
<path opacity="0.1" d="M111.977 214.994V204.643C111.832 204.166 111.669 203.699 111.493 203.243L109.342 204.476C110.192 206.67 110.703 209.128 110.703 211.526C110.703 214.954 109.707 217.336 108.122 218.232C108.131 218.228 108.14 218.225 108.148 218.22C108.507 218.011 109.898 217.201 110.243 217.011C110.949 216.62 111.538 215.934 111.977 214.994Z" fill="black"/>
<path opacity="0.1" d="M122.783 208.789L124.933 207.548L124.932 209.667L124.621 209.85V227.171L122.783 228.233V208.789Z" fill="black"/>
<path opacity="0.1" d="M154.655 227.19L156.805 225.949L160.243 241.057V249.292L159.75 249.576L154.655 227.19Z" fill="black"/>
<path opacity="0.1" d="M168.583 244.425L167.49 245.057C167.117 245.294 166.717 245.377 166.289 245.314L170.635 255.86L171.204 255.533V250.783L168.583 244.425Z" fill="black"/>
<path opacity="0.1" d="M187.528 243.687L185.379 244.928V264.372L187.215 263.314V245.989L187.528 245.811V243.687Z" fill="black"/>
<path opacity="0.1" d="M190.094 247.65L192.243 246.41L195.144 255.058V262.634L190.094 247.65Z" fill="black"/>
<path opacity="0.1" d="M210.313 262.294L212.463 261.053L210.58 263.148L208.43 264.389L210.313 262.294Z" fill="black"/>
<path opacity="0.1" d="M211.277 272.655C210.942 274.856 210.139 276.114 209.119 276.667C209.133 276.659 209.148 276.655 209.161 276.648C209.523 276.443 210.902 275.62 211.245 275.438C212.277 274.894 213.089 273.633 213.427 271.414V267.195L211.277 268.436V272.655Z" fill="black"/>
<path opacity="0.1" d="M181.228 252.243C181.228 255.711 180.147 257.942 178.516 258.703C178.579 258.674 178.645 258.65 178.707 258.616C179.092 258.403 180.568 257.533 180.931 257.319C181.559 256.949 182.093 256.345 182.501 255.521V245.495C182.382 245.119 182.25 244.751 182.111 244.388L179.963 245.628C180.751 247.681 181.228 249.966 181.228 252.243Z" fill="black"/>
<path opacity="0.1" d="M149.119 231.222C149.119 228.921 148.646 226.568 147.857 224.442L145.708 225.683C146.496 227.809 146.969 230.162 146.969 232.463C146.969 235.92 145.956 238.314 144.348 239.193C144.797 238.95 146.168 238.135 146.5 237.954C148.108 237.076 149.119 234.678 149.119 231.222Z" fill="black"/>
<path opacity="0.1" d="M133.544 229.026C133.544 230.803 133.077 232.003 132.216 232.466C132.223 232.463 132.23 232.461 132.236 232.457C132.614 232.247 134.065 231.401 134.426 231.188C134.661 231.05 134.865 230.854 135.037 230.603C134.532 228.84 134.25 226.968 134.25 225.12C134.25 224.333 134.31 223.609 134.415 222.941C134.027 222.34 133.571 221.821 133.06 221.379L131.326 222.378C131.305 222.39 131.285 222.397 131.265 222.409C131.235 222.426 131.204 222.44 131.174 222.454C131.064 222.506 130.955 222.549 130.85 222.568C132.427 223.902 133.544 225.891 133.544 229.026Z" fill="black"/>
<path opacity="0.3" d="M114.855 211.588V223.656V223.656L117.005 222.415V217.924L114.886 211.606L114.855 211.588Z" fill="black"/>
<path opacity="0.1" d="M198.021 252.228V271.672L200.171 270.431V268.363C199.618 266.534 199.294 264.586 199.294 262.696C199.294 260.757 199.614 259.14 200.171 257.927V250.986L198.021 252.228Z" fill="black"/>
<path d="M104.353 197.795C107.857 199.818 110.704 205.846 110.704 211.526C110.704 217.206 107.98 220.04 104.353 217.946C100.619 215.791 97.9858 209.863 97.9858 204.183C97.9858 198.503 100.879 195.789 104.353 197.795ZM104.353 213.656C106.648 214.982 107.597 212.63 107.597 209.732C107.597 206.833 106.587 203.351 104.353 202.061C102.134 200.78 101.093 203.078 101.093 205.976C101.092 208.876 101.995 212.295 104.353 213.656Z" fill="#4AB3FE"/>
<path d="M114.855 223.656L111.977 221.994V202.55L114.855 204.211L119.875 219.177L119.906 219.194V207.127L122.783 208.788V228.232L119.906 226.571L114.886 211.606L114.855 211.588V223.656Z" fill="#4AB3FE"/>
<path d="M128.539 212.113C130.713 213.368 132.427 215.606 132.427 219.307C132.427 221.098 131.922 222.338 130.85 222.569C132.427 223.903 133.544 225.892 133.544 229.027C133.544 232.232 132.029 233.572 129.412 232.061L124.621 229.295V209.851L128.539 212.113ZM127.728 219.257C128.969 219.973 129.641 219.772 129.641 218.146C129.641 216.755 128.983 215.786 127.728 215.061L127.499 214.929V219.124L127.728 219.257ZM128.402 228.06C129.763 228.846 130.513 228.643 130.513 227.11C130.513 225.319 129.763 224.25 128.402 223.464L127.499 222.943V227.539L128.402 228.06Z" fill="#4AB3FE"/>
<path d="M140.617 218.732C144.122 220.755 146.968 226.783 146.968 232.463C146.968 238.143 144.244 240.977 140.617 238.883C136.883 236.727 134.25 230.8 134.25 225.12C134.25 219.44 137.143 216.726 140.617 218.732ZM140.617 234.594C142.912 235.919 143.861 233.568 143.861 230.669C143.861 227.77 142.852 224.289 140.617 222.998C138.398 221.717 137.357 224.015 137.357 226.914C137.357 229.812 138.26 233.233 140.617 234.594Z" fill="#4AB3FE"/>
<path d="M159.75 249.576L156.659 247.791L155.725 243.363L150.919 240.589L149.986 243.939L146.895 242.154L151.991 225.652L154.654 227.189L159.75 249.576ZM153.337 232.44L153.307 232.422L151.899 237.266L154.745 238.91L153.337 232.44Z" fill="#4AB3FE"/>
<path d="M164.758 233.023C167.1 234.375 168.876 237.357 168.876 241.175C168.876 244.097 167.834 245.453 166.289 245.315L170.636 255.861L166.978 253.749L163.121 243.839V251.523L160.244 249.861V230.417L164.758 233.023ZM163.457 240.899C164.544 241.526 165.845 242.159 165.845 239.731C165.845 237.304 164.544 236.435 163.457 235.807L163.121 235.613V240.704L163.457 240.899Z" fill="#4AB3FE"/>
<path d="M174.861 238.856C178.32 240.853 181.229 246.586 181.229 252.243C181.229 257.923 178.336 260.306 174.861 258.3L171.204 256.188V236.744L174.861 238.856ZM174.525 254.147C176.652 255.375 178.106 253.716 178.122 250.472C178.122 247.22 176.668 243.859 174.525 242.621L174.081 242.365V253.89L174.525 254.147Z" fill="#4AB3FE"/>
<path d="M185.378 264.372L182.501 262.711V243.267L185.378 244.928V264.372Z" fill="#4AB3FE"/>
<path d="M190.093 267.094L187.216 265.433V245.988L190.093 247.65L195.113 262.616L195.144 262.633V250.566L198.022 252.228V271.672L195.144 270.01L190.124 255.045L190.093 255.028V267.094Z" fill="#4AB3FE"/>
<path d="M211.277 272.655C210.588 277.184 207.925 277.743 205.446 276.313C202.048 274.351 199.293 268.259 199.293 262.696C199.293 257.11 201.895 254.111 205.446 256.161C207.665 257.443 209.211 259.608 210.313 262.294L208.43 264.39C207.695 262.15 206.732 260.91 205.614 260.266C203.839 259.24 202.4 261.12 202.4 264.49C202.4 267.79 203.839 271.308 205.614 272.333C206.992 273.128 208.353 272.547 208.353 270.167L205.446 268.488V265.07L211.277 268.437V272.655Z" fill="#4AB3FE"/>
<path opacity="0.1" d="M154.656 210.972C171.416 210.972 185.002 203.128 185.002 193.452C185.002 183.775 171.416 175.932 154.656 175.932C137.897 175.932 124.311 183.775 124.311 193.452C124.311 203.128 137.897 210.972 154.656 210.972Z" fill="black"/>
<path opacity="0.1" d="M211.273 244.518C230.109 244.518 245.379 235.702 245.379 224.827C245.379 213.952 230.109 205.136 211.273 205.136C192.437 205.136 177.167 213.952 177.167 224.827C177.167 235.702 192.437 244.518 211.273 244.518Z" fill="black"/>
<path d="M98.2175 15.9009L120.929 28.9857C121.43 29.275 121.836 29.9784 121.836 30.5569V61.618C121.836 62.1966 121.428 62.8961 120.924 63.1803L117.674 65.0023C117.17 65.2865 116.356 65.2827 115.855 64.9934L93.143 51.9086C92.6418 51.6193 92.2361 50.916 92.2361 50.3374V19.2763C92.2361 18.6977 92.6444 17.9982 93.1481 17.714L96.398 15.892C96.9017 15.6078 97.7164 15.6116 98.2175 15.9009Z" fill="#4AB3FE"/>
<path d="M116.762 64.4698V33.4086C116.762 32.8301 116.356 32.1267 115.854 31.8374L93.1427 18.7526C92.6416 18.4634 92.2358 18.6976 92.2358 19.2762V50.3373C92.2358 50.9158 92.6422 51.6192 93.1427 51.9085L115.854 64.9933C116.356 65.2832 116.762 65.0483 116.762 64.4698Z" fill="#4AB3FE"/>
<path opacity="0.2" d="M115.855 64.9939C116.338 65.2742 117.22 65.2838 117.676 65.0048L120.924 63.1795C121.427 62.8986 121.837 62.199 121.837 61.6205V30.5568C121.837 30.2554 121.724 29.9238 121.548 29.6307L116.494 32.5165C116.662 32.7974 116.762 33.12 116.762 33.4093V64.4685C116.762 64.9978 116.388 65.303 115.855 64.9939Z" fill="black"/>
<path opacity="0.4" d="M92.2478 19.1117C92.3188 18.6547 92.692 18.4915 93.1444 18.7514L115.853 31.8374C116.104 31.984 116.33 32.231 116.494 32.5165L121.553 29.6307C121.389 29.3581 121.171 29.1238 120.928 28.9856L98.2158 15.8995C97.7173 15.6102 96.9044 15.6064 96.3969 15.8912L93.1483 17.7126C92.692 17.9718 92.3105 18.5715 92.2478 19.1117Z" fill="white"/>
<path d="M124.323 53.5917C124.893 53.2525 129.159 50.8505 129.297 50.7705C129.717 50.5152 129.868 49.895 129.478 49.4758L121.759 39.8451L116.763 42.6848L124.477 52.32C124.854 52.7219 124.704 53.3152 124.323 53.5917Z" fill="#4AB3FE"/>
<path opacity="0.4" d="M124.323 53.5917C124.893 53.2525 129.159 50.8505 129.297 50.7705C129.717 50.5152 129.868 49.895 129.478 49.4758L121.759 39.8451L116.763 42.6848L124.477 52.32C124.854 52.7219 124.704 53.3152 124.323 53.5917Z" fill="white"/>
<path d="M116.762 42.6861L124.478 52.3181C125.001 52.8793 124.617 53.6486 123.96 53.7094L116.762 54.4896V42.6861Z" fill="#4AB3FE"/>
<path d="M102.229 36.8589C102.229 35.0656 103.173 34.1568 104.338 34.8288C105.503 35.5014 106.448 37.5008 106.448 39.2941C106.448 41.0873 105.504 41.9961 104.338 41.3235C103.174 40.6509 102.229 38.6521 102.229 36.8589Z" fill="#FAFAFA"/>
<path d="M106.896 52.7712L101.782 49.8182C101.082 49.4144 100.542 48.1561 100.632 47.1398L100.875 44.3776C101.052 42.3795 102.213 41.4784 103.588 42.2726L105.089 43.1385C106.464 43.9328 107.625 46.1747 107.801 48.3763L108.045 51.4208C108.136 52.5408 107.595 53.175 106.896 52.7712Z" fill="#FAFAFA"/>
<path d="M107.71 36.5907C107.71 34.6202 108.748 33.6218 110.028 34.3603C111.308 35.0995 112.345 37.296 112.345 39.2666C112.345 41.2371 111.308 42.2355 110.028 41.497C108.748 40.7584 107.71 38.5613 107.71 36.5907Z" fill="#FAFAFA"/>
<path d="M112.698 53.9904L109.311 52.0352L109.068 49.001C108.888 46.7238 107.945 44.3981 106.686 42.889C107.239 42.1043 108.097 41.9046 109.062 42.4621L110.71 43.4138C112.223 44.2874 113.499 46.745 113.691 49.1674L113.96 52.505C114.061 53.7357 113.467 54.4339 112.698 53.9904Z" fill="#FAFAFA"/>
<path d="M101.291 33.6C101.291 31.7274 100.304 29.6403 99.0885 28.9382C97.8725 28.2362 96.8862 29.1846 96.8862 31.0573C96.8862 32.9299 97.8725 35.017 99.0885 35.719C100.305 36.4211 101.291 35.472 101.291 33.6Z" fill="#FAFAFA"/>
<path d="M102.264 40.7072C101.068 40.7597 100.173 41.9353 100.001 43.9008L99.7701 46.5177L96.5522 44.6598C95.8213 44.2381 95.2575 42.9229 95.3516 41.8617L95.6076 38.9862C95.79 36.8947 97.0021 35.9597 98.4396 36.7897L100.006 37.6941C100.923 38.224 101.739 39.3555 102.264 40.7072Z" fill="#FAFAFA"/>
<path d="M258.194 72.8481V63.8023L250.558 63.1367C250.439 63.1265 250.332 63.1514 250.241 63.2014C249.945 63.3633 243.793 66.8999 243.699 66.9562C243.417 67.1252 243.315 67.5361 243.575 67.8177L251.67 76.5927L258.194 72.8481Z" fill="#4AB3FE"/>
<path d="M251.67 76.592L243.575 67.8169C243.228 67.4413 243.525 66.8365 244.034 66.8806L251.67 67.5462V76.592Z" fill="#4AB3FE"/>
<path d="M258.192 63.799L251.671 67.55L244.033 66.8812C243.937 66.8748 243.847 66.8876 243.77 66.9196C244.38 66.5593 249.963 63.3491 250.24 63.2012C250.33 63.15 250.439 63.1245 250.561 63.1366L258.192 63.799Z" fill="#4AB3FE"/>
<path opacity="0.5" d="M258.192 63.799L251.671 67.55L244.033 66.8812C243.937 66.8748 243.847 66.8876 243.77 66.9196C244.38 66.5593 249.963 63.3491 250.24 63.2012C250.33 63.15 250.439 63.1245 250.561 63.1366L258.192 63.799Z" fill="white"/>
<path d="M257.555 51.6475L280.267 64.7323C280.768 65.0216 281.175 65.7249 281.175 66.3035V97.3646C281.175 97.9432 280.766 98.6427 280.263 98.9268L277.013 100.749C276.509 101.033 275.694 101.029 275.193 100.74L252.481 87.6552C251.98 87.3659 251.574 86.6625 251.574 86.084V55.0228C251.574 54.4443 251.982 53.7448 252.487 53.4606L255.737 51.6385C256.24 51.3544 257.055 51.3582 257.555 51.6475Z" fill="#4AB3FE"/>
<path d="M276.1 100.216V69.1552C276.1 68.5766 275.694 67.8733 275.192 67.584L252.481 54.4992C251.98 54.2099 251.573 54.4442 251.573 55.0227V86.0838C251.573 86.6624 251.98 87.3657 252.481 87.655L275.192 100.74C275.694 101.03 276.1 100.795 276.1 100.216Z" fill="#4AB3FE"/>
<path opacity="0.2" d="M275.192 100.74C275.676 101.02 276.558 101.03 277.013 100.751L280.262 98.9254C280.765 98.6445 281.175 97.945 281.175 97.3664V66.3027C281.175 66.0013 281.062 65.6698 280.886 65.3766L275.832 68.2624C275.999 68.5434 276.1 68.8659 276.1 69.1552V100.214C276.1 100.744 275.727 101.05 275.192 100.74Z" fill="black"/>
<path opacity="0.4" d="M251.586 54.8582C251.657 54.4013 252.03 54.2381 252.483 54.4979L275.191 67.584C275.443 67.7306 275.669 67.9776 275.832 68.263L280.891 65.3773C280.727 65.1046 280.509 64.8704 280.266 64.7321L257.554 51.6461C257.055 51.3568 256.243 51.3529 255.735 51.6377L252.487 53.4592C252.03 53.7184 251.649 54.3181 251.586 54.8582Z" fill="white"/>
<path d="M254.536 75.0169L255.485 78.2041C255.528 78.3545 255.719 78.5133 255.911 78.5587L257.79 79.0125C257.982 79.0579 258.194 79.2166 258.27 79.367C258.567 79.9648 258.903 80.5555 259.28 81.1238C259.376 81.2704 259.43 81.4944 259.392 81.623L258.78 83.6947C258.743 83.8214 258.818 84.0397 258.949 84.176L261.149 86.4992C261.256 86.6118 261.384 86.6477 261.468 86.5965C261.488 86.5869 261.504 86.5709 261.517 86.551L262.543 84.9843C262.615 84.8736 262.805 84.8813 262.971 84.9965C263.173 85.1334 263.375 85.2621 263.575 85.3786C263.787 85.5014 264.001 85.6141 264.211 85.7133C264.395 85.8022 264.593 85.9865 264.648 86.1369L265.736 89.0483C265.792 89.1968 265.987 89.3337 266.174 89.3536L268.176 89.5513C268.252 89.559 268.317 89.5456 268.364 89.5174C268.366 89.5155 268.368 89.5155 268.37 89.5136C268.437 89.472 268.471 89.4029 268.453 89.3171L267.822 86.4493C267.788 86.3027 267.885 86.1459 268.028 86.0909C268.343 85.968 268.636 85.7997 268.903 85.5814C269.01 85.4944 269.206 85.5257 269.351 85.6569L271.397 87.5283C271.474 87.5974 271.553 87.6333 271.621 87.6333H271.623C271.648 87.6333 271.672 87.6275 271.696 87.6153C271.696 87.6153 271.697 87.6153 271.701 87.6134C271.701 87.6134 271.701 87.6134 271.701 87.6115C271.725 87.5974 271.745 87.5776 271.757 87.5482L272.668 85.536C272.721 85.415 272.67 85.2013 272.551 85.0586L270.634 82.7353C270.515 82.5926 270.433 82.3673 270.448 82.2285C270.497 81.7037 270.495 81.1469 270.444 80.5728C270.432 80.4281 270.559 80.3033 270.733 80.2937L272.452 80.1965C272.624 80.1869 272.731 80.0576 272.686 79.9091L271.739 76.72C271.694 76.5715 271.504 76.4128 271.313 76.3673L269.432 75.9136C269.242 75.8681 269.03 75.7075 268.954 75.5571C268.656 74.9587 268.319 74.3705 267.943 73.8022C267.845 73.6537 267.794 73.4297 267.832 73.303L268.444 71.2294C268.481 71.1027 268.406 70.887 268.273 70.7481L266.075 68.4249C265.943 68.288 265.778 68.2643 265.704 68.3757L264.68 69.9405C264.608 70.0512 264.419 70.0435 264.25 69.9302C263.834 69.6448 263.42 69.4054 263.011 69.2115C262.826 69.1245 262.629 68.9401 262.573 68.7897L261.488 65.8784C261.432 65.728 261.236 65.591 261.05 65.5731L259.047 65.3728C258.972 65.367 258.906 65.3785 258.857 65.4061C258.786 65.4477 258.75 65.5213 258.77 65.6083L259.402 68.4742C259.433 68.6227 259.336 68.7776 259.196 68.8326C258.879 68.9555 258.586 69.1238 258.32 69.3414C258.213 69.4285 258.017 69.399 257.873 69.2665L255.825 67.3965C255.72 67.2992 255.607 67.2678 255.532 67.3056C255.528 67.3075 255.524 67.3094 255.52 67.3113C255.496 67.3254 255.476 67.3472 255.464 67.3747L254.552 69.3888C254.499 69.5078 254.551 69.7216 254.67 69.8662L256.587 72.1875C256.706 72.3321 256.787 72.5581 256.775 72.6944C256.748 72.9715 256.736 73.2569 256.737 73.5481C256.739 73.8099 256.753 74.0793 256.777 74.3501C256.791 74.4947 256.663 74.6195 256.488 74.6291L254.771 74.7264C254.723 74.7283 254.68 74.7405 254.646 74.7584C254.642 74.7603 254.638 74.7622 254.636 74.7641C254.549 74.8173 254.507 74.912 254.536 75.0169ZM262.073 80.864C260.021 78.6989 259.047 75.4189 259.896 73.5392C260.229 72.8064 260.788 72.3942 261.471 72.295C261.496 72.2893 261.523 72.2873 261.548 72.2854C261.572 72.2816 261.596 72.2797 261.622 72.2771C261.646 72.2752 261.669 72.2733 261.693 72.2733C261.699 72.2713 261.703 72.2713 261.709 72.2713C262.149 72.2515 262.63 72.3526 263.129 72.5728C263.296 72.6438 263.466 72.7315 263.634 72.8301C264.141 73.1251 264.654 73.5353 265.152 74.0601C266.691 75.6864 267.623 77.9366 267.635 79.7529C267.637 79.9533 267.628 80.1472 267.604 80.3353C267.562 80.7155 267.471 81.0701 267.329 81.3849C266.949 82.2278 266.264 82.6445 265.442 82.6534C265.422 82.6534 265.402 82.6534 265.382 82.6534C265.34 82.6528 265.297 82.6515 265.254 82.649C265.186 82.6445 265.118 82.6387 265.047 82.6291C264.988 82.6208 264.928 82.6112 264.869 82.5997C264.843 82.5939 264.817 82.5894 264.789 82.5817C264.752 82.5741 264.716 82.5638 264.679 82.5536C263.846 82.3398 262.933 81.7715 262.073 80.864Z" fill="white"/>
<path d="M203.455 78.2388C199.229 79.0714 196.497 81.2993 195.594 87.9156C194.508 95.8631 192.784 108.086 192.784 108.086C192.784 108.086 187.167 123.987 184.307 127.56C183.637 128.397 182.657 129.278 181.583 130.161C178.95 133.457 172.833 135.656 175.611 137.51C177.739 138.93 180.963 139.212 184.009 137.513C188.12 135.221 189.802 132.575 191.846 129.181C194.388 124.959 203.194 109.18 203.194 109.18L203.455 78.2388Z" fill="#B16668"/>
<path d="M185.327 125.988C184.778 126.897 182.909 127.122 181.121 127.48C179.333 127.837 177.963 128.889 176.723 129.143C175.657 129.361 175.962 130.639 177.869 130.738C179.776 130.837 182.025 129.387 182.39 130.738C182.756 132.088 186.289 128.41 185.327 125.988Z" fill="#B16668"/>
<path d="M189.055 117.364L187.919 120.015C189.74 120.131 194.175 122.349 194.979 123.853L196.543 121.123L189.055 117.364Z" fill="#EBEBEB"/>
<path d="M203.455 78.2387C203.455 78.2387 199.161 78.1069 197.085 81.7946C195.01 85.4816 192.447 108.019 192.447 108.019L188.31 118.523C190.054 118.404 195.409 121.124 196.098 122.785L203.316 110.959L203.455 78.2387Z" fill="#37474F"/>
<path d="M229.451 215.395H223.185V226.121H229.451V215.395Z" fill="#B16668"/>
<path d="M204.476 210.776L198.214 210.991L197.9 199.64L204.476 199.425V210.776Z" fill="#B16668"/>
<path d="M229.221 124.724C229.221 130.707 228.982 179.599 228.982 179.599C229.128 181.32 230.785 184.381 230.914 190.582C231.101 199.575 229.719 220.757 229.719 220.757C229.719 220.757 226.677 222.534 222.743 220.895C222.743 220.895 217.822 190.933 216.699 182.032C215.719 174.264 212.99 139.421 212.99 139.421L208.201 172.562C208.201 172.562 209.356 177.195 208.978 182.519C208.685 186.636 204.873 207.259 204.873 207.259C204.873 207.259 201.923 209.26 197.639 207.812C197.639 207.812 197.265 175.441 197.192 171.663C197.109 167.357 198.095 123.429 198.095 123.429L229.221 124.724Z" fill="#37474F"/>
<path d="M223.185 223.028C223.185 223.028 223.186 222.133 223.185 222.133C222.85 222.126 222.641 222.46 222.512 223.266C222.421 223.843 222.336 224.279 222.146 225.038C221.855 226.198 221.594 226.908 221.051 228.244C220.166 230.428 219.422 231.24 217.394 233.791C216.912 234.397 215.827 235.358 215.448 236.033C215.07 236.707 214.936 238.582 215.579 239.011C217.945 240.588 221.537 240.632 224.078 239.887C226.032 239.315 227.443 237.753 227.767 235.742C227.861 235.165 227.826 234.574 227.892 233.993C228.043 232.667 228.709 231.456 229.461 230.353C229.898 229.714 230.372 229.089 230.665 228.372C231.191 227.085 230.77 225.636 230.434 224.353C230.143 223.245 229.828 222.028 229.45 222.131C229.449 222.266 229.45 222.814 229.45 222.814C228.995 223.318 227.737 223.818 226.318 223.873C225.401 223.909 223.177 223.727 223.185 223.028Z" fill="#263238"/>
<path d="M198.147 209.059C198.164 209.224 197.566 209.736 196.897 210.355C196.308 210.9 195.731 211.293 194.743 212.019C193.181 213.167 191.789 214.02 189.952 215.027C187.972 216.112 186.187 216.776 183.821 217.844C183.579 217.953 183.337 218.084 183.16 218.282C183.013 218.447 182.922 218.656 182.872 218.871C182.667 219.75 183.155 220.676 183.862 221.237C184.569 221.797 185.46 222.063 186.334 222.289C188.317 222.802 190.516 222.974 192.502 222.474C194.255 222.032 195.663 221.151 197.189 220.183C198.491 219.357 199.882 218.589 201.428 218.364C202.755 218.171 204.391 218.236 205.543 217.441C206.824 216.559 206.311 214.674 205.949 213.055C205.554 211.287 205.06 208.531 204.475 208.652V209.261C203.722 210.401 199.835 210.865 198.18 210.026C198.18 210.026 198.148 209.064 198.147 209.059Z" fill="#263238"/>
<path d="M212.989 139.422C212.989 139.422 207.981 138.012 204.265 134.42C204.265 134.42 205.948 137.572 210.955 140.505L208.532 170.744L212.989 139.422Z" fill="#263238"/>
<path d="M218.358 78.823C220.487 79.3357 224.784 80.0384 225.749 84.2874C226.907 89.3875 227.285 100.494 227.285 100.494L227.68 125.207C223.365 128.35 206.626 130.061 197.545 123.429C197.545 123.429 199.548 93.7536 199.548 89.1347C199.548 84.5158 202.115 78.9664 209.201 78.5549L218.358 78.823Z" fill="#F5F5F5"/>
<path d="M209.3 78.0762C209.3 78.0762 206.644 81.1827 205.782 84.9203C204.919 88.6573 204.111 131.08 204.111 131.08C204.111 131.08 199.264 130.492 197.188 128.863C197.188 128.863 196.765 94.1978 197.629 88.8051C199.154 79.2838 199.009 78.3334 209.294 77.4624L209.3 78.0762Z" fill="#455A64"/>
<path d="M220.224 77.4624C220.224 77.4586 214.32 81.0963 214.254 95.5488C214.197 108.045 214.385 132.9 214.385 132.9C214.385 132.9 224.189 133.512 230.381 129.812C230.381 129.812 229.075 114.028 229.002 105.2C231.582 92.672 233.803 80.457 230.202 79.465C226.502 78.4454 220.224 77.4624 220.224 77.4624Z" fill="#455A64"/>
<path d="M220.886 85.3664L218.182 88.713L219.535 92.5235L215.979 101.633L220.266 92.5235L218.765 88.9267L220.886 85.3664Z" fill="#37474F"/>
<path d="M201.813 84.2906L202.401 87.7504L200.059 90.7987L203.315 101.054L200.794 90.912L202.955 88.0621L201.813 84.2906Z" fill="#37474F"/>
<path d="M216.829 57.1725C216.829 61.9277 212.975 65.7824 208.219 65.7824C203.464 65.7824 199.608 61.9277 199.608 57.1725C199.608 52.4166 203.463 48.5619 208.219 48.5619C212.974 48.5619 216.829 52.4173 216.829 57.1725Z" fill="#263238"/>
<path d="M223.103 63.2947C223.103 63.2947 221.708 69.8502 221.149 70.9273C220.589 72.0045 219.433 72.3104 219.433 72.3104L219.53 67.6992L223.103 63.2947Z" fill="#263238"/>
<path d="M221.352 53.904C221.352 53.904 222.854 53.6467 224.025 54.8442C225.174 56.0186 224.533 59.6947 223.103 63.2947L220.474 63.5968L221.352 53.904Z" fill="#263238"/>
<path d="M219.686 63.5987C220.214 63.9136 220.965 62.9011 221.615 62.2208C222.265 61.5405 224.387 60.6118 225.445 62.8416C226.523 65.1142 224.511 68.1171 222.84 68.6419C219.961 69.5456 219.529 67.6992 219.529 67.6992L219.317 79.4592C217.327 82.0109 212.856 85.0099 210.448 84.5818C208.527 84.24 208.107 80.9939 209.944 78.8666L209.952 74.6477C209.952 74.6477 207.344 75.0438 206.072 74.8467C203.955 74.5197 202.616 72.8512 201.981 70.5581C201.012 67.056 200.701 63.129 201.433 56.6675C202.333 48.727 211.62 48.6509 216.604 51.7875C221.586 54.9235 219.686 63.5987 219.686 63.5987Z" fill="#B16668"/>
<path d="M219.686 64.4851C219.951 64.4902 220.959 62.8179 221.615 62.2208C222.524 61.3939 221.351 53.9034 221.351 53.9034C221.351 53.9034 222.476 51.7862 220.726 49.8598C219.48 48.489 217.743 46.816 212.093 47.4835C208.064 47.9597 203.68 49.216 200.139 47.4758C199.608 49.68 200.037 52.1382 202.239 53.8797C202.239 53.8797 203.52 54.7059 206.893 55.1168C210.265 55.5271 215.517 55.0381 216.235 54.9395C217.213 54.8058 217.422 55.7536 217.949 58.3424C218.412 60.6163 218.795 64.4685 219.686 64.4851Z" fill="#263238"/>
<path d="M221.346 54.4864L224.533 52.7757C224.08 51.863 223.001 51.5053 222.121 51.9776C221.241 52.4506 220.894 53.5731 221.346 54.4864Z" fill="#263238"/>
<path d="M209.952 74.6477C209.952 74.6477 214.678 73.6954 216.33 72.8173C217.436 72.2298 218.347 71.2109 218.614 70.5574C218.614 70.5574 218.304 71.9597 217.317 73.223C216.109 74.7674 209.953 76.0006 209.953 76.0006V74.6477H209.952Z" fill="#9A4A4D"/>
<path d="M209.501 62.1478C209.501 62.6912 209.926 63.1309 210.448 63.129C210.971 63.1277 211.395 62.6861 211.395 62.1421C211.395 61.5987 210.971 61.1597 210.448 61.161C209.926 61.1629 209.501 61.6045 209.501 62.1478Z" fill="#263238"/>
<path d="M210.315 59.3728L212.34 60.4909C212.639 59.9091 212.427 59.1866 211.868 58.8781C211.309 58.569 210.613 58.7904 210.315 59.3728Z" fill="#263238"/>
<path d="M210.38 68.9587L208.219 69.7702C208.432 70.3898 209.09 70.7104 209.687 70.487C210.284 70.2624 210.595 69.5789 210.38 68.9587Z" fill="#9A4A4D"/>
<path d="M201.797 60.0742L203.924 59.1194C203.68 58.5171 203.007 58.2432 202.42 58.5069C201.832 58.7706 201.553 59.472 201.797 60.0742Z" fill="#263238"/>
<path d="M202.217 62.1478C202.217 62.6912 202.641 63.1302 203.164 63.129C203.687 63.127 204.111 62.6861 204.111 62.1421C204.111 61.5987 203.687 61.1597 203.164 61.161C202.641 61.1622 202.217 61.6045 202.217 62.1478Z" fill="#263238"/>
<path d="M206.739 61.6378L206.429 67.3331L203.455 66.3194L206.739 61.6378Z" fill="#9A4A4D"/>
<path d="M207.009 83.927C207.59 85.3075 208.661 85.8701 210.604 86.0883C212.547 86.3059 214.908 85.344 215.979 84.2176L214.143 82.3898L210.498 84.121L209.501 81.7946L207.009 83.927Z" fill="#37474F"/>
<path d="M208.531 83.1738C208.531 83.1738 208.052 84.5056 208.212 85.76C208.383 87.1027 209.075 87.9149 209.075 87.9149C209.075 87.9149 209.846 88.528 211.163 88.1421C212.192 87.1923 213.23 85.6698 213.151 83.8176L210.498 84.1203L208.531 83.1738Z" fill="#455A64"/>
<path d="M209.074 87.9149C207.008 96.0192 205.761 109.805 206.006 111.19C206.251 112.575 207.813 117.567 209.012 117.61C210.21 117.652 212.315 112.649 212.155 111.386C211.849 108.973 210.659 87.9213 211.163 88.1421L209.074 87.9149Z" fill="#455A64"/>
<path d="M211.163 88.1421C211.163 88.1421 210.091 88.672 209.075 87.9149L209.007 88.1856C209.007 88.1856 209.766 89.0835 211.058 88.7174L211.163 88.1421Z" fill="#37474F"/>
<path d="M210.498 84.121C214.244 82.233 218.775 79.4784 219.377 76.4416L219.41 74.7526C219.41 74.7526 220.886 75.2218 221.267 77.6934C220.947 81.4067 218.37 85.2211 215.011 87.136L213.15 83.8182L210.498 84.121Z" fill="#E0E0E0"/>
<path d="M209.958 75.8163C209.958 75.8163 209.129 76.0966 208.451 77.0054C206.201 80.0173 206.411 85.0989 206.411 85.0989L208.531 83.1738L210.499 84.1203C209.841 82.9293 209.495 80.2426 209.945 78.8659L209.958 75.8163Z" fill="#E0E0E0"/>
<path d="M230.203 79.465C233.135 80.2157 235.073 80.4576 237.08 84.2899C238.827 87.6243 246.893 101.576 248.625 104.915C249.483 106.57 250.338 108.47 248.068 110.764C246.253 112.597 234.288 123.824 232.34 125.745C231.096 126.972 229.542 128.091 226.989 128.318C223.946 128.589 222.466 127.51 221.928 126.851C218.699 122.892 224.873 122.293 226.988 120.977C228.671 119.93 229.59 118.744 229.59 118.744L229.458 116.644C229.458 116.644 231.702 116.661 232.417 116.075C233.131 115.489 239.485 107.2 239.485 107.2C239.485 107.2 230.36 95.1846 229.188 92.672C228.015 90.16 226.685 81.3939 230.203 79.465Z" fill="#B16668"/>
<path d="M234.029 113.644C233.979 113.718 232.566 115.654 232.566 115.654C232.566 115.654 232.342 117.341 233.757 119.177C235.171 121.013 236.957 121.757 236.957 121.757L238.888 119.912L234.029 113.644Z" fill="#EBEBEB"/>
<path d="M233.185 114.413C233.185 114.413 233.657 119.673 238.197 121.124C238.197 121.124 248.985 110.828 249.993 109.431C251.002 108.034 250.304 106.572 248.131 102.763C245.958 98.9542 237.422 83.4144 236.025 81.7939C234.628 80.1741 232.328 79.8829 229.041 79.1661C229.041 79.1661 226.395 83.545 227.679 88.8051C228.963 94.0653 230.127 95.4618 230.127 95.4618L238.508 107.335L233.185 114.413Z" fill="#37474F"/>
<path d="M147.524 181.578C147.556 182.155 147.495 182.582 147.048 183.457C146.508 184.513 145.065 186.321 143.947 187.523C142.288 189.305 139.808 191.41 138.032 192.961C137.043 193.825 137.006 195.128 138.42 195.586C139.833 196.044 142.96 196.24 146.197 194.5C147.96 193.553 150.477 189.171 151.947 188.508C153.634 187.746 154.583 187.363 155.153 186.586C156.005 185.423 156.226 184.55 155.497 183.194C154.702 181.714 153.506 179.429 153.014 179.683L153.167 180.155C152.78 181.363 149.486 182.769 147.797 182.433L147.524 181.578Z" fill="#37474F"/>
<path d="M160.427 189.764V188.956C160.266 190.188 158.629 193.985 156.387 196.03C154.604 197.656 152.172 199.534 151.554 201.347C150.91 203.232 154.427 203.978 156.731 203.748C159.429 203.478 161.534 201.857 162.532 200.713C163.999 199.031 163.973 197.883 164.658 196.957C165.342 196.032 166.919 194.998 167.289 193.927C167.492 193.338 167.251 192.049 166.965 190.96C166.703 189.961 166.419 188.862 166.078 188.956C166.076 189.077 166.078 189.572 166.078 189.572C165.668 190.026 164.532 190.478 163.252 190.527C162.426 190.559 160.42 190.395 160.427 189.764Z" fill="#37474F"/>
<path d="M169.695 130.552C170.521 122.458 172.176 109.614 170.329 100.547C160.972 99.129 151.708 97.8618 142.249 96.6989C139.97 108.447 138.879 139.743 140.078 144.126C143.391 157.537 145.09 167.604 147.067 181.004C147.201 181.876 147.175 182.649 146.628 183.62C145.958 184.808 145.058 186.063 143.952 187.243C143.159 188.09 142.412 189.03 141.553 189.858C141.436 189.97 141.275 190.229 141.307 190.49C141.463 191.756 143.317 191.565 144.609 191.121C146.191 190.577 147.44 189.56 148.676 187.997C149.543 186.902 151.224 184.912 152.132 183.73C152.515 183.231 152.943 182.6 153.068 182.285C153.427 181.378 153.388 180.947 153.244 180.145C153.227 180.05 153.167 179.729 153.163 179.582C153.111 177.75 154.947 157.754 154.4 153.187C153.808 148.237 153.132 146.829 151.462 142.689C152.628 134.159 153.729 125.105 154.867 116.438C155.069 125.791 155.106 136.466 156.306 145.443C157.267 152.634 157.734 157.574 158.497 164.627C159.228 171.381 160.11 183.804 160.195 185.674C160.238 186.648 160.26 187.93 160.09 189.174C159.92 190.419 158.623 193.991 156.388 196.029C155.961 196.419 155.497 196.823 155.03 197.236C154.082 198.292 154.351 199.214 156.579 199.407C158.807 199.599 160.766 198.254 162.457 196.18C163.211 195.254 166.073 190.532 166.076 189.576L166.079 189.571C166.079 189.571 166.078 189.572 166.076 189.573C166.078 189.295 166.079 189.032 166.082 188.801C166.103 186.952 166.245 185.366 166.55 183.553C167.481 178.023 169.494 168.049 169.827 163.627C170.356 156.602 169.827 153.187 168.036 147.601C168.719 140.82 168.891 138.428 169.695 130.552Z" fill="#FFA8A7"/>
<path d="M143.519 91.751C143.519 91.751 141.106 100.3 140.29 110.126C139.473 119.953 138.624 139.952 138.991 141.917C139.358 143.882 145.139 168.621 145.139 168.621C145.139 168.621 147.588 169.892 150.063 169.315C152.537 168.737 153.955 167.59 153.955 167.59C153.955 167.59 155.195 156.346 154.733 151.964C154.27 147.581 152.074 142.379 152.074 142.379L154.867 116.438C154.867 116.438 154.52 131.859 155.378 140.876C156.235 149.893 159.094 170.906 159.094 170.906C159.094 170.906 160.553 172.783 163.481 172.783C166.409 172.783 168.713 171.453 168.713 171.453C168.713 171.453 169.722 166.771 170.146 163.072C170.571 159.373 170.571 153.628 168.606 148.061C168.606 148.061 170.742 123.476 171.487 118.102C172.233 112.729 174.167 103.101 168.034 94.1856C167.449 93.9418 143.519 91.751 143.519 91.751Z" fill="#37474F"/>
<path d="M154.866 116.438V115.277C154.866 115.277 149.099 113.469 146.333 109.905C146.333 109.905 147.663 113.291 153.354 116.438C153.354 116.438 153.232 131.616 153.25 131.453C153.268 131.29 154.866 116.438 154.866 116.438Z" fill="#263238"/>
<path d="M140.335 66.8096C138.281 72.8582 134.846 90.2362 134.846 90.2362C134.846 90.2362 128.443 99.5693 126.261 102.255C125.165 103.604 122.794 106.288 122.794 106.288L128.154 110.499C132.029 106.029 137.879 100.072 140.289 96.9843C141.443 95.5066 142.401 94.2426 142.705 92.9421L145.146 77.4854C145.146 77.4854 145.124 65.1309 147.041 63.5098C148.957 61.8886 149.469 61.5475 149.469 61.5475C147.048 61.3741 141.949 62.0595 140.335 66.8096Z" fill="#FFA8A7"/>
<path d="M150.594 61.3728C147.254 60.9888 142.973 61.0579 140.887 64.7949C138.802 68.5318 135.33 87.785 135.33 87.785C135.33 87.785 138.612 90.3386 142.16 90.295L150.594 61.3728Z" fill="#455A64"/>
<path d="M141.308 79.351C141.308 79.351 142.304 83.7517 142.003 88.1101C141.736 91.9725 138.991 99.0509 138.991 99.0509C138.991 99.0509 141.154 101.018 147.041 100.097C151.828 99.3478 150.137 84.8985 147.384 82.0992C144.63 79.2998 141.308 79.351 141.308 79.351Z" fill="#37474F"/>
<path d="M159.151 61.6525C159.151 61.6525 167.147 62.5722 168.103 63.0016C160.603 68.2771 166.675 80.0192 166.675 80.0192L163.799 89.0259C165.646 91.3894 167.347 93.2006 168.782 95.1731C169.833 96.6163 170.742 98.1466 171.463 100.043C173.367 105.056 151.977 113.02 140.289 103.79C140.758 100.888 141.496 97.8771 142.161 95.1725C143.081 91.431 143.862 88.2758 143.597 86.8077C140.237 76.4627 140.029 74.5971 140.626 72.2899C142.304 65.7952 148.925 61.4016 150.56 61.4016L159.151 61.6525Z" fill="#4AB3FE"/>
<path d="M159.151 61.6525C159.151 61.6525 166.635 62.3008 168.104 63.0016C169.572 63.7024 172.013 67.92 169.826 74.0576C167.639 80.1952 165.659 87.3997 165.883 88.8499C166.106 90.3008 171.322 97.792 171.322 97.792C169.806 98.7718 168.198 99.7856 166.522 100.097L163.848 94.2585L164.475 100.462C164.475 100.462 159.665 101.628 156.229 101.329C156.229 101.33 153.692 77.5373 159.151 61.6525Z" fill="#455A64"/>
<path d="M140.132 59.4202H152.523C160.674 59.4202 167.282 52.8128 167.282 44.6618C167.282 37.1642 161.204 31.0867 153.707 31.0867C146.209 31.0867 140.132 37.1648 140.132 44.6618V59.4202Z" fill="#263238"/>
<path d="M145.347 37.2134C143.913 38.0608 142.141 41.6672 142.316 49.2275C142.464 55.6352 144.541 57.2179 145.584 57.6742C146.627 58.1305 148.638 57.8528 150.594 57.527V61.3728C150.594 61.3728 147.891 64.5113 148.061 66.2752C148.231 68.0384 151.963 68.455 154.493 66.7328C157.021 65.0099 159.152 61.6525 159.152 61.6525L159.108 52.8102C159.108 52.8102 160.258 53.9283 162.21 52.2221C163.821 50.8134 164.363 48.4384 163.108 47.1641C161.853 45.8899 159.532 46.2368 158.642 48.0537C158.642 48.0537 157.556 45.0361 153.052 43.5641C148.982 42.2336 146.77 40.7021 145.347 37.2134Z" fill="#FFA8A7"/>
<path d="M149.645 47.3728C149.622 47.8349 149.963 48.2259 150.408 48.247C150.852 48.2681 151.231 47.911 151.254 47.4489C151.277 46.9875 150.936 46.5958 150.491 46.5747C150.047 46.5542 149.668 46.9113 149.645 47.3728Z" fill="#263238"/>
<path d="M149.255 53.0496L147.384 53.6467C147.539 54.1824 148.084 54.4832 148.601 54.3181C149.118 54.1536 149.411 53.5853 149.255 53.0496Z" fill="#F28F8F"/>
<path d="M143.125 45.4054L144.755 44.2752C144.457 43.8099 143.851 43.6851 143.401 43.9974C142.951 44.3098 142.828 44.9402 143.125 45.4054Z" fill="#263238"/>
<path d="M151.815 45.7401L150.184 44.6099C150.482 44.144 151.088 44.0198 151.538 44.3321C151.988 44.6445 152.112 45.2749 151.815 45.7401Z" fill="#263238"/>
<path d="M143.555 47.1808C143.532 47.6422 143.873 48.0339 144.318 48.055C144.762 48.0762 145.142 47.719 145.165 47.2576C145.188 46.7962 144.847 46.4045 144.402 46.3834C143.957 46.3622 143.578 46.7194 143.555 47.1808Z" fill="#263238"/>
<path d="M147.437 46.5741L147.309 51.4246L144.756 50.6342L147.437 46.5741Z" fill="#F28F8F"/>
<path d="M150.594 57.5277C152.654 57.257 156.894 56.0397 157.554 54.3635C157.554 54.3635 157.334 55.417 156.068 56.5024C154.801 57.5878 150.593 58.8109 150.593 58.8109L150.594 57.5277Z" fill="#F28F8F"/>
<path d="M178.231 90.8768C178.823 87.344 178.236 86.1926 176.989 82.7328L170.042 86.7878C170.042 86.7878 171.06 89.392 170.977 90.8761C170.92 91.8893 169.535 102.006 168.234 105.536C168.003 106.161 167.535 106.669 166.947 106.983C165.37 107.825 164.694 108.754 163.473 109.868C162.518 110.74 161.743 110.921 161.839 111.226C161.964 111.617 162.558 112.279 163.673 112.02C164.234 111.891 164.973 111.509 165.898 111.004C165.898 111.004 165.138 112.819 163.442 114.629C161.144 117.083 160.941 118.673 165.219 119.005C167.899 119.213 170.153 117.705 172.577 111.933C173.275 110.27 173.866 107.674 174.433 105.459C175.722 100.419 177.636 94.4269 178.231 90.8768Z" fill="#FFA8A7"/>
<path d="M168.104 63.0009C171.119 64.3558 172.136 66.9651 173.692 71.0515C175.142 74.8614 178.364 86.624 178.364 86.624C178.364 86.624 174.713 90.2304 170.525 89.2L165.189 76.1542C165.189 76.1542 162.682 67.6461 168.104 63.0009Z" fill="#37474F"/>
<path d="M59.9622 235.88C59.5046 236.051 59.2429 236.913 59.0406 239.018C58.9152 240.322 58.4704 242.047 60.4589 243.105C61.5904 243.707 63.6275 244.007 65.161 243.056C66.8832 241.988 67.4195 239.549 69.4394 237.965C71.2109 236.577 74.0576 235.19 75.0541 233.044C75.8746 231.276 75.8701 228.751 72.9344 228.886C69.3549 229.052 67.3306 231.872 64.9011 231.926C63.543 231.956 60.4198 235.709 59.9622 235.88Z" fill="#263238"/>
<path d="M59.9677 234.841L59.9568 236.964C59.9561 238.004 64.3715 239.551 65.6086 237.18C65.7027 236.975 66.1821 234.067 66.1821 234.067L59.9677 234.841Z" fill="#FFBDA7"/>
<path d="M80.4314 248.244C80.4314 248.244 79.593 248.244 79.2627 251.67C79.1373 252.974 78.825 255.65 79.2698 256.618C79.7146 257.586 82.1293 258.015 84.8371 258.258C86.8576 258.44 88.6822 259.416 90.5562 260.475C92.2835 261.451 94.4006 262.057 96.352 262.072C98.9114 262.092 101.08 261.816 102.904 260.373C103.876 259.604 105.106 257.987 104.205 256.765C103.884 256.33 103.327 256.227 102.839 256.045C101.7 255.62 100.548 255.23 99.3882 254.866C97.6608 254.323 95.9456 253.723 94.3194 252.921C91.9296 251.743 89.2666 250.424 87.4605 248.411L80.4314 248.244Z" fill="#263238"/>
<path d="M80.4441 246.472C80.4441 246.472 80.4441 248.047 80.4313 248.948C80.4185 249.848 81.4757 251.196 84.229 251.111C86.1631 251.052 87.5154 250.539 87.4469 248.946L87.4585 246.65L80.4441 246.472Z" fill="#FFBDA7"/>
<path d="M58.7301 206.654C59.7375 199.721 61.294 195.608 61.294 195.608C61.294 195.608 60.5842 186.062 60.2668 177.014C59.9237 167.24 60.4255 155.167 61.0399 149.217C61.0399 149.217 91.7906 146.301 92.2956 157.6C92.8005 168.899 92.0684 197.644 91.6703 202.605C91.2722 207.565 90.8722 212.216 89.8232 221.447C88.9196 229.398 87.4597 246.652 87.4597 246.652C83.8476 248.58 80.4447 246.472 80.4447 246.472C80.4447 246.472 78.1279 223.304 77.8629 217.579C77.5192 210.159 79.2485 206.064 79.2485 206.064C79.2485 206.064 78.5912 201.395 77.4501 191.796C76.6437 185.014 75.5653 177.29 75.5653 177.29C75.5653 177.29 74.5164 186.851 73.877 192.18C73.2844 197.121 72.2828 201.027 70.7999 210.237C69.5141 218.227 66.0018 235.14 66.0018 235.14C62.3896 237.069 59.9685 234.842 59.9685 234.842C59.9685 234.842 57.7221 213.587 58.7301 206.654Z" fill="#37474F"/>
<path d="M75.5641 177.29L74.1101 167.85C74.1101 167.85 68.1261 165.946 65.0835 162.385C65.0835 162.385 66.7059 166.531 72.2848 168.762L74.5184 176.711L74.9005 183.27L75.5641 177.29Z" fill="#263238"/>
<path d="M67.3676 111.332C62.5714 110.174 59.5417 112.501 57.7714 119.023C56.2546 124.613 54.0338 136.182 53.1711 140.506C52.8524 142.105 52.2233 143.94 55.5903 145.959C62.2463 149.95 70.6777 153.574 70.6777 153.574L72.5183 146.678L65.0828 131.453L67.3676 111.332Z" fill="#4AB3FE"/>
<path opacity="0.25" d="M67.3676 111.332C62.5714 110.174 59.5417 112.501 57.7714 119.023C56.2546 124.613 54.0338 136.182 53.1711 140.506C52.8524 142.105 52.2233 143.94 55.5903 145.959C62.2463 149.95 70.6777 153.574 70.6777 153.574L72.5183 146.678L65.0828 131.453L67.3676 111.332Z" fill="black"/>
<path d="M80.6142 108.296L79.178 118.386L70.1016 118.072L70.9739 106.282L80.6142 108.296Z" fill="#FFBDA7"/>
<path d="M87.1304 95.84C87.1304 95.84 89.5656 99.4118 89.3006 99.7702C89.035 100.129 87.2897 100.477 87.2897 100.477L87.1304 95.84Z" fill="#F0997A"/>
<path d="M83.3195 95.2531C83.2939 93.6186 84.6027 92.2669 86.2379 92.2413C87.8724 92.2157 89.2241 93.5251 89.2497 95.1597C89.2753 96.7949 87.9665 98.1466 86.3313 98.1722C84.6967 98.1978 83.3457 96.889 83.3195 95.2531ZM83.9793 95.2429C83.9991 96.5146 85.05 97.5328 86.3217 97.513C87.5934 97.4931 88.611 96.4416 88.5911 95.1699C88.5713 93.8982 87.5204 92.8806 86.2487 92.9005C84.9771 92.921 83.9588 93.9712 83.9793 95.2429Z" fill="#263238"/>
<path d="M80.3684 85.9603C85.1979 86.8998 86.6206 88.9933 87.1953 96.6323C87.7956 104.614 87.0193 107.139 85.987 108.231C85.2894 108.968 81.3547 109.162 79.3598 108.645C76.8625 107.999 71.2132 106.097 68.5182 102.12C65.3489 97.44 64.4344 91.0451 67.7067 88.3642C72.3115 84.5907 78.4036 85.5776 80.3684 85.9603Z" fill="#FFBDA7"/>
<path d="M80.5386 108.848C82.616 109.077 85.4096 108.841 85.9869 108.231C83.6669 108.374 80.8215 107.214 80.8215 107.214L80.5386 108.848Z" fill="#F0997A"/>
<path d="M87.9441 87.8861C87.8955 87.9373 87.8462 87.9872 87.7956 88.0371C86.8414 88.9715 85.61 89.5744 84.611 90.4608C83.5083 91.4394 82.7659 92.7232 82.3812 94.1382C82.0651 95.3018 81.9563 96.6771 80.7057 97.2339C80.7057 97.2339 79.8609 94.1562 77.2625 94.5862C74.6468 95.0189 74.346 98.3654 76.0299 100.37C77.7143 102.374 79.2414 101.571 79.2414 101.571C79.2414 101.571 79.2305 105.989 77.3137 108.52C77.3137 108.52 75.0974 109.276 70.9886 108.468C68.4631 107.971 64.8529 104.881 63.3041 101.572C60.0273 94.5734 59.706 88.2342 64.1758 86.2624C64.611 83.0067 67.1454 81.5098 70.0503 80.7942C74.3947 79.7235 78.5124 82.2477 82.8094 81.2141C83.7099 80.9978 84.5828 80.6598 85.4999 80.5318C85.6049 80.5171 85.7169 80.5062 85.8123 80.5523C86.0337 80.6586 86.0241 80.9747 85.9639 81.2134C85.7476 82.0794 85.322 82.8915 84.7332 83.5616C86.4183 83.6512 88.0036 83.3811 89.6094 82.8672C89.8295 84.6752 89.1979 86.5664 87.9441 87.8861Z" fill="#263238"/>
<path d="M64.8202 87.8336L61.9133 86.1811C62.3697 85.3786 63.3905 85.0976 64.193 85.5539C64.9956 86.0102 65.2765 87.0311 64.8202 87.8336Z" fill="#263238"/>
<path d="M80.7547 98.9632L80.6133 95.6224C81.5355 95.5834 82.3157 96.2995 82.3541 97.2224C82.3938 98.1446 81.6776 98.9242 80.7547 98.9632Z" fill="#263238"/>
<path d="M88.963 94.5446L80.0273 95.8451L80.3979 96.4685L88.9733 95.2173L88.963 94.5446Z" fill="#263238"/>
<path d="M60.0792 116.637C61.1384 112.495 62.634 111.143 66.2385 111.046C67.3182 111.018 71.0008 111.595 71.7803 111.754C72.1592 113.503 76.6814 114.694 81.26 113.748C82.6212 114.146 86.2251 115.126 87.356 115.537C90.595 116.712 92.1636 120.076 92.378 130.751C92.378 130.751 92.9982 156.071 92.3691 160.442C84.2033 163.626 75.7284 163.483 71.0488 162.436C61.3073 160.255 60.1515 156.204 60.1515 156.204C60.1515 156.204 60.6622 146.042 60.9937 138.314C60.5054 133.393 59.7713 129.693 59.5057 125.768C59.2369 121.792 59.6804 118.195 60.0792 116.637Z" fill="#4AB3FE"/>
<path d="M115.35 114.895C116.134 112.893 117.285 109.336 119.151 106.905C120.974 104.531 121.696 102.687 122.433 103.752C123.406 105.158 121.209 107.973 121.696 108.254C122.183 108.536 124.012 112.246 124.196 114.308C124.381 116.37 118.923 121.55 118.923 121.55L115.35 114.895Z" fill="#FFBDA7"/>
<path d="M87.3559 115.537C87.3559 115.537 89.777 115.9 91.8916 117.679C94.163 119.59 105.634 128.574 105.634 128.574L115.937 113.63L120.976 119.436C120.976 119.436 113.43 133.812 110.267 139.186C109.277 140.868 106.784 141.188 102.476 138.703C98.8919 136.635 87.0993 129.24 87.0993 129.24C87.0993 129.24 84.1802 120.68 87.3559 115.537Z" fill="#FFBDA7"/>
<path d="M86.7332 115.33C86.7332 115.33 88.4522 115.364 90.1591 116.233C91.866 117.101 105.634 128.301 105.634 128.301L109.143 123.483C111.984 124.198 114.061 125.499 116.238 128.36C116.238 128.36 112.402 136.556 110.781 139.318C109.16 142.081 107.779 141.48 104.717 140.159C101.654 138.838 89.0442 131.454 89.0442 131.454C89.0442 131.454 85.4506 129.002 84.89 124.91C83.8199 117.101 86.7332 115.33 86.7332 115.33Z" fill="#4AB3FE"/>
<path opacity="0.1" d="M86.7332 115.33C86.7332 115.33 88.4522 115.364 90.1591 116.233C91.866 117.101 105.634 128.301 105.634 128.301L109.143 123.483C111.984 124.198 114.061 125.499 116.238 128.36C116.238 128.36 112.402 136.556 110.781 139.318C109.16 142.081 107.779 141.48 104.717 140.159C101.654 138.838 89.0442 131.454 89.0442 131.454C89.0442 131.454 85.4506 129.002 84.89 124.91C83.8199 117.101 86.7332 115.33 86.7332 115.33Z" fill="black"/>
<path opacity="0.1" d="M105.634 128.301C105.634 128.301 107.497 130.116 108.545 131.455C108.545 131.455 108.468 129.485 106.242 127.467L105.634 128.301Z" fill="black"/>
<path d="M109.144 123.483L110.937 120.881C110.937 120.881 112.977 121.101 115.073 122.554C117.168 124.006 117.798 125.441 117.798 125.441L116.238 128.36C114.338 126.22 111.898 124.402 109.144 123.483Z" fill="#4AB3FE"/>
<path opacity="0.25" d="M109.144 123.483L110.937 120.881C110.937 120.881 112.977 121.101 115.073 122.554C117.168 124.006 117.798 125.441 117.798 125.441L116.238 128.36C114.338 126.22 111.898 124.402 109.144 123.483Z" fill="black"/>
<path d="M116.717 125.768C116.717 126.033 116.502 126.248 116.238 126.248C115.974 126.248 115.759 126.033 115.759 125.768C115.759 125.503 115.973 125.289 116.238 125.289C116.503 125.289 116.717 125.503 116.717 125.768Z" fill="#455A64"/>
<path d="M70.7628 109.135L70.6911 110.106C70.6911 110.106 71.1686 111.478 73.9231 111.989C78.5529 112.849 80.1714 111.411 80.1714 111.411L80.2898 110.578C80.2898 110.578 80.734 110.395 81.4854 110.973C82.2367 111.551 84.6892 114.724 84.6892 114.724C84.6892 114.724 83.8073 114.467 80.9138 115.697C77.9122 116.973 74.1932 116.81 71.8809 116.038C69.5686 115.267 68.6962 113.183 68.581 112.335C68.4652 111.486 69.9673 108.788 70.7628 109.135Z" fill="#4AB3FE"/>
<path opacity="0.25" d="M70.7628 109.135L70.6911 110.106C70.6911 110.106 71.1686 111.478 73.9231 111.989C78.5529 112.849 80.1714 111.411 80.1714 111.411L80.2898 110.578C80.2898 110.578 80.734 110.395 81.4854 110.973C82.2367 111.551 84.6892 114.724 84.6892 114.724C84.6892 114.724 83.8073 114.467 80.9138 115.697C77.9122 116.973 74.1932 116.81 71.8809 116.038C69.5686 115.267 68.6962 113.183 68.581 112.335C68.4652 111.486 69.9673 108.788 70.7628 109.135Z" fill="black"/>
<path d="M121.544 107.939C121.544 107.939 128.143 107.366 129.105 107.921C130.066 108.476 129.777 111.348 129.105 113.1C128.434 114.852 125.067 115.992 121.944 118.108C121.937 117.806 121.544 107.939 121.544 107.939Z" fill="#FFBDA7"/>
<path d="M121.944 118.108C123.206 117.164 123.243 116.015 123.492 114.174C123.74 112.333 128.787 110.358 128.946 111.729C129.104 113.1 129.566 114.244 128.014 115.902C126.463 117.559 124.253 119.339 121.944 118.108Z" fill="#FFA8A7"/>
<path d="M122.301 106.287C121.094 107.849 120.889 109.688 120.254 110.705C119.618 111.723 118.654 112.893 120.054 113.084C121.453 113.274 123.146 111.446 123.909 109.793C124.672 108.139 125.944 107.69 125.944 107.69C125.285 107.469 125.633 104.839 125.169 104.477C125.169 104.477 122.794 105.45 122.301 106.287Z" fill="#FFA8A7"/>
<defs>
<linearGradient id="paint0_linear_514_20050" x1="26.6797" y1="227.789" x2="293.25" y2="227.789" gradientUnits="userSpaceOnUse">
<stop stop-color="#E0EAFC"/>
<stop offset="1" stop-color="#CFDEF3"/>
</linearGradient>
</defs>
</svg>
