<svg width="26" height="26" viewBox="0 0 26 26" fill="none" xmlns="http://www.w3.org/2000/svg">
<g id="google_ic">
<g id="Group 123">
<path id="Vector" d="M6.42203 15.4656L5.59928 18.537L2.59216 18.6006C1.69347 16.9338 1.18372 15.0266 1.18372 13C1.18372 11.0403 1.66032 9.1922 2.50514 7.56494H2.50578L5.18297 8.05576L6.35574 10.7169C6.11028 11.4325 5.9765 12.2007 5.9765 13C5.97659 13.8675 6.13373 14.6987 6.42203 15.4656Z" fill="#FBBB00"/>
<path id="Vector_2" d="M24.6136 10.7922C24.7493 11.5071 24.8201 12.2454 24.8201 13C24.8201 13.8461 24.7311 14.6714 24.5617 15.4675C23.9864 18.1766 22.4831 20.5422 20.4006 22.2162L20.4 22.2156L17.0279 22.0435L16.5507 19.0643C17.9325 18.2539 19.0124 16.9857 19.5812 15.4675H13.2617V10.7922H19.6734H24.6136Z" fill="#518EF8"/>
<path id="Vector_3" d="M20.3999 22.2156L20.4006 22.2163C18.3753 23.8442 15.8025 24.8182 13.0019 24.8182C8.50125 24.8182 4.58828 22.3026 2.59216 18.6007L6.42204 15.4656C7.42007 18.1293 9.98956 20.0254 13.0019 20.0254C14.2967 20.0254 15.5097 19.6754 16.5506 19.0643L20.3999 22.2156Z" fill="#28B446"/>
<path id="Vector_4" d="M20.5454 3.90259L16.7168 7.03699C15.6396 6.36364 14.3662 5.97465 13.0019 5.97465C9.92136 5.97465 7.30382 7.95775 6.35578 10.7169L2.50577 7.56493H2.50513C4.47202 3.77273 8.43435 1.18182 13.0019 1.18182C15.8694 1.18182 18.4986 2.20327 20.5454 3.90259Z" fill="#F14336"/>
</g>
</g>
</svg>
