<svg width="25" height="24" viewBox="0 0 25 24" fill="none" xmlns="http://www.w3.org/2000/svg">
<rect width="24.3158" height="24" rx="3.15789" fill="#2960EB"/>
<path d="M14.8725 16.7475H17.3438C18.1531 16.7475 18.81 16.0906 18.81 15.2812V13.0312C18.81 12.2219 18.1531 11.565 17.3438 11.565C16.5344 11.565 15.8775 12.2219 15.8775 13.0312V16.065H14.25H14.19V16.125V19.5V19.56H14.25H14.8125H14.8725V19.5V16.7475ZM14.8125 13.935H14.8725V13.875V13.3125V13.2525H14.8125H9.1875H9.1275V13.3125V13.875V13.935H9.1875H14.8125ZM14.8069 10.56H14.8669V10.5V6.84375C14.8669 6.34374 14.4631 5.94 13.9631 5.94H10.0256C9.52561 5.94 9.12187 6.34374 9.12187 6.84375V10.5V10.56H9.18187H10.7465L11.5736 11.2437L11.5903 11.2575H11.5952C11.711 11.3533 11.858 11.4037 12 11.4037C12.1473 11.4037 12.2971 11.3549 12.411 11.2481L13.2422 10.56H14.8069ZM10.9763 9.8775H9.81V6.84375C9.81 6.71939 9.90689 6.6225 10.0312 6.6225H13.9688C14.0931 6.6225 14.19 6.71939 14.19 6.84375V9.8775H13.0237H13.0027L12.9863 9.89065L11.9837 10.6927L11.0145 9.89126L10.9978 9.8775H10.9763ZM15.9375 17.7525H15.8775V17.8125V19.5V19.56H15.9375H16.5H16.56V19.5V18.435H18.75H18.81V18.375V17.8125V17.7525H18.75H15.9375ZM9.75 16.065H8.1225V13.0312C8.1225 12.2219 7.46564 11.565 6.65625 11.565C5.84686 11.565 5.19 12.2219 5.19 13.0312V15.2812C5.19 16.0906 5.84686 16.7475 6.65625 16.7475H9.1275V19.5V19.56H9.1875H9.75H9.81V19.5V16.125V16.065H9.75ZM5.25 17.7525H5.19V17.8125V18.375V18.435H5.25H7.44V19.5V19.56H7.5H8.0625H8.1225V19.5V17.8125V17.7525H8.0625H5.25ZM17.3438 11.1225C18.1531 11.1225 18.81 10.4656 18.81 9.65625C18.81 8.84686 18.1531 8.19 17.3438 8.19C16.5344 8.19 15.8775 8.84686 15.8775 9.65625C15.8775 10.4656 16.5344 11.1225 17.3438 11.1225ZM17.3438 8.8725C17.7775 8.8725 18.1275 9.22251 18.1275 9.65625C18.1275 10.09 17.7775 10.44 17.3438 10.44C16.91 10.44 16.56 10.09 16.56 9.65625C16.56 9.22251 16.91 8.8725 17.3438 8.8725ZM18.1275 15.2812C18.1275 15.715 17.7775 16.065 17.3438 16.065H16.56V13.0312C16.56 12.5975 16.91 12.2475 17.3438 12.2475C17.7775 12.2475 18.1275 12.5975 18.1275 13.0312V15.2812ZM6.65625 11.1225C7.46564 11.1225 8.1225 10.4656 8.1225 9.65625C8.1225 8.84686 7.46564 8.19 6.65625 8.19C5.84686 8.19 5.19 8.84686 5.19 9.65625C5.19 10.4656 5.84686 11.1225 6.65625 11.1225ZM6.65625 8.8725C7.08999 8.8725 7.44 9.22251 7.44 9.65625C7.44 10.09 7.08999 10.44 6.65625 10.44C6.22251 10.44 5.8725 10.09 5.8725 9.65625C5.8725 9.22251 6.22251 8.8725 6.65625 8.8725ZM6.65625 16.065C6.22251 16.065 5.8725 15.715 5.8725 15.2812V13.0312C5.8725 12.5975 6.22251 12.2475 6.65625 12.2475C7.08999 12.2475 7.44 12.5975 7.44 13.0312V16.065H6.65625Z" fill="white" stroke="white" stroke-width="0.12"/>
</svg>
