<?xml version="1.0" encoding="UTF-8"?>
<svg id="Layer_1" data-name="Layer 1" xmlns="http://www.w3.org/2000/svg" viewBox="0 0 512 512">
  <defs>
    <style>
      .cls-1 {
        stroke-width: 0px;
      }
    </style>
  </defs>
  <path class="cls-1" d="M506.03,200.32c4.05,18.13,5.97,36.91,5.97,55.68,0,141.23-114.77,256-256,256S0,397.23,0,256,114.77,0,256,0c18.77,0,37.55,2.13,55.68,5.97,5.76,1.28,9.39,7.04,8.11,12.8-1.28,5.76-7.04,9.39-12.8,8.11-16.64-3.63-33.92-5.55-50.99-5.55C126.51,21.33,21.33,126.51,21.33,256s105.17,234.67,234.67,234.67,234.67-105.17,234.67-234.67c0-17.28-1.92-34.35-5.55-50.99-1.28-5.76,2.35-11.52,8.11-12.8,5.76-1.28,11.52,2.35,12.8,8.11h0ZM285.87,109.65c5.76,1.07,11.31-2.56,12.59-8.32,1.07-5.76-2.56-11.31-8.32-12.59-11.09-2.35-22.61-3.41-34.13-3.41-94.08,0-170.67,76.59-170.67,170.67s76.59,170.67,170.67,170.67,170.67-76.59,170.67-170.67c0-11.52-1.07-23.04-3.41-34.13-1.07-5.76-6.83-9.39-12.59-8.32-5.76,1.28-9.6,6.83-8.32,12.59,1.92,9.81,2.99,19.84,2.99,29.87,0,82.35-66.99,149.33-149.33,149.33s-149.33-66.99-149.33-149.33,66.99-149.33,149.33-149.33c10.03,0,20.05,1.07,29.87,2.99ZM246.83,192.64c5.76-.85,9.81-6.19,8.96-12.16s-6.19-10.03-12.16-8.96c-41.81,5.97-73.17,42.24-73.17,84.48,0,47.15,38.19,85.33,85.33,85.33,42.24,0,78.51-31.36,84.48-73.17.85-5.76-3.2-11.31-8.96-12.16s-11.31,3.2-12.16,8.96c-4.48,31.36-31.79,54.83-63.36,54.83-35.2,0-64-28.8-64-64,0-31.57,23.47-58.88,54.83-63.36l.21.21ZM341.33,155.52v-63.15c0-14.29,5.55-27.73,15.57-37.76L408.53,3.2c2.99-2.99,7.68-4.05,11.52-2.35,4.05,1.71,6.61,5.55,6.61,9.81v74.67h74.67c4.27,0,8.11,2.56,9.81,6.61s.64,8.53-2.35,11.52l-51.41,51.41c-10.03,10.03-23.47,15.57-37.76,15.57h-63.15l-92.8,92.8c-2.13,2.13-4.91,3.2-7.47,3.2s-5.55-1.07-7.47-3.2c-4.27-4.27-4.27-10.88,0-15.15l92.8-92.8-.21.21ZM362.67,149.33h56.96c8.53,0,16.64-3.41,22.61-9.39l33.28-33.28h-59.52c-5.97,0-10.67-4.69-10.67-10.67v-59.52l-33.28,33.28c-5.97,5.97-9.39,14.08-9.39,22.61v56.96Z"/>
</svg>