<svg width="25" height="24" viewBox="0 0 25 24" fill="none" xmlns="http://www.w3.org/2000/svg">
<g clip-path="url(#clip0_514_17204)">
<path opacity="0.1" d="M12.8 24C19.4274 24 24.8 18.6274 24.8 12C24.8 5.37258 19.4274 0 12.8 0C6.17259 0 0.800003 5.37258 0.800003 12C0.800003 18.6274 6.17259 24 12.8 24Z" fill="#D7F4EA"/>
<path d="M7.63577 16.8214H12.1358V18.1072H7.63577C6.92218 18.1072 6.35001 17.535 6.35001 16.8214V6.53576C6.35001 5.82859 6.92218 5.25 7.63577 5.25H15.35C16.0636 5.25 16.6358 5.82859 16.6358 6.53576V12.0258L15.6714 11.4986L15.35 11.6786V6.53576H12.1358V11.6786L10.5286 10.2322L8.92142 11.6786V6.53576H7.63577V16.8214ZM19.2072 14.8928L15.6714 12.9642L12.1358 14.8928L15.6714 16.8214L19.2072 14.8928ZM13.4214 16.2364V17.5222L15.6714 18.75L17.9214 17.5222V16.2364L15.6714 17.4642L13.4214 16.2364Z" fill="#2DC38D"/>
</g>
<defs>
<clipPath id="clip0_514_17204">
<rect x="0.800003" width="24" height="24" rx="6" fill="white"/>
</clipPath>
</defs>
</svg>
