<svg width="20" height="20" viewBox="0 0 20 20" fill="none" xmlns="http://www.w3.org/2000/svg">
<circle cx="8" cy="8" r="8" fill="#D9FFF1"/>
<path d="M14.4837 13.107C15.7072 12.1658 15.9425 10.4129 15.0013 9.18933C14.0601 7.9658 12.3072 7.7305 11.0837 8.67168C9.86013 9.61285 9.62483 11.3658 10.566 12.5893C10.7131 12.7834 10.8895 12.9599 11.0837 13.107C10.2131 13.4305 9.45424 14.0011 8.9013 14.7423C8.75424 14.9364 8.79542 15.2129 8.98954 15.3599C9.18365 15.507 9.46013 15.4658 9.60718 15.2717C10.9248 13.5187 13.4131 13.1599 15.166 14.4776C15.466 14.7011 15.7366 14.9717 15.9601 15.2717C16.1072 15.4658 16.3837 15.507 16.5778 15.3599C16.7719 15.2129 16.8131 14.9364 16.666 14.7423C16.1131 13.9952 15.3542 13.4305 14.4837 13.107ZM10.8719 10.8893C10.8719 9.83638 11.7307 8.97756 12.7837 8.97756C13.8366 8.97756 14.6954 9.83638 14.6954 10.8893C14.6954 11.9423 13.8366 12.8011 12.7837 12.8011C11.7307 12.8011 10.8719 11.9423 10.8719 10.8893ZM18.0778 4.5658H7.48954C6.91895 4.5658 6.46013 5.02462 6.46013 5.59521V7.50697H5.1366C4.89542 7.50697 4.69542 7.70697 4.69542 7.94815C4.69542 8.18933 4.89542 8.38933 5.1366 8.38933H6.46013V11.6246H5.1366C4.89542 11.6246 4.69542 11.8246 4.69542 12.0658C4.69542 12.307 4.89542 12.507 5.1366 12.507H6.46013V15.7423H5.1366C4.89542 15.7423 4.69542 15.9423 4.69542 16.1834C4.69542 16.4246 4.89542 16.6246 5.1366 16.6246H6.46013V18.5364C6.46013 19.107 6.91895 19.5658 7.48954 19.5658H18.0778C18.6484 19.5658 19.1072 19.107 19.1072 18.5364V5.59521C19.1072 5.02462 18.6484 4.5658 18.0778 4.5658ZM18.2248 18.5364C18.2248 18.6187 18.1601 18.6834 18.0778 18.6834H7.48954C7.40718 18.6834 7.34248 18.6187 7.34248 18.5364V5.59521C7.34248 5.51285 7.40718 5.44815 7.48954 5.44815H18.0778C18.1601 5.44815 18.2248 5.51285 18.2248 5.59521V18.5364Z" fill="#2DC38D"/>
</svg>
