<svg width="80" height="54" viewBox="0 0 80 54" fill="none" xmlns="http://www.w3.org/2000/svg">
<path d="M62.4692 21.7684H74.4585H77.6685L75.1925 23.5679V27.1081C75.1925 27.5164 74.8639 27.8473 74.4585 27.8473H62.4692C62.0639 27.8473 61.7352 27.5163 61.7352 27.1081V22.5076C61.7352 22.0994 62.0639 21.7684 62.4692 21.7684Z" fill="#F5F5F5"/>
<path d="M63.1032 24.2704C63.1032 24.2852 65.3956 24.2972 68.2227 24.2972C71.0508 24.2972 73.3427 24.2852 73.3427 24.2704C73.3427 24.2557 71.0508 24.2437 68.2227 24.2437C65.3956 24.2438 63.1032 24.2557 63.1032 24.2704Z" fill="#4AB3FE"/>
<path d="M63.1032 25.6297C63.1032 25.6444 65.3956 25.6564 68.2227 25.6564C71.0508 25.6564 73.3427 25.6445 73.3427 25.6297C73.3427 25.6149 71.0508 25.6029 68.2227 25.6029C65.3956 25.6029 63.1032 25.6148 63.1032 25.6297Z" fill="#4AB3FE"/>
<path d="M39.3853 8.7052H38.674V11.1048H39.3853V8.7052Z" fill="#4AB3FE"/>
<path d="M33.4443 8.35754H32.733V11.1048H33.4443V8.35754Z" fill="#4AB3FE"/>
<path d="M34.9295 7.78491H34.2182V11.1048H34.9295V7.78491Z" fill="#4AB3FE"/>
<path d="M36.4147 7.96692H35.7035V11.1047H36.4147V7.96692Z" fill="#4AB3FE"/>
<path d="M37.9 6.90552H37.1888V11.1048H37.9V6.90552Z" fill="#4AB3FE"/>
<path d="M40.8705 6.9259H40.1592V11.1048H40.8705V6.9259Z" fill="#4AB3FE"/>
<path d="M42.3558 8.29846H41.6446V11.1048H42.3558V8.29846Z" fill="#4AB3FE"/>
<path d="M43.841 7.10999H43.1298V11.1047H43.841V7.10999Z" fill="#4AB3FE"/>
<path d="M45.3263 6.21008H44.615V11.1047H45.3263V6.21008Z" fill="#4AB3FE"/>
<path d="M46.8116 7.0896H46.1004V11.1049H46.8116V7.0896Z" fill="#4AB3FE"/>
<path d="M65.5529 10.8822L71.4352 9.97703C71.9282 13.227 69.6787 16.3098 66.4518 16.8065C63.2249 17.303 60.1639 15.0375 59.6708 11.7875C59.1778 8.53759 61.4273 5.45472 64.6542 4.95818C65.1679 4.87912 65.6898 4.86816 66.2063 4.92563L65.5529 10.8822Z" fill="#B7E1FF"/>
<path d="M67.4615 4.94446L66.7474 9.53671L71.2232 8.69017C71.2232 8.69017 70.565 6.11661 67.4615 4.94446Z" fill="#4AB3FE"/>
<path d="M5.4912 22.0224C5.46538 20.3954 6.75264 19.0505 8.36064 19.0244C9.96864 18.9983 11.2979 20.3007 11.3237 21.9277C11.3495 23.5547 10.0623 24.8996 8.45429 24.9257C6.84629 24.9518 5.51701 23.6493 5.4912 22.0224ZM9.80181 21.9524C9.78944 21.1745 9.15392 20.5517 8.38506 20.5642C7.61621 20.5767 7.00074 21.2197 7.01312 21.9976C7.02549 22.7755 7.66101 23.3983 8.42986 23.3858C9.19872 23.3734 9.81418 22.7303 9.80181 21.9524Z" fill="#F5F5F5"/>
<path d="M5.4912 22.0224C5.46538 20.3954 6.75264 19.0505 8.36053 19.0244L8.38496 20.5642C7.6161 20.5766 7.00064 21.2198 7.01301 21.9977C7.02538 22.7756 7.6609 23.3984 8.42976 23.3858L8.45418 24.9256C6.84629 24.9518 5.51701 23.6494 5.4912 22.0224Z" fill="#4AB3FE"/>
<path d="M8.09875 18.7876C9.98003 18.757 11.4807 20.2274 11.5109 22.1309L9.73043 22.1598C9.71603 21.2496 9.02835 20.6766 8.12894 20.6913L8.09875 18.7876Z" fill="#EBEBEB"/>
<path d="M24.4393 32.3831H20.7321V36.8218H24.4393V32.3831Z" fill="#F5F5F5"/>
<path d="M20.8599 32.0936H4.10623V37.1009H20.8599V32.0936Z" fill="#4AB3FE"/>
<path d="M24.5517 32.5147H20.4108V32.0936H24.5517C24.6671 32.0936 24.7607 32.1879 24.7607 32.3042C24.7607 32.4204 24.6672 32.5147 24.5517 32.5147Z" fill="#4AB3FE"/>
<path d="M24.5517 37.1009H20.4108V36.6798H24.5517C24.6671 36.6798 24.7607 36.774 24.7607 36.8904C24.7607 37.0067 24.6672 37.1009 24.5517 37.1009Z" fill="#4AB3FE"/>
<path d="M19.5426 32.0936H17.5633V37.1009H19.5426V32.0936Z" fill="#EBEBEB"/>
<path d="M7.67891 32.149H5.69949V37.1563H7.67891V32.149Z" fill="#EBEBEB"/>
<path d="M24.4393 33.1172C24.4393 33.1295 23.637 33.1394 22.6474 33.1394C21.6576 33.1394 20.8554 33.1295 20.8554 33.1172C20.8554 33.105 21.6576 33.0951 22.6474 33.0951C23.637 33.0951 24.4393 33.105 24.4393 33.1172Z" fill="#4AB3FE"/>
<path d="M24.4393 33.7829C24.4393 33.7951 23.637 33.8051 22.6474 33.8051C21.6576 33.8051 20.8554 33.7952 20.8554 33.7829C20.8554 33.7706 21.6576 33.7607 22.6474 33.7607C23.637 33.7606 24.4393 33.7706 24.4393 33.7829Z" fill="#4AB3FE"/>
<path d="M24.4393 34.6024C24.4393 34.6147 23.637 34.6246 22.6474 34.6246C21.6576 34.6246 20.8554 34.6147 20.8554 34.6024C20.8554 34.5902 21.6576 34.5802 22.6474 34.5802C23.637 34.5802 24.4393 34.5902 24.4393 34.6024Z" fill="#4AB3FE"/>
<path d="M24.4393 35.422C24.4393 35.4343 23.637 35.4442 22.6474 35.4442C21.6576 35.4442 20.8554 35.4343 20.8554 35.422C20.8554 35.4098 21.6576 35.3999 22.6474 35.3999C23.637 35.3998 24.4393 35.4098 24.4393 35.422Z" fill="#4AB3FE"/>
<path d="M24.4393 36.2416C24.4393 36.2539 23.637 36.2637 22.6474 36.2637C21.6576 36.2637 20.8554 36.2539 20.8554 36.2416C20.8554 36.2294 21.6576 36.2195 22.6474 36.2195C23.637 36.2194 24.4393 36.2294 24.4393 36.2416Z" fill="#4AB3FE"/>
<path d="M16.4992 34.1515H8.96191V35.0531H16.4992V34.1515Z" fill="#EBEBEB"/>
<path d="M24.4017 37.1991H20.6376V39.9037H24.4017V37.1991Z" fill="#FAFAFA"/>
<path d="M20.6797 37.101H4.66089V40.0018H20.6797V37.101Z" fill="#F5F5F5"/>
<path d="M20.5633 37.2972H24.6091C24.6629 37.2972 24.7064 37.2533 24.7064 37.199C24.7064 37.1449 24.6628 37.101 24.6091 37.101H20.5633V37.2972Z" fill="#F5F5F5"/>
<path d="M20.5633 40.0018H24.6617C24.6865 40.0018 24.7064 39.9816 24.7064 39.9568V39.8506C24.7064 39.8257 24.6864 39.8055 24.6617 39.8055H20.5633V40.0018Z" fill="#F5F5F5"/>
<path d="M24.4017 37.7128C24.4017 37.7251 23.5684 37.735 22.5408 37.735C21.5127 37.735 20.6797 37.7252 20.6797 37.7128C20.6797 37.7006 21.5127 37.6907 22.5408 37.6907C23.5684 37.6907 24.4017 37.7006 24.4017 37.7128Z" fill="#4AB3FE"/>
<path d="M24.4017 38.2245C24.4017 38.2368 23.5684 38.2468 22.5408 38.2468C21.5127 38.2468 20.6797 38.2369 20.6797 38.2245C20.6797 38.2123 21.5127 38.2024 22.5408 38.2024C23.5684 38.2024 24.4017 38.2123 24.4017 38.2245Z" fill="#4AB3FE"/>
<path d="M24.4017 38.7362C24.4017 38.7485 23.5684 38.7585 22.5408 38.7585C21.5127 38.7585 20.6797 38.7486 20.6797 38.7362C20.6797 38.724 21.5127 38.7141 22.5408 38.7141C23.5684 38.7141 24.4017 38.724 24.4017 38.7362Z" fill="#4AB3FE"/>
<path d="M24.4017 39.248C24.4017 39.2602 23.5684 39.2701 22.5408 39.2701C21.5127 39.2701 20.6797 39.2602 20.6797 39.248C20.6797 39.2357 21.5127 39.2258 22.5408 39.2258C23.5684 39.2258 24.4017 39.2357 24.4017 39.248Z" fill="#4AB3FE"/>
<path d="M24.9726 40.2595H21.1306V47.5912H24.9726V40.2595Z" fill="#EBEBEB"/>
<path d="M21.1307 40.0018H3.09653V47.9513H21.1307V40.0018Z" fill="#4AB3FE"/>
<path d="M25.2734 47.9513H20.6376V47.4358H25.2734C25.4147 47.4358 25.5294 47.5512 25.5294 47.6935C25.5293 47.8359 25.4147 47.9513 25.2734 47.9513Z" fill="#4AB3FE"/>
<path d="M25.4118 40.5174H20.6376V40.0018H25.4118C25.4767 40.0018 25.5293 40.0548 25.5293 40.1201V40.3991C25.5293 40.4644 25.4767 40.5174 25.4118 40.5174Z" fill="#4AB3FE"/>
<path d="M24.9727 41.2425C24.9727 41.2547 24.1125 41.2646 23.0518 41.2646C21.9907 41.2646 21.1308 41.2547 21.1308 41.2425C21.1308 41.2302 21.9907 41.2203 23.0518 41.2203C24.1125 41.2203 24.9727 41.2302 24.9727 41.2425Z" fill="#4AB3FE"/>
<path d="M24.9727 42.1828C24.9727 42.195 24.1125 42.2049 23.0518 42.2049C21.9907 42.2049 21.1308 42.195 21.1308 42.1828C21.1308 42.1705 21.9907 42.1606 23.0518 42.1606C24.1125 42.1606 24.9727 42.1705 24.9727 42.1828Z" fill="#4AB3FE"/>
<path d="M24.9727 43.1231C24.9727 43.1353 24.1125 43.1452 23.0518 43.1452C21.9907 43.1452 21.1308 43.1353 21.1308 43.1231C21.1308 43.1108 21.9907 43.101 23.0518 43.101C24.1125 43.101 24.9727 43.1108 24.9727 43.1231Z" fill="#4AB3FE"/>
<path d="M24.9727 44.0634C24.9727 44.0756 24.1125 44.0856 23.0518 44.0856C21.9907 44.0856 21.1308 44.0757 21.1308 44.0634C21.1308 44.0511 21.9907 44.0413 23.0518 44.0413C24.1125 44.0413 24.9727 44.0511 24.9727 44.0634Z" fill="#4AB3FE"/>
<path d="M24.9727 45.0037C24.9727 45.0159 24.1125 45.0258 23.0518 45.0258C21.9907 45.0258 21.1308 45.0159 21.1308 45.0037C21.1308 44.9915 21.9907 44.9816 23.0518 44.9816C24.1125 44.9816 24.9727 44.9915 24.9727 45.0037Z" fill="#4AB3FE"/>
<path d="M24.9727 45.9441C24.9727 45.9564 24.1125 45.9663 23.0518 45.9663C21.9907 45.9663 21.1308 45.9564 21.1308 45.9441C21.1308 45.9319 21.9907 45.922 23.0518 45.922C24.1125 45.9219 24.9727 45.9319 24.9727 45.9441Z" fill="#4AB3FE"/>
<path d="M24.9727 46.8844C24.9727 46.8967 24.1125 46.9066 23.0518 46.9066C21.9907 46.9066 21.1308 46.8967 21.1308 46.8844C21.1308 46.8722 21.9907 46.8623 23.0518 46.8623C24.1125 46.8622 24.9727 46.8722 24.9727 46.8844Z" fill="#4AB3FE"/>
<path d="M9.26761 44.4115V44.8538C9.26761 45.3864 9.00318 45.6909 8.4931 45.6909C7.98313 45.6909 7.7186 45.3866 7.7186 44.8538V43.1226C7.7186 42.59 7.98302 42.2855 8.4931 42.2855C9.00308 42.2855 9.26761 42.5899 9.26761 43.1226V43.4461H8.77652V43.0894C8.77652 42.8516 8.67262 42.7612 8.5074 42.7612C8.34206 42.7612 8.23817 42.8516 8.23817 43.0894V44.8872C8.23817 45.1251 8.34206 45.2107 8.5074 45.2107C8.67262 45.2107 8.77652 45.1251 8.77652 44.8872V44.4116H9.26761V44.4115Z" fill="#EBEBEB"/>
<path d="M9.54111 43.1226C9.54111 42.59 9.81972 42.2855 10.3297 42.2855C10.8397 42.2855 11.1184 42.5899 11.1184 43.1226V44.8538C11.1184 45.3864 10.8398 45.6909 10.3297 45.6909C9.81961 45.6909 9.54111 45.3866 9.54111 44.8538V43.1226ZM10.0606 44.8872C10.0606 45.1251 10.1645 45.2154 10.3297 45.2154C10.495 45.2154 10.5989 45.1251 10.5989 44.8872V43.0894C10.5989 42.8516 10.495 42.7612 10.3297 42.7612C10.1645 42.7612 10.0606 42.8516 10.0606 43.0894V44.8872Z" fill="#EBEBEB"/>
<path d="M11.4533 42.3236H11.9728V45.1773H12.8275V45.6529H11.4533V42.3236Z" fill="#EBEBEB"/>
<path d="M13.0113 43.1226C13.0113 42.59 13.2899 42.2855 13.8 42.2855C14.31 42.2855 14.5887 42.5899 14.5887 43.1226V44.8538C14.5887 45.3864 14.3101 45.6909 13.8 45.6909C13.2899 45.6909 13.0113 45.3866 13.0113 44.8538V43.1226ZM13.5308 44.8872C13.5308 45.1251 13.6347 45.2154 13.8 45.2154C13.9652 45.2154 14.0692 45.1251 14.0692 44.8872V43.0894C14.0692 42.8516 13.9653 42.7612 13.8 42.7612C13.6347 42.7612 13.5308 42.8516 13.5308 43.0894V44.8872Z" fill="#EBEBEB"/>
<path d="M15.4194 42.3236V44.8919C15.4194 45.1298 15.5233 45.2153 15.6886 45.2153C15.854 45.2153 15.9579 45.1296 15.9579 44.8919V42.3236H16.4489V44.8586C16.4489 45.3912 16.1845 45.6957 15.6744 45.6957C15.1645 45.6957 14.8999 45.3913 14.8999 44.8586V42.3236H15.4194Z" fill="#EBEBEB"/>
<path d="M17.8888 45.6528C17.8605 45.5672 17.8416 45.5149 17.8416 45.2438V44.7207C17.8416 44.4115 17.7377 44.2974 17.5015 44.2974H17.3221V45.6529H16.8026V42.3236H17.5865C18.1249 42.3236 18.3562 42.5756 18.3562 43.0894V43.3509C18.3562 43.6934 18.2477 43.9169 18.0162 44.0264C18.2759 44.1357 18.3609 44.3878 18.3609 44.7351V45.2487C18.3609 45.4104 18.3656 45.5293 18.4176 45.6529L17.8888 45.6528ZM17.3221 42.7992V43.8218H17.5252C17.7188 43.8218 17.8369 43.7362 17.8369 43.4699V43.1417C17.8369 42.9038 17.7566 42.7992 17.5725 42.7992H17.3221Z" fill="#EBEBEB"/>
<path d="M15.9777 38.75C15.9777 39.0293 15.7845 39.2332 15.5207 39.2332C15.3673 39.2332 15.2599 39.17 15.214 39.0557L15.122 39.5252H15.0132L15.2325 38.4131H15.3367L15.3107 38.543C15.3874 38.4565 15.4948 38.4071 15.6252 38.4071C15.832 38.4072 15.9777 38.5369 15.9777 38.75ZM15.8673 38.7562C15.8673 38.597 15.7707 38.5029 15.602 38.5029C15.4012 38.5029 15.2539 38.6619 15.2539 38.8842C15.2539 39.0434 15.3505 39.136 15.5191 39.136C15.7201 39.1361 15.8673 38.9771 15.8673 38.7562Z" fill="#4AB3FE"/>
<path d="M16.9541 38.6713C16.9541 38.7006 16.951 38.7315 16.9448 38.7639L16.8529 39.2256H16.744L16.836 38.7622C16.8405 38.736 16.8436 38.7113 16.8436 38.6882C16.8436 38.5724 16.7746 38.506 16.6351 38.506C16.4633 38.506 16.3453 38.6001 16.3069 38.7901L16.221 39.2256H16.1121L16.3391 38.0796H16.4479L16.3574 38.5352C16.4341 38.4473 16.5414 38.4072 16.6657 38.4072C16.8482 38.4072 16.9541 38.5061 16.9541 38.6713Z" fill="#4AB3FE"/>
<path d="M17.9733 38.4133L17.3844 39.3309C17.2847 39.4853 17.2096 39.5332 17.0931 39.5332C17.018 39.5332 16.9412 39.5068 16.9014 39.4605L16.9597 39.3803C16.995 39.4172 17.0409 39.4389 17.1023 39.4389C17.1714 39.4389 17.2249 39.4065 17.2879 39.3077L17.3446 39.2212L17.1437 38.4132H17.2541L17.4212 39.1052L17.8613 38.4132H17.9733V38.4133Z" fill="#4AB3FE"/>
<path d="M20.4031 5.02649H7.49705H4.04169L6.70697 6.96353V10.7745C6.70697 11.2139 7.06067 11.5703 7.49705 11.5703H20.4031C20.8394 11.5703 21.1933 11.2141 21.1933 10.7745V5.82232C21.1933 5.38272 20.8396 5.02649 20.4031 5.02649Z" fill="#EAFFF7"/>
<path d="M19.7207 7.71971C19.7207 7.73561 17.2531 7.7485 14.2098 7.7485C11.1654 7.7485 8.69833 7.73561 8.69833 7.71971C8.69833 7.70381 11.1654 7.69092 14.2098 7.69092C17.253 7.69092 19.7207 7.70381 19.7207 7.71971Z" fill="#4AB3FE"/>
<path d="M19.7207 9.18284C19.7207 9.19874 17.2531 9.21163 14.2098 9.21163C11.1654 9.21163 8.69833 9.19874 8.69833 9.18284C8.69833 9.16694 11.1654 9.15405 14.2098 9.15405C17.253 9.15405 19.7207 9.16694 19.7207 9.18284Z" fill="#4AB3FE"/>
<path d="M77.1485 47.9512C77.1485 47.9666 60.4196 47.9791 39.7885 47.9791C19.1501 47.9791 2.42487 47.9665 2.42487 47.9512C2.42487 47.9358 19.1501 47.9232 39.7885 47.9232C60.4198 47.9231 77.1485 47.9357 77.1485 47.9512Z" fill="#263238"/>
<path d="M70.1279 42.468C70.1279 42.468 67.3004 39.1905 66.2335 35.9131C65.1665 32.6355 65.6734 33.0116 65.6734 33.0116C65.6734 33.0116 67.1138 36.1955 68.2075 37.7333C69.3011 39.2712 71.2483 41.5278 71.2483 41.5278L70.1279 42.468Z" fill="#2DC38D"/>
<path d="M70.6914 33.5223C70.6002 33.3623 70.3575 33.4454 70.3848 33.6278C70.5571 34.779 70.9297 37.4807 70.9151 39.2329C70.8961 41.5092 70.9159 42.389 70.9159 42.389H72.0927C72.0927 42.389 71.8837 37.6834 71.6179 36.2488C71.4314 35.243 71.0356 34.1261 70.6914 33.5223Z" fill="#2DC38D"/>
<path d="M71.3329 42.0065C71.3329 42.0065 72.0736 40.4379 72.3016 38.4678C72.3985 37.6298 72.2256 36.4976 71.9684 34.9865C71.8439 34.2546 71.8157 33.6975 71.8196 33.3113C71.8226 33.0194 72.2051 32.9242 72.3468 33.1788C72.4889 33.434 72.8999 34.306 73.0043 34.8526C73.2892 36.3447 73.6121 37.0907 73.3651 38.5061C73.1182 39.9216 72.2066 42.1023 72.2066 42.1023L71.3329 42.0065Z" fill="#2DC38D"/>
<path d="M72.393 42.1022C72.393 42.1022 75.4974 35.3829 75.7125 34.3862C75.9277 33.3894 76.6593 31.0923 76.7453 31.2223C76.8314 31.3523 76.9604 32.5659 76.4011 33.9527C75.8416 35.3396 73.453 42.3068 73.453 42.3068H72.393" fill="#2DC38D"/>
<path d="M70.9931 41.8015C70.9917 41.8033 70.9618 41.7826 70.906 41.7413C70.8509 41.6992 70.7673 41.6401 70.6655 41.5564C70.4589 41.3929 70.1689 41.1442 69.8311 40.8146C69.1535 40.1592 68.3101 39.1486 67.5789 37.9033C66.8461 36.6582 66.3534 35.4405 66.0415 34.5493C65.8853 34.103 65.7714 33.7378 65.6975 33.4839C65.6595 33.3574 65.6334 33.258 65.615 33.1908C65.5971 33.1236 65.5888 33.088 65.5909 33.0873C65.5932 33.0866 65.6058 33.121 65.6278 33.187C65.6513 33.2589 65.6827 33.3552 65.722 33.4762C65.8034 33.7273 65.924 34.0899 66.0854 34.5333C66.408 35.4188 66.906 36.6294 67.6357 37.8693C68.3638 39.1094 69.197 40.1193 69.8638 40.7811C70.1961 41.1137 70.4804 41.3671 70.6816 41.5364C70.7806 41.6231 70.8615 41.6853 70.9139 41.7309C70.9673 41.7754 70.9945 41.7996 70.9931 41.8015Z" fill="#263238"/>
<path d="M71.3327 38.578C71.3281 38.5783 71.3184 38.5081 71.3048 38.3809C71.29 38.2418 71.2708 38.0605 71.2477 37.8422C71.1985 37.3877 71.1218 36.7608 71.0122 36.0721C70.902 35.3834 70.7796 34.7638 70.6849 34.3165C70.639 34.102 70.6009 33.9238 70.5716 33.787C70.545 33.662 70.5323 33.5922 70.5367 33.5911C70.5412 33.5899 70.5623 33.6576 70.5967 33.7808C70.6315 33.904 70.6774 34.0834 70.7307 34.3061C70.8373 34.7514 70.9671 35.3711 71.0777 36.0615C71.1876 36.7518 71.2571 37.3813 71.2944 37.8376C71.3132 38.0659 71.3253 38.2508 71.3307 38.3788C71.3362 38.5069 71.3372 38.5777 71.3327 38.578Z" fill="#263238"/>
<path d="M72.0598 33.126C72.062 33.1251 72.0746 33.1546 72.0965 33.2114C72.1201 33.2747 72.151 33.3576 72.1895 33.461C72.2306 33.5692 72.2779 33.7028 72.3228 33.861C72.369 34.0188 72.4288 34.1966 72.4737 34.399C72.4982 34.4999 72.524 34.6053 72.5506 34.715C72.5768 34.825 72.5952 34.9413 72.619 35.0608C72.6697 35.2994 72.701 35.5581 72.7387 35.8295C72.7994 36.3742 72.8325 36.9774 72.8128 37.6102C72.7875 38.243 72.7116 38.8424 72.6123 39.3813C72.5554 39.6495 72.5057 39.9053 72.4382 40.1396C72.406 40.257 72.3793 40.3717 72.3454 40.4796C72.3109 40.5871 72.2779 40.6904 72.2462 40.7892C72.187 40.9878 72.1147 41.1609 72.0574 41.315C72.0014 41.4695 71.9448 41.5993 71.8961 41.7044C71.8502 41.8047 71.8136 41.8853 71.7856 41.9466C71.7597 42.0016 71.7451 42.0301 71.743 42.0291C71.741 42.0282 71.7515 41.9979 71.7734 41.941C71.7985 41.8785 71.8314 41.7966 71.8724 41.6942C71.9173 41.5879 71.9702 41.4571 72.0228 41.3016C72.0766 41.1468 72.1456 40.9733 72.2017 40.7746C72.2319 40.6759 72.2635 40.5725 72.2963 40.4651C72.3288 40.3573 72.354 40.2428 72.385 40.1256C72.4499 39.8918 72.4973 39.6369 72.5522 39.3699C72.6477 38.833 72.7213 38.237 72.7466 37.6077C72.7661 36.9785 72.735 36.3788 72.678 35.8365C72.6421 35.5662 72.613 35.3086 72.5649 35.0708C72.5424 34.9516 72.5253 34.8356 72.5006 34.7258C72.4754 34.6162 72.4513 34.511 72.4282 34.4102C72.3863 34.2079 72.3299 34.0299 72.2873 33.8717C72.2459 33.7129 72.2023 33.5786 72.1651 33.4693C72.1315 33.3644 72.1045 33.2802 72.084 33.216C72.066 33.1578 72.0577 33.1269 72.0598 33.126Z" fill="#263238"/>
<path d="M76.7098 31.3573C76.7108 31.3575 76.7101 31.3677 76.7073 31.3875C76.7036 31.4111 76.6991 31.4398 76.6935 31.4748C76.6799 31.5513 76.6627 31.6648 76.6323 31.8093C76.5724 32.0983 76.4725 32.5143 76.3172 33.0189C76.1627 33.5237 75.9505 34.1155 75.6991 34.7657C75.4486 35.4162 75.1575 36.1249 74.8819 36.8793C74.602 37.6325 74.3865 38.3677 74.1839 39.0348C73.9831 39.7025 73.7927 40.3016 73.6086 40.7964C73.4265 41.2918 73.251 41.6819 73.1185 41.9455C73.0549 42.0786 72.9978 42.1778 72.9609 42.2462C72.9435 42.277 72.9292 42.3022 72.9174 42.323C72.9073 42.34 72.9017 42.3485 72.9007 42.348C72.8996 42.3475 72.9034 42.3378 72.9116 42.3196C72.9217 42.298 72.9341 42.2718 72.9491 42.2398C72.9821 42.1697 73.0355 42.0687 73.0954 41.9341C73.2204 41.6678 73.3886 41.2762 73.5647 40.7801C73.7426 40.2846 73.928 39.6855 74.1254 39.017C74.3247 38.3493 74.5391 37.6116 74.8197 36.8562C75.096 36.1 75.3889 35.3919 75.6422 34.7432C75.8966 34.095 76.1126 33.5063 76.2725 33.0046C76.4332 32.5032 76.5396 32.0903 76.6071 31.8036C76.6413 31.6603 76.6625 31.5478 76.6804 31.4722C76.6885 31.4378 76.6951 31.4095 76.7006 31.3862C76.7056 31.3669 76.7086 31.3571 76.7098 31.3573Z" fill="#263238"/>
<path d="M67.137 29.8731C66.9413 29.6774 66.616 29.882 66.697 30.1476C66.7791 30.4168 66.9035 30.765 67.087 31.1579C67.5138 32.0712 68.7676 35.3488 69.3543 37.1487C69.9412 38.9487 70.7681 42.3068 70.7681 42.3068L72.0212 42.102C72.0212 42.102 70.8748 36.5845 69.7544 34.5965C68.8543 32.9993 67.9541 30.6909 67.137 29.8731Z" fill="#2DC38D"/>
<path d="M69.6973 38.2746C69.7016 38.2731 69.7244 38.3269 69.7618 38.4258C69.7989 38.5249 69.8494 38.6694 69.9063 38.8495C70.0217 39.2095 70.163 39.7124 70.3053 40.2711C70.4471 40.8301 70.5654 41.3384 70.6479 41.707C70.6854 41.8814 70.717 42.0279 70.7422 42.1444C70.7631 42.2479 70.7726 42.3057 70.7681 42.3069C70.7636 42.308 70.7457 42.2523 70.7171 42.1506C70.6866 42.0354 70.6481 41.8906 70.6023 41.7182C70.5064 41.3385 70.3805 40.8396 70.2411 40.2878C70.099 39.7298 69.9651 39.226 69.8614 38.8634C69.8119 38.6923 69.7704 38.5485 69.7374 38.4342C69.7075 38.3329 69.6929 38.2761 69.6973 38.2746Z" fill="#263238"/>
<path d="M71.3975 42.2044C71.3964 42.2045 71.394 42.1931 71.3905 42.1708C71.3868 42.1446 71.3821 42.1119 71.3763 42.0714C71.3632 41.9842 71.3514 41.8546 71.325 41.6892C71.279 41.3577 71.1969 40.8798 71.0623 40.297C70.9285 39.714 70.7334 39.0282 70.4757 38.2807C70.2186 37.5329 69.8962 36.725 69.531 35.8889C68.7937 34.2186 68.0573 32.7371 67.5733 31.6416C67.3287 31.0951 67.1393 30.649 67.0146 30.3382C66.951 30.1833 66.9055 30.0615 66.8737 29.9792C66.8595 29.9408 66.8481 29.9099 66.8389 29.8851C66.8314 29.8637 66.8281 29.8526 66.8292 29.8522C66.8303 29.8518 66.8357 29.8621 66.8452 29.8826C66.856 29.9068 66.8694 29.9368 66.8861 29.9741C66.923 30.0597 66.9738 30.1781 67.0384 30.3281C67.1703 30.6356 67.3661 31.0785 67.616 31.6221C68.1105 32.7117 68.8533 34.1893 69.5917 35.8622C69.9575 36.6996 70.279 37.51 70.5335 38.2608C70.7887 39.0114 70.9797 39.7006 71.108 40.2866C71.2372 40.8724 71.3124 41.3527 71.3506 41.6859C71.3731 41.8521 71.3808 41.9823 71.3896 42.07C71.3927 42.1108 71.3953 42.1437 71.3973 42.1702C71.3986 42.1927 71.3987 42.2043 71.3975 42.2044Z" fill="#263238"/>
<path d="M72.0212 42.1022C72.0166 42.1028 72.0018 42.0272 71.979 41.8901C71.9541 41.7419 71.9212 41.5464 71.8815 41.3099C71.7951 40.8209 71.6632 40.1474 71.4737 39.4143C71.2861 38.6805 71.0745 38.0277 70.9119 37.5589C70.832 37.333 70.766 37.1462 70.7159 37.0046C70.669 36.8739 70.645 36.8007 70.6493 36.799C70.6535 36.7973 70.6855 36.8671 70.7399 36.995C70.7939 37.1231 70.8694 37.3097 70.9559 37.5428C71.1302 38.0084 71.3495 38.6611 71.5378 39.3975C71.728 40.1329 71.8529 40.8103 71.9277 41.3021C71.9633 41.5484 71.9906 41.7479 72.0046 41.8864C72.0196 42.0248 72.0257 42.1015 72.0212 42.1022Z" fill="#263238"/>
<path d="M74.5933 41.9208H69.7018V47.923H74.5933V41.9208Z" fill="#0494FD"/>
<g opacity="0.3">
<path d="M74.5933 41.9208H69.7018V47.923H74.5933V41.9208Z" fill="#ECF7FF"/>
</g>
<path d="M73.0328 41.9208H68.6932V47.923H73.0328V41.9208Z" fill="#0494FD"/>
<path d="M9.44278 39.834C8.6096 39.2965 7.45472 39.2863 6.64384 39.8572C5.87403 40.3992 5.4831 41.3857 5.51702 42.331C5.55094 43.2764 6.00598 44.4317 6.85643 44.9282L9.35275 44.9185C10.1499 44.3281 10.6889 43.3771 10.7264 42.3813C10.7641 41.3857 10.276 40.3714 9.44278 39.834Z" fill="#2DC38D"/>
<path d="M8.21367 45.0197C8.20812 45.0197 8.20289 44.9427 8.19799 44.8034C8.19361 44.6488 8.18807 44.4508 8.18135 44.2137C8.16876 43.7159 8.14924 43.0283 8.11628 42.2694C8.083 41.5104 8.04247 40.8237 8.01164 40.3266C7.99756 40.0898 7.98593 39.8922 7.97676 39.7378C7.96951 39.5987 7.96812 39.5214 7.97356 39.521C7.979 39.5205 7.99095 39.5967 8.00769 39.7352C8.02465 39.8736 8.04535 40.0741 8.06785 40.3224C8.11308 40.8188 8.16257 41.5058 8.19596 42.266C8.22903 43.026 8.23959 43.7147 8.23777 44.2132C8.23692 44.4624 8.23383 44.6641 8.22903 44.8035C8.22433 44.9427 8.21921 45.0197 8.21367 45.0197Z" fill="#263238"/>
<path d="M5.76866 42.1171C5.76685 42.1392 5.63117 42.146 5.46573 42.1323C5.30018 42.1187 5.16749 42.0897 5.1693 42.0676C5.17111 42.0455 5.30669 42.0387 5.47223 42.0523C5.63767 42.0659 5.77047 42.095 5.76866 42.1171Z" fill="#263238"/>
<path d="M5.81505 41.2688C5.80609 41.2891 5.68908 41.2564 5.55372 41.1959C5.41836 41.1355 5.31574 41.07 5.3247 41.0497C5.33356 41.0294 5.45057 41.0621 5.58604 41.1226C5.7215 41.183 5.82401 41.2485 5.81505 41.2688Z" fill="#263238"/>
<path d="M6.24843 40.6391C6.23701 40.6576 6.10549 40.5952 5.96885 40.4809C5.83179 40.367 5.74635 40.2485 5.76224 40.2338C5.77856 40.2183 5.88704 40.3089 6.01973 40.4191C6.15189 40.5296 6.26048 40.62 6.24843 40.6391Z" fill="#263238"/>
<path d="M6.68438 40.0451C6.66422 40.054 6.60118 39.9549 6.54358 39.8236C6.48598 39.6922 6.45558 39.5786 6.47574 39.5695C6.4959 39.5606 6.55883 39.6598 6.61654 39.7912C6.67414 39.9223 6.70454 40.0361 6.68438 40.0451Z" fill="#263238"/>
<path d="M7.3681 39.6235C7.34847 39.6328 7.28063 39.5272 7.23562 39.3808C7.19018 39.2344 7.18666 39.1087 7.20799 39.1052C7.23007 39.1013 7.26794 39.2163 7.31178 39.357C7.35487 39.4977 7.38847 39.6141 7.3681 39.6235Z" fill="#263238"/>
<path d="M8.50924 39.1484C8.53004 39.1558 8.51735 39.246 8.48097 39.3499C8.4446 39.4537 8.39831 39.532 8.37751 39.5245C8.35681 39.5171 8.3694 39.427 8.40588 39.3231C8.44215 39.2192 8.48844 39.141 8.50924 39.1484Z" fill="#263238"/>
<path d="M9.35563 39.5141C9.37056 39.5304 9.31627 39.6055 9.23435 39.6818C9.15243 39.7582 9.07392 39.8069 9.05899 39.7906C9.04406 39.7743 9.09835 39.6992 9.18027 39.6229C9.26208 39.5466 9.34059 39.4978 9.35563 39.5141Z" fill="#263238"/>
<path d="M10.1007 39.9987C10.1131 40.0171 10.0468 40.084 9.95284 40.148C9.85887 40.2122 9.77257 40.2493 9.76031 40.231C9.74793 40.2126 9.81417 40.1458 9.90815 40.0815C10.0021 40.0175 10.0884 39.9803 10.1007 39.9987Z" fill="#263238"/>
<path d="M10.6298 40.7213C10.6384 40.7417 10.5341 40.8061 10.3967 40.8651C10.2593 40.9241 10.141 40.9553 10.1324 40.935C10.1237 40.9146 10.228 40.8502 10.3654 40.7913C10.5028 40.7322 10.6211 40.7009 10.6298 40.7213Z" fill="#263238"/>
<path d="M10.8381 41.5093C10.8408 41.5313 10.7346 41.5627 10.6011 41.5794C10.4674 41.596 10.3569 41.5917 10.3541 41.5697C10.3515 41.5477 10.4576 41.5164 10.5913 41.4996C10.7248 41.483 10.8353 41.4873 10.8381 41.5093Z" fill="#263238"/>
<path d="M10.9464 42.4793C10.9377 42.4996 10.8245 42.4698 10.6939 42.4125C10.5631 42.3552 10.4642 42.2924 10.4731 42.272C10.4818 42.2517 10.5949 42.2816 10.7256 42.3388C10.8564 42.3962 10.9553 42.459 10.9464 42.4793Z" fill="#263238"/>
<path d="M10.8511 43.3118C10.8442 43.332 10.7011 43.2977 10.5517 43.1989C10.4017 43.1007 10.3132 42.9825 10.3288 42.968C10.345 42.9519 10.4536 43.0391 10.5952 43.1317C10.7362 43.2252 10.8592 43.2904 10.8511 43.3118Z" fill="#263238"/>
<path d="M10.4208 44.0696C10.4077 44.0867 10.2939 44.0194 10.1846 43.9006C10.075 43.7821 10.0167 43.6628 10.0347 43.6508C10.0532 43.6381 10.138 43.7326 10.243 43.8459C10.3474 43.9598 10.4347 44.0518 10.4208 44.0696Z" fill="#263238"/>
<path d="M6.33462 44.1585C6.34475 44.1782 6.22528 44.2611 6.06763 44.3437C5.90998 44.4264 5.77398 44.4775 5.76384 44.4578C5.75371 44.4381 5.87318 44.3552 6.03083 44.2726C6.18838 44.1899 6.32438 44.1388 6.33462 44.1585Z" fill="#263238"/>
<path d="M5.96138 43.4731C5.97045 43.4933 5.87455 43.5568 5.7473 43.6149C5.61994 43.673 5.50943 43.7039 5.50026 43.6837C5.49119 43.6635 5.58698 43.6 5.71434 43.5419C5.8417 43.4836 5.95221 43.4529 5.96138 43.4731Z" fill="#263238"/>
<path d="M5.68694 42.8661C5.69003 42.888 5.57206 42.923 5.42347 42.9443C5.27478 42.9655 5.15179 42.9649 5.1488 42.943C5.14571 42.9211 5.26368 42.886 5.41227 42.8648C5.56086 42.8436 5.68384 42.8441 5.68694 42.8661Z" fill="#263238"/>
<path d="M6.58689 42.5314C6.5934 42.5521 6.4783 42.6062 6.32481 42.6234C6.17132 42.6411 6.04716 42.6143 6.04897 42.5927C6.05046 42.57 6.17057 42.5606 6.31585 42.5436C6.46124 42.5275 6.58049 42.5097 6.58689 42.5314Z" fill="#263238"/>
<path d="M7.3345 41.7823C7.341 41.803 7.24938 41.8496 7.12586 41.8616C7.00234 41.8741 6.90346 41.8463 6.9058 41.8247C6.90794 41.8022 7.00319 41.7934 7.11796 41.7817C7.23284 41.7708 7.3281 41.7607 7.3345 41.7823Z" fill="#263238"/>
<path d="M7.47733 41.1821C7.47018 41.203 7.37099 41.1875 7.25589 41.1475C7.1408 41.1074 7.05323 41.0579 7.06048 41.0369C7.06763 41.016 7.16682 41.0314 7.28192 41.0715C7.39701 41.1116 7.48458 41.1611 7.47733 41.1821Z" fill="#263238"/>
<path d="M7.75146 40.5751C7.73621 40.5905 7.66805 40.5453 7.61952 40.4602C7.57066 40.3752 7.56586 40.2932 7.58677 40.2875C7.60832 40.2813 7.64501 40.3447 7.68853 40.42C7.73141 40.4957 7.76757 40.5595 7.75146 40.5751Z" fill="#263238"/>
<path d="M7.42101 43.06C7.42624 43.0816 7.34037 43.1211 7.22922 43.1485C7.16501 43.1643 7.10645 43.1726 7.06805 43.1723L7.05237 43.1255C7.08117 43.1202 7.09973 43.1215 7.10346 43.13C7.1072 43.1386 7.09546 43.1531 7.07221 43.171L7.05653 43.1241C7.09055 43.1062 7.14624 43.0863 7.21045 43.0705C7.32149 43.0432 7.41578 43.0385 7.42101 43.06Z" fill="#263238"/>
<path d="M7.57503 44.124C7.58303 44.1446 7.47359 44.2073 7.33055 44.2639C7.1874 44.3205 7.06495 44.3497 7.05684 44.3291C7.04884 44.3085 7.15828 44.2458 7.30132 44.1892C7.44447 44.1326 7.56703 44.1035 7.57503 44.124Z" fill="#263238"/>
<path d="M6.73057 43.6513C6.73771 43.6723 6.66465 43.7163 6.56747 43.7496C6.4703 43.7829 6.38582 43.7929 6.37867 43.7719C6.37163 43.7509 6.44459 43.7069 6.54177 43.6736C6.63894 43.6404 6.72342 43.6304 6.73057 43.6513Z" fill="#263238"/>
<path d="M6.79509 41.4855C6.79008 41.5068 6.66293 41.4941 6.51605 41.4415C6.36907 41.3892 6.2624 41.3185 6.27168 41.2988C6.28117 41.2785 6.39989 41.3151 6.54261 41.3658C6.68523 41.417 6.80043 41.4637 6.79509 41.4855Z" fill="#263238"/>
<path d="M8.83882 41.2501C8.85098 41.2686 8.7793 41.3377 8.67893 41.4044C8.57845 41.4711 8.48725 41.5101 8.47519 41.4916C8.46303 41.4731 8.53461 41.4041 8.63509 41.3373C8.73546 41.2706 8.82666 41.2315 8.83882 41.2501Z" fill="#263238"/>
<path d="M8.94988 42.3185C8.95436 42.3402 8.87916 42.3742 8.78188 42.3946C8.6846 42.4149 8.60214 42.4139 8.59766 42.3922C8.59318 42.3705 8.66838 42.3364 8.76566 42.3161C8.86294 42.2957 8.9454 42.2969 8.94988 42.3185Z" fill="#263238"/>
<path d="M9.07903 43.52C9.06975 43.5401 8.96149 43.5094 8.83711 43.4515C8.71274 43.3935 8.61941 43.3302 8.62869 43.31C8.63797 43.2899 8.74624 43.3206 8.87061 43.3786C8.99498 43.4366 9.08831 43.4999 9.07903 43.52Z" fill="#263238"/>
<path d="M8.80575 44.6898C8.78868 44.7038 8.71839 44.6459 8.64863 44.5604C8.57887 44.4749 8.53609 44.3941 8.55316 44.38C8.57012 44.366 8.64052 44.4239 8.71028 44.5094C8.77993 44.5949 8.82271 44.6757 8.80575 44.6898Z" fill="#263238"/>
<path d="M8.74987 40.4633C8.76331 40.4805 8.71691 40.5393 8.63723 40.5795C8.55766 40.6199 8.48299 40.6222 8.47744 40.6011C8.47147 40.5795 8.52971 40.5444 8.6015 40.5078C8.6735 40.4715 8.73622 40.4454 8.74987 40.4633Z" fill="#263238"/>
<path d="M9.75136 41.541C9.75861 41.5614 9.66602 41.6128 9.5392 41.6303C9.41248 41.6483 9.30944 41.6243 9.31093 41.6027C9.3121 41.5801 9.41013 41.5676 9.52821 41.5508C9.6464 41.5346 9.7441 41.5196 9.75136 41.541Z" fill="#263238"/>
<path d="M9.55178 40.5736C9.56159 40.5931 9.46954 40.6591 9.33876 40.701C9.20799 40.7433 9.09503 40.7432 9.09183 40.7218C9.0882 40.6995 9.19028 40.6649 9.31455 40.6245C9.43882 40.5848 9.54186 40.5533 9.55178 40.5736Z" fill="#263238"/>
<path d="M9.96992 43.0393C9.9696 43.0609 9.81226 43.075 9.6225 43.04C9.43253 43.0056 9.29013 42.9368 9.29738 42.9165C9.30464 42.895 9.45344 42.9279 9.63669 42.961C9.81973 42.9948 9.97066 43.0167 9.96992 43.0393Z" fill="#263238"/>
<path d="M9.59776 44.4447C9.58453 44.4619 9.46869 44.3933 9.35307 44.2761C9.23712 44.1591 9.1695 44.0422 9.18667 44.0289C9.20438 44.015 9.29749 44.1064 9.4096 44.2194C9.52128 44.3328 9.61163 44.427 9.59776 44.4447Z" fill="#263238"/>
<path d="M7.96138 39.43C7.97322 39.4472 7.64362 39.5818 7.26271 39.9861C6.88202 40.3814 6.48927 41.0797 6.39252 41.9232C6.34623 42.3425 6.38591 42.7482 6.445 43.1102C6.50719 43.4726 6.58964 43.7945 6.6657 44.0628C6.74218 44.3309 6.81236 44.5458 6.85951 44.6947C6.90676 44.8435 6.93204 44.9264 6.9266 44.9284C6.9217 44.9302 6.8866 44.8511 6.83028 44.7051C6.77407 44.5591 6.69546 44.3466 6.61172 44.0791C6.52831 43.8116 6.43946 43.4889 6.37258 43.1229C6.3089 42.7572 6.2657 42.3451 6.31327 41.9139C6.41204 41.0509 6.82314 40.3397 7.22207 39.9466C7.42058 39.7469 7.60714 39.6136 7.74324 39.5365C7.80927 39.4944 7.86634 39.4719 7.90271 39.453C7.94015 39.4355 7.9602 39.4275 7.96138 39.43Z" fill="#263238"/>
<path d="M9.04811 44.9799C9.03083 44.9712 9.2272 44.6668 9.40629 44.118C9.59072 43.5761 9.74325 42.7734 9.62037 41.9016C9.56288 41.4669 9.43808 41.064 9.28107 40.7197C9.11808 40.3802 8.90795 40.102 8.7024 39.908C8.48981 39.7187 8.28107 39.6101 8.13547 39.5472C7.98805 39.4853 7.89984 39.4708 7.90101 39.464C7.90144 39.4614 7.92384 39.4627 7.96619 39.4691C8.00811 39.4768 8.06997 39.4909 8.14667 39.5181C8.29888 39.5735 8.5152 39.6757 8.73963 39.8654C8.95819 40.0619 9.17515 40.3393 9.34741 40.6878C9.51168 41.0381 9.64075 41.4476 9.69941 41.8905C9.82453 42.7785 9.65973 43.5936 9.45963 44.1367C9.41461 44.2753 9.35669 44.3941 9.31349 44.5011C9.26219 44.6047 9.21984 44.6946 9.18091 44.7658C9.09973 44.9065 9.05291 44.9826 9.04811 44.9799Z" fill="#263238"/>
<path d="M5.9614 44.79H10.3541L10.3811 45.6756H5.9614V44.79Z" fill="#0494FD"/>
<path d="M6.33463 45.2328L6.58689 47.9359H9.79831L10.0562 45.2624L6.33463 45.2328Z" fill="#0494FD"/>
<path d="M10.3811 45.6863C10.3811 45.7084 9.39189 45.7265 8.17194 45.7265C6.95157 45.7265 5.96255 45.7085 5.96255 45.6863C5.96255 45.6641 6.95157 45.6461 8.17194 45.6461C9.39189 45.6461 10.3811 45.6641 10.3811 45.6863Z" fill="#263238"/>
<path d="M9.93472 46.5096C9.93898 46.5122 9.90933 46.5744 9.84064 46.6785C9.77173 46.7821 9.66208 46.9276 9.49994 47.0837L9.47979 47.1031L9.45984 47.0821C9.24832 46.8586 8.95776 46.5847 8.59893 46.3231L8.64746 46.3209C8.5248 46.4293 8.39701 46.5423 8.26581 46.6583C8.10986 46.795 7.95872 46.9276 7.81461 47.0539L7.78965 47.0758L7.76458 47.0547C7.49109 46.8231 7.24224 46.6124 7.03114 46.4336L7.07381 46.429C6.92234 46.6152 6.79509 46.7716 6.6944 46.8954C6.60309 47.0045 6.55018 47.0633 6.54538 47.0596C6.54069 47.0559 6.58464 46.9901 6.66794 46.8746C6.76309 46.7466 6.8833 46.5846 7.02656 46.3918L7.0448 46.3672L7.06922 46.3872C7.28352 46.5621 7.536 46.7683 7.81365 46.9949L7.76373 46.9957C7.90731 46.8687 8.05781 46.7355 8.21322 46.5981C8.34485 46.4826 8.47306 46.37 8.59605 46.2621L8.61962 46.2413L8.64469 46.2599C9.00629 46.5276 9.29557 46.8107 9.50144 47.0434L9.46133 47.0418C9.7872 46.7438 9.92213 46.4999 9.93472 46.5096Z" fill="#263238"/>
<path d="M62.715 47.194H16.2167C15.3586 47.194 14.6629 46.4934 14.6629 45.6291V15.7208C14.6629 14.8565 15.3586 14.1559 16.2167 14.1559H62.715C63.5731 14.1559 64.2688 14.8565 64.2688 15.7208V45.6291C64.2688 46.4934 63.5731 47.194 62.715 47.194Z" fill="#455A64"/>
<path d="M64.8847 47.9512H14.9373C13.8888 47.9512 13.0388 47.0952 13.0388 46.0392V45.0603H66.783V46.0392C66.7831 47.0951 65.9332 47.9512 64.8847 47.9512Z" fill="#455A64"/>
<path d="M34.5757 44.7505L35.2427 45.819H44.6271L45.2463 44.7505H34.5757Z" fill="#263238"/>
<path d="M63.8426 44.7505C63.8426 44.7684 52.8324 44.7828 39.254 44.7828C25.6707 44.7828 14.6629 44.7683 14.6629 44.7505C14.6629 44.7326 25.6707 44.7181 39.254 44.7181C52.8324 44.7181 63.8426 44.7326 63.8426 44.7505Z" fill="#263238"/>
<path d="M62.3051 43.877H16.4325C16.2397 43.877 16.0834 43.7196 16.0834 43.5254V16.4073C16.0834 16.213 16.2397 16.0557 16.4325 16.0557H62.3051C62.4978 16.0557 62.6542 16.213 62.6542 16.4072V43.5255C62.6542 43.7196 62.4978 43.877 62.3051 43.877Z" fill="#EBEBEB"/>
<path d="M62.6043 43.9177H16.0336L16.0834 18.1349H62.6043V43.9177Z" fill="white"/>
<path d="M19.9029 17.13C19.9029 17.3369 19.7364 17.5046 19.531 17.5046C19.3255 17.5046 19.1591 17.3369 19.1591 17.13C19.1591 16.9231 19.3257 16.7555 19.531 16.7555C19.7363 16.7555 19.9029 16.9231 19.9029 17.13Z" fill="#263238"/>
<path d="M17.6487 17.13C17.6487 17.3369 17.4822 17.5046 17.2768 17.5046C17.0715 17.5046 16.9048 17.3369 16.9048 17.13C16.9048 16.9231 17.0715 16.7555 17.2768 16.7555C17.4822 16.7555 17.6487 16.9231 17.6487 17.13Z" fill="#263238"/>
<path d="M18.7308 17.13C18.7308 17.3369 18.5643 17.5046 18.3588 17.5046C18.1534 17.5046 17.9869 17.3369 17.9869 17.13C17.9869 16.9231 18.1534 16.7555 18.3588 16.7555C18.5643 16.7555 18.7308 16.9231 18.7308 17.13Z" fill="#263238"/>
<path d="M62.6542 41.428H16.0336V43.9177H62.6542V41.428Z" fill="#263238"/>
<path d="M17.7949 42.9611V43.0408H17.4237V42.9778L17.6238 42.7864C17.6726 42.7394 17.6813 42.7096 17.6813 42.6815C17.6813 42.6351 17.6496 42.6082 17.5877 42.6082C17.5389 42.6082 17.4978 42.6249 17.4698 42.6611L17.4043 42.6104C17.4431 42.5575 17.513 42.5262 17.5956 42.5262C17.705 42.5262 17.7755 42.582 17.7755 42.6719C17.7755 42.7211 17.7618 42.7661 17.6919 42.8321L17.5574 42.9611H17.7949Z" fill="white"/>
<path d="M17.8454 42.7097C17.8454 42.6735 17.872 42.6495 17.9044 42.6495C17.9367 42.6495 17.9634 42.6735 17.9634 42.7097C17.9634 42.7444 17.9367 42.7697 17.9044 42.7697C17.872 42.7697 17.8454 42.7444 17.8454 42.7097ZM17.8454 42.9858C17.8454 42.9495 17.872 42.9257 17.9044 42.9257C17.9367 42.9257 17.9634 42.9495 17.9634 42.9858C17.9634 43.0205 17.9367 43.0458 17.9044 43.0458C17.872 43.0459 17.8454 43.0206 17.8454 42.9858Z" fill="white"/>
<path d="M18.1978 42.5336V43.0408H18.1043V42.6126H17.9978V42.5336H18.1978Z" fill="white"/>
<path d="M18.7466 42.9257H18.6573V43.0408H18.5666V42.9257H18.2903V42.8604L18.5386 42.5336H18.6386L18.4047 42.846H18.5695V42.7437H18.6573V42.846H18.7466V42.9257Z" fill="white"/>
<path d="M57.7813 42.7228H19.5693V42.8982H57.7813V42.7228Z" fill="white"/>
<path d="M31.482 42.5338H19.5407V43.0018H31.482V42.5338Z" fill="#0494FD"/>
<path d="M31.8675 42.8106C31.8675 43.1339 31.6072 43.3961 31.2861 43.3961C30.965 43.3961 30.7046 43.1339 30.7046 42.8106C30.7046 42.4872 30.9649 42.225 31.2861 42.225C31.6072 42.2251 31.8675 42.4872 31.8675 42.8106Z" fill="#0494FD"/>
<path d="M58.7438 42.8048C58.7438 42.9057 58.6625 42.9694 58.5596 42.9694C58.4222 42.9694 58.3416 42.8804 58.3416 42.7172C58.3416 42.5432 58.4422 42.4476 58.5884 42.4476C58.6387 42.4476 58.6869 42.4585 58.7208 42.4802L58.6863 42.5512C58.659 42.533 58.6258 42.5266 58.5906 42.5266C58.4957 42.5266 58.4359 42.5861 58.4359 42.7013V42.702C58.4662 42.6665 58.5145 42.6492 58.5705 42.6492C58.6698 42.6492 58.7438 42.7099 58.7438 42.8048ZM58.6531 42.8092C58.6531 42.7564 58.6136 42.7231 58.5524 42.7231C58.492 42.7231 58.4502 42.7599 58.4502 42.81C58.4502 42.8578 58.4877 42.8954 58.5546 42.8954C58.6129 42.8954 58.6531 42.8621 58.6531 42.8092Z" fill="white"/>
<path d="M58.7893 42.631C58.7893 42.5948 58.8159 42.5708 58.8483 42.5708C58.8806 42.5708 58.9073 42.5948 58.9073 42.631C58.9073 42.6657 58.8806 42.691 58.8483 42.691C58.8158 42.691 58.7893 42.6657 58.7893 42.631ZM58.7893 42.9071C58.7893 42.8707 58.8159 42.847 58.8483 42.847C58.8806 42.847 58.9073 42.8707 58.9073 42.9071C58.9073 42.9418 58.8806 42.9672 58.8483 42.9672C58.8158 42.9671 58.7893 42.9418 58.7893 42.9071Z" fill="white"/>
<path d="M58.9675 42.7086C58.9675 42.5418 59.058 42.4476 59.1775 42.4476C59.2977 42.4476 59.3884 42.5418 59.3884 42.7086C59.3884 42.8751 59.2977 42.9695 59.1775 42.9695C59.0581 42.9694 58.9675 42.8751 58.9675 42.7086ZM59.2942 42.7086C59.2942 42.5861 59.2468 42.5296 59.1776 42.5296C59.1093 42.5296 59.0618 42.5861 59.0618 42.7086C59.0618 42.831 59.1093 42.8874 59.1776 42.8874C59.2467 42.8874 59.2942 42.831 59.2942 42.7086Z" fill="white"/>
<path d="M59.4511 42.7086C59.4511 42.5418 59.5417 42.4476 59.6611 42.4476C59.7814 42.4476 59.872 42.5418 59.872 42.7086C59.872 42.8751 59.7815 42.9695 59.6611 42.9695C59.5418 42.9694 59.4511 42.8751 59.4511 42.7086ZM59.7778 42.7086C59.7778 42.5861 59.7304 42.5296 59.6612 42.5296C59.593 42.5296 59.5454 42.5861 59.5454 42.7086C59.5454 42.831 59.5929 42.8874 59.6612 42.8874C59.7304 42.8874 59.7778 42.831 59.7778 42.7086Z" fill="white"/>
<path d="M60.6858 42.677H60.5115V42.1713H61.0128V42.3467H60.6858V42.677Z" fill="white"/>
<path d="M61.0132 43.3372H60.5109V42.8324H60.6851V43.1618H61.0132V43.3372Z" fill="white"/>
<path d="M61.8131 43.3372H61.3118V43.1617H61.6388V42.8313H61.8131V43.3372Z" fill="white"/>
<path d="M61.8135 42.6761H61.6392V42.3467H61.3112V42.1713H61.8135V42.6761Z" fill="white"/>
<path d="M22.4199 19.6678H19.675L18.3025 22.0621L19.675 24.4563H22.4199L23.7924 22.0621L22.4199 19.6678Z" fill="#EBEBEB"/>
<path d="M19.899 22.5307C19.7763 22.3939 19.6526 22.2557 19.5632 22.0948C19.4738 21.934 19.4205 21.7464 19.45 21.5646C19.4673 21.4582 19.5122 21.3569 19.5194 21.2494C19.5292 21.1014 19.4674 20.9469 19.5195 20.8082C19.6008 20.5914 19.8906 20.558 20.0662 20.4082C20.203 20.2916 20.2696 20.1022 20.4202 20.0042C20.5516 19.9184 20.7205 19.9204 20.8755 19.9424C21.0306 19.9645 21.1866 20.0038 21.3418 19.9829C21.4524 19.9679 21.5566 19.9228 21.665 19.8959C21.7733 19.8689 21.8942 19.8617 21.9907 19.9182C22.0872 19.9747 22.1414 20.1127 22.0781 20.2053C22.2579 20.1218 22.4863 20.263 22.5356 20.4561C22.5847 20.6493 22.4863 20.858 22.3339 20.9854C22.1815 21.1128 21.9844 21.1721 21.7899 21.209C21.2389 21.3135 20.6414 21.2545 20.1666 20.9543" fill="#263238"/>
<path d="M22.4439 23.1215C22.4254 22.7788 22.3302 22.0763 22.2367 21.4414C22.1361 20.7586 21.5319 20.2679 20.8481 20.314L20.7801 20.3187C20.0504 20.4111 19.7207 21.0869 19.8327 21.819L20.0469 24.4562H21.8277C21.8277 24.4562 21.7856 23.9935 21.7854 23.9889C21.7854 23.9889 22.4823 23.8311 22.4439 23.1215Z" fill="#FFBE9D"/>
<path d="M21.7859 23.9786C21.7859 23.9786 21.3433 24.045 20.8505 23.7777C20.8505 23.7777 21.1014 24.2734 21.7998 24.1622L21.7859 23.9786Z" fill="#EB996E"/>
<path d="M22.01 22.0497C22.0154 22.1031 21.975 22.1517 21.9199 22.1584C21.8647 22.1651 21.8155 22.1275 21.8101 22.0741C21.8047 22.0208 21.845 21.972 21.9001 21.9654C21.9554 21.9586 22.0047 21.9964 22.01 22.0497Z" fill="#263238"/>
<path d="M22.1083 21.7981C22.0967 21.8122 22.0168 21.7605 21.9085 21.7682C21.8004 21.7742 21.7246 21.8356 21.7121 21.8231C21.7059 21.8176 21.717 21.7929 21.7499 21.7651C21.7822 21.7376 21.8387 21.7092 21.9062 21.7049C21.9736 21.7007 22.0319 21.7219 22.0662 21.7453C22.1012 21.7687 22.1141 21.7918 22.1083 21.7981Z" fill="#263238"/>
<path d="M20.9879 22.1233C20.9934 22.1767 20.9529 22.2253 20.8978 22.232C20.8426 22.2388 20.7935 22.2011 20.788 22.1477C20.7826 22.0943 20.823 22.0457 20.8781 22.039C20.9333 22.0322 20.9825 22.07 20.9879 22.1233Z" fill="#263238"/>
<path d="M21.046 21.89C21.0344 21.9041 20.9544 21.8524 20.8463 21.8601C20.7381 21.8661 20.6624 21.9275 20.6498 21.915C20.6436 21.9095 20.6546 21.8848 20.6876 21.8571C20.72 21.8295 20.7764 21.8011 20.8438 21.7968C20.9112 21.7926 20.9696 21.8138 21.0039 21.8372C21.0389 21.8606 21.0518 21.8838 21.046 21.89Z" fill="#263238"/>
<path d="M21.4925 22.6718C21.4915 22.6657 21.5581 22.6494 21.6661 22.628C21.6935 22.6233 21.7193 22.616 21.7227 22.5966C21.7279 22.5761 21.7143 22.5469 21.6989 22.5154C21.6683 22.4498 21.6366 22.381 21.6031 22.309C21.4695 22.015 21.371 21.7724 21.3827 21.7672C21.3945 21.7619 21.5123 21.9959 21.6458 22.2899C21.6782 22.3624 21.7089 22.4316 21.7383 22.4978C21.7509 22.5287 21.7713 22.5633 21.7599 22.6061C21.7538 22.6274 21.7346 22.6438 21.7171 22.6498C21.6997 22.6565 21.6842 22.6578 21.6706 22.6596C21.5613 22.6729 21.4933 22.678 21.4925 22.6718Z" fill="#263238"/>
<path d="M21.0457 21.461C21.037 21.4913 20.9281 21.4846 20.8021 21.5086C20.6757 21.53 20.5758 21.5744 20.5572 21.5489C20.5489 21.5367 20.5649 21.5077 20.6043 21.4762C20.6435 21.4448 20.7072 21.4131 20.7828 21.3995C20.8584 21.3859 20.929 21.3935 20.9765 21.4093C21.0243 21.4249 21.0494 21.4466 21.0457 21.461Z" fill="#263238"/>
<path d="M22.0477 21.4854C22.0303 21.5114 21.954 21.4907 21.8643 21.4956C21.7745 21.4972 21.6999 21.5234 21.6807 21.4987C21.6722 21.4867 21.6825 21.4611 21.7141 21.4354C21.7453 21.4098 21.7986 21.3871 21.8603 21.3848C21.9221 21.3827 21.9769 21.4015 22.0098 21.4248C22.0431 21.448 22.0552 21.4728 22.0477 21.4854Z" fill="#263238"/>
<path d="M19.9251 22.3402C19.9127 22.3358 19.4318 22.2287 19.4794 22.7124C19.5269 23.1962 20.0475 23.0385 20.0469 23.0245C20.0464 23.0107 19.9251 22.3402 19.9251 22.3402Z" fill="#FFBE9D"/>
<path d="M19.8341 22.8658C19.8319 22.8644 19.8263 22.8725 19.8128 22.8805C19.7997 22.8882 19.7763 22.895 19.7504 22.888C19.6978 22.8742 19.647 22.7974 19.6362 22.7104C19.6306 22.6665 19.6356 22.6237 19.6477 22.5874C19.6589 22.5506 19.6791 22.5236 19.7043 22.5164C19.7292 22.5079 19.7487 22.5216 19.7559 22.5346C19.7637 22.5474 19.7616 22.5574 19.7643 22.558C19.7658 22.5591 19.7738 22.5488 19.768 22.5293C19.7651 22.5199 19.7583 22.509 19.7461 22.5008C19.7336 22.4926 19.7163 22.4894 19.6987 22.4931C19.6619 22.4993 19.6319 22.537 19.6187 22.5768C19.6034 22.617 19.5967 22.6652 19.6029 22.7145C19.6156 22.8116 19.674 22.898 19.7455 22.9112C19.7802 22.9167 19.8074 22.9037 19.8208 22.8908C19.8343 22.8776 19.8358 22.8665 19.8341 22.8658Z" fill="#EB996E"/>
<path d="M22.2012 20.779C22.1682 20.9717 21.7804 21.1481 21.4589 21.1386C21.1624 21.1299 21.016 20.9818 20.8006 20.8765C20.6643 20.8099 20.6643 20.8099 20.4794 20.8402C20.3298 20.8647 20.2522 21.0423 20.1682 21.1694C20.3282 21.5206 20.2636 21.9291 20.1957 22.3095C20.1883 22.3515 20.179 22.3969 20.1471 22.4251C20.0931 22.473 20.0055 22.4443 19.9524 22.3953C19.8674 22.3169 19.8287 22.2006 19.8008 22.0879C19.7374 21.8313 19.713 21.5626 19.7533 21.3012C19.7936 21.0399 19.9009 20.786 20.0783 20.5909C20.2998 20.3471 20.6238 20.2065 20.9515 20.1896C21.2792 20.1726 21.6083 20.2748 21.8829 20.4559C22.0101 20.54 22.1292 20.6439 22.2012 20.779Z" fill="#263238"/>
<path d="M21.5633 22.917C21.4817 22.8787 21.4001 22.8403 21.3185 22.8021C21.3044 22.7954 21.2894 22.7887 21.2739 22.7908C21.2565 22.7932 21.2426 22.8062 21.2316 22.8198C21.1748 22.8891 21.1604 22.9936 21.2045 23.0718C21.2484 23.1501 21.3519 23.1913 21.4342 23.1569C21.5209 23.1207 21.5632 23.0192 21.5699 22.9249L21.5633 22.917Z" fill="#EB996E"/>
<path d="M21.4418 23.1742C21.4457 23.179 21.3907 23.2138 21.2984 23.1872C21.2538 23.1736 21.2029 23.1392 21.1714 23.0833C21.1393 23.0289 21.1276 22.951 21.1553 22.8811C21.1685 22.8464 21.1892 22.8157 21.2145 22.7915C21.2274 22.7793 21.2404 22.7694 21.2562 22.76C21.2717 22.7485 21.305 22.7467 21.3208 22.7563C21.3768 22.7876 21.4144 22.8144 21.452 22.8387C21.5237 22.8866 21.5661 22.9196 21.5622 22.9262C21.5584 22.9329 21.5089 22.912 21.4321 22.8728C21.3874 22.8493 21.3442 22.8266 21.3014 22.8041C21.2912 22.8013 21.2923 22.8013 21.2825 22.8064C21.2729 22.8127 21.2616 22.8215 21.2523 22.8309C21.2332 22.8501 21.2173 22.8742 21.207 22.9011C21.1857 22.9551 21.1931 23.0135 21.2162 23.0585C21.2392 23.104 21.2763 23.1341 21.312 23.15C21.3856 23.1818 21.4404 23.1653 21.4418 23.1742Z" fill="#263238"/>
<path d="M21.3646 22.0621C21.3591 22.0623 21.3598 22.0171 21.3384 21.9413C21.3173 21.867 21.266 21.7588 21.1545 21.6762C21.0468 21.5933 20.8707 21.5475 20.7008 21.6118C20.5323 21.6707 20.3872 21.8513 20.3891 22.062C20.3872 22.2727 20.5324 22.4534 20.7008 22.5123C20.8707 22.5766 21.0469 22.5308 21.1545 22.4479C21.2659 22.3652 21.3172 22.257 21.3383 22.1827C21.3598 22.107 21.3591 22.0618 21.3646 22.0621C21.3665 22.0621 21.3678 22.0732 21.3685 22.0946C21.3697 22.116 21.3677 22.1479 21.3593 22.1881C21.3438 22.2672 21.2956 22.3857 21.1783 22.4795C21.0652 22.5732 20.8727 22.6293 20.6833 22.5609C20.4956 22.4986 20.3312 22.2977 20.3334 22.0621C20.3313 21.8265 20.4956 21.6257 20.6833 21.5634C20.8727 21.495 21.0652 21.5511 21.1783 21.6448C21.2956 21.7385 21.3438 21.857 21.3593 21.9362C21.3677 21.9763 21.3697 22.0083 21.3685 22.0297C21.3678 22.0509 21.3665 22.0621 21.3646 22.0621Z" fill="#263238"/>
<path d="M22.5625 22.0146C22.5572 22.0148 22.5577 21.9708 22.5367 21.8971C22.516 21.8247 22.466 21.7194 22.3575 21.6391C22.2527 21.5584 22.0812 21.5139 21.9159 21.5765C21.752 21.634 21.6109 21.8097 21.6127 22.0146C21.6108 22.2196 21.752 22.3954 21.9159 22.4528C22.0813 22.5155 22.2528 22.471 22.3576 22.3902C22.4661 22.3097 22.5161 22.2045 22.5368 22.1322C22.5577 22.0585 22.5572 22.0144 22.5625 22.0146C22.5645 22.0146 22.5659 22.0255 22.5666 22.0463C22.5678 22.0672 22.5659 22.0983 22.5577 22.1374C22.5427 22.2146 22.4958 22.3301 22.3814 22.4216C22.2711 22.5131 22.0834 22.5679 21.8985 22.5012C21.7154 22.4405 21.555 22.2444 21.5572 22.0145C21.5551 21.7846 21.7154 21.5887 21.8985 21.528C22.0834 21.4613 22.2711 21.5159 22.3814 21.6075C22.4958 21.6989 22.5427 21.8145 22.5577 21.8916C22.5659 21.9307 22.5678 21.9619 22.5666 21.9827C22.5659 22.0038 22.5645 22.0146 22.5625 22.0146Z" fill="#263238"/>
<path d="M21.5849 21.9032C21.5741 21.9135 21.5265 21.8826 21.4624 21.8846C21.3982 21.8846 21.3521 21.9174 21.3407 21.9077C21.3261 21.9 21.3708 21.8303 21.4614 21.8288C21.5519 21.8274 21.5991 21.8947 21.5849 21.9032Z" fill="#263238"/>
<path d="M20.3916 21.9903C20.4007 22.0026 20.3076 22.0883 20.1835 22.1816C20.0594 22.2749 19.9514 22.3405 19.9422 22.3281C19.933 22.3158 20.0261 22.23 20.1503 22.1368C20.2743 22.0435 20.3824 21.9779 20.3916 21.9903Z" fill="#263238"/>
<path d="M30.2919 22.0376C30.2919 22.053 29.058 22.0655 27.5361 22.0655C26.0137 22.0655 24.78 22.0529 24.78 22.0376C24.78 22.0222 26.0137 22.0096 27.5361 22.0096C29.0579 22.0096 30.2919 22.0222 30.2919 22.0376Z" fill="#263238"/>
<path d="M27.7429 22.6186C27.7429 22.6341 27.0877 22.6466 26.2796 22.6466C25.4711 22.6466 24.8161 22.634 24.8161 22.6186C24.8161 22.6033 25.4712 22.5907 26.2796 22.5907C27.0877 22.5907 27.7429 22.6032 27.7429 22.6186Z" fill="#263238"/>
<path d="M46.8048 26.3301C46.8048 26.3301 48.2698 27.049 48.7842 28.9052C49.2987 30.7615 50.8744 35.5957 50.8744 35.5957C50.8744 35.5957 51.7747 36.6625 51.8712 37.4525C51.9676 38.2425 51.7747 40.1532 51.4853 40.5095C51.196 40.8657 50.7833 40.8067 50.7833 40.8067L46.9936 40.4447L45.5013 30.3812L46.8048 26.3301Z" fill="#0494FD"/>
<path d="M34.2727 26.1542C34.2727 26.1542 31.5631 27.0102 30.8878 27.755L33.1066 38.1506L33.0711 41.4306H45.9179C45.9179 41.2687 46.0331 30.5402 46.0331 30.5402L46.8048 26.3302L42.2387 25.5206L41.3383 24.8081L36.2578 25.0672L35.4861 25.8445L34.2727 26.1542Z" fill="#0494FD"/>
<g opacity="0.3">
<path d="M35.302 35.1729C35.2624 35.0847 35.2058 34.9894 35.1117 34.9699C34.9569 34.9378 34.8535 35.1219 34.8009 35.2721C34.3835 36.4621 33.8315 37.5565 33.1132 38.5908L33.0802 40.1868C33.8291 39.5521 34.5676 38.8722 35.045 38.0116C35.5225 37.151 35.7051 36.0712 35.302 35.1729Z" fill="black"/>
</g>
<path d="M30.8878 27.7549C30.8878 27.7549 29.995 28.9808 29.6242 29.7809C29.2534 30.581 26.1814 37.3024 25.996 37.9959C25.8107 38.6894 25.334 40.8765 26.7376 41.3833H29.6242L32.5216 35.4826L32.6698 28.634L30.8878 27.7549Z" fill="#0494FD"/>
<path d="M29.8091 37.1209C29.8052 37.1253 29.7447 37.0637 29.6118 36.9875C29.4791 36.912 29.2731 36.8252 29.006 36.7666C28.8726 36.7371 28.7244 36.7141 28.5644 36.704C28.4043 36.6939 28.2324 36.6968 28.058 36.7372C27.7078 36.8159 27.3599 37.0386 27.0862 37.3516C26.8083 37.6642 26.6368 38.0336 26.536 38.382C26.4337 38.7311 26.39 39.0585 26.3623 39.333C26.3354 39.608 26.3252 39.8319 26.3158 39.9865C26.3114 40.0588 26.3076 40.1177 26.3047 40.1645C26.3017 40.2052 26.2991 40.2266 26.2972 40.2265C26.2953 40.2264 26.2941 40.205 26.2935 40.1642C26.2938 40.1173 26.294 40.0582 26.2943 39.9858C26.2972 39.8308 26.3012 39.6063 26.3233 39.3295C26.346 39.0532 26.3859 38.7225 26.4869 38.3675C26.5862 38.0138 26.7603 37.6343 27.0447 37.3145C27.3247 36.9942 27.6839 36.7655 28.0469 36.687C28.2279 36.6466 28.4057 36.6455 28.5675 36.6577C28.7301 36.67 28.8801 36.6955 29.0148 36.728C29.2845 36.7924 29.4915 36.8862 29.6229 36.9688C29.6885 37.0106 29.736 37.0481 29.7661 37.0757C29.7956 37.1041 29.8103 37.1195 29.8091 37.1209Z" fill="#263238"/>
<path d="M28.4402 35.946C28.4399 35.9422 28.4743 35.9368 28.5373 35.9304C28.6001 35.9226 28.6919 35.9208 28.805 35.9267C28.9183 35.9317 29.0525 35.9512 29.1987 35.9853C29.3442 36.0221 29.5014 36.0752 29.6585 36.1495C29.8147 36.2257 29.9546 36.3153 30.0746 36.4061C30.193 36.4991 30.2925 36.5918 30.3676 36.6774C30.4433 36.7622 30.4996 36.8353 30.5332 36.8893C30.5678 36.9427 30.5853 36.973 30.5822 36.9751C30.5737 36.9811 30.4954 36.8647 30.3391 36.7046C30.2617 36.624 30.1614 36.5362 30.0438 36.4473C29.9247 36.3607 29.7872 36.2745 29.6345 36.2C29.481 36.1274 29.3279 36.0741 29.1861 36.0353C29.0436 35.9992 28.9127 35.976 28.8018 35.9661C28.5801 35.9445 28.4409 35.9566 28.4402 35.946Z" fill="#263238"/>
<path d="M31.05 35.6227C31.0494 35.6265 31.0017 35.6227 30.9165 35.6125C30.8314 35.6014 30.7077 35.589 30.5549 35.5776C30.2495 35.5543 29.8248 35.5487 29.3607 35.604C28.8966 35.6605 28.4852 35.7669 28.1938 35.8621C28.048 35.9094 27.9308 35.951 27.8507 35.982C27.7702 36.0121 27.7248 36.0272 27.7233 36.0236C27.7218 36.0201 27.7642 35.9983 27.8425 35.9618C27.9203 35.9245 28.0361 35.8771 28.1812 35.8246C28.4713 35.7191 28.8854 35.6055 29.3541 35.5485C29.8227 35.4926 30.2518 35.5045 30.5584 35.5382C30.7118 35.5547 30.8353 35.5733 30.9198 35.591C31.0044 35.6078 31.0508 35.619 31.05 35.6227Z" fill="#263238"/>
<path d="M39.2721 29.8801C39.2709 29.881 39.2609 29.869 39.2427 29.8451C39.2221 29.8173 39.1961 29.7823 39.1639 29.7389C39.0932 29.6403 38.9956 29.5039 38.8737 29.334C38.6245 28.9799 38.277 28.486 37.8683 27.9052L37.9131 27.8988C37.7575 28.359 37.5858 28.8664 37.4052 29.4006L37.3938 29.4344L37.3647 29.4155C37.3458 29.4033 37.3253 29.3901 37.3049 29.3767C37.0659 29.2242 36.8553 29.0408 36.6763 28.8422C36.4981 28.6426 36.3503 28.4296 36.2275 28.2171C35.9821 27.7911 35.8341 27.3707 35.7337 27.0147C35.6338 26.6576 35.5817 26.362 35.5467 26.1583C35.5298 26.0607 35.5164 25.9827 35.5062 25.924C35.5013 25.8972 35.496 25.8776 35.4927 25.864C35.4877 25.8517 35.4852 25.8448 35.486 25.8442C35.4978 25.8391 35.5291 25.9517 35.5679 26.1542C35.6093 26.3565 35.6672 26.6501 35.7713 27.0036C35.8759 27.3562 36.0268 27.7716 36.2716 28.191C36.394 28.4002 36.5407 28.6094 36.7165 28.8052C36.893 29 37.1001 29.1796 37.3344 29.3294C37.3546 29.3424 37.3746 29.3555 37.3932 29.3674L37.3526 29.3823C37.5348 28.8487 37.7081 28.3417 37.865 27.8821L37.8813 27.8342L37.9098 27.8756C38.3118 28.4611 38.6535 28.959 38.8987 29.316C39.0156 29.4895 39.1092 29.6285 39.1771 29.7292C39.2065 29.7744 39.2304 29.8111 39.2493 29.8401C39.2655 29.8657 39.2733 29.8794 39.2721 29.8801Z" fill="#263238"/>
<g opacity="0.3">
<path d="M42.6167 34.8428C42.4976 36.0447 42.7611 37.2819 43.3589 38.329C43.9568 39.3762 44.8327 40.3093 45.9239 40.8102C45.9592 39.7433 45.9083 38.4866 45.9435 37.4197L42.6167 34.8428Z" fill="black"/>
</g>
<path d="M42.4958 33.4382C42.4958 33.4382 42.0291 33.5686 42.3791 34.5315C42.7291 35.4942 42.8457 35.4361 43.079 36.3368C43.3123 37.2376 43.5845 38.0595 43.9928 38.5686C44.4012 39.0777 45.9177 40.1156 45.9177 40.1156L47.2788 38.8232C47.2788 38.8232 47.0545 37.86 47.1084 37.2059C47.1622 36.5518 47.2983 34.946 47.2788 34.6719C47.2594 34.3977 46.9677 33.732 46.9677 33.732V33.2765L46.2677 31.1079C46.2677 31.1079 45.8788 30.9316 45.7428 31.5583L45.5095 30.8932C45.5095 30.8932 45.1401 30.8338 45.0429 31.5974C44.9457 32.3611 45.1206 33.4185 45.1206 33.4185L44.9262 34.7501L44.6345 35.6509L44.3817 35.6901C44.3817 35.6901 44.0013 35.5854 43.7929 34.8643C43.5846 34.1431 43.0208 33.2815 42.4958 33.4382Z" fill="#FFBE9D"/>
<path d="M46.8231 36.8442C46.8216 36.8444 46.8195 36.8274 46.8168 36.7948C46.8143 36.7574 46.8111 36.7101 46.807 36.6513C46.8 36.5199 46.7904 36.3383 46.7782 36.112C46.7573 35.6444 46.7281 34.9938 46.6941 34.2342L46.7001 34.25C46.6377 34.1745 46.5261 34.1522 46.4247 34.1777C46.3218 34.2027 46.2295 34.2674 46.1725 34.3638C46.0535 34.5564 46.0471 34.8075 46.0099 35.0499C45.9361 35.5987 45.8658 36.1214 45.8018 36.5976C45.7695 36.8354 45.7352 37.0619 45.6892 37.2714C45.6445 37.4812 45.5815 37.6721 45.5204 37.8426C45.4602 38.0136 45.407 38.1683 45.374 38.3076C45.3407 38.4468 45.3274 38.5699 45.33 38.6702C45.3342 38.8726 45.3925 38.9752 45.3839 38.9774C45.3822 38.9781 45.371 38.9524 45.3512 38.9023C45.3352 38.8512 45.3126 38.7739 45.3085 38.6711C45.3025 38.5687 45.3129 38.4425 45.3438 38.3005C45.3744 38.1585 45.4255 38.0015 45.4833 37.8296C45.5421 37.6579 45.6017 37.4698 45.6441 37.2615C45.6879 37.0536 45.7201 36.8285 45.751 36.5906C45.8137 36.1142 45.8825 35.5913 45.9549 35.0423C45.972 34.92 45.9852 34.7991 46.0063 34.6785C46.0278 34.5587 46.0609 34.4383 46.1263 34.3343C46.1885 34.2287 46.2973 34.1511 46.4125 34.125C46.5262 34.0962 46.6622 34.1214 46.7399 34.216L46.7457 34.2231L46.746 34.2319C46.7719 34.9919 46.7941 35.6428 46.8101 36.1106C46.8159 36.3371 46.8206 36.519 46.824 36.6506C46.8246 36.7094 46.825 36.7569 46.8255 36.7944C46.8254 36.8272 46.8246 36.8441 46.8231 36.8442Z" fill="#EB996E"/>
<path d="M46.079 34.3766C46.0757 34.3779 46.0541 34.3349 46.0217 34.254C45.9898 34.173 45.9473 34.054 45.9077 33.9031C45.8679 33.7522 45.8311 33.5693 45.81 33.3635C45.7996 33.2608 45.7922 33.1509 45.8042 33.0365C45.8158 32.9231 45.8493 32.8026 45.9215 32.7008C45.9829 32.6125 46.0706 32.542 46.1703 32.5127L46.1913 32.5066L46.2019 32.5255C46.399 32.8757 46.5702 33.1849 46.6907 33.4073C46.7459 33.5114 46.7924 33.599 46.8301 33.6701C46.8618 33.7322 46.8778 33.7671 46.8748 33.7688C46.8718 33.7705 46.8502 33.739 46.8132 33.6798C46.7716 33.611 46.7204 33.5261 46.6595 33.4252C46.5307 33.2077 46.3536 32.9019 46.1545 32.5528L46.1859 32.5656C46.1002 32.5914 46.0226 32.653 45.9668 32.7332C45.9014 32.8253 45.8701 32.9349 45.8581 33.0427C45.8461 33.1507 45.8518 33.2573 45.8608 33.3587C45.8788 33.5619 45.9113 33.7432 45.9457 33.8937C45.9799 34.0443 46.0164 34.1642 46.0419 34.2469C46.0679 34.3293 46.0829 34.375 46.079 34.3766Z" fill="#EB996E"/>
<path d="M45.7537 34.5528C45.7499 34.5529 45.7456 34.5084 45.7411 34.428C45.7374 34.3356 45.7328 34.2217 45.7274 34.0871C45.7182 33.7993 45.7093 33.4016 45.703 32.9623C45.6997 32.5235 45.6828 32.1244 45.7203 31.8352C45.7384 31.6911 45.767 31.5765 45.7933 31.4998C45.8192 31.4229 45.8404 31.3832 45.8432 31.3843C45.8528 31.3874 45.7838 31.5538 45.7595 31.8394C45.7324 32.1238 45.7553 32.5219 45.7586 32.9615C45.7649 33.4007 45.7676 33.7985 45.7667 34.0866C45.7652 34.2213 45.7638 34.3353 45.7628 34.4276C45.7605 34.5082 45.7575 34.5528 45.7537 34.5528Z" fill="#EB996E"/>
<path d="M44.6029 38.1637C44.595 38.1572 44.6802 38.0562 44.7855 37.8731C44.8388 37.782 44.893 37.6685 44.9439 37.5388C44.9923 37.4082 45.0359 37.261 45.0652 37.1029C45.0927 36.9443 45.1029 36.791 45.1029 36.6516C45.1002 36.5122 45.0889 36.3866 45.0706 36.2825C45.0355 36.074 44.9907 35.9494 45.0004 35.946C45.004 35.9447 45.0176 35.9748 45.0391 36.0308C45.0617 36.0865 45.0864 36.1702 45.1091 36.2752C45.1328 36.3803 45.1485 36.5081 45.154 36.6506C45.1569 36.7931 45.1479 36.9504 45.1198 37.1127C45.0898 37.2747 45.0435 37.4253 44.9913 37.5577C44.9367 37.6893 44.8776 37.8035 44.819 37.8935C44.7612 37.984 44.709 38.0537 44.6686 38.0979C44.629 38.1428 44.6057 38.1662 44.6029 38.1637Z" fill="#EB996E"/>
<path d="M46.992 37.49L48.1731 37.9028C48.1731 37.9028 49.3008 37.3154 50.0785 37.9028C50.8562 38.4903 51.5317 40.0385 51.3178 40.6651C51.3178 40.6651 50.7811 41.3326 50.3728 41.4305C49.9645 41.5283 48.3772 41.1412 47.7168 41.0011C47.0546 40.8607 45.9176 40.1155 45.9176 40.1155L46.992 37.49Z" fill="#FFBE9D"/>
<path d="M47.1372 39.2425C47.1333 39.2425 47.129 39.205 47.1246 39.1372C47.1199 39.0566 47.1142 38.961 47.1077 38.8498C47.0952 38.6071 47.0789 38.2715 47.074 37.9001C47.0685 37.5288 47.0789 37.1918 47.1012 36.949C47.1117 36.8276 47.1249 36.7296 47.1369 36.6625C47.1491 36.5953 47.1576 36.5586 47.1615 36.5592C47.1701 36.5606 47.1518 36.7096 47.1405 36.9518C47.1283 37.1939 47.124 37.529 47.1296 37.8995C47.1363 38.2626 47.1423 38.5909 47.147 38.8486C47.1484 38.9702 47.148 39.0687 47.1461 39.1369C47.144 39.2049 47.141 39.2425 47.1372 39.2425Z" fill="#EB996E"/>
<path d="M51.0318 37.8562C51.0229 37.8645 50.902 37.6953 50.639 37.4995C50.3803 37.3042 49.9598 37.096 49.4621 37.0679C48.964 37.0407 48.5234 37.2012 48.2449 37.3667C47.9621 37.5321 47.8236 37.6869 47.8156 37.6777C47.8133 37.6755 47.8461 37.6358 47.913 37.5715C47.9796 37.5071 48.0838 37.421 48.2247 37.3327C48.5028 37.1556 48.9531 36.9841 49.4651 37.012C49.9768 37.0409 50.4056 37.2612 50.6627 37.468C50.7932 37.5713 50.8874 37.6683 50.9467 37.7399C51.0061 37.8112 51.0343 37.8543 51.0318 37.8562Z" fill="#263238"/>
<path d="M50.8801 36.8644C50.8725 36.876 50.7148 36.7155 50.3887 36.5915C50.0677 36.4649 49.5699 36.4064 49.059 36.5514C48.8039 36.623 48.5708 36.7257 48.3713 36.8396C48.172 36.9545 48.0055 37.0801 47.8732 37.194C47.7406 37.3079 47.6392 37.4073 47.5697 37.4765C47.5003 37.5458 47.4615 37.5842 47.4586 37.5814C47.4559 37.579 47.4892 37.5357 47.554 37.4615C47.619 37.3874 47.7167 37.2831 47.8474 37.1641C47.9777 37.0452 48.1443 36.9144 48.3457 36.7949C48.5475 36.6764 48.784 36.5706 49.044 36.4974C49.5676 36.3489 50.0786 36.4156 50.403 36.5547C50.5668 36.6225 50.6888 36.7003 50.7665 36.7614C50.8065 36.7904 50.8334 36.8184 50.853 36.8353C50.872 36.853 50.8813 36.863 50.8801 36.8644Z" fill="#263238"/>
<path d="M50.8898 36.0047C50.8868 36.0158 50.6803 35.9522 50.3374 35.9054C50.1662 35.8809 49.9603 35.8672 49.7319 35.8668C49.5036 35.8702 49.2528 35.8891 48.9928 35.9338C48.7333 35.9812 48.4911 36.0496 48.2753 36.125C48.0608 36.2039 47.872 36.2876 47.7192 36.3695C47.4127 36.5314 47.2402 36.6622 47.2337 36.6527C47.2315 36.6496 47.2736 36.616 47.352 36.5575C47.3908 36.5278 47.4393 36.4928 47.4987 36.4565C47.5575 36.4198 47.6229 36.3748 47.7007 36.3346C47.8524 36.2474 48.0417 36.159 48.2578 36.0765C48.4752 35.9975 48.7203 35.9266 48.9831 35.8787C49.2464 35.8335 49.5007 35.8158 49.7318 35.8153C49.963 35.8185 50.1708 35.8366 50.3429 35.8663C50.4296 35.8774 50.5063 35.8972 50.5742 35.9115C50.6422 35.9251 50.6996 35.9413 50.7462 35.9559C50.8399 35.9839 50.8909 36.0011 50.8898 36.0047Z" fill="#263238"/>
<path d="M41.8407 25.485C41.8407 25.485 41.8956 25.5879 41.9225 25.8013C41.9516 26.0133 41.9475 26.3307 41.8778 26.7241C41.8427 26.9207 41.7953 27.1367 41.7251 27.3672C41.6517 27.5981 41.5407 27.8341 41.4149 28.0817C41.1605 28.5758 40.8404 29.1146 40.4696 29.6891L40.4263 29.7562L40.4262 29.6759C40.4257 29.2962 40.4251 28.8978 40.4244 28.4839L40.4659 28.5038C40.1484 28.762 39.8141 29.0338 39.4698 29.3136L39.4784 29.3008C39.2476 30.0377 39.0956 30.8581 39.0353 31.7124C38.9378 33.0198 39.0164 34.2703 39.0776 35.4047C39.1301 36.5408 39.1645 37.5637 39.1997 38.4227C39.2335 39.2817 39.2643 39.9767 39.29 40.4567C39.304 40.6945 39.3149 40.8801 39.3224 41.0092C39.3265 41.0703 39.3296 41.118 39.3319 41.1528C39.3338 41.1852 39.3333 41.2019 39.3333 41.2019C39.3333 41.2019 39.33 41.1856 39.3263 41.1533C39.3227 41.1186 39.3176 41.071 39.3114 41.0101C39.2995 40.8841 39.2843 40.6979 39.2685 40.4581C39.2362 39.9783 39.1994 39.2834 39.1604 38.4245C39.1222 37.5649 39.0769 36.5425 39.0266 35.4074C38.9626 34.2738 38.8821 33.0207 38.9799 31.7082C39.0404 30.8505 39.1938 30.0255 39.4273 29.2843L39.4298 29.2766L39.436 29.2714C39.781 28.9922 40.1158 28.7212 40.4339 28.4637L40.4755 28.43L40.4754 28.4837C40.4748 28.8976 40.4741 29.2961 40.4736 29.6758L40.4302 29.6626C41.163 28.518 41.7589 27.5235 41.8507 26.7189C41.924 26.3284 41.9324 26.0136 41.9082 25.8029C41.8979 25.697 41.8773 25.6181 41.8643 25.5648C41.8477 25.5127 41.8407 25.485 41.8407 25.485Z" fill="#263238"/>
<path d="M39.9276 39.3427L39.8895 39.3414C39.7351 39.3458 39.5977 39.488 39.5972 39.6434C39.5968 39.7989 39.7334 39.9418 39.8877 39.9472C40.042 39.9526 40.1882 39.8196 40.1984 39.6645C40.2086 39.5092 40.0813 39.3579 39.9276 39.3427Z" fill="white"/>
<path d="M39.9276 35.2022L39.8895 35.2009C39.7351 35.2054 39.5977 35.3475 39.5972 35.5029C39.5968 35.6584 39.7334 35.8013 39.8877 35.8067C40.042 35.8121 40.1882 35.6791 40.1984 35.524C40.2086 35.3688 40.0813 35.2175 39.9276 35.2022Z" fill="white"/>
<path d="M39.8877 31.498C40.042 31.5034 40.1882 31.3704 40.1984 31.2152C40.2086 31.0601 40.0813 30.9088 39.9276 30.8935L39.8895 30.8922C39.7351 30.8967 39.5977 31.0387 39.5972 31.1942C39.5967 31.3496 39.7334 31.4926 39.8877 31.498Z" fill="white"/>
<path d="M35.2826 20.6334C34.9086 20.2165 34.5313 19.7949 34.2587 19.3046C33.9861 18.8143 33.8235 18.2421 33.9137 17.6876C33.9665 17.3634 34.1032 17.0545 34.125 16.7267C34.155 16.2755 33.9666 15.8041 34.1254 15.3812C34.3736 14.7203 35.2571 14.6182 35.7926 14.1616C36.2097 13.806 36.4129 13.2287 36.8717 12.9297C37.2725 12.6684 37.7875 12.6741 38.2602 12.7415C38.7329 12.8088 39.2085 12.9289 39.6817 12.8649C40.019 12.8193 40.3366 12.6819 40.6671 12.5995C40.9974 12.5171 41.3661 12.4954 41.6604 12.6676C41.9547 12.8398 42.1198 13.2605 41.9268 13.5429C42.4752 13.2883 43.1716 13.7187 43.3217 14.3077C43.4718 14.8967 43.1713 15.533 42.7068 15.9215C42.2422 16.3098 41.6413 16.4906 41.048 16.6032C39.3682 16.9221 37.546 16.7422 36.0984 15.8266" fill="#263238"/>
<path d="M41.1879 26.3212C41.1058 25.6809 41.0387 25.1465 41.0346 25.0801C41.0346 25.0801 43.1596 24.5992 43.0425 22.4352C42.9858 21.3894 42.6952 19.245 42.4099 17.3081C42.1036 15.2279 40.2601 13.7347 38.1767 13.8751L37.9695 13.8891C35.7445 14.171 34.7393 16.2315 35.0807 18.4637L36.2812 25.9484C36.2812 25.9484 36.7935 27.604 37.8892 27.8907L39.2721 29.8802L39.5007 29.0237L40.5315 28.1199C40.5315 28.1199 40.768 27.8622 41.0397 27.358C41.2617 26.946 41.2149 26.5222 41.1879 26.3212Z" fill="#FFBE9D"/>
<path d="M41.0362 25.0487C41.0362 25.0487 39.6867 25.2513 38.184 24.4362C38.184 24.4362 38.9489 25.9477 41.0783 25.6086L41.0362 25.0487Z" fill="#EB996E"/>
<path d="M41.7195 19.1675C41.7361 19.3301 41.6129 19.4784 41.4446 19.4989C41.2765 19.5193 41.1266 19.4044 41.1101 19.2417C41.0936 19.079 41.2167 18.9306 41.3847 18.9101C41.553 18.8896 41.703 19.0048 41.7195 19.1675Z" fill="#263238"/>
<path d="M42.0192 18.4003C41.9839 18.4431 41.7402 18.2856 41.4101 18.3088C41.0803 18.3271 40.8496 18.5143 40.8111 18.4761C40.7923 18.4592 40.8261 18.3839 40.9264 18.2996C41.0251 18.2157 41.1971 18.1288 41.4027 18.1159C41.6082 18.1032 41.7861 18.1676 41.8907 18.239C41.9976 18.3105 42.0367 18.381 42.0192 18.4003Z" fill="#263238"/>
<path d="M38.6028 19.3919C38.6193 19.5545 38.4962 19.7028 38.3279 19.7233C38.1599 19.7438 38.0099 19.6288 37.9934 19.4662C37.9769 19.3036 38.1 19.1551 38.2681 19.1346C38.4363 19.1141 38.5863 19.2292 38.6028 19.3919Z" fill="#263238"/>
<path d="M38.7803 18.6807C38.7449 18.7236 38.5008 18.5661 38.1712 18.5892C37.8414 18.6076 37.6106 18.7947 37.5722 18.7564C37.5534 18.7396 37.5869 18.6644 37.6877 18.5799C37.7864 18.4959 37.9583 18.4091 38.1639 18.3961C38.3694 18.3835 38.5473 18.448 38.652 18.5192C38.7583 18.591 38.7978 18.6615 38.7803 18.6807Z" fill="#263238"/>
<path d="M40.1413 21.0643C40.1386 21.0455 40.3412 20.996 40.6707 20.9309C40.7545 20.9165 40.8331 20.8942 40.8434 20.8354C40.8592 20.7727 40.8179 20.6837 40.7705 20.5876C40.6777 20.3877 40.5805 20.178 40.4784 19.9583C40.0714 19.0617 39.7707 18.3223 39.8066 18.3061C39.8427 18.2899 40.2018 19.0034 40.6089 19.9001C40.7072 20.1213 40.8012 20.3322 40.8907 20.534C40.9289 20.6283 40.9911 20.7339 40.9565 20.864C40.938 20.9289 40.8793 20.9792 40.8263 20.9975C40.7733 21.0177 40.726 21.0218 40.6845 21.0271C40.3513 21.0676 40.1439 21.0831 40.1413 21.0643Z" fill="#263238"/>
<path d="M38.779 17.3728C38.7524 17.4653 38.4202 17.4447 38.0363 17.5179C37.6508 17.5832 37.3463 17.7183 37.2895 17.6408C37.264 17.6035 37.3128 17.5149 37.4332 17.4189C37.5524 17.3231 37.7466 17.2267 37.9772 17.185C38.2078 17.1438 38.4231 17.1666 38.5679 17.2148C38.7139 17.2628 38.7902 17.329 38.779 17.3728Z" fill="#263238"/>
<path d="M41.834 17.4467C41.781 17.5261 41.5485 17.4631 41.275 17.4778C41.001 17.4828 40.7737 17.5625 40.7151 17.4871C40.6893 17.4504 40.7206 17.3723 40.817 17.2941C40.9118 17.2162 41.0747 17.1468 41.263 17.1398C41.4511 17.1331 41.6184 17.1906 41.7186 17.2615C41.8203 17.3326 41.8572 17.4082 41.834 17.4467Z" fill="#263238"/>
<path d="M35.3624 20.0529C35.3247 20.0394 33.858 19.7129 34.0031 21.188C34.1482 22.6631 35.7355 22.1823 35.7338 22.1397C35.7322 22.0971 35.3624 20.0529 35.3624 20.0529Z" fill="#FFBE9D"/>
<path d="M35.0847 21.6553C35.0778 21.6512 35.0609 21.6758 35.0197 21.7001C34.9796 21.7236 34.9086 21.7443 34.8295 21.7231C34.6691 21.6813 34.5145 21.4469 34.4812 21.1818C34.4642 21.0479 34.4797 20.9173 34.5165 20.8067C34.5506 20.6944 34.6125 20.6121 34.6891 20.5904C34.7648 20.5646 34.8245 20.6061 34.8465 20.6458C34.8702 20.6851 34.8638 20.7154 34.8718 20.7173C34.8763 20.7206 34.9008 20.6894 34.883 20.6297C34.874 20.601 34.8535 20.5679 34.8163 20.543C34.7784 20.5176 34.7252 20.5082 34.6715 20.5195C34.5594 20.5386 34.468 20.6534 34.4274 20.7747C34.3808 20.8972 34.3603 21.0444 34.3794 21.1947C34.418 21.491 34.5965 21.754 34.8143 21.7945C34.92 21.8113 35.0029 21.7716 35.0439 21.7322C35.0856 21.6912 35.09 21.6575 35.0847 21.6553Z" fill="#EB996E"/>
<path d="M42.3021 15.2926C42.2015 15.8798 41.019 16.4178 40.0386 16.389C39.1348 16.3625 38.6883 15.9109 38.0316 15.5899C37.6159 15.3867 37.6159 15.3867 37.0519 15.479C36.5959 15.5537 36.3591 16.0956 36.1031 16.4829C36.5908 17.5539 36.3937 18.7992 36.1869 19.9589C36.1641 20.087 36.1357 20.2254 36.0387 20.3115C35.874 20.4577 35.6072 20.3701 35.4451 20.2208C35.1859 19.9818 35.0679 19.6273 34.983 19.2838C34.7894 18.5013 34.715 17.6819 34.8379 16.885C34.9608 16.0882 35.2881 15.3141 35.8287 14.7193C36.5043 13.9759 37.4919 13.5473 38.4912 13.4956C39.4905 13.4439 40.4941 13.7553 41.3312 14.3076C41.7196 14.5638 42.0827 14.8806 42.3021 15.2926Z" fill="#263238"/>
<path d="M40.3571 21.8116C40.1083 21.6947 39.8594 21.5778 39.6106 21.4609C39.5677 21.4407 39.5217 21.4201 39.4748 21.4265C39.4219 21.4335 39.3795 21.4734 39.3456 21.5149C39.1725 21.7261 39.1287 22.0449 39.2628 22.2832C39.3969 22.5215 39.7121 22.6474 39.9634 22.5426C40.228 22.4323 40.3566 22.1228 40.3773 21.8351L40.3571 21.8116Z" fill="#EB996E"/>
<path d="M39.9868 22.5956C39.9889 22.6021 39.9522 22.6238 39.8775 22.6395C39.8035 22.6538 39.6889 22.6593 39.5564 22.6156C39.4252 22.5732 39.2771 22.4704 39.1856 22.3054C39.0925 22.1445 39.0589 21.9173 39.1401 21.7124C39.179 21.6105 39.2396 21.5205 39.3134 21.4494C39.3508 21.4135 39.3896 21.384 39.4344 21.3572C39.4578 21.3441 39.487 21.3313 39.5205 21.3296C39.5535 21.3278 39.583 21.3363 39.6071 21.3465C39.6559 21.3684 39.6876 21.392 39.7235 21.413C39.7583 21.4344 39.7923 21.4555 39.8253 21.4759C39.8896 21.5164 39.9503 21.5547 40.007 21.5904C40.2285 21.732 40.3615 21.8262 40.3538 21.8396C40.3461 21.8529 40.199 21.7828 39.9676 21.6589C39.9087 21.6268 39.8457 21.5925 39.779 21.5562C39.745 21.5373 39.7102 21.5179 39.6744 21.498C39.6387 21.4788 39.6 21.4543 39.5689 21.4421C39.5349 21.4301 39.5201 21.431 39.4872 21.4499C39.4547 21.4706 39.4193 21.4979 39.3891 21.5282C39.3277 21.5894 39.2768 21.6662 39.2439 21.7524C39.1756 21.9255 39.2002 22.1136 39.2755 22.256C39.35 22.4003 39.4703 22.4943 39.584 22.5416C39.6985 22.5895 39.8024 22.5967 39.873 22.5962C39.9441 22.5945 39.9844 22.5875 39.9868 22.5956Z" fill="#263238"/>
<path d="M39.7513 19.2045C39.7426 19.2053 39.7524 19.0671 39.6929 18.831C39.6341 18.5995 39.4809 18.259 39.1353 17.9957C38.9641 17.8671 38.7484 17.7579 38.4997 17.7142C38.2528 17.6719 37.9743 17.6801 37.7093 17.7819C37.576 17.8288 37.4474 17.8994 37.3292 17.9885C37.2096 18.076 37.1011 18.1845 37.0117 18.3102C36.8269 18.5579 36.7228 18.8762 36.7198 19.2043C36.7227 19.5325 36.8268 19.8509 37.0116 20.0987C37.101 20.2245 37.2096 20.333 37.3291 20.4205C37.4473 20.5097 37.5759 20.5803 37.7092 20.6272C37.9742 20.729 38.2528 20.7372 38.4996 20.695C38.7483 20.6511 38.9638 20.542 39.1351 20.4133C39.4807 20.15 39.634 19.8094 39.6928 19.578C39.7524 19.3419 39.7426 19.2038 39.7513 19.2045C39.7522 19.2045 39.7528 19.213 39.7529 19.2295C39.7526 19.2495 39.7523 19.2736 39.7519 19.303C39.752 19.3355 39.7503 19.3754 39.7425 19.4223C39.7363 19.4692 39.7305 19.5238 39.7138 19.5832C39.6889 19.7038 39.635 19.8469 39.5484 19.9991C39.461 20.1505 39.3338 20.3093 39.159 20.4447C38.985 20.5787 38.7641 20.6933 38.5082 20.7405C38.2541 20.7861 37.9665 20.7794 37.6918 20.6756C37.5536 20.6278 37.4202 20.5553 37.2975 20.4635C37.1734 20.3733 37.0608 20.2613 36.9678 20.1312C36.7758 19.875 36.6671 19.5444 36.6642 19.2043C36.6672 18.8643 36.7759 18.5338 36.9679 18.2777C37.0609 18.1477 37.1736 18.0357 37.2976 17.9456C37.4203 17.8537 37.5537 17.7812 37.6918 17.7334C37.9665 17.6296 38.2541 17.6228 38.5082 17.6685C38.7641 17.7157 38.9849 17.8302 39.159 17.9642C39.3338 18.0995 39.461 18.2583 39.5484 18.4098C39.6351 18.5619 39.6889 18.705 39.7139 18.8256C39.7306 18.885 39.7364 18.9396 39.7426 18.9865C39.7504 19.0334 39.752 19.0733 39.752 19.1058C39.7524 19.1352 39.7526 19.1594 39.753 19.1793C39.7527 19.1961 39.7522 19.2045 39.7513 19.2045Z" fill="#263238"/>
<path d="M43.4042 19.06C43.3956 19.0608 43.405 18.9262 43.3471 18.6962C43.2897 18.4707 43.1404 18.139 42.8036 17.8826C42.6368 17.7573 42.4268 17.651 42.1846 17.6083C41.9441 17.5673 41.6729 17.5752 41.4148 17.6744C41.2849 17.7199 41.1597 17.7888 41.0446 17.8756C40.9282 17.9607 40.8225 18.0665 40.7355 18.1889C40.5554 18.4302 40.4541 18.7402 40.4511 19.0597C40.454 19.3793 40.5553 19.6894 40.7354 19.9308C40.8224 20.0533 40.9281 20.159 41.0446 20.2442C41.1597 20.3311 41.2849 20.3999 41.4148 20.4455C41.673 20.5447 41.9442 20.5526 42.1847 20.5116C42.4269 20.4689 42.637 20.3626 42.8037 20.2373C43.1405 19.9808 43.2898 19.6493 43.3472 19.4238C43.4051 19.1938 43.3956 19.0593 43.4042 19.06C43.4061 19.06 43.4063 19.093 43.4049 19.1561C43.405 19.1876 43.4034 19.2266 43.3958 19.2723C43.3899 19.3181 43.3842 19.3712 43.368 19.4291C43.3163 19.6594 43.17 20.0013 42.8274 20.2689C42.6577 20.3996 42.4425 20.5113 42.1931 20.5574C41.9454 20.6018 41.6651 20.5954 41.3972 20.4942C41.2625 20.4476 41.1324 20.3769 41.0128 20.2874C40.8918 20.1995 40.782 20.0903 40.6913 19.9635C40.5041 19.7137 40.3982 19.3915 40.3954 19.0599C40.3983 18.7284 40.5042 18.4063 40.6914 18.1566C40.7821 18.0299 40.8919 17.9207 41.0128 17.8329C41.1324 17.7434 41.2624 17.6727 41.3971 17.6261C41.6649 17.5249 41.9452 17.5184 42.1929 17.5628C42.4422 17.6088 42.6576 17.7205 42.8272 17.8511C43.1698 18.1186 43.3161 18.4606 43.3678 18.6909C43.384 18.7489 43.3897 18.802 43.3956 18.8478C43.4032 18.8935 43.4048 18.9325 43.4047 18.9641C43.4063 19.027 43.4061 19.06 43.4042 19.06Z" fill="#263238"/>
<path d="M40.4233 18.7201C40.4173 18.7263 40.382 18.6965 40.3171 18.6655C40.2528 18.6346 40.1566 18.6043 40.0484 18.6062C39.9402 18.6077 39.8451 18.6416 39.7821 18.675C39.7185 18.7084 39.6846 18.7399 39.6783 18.734C39.6732 18.7298 39.6979 18.6868 39.7615 18.6413C39.8241 18.5961 39.9274 18.552 40.0474 18.5504C40.1674 18.5482 40.2719 18.5885 40.3361 18.6312C40.4016 18.674 40.4283 18.7157 40.4233 18.7201Z" fill="#263238"/>
<path d="M36.7844 18.9856C36.7936 18.998 36.4943 19.2387 36.1159 19.5231C35.7375 19.8076 35.4233 20.0282 35.4142 20.0157C35.405 20.0034 35.7042 19.7627 36.0827 19.4782C36.4611 19.1938 36.7752 18.9732 36.7844 18.9856Z" fill="#263238"/>
<g opacity="0.3">
<path d="M35.5222 25.9777C35.3739 27.4357 35.9243 28.9745 37.0853 29.8581C37.1764 29.9274 37.2908 29.9961 37.3982 29.957C37.4727 29.93 37.5205 29.8579 37.5601 29.7887C37.8911 29.2116 38.0021 28.5749 37.9062 27.9154C37.7223 28.403 37.5646 28.8816 37.379 29.3916C36.3674 28.773 35.7369 27.4575 35.5222 25.9777Z" fill="black"/>
</g>
<path opacity="0.3" d="M39.4529 29.2926L40.3048 28.9792L40.4459 30.4305C40.4459 30.4305 41.3652 28.7429 41.7457 27.9729C42.1261 27.203 41.9305 25.8441 41.9305 25.8441C41.9305 25.8441 42.0666 27.0277 41.1453 28.5375L40.4499 29.6757V28.4836L39.4529 29.2926Z" fill="black"/>
<g opacity="0.3">
<path d="M29.5418 36.6686C29.1618 36.4879 28.7247 36.4636 28.3073 36.5126C27.8665 36.5643 27.424 36.7002 27.0786 36.9809C26.7332 37.2616 26.499 37.7039 26.5421 38.1487L26.5848 38.1548C26.8819 37.3445 27.4733 36.7548 28.2358 36.6835C28.9983 36.6122 29.7423 36.9539 30.2657 37.5169C30.2148 37.0968 29.9217 36.8493 29.5418 36.6686Z" fill="black"/>
</g>
<g opacity="0.3">
<path d="M51.0868 37.497C50.8014 37.1866 50.4002 36.9987 49.9865 36.926C49.2598 36.7984 48.48 37.0257 47.9334 37.5246L48.096 37.3917C48.5089 37.1484 48.985 37.004 49.4631 37.0177C49.9414 37.0313 50.4201 37.2095 50.7664 37.542C51.0849 37.8477 51.2764 38.2603 51.4589 38.6634C51.5301 38.2464 51.3723 37.8074 51.0868 37.497Z" fill="black"/>
</g>
<path d="M45.5947 30.757C45.5911 30.7555 45.6049 30.7138 45.6328 30.6397C45.6658 30.5548 45.7062 30.4505 45.754 30.3274C45.8573 30.0642 45.9988 29.7003 46.1483 29.2958C46.2976 28.8912 46.4267 28.5226 46.5193 28.2554C46.5631 28.1308 46.6001 28.0253 46.6303 27.9393C46.6572 27.8649 46.6738 27.8243 46.6774 27.8255C46.6811 27.8266 46.6715 27.8694 46.6509 27.946C46.6304 28.0226 46.5983 28.1326 46.5566 28.2679C46.4734 28.5386 46.35 28.91 46.2003 29.3154C46.0505 29.7206 45.9029 30.083 45.7903 30.3426C45.734 30.4725 45.6869 30.5769 45.6528 30.6484C45.6188 30.7197 45.5982 30.7585 45.5947 30.757Z" fill="#263238"/>
<path d="M32.1472 30.8623C32.1322 30.8654 32.0162 30.3542 31.8883 29.7206C31.7603 29.0867 31.6688 28.5706 31.6838 28.5675C31.6989 28.5644 31.8148 29.0755 31.9427 29.7094C32.0707 30.343 32.1622 30.8593 32.1472 30.8623Z" fill="#263238"/>
<path d="M31.9459 37.2528C31.9796 37.27 31.5551 33.9051 31.5551 33.9051C31.5551 33.9051 31.823 31.3517 31.9736 31.2335L31.9775 30.3326C31.9775 30.3326 32.3921 30.0796 32.5035 30.488C32.5035 30.488 32.8711 30.1665 32.9354 30.9319C32.9996 31.6974 33.0131 32.4795 33.0131 32.4795L33.8315 34.5405L33.9662 34.6091C33.9662 34.6091 34.142 32.9946 34.2443 32.7569C34.3466 32.5193 34.4166 31.9415 34.8046 32.0282C35.1925 32.1149 35.2248 32.4382 35.1551 32.9649C35.0853 33.4917 34.9985 34.0354 35.0308 34.3757C35.0631 34.7159 35.2166 35.4647 35.1695 36.0596C35.1223 36.6545 34.7989 37.2823 34.4593 37.7228C34.1198 38.1634 33.4711 39.0747 33.1186 39.3493C32.9955 39.4452 31.9459 37.2528 31.9459 37.2528Z" fill="#FFBE9D"/>
<path d="M32.359 34.5147C32.3552 34.5144 32.3561 34.4632 32.3613 34.3707C32.3683 34.2673 32.3773 34.1363 32.3879 33.9797C32.4129 33.6499 32.4512 33.1945 32.4969 32.6921C32.5205 32.4415 32.543 32.2028 32.5636 31.9837C32.5743 31.8754 32.581 31.7731 32.5673 31.68C32.5544 31.5869 32.5182 31.5061 32.4654 31.4478C32.3573 31.3298 32.2183 31.2999 32.1313 31.3C32.041 31.2994 31.9938 31.3241 31.992 31.318C31.9912 31.3162 32.0025 31.3102 32.0252 31.3004C32.0482 31.292 32.0834 31.2809 32.1305 31.2782C32.222 31.2716 32.3715 31.2953 32.4941 31.4208C32.5544 31.483 32.5973 31.5732 32.6128 31.6727C32.6295 31.7724 32.6238 31.8793 32.6146 31.9883C32.5954 32.2074 32.5744 32.4463 32.5523 32.6972C32.5065 33.1997 32.4621 33.6544 32.4272 33.9834C32.4095 34.1393 32.3946 34.2698 32.3829 34.3726C32.3712 34.4645 32.3629 34.5151 32.359 34.5147Z" fill="#EB996E"/>
<path d="M32.7989 33.1385C32.8069 33.1452 32.7157 33.226 32.6541 33.4041C32.5881 33.5796 32.5644 33.8431 32.5181 34.1305C32.474 34.4182 32.431 34.678 32.3972 34.8658C32.3634 35.0535 32.3386 35.1691 32.3311 35.1679C32.3235 35.1667 32.3345 35.0491 32.3584 34.8598C32.3823 34.6705 32.4191 34.4097 32.4631 34.122C32.5094 33.8361 32.5392 33.5703 32.6175 33.3899C32.6545 33.2998 32.6997 33.2339 32.7358 33.1936C32.7715 33.1527 32.7971 33.1364 32.7989 33.1385Z" fill="#EB996E"/>
<path d="M32.4982 30.4437C32.502 30.4431 32.512 30.4808 32.5267 30.5496C32.5416 30.6183 32.5602 30.7184 32.5806 30.8426C32.6213 31.0909 32.666 31.4359 32.6943 31.819C32.7222 32.2023 32.7284 32.5503 32.7242 32.8019C32.7222 32.9277 32.7186 33.0294 32.7138 33.0997C32.7092 33.17 32.7049 33.2087 32.7011 33.2086C32.6929 33.2084 32.6911 33.053 32.685 32.8021C32.679 32.5513 32.6667 32.2049 32.6388 31.8232C32.6107 31.4416 32.5725 31.0972 32.5416 30.8482C32.5109 30.5992 32.4901 30.4451 32.4982 30.4437Z" fill="#EB996E"/>
<path d="M34.8589 33.5985C34.867 33.6111 34.7393 33.671 34.5832 33.622C34.4266 33.5749 34.3538 33.4535 34.3675 33.4475C34.3798 33.4368 34.4618 33.528 34.5994 33.5685C34.7361 33.6123 34.8546 33.5827 34.8589 33.5985Z" fill="#EB996E"/>
<path d="M31.9919 36.8344L29.8299 37.7494H28.5419C28.5419 37.7494 27.2677 38.1498 27.0718 39.3527C26.8757 40.5556 26.8478 41.1746 27.4078 41.3234C27.9678 41.4722 29.55 41.4886 30.334 41.2266C31.118 40.9646 33.1718 39.2954 33.1718 39.2954L33.3698 38.0879L31.9919 36.8344Z" fill="#FFBE9D"/>
<path d="M32.4982 38.1637C32.4954 38.1663 32.4738 38.1461 32.4368 38.1069C32.3984 38.0689 32.3511 38.0065 32.2964 37.9269C32.1895 37.7662 32.0725 37.5225 31.9944 37.2382C31.9136 36.9546 31.8791 36.6895 31.8612 36.4982C31.8448 36.3066 31.8457 36.1876 31.8528 36.1871C31.861 36.1866 31.8739 36.3044 31.9001 36.4937C31.9279 36.6825 31.9682 36.9438 32.0478 37.2229C32.1247 37.5027 32.2331 37.7429 32.3295 37.9058C32.4267 38.0685 32.5059 38.1567 32.4982 38.1637Z" fill="#EB996E"/>
<path d="M33.4395 38.5455C33.4278 38.5412 33.5252 38.3757 33.5627 38.0787C33.5806 37.9312 33.579 37.7518 33.5372 37.5603C33.4958 37.3683 33.4046 37.1705 33.2723 36.986C33.1409 36.8005 32.9933 36.6392 32.8688 36.483C32.743 36.3276 32.6425 36.1756 32.5765 36.038C32.5102 35.9004 32.4796 35.7789 32.4682 35.6946C32.4573 35.6098 32.4617 35.5626 32.4644 35.5626C32.4753 35.5603 32.4716 35.7547 32.6115 36.0202C32.6802 36.1522 32.7817 36.2985 32.9083 36.4503C33.0337 36.6033 33.1831 36.764 33.3175 36.9536C33.4528 37.142 33.5473 37.3501 33.5871 37.5493C33.6276 37.7483 33.625 37.9334 33.6015 38.0841C33.578 38.2353 33.5368 38.3526 33.5024 38.43C33.4859 38.4692 33.47 38.498 33.4588 38.5174C33.4478 38.5367 33.4412 38.5464 33.4395 38.5455Z" fill="#EB996E"/>
<path d="M30.1066 33.3026C30.0929 33.3097 29.8571 32.8774 29.5797 32.3373C29.3023 31.7969 29.0885 31.3532 29.1022 31.3462C29.1158 31.3391 29.3517 31.7713 29.629 32.3116C29.9064 32.8518 30.1202 33.2956 30.1066 33.3026Z" fill="white"/>
<path d="M33.603 29.3825C33.589 29.3762 33.7348 29.0159 33.9286 28.5777C34.1225 28.1394 34.291 27.7892 34.3051 27.7955C34.319 27.8018 34.1733 28.1621 33.9794 28.6005C33.7856 29.0387 33.6171 29.3888 33.603 29.3825Z" fill="white"/>
<path d="M37.0269 31.9267C37.015 31.9366 36.7956 31.6893 36.5369 31.3745C36.2781 31.0596 36.078 30.7964 36.0897 30.7865C36.1015 30.7767 36.3208 31.024 36.5797 31.3388C36.8385 31.6536 37.0387 31.9169 37.0269 31.9267Z" fill="white"/>
<path d="M36.2391 35.4258C36.2268 35.4168 36.3921 35.1659 36.6083 34.8655C36.8247 34.565 37.0101 34.3288 37.0226 34.3379C37.035 34.3469 36.8698 34.5979 36.6533 34.8984C36.437 35.1987 36.2516 35.4349 36.2391 35.4258Z" fill="white"/>
<path d="M35.1789 40.3682C35.1722 40.3715 35.1236 40.2894 35.0537 40.1524C34.9836 40.0153 34.8928 39.8229 34.8014 39.6064C34.7101 39.3898 34.6355 39.1904 34.5862 39.0445C34.5369 38.8987 34.5119 38.8065 34.5189 38.804C34.5263 38.8013 34.5644 38.8887 34.623 39.0306C34.69 39.1922 34.7673 39.3786 34.8526 39.5846C34.9405 39.7893 35.0202 39.9749 35.0892 40.1355C35.1499 40.2765 35.1859 40.3647 35.1789 40.3682Z" fill="white"/>
<path d="M38.1914 38.2671C38.1885 38.2822 37.8985 38.2385 37.5438 38.1693C37.189 38.1001 36.9038 38.0318 36.9067 38.0167C36.9095 38.0015 37.1995 38.0452 37.5543 38.1144C37.909 38.1836 38.1942 38.2519 38.1914 38.2671Z" fill="white"/>
<path d="M40.5276 33.6489C40.5164 33.6384 40.7929 33.3197 41.1451 32.9371C41.4974 32.5544 41.7921 32.2528 41.8033 32.2633C41.8145 32.2739 41.5381 32.5925 41.1858 32.9752C40.8335 33.3578 40.5388 33.6595 40.5276 33.6489Z" fill="white"/>
<path d="M42.878 39.8082C42.8661 39.818 42.5212 39.416 42.1076 38.9103C41.6939 38.4045 41.3682 37.9866 41.38 37.9767C41.3919 37.967 41.7367 38.3689 42.1505 38.8746C42.564 39.3804 42.8898 39.7983 42.878 39.8082Z" fill="white"/>
<path d="M28.2876 37.1829C28.2955 37.1983 27.9803 37.3593 27.6369 37.6247C27.2918 37.8882 27.0545 38.1517 27.0418 38.14C27.0365 38.1353 27.0892 38.0633 27.1869 37.9576C27.2845 37.8519 27.429 37.7143 27.6032 37.5802C27.7775 37.4464 27.9475 37.3424 28.0745 37.2756C28.2016 37.2087 28.2845 37.1766 28.2876 37.1829Z" fill="white"/>
<path d="M29.1665 34.8091C29.1793 34.8177 29.0671 35.0102 28.916 35.2391C28.7648 35.468 28.6319 35.6466 28.6191 35.6381C28.6063 35.6295 28.7185 35.4371 28.8697 35.208C29.0208 34.9792 29.1537 34.8005 29.1665 34.8091Z" fill="white"/>
<path d="M31.1466 37.1402C31.1344 37.1474 31.0233 36.9595 30.9652 36.6989C30.9057 36.4386 30.9252 36.2208 30.9393 36.2221C30.9558 36.2221 30.9614 36.4341 31.0193 36.6866C31.0754 36.9394 31.1615 37.133 31.1466 37.1402Z" fill="white"/>
<path d="M31.4401 29.7361C31.4422 29.7514 31.2582 29.7904 31.0292 29.8232C30.8001 29.856 30.6126 29.8702 30.6105 29.8549C30.6083 29.8397 30.7922 29.8007 31.0214 29.7678C31.2505 29.735 31.438 29.7209 31.4401 29.7361Z" fill="white"/>
<path d="M32.9274 27.0799C32.9348 27.0935 32.7738 27.1977 32.5677 27.3127C32.3615 27.4278 32.1885 27.5101 32.181 27.4966C32.1735 27.483 32.3346 27.3788 32.5408 27.2638C32.7468 27.1487 32.9199 27.0664 32.9274 27.0799Z" fill="white"/>
<path d="M37.1095 28.2018C37.0974 28.2112 36.9131 27.9883 36.6981 27.7039C36.4831 27.4194 36.3186 27.1814 36.3309 27.172C36.343 27.1627 36.5272 27.3856 36.7424 27.6701C36.9573 27.9544 37.1218 28.1925 37.1095 28.2018Z" fill="white"/>
<path d="M42.4187 30.8731C42.4083 30.8829 42.2144 30.6819 42.0346 30.3894C41.8534 30.0975 41.7601 29.8335 41.7733 29.8285C41.7885 29.8219 41.9032 30.0725 42.0817 30.3598C42.2587 30.6479 42.4311 30.8624 42.4187 30.8731Z" fill="white"/>
<path d="M44.4449 31.5458C44.4589 31.5521 44.3604 31.801 44.2251 32.1015C44.0896 32.4021 43.9685 32.6405 43.9546 32.6341C43.9406 32.6278 44.039 32.379 44.1745 32.0784C44.3099 31.7779 44.4309 31.5394 44.4449 31.5458Z" fill="white"/>
<path d="M44.7282 28.7602C44.7164 28.7701 44.4751 28.4976 44.1893 28.1517C43.9035 27.8057 43.6813 27.5172 43.6931 27.5073C43.7049 27.4975 43.9461 27.7699 44.2321 28.1159C44.5179 28.4618 44.74 28.7503 44.7282 28.7602Z" fill="white"/>
<path d="M41.6333 26.4974C41.6179 26.4981 41.5964 26.265 41.5851 25.9768C41.5737 25.6886 41.5771 25.4546 41.5924 25.454C41.6078 25.4533 41.6293 25.6865 41.6406 25.9746C41.6518 26.2627 41.6485 26.4968 41.6333 26.4974Z" fill="white"/>
<path d="M44.1566 26.3564C44.1586 26.3718 43.8637 26.4241 43.498 26.4733C43.1322 26.5226 42.834 26.5501 42.832 26.5348C42.83 26.5194 43.1248 26.4671 43.4907 26.4179C43.8564 26.3686 44.1546 26.3411 44.1566 26.3564Z" fill="white"/>
<path d="M48.1311 29.2967C48.1173 29.3035 47.9398 28.9628 47.7348 28.536C47.5297 28.1091 47.3747 27.7576 47.3885 27.7508C47.4022 27.7441 47.5797 28.0846 47.7848 28.5116C47.9898 28.9386 48.1449 29.2901 48.1311 29.2967Z" fill="white"/>
<path d="M47.4619 31.8374C47.4468 31.8344 47.4884 31.5606 47.5548 31.2259C47.6211 30.8912 47.6872 30.6224 47.7022 30.6254C47.7172 30.6284 47.6756 30.9021 47.6093 31.2369C47.5429 31.5715 47.4769 31.8404 47.4619 31.8374Z" fill="white"/>
<path d="M49.3054 33.8403C49.2909 33.8454 49.1492 33.4758 48.9891 33.0148C48.8289 32.5537 48.7107 32.1759 48.7252 32.1708C48.7397 32.1657 48.8813 32.5352 49.0416 32.9963C49.2017 33.4573 49.3198 33.8351 49.3054 33.8403Z" fill="white"/>
<path d="M49.0486 35.0117C49.046 35.0255 48.7902 34.9718 48.5098 34.8177C48.2285 34.6653 48.0441 34.4789 48.0541 34.4691C48.0649 34.4562 48.2615 34.6198 48.5363 34.7685C48.8099 34.9191 49.0534 34.9956 49.0486 35.0117Z" fill="white"/>
<path d="M51.4101 37.6831C51.3962 37.6894 51.3105 37.5262 51.2189 37.3189C51.1273 37.1115 51.0643 36.9383 51.0783 36.9319C51.0923 36.9256 51.1779 37.0887 51.2696 37.2961C51.3612 37.5036 51.4241 37.6769 51.4101 37.6831Z" fill="white"/>
<path d="M37.4625 41.4084C37.4472 41.4102 37.4101 41.1972 37.3796 40.9328C37.3491 40.6682 37.3366 40.4524 37.3519 40.4507C37.3671 40.4489 37.4042 40.6618 37.4348 40.9264C37.4654 41.1908 37.4777 41.4067 37.4625 41.4084Z" fill="white"/>
<path d="M44.7083 41.2241C44.6932 41.2208 44.7245 41.0125 44.778 40.7589C44.8316 40.5052 44.8872 40.3021 44.9022 40.3053C44.9172 40.3086 44.886 40.5168 44.8323 40.7705C44.7788 41.0241 44.7232 41.2273 44.7083 41.2241Z" fill="white"/>
<path d="M46.0975 19.9219L47.0345 18.2589C46.62 17.5813 46.3804 16.7836 46.3804 15.9294C46.3804 13.4727 48.3578 11.4812 50.7969 11.4812C53.2362 11.4812 55.2134 13.4727 55.2134 15.9294C55.2134 18.386 53.2361 20.3775 50.7969 20.3775C49.7784 20.3775 48.8412 20.0293 48.094 19.446L48.0955 19.4479L46.0975 19.9219Z" fill="#FAFAFA"/>
<path d="M46.0977 19.9219C46.1926 19.9001 46.8252 19.7545 48.0989 19.4613L48.1193 19.4566L48.1065 19.4396L48.105 19.4377L48.086 19.4568C48.3379 19.6534 48.6397 19.8471 48.9944 20.0085C49.3496 20.1671 49.7566 20.2967 50.2058 20.3569C50.4302 20.3858 50.6645 20.4043 50.9054 20.3925C51.0257 20.3856 51.1482 20.3827 51.2718 20.3723C51.3945 20.3536 51.5189 20.3347 51.6451 20.3155C52.1454 20.216 52.6568 20.0248 53.1338 19.7267C53.6106 19.4296 54.0521 19.0261 54.4061 18.5305C54.7593 18.0356 55.0273 17.449 55.1527 16.8114C55.277 16.1747 55.2666 15.4924 55.1006 14.8319C54.9334 14.1738 54.6211 13.5308 54.1536 13.0019L53.9731 12.8019C53.9138 12.7347 53.8431 12.6793 53.7788 12.6176C53.7114 12.5593 53.6508 12.4932 53.5784 12.4416L53.3664 12.282C53.2977 12.2261 53.2221 12.181 53.1469 12.1358C53.072 12.09 52.9972 12.0442 52.9226 11.9987C52.8442 11.9603 52.7661 11.9221 52.688 11.884C52.6093 11.8474 52.5335 11.8041 52.4511 11.7779C51.8093 11.5214 51.1248 11.4236 50.4706 11.4714C49.8162 11.5189 49.19 11.708 48.6528 12.0126C48.1139 12.3146 47.6595 12.718 47.3088 13.1686C46.957 13.6194 46.7091 14.1165 46.5557 14.6116C46.4032 15.109 46.362 15.6023 46.3637 16.0588C46.3768 16.5166 46.4596 16.9383 46.58 17.3084C46.7008 17.679 46.8594 17.9977 47.0231 18.2659L47.0229 18.2524C46.432 19.3188 46.143 19.84 46.0977 19.9219C46.1442 19.8407 46.4403 19.3235 47.046 18.2654L47.0498 18.2588L47.0457 18.252C46.8848 17.9843 46.729 17.6667 46.611 17.2983C46.4932 16.9303 46.413 16.5117 46.4017 16.0577C46.4018 15.6049 46.4442 15.1163 46.5967 14.6241C46.7501 14.1343 46.9967 13.6429 47.3458 13.1976C47.6938 12.7525 48.1441 12.3545 48.6773 12.0566C49.2088 11.7563 49.8279 11.5704 50.4746 11.5241C51.1214 11.4776 51.7974 11.5746 52.4311 11.8283C52.5126 11.8542 52.5874 11.8971 52.665 11.9332C52.7421 11.9709 52.8194 12.0087 52.8968 12.0466C52.9704 12.0916 53.0442 12.1368 53.1182 12.1821C53.1925 12.2269 53.2673 12.2713 53.335 12.3266L53.5445 12.4843C53.616 12.5352 53.6758 12.6005 53.7423 12.6581C53.8057 12.7191 53.8757 12.7738 53.9342 12.8402L54.1124 13.0377C54.5743 13.5602 54.8828 14.1952 55.0482 14.8451C55.2125 15.4973 55.2232 16.1717 55.1012 16.8009C54.9779 17.4309 54.7138 18.011 54.3653 18.5008C54.0162 18.9914 53.5802 19.3913 53.1092 19.6863C52.6378 19.9822 52.1321 20.1728 51.637 20.2728C51.5122 20.2922 51.389 20.3113 51.2675 20.3302C51.1452 20.3408 51.0238 20.3442 50.9045 20.3514C50.6659 20.3639 50.4336 20.3462 50.2111 20.3185C49.7654 20.2605 49.3614 20.1337 49.008 19.978C48.6551 19.8195 48.3543 19.6288 48.1026 19.435L48.0204 19.3716L48.0835 19.4541L48.085 19.4561L48.0927 19.4345C46.8228 19.7448 46.1922 19.8988 46.0977 19.9219Z" fill="#263238"/>
<path d="M51.9895 15.7439C51.9895 15.984 52.1827 16.1785 52.4211 16.1785C52.6595 16.1785 52.8528 15.984 52.8528 15.7439C52.8528 15.5038 52.6596 15.3092 52.4211 15.3092C52.1827 15.3092 51.9895 15.5038 51.9895 15.7439Z" fill="#263238"/>
<path d="M50.2622 15.7439C50.2622 15.984 50.4555 16.1785 50.6937 16.1785C50.9321 16.1785 51.1254 15.984 51.1254 15.7439C51.1254 15.5038 50.9323 15.3092 50.6937 15.3092C50.4555 15.3092 50.2622 15.5038 50.2622 15.7439Z" fill="#263238"/>
<path d="M48.5394 15.5265C48.4203 15.7344 48.491 16.0003 48.6974 16.1204C48.9039 16.2404 49.1678 16.1691 49.287 15.9613C49.4062 15.7534 49.3355 15.4875 49.1291 15.3675C48.9226 15.2473 48.6586 15.3185 48.5394 15.5265Z" fill="#263238"/>
</svg>
