<svg width="14" height="14" viewBox="0 0 14 14" fill="none" xmlns="http://www.w3.org/2000/svg">
<path d="M12.8 4.37999C12.68 4.23999 12.53 4.12999 12.36 4.04999C12.19 3.96999 12.01 3.92999 11.82 3.92999H8.76V3.04999C8.76 2.46999 8.53 1.90999 8.12 1.49999C7.71 1.08999 7.15 0.859985 6.57 0.859985C6.49 0.859985 6.41 0.879985 6.34 0.929985C6.27 0.979985 6.21 1.02999 6.18 1.10999L4.11 5.23998H1.75C1.52 5.23998 1.3 5.32999 1.13 5.49999C0.969995 5.65999 0.869995 5.88999 0.869995 6.11999V10.93C0.869995 11.16 0.959995 11.38 1.13 11.55C1.29 11.71 1.52 11.81 1.75 11.81H11.16C11.48 11.81 11.79 11.69 12.03 11.48C12.27 11.27 12.42 10.98 12.46 10.66L13.12 5.40999C13.14 5.22999 13.12 5.03999 13.07 4.85999C13.02 4.67999 12.92 4.51999 12.8 4.37999ZM1.75 6.11999H3.94V10.93H1.75V6.11999ZM12.25 5.29999L11.59 10.55C11.58 10.66 11.53 10.75 11.45 10.82C11.37 10.89 11.27 10.93 11.16 10.93H4.82V5.77999L6.82 1.77999C7.12 1.83999 7.39 1.99999 7.58 2.23999C7.77 2.46999 7.88 2.76999 7.88 3.06999V4.37999C7.88 4.49999 7.93 4.60999 8.01 4.68999C8.09 4.76999 8.19999 4.81999 8.31999 4.81999H11.82C11.88 4.81999 11.94 4.82999 12 4.85999C12.06 4.88999 12.11 4.91999 12.15 4.96999C12.19 5.01999 12.22 5.06999 12.24 5.12999C12.26 5.18999 12.26 5.24999 12.26 5.30999L12.25 5.29999Z" fill="#828282"/>
<path d="M4.07999 5.76997H1.42999L4.37999 5.65997" fill="#828282"/>
<path d="M4.38 5.44002L6.49 1.40002C6.49 1.40002 8.37001 1.30002 8.35001 4.19002L12.25 4.41002C12.25 4.41002 12.76 4.68002 12.25 7.00002L11.8 10.23C11.8 10.23 12.04 11.11 11.12 11.35H4.38V5.43002V5.44002Z" fill="#828282"/>
</svg>
