<svg width="14" height="14" viewBox="0 0 14 14" fill="none" xmlns="http://www.w3.org/2000/svg">
<path d="M12.7969 4.38156C12.6737 4.24196 12.5222 4.13016 12.3525 4.0536C12.1828 3.97704 11.9987 3.93746 11.8125 3.9375H8.75V3.0625C8.75 2.48234 8.51953 1.92594 8.1093 1.5157C7.69906 1.10547 7.14266 0.875 6.5625 0.875C6.48122 0.874942 6.40153 0.897526 6.33237 0.940221C6.26321 0.982916 6.20731 1.04403 6.17094 1.11672L4.10484 5.25H1.75C1.51794 5.25 1.29538 5.34219 1.13128 5.50628C0.967187 5.67038 0.875 5.89294 0.875 6.125V10.9375C0.875 11.1696 0.967187 11.3921 1.13128 11.5562C1.29538 11.7203 1.51794 11.8125 1.75 11.8125H11.1562C11.476 11.8126 11.7848 11.696 12.0247 11.4845C12.2645 11.2731 12.4189 10.9813 12.4589 10.6641L13.1152 5.41406C13.1384 5.22923 13.1221 5.04157 13.0672 4.86354C13.0123 4.68552 12.9202 4.52122 12.7969 4.38156ZM1.75 6.125H3.9375V10.9375H1.75V6.125Z" fill="#0494FD"/>
</svg>
