<svg width="14" height="14" viewBox="0 0 14 14" fill="none" xmlns="http://www.w3.org/2000/svg">
<path d="M12.25 7C12.25 7.11603 12.2039 7.22731 12.1219 7.30936C12.0398 7.39141 11.9285 7.4375 11.8125 7.4375H7C6.88397 7.4375 6.77269 7.39141 6.69064 7.30936C6.60859 7.22731 6.5625 7.11603 6.5625 7C6.5625 6.88397 6.60859 6.77269 6.69064 6.69064C6.77269 6.60859 6.88397 6.5625 7 6.5625H11.8125C11.9285 6.5625 12.0398 6.60859 12.1219 6.69064C12.2039 6.77269 12.25 6.88397 12.25 7ZM7 3.9375H11.8125C11.9285 3.9375 12.0398 3.89141 12.1219 3.80936C12.2039 3.72731 12.25 3.61603 12.25 3.5C12.25 3.38397 12.2039 3.27269 12.1219 3.19064C12.0398 3.10859 11.9285 3.0625 11.8125 3.0625H7C6.88397 3.0625 6.77269 3.10859 6.69064 3.19064C6.60859 3.27269 6.5625 3.38397 6.5625 3.5C6.5625 3.61603 6.60859 3.72731 6.69064 3.80936C6.77269 3.89141 6.88397 3.9375 7 3.9375ZM11.8125 10.0625H7C6.88397 10.0625 6.77269 10.1086 6.69064 10.1906C6.60859 10.2727 6.5625 10.384 6.5625 10.5C6.5625 10.616 6.60859 10.7273 6.69064 10.8094C6.77269 10.8914 6.88397 10.9375 7 10.9375H11.8125C11.9285 10.9375 12.0398 10.8914 12.1219 10.8094C12.2039 10.7273 12.25 10.616 12.25 10.5C12.25 10.384 12.2039 10.2727 12.1219 10.1906C12.0398 10.1086 11.9285 10.0625 11.8125 10.0625ZM4.50297 2.31547L3.0625 3.75648L2.49703 3.19047C2.41494 3.10838 2.3036 3.06226 2.1875 3.06226C2.0714 3.06226 1.96006 3.10838 1.87797 3.19047C1.79588 3.27256 1.74976 3.3839 1.74976 3.5C1.74976 3.6161 1.79588 3.72744 1.87797 3.80953L2.75297 4.68453C2.7936 4.72521 2.84185 4.75748 2.89496 4.77949C2.94807 4.80151 3.005 4.81284 3.0625 4.81284C3.11999 4.81284 3.17692 4.80151 3.23004 4.77949C3.28315 4.75748 3.3314 4.72521 3.37203 4.68453L5.12203 2.93453C5.20412 2.85244 5.25024 2.7411 5.25024 2.625C5.25024 2.5089 5.20412 2.39756 5.12203 2.31547C5.03994 2.23338 4.9286 2.18726 4.8125 2.18726C4.6964 2.18726 4.58506 2.23338 4.50297 2.31547ZM4.50297 5.81547L3.0625 7.25648L2.49703 6.69047C2.41494 6.60838 2.3036 6.56226 2.1875 6.56226C2.0714 6.56226 1.96006 6.60838 1.87797 6.69047C1.79588 6.77256 1.74976 6.8839 1.74976 7C1.74976 7.05748 1.76108 7.11441 1.78308 7.16752C1.80508 7.22063 1.83732 7.26888 1.87797 7.30953L2.75297 8.18453C2.7936 8.22521 2.84185 8.25748 2.89496 8.27949C2.94807 8.30151 3.005 8.31284 3.0625 8.31284C3.11999 8.31284 3.17692 8.30151 3.23004 8.27949C3.28315 8.25748 3.3314 8.22521 3.37203 8.18453L5.12203 6.43453C5.20412 6.35244 5.25024 6.2411 5.25024 6.125C5.25024 6.0089 5.20412 5.89756 5.12203 5.81547C5.03994 5.73337 4.9286 5.68726 4.8125 5.68726C4.6964 5.68726 4.58506 5.73337 4.50297 5.81547ZM4.50297 9.31547L3.0625 10.7565L2.49703 10.1905C2.45638 10.1498 2.40813 10.1176 2.35502 10.0956C2.30191 10.0736 2.24498 10.0623 2.1875 10.0623C2.13001 10.0623 2.07309 10.0736 2.01998 10.0956C1.96687 10.1176 1.91862 10.1498 1.87797 10.1905C1.83732 10.2311 1.80508 10.2794 1.78308 10.3325C1.76108 10.3856 1.74976 10.4425 1.74976 10.5C1.74976 10.5575 1.76108 10.6144 1.78308 10.6675C1.80508 10.7206 1.83732 10.7689 1.87797 10.8095L2.75297 11.6845C2.7936 11.7252 2.84185 11.7575 2.89496 11.7795C2.94807 11.8015 3.005 11.8128 3.0625 11.8128C3.11999 11.8128 3.17692 11.8015 3.23004 11.7795C3.28315 11.7575 3.3314 11.7252 3.37203 11.6845L5.12203 9.93453C5.20412 9.85244 5.25024 9.7411 5.25024 9.625C5.25024 9.5089 5.20412 9.39756 5.12203 9.31547C5.03994 9.23338 4.9286 9.18726 4.8125 9.18726C4.6964 9.18726 4.58506 9.23338 4.50297 9.31547Z" fill="#2A76E3"/>
</svg>
