<svg width="14" height="14" viewBox="0 0 14 14" fill="none" xmlns="http://www.w3.org/2000/svg">
<path d="M12.5599 11.9404L9.82172 9.20272C10.6153 8.24991 11.0111 7.02777 10.9266 5.7906C10.8421 4.55342 10.284 3.39645 9.36818 2.56034C8.4524 1.72423 7.24957 1.27336 6.00981 1.30154C4.77009 1.32971 3.58894 1.83476 2.71209 2.71161C1.83525 3.58846 1.3302 4.7696 1.30203 6.00932C1.27385 7.24908 1.72472 8.45191 2.56082 9.36769C3.39693 10.2835 4.55391 10.8417 5.79109 10.9261C7.02825 11.0106 8.2504 10.6149 9.20321 9.82123L11.9409 12.5594C11.9815 12.6001 12.0298 12.6323 12.0828 12.6543C12.136 12.6763 12.1929 12.6876 12.2504 12.6876C12.3078 12.6876 12.3648 12.6763 12.4179 12.6543C12.471 12.6323 12.5192 12.6001 12.5599 12.5594C12.6005 12.5187 12.6328 12.4705 12.6548 12.4174C12.6768 12.3643 12.6881 12.3073 12.6881 12.2499C12.6881 12.1924 12.6768 12.1355 12.6548 12.0823C12.6328 12.0293 12.6005 11.981 12.5599 11.9404ZM2.18787 6.12488C2.18787 5.34612 2.4188 4.58484 2.85146 3.93732C3.28412 3.28981 3.89907 2.78513 4.61856 2.4871C5.33804 2.18909 6.12975 2.11111 6.89356 2.26304C7.65732 2.41497 8.35895 2.78998 8.90962 3.34065C9.46029 3.89132 9.83531 4.59291 9.98721 5.35671C10.1392 6.12051 10.0612 6.91221 9.76315 7.63169C9.46513 8.35117 8.96043 8.96612 8.31293 9.39878C7.66543 9.83144 6.90412 10.0624 6.12537 10.0624C5.08144 10.0612 4.08059 9.646 3.34242 8.90785C2.60424 8.16964 2.18903 7.16882 2.18787 6.12488Z" fill="black"/>
</svg>
