<svg width="21" height="20" viewBox="0 0 21 20" fill="none" xmlns="http://www.w3.org/2000/svg">
<circle cx="8.8" cy="8" r="8" fill="#D0EDFF"/>
<path d="M20.4658 11.9233C20.4658 9.80157 18.748 8.08371 16.6319 8.07802C14.5102 8.07802 12.7923 9.79588 12.7867 11.9119C12.7867 12.9358 13.1962 13.9199 13.9243 14.6423V18.7435C13.9243 18.9768 14.1177 19.1702 14.3509 19.1702C14.4192 19.1702 14.4818 19.1531 14.5443 19.1247L16.6319 18.0837L18.7195 19.1247C18.7764 19.1531 18.8447 19.1702 18.9072 19.1702C18.9869 19.1702 19.0665 19.1474 19.1291 19.1076C19.2542 19.028 19.3339 18.8914 19.3339 18.7435V14.6423C20.062 13.9256 20.4715 12.9415 20.4715 11.9176L20.4658 11.9233ZM13.6399 11.9233C13.6399 10.2737 14.9766 8.93695 16.6262 8.93695C18.2758 8.93695 19.6126 10.2737 19.6126 11.9233C19.6126 13.5729 18.2758 14.9096 16.6262 14.9096C14.9766 14.9096 13.6399 13.5729 13.6399 11.9233ZM18.4749 18.061L16.814 17.2305C16.6945 17.1679 16.5523 17.1679 16.4328 17.2305L14.7776 18.061V15.2851C15.9266 15.9165 17.3259 15.9165 18.4749 15.2851V18.061ZM12.5022 16.4739C12.5022 16.7071 12.3088 16.9005 12.0756 16.9005H5.81851C5.26675 16.9005 4.82306 16.4569 4.82306 15.9051V6.80384C4.82306 6.25208 5.26675 5.8084 5.81851 5.8084H18.3327C18.8845 5.8084 19.3282 6.25208 19.3282 6.80384C19.3282 7.03706 19.1348 7.23047 18.9016 7.23047C18.6683 7.23047 18.4749 7.03706 18.4749 6.80384C18.4749 6.72421 18.4124 6.66164 18.3327 6.66164H5.81851C5.73887 6.66164 5.6763 6.72421 5.6763 6.80384V15.9051C5.6763 15.9847 5.73887 16.0473 5.81851 16.0473H12.0756C12.3088 16.0473 12.5022 16.2407 12.5022 16.4739ZM11.3646 12.4921C11.3646 12.7253 11.1712 12.9187 10.938 12.9187H8.09382C7.8606 12.9187 7.6672 12.7253 7.6672 12.4921C7.6672 12.2589 7.8606 12.0655 8.09382 12.0655H10.938C11.1712 12.0655 11.3646 12.2589 11.3646 12.4921ZM11.3646 10.2168C11.3646 10.45 11.1712 10.6434 10.938 10.6434H8.09382C7.8606 10.6434 7.6672 10.45 7.6672 10.2168C7.6672 9.98359 7.8606 9.79019 8.09382 9.79019H10.938C11.1712 9.79019 11.3646 9.98359 11.3646 10.2168Z" fill="#0494FD"/>
</svg>
