<svg width="14" height="14" viewBox="0 0 14 14" fill="none" xmlns="http://www.w3.org/2000/svg">
<path d="M11.849 1.82591H10.1325V0.875V0.805H10.0625H9.55216H9.48216V0.875V1.82591H4.51808V0.875V0.805H4.44808H3.93774H3.86774V0.875V1.82591H2.15096C1.40793 1.82591 0.805 2.42884 0.805 3.17188V13.125V13.195H0.875H13.125H13.195V13.125V3.17188C13.195 2.42884 12.5921 1.82591 11.849 1.82591ZM2.15096 2.47625H11.8488C12.2339 2.47625 12.5444 2.78681 12.5444 3.17188V4.88841H1.45534V3.17188C1.45534 2.78681 1.7659 2.47625 2.15096 2.47625ZM9.48216 5.53875V7.44034H7.32529V5.53875H9.48216ZM6.67471 7.44034H4.51784V5.53875H6.67471V7.44034ZM3.8675 7.44034H1.45534V5.53875H3.8675V7.44034ZM3.8675 8.09091V9.9925H1.45534V8.09091H3.8675ZM4.51784 8.09091H6.67471V9.9925H4.51784V8.09091ZM6.67471 10.6428V12.5444H4.51784V10.6428H6.67471ZM7.32529 10.6428H9.48216V12.5444H7.32529V10.6428ZM7.32529 9.9925V8.09091H9.48216V9.9925H7.32529ZM10.1325 8.09091H12.5447V9.9925H10.1325V8.09091ZM10.1325 7.44034V5.53875H12.5447V7.44034H10.1325ZM1.45534 10.6428H3.8675V12.5444H1.45534V10.6428ZM10.1325 12.5447V10.6431H12.5447V12.5447H10.1325Z" fill="white" stroke="white" stroke-width="0.14"/>
</svg>
