<svg width="478" height="435" viewBox="0 0 478 435" fill="none" xmlns="http://www.w3.org/2000/svg">
<path d="M226.678 365.023H226.602C224.364 365.023 222.098 364.979 219.868 364.894C219.401 364.876 219.036 364.483 219.054 364.016C219.072 363.548 219.464 363.181 219.933 363.202C222.141 363.286 224.385 363.329 226.602 363.329H226.678C227.146 363.329 227.525 363.708 227.525 364.176C227.525 364.643 227.146 365.023 226.678 365.023ZM233.456 364.889C233.003 364.889 232.628 364.531 232.61 364.075C232.592 363.608 232.956 363.214 233.424 363.196C235.663 363.108 237.929 362.976 240.158 362.802C240.624 362.765 241.032 363.114 241.069 363.58C241.105 364.047 240.756 364.454 240.29 364.491C238.039 364.666 235.751 364.8 233.49 364.888C233.479 364.889 233.467 364.889 233.456 364.889ZM213.134 364.505C213.112 364.505 213.09 364.504 213.068 364.502C210.813 364.328 208.532 364.108 206.288 363.846C205.824 363.792 205.491 363.371 205.545 362.907C205.599 362.442 206.02 362.108 206.484 362.163C208.706 362.422 210.965 362.641 213.198 362.813C213.665 362.849 214.014 363.257 213.978 363.723C213.943 364.167 213.572 364.505 213.134 364.505ZM246.969 363.834C246.546 363.834 246.18 363.517 246.129 363.086C246.075 362.621 246.407 362.2 246.871 362.146C249.097 361.884 251.346 361.575 253.554 361.227C254.016 361.155 254.45 361.47 254.523 361.932C254.595 362.394 254.28 362.828 253.818 362.9C251.587 363.252 249.317 363.564 247.069 363.828C247.036 363.832 247.002 363.834 246.969 363.834ZM199.671 362.935C199.627 362.935 199.583 362.931 199.539 362.924C197.304 362.574 195.047 362.175 192.831 361.738C192.372 361.647 192.073 361.202 192.164 360.743C192.254 360.284 192.7 359.986 193.158 360.076C195.353 360.509 197.588 360.904 199.801 361.251C200.263 361.323 200.579 361.756 200.507 362.218C200.441 362.636 200.081 362.935 199.671 362.935ZM260.359 361.724C259.963 361.724 259.609 361.445 259.529 361.042C259.438 360.583 259.736 360.137 260.195 360.046C262.393 359.61 264.61 359.125 266.785 358.604C267.239 358.495 267.696 358.776 267.806 359.231C267.915 359.686 267.634 360.143 267.179 360.252C264.983 360.778 262.744 361.268 260.525 361.708C260.469 361.719 260.413 361.724 260.359 361.724ZM186.372 360.311C186.307 360.311 186.24 360.303 186.174 360.288C183.976 359.763 181.758 359.187 179.58 358.576C179.13 358.449 178.867 357.981 178.994 357.531C179.12 357.081 179.588 356.818 180.038 356.945C182.194 357.55 184.391 358.121 186.568 358.64C187.023 358.749 187.303 359.206 187.195 359.661C187.102 360.049 186.755 360.311 186.372 360.311ZM273.541 358.566C273.172 358.566 272.832 358.322 272.727 357.948C272.6 357.498 272.862 357.03 273.312 356.903C275.467 356.296 277.638 355.637 279.767 354.945C280.212 354.801 280.69 355.044 280.835 355.489C280.979 355.934 280.736 356.412 280.291 356.556C278.141 357.255 275.948 357.92 273.772 358.534C273.695 358.555 273.617 358.566 273.541 358.566ZM173.321 356.645C173.234 356.645 173.146 356.632 173.059 356.604C170.903 355.905 168.731 355.153 166.603 354.369C166.165 354.207 165.94 353.72 166.102 353.281C166.263 352.842 166.75 352.617 167.189 352.779C169.296 353.556 171.446 354.3 173.582 354.992C174.027 355.137 174.271 355.614 174.126 356.059C174.01 356.417 173.678 356.645 173.321 356.645ZM286.433 354.375C286.089 354.375 285.765 354.163 285.639 353.821C285.477 353.383 285.701 352.896 286.14 352.733C288.234 351.96 290.341 351.134 292.402 350.279C292.833 350.1 293.329 350.304 293.508 350.736C293.688 351.169 293.483 351.664 293.051 351.843C290.969 352.707 288.842 353.541 286.727 354.322C286.63 354.358 286.531 354.375 286.433 354.375ZM160.567 351.945C160.459 351.945 160.349 351.924 160.243 351.881C158.151 351.014 156.046 350.093 153.988 349.143C153.564 348.947 153.378 348.444 153.574 348.019C153.77 347.594 154.273 347.409 154.698 347.605C156.736 348.545 158.819 349.457 160.891 350.316C161.324 350.495 161.529 350.99 161.35 351.422C161.215 351.748 160.899 351.945 160.567 351.945ZM298.92 349.195C298.6 349.195 298.293 349.012 298.15 348.702C297.954 348.278 298.139 347.774 298.564 347.578C300.591 346.642 302.627 345.653 304.618 344.636C305.034 344.424 305.545 344.589 305.757 345.006C305.97 345.422 305.805 345.932 305.388 346.145C303.378 347.171 301.321 348.171 299.275 349.116C299.159 349.169 299.039 349.195 298.92 349.195ZM148.233 346.255C148.103 346.255 147.972 346.225 147.849 346.162C145.832 345.133 143.808 344.05 141.833 342.941C141.425 342.713 141.28 342.196 141.508 341.788C141.737 341.38 142.254 341.235 142.662 341.464C144.618 342.561 146.622 343.634 148.618 344.653C149.035 344.866 149.2 345.376 148.988 345.793C148.838 346.086 148.541 346.255 148.233 346.255ZM310.969 343.043C310.672 343.043 310.385 342.888 310.229 342.611C310 342.203 310.145 341.686 310.553 341.457C312.502 340.364 314.456 339.217 316.361 338.047C316.76 337.803 317.282 337.927 317.526 338.326C317.771 338.725 317.646 339.246 317.247 339.491C315.323 340.672 313.35 341.831 311.382 342.935C311.251 343.008 311.109 343.043 310.969 343.043ZM136.393 339.613C136.241 339.613 136.088 339.572 135.95 339.487C134.022 338.304 132.091 337.065 130.209 335.806C129.82 335.545 129.716 335.019 129.976 334.63C130.237 334.242 130.763 334.138 131.151 334.398C133.015 335.645 134.927 336.872 136.836 338.044C137.235 338.288 137.36 338.81 137.115 339.209C136.955 339.469 136.677 339.613 136.393 339.613ZM322.505 335.962C322.231 335.962 321.963 335.83 321.8 335.586C321.54 335.197 321.644 334.671 322.033 334.411C323.892 333.167 325.752 331.869 327.559 330.555C327.938 330.279 328.467 330.363 328.742 330.741C329.017 331.119 328.934 331.649 328.556 331.924C326.731 333.252 324.853 334.562 322.975 335.819C322.83 335.916 322.667 335.962 322.505 335.962ZM125.116 332.065C124.943 332.065 124.769 332.012 124.618 331.903C122.789 330.571 120.961 329.186 119.186 327.784C118.818 327.495 118.756 326.962 119.046 326.595C119.335 326.227 119.868 326.165 120.235 326.455C121.993 327.842 123.804 329.214 125.615 330.533C125.993 330.808 126.077 331.338 125.801 331.716C125.636 331.944 125.378 332.065 125.116 332.065ZM333.457 327.996C333.206 327.996 332.959 327.885 332.791 327.673C332.501 327.306 332.564 326.773 332.932 326.484C334.688 325.098 336.442 323.658 338.142 322.205C338.498 321.902 339.033 321.943 339.337 322.299C339.64 322.655 339.599 323.189 339.243 323.493C337.525 324.961 335.755 326.414 333.981 327.814C333.826 327.936 333.641 327.996 333.457 327.996ZM114.469 323.661C114.275 323.661 114.079 323.594 113.919 323.458C112.201 321.989 110.487 320.465 108.827 318.93C108.484 318.612 108.463 318.076 108.78 317.733C109.098 317.39 109.634 317.369 109.977 317.686C111.621 319.207 113.318 320.715 115.02 322.17C115.376 322.474 115.418 323.009 115.114 323.365C114.946 323.56 114.709 323.661 114.469 323.661ZM343.759 319.195C343.531 319.195 343.304 319.103 343.137 318.923C342.819 318.579 342.84 318.043 343.184 317.726C344.827 316.208 346.463 314.635 348.047 313.052C348.379 312.721 348.915 312.721 349.245 313.052C349.576 313.383 349.576 313.92 349.245 314.25C347.645 315.849 345.993 317.437 344.334 318.97C344.171 319.12 343.964 319.195 343.759 319.195ZM104.515 314.456C104.299 314.456 104.082 314.373 103.916 314.208C102.318 312.61 100.73 310.958 99.1948 309.299C98.8771 308.955 98.8981 308.419 99.2415 308.102C99.5848 307.784 100.121 307.805 100.438 308.148C101.959 309.792 103.532 311.428 105.114 313.01C105.445 313.341 105.445 313.877 105.114 314.208C104.949 314.373 104.732 314.456 104.515 314.456ZM353.347 309.614C353.141 309.614 352.935 309.539 352.772 309.388C352.429 309.07 352.408 308.534 352.726 308.191C354.247 306.548 355.756 304.852 357.212 303.15C357.516 302.795 358.051 302.753 358.406 303.057C358.762 303.361 358.803 303.896 358.499 304.252C357.029 305.969 355.505 307.682 353.969 309.342C353.802 309.522 353.575 309.614 353.347 309.614ZM95.3134 304.507C95.0743 304.507 94.8367 304.406 94.6692 304.21C93.2003 302.492 91.7461 300.722 90.3464 298.95C90.0565 298.583 90.1192 298.05 90.4863 297.76C90.8535 297.47 91.3861 297.533 91.676 297.9C93.0619 299.655 94.5022 301.408 95.9567 303.109C96.2607 303.465 96.2189 303.999 95.8634 304.303C95.7039 304.44 95.5082 304.507 95.3134 304.507ZM362.163 299.309C361.979 299.309 361.794 299.25 361.638 299.127C361.271 298.837 361.209 298.304 361.499 297.937C362.887 296.18 364.26 294.371 365.579 292.559C365.854 292.181 366.384 292.097 366.762 292.373C367.141 292.648 367.224 293.178 366.948 293.556C365.616 295.386 364.23 297.213 362.828 298.987C362.661 299.199 362.413 299.309 362.163 299.309ZM86.919 293.875C86.6573 293.875 86.3993 293.754 86.2334 293.526C84.904 291.7 83.5929 289.823 82.3364 287.947C82.0762 287.559 82.1802 287.032 82.5688 286.772C82.9574 286.512 83.4836 286.616 83.7439 287.004C84.9881 288.862 86.2864 290.721 87.603 292.529C87.8783 292.907 87.7948 293.437 87.4168 293.712C87.2663 293.822 87.0919 293.875 86.919 293.875ZM370.149 288.343C369.987 288.343 369.823 288.297 369.679 288.2C369.29 287.939 369.186 287.413 369.446 287.024C370.695 285.161 371.922 283.249 373.095 281.341C373.34 280.942 373.861 280.818 374.26 281.063C374.659 281.308 374.783 281.829 374.538 282.228C373.354 284.155 372.114 286.086 370.854 287.967C370.69 288.211 370.422 288.343 370.149 288.343ZM79.3843 282.625C79.0997 282.625 78.8218 282.482 78.6619 282.222C77.48 280.298 76.3204 278.325 75.2154 276.358C74.9863 275.95 75.1313 275.433 75.5392 275.204C75.9471 274.975 76.4634 275.12 76.6926 275.528C77.7868 277.476 78.9349 279.43 80.1054 281.335C80.3502 281.733 80.2257 282.255 79.8271 282.5C79.6887 282.585 79.5356 282.625 79.3843 282.625ZM377.256 276.779C377.115 276.779 376.973 276.744 376.841 276.67C376.434 276.441 376.289 275.925 376.518 275.517C377.616 273.562 378.689 271.558 379.709 269.562C379.922 269.145 380.432 268.98 380.849 269.193C381.266 269.406 381.431 269.916 381.218 270.332C380.188 272.349 379.104 274.372 377.995 276.347C377.84 276.623 377.552 276.779 377.256 276.779ZM72.7575 270.827C72.4495 270.827 72.1525 270.658 72.0025 270.365C70.976 268.357 69.9754 266.3 69.0287 264.253C68.8323 263.828 69.0174 263.325 69.4419 263.128C69.8668 262.932 70.37 263.117 70.5662 263.542C71.5036 265.569 72.4944 267.605 73.5109 269.594C73.7238 270.011 73.5588 270.521 73.1422 270.734C73.0189 270.797 72.8871 270.827 72.7575 270.827ZM383.433 264.686C383.314 264.686 383.193 264.661 383.078 264.608C382.653 264.411 382.468 263.908 382.664 263.483C383.606 261.446 384.519 259.363 385.378 257.291C385.557 256.859 386.052 256.654 386.484 256.834C386.917 257.013 387.121 257.508 386.942 257.94C386.075 260.032 385.153 262.136 384.202 264.194C384.059 264.503 383.753 264.686 383.433 264.686ZM67.0816 258.552C66.7495 258.552 66.4343 258.356 66.299 258.03C65.4341 255.948 64.599 253.821 63.8174 251.707C63.655 251.268 63.8791 250.781 64.3178 250.619C64.7566 250.457 65.2437 250.68 65.4061 251.119C66.1803 253.212 67.007 255.318 67.8635 257.38C68.0429 257.812 67.8381 258.308 67.4062 258.487C67.2998 258.531 67.1898 258.552 67.0816 258.552ZM388.638 252.135C388.541 252.135 388.442 252.118 388.345 252.083C387.906 251.921 387.682 251.434 387.844 250.995C388.621 248.888 389.367 246.738 390.059 244.603C390.204 244.158 390.682 243.915 391.127 244.059C391.572 244.204 391.815 244.681 391.671 245.126C390.971 247.282 390.218 249.454 389.433 251.581C389.307 251.924 388.983 252.135 388.638 252.135ZM62.3857 245.857C62.0287 245.857 61.697 245.63 61.5804 245.272C60.8805 243.122 60.2142 240.929 59.6001 238.754C59.4729 238.304 59.7349 237.836 60.185 237.709C60.6356 237.581 61.1032 237.844 61.2303 238.294C61.8385 240.448 62.4981 242.619 63.1912 244.748C63.336 245.193 63.0929 245.671 62.648 245.815C62.5611 245.844 62.4727 245.857 62.3857 245.857ZM392.831 239.224C392.755 239.224 392.678 239.214 392.601 239.192C392.15 239.065 391.888 238.598 392.015 238.147C392.621 235.993 393.192 233.796 393.713 231.619C393.822 231.164 394.279 230.883 394.734 230.992C395.189 231.101 395.469 231.558 395.361 232.013C394.835 234.212 394.258 236.43 393.646 238.606C393.54 238.98 393.201 239.224 392.831 239.224ZM58.702 232.812C58.3193 232.812 57.9724 232.551 57.8791 232.162C57.3514 229.965 56.8606 227.726 56.42 225.508C56.3288 225.049 56.6269 224.603 57.0858 224.512C57.5451 224.421 57.9905 224.719 58.0816 225.178C58.5179 227.374 59.0039 229.591 59.5263 231.767C59.6355 232.222 59.3552 232.679 58.9004 232.788C58.8341 232.804 58.7675 232.812 58.702 232.812ZM395.984 226.04C395.929 226.04 395.874 226.035 395.818 226.024C395.359 225.933 395.061 225.488 395.152 225.029C395.586 222.835 395.982 220.601 396.33 218.387C396.402 217.925 396.837 217.61 397.298 217.682C397.76 217.754 398.076 218.188 398.003 218.65C397.652 220.885 397.252 223.142 396.814 225.357C396.734 225.761 396.38 226.04 395.984 226.04ZM56.0605 219.517C55.651 219.517 55.2908 219.219 55.2248 218.802C54.8722 216.57 54.559 214.3 54.2941 212.054C54.2393 211.589 54.5715 211.168 55.0361 211.113C55.5021 211.059 55.9218 211.391 55.9766 211.855C56.239 214.079 56.5491 216.328 56.8981 218.538C56.971 218.999 56.6557 219.433 56.1937 219.506C56.1489 219.513 56.1043 219.517 56.0605 219.517ZM398.088 212.65C398.055 212.65 398.021 212.648 397.988 212.644C397.523 212.589 397.191 212.169 397.245 211.704C397.505 209.482 397.725 207.224 397.898 204.99C397.935 204.524 398.343 204.175 398.808 204.211C399.275 204.247 399.624 204.655 399.587 205.121C399.412 207.377 399.19 209.658 398.928 211.901C398.877 212.332 398.511 212.65 398.088 212.65ZM54.4723 206.056C54.0345 206.056 53.6636 205.719 53.6286 205.275C53.4521 203.024 53.3173 200.736 53.2281 198.475C53.2096 198.007 53.5735 197.613 54.041 197.595C54.5052 197.575 54.9023 197.94 54.9207 198.408C55.0091 200.648 55.1426 202.913 55.3175 205.142C55.3541 205.609 55.0058 206.016 54.5393 206.053C54.5168 206.055 54.4944 206.056 54.4723 206.056ZM399.136 199.136C399.125 199.136 399.114 199.135 399.103 199.135C398.636 199.117 398.271 198.723 398.289 198.256C398.376 196.023 398.419 193.754 398.419 191.511V191.21C398.418 190.742 398.797 190.363 399.265 190.362C399.732 190.362 400.112 190.74 400.113 191.208V191.511C400.113 193.775 400.069 196.067 399.982 198.321C399.964 198.777 399.589 199.136 399.136 199.136ZM53.9379 192.51C53.4705 192.51 53.0913 192.131 53.0908 191.664V191.51C53.0908 189.299 53.1331 187.059 53.2162 184.853C53.2338 184.386 53.6248 184.02 54.0946 184.039C54.5621 184.057 54.9267 184.45 54.9091 184.917C54.8267 187.101 54.7849 189.32 54.7849 191.511V191.662C54.7854 192.129 54.4056 192.509 53.9379 192.51C53.9381 192.51 53.9375 192.51 53.9379 192.51ZM399.123 185.278C398.671 185.278 398.296 184.921 398.277 184.465C398.187 182.227 398.052 179.962 397.875 177.731C397.838 177.265 398.186 176.857 398.652 176.82C399.118 176.784 399.527 177.131 399.564 177.597C399.742 179.85 399.879 182.137 399.97 184.397C399.989 184.865 399.625 185.259 399.158 185.278C399.146 185.278 399.135 185.278 399.123 185.278ZM54.4505 178.965C54.4287 178.965 54.4069 178.964 54.3847 178.963C53.9183 178.927 53.5691 178.52 53.605 178.053C53.7782 175.796 53.9981 173.515 54.2586 171.273C54.3126 170.808 54.733 170.476 55.1977 170.529C55.6623 170.583 55.9953 171.004 55.9413 171.468C55.6834 173.689 55.4656 175.948 55.2941 178.183C55.2601 178.627 54.8889 178.965 54.4505 178.965ZM398.05 171.766C397.627 171.766 397.261 171.449 397.21 171.019C396.946 168.795 396.634 166.547 396.283 164.337C396.209 163.876 396.524 163.441 396.986 163.368C397.449 163.295 397.882 163.61 397.956 164.072C398.31 166.303 398.625 168.573 398.892 170.819C398.947 171.283 398.615 171.705 398.151 171.76C398.117 171.764 398.083 171.766 398.05 171.766ZM56.0152 165.501C55.9717 165.501 55.9276 165.498 55.8834 165.491C55.4213 165.418 55.1051 164.985 55.1772 164.523C55.5262 162.288 55.9244 160.031 56.3608 157.814C56.4511 157.355 56.896 157.056 57.3555 157.147C57.8144 157.237 58.1133 157.683 58.0229 158.142C57.5909 160.337 57.1966 162.572 56.8509 164.785C56.7857 165.202 56.4253 165.501 56.0152 165.501ZM395.923 158.379C395.527 158.379 395.174 158.101 395.093 157.698C394.655 155.503 394.167 153.286 393.642 151.11C393.533 150.656 393.813 150.198 394.267 150.089C394.722 149.979 395.18 150.259 395.289 150.714C395.819 152.911 396.312 155.149 396.754 157.366C396.846 157.825 396.548 158.271 396.089 158.363C396.034 158.374 395.978 158.379 395.923 158.379ZM58.6327 152.201C58.5677 152.201 58.5017 152.194 58.4357 152.178C57.9807 152.07 57.6996 151.613 57.8081 151.158C58.3319 148.959 58.9071 146.74 59.5173 144.563C59.6437 144.113 60.1111 143.85 60.5616 143.976C61.012 144.102 61.2747 144.57 61.1485 145.02C60.544 147.176 59.9747 149.373 59.456 151.55C59.3633 151.939 59.0159 152.201 58.6327 152.201ZM392.747 145.202C392.378 145.202 392.038 144.958 391.933 144.585C391.323 142.433 390.662 140.262 389.966 138.133C389.821 137.688 390.064 137.21 390.509 137.065C390.953 136.92 391.431 137.162 391.577 137.607C392.279 139.757 392.947 141.95 393.563 144.124C393.69 144.574 393.429 145.042 392.979 145.169C392.902 145.191 392.824 145.202 392.747 145.202ZM62.2922 139.149C62.2058 139.149 62.1179 139.136 62.0312 139.108C61.5862 138.964 61.3421 138.486 61.4862 138.041C62.1842 135.884 62.9351 133.711 63.7181 131.584C63.8797 131.145 64.3669 130.92 64.8056 131.082C65.2446 131.243 65.4695 131.73 65.308 132.169C64.5327 134.276 63.7891 136.427 63.0979 138.562C62.9819 138.921 62.6496 139.149 62.2922 139.149ZM388.54 132.316C388.196 132.316 387.873 132.104 387.746 131.763C386.97 129.67 386.141 127.564 385.283 125.504C385.103 125.072 385.308 124.577 385.74 124.397C386.171 124.217 386.667 124.421 386.847 124.853C387.713 126.934 388.55 129.06 389.334 131.174C389.497 131.613 389.273 132.1 388.835 132.263C388.738 132.298 388.638 132.316 388.54 132.316ZM66.9858 126.394C66.878 126.394 66.7683 126.373 66.6624 126.329C66.2301 126.15 66.0247 125.655 66.2035 125.223C67.0694 123.13 67.9893 121.025 68.938 118.967C69.1337 118.542 69.6368 118.356 70.0617 118.552C70.4865 118.748 70.6722 119.251 70.4764 119.676C69.5371 121.714 68.6262 123.798 67.7687 125.87C67.6339 126.197 67.3184 126.394 66.9858 126.394ZM383.344 119.836C383.024 119.836 382.718 119.655 382.575 119.345C381.635 117.319 380.643 115.283 379.625 113.295C379.411 112.879 379.576 112.369 379.992 112.155C380.409 111.942 380.919 112.107 381.132 112.523C382.161 114.531 383.163 116.586 384.112 118.633C384.308 119.057 384.124 119.561 383.699 119.758C383.584 119.811 383.463 119.836 383.344 119.836ZM72.6709 114.057C72.5415 114.057 72.4102 114.028 72.287 113.965C71.8703 113.752 71.7045 113.242 71.9171 112.826C72.9444 110.81 74.0272 108.785 75.135 106.808C75.3637 106.4 75.8799 106.255 76.288 106.484C76.696 106.712 76.8414 107.228 76.6128 107.637C75.5158 109.594 74.4438 111.599 73.4263 113.595C73.2767 113.888 72.9792 114.057 72.6709 114.057ZM377.177 107.796C376.881 107.796 376.594 107.64 376.438 107.364C375.342 105.416 374.192 103.463 373.02 101.56C372.775 101.162 372.899 100.64 373.298 100.395C373.696 100.15 374.218 100.274 374.463 100.672C375.646 102.594 376.807 104.566 377.915 106.533C378.144 106.941 378 107.457 377.592 107.687C377.46 107.761 377.318 107.796 377.177 107.796ZM79.3075 102.214C79.1566 102.214 79.0037 102.174 78.8656 102.089C78.4669 101.844 78.3419 101.323 78.5863 100.924C79.7697 98.9947 81.0075 97.0626 82.2655 95.1815C82.5257 94.7925 83.0515 94.6882 83.4406 94.9482C83.8294 95.2084 83.9338 95.7343 83.6738 96.1233C82.428 97.9861 81.2022 99.8993 80.0305 101.81C79.8706 102.07 79.5924 102.214 79.3075 102.214ZM370.081 96.2687C369.808 96.2687 369.54 96.1371 369.377 95.8936C368.131 94.0378 366.831 92.1801 365.513 90.3723C365.237 89.9944 365.32 89.4645 365.698 89.1888C366.076 88.9131 366.606 88.9962 366.881 89.374C368.213 91.1997 369.526 93.0755 370.783 94.9496C371.044 95.338 370.94 95.8642 370.552 96.125C370.407 96.2222 370.243 96.2687 370.081 96.2687ZM86.8506 90.9341C86.6778 90.9341 86.5036 90.8814 86.3532 90.7721C85.9748 90.497 85.8911 89.9673 86.1661 89.5889C87.4958 87.76 88.8805 85.9316 90.2819 84.1545C90.5714 83.7872 91.1041 83.7242 91.4715 84.0138C91.8387 84.3035 91.9018 84.8361 91.612 85.2034C90.2243 86.9633 88.8531 88.7738 87.5363 90.5849C87.3706 90.813 87.1124 90.9341 86.8506 90.9341ZM362.1 85.3263C361.85 85.3263 361.602 85.2161 361.435 85.0048C360.047 83.2501 358.605 81.4987 357.15 79.7995C356.845 79.4442 356.887 78.9095 357.242 78.6052C357.597 78.3009 358.132 78.3422 358.436 78.6976C359.906 80.4135 361.362 82.1819 362.763 83.9538C363.054 84.3207 362.992 84.8534 362.625 85.1437C362.469 85.2667 362.284 85.3263 362.1 85.3263ZM95.2498 80.2834C95.0552 80.2834 94.8597 80.2167 94.7002 80.0805C94.3444 79.7767 94.3023 79.242 94.6061 78.8863C96.0739 77.1679 97.5965 75.4539 99.1318 73.7922C99.4492 73.4485 99.9851 73.4272 100.329 73.7448C100.672 74.0622 100.693 74.5981 100.376 74.9417C98.8556 76.5875 97.3478 78.2847 95.8944 79.9866C95.7267 80.1827 95.4891 80.2834 95.2498 80.2834ZM353.285 75.0355C353.058 75.0355 352.831 74.9443 352.664 74.7642C351.141 73.1209 349.566 71.4865 347.983 69.9068C347.652 69.5762 347.652 69.0399 347.982 68.7089C348.313 68.3777 348.849 68.3773 349.18 68.7078C350.778 70.3031 352.368 71.9533 353.906 73.6128C354.224 73.956 354.204 74.4918 353.861 74.8097C353.698 74.9608 353.491 75.0355 353.285 75.0355ZM104.451 70.3252C104.235 70.3252 104.018 70.2426 103.852 70.0774C103.522 69.7468 103.521 69.2105 103.852 68.8796C105.45 67.2803 107.101 65.691 108.759 64.1558C109.102 63.8381 109.638 63.8588 109.956 64.2019C110.274 64.5452 110.253 65.0812 109.91 65.3989C108.268 66.9192 106.633 68.493 105.05 70.0768C104.885 70.2423 104.668 70.3252 104.451 70.3252ZM343.691 65.4591C343.485 65.4591 343.279 65.3848 343.117 65.2345C341.472 63.7158 339.774 62.2086 338.07 60.7549C337.714 60.4512 337.672 59.9166 337.975 59.5607C338.279 59.2047 338.814 59.1627 339.169 59.4662C340.89 60.9343 342.605 62.4562 344.266 63.9897C344.609 64.307 344.631 64.843 344.314 65.1866C344.146 65.3676 343.919 65.4591 343.691 65.4591ZM114.397 61.1183C114.158 61.1183 113.92 61.0178 113.753 60.8221C113.449 60.4667 113.49 59.9319 113.846 59.6278C115.563 58.1578 117.333 56.7026 119.104 55.3028C119.471 55.0127 120.004 55.0752 120.294 55.4423C120.584 55.8093 120.521 56.342 120.154 56.632C118.4 58.0182 116.648 59.4591 114.947 60.915C114.787 61.0515 114.592 61.1183 114.397 61.1183ZM333.374 56.6567C333.191 56.6567 333.006 56.5973 332.851 56.4749C331.092 55.089 329.281 53.7184 327.467 52.4016C327.089 52.1267 327.005 51.5971 327.28 51.2185C327.555 50.8401 328.084 50.756 328.463 51.031C330.294 52.3607 332.123 53.7447 333.899 55.1444C334.267 55.4338 334.33 55.9665 334.04 56.3339C333.873 56.546 333.625 56.6567 333.374 56.6567ZM125.025 52.7191C124.764 52.7191 124.506 52.5984 124.34 52.3708C124.065 51.9927 124.148 51.4629 124.526 51.1873C126.352 49.8564 128.229 48.5445 130.103 47.2878C130.492 47.0275 131.018 47.1314 131.278 47.5197C131.539 47.9083 131.435 48.4345 131.046 48.695C129.19 49.9393 127.332 51.2385 125.523 52.5564C125.373 52.6662 125.198 52.7191 125.025 52.7191ZM322.397 48.6841C322.236 48.6841 322.072 48.6379 321.928 48.5412C320.063 47.2958 318.15 46.0708 316.239 44.9005C315.84 44.6561 315.715 44.1346 315.96 43.7357C316.204 43.337 316.725 43.2116 317.124 43.456C319.054 44.638 320.986 45.875 322.869 47.1326C323.258 47.3925 323.362 47.9185 323.103 48.3075C322.939 48.5519 322.671 48.6841 322.397 48.6841ZM136.272 45.1793C135.987 45.1793 135.71 45.0361 135.55 44.776C135.305 44.3776 135.429 43.8558 135.827 43.6107C137.75 42.428 139.723 41.2675 141.69 40.1617C142.098 39.9325 142.614 40.0772 142.843 40.4849C143.072 40.8925 142.928 41.4091 142.52 41.6384C140.572 42.7334 138.619 43.8826 136.715 45.0537C136.576 45.1388 136.423 45.1793 136.272 45.1793ZM310.824 41.5934C310.684 41.5934 310.542 41.5587 310.411 41.4853C308.454 40.3895 306.449 39.3183 304.451 38.3014C304.035 38.0893 303.869 37.5791 304.081 37.1623C304.293 36.7454 304.803 36.5793 305.22 36.7918C307.237 37.8187 309.262 38.9005 311.239 40.0072C311.647 40.2357 311.792 40.7519 311.564 41.16C311.409 41.4372 311.121 41.5934 310.824 41.5934ZM148.067 38.5476C147.76 38.5476 147.463 38.3792 147.313 38.0862C147.1 37.6697 147.264 37.1595 147.681 36.9463C149.689 35.919 151.745 34.9175 153.792 33.9698C154.217 33.7733 154.72 33.9581 154.917 34.3826C155.113 34.8072 154.928 35.3106 154.504 35.5071C152.477 36.4454 150.441 37.437 148.453 38.4544C148.329 38.5176 148.197 38.5476 148.067 38.5476ZM298.723 35.4323C298.605 35.4323 298.484 35.4073 298.369 35.3544C296.331 34.4159 294.246 33.506 292.174 32.6495C291.741 32.4709 291.536 31.9756 291.714 31.5433C291.893 31.1109 292.388 30.9052 292.821 31.0839C294.914 31.9489 297.019 32.8679 299.078 33.8157C299.503 34.0113 299.689 34.5144 299.493 34.9393C299.35 35.2494 299.044 35.4323 298.723 35.4323ZM160.339 32.8666C160.007 32.8666 159.692 32.6702 159.557 32.3447C159.377 31.9127 159.581 31.4169 160.013 31.2373C162.094 30.3718 164.221 29.5359 166.335 28.7529C166.774 28.5903 167.261 28.8142 167.424 29.2528C167.586 29.6915 167.362 30.1789 166.924 30.3413C164.83 31.1166 162.724 31.9445 160.664 32.8014C160.558 32.8456 160.447 32.8666 160.339 32.8666ZM286.166 30.2436C286.069 30.2436 285.97 30.2269 285.874 30.1913C283.767 29.4171 281.616 28.6745 279.479 27.9842C279.034 27.8403 278.79 27.3629 278.934 26.9177C279.077 26.4727 279.555 26.2285 280 26.3722C282.158 27.0694 284.331 27.8194 286.458 28.6013C286.897 28.7627 287.122 29.2495 286.961 29.6886C286.835 30.0312 286.511 30.2436 286.166 30.2436ZM173.032 28.1656C172.675 28.1656 172.343 27.9385 172.227 27.5809C172.082 27.1361 172.325 26.6581 172.77 26.513C174.919 25.8121 177.112 25.1449 179.287 24.5297C179.737 24.4028 180.205 24.6641 180.333 25.1143C180.46 25.5645 180.198 26.0325 179.748 26.1598C177.595 26.7689 175.423 27.4296 173.295 28.1236C173.207 28.1521 173.119 28.1656 173.032 28.1656ZM273.249 26.0691C273.173 26.0691 273.097 26.0589 273.02 26.0375C270.866 25.4343 268.669 24.8659 266.49 24.3479C266.035 24.2398 265.753 23.7831 265.862 23.328C265.97 22.8727 266.427 22.5915 266.882 22.6999C269.082 23.223 271.301 23.7971 273.477 24.4062C273.927 24.5323 274.19 24.9998 274.064 25.4502C273.96 25.8244 273.619 26.0691 273.249 26.0691ZM186.075 24.4768C185.693 24.4768 185.346 24.216 185.252 23.8277C185.143 23.3729 185.423 22.9154 185.878 22.8061C188.075 22.2776 190.313 21.7858 192.531 21.3443C192.99 21.2528 193.436 21.5508 193.527 22.0096C193.619 22.4685 193.321 22.9145 192.862 23.0058C190.666 23.443 188.449 23.9301 186.274 24.4533C186.207 24.4693 186.141 24.4768 186.075 24.4768ZM260.062 22.9338C260.008 22.9338 259.953 22.9287 259.898 22.9178C257.702 22.4866 255.466 22.0932 253.254 21.7489C252.792 21.6769 252.476 21.2439 252.548 20.7816C252.62 20.3193 253.054 20.003 253.515 20.075C255.749 20.4228 258.006 20.82 260.224 21.2555C260.683 21.3456 260.982 21.7909 260.892 22.2498C260.813 22.6537 260.459 22.9338 260.062 22.9338ZM199.368 21.8295C198.959 21.8295 198.599 21.5322 198.533 21.115C198.46 20.6529 198.775 20.2191 199.237 20.1458C201.468 19.7923 203.738 19.4783 205.984 19.2124C206.45 19.1575 206.87 19.4894 206.925 19.9539C206.98 20.4184 206.648 20.8396 206.184 20.8946C203.96 21.1579 201.712 21.4689 199.502 21.819C199.457 21.8261 199.412 21.8295 199.368 21.8295ZM246.669 20.8477C246.636 20.8477 246.603 20.8457 246.57 20.8419C244.349 20.5849 242.09 20.368 239.855 20.1978C239.389 20.1621 239.04 19.7552 239.075 19.2888C239.111 18.8223 239.52 18.4729 239.984 18.5087C242.24 18.6807 244.522 18.8996 246.765 19.1592C247.23 19.213 247.563 19.6333 247.509 20.098C247.459 20.5295 247.093 20.8477 246.669 20.8477ZM212.829 20.2353C212.391 20.2353 212.02 19.8987 211.985 19.4549C211.949 18.9886 212.297 18.5807 212.763 18.5439C215.015 18.3663 217.303 18.2304 219.563 18.1403C220.03 18.1199 220.425 18.4854 220.443 18.9528C220.462 19.4202 220.098 19.8143 219.631 19.8329C217.392 19.9223 215.126 20.0567 212.896 20.2328C212.874 20.2346 212.851 20.2353 212.829 20.2353ZM233.153 19.816C233.142 19.816 233.132 19.8158 233.121 19.8154C230.962 19.7349 228.768 19.6941 226.602 19.6941H226.376H226.375C225.908 19.6941 225.529 19.3158 225.528 18.8484C225.527 18.3806 225.906 18.0009 226.374 18H226.603C228.789 18 231.004 18.0411 233.184 18.1224C233.651 18.1399 234.016 18.533 233.999 19.0004C233.982 19.4573 233.606 19.816 233.153 19.816Z" fill="#52D1BD"/>
<path d="M147.64 88.1314C131.599 71.2427 110.417 60.5285 87.6749 58.2272C74.0446 56.848 59.2946 58.3889 46.4621 66.5725C1.73687 95.0945 7.29772 208.718 56.3359 246.018C95.7935 276.031 142.236 243.673 155.617 230.38C177.359 208.78 174.541 214.202 183.237 209.786C195.675 203.47 202.494 202.787 209.437 202.487C234.276 201.411 264.509 234.623 268.807 268.934C274.123 311.378 236.626 330.567 246.106 356.523C255.695 382.773 305.513 394.535 342.727 384.31C409.81 365.877 472.27 266.011 433.528 191.009C406.566 138.813 336.973 111.018 283.94 133.019C257.631 143.934 256.197 173.91 235.63 174.096C219.197 174.244 210.295 157.203 169.618 111.925C161.587 102.985 154.166 95.0024 147.64 88.1314Z" fill="#ECF7FF"/>
<path opacity="0.25" d="M285.094 198.527C285.094 212.466 279.754 225.163 271.007 234.676C262.13 244.332 249.744 250.711 235.869 251.789C234.483 251.899 233.08 251.954 231.665 251.954C230.319 251.954 228.985 251.904 227.665 251.806C213.71 250.774 201.246 244.38 192.325 234.676C183.578 225.163 178.238 212.466 178.238 198.527C178.238 169.019 202.159 145.098 231.665 145.098C261.173 145.098 285.094 169.019 285.094 198.527Z" fill="#3A7EC1"/>
<path d="M280.033 191.13C280.033 205.069 274.694 217.767 265.946 227.279C257.069 236.935 244.683 243.315 230.808 244.392C229.422 244.503 228.02 244.557 226.605 244.557C225.258 244.557 223.924 244.507 222.605 244.409C208.649 243.377 196.185 236.983 187.265 227.279C178.517 217.767 173.178 205.069 173.178 191.13C173.178 161.622 197.098 137.701 226.605 137.701C256.113 137.701 280.033 161.622 280.033 191.13Z" fill="#D4E6FC"/>
<path d="M227 150C216.823 150 208.543 158.28 208.543 168.457C208.543 178.634 216.823 186.914 227 186.914C237.177 186.914 245.457 178.634 245.457 168.457C245.457 158.28 237.177 150 227 150Z" fill="#3B82F4"/>
<path d="M249.964 198.972C244.911 193.841 238.212 191.016 231.102 191.016H222.898C215.788 191.016 209.089 193.841 204.036 198.972C199.008 204.078 196.238 210.817 196.238 217.949C196.238 219.082 197.156 220 198.289 220H255.711C256.844 220 257.762 219.082 257.762 217.949C257.762 210.817 254.992 204.078 249.964 198.972Z" fill="#3B82F4"/>
<path opacity="0.25" d="M232.513 335.2C214.068 335.2 196.168 331.585 179.309 324.454C163.032 317.569 148.417 307.717 135.87 295.169C123.323 282.622 113.47 268.007 106.585 251.73C99.4544 234.871 95.8389 216.97 95.8389 198.526C95.8389 180.081 99.4544 162.181 106.585 145.322C113.47 129.045 123.322 114.43 135.87 101.882C148.417 89.3351 163.032 79.4824 179.309 72.5979C196.168 65.4671 214.068 61.8516 232.513 61.8516C250.958 61.8516 268.858 65.4671 285.717 72.5979C301.994 79.4824 316.609 89.3351 329.157 101.882C341.704 114.43 351.557 129.045 358.441 145.322C365.572 162.181 369.188 180.081 369.188 198.526C369.188 216.97 365.572 234.871 358.441 251.73C351.557 268.007 341.704 282.622 329.157 295.169C316.609 307.717 301.994 317.569 285.717 324.454C268.858 331.584 250.958 335.2 232.513 335.2ZM232.513 89.9884C172.666 89.9884 123.976 138.678 123.976 198.526C123.976 258.373 172.666 307.063 232.513 307.063C292.361 307.063 341.051 258.373 341.051 198.526C341.051 138.678 292.361 89.9884 232.513 89.9884Z" fill="#3A7EC1"/>
<path d="M226.605 328.186C208.16 328.186 190.26 324.57 173.401 317.439C157.124 310.555 142.509 300.702 129.962 288.154C117.414 275.607 107.561 260.992 100.677 244.715C93.5462 227.856 89.9307 209.956 89.9307 191.511C89.9307 173.066 93.5462 155.166 100.677 138.307C107.561 122.03 117.414 107.415 129.962 94.8678C142.509 82.3205 157.124 72.4678 173.401 65.5833C190.26 58.4525 208.16 54.8369 226.605 54.8369C245.05 54.8369 262.95 58.4525 279.809 65.5833C296.086 72.4678 310.701 82.3205 323.248 94.8678C335.796 107.415 345.648 122.03 352.533 138.307C359.664 155.166 363.279 173.067 363.279 191.511C363.279 209.956 359.664 227.856 352.533 244.715C345.648 260.992 335.796 275.607 323.248 288.154C310.701 300.702 296.086 310.555 279.809 317.439C262.95 324.57 245.05 328.186 226.605 328.186ZM226.605 82.9739C166.757 82.9739 118.067 131.664 118.067 191.511C118.067 251.359 166.757 300.049 226.605 300.049C286.453 300.049 335.142 251.359 335.142 191.511C335.142 131.663 286.453 82.9739 226.605 82.9739Z" fill="#0494FD"/>
<path opacity="0.25" d="M166.489 124.052V194.423C166.489 196.93 164.456 198.963 161.949 198.963H48.1259C45.6188 198.963 43.5859 196.93 43.5859 194.423V124.052C43.5859 121.545 45.6187 119.512 48.1259 119.512H161.949C164.456 119.512 166.489 121.545 166.489 124.052Z" fill="#3A7EC1"/>
<path opacity="0.25" d="M456.469 418H315.877C312.394 418 309.57 415.177 309.57 411.693V229.627C309.57 226.143 312.394 223.32 315.877 223.32H456.469C459.952 223.32 462.776 226.143 462.776 229.627V411.693C462.776 415.177 459.952 418 456.469 418Z" fill="#3A7EC1"/>
<path d="M161.831 117.362V187.732C161.831 190.239 159.798 192.272 157.291 192.272H43.4677C40.9606 192.272 38.9277 190.239 38.9277 187.732V117.362C38.9277 114.855 40.9605 112.822 43.4677 112.822H157.29C159.798 112.822 161.831 114.855 161.831 117.362Z" fill="white"/>
<path d="M79.7626 163.726C85.9372 157.552 85.9372 147.541 79.7626 141.366C73.5881 135.192 63.5772 135.192 57.4027 141.366C51.2281 147.541 51.2281 157.552 57.4027 163.726C63.5772 169.901 73.5881 169.901 79.7626 163.726Z" fill="#ECF3FE"/>
<path d="M75.6961 149.195C76.5581 150.998 76.7218 153.056 76.1555 154.973C75.5891 156.889 74.333 158.528 72.6296 159.572C70.9261 160.617 68.896 160.994 66.9311 160.63C64.9662 160.266 63.2058 159.187 61.9896 157.601C60.7735 156.016 60.1878 154.036 60.3456 152.044C60.5034 150.051 61.3935 148.188 62.8441 146.814C64.2948 145.44 66.2031 144.651 68.2008 144.601C70.1985 144.551 72.144 145.243 73.6617 146.543L75.422 144.782C75.5386 144.665 75.6967 144.599 75.8615 144.599C76.0263 144.599 76.1844 144.665 76.301 144.782C76.4176 144.898 76.483 145.056 76.483 145.221C76.483 145.386 76.4176 145.544 76.301 145.66L68.8467 153.115C68.7301 153.231 68.5721 153.297 68.4072 153.297C68.2424 153.297 68.0843 153.231 67.9677 153.115C67.8512 152.998 67.7857 152.84 67.7857 152.675C67.7857 152.51 67.8512 152.352 67.9677 152.236L70.1201 150.083C69.5368 149.698 68.8403 149.52 68.1435 149.579C67.4466 149.639 66.7902 149.931 66.2804 150.41C65.7706 150.889 65.4374 151.526 65.3346 152.217C65.2318 152.909 65.3655 153.615 65.714 154.222C66.0625 154.828 66.6054 155.299 67.2549 155.558C67.9044 155.818 68.6225 155.85 69.2928 155.651C69.9631 155.451 70.5465 155.032 70.9484 154.459C71.3504 153.887 71.5475 153.196 71.5077 152.497C71.5031 152.416 71.5147 152.334 71.5416 152.257C71.5686 152.18 71.6105 152.109 71.665 152.048C71.7194 151.987 71.7853 151.937 71.8589 151.902C71.9325 151.867 72.0124 151.846 72.094 151.841C72.2587 151.832 72.4204 151.889 72.5435 151.999C72.6044 152.053 72.654 152.119 72.6895 152.193C72.7249 152.266 72.7455 152.346 72.7501 152.428C72.8067 153.416 72.5245 154.394 71.9499 155.2C71.3754 156.006 70.543 156.592 69.5903 156.861C68.6376 157.13 67.6217 157.066 66.7104 156.679C65.7991 156.293 65.0471 155.607 64.5785 154.735C64.11 153.863 63.953 152.857 64.1335 151.883C64.314 150.91 64.8212 150.028 65.5713 149.382C66.3214 148.736 67.2694 148.365 68.2587 148.331C69.2481 148.296 70.2194 148.601 71.0123 149.194L72.7788 147.427C71.4843 146.352 69.8383 145.794 68.1569 145.858C66.4756 145.923 64.8775 146.607 63.6695 147.778C62.4616 148.95 61.729 150.526 61.6125 152.205C61.496 153.883 62.0037 155.546 63.0382 156.873C64.0727 158.2 65.561 159.098 67.2173 159.394C68.8735 159.691 70.581 159.365 72.0116 158.479C73.4423 157.594 74.4953 156.211 74.9684 154.596C75.4415 152.981 75.3013 151.249 74.5749 149.731C74.5038 149.582 74.4947 149.411 74.5496 149.256C74.6045 149.101 74.7189 148.973 74.8676 148.902C75.0163 148.831 75.1871 148.822 75.3425 148.877C75.4979 148.932 75.6251 149.046 75.6961 149.195Z" fill="#0494FD"/>
<path d="M145.726 142.656H96.9684C95.2944 142.656 93.9248 141.286 93.9248 139.612C93.9248 137.938 95.2945 136.568 96.9684 136.568H145.726C147.4 136.568 148.769 137.938 148.769 139.612C148.769 141.286 147.4 142.656 145.726 142.656Z" fill="#ECF3FE"/>
<path d="M145.726 155.591H96.9684C95.2944 155.591 93.9248 154.221 93.9248 152.547C93.9248 150.873 95.2945 149.504 96.9684 149.504H145.726C147.4 149.504 148.769 150.873 148.769 152.547C148.769 154.221 147.4 155.591 145.726 155.591Z" fill="#ECF3FE"/>
<path d="M145.726 168.526H96.9684C95.2944 168.526 93.9248 167.156 93.9248 165.482C93.9248 163.808 95.2945 162.438 96.9684 162.438H145.726C147.4 162.438 148.769 163.808 148.769 165.482C148.769 167.156 147.4 168.526 145.726 168.526Z" fill="#ECF3FE"/>
<path d="M161.83 117.362V121.58H38.9277V117.362C38.9277 114.855 40.9605 112.822 43.4677 112.822H157.29C159.797 112.822 161.83 114.855 161.83 117.362Z" fill="#D4E6FC"/>
<path d="M156.683 118.411C157.351 117.743 157.351 116.659 156.683 115.991C156.014 115.322 154.931 115.322 154.262 115.991C153.594 116.659 153.594 117.743 154.262 118.411C154.931 119.08 156.014 119.08 156.683 118.411Z" fill="#3B82F4"/>
<path d="M150.576 118.411C151.245 117.743 151.245 116.659 150.576 115.991C149.908 115.322 148.824 115.322 148.156 115.991C147.487 116.659 147.487 117.743 148.156 118.411C148.824 119.08 149.908 119.08 150.576 118.411Z" fill="#3B82F4"/>
<path d="M144.93 117.613C145.147 116.693 144.578 115.771 143.658 115.554C142.738 115.336 141.816 115.906 141.598 116.826C141.381 117.746 141.951 118.668 142.871 118.885C143.791 119.103 144.713 118.533 144.93 117.613Z" fill="#3B82F4"/>
<path d="M450.488 412.32H309.897C306.413 412.32 303.59 409.497 303.59 406.014V223.947C303.59 220.464 306.413 217.64 309.897 217.64H450.488C453.972 217.64 456.795 220.464 456.795 223.947V406.014C456.795 409.497 453.972 412.32 450.488 412.32Z" fill="white"/>
<path d="M370.19 236.207H321.219C319.655 236.207 318.388 234.94 318.388 233.377C318.388 231.813 319.655 230.546 321.219 230.546H370.19C371.753 230.546 373.02 231.813 373.02 233.377C373.02 234.94 371.753 236.207 370.19 236.207Z" fill="#ECF3FE"/>
<path d="M395.6 250.794H321.219C319.655 250.794 318.388 249.526 318.388 247.963C318.388 246.399 319.655 245.132 321.219 245.132H395.6C397.164 245.132 398.431 246.399 398.431 247.963C398.431 249.526 397.164 250.794 395.6 250.794Z" fill="#ECF3FE"/>
<path d="M395.6 265.38H321.219C319.655 265.38 318.388 264.113 318.388 262.549C318.388 260.986 319.655 259.718 321.219 259.718H395.6C397.164 259.718 398.431 260.986 398.431 262.549C398.431 264.113 397.164 265.38 395.6 265.38Z" fill="#ECF3FE"/>
<path d="M425.459 305.106H351.077C349.514 305.106 348.246 303.839 348.246 302.275C348.246 300.712 349.514 299.444 351.077 299.444H425.459C427.022 299.444 428.289 300.712 428.289 302.275C428.289 303.839 427.022 305.106 425.459 305.106Z" fill="#ECF3FE"/>
<path d="M414.76 396.789H351.077C349.514 396.789 348.246 395.522 348.246 393.958C348.246 392.395 349.514 391.127 351.077 391.127H414.76C416.323 391.127 417.591 392.395 417.591 393.958C417.591 395.522 416.323 396.789 414.76 396.789Z" fill="#ECF3FE"/>
<path d="M392.742 347.56H351.077C349.514 347.56 348.246 346.292 348.246 344.729C348.246 343.165 349.514 341.898 351.077 341.898H392.742C394.306 341.898 395.573 343.165 395.573 344.729C395.573 346.292 394.306 347.56 392.742 347.56Z" fill="#52D1BD"/>
<path d="M440.558 347.56H422.579C421.016 347.56 419.748 346.292 419.748 344.729C419.748 343.165 421.016 341.898 422.579 341.898H440.558C442.122 341.898 443.389 343.165 443.389 344.729C443.389 346.292 442.122 347.56 440.558 347.56Z" fill="#52D1BD"/>
<path d="M442.9 283.641H317.485C317.017 283.641 316.638 283.261 316.638 282.794C316.638 282.326 317.017 281.947 317.485 281.947H442.9C443.367 281.947 443.747 282.326 443.747 282.794C443.747 283.261 443.367 283.641 442.9 283.641Z" fill="#ECF3FE"/>
<path d="M403.169 283.641H357.215C356.747 283.641 356.368 283.261 356.368 282.794C356.368 282.326 356.747 281.947 357.215 281.947H403.169C403.637 281.947 404.016 282.326 404.016 282.794C404.016 283.261 403.637 283.641 403.169 283.641Z" fill="#3B82F4"/>
<path d="M342.715 276.759C343.105 275.109 342.083 273.455 340.432 273.065C338.782 272.676 337.128 273.698 336.739 275.348C336.349 276.998 337.371 278.652 339.021 279.042C340.672 279.431 342.325 278.409 342.715 276.759Z" fill="#ECF3FE"/>
<path d="M383.186 276.761C383.575 275.111 382.553 273.457 380.903 273.067C379.253 272.678 377.599 273.699 377.209 275.35C376.82 277 377.842 278.654 379.492 279.043C381.142 279.433 382.796 278.411 383.186 276.761Z" fill="#3B82F4"/>
<path d="M423.655 276.763C424.045 275.113 423.023 273.459 421.373 273.069C419.723 272.68 418.069 273.701 417.679 275.352C417.29 277.002 418.311 278.656 419.962 279.045C421.612 279.435 423.266 278.413 423.655 276.763Z" fill="#ECF3FE"/>
<path d="M331.867 303.757C331.516 303.757 331.231 303.473 331.231 303.122V301.428C331.231 301.077 331.516 300.793 331.867 300.793C332.218 300.793 332.502 301.077 332.502 301.428V303.122C332.502 303.473 332.218 303.757 331.867 303.757Z" fill="#D4E6FC"/>
<path d="M331.867 398.835C331.516 398.835 331.231 398.551 331.231 398.2V396.506C331.231 396.155 331.516 395.871 331.867 395.871C332.218 395.871 332.502 396.155 332.502 396.506V398.2C332.502 398.551 332.218 398.835 331.867 398.835Z" fill="#D4E6FC"/>
<path d="M332.151 311.804C337.414 311.804 341.68 307.538 341.68 302.275C341.68 297.012 337.414 292.746 332.151 292.746C326.888 292.746 322.622 297.012 322.622 302.275C322.622 307.538 326.888 311.804 332.151 311.804Z" fill="#3B82F4"/>
<mask id="mask0_2486_9135" style="mask-type:luminance" maskUnits="userSpaceOnUse" x="325" y="296" width="14" height="13">
<path d="M338.182 296.084H325.877V308.389H338.182V296.084Z" fill="white"/>
</mask>
<g mask="url(#mask0_2486_9135)">
<path d="M337.205 302.095H336.628C336.44 302.095 336.257 302.158 336.107 302.272C335.957 302.387 335.849 302.547 335.799 302.729L332.86 301.77C332.635 301.697 332.396 301.684 332.165 301.731C331.934 301.778 331.719 301.884 331.541 302.039L330.666 302.802H328.281C328.244 302.604 328.139 302.425 327.984 302.295C327.829 302.166 327.633 302.095 327.431 302.095H326.854C326.625 302.095 326.405 302.186 326.243 302.349C326.081 302.511 325.99 302.731 325.989 302.96V306.806C325.99 307.035 326.081 307.255 326.243 307.417C326.405 307.579 326.625 307.67 326.854 307.671H327.431C327.605 307.67 327.775 307.618 327.918 307.519C328.062 307.421 328.172 307.282 328.235 307.12L330.936 308.194C331.171 308.289 331.427 308.317 331.676 308.274C331.926 308.231 332.158 308.12 332.348 307.953L332.885 307.48L335.82 307.105C335.881 307.27 335.991 307.413 336.135 307.515C336.28 307.616 336.452 307.67 336.628 307.671H337.205C337.435 307.67 337.655 307.579 337.817 307.417C337.979 307.255 338.07 307.035 338.07 306.806V302.96C338.07 302.731 337.979 302.511 337.817 302.349C337.655 302.186 337.435 302.095 337.205 302.095ZM327.72 306.806C327.72 306.882 327.689 306.955 327.635 307.009C327.581 307.063 327.508 307.094 327.431 307.094H326.854C326.778 307.094 326.705 307.063 326.651 307.009C326.597 306.955 326.566 306.882 326.566 306.806V302.96C326.566 302.884 326.597 302.81 326.651 302.756C326.705 302.702 326.778 302.672 326.854 302.672H327.431C327.508 302.672 327.581 302.702 327.635 302.756C327.689 302.81 327.72 302.884 327.72 302.96V306.806ZM332.117 305.506L333.462 306.187C333.36 306.302 333.247 306.407 333.125 306.501C333.08 306.467 333.166 306.519 331.58 305.714C331.546 305.696 331.509 305.686 331.471 305.683C331.434 305.68 331.395 305.684 331.359 305.696C331.323 305.708 331.29 305.726 331.261 305.751C331.232 305.776 331.208 305.806 331.191 305.84C331.174 305.874 331.163 305.911 331.161 305.949C331.158 305.987 331.163 306.025 331.175 306.061C331.186 306.097 331.205 306.13 331.23 306.159C331.255 306.188 331.286 306.211 331.32 306.228L332.663 306.908L332.314 307.215C332.276 307.189 332.191 307.151 330.783 306.436C330.749 306.418 330.712 306.408 330.674 306.405C330.636 306.402 330.598 306.406 330.562 306.418C330.526 306.43 330.492 306.448 330.463 306.473C330.435 306.498 330.411 306.528 330.394 306.562C330.377 306.596 330.366 306.633 330.363 306.671C330.361 306.709 330.365 306.747 330.377 306.783C330.389 306.819 330.408 306.852 330.433 306.881C330.458 306.91 330.488 306.933 330.522 306.95L331.832 307.613C331.729 307.671 331.614 307.706 331.496 307.714C331.379 307.722 331.26 307.703 331.151 307.658L328.297 306.523V303.379H330.005L329.712 303.635C329.614 303.72 329.538 303.827 329.489 303.946C329.439 304.066 329.419 304.195 329.428 304.324C329.438 304.453 329.477 304.578 329.544 304.69C329.61 304.801 329.701 304.895 329.81 304.964L330.053 305.12C330.206 305.217 330.386 305.262 330.567 305.248C330.748 305.234 330.919 305.161 331.055 305.042L331.94 304.258L333.269 305.053C333.371 305.114 333.458 305.197 333.522 305.297C333.586 305.397 333.625 305.511 333.637 305.629L332.377 304.992C332.309 304.958 332.23 304.952 332.157 304.976C332.085 305 332.025 305.051 331.99 305.119C331.956 305.187 331.95 305.266 331.974 305.339C331.997 305.412 332.049 305.472 332.117 305.506ZM335.763 306.531L333.659 306.8L333.763 306.709C333.921 306.57 334.045 306.396 334.123 306.2C334.201 306.004 334.232 305.793 334.213 305.583C334.194 305.373 334.125 305.171 334.012 304.993C333.899 304.815 333.746 304.666 333.565 304.559C333.244 304.367 332.09 303.674 332.045 303.649C331.993 303.621 331.933 303.609 331.874 303.615C331.815 303.622 331.76 303.646 331.716 303.686L330.673 304.61C330.631 304.647 330.578 304.669 330.522 304.674C330.467 304.678 330.411 304.664 330.364 304.634L330.121 304.479C330.088 304.457 330.06 304.428 330.039 304.394C330.019 304.36 330.007 304.321 330.004 304.282C330.001 304.242 330.007 304.202 330.022 304.165C330.037 304.129 330.061 304.096 330.091 304.07L331.92 302.473C332.023 302.384 332.147 302.323 332.28 302.296C332.413 302.268 332.551 302.276 332.681 302.318L335.763 303.324V306.531ZM337.494 306.806C337.494 306.882 337.463 306.955 337.409 307.009C337.355 307.063 337.282 307.094 337.205 307.094H336.628C336.552 307.094 336.479 307.063 336.425 307.009C336.371 306.955 336.34 306.882 336.34 306.806C336.34 302.006 336.342 303.14 336.34 302.96C336.34 302.884 336.371 302.81 336.425 302.756C336.479 302.702 336.552 302.672 336.628 302.672H337.205C337.282 302.672 337.355 302.702 337.409 302.756C337.463 302.81 337.494 302.884 337.494 302.96V306.806Z" fill="white"/>
<path d="M328.082 300.153L328.39 300.268L328.504 300.576C328.514 300.602 328.532 300.625 328.555 300.641C328.578 300.657 328.605 300.665 328.633 300.665C328.661 300.665 328.688 300.657 328.711 300.641C328.734 300.625 328.752 300.602 328.762 300.576L328.876 300.268L329.184 300.153C329.21 300.144 329.233 300.126 329.249 300.103C329.265 300.08 329.274 300.053 329.274 300.025C329.274 299.997 329.265 299.969 329.249 299.946C329.233 299.923 329.21 299.906 329.184 299.896L328.876 299.782L328.762 299.473C328.752 299.447 328.734 299.425 328.711 299.409C328.688 299.393 328.661 299.384 328.633 299.384C328.605 299.384 328.578 299.393 328.555 299.409C328.532 299.425 328.514 299.447 328.504 299.473L328.39 299.782L328.082 299.896C328.055 299.906 328.033 299.923 328.017 299.946C328.001 299.969 327.992 299.997 327.992 300.025C327.992 300.053 328.001 300.08 328.017 300.103C328.033 300.126 328.055 300.144 328.082 300.153Z" fill="white"/>
<path d="M334.811 297.814L335.119 297.928L335.234 298.237C335.243 298.263 335.261 298.286 335.284 298.302C335.307 298.317 335.334 298.326 335.362 298.326C335.39 298.326 335.418 298.317 335.441 298.302C335.464 298.286 335.481 298.263 335.491 298.237L335.605 297.928L335.914 297.814C335.94 297.804 335.963 297.787 335.979 297.764C335.995 297.741 336.003 297.713 336.003 297.685C336.003 297.657 335.995 297.63 335.979 297.607C335.963 297.584 335.94 297.566 335.914 297.557L335.605 297.442L335.491 297.134C335.481 297.108 335.464 297.085 335.441 297.069C335.418 297.053 335.39 297.045 335.362 297.045C335.334 297.045 335.307 297.053 335.284 297.069C335.261 297.085 335.243 297.108 335.234 297.134L335.119 297.442L334.811 297.557C334.785 297.566 334.762 297.584 334.746 297.607C334.73 297.63 334.722 297.657 334.722 297.685C334.722 297.713 334.73 297.741 334.746 297.764C334.762 297.787 334.785 297.804 334.811 297.814Z" fill="white"/>
<path d="M332.029 300.986C332.505 300.986 332.969 300.845 333.365 300.581C333.76 300.317 334.068 299.942 334.25 299.502C334.432 299.063 334.479 298.58 334.387 298.114C334.294 297.648 334.065 297.219 333.729 296.883C333.393 296.547 332.964 296.318 332.498 296.225C332.032 296.133 331.549 296.18 331.11 296.362C330.67 296.544 330.295 296.852 330.031 297.247C329.767 297.643 329.626 298.107 329.626 298.583C329.627 299.22 329.88 299.831 330.331 300.281C330.781 300.732 331.392 300.985 332.029 300.986ZM330.885 298.433C330.912 298.406 330.944 298.385 330.979 298.37C331.014 298.355 331.051 298.348 331.089 298.348C331.127 298.348 331.164 298.355 331.199 298.369C331.234 298.384 331.266 298.405 331.293 298.431L331.683 298.818L332.765 297.736C332.792 297.709 332.823 297.688 332.858 297.674C332.893 297.659 332.931 297.652 332.969 297.652C333.007 297.652 333.044 297.659 333.079 297.674C333.114 297.688 333.146 297.709 333.173 297.736C333.199 297.763 333.221 297.795 333.235 297.83C333.25 297.865 333.257 297.902 333.257 297.94C333.257 297.978 333.25 298.015 333.235 298.05C333.221 298.085 333.199 298.117 333.173 298.144L331.887 299.429C331.833 299.483 331.76 299.514 331.684 299.514C331.608 299.514 331.535 299.484 331.48 299.43L330.887 298.841C330.86 298.814 330.839 298.782 330.824 298.747C330.809 298.713 330.802 298.675 330.802 298.637C330.801 298.599 330.809 298.562 330.823 298.527C330.838 298.492 330.859 298.46 330.885 298.433Z" fill="white"/>
</g>
<path d="M332.152 354.258C337.415 354.258 341.681 349.992 341.681 344.729C341.681 339.467 337.415 335.2 332.152 335.2C326.889 335.2 322.623 339.467 322.623 344.729C322.623 349.992 326.889 354.258 332.152 354.258Z" fill="#52D1BD"/>
<mask id="mask1_2486_9135" style="mask-type:luminance" maskUnits="userSpaceOnUse" x="325" y="339" width="13" height="12">
<path d="M337.473 339.153H325.877V350.749H337.473V339.153Z" fill="white"/>
</mask>
<g mask="url(#mask1_2486_9135)">
<path d="M337.281 342.459C337.223 342.428 337.158 342.414 337.092 342.417C337.027 342.42 336.964 342.441 336.909 342.477L335.298 343.549V342.414C335.298 342.222 335.222 342.038 335.086 341.902C334.95 341.766 334.766 341.689 334.574 341.689H327.326C327.134 341.689 326.95 341.766 326.814 341.902C326.678 342.038 326.602 342.222 326.602 342.414V347.487C326.602 347.679 326.678 347.864 326.814 348C326.95 348.136 327.134 348.212 327.326 348.212H334.574C334.766 348.212 334.95 348.136 335.086 348C335.222 347.864 335.298 347.679 335.298 347.487V346.355L336.909 347.429C336.969 347.468 337.039 347.488 337.11 347.487C337.206 347.487 337.298 347.449 337.366 347.381C337.434 347.313 337.472 347.221 337.472 347.125V342.777C337.472 342.711 337.454 342.647 337.42 342.592C337.386 342.536 337.338 342.49 337.281 342.459ZM334.574 347.487H327.326V342.414H334.574V347.487ZM336.748 346.448L335.298 345.482V344.42L336.748 343.456V346.448Z" fill="white"/>
</g>
<path d="M398.961 314.98H343.27C342.396 314.98 341.682 314.266 341.682 313.392C341.682 312.519 342.396 311.804 343.27 311.804H398.961C399.835 311.804 400.55 312.519 400.55 313.392C400.55 314.266 399.835 314.98 398.961 314.98Z" fill="#ECF3FE"/>
<path d="M398.961 322.248H343.27C342.396 322.248 341.682 321.533 341.682 320.66C341.682 319.787 342.396 319.072 343.27 319.072H398.961C399.835 319.072 400.55 319.787 400.55 320.66C400.55 321.534 399.835 322.248 398.961 322.248Z" fill="#ECF3FE"/>
<path d="M398.961 360.084H343.27C342.396 360.084 341.682 359.369 341.682 358.496C341.682 357.622 342.396 356.908 343.27 356.908H398.961C399.835 356.908 400.55 357.622 400.55 358.496C400.55 359.369 399.835 360.084 398.961 360.084Z" fill="#ECF3FE"/>
<path d="M398.961 367.352H343.27C342.396 367.352 341.682 366.637 341.682 365.764C341.682 364.89 342.396 364.176 343.27 364.176H398.961C399.835 364.176 400.55 364.89 400.55 365.764C400.55 366.637 399.835 367.352 398.961 367.352Z" fill="#ECF3FE"/>
<path d="M398.961 374.62H343.27C342.396 374.62 341.682 373.905 341.682 373.032C341.682 372.158 342.396 371.444 343.27 371.444H398.961C399.835 371.444 400.55 372.158 400.55 373.032C400.55 373.905 399.835 374.62 398.961 374.62Z" fill="#ECF3FE"/>
<path d="M332.151 403.491C337.414 403.491 341.68 399.225 341.68 393.962C341.68 388.7 337.414 384.433 332.151 384.433C326.888 384.433 322.622 388.7 322.622 393.962C322.622 399.225 326.888 403.491 332.151 403.491Z" fill="#3B82F4"/>
<path d="M335.835 397.16C335.272 396.187 334.404 395.489 333.392 395.158C333.893 394.859 334.282 394.405 334.5 393.864C334.717 393.323 334.751 392.726 334.597 392.164C334.442 391.602 334.107 391.106 333.643 390.753C333.18 390.399 332.613 390.208 332.03 390.208C331.447 390.208 330.88 390.399 330.416 390.753C329.953 391.106 329.618 391.602 329.463 392.164C329.308 392.726 329.342 393.323 329.56 393.864C329.778 394.405 330.167 394.859 330.668 395.158C329.655 395.488 328.787 396.186 328.224 397.16C328.204 397.194 328.19 397.231 328.184 397.27C328.178 397.309 328.18 397.349 328.19 397.388C328.199 397.426 328.217 397.462 328.241 397.493C328.264 397.525 328.294 397.551 328.329 397.571C328.363 397.591 328.401 397.603 328.44 397.608C328.479 397.613 328.519 397.61 328.557 397.6C328.595 397.589 328.63 397.571 328.661 397.546C328.692 397.521 328.718 397.491 328.736 397.456C329.433 396.252 330.664 395.533 332.03 395.533C333.395 395.533 334.627 396.252 335.323 397.456C335.342 397.491 335.368 397.521 335.399 397.546C335.429 397.571 335.465 397.589 335.503 397.6C335.541 397.61 335.581 397.613 335.62 397.608C335.659 397.603 335.697 397.591 335.731 397.571C335.765 397.551 335.795 397.525 335.819 397.493C335.843 397.462 335.86 397.426 335.87 397.388C335.88 397.349 335.882 397.309 335.876 397.27C335.87 397.231 335.856 397.194 335.835 397.16ZM329.959 392.871C329.959 392.461 330.081 392.061 330.308 391.721C330.536 391.38 330.859 391.115 331.237 390.958C331.616 390.801 332.032 390.76 332.434 390.84C332.835 390.92 333.204 391.117 333.494 391.407C333.784 391.696 333.981 392.065 334.061 392.467C334.141 392.869 334.1 393.285 333.943 393.663C333.786 394.042 333.521 394.365 333.18 394.593C332.84 394.82 332.439 394.942 332.03 394.942C331.481 394.941 330.955 394.723 330.566 394.335C330.178 393.946 329.96 393.42 329.959 392.871Z" fill="white"/>
<path opacity="0.25" d="M143.073 348.886C150.054 341.905 150.054 330.587 143.073 323.607C136.093 316.626 124.775 316.626 117.794 323.607C110.813 330.587 110.813 341.905 117.794 348.886C124.775 355.867 136.093 355.867 143.073 348.886Z" fill="#3A7EC1"/>
<path d="M128.709 350.649C138.582 350.649 146.585 342.646 146.585 332.773C146.585 322.901 138.582 314.898 128.709 314.898C118.837 314.898 110.834 322.901 110.834 332.773C110.834 342.646 118.837 350.649 128.709 350.649Z" fill="#FFCB48"/>
<path d="M138.748 327.077L138.75 338.466C138.75 338.864 138.428 339.186 138.031 339.186L119.391 339.188C118.994 339.188 118.672 338.867 118.672 338.469L118.67 327.08C118.67 326.888 118.745 326.714 118.868 326.585C118.998 326.447 119.184 326.361 119.389 326.361L138.029 326.358C138.234 326.358 138.419 326.444 138.55 326.582C138.673 326.711 138.748 326.886 138.748 327.077Z" fill="white"/>
<path d="M138.551 326.582L129.207 332.773C128.903 332.964 128.517 332.964 128.214 332.773L118.868 326.585C118.999 326.447 119.184 326.361 119.389 326.361L138.029 326.358C138.234 326.358 138.42 326.444 138.551 326.582Z" fill="#FFCB48"/>
<path d="M138.55 326.582L128.938 329.872C128.634 330.063 128.248 330.063 127.945 329.872L118.868 326.585C118.999 326.447 119.184 326.361 119.389 326.361L138.029 326.358C138.234 326.358 138.42 326.444 138.55 326.582Z" fill="white"/>
<path opacity="0.25" d="M368.777 89.9275C375.758 82.9468 375.758 71.6289 368.777 64.6482C361.797 57.6675 350.479 57.6675 343.498 64.6482C336.517 71.6288 336.517 82.9468 343.498 89.9275C350.479 96.9082 361.797 96.9082 368.777 89.9275Z" fill="#3A7EC1"/>
<path d="M367.593 87.0479C374.574 80.0672 374.574 68.7492 367.593 61.7685C360.612 54.7878 349.294 54.7878 342.313 61.7685C335.333 68.7492 335.333 80.0672 342.313 87.0479C349.294 94.0286 360.612 94.0286 367.593 87.0479Z" fill="#52D1BD"/>
<path d="M365.634 82.571H364.746V64.8227C364.746 64.5874 364.653 64.3616 364.486 64.1952C364.32 64.0288 364.094 63.9353 363.859 63.9353H357.647C357.412 63.9353 357.186 64.0288 357.019 64.1952C356.853 64.3616 356.759 64.5874 356.759 64.8227V69.2598H351.435C351.2 69.2598 350.974 69.3533 350.807 69.5197C350.641 69.6861 350.548 69.9119 350.548 70.1472V74.5843H346.11C345.875 74.5843 345.649 74.6778 345.483 74.8442C345.317 75.0106 345.223 75.2364 345.223 75.4717V82.571H344.336C344.1 82.571 343.875 82.6645 343.708 82.831C343.542 82.9974 343.448 83.2231 343.448 83.4585C343.448 83.6938 343.542 83.9195 343.708 84.086C343.875 84.2524 344.1 84.3459 344.336 84.3459H365.634C365.869 84.3459 366.095 84.2524 366.261 84.086C366.428 83.9195 366.521 83.6938 366.521 83.4585C366.521 83.2231 366.428 82.9974 366.261 82.831C366.095 82.6645 365.869 82.571 365.634 82.571ZM358.534 65.7101H362.971V82.571H358.534V65.7101ZM352.322 71.0346H356.759V82.571H352.322V71.0346ZM346.998 76.3591H350.548V82.571H346.998V76.3591Z" fill="white"/>
<path d="M99.5132 337.304C102.812 337.304 105.485 334.63 105.485 331.332C105.485 328.033 102.812 325.359 99.5132 325.359C96.2149 325.359 93.541 328.033 93.541 331.332C93.541 334.63 96.2149 337.304 99.5132 337.304Z" fill="#FFCB48"/>
<path d="M97.5618 318.983C98.8053 317.74 98.8053 315.724 97.5618 314.48C96.3182 313.236 94.302 313.236 93.0584 314.48C91.8148 315.724 91.8149 317.74 93.0584 318.983C94.302 320.227 96.3182 320.227 97.5618 318.983Z" fill="#FFCB48"/>
<path d="M356.958 102.025C357.567 99.4448 355.97 96.8597 353.39 96.2505C350.81 95.6413 348.225 97.2388 347.616 99.8186C347.007 102.398 348.604 104.984 351.184 105.593C353.764 106.202 356.349 104.604 356.958 102.025Z" fill="#52D1BD"/>
<path d="M366.101 109.35C366.467 107.798 365.507 106.243 363.955 105.877C362.403 105.511 360.848 106.471 360.482 108.023C360.115 109.575 361.076 111.13 362.628 111.496C364.18 111.863 365.735 110.902 366.101 109.35Z" fill="#52D1BD"/>
</svg>
