<svg width="113" height="113" viewBox="0 0 113 113" fill="none" xmlns="http://www.w3.org/2000/svg">
<circle cx="56.5" cy="56.5" r="56.5" fill="#F2FAFF"/>
<g opacity="0.67">
<rect x="50.998" y="67.7188" width="10.2091" height="16.511" rx="5.10456" transform="rotate(0.104144 50.998 67.7188)" fill="#BFD4DF"/>
<path fill-rule="evenodd" clip-rule="evenodd" d="M56.1743 26.1413C44.4799 26.12 34.9826 35.5829 34.9613 47.2772L34.9176 71.3485L30.6403 71.3408C29.0741 71.3379 27.8022 72.6053 27.7993 74.1715C27.7965 75.7377 29.0638 77.0096 30.63 77.0125L34.9073 77.0203L34.9073 77.0222L77.2561 77.0992L77.2561 77.0972L81.0453 77.1041C82.6115 77.107 83.8835 75.8396 83.8863 74.2734C83.8892 72.7072 82.6218 71.4353 81.0556 71.4324L77.2664 71.4255L77.3102 47.3542C77.3314 35.6599 67.8686 26.1625 56.1743 26.1413Z" fill="#BFD4DF"/>
</g>
<path fill-rule="evenodd" clip-rule="evenodd" d="M75.9288 27.8222C76.5793 28.3351 76.6909 29.2783 76.178 29.9288L35.178 81.9288C34.665 82.5793 33.7219 82.6909 33.0713 82.178C32.4208 81.665 32.3092 80.7219 32.8222 80.0713L73.8222 28.0713C74.3351 27.4208 75.2783 27.3092 75.9288 27.8222Z" fill="#D0E1EA" stroke="#F2FAFF" stroke-linecap="round" stroke-linejoin="round"/>
</svg>
