<svg width="14" height="14" viewBox="0 0 14 14" fill="none" xmlns="http://www.w3.org/2000/svg">
<path d="M12.9822 5.66781C13.0791 6.10159 13.125 6.55091 13.125 7C13.125 10.379 10.379 13.125 7 13.125C3.62096 13.125 0.875 10.379 0.875 7C0.875 3.62096 3.62096 0.875 7 0.875C7.44909 0.875 7.89841 0.925962 8.33219 1.01784C8.47 1.04846 8.55685 1.18627 8.52623 1.32409C8.4956 1.4619 8.35779 1.54875 8.21998 1.51812C7.82185 1.43127 7.40841 1.38534 7 1.38534C3.90185 1.38534 1.38534 3.90185 1.38534 7C1.38534 10.0981 3.90161 12.6147 7 12.6147C10.0984 12.6147 12.6147 10.0984 12.6147 7C12.6147 6.58656 12.5687 6.17815 12.4819 5.78002C12.4512 5.64221 12.5381 5.5044 12.6759 5.47377C12.8137 5.44315 12.9515 5.53 12.9822 5.66781ZM7.71466 3.49846C7.85248 3.52406 7.98526 3.43721 8.01589 3.2994C8.04149 3.16159 7.95464 3.0288 7.81683 2.99817C7.55149 2.94195 7.27586 2.91659 7.00024 2.91659C4.7493 2.91659 2.91683 4.74906 2.91683 7C2.91683 9.25094 4.7493 11.0834 7.00024 11.0834C9.25118 11.0834 11.0837 9.25094 11.0837 7C11.0837 6.72438 11.0581 6.44875 11.0021 6.18341C10.9765 6.0456 10.8387 5.95875 10.7008 5.98435C10.563 6.01498 10.4712 6.14776 10.5018 6.28558C10.5477 6.52029 10.5733 6.76026 10.5733 7.00024C10.5733 8.97053 8.97053 10.5731 7.00048 10.5731C5.03043 10.5731 3.42764 8.97029 3.42764 7.00024C3.42764 5.03019 5.03043 3.4274 7.00048 3.4274C7.24045 3.4274 7.47971 3.45252 7.71466 3.49846ZM6.7806 5.48406C6.91841 5.46373 7.01531 5.33596 6.99498 5.19312C6.97464 5.05029 6.84688 4.95315 6.70404 4.97875C5.7037 5.12159 4.95339 5.98937 4.95339 7C4.95339 8.1281 5.86711 9.04159 6.99498 9.04159C8.0056 9.04159 8.87339 8.29127 9.01622 7.29094C9.03656 7.15312 8.93966 7.02034 8.80185 7C8.66404 6.97966 8.53125 7.07656 8.51091 7.21438C8.40373 7.96469 7.75031 8.52623 6.99498 8.52623C6.15279 8.52623 5.46373 7.83716 5.46373 6.99498C5.46373 6.23964 6.02526 5.58623 6.77558 5.47904L6.7806 5.48406ZM9.04159 4.59594V3.08502C9.04159 2.74313 9.17437 2.42156 9.41411 2.18159L10.6494 0.951563C10.7209 0.880024 10.8331 0.854663 10.925 0.895337C11.0219 0.93625 11.0832 1.02812 11.0832 1.13005V2.91659H12.8697C12.9719 2.91659 13.0637 2.97784 13.1044 3.07474C13.1451 3.17164 13.1197 3.27882 13.0482 3.35036L11.8182 4.58039C11.5782 4.82036 11.2566 4.95291 10.9147 4.95291H9.40382L7.18351 7.17322C7.13255 7.22418 7.06604 7.24979 7.00479 7.24979C6.94354 7.24979 6.872 7.22418 6.82606 7.17322C6.7239 7.07106 6.7239 6.91291 6.82606 6.81075L9.04637 4.59043L9.04159 4.59594ZM9.55216 4.44784H10.915C11.1191 4.44784 11.3131 4.36625 11.4559 4.22317L12.2522 3.42692H10.8281C10.6853 3.42692 10.5728 3.31471 10.5728 3.17164V1.74757L9.77659 2.54382C9.63375 2.68666 9.55192 2.8807 9.55192 3.08479L9.55216 4.44784Z" fill="white"/>
<path fill-rule="evenodd" clip-rule="evenodd" d="M8.36256 0.881174C8.57655 0.928728 8.71013 1.14187 8.66289 1.35446C8.61536 1.56836 8.40237 1.70192 8.18987 1.65485C7.80134 1.57011 7.39799 1.52534 7 1.52534C3.97917 1.52534 1.52534 3.97917 1.52534 7C1.52534 10.0208 3.97894 12.4747 7 12.4747C10.0211 12.4747 12.4747 10.0211 12.4747 7C12.4747 6.59699 12.4299 6.19861 12.3451 5.80996C12.2981 5.59752 12.4317 5.38463 12.6455 5.33711C12.8581 5.28988 13.0712 5.42339 13.1188 5.63729L12.9822 5.66782C13.0791 6.10159 13.125 6.55092 13.125 7C13.125 10.379 10.379 13.125 7 13.125C3.62096 13.125 0.875 10.379 0.875 7C0.875 3.62097 3.62096 0.875003 7 0.875003C7.44909 0.875003 7.89841 0.925965 8.33219 1.01784M6.77558 5.47904C6.02526 5.58623 5.46373 6.23964 5.46373 6.99498C5.46373 7.83717 6.15279 8.52623 6.99498 8.52623C7.75031 8.52623 8.40373 7.96469 8.51091 7.21438C8.53125 7.07657 8.66404 6.97967 8.80185 7C8.93966 7.02034 9.03656 7.15313 9.01622 7.29094C8.87339 8.29128 8.0056 9.04159 6.99498 9.04159C5.86711 9.04159 4.95339 8.1281 4.95339 7C4.95339 5.98938 5.7037 5.12159 6.70404 4.97875C6.84688 4.95315 6.97464 5.05029 6.99498 5.19313C7.01531 5.33597 6.91841 5.46373 6.7806 5.48407L6.77558 5.47904ZM6.7276 5.62905L6.73139 5.63284L6.80104 5.62257C7.01563 5.5909 7.16469 5.39194 7.13358 5.17339C7.10271 4.95657 6.90538 4.80194 6.682 4.84048C5.61358 4.99418 4.81339 5.9207 4.81339 7C4.81339 8.20543 5.7898 9.18159 6.99498 9.18159C8.07495 9.18159 9.00196 8.3804 9.15478 7.31098C9.18595 7.09821 9.03784 6.89331 8.82229 6.8615C8.60937 6.83008 8.40424 6.97825 8.37241 7.19394C8.27515 7.87476 7.68117 8.38623 6.99498 8.38623C6.23011 8.38623 5.60373 7.75985 5.60373 6.99498C5.60373 6.33175 6.08093 5.75475 6.7276 5.62905ZM8.90159 4.53723L6.72706 6.71176C6.57106 6.86776 6.57023 7.11278 6.72459 7.26973C6.80109 7.35274 6.91147 7.38979 7.00479 7.38979C7.10357 7.38979 7.20558 7.34915 7.28251 7.27222L9.46181 5.09291H10.9147C11.2934 5.09291 11.6507 4.94585 11.9172 4.67938L13.1472 3.44936C13.2564 3.34018 13.2976 3.17316 13.2335 3.02055C13.1714 2.87267 13.0293 2.77659 12.8697 2.77659H11.2232V1.13005C11.2232 0.970935 11.1275 0.829367 10.9806 0.766837C10.8314 0.701382 10.6589 0.744118 10.5505 0.852493L9.31533 2.08238C9.04919 2.34878 8.90159 2.70627 8.90159 3.08503V4.53723ZM10.6494 0.951566L9.41411 2.18159C9.17438 2.42157 9.04159 2.74313 9.04159 3.08503V4.59522L6.82606 6.81075C6.7239 6.91291 6.7239 7.07106 6.82606 7.17323C6.872 7.22419 6.94354 7.24979 7.00479 7.24979C7.06604 7.24979 7.13255 7.22419 7.18351 7.17323L9.40382 4.95291H10.9147C11.2566 4.95291 11.5782 4.82036 11.8182 4.58039L13.0482 3.35036C13.1197 3.27883 13.1451 3.17164 13.1044 3.07474C13.0638 2.97784 12.9719 2.91659 12.8697 2.91659H11.0832V1.13005C11.0832 1.02813 11.0219 0.936253 10.925 0.89534C10.8331 0.854666 10.7209 0.880028 10.6494 0.951566ZM11.3569 4.12418L11.9142 3.56693H10.8281C10.6081 3.56693 10.4328 3.39212 10.4328 3.17164V2.08557L9.87558 2.64282C9.75867 2.75974 9.69193 2.91829 9.69192 3.08476L9.69214 4.30784H10.915C11.0816 4.30784 11.2401 4.24119 11.3569 4.12418ZM9.55192 3.08479C9.55192 2.8807 9.63375 2.68666 9.77659 2.54383L10.5728 1.74758V3.17164C10.5728 3.31471 10.6853 3.42693 10.8281 3.42693H12.2522L11.4559 4.22318C11.3131 4.36625 11.1191 4.44784 10.915 4.44784H9.55216L9.55192 3.08479Z" fill="white"/>
</svg>
