<svg width="150" height="150" viewBox="0 0 150 150" fill="none" xmlns="http://www.w3.org/2000/svg">
<circle opacity="0.2" cx="75" cy="75" r="75" fill="#BFD4DF"/>
<g filter="url(#filter0_d)">
<circle cx="77.949" cy="75.6795" r="35.8709" fill="white"/>
<circle cx="77.949" cy="75.6795" r="39.8709" stroke="white" stroke-width="8"/>
</g>
<path fill-rule="evenodd" clip-rule="evenodd" d="M77.2579 108.667C95.8517 108.667 110.925 93.5939 110.925 75.0001C110.925 56.4062 95.8517 41.3329 77.2579 41.3329C58.664 41.3329 43.5907 56.4062 43.5907 75.0001C43.5907 93.5939 58.664 108.667 77.2579 108.667ZM77.2579 113.445C98.4907 113.445 115.703 96.2329 115.703 75.0001C115.703 53.7673 98.4907 36.5547 77.2579 36.5547C56.0251 36.5547 38.8125 53.7673 38.8125 75.0001C38.8125 96.2329 56.0251 113.445 77.2579 113.445Z" fill="#BFD4DF"/>
<path fill-rule="evenodd" clip-rule="evenodd" d="M77.2592 98.5917C90.2921 98.5917 100.857 88.0264 100.857 74.9935C100.857 61.9606 90.2921 51.3954 77.2592 51.3954C64.2263 51.3954 53.661 61.9606 53.661 74.9935C53.661 88.0264 64.2263 98.5917 77.2592 98.5917ZM77.2592 103.37C92.931 103.37 105.636 90.6654 105.636 74.9935C105.636 59.3217 92.931 46.6172 77.2592 46.6172C61.5873 46.6172 48.8828 59.3217 48.8828 74.9935C48.8828 90.6654 61.5873 103.37 77.2592 103.37Z" fill="#BFD4DF"/>
<path fill-rule="evenodd" clip-rule="evenodd" d="M77.2604 85.7856C83.2157 85.7856 88.0435 80.9579 88.0435 75.0026C88.0435 69.0473 83.2157 64.2196 77.2604 64.2196C71.3052 64.2196 66.4774 69.0473 66.4774 75.0026C66.4774 80.9579 71.3052 85.7856 77.2604 85.7856ZM77.2604 90.5639C85.8547 90.5639 92.8217 83.5969 92.8217 75.0026C92.8217 66.4084 85.8547 59.4414 77.2604 59.4414C68.6662 59.4414 61.6992 66.4084 61.6992 75.0026C61.6992 83.5969 68.6662 90.5639 77.2604 90.5639Z" fill="#BFD4DF"/>
<path fill-rule="evenodd" clip-rule="evenodd" d="M77.2604 74.7973C77.1492 74.7973 77.059 74.8875 77.059 74.9987C77.059 75.1099 77.1492 75.2001 77.2604 75.2001C77.3716 75.2001 77.4618 75.1099 77.4618 74.9987C77.4618 74.8875 77.3716 74.7973 77.2604 74.7973ZM77.2604 79.5755C79.7881 79.5755 81.8373 77.5264 81.8373 74.9987C81.8373 72.471 79.7881 70.4219 77.2604 70.4219C74.7327 70.4219 72.6836 72.471 72.6836 74.9987C72.6836 77.5264 74.7327 79.5755 77.2604 79.5755Z" fill="#BFD4DF"/>
<path fill-rule="evenodd" clip-rule="evenodd" d="M79.9406 54.9809L77.8237 73.5066L94.9259 66.077L89.0789 61.7475L102.61 43.4741L108.746 42.2784L117.317 30.7038L107.614 33.2945L107.262 23.2589L98.6914 34.8336L99.3376 41.048L85.8052 59.3235L79.9406 54.9809Z" fill="#A0B7C6"/>
<defs>
<filter id="filter0_d" x="19.0781" y="18.8086" width="117.742" height="117.742" filterUnits="userSpaceOnUse" color-interpolation-filters="sRGB">
<feFlood flood-opacity="0" result="BackgroundImageFix"/>
<feColorMatrix in="SourceAlpha" type="matrix" values="0 0 0 0 0 0 0 0 0 0 0 0 0 0 0 0 0 0 127 0"/>
<feMorphology radius="5" operator="dilate" in="SourceAlpha" result="effect1_dropShadow"/>
<feOffset dy="2"/>
<feGaussianBlur stdDeviation="5"/>
<feColorMatrix type="matrix" values="0 0 0 0 0.86566 0 0 0 0 0.924557 0 0 0 0 0.970833 0 0 0 0.44 0"/>
<feBlend mode="normal" in2="BackgroundImageFix" result="effect1_dropShadow"/>
<feBlend mode="normal" in="SourceGraphic" in2="effect1_dropShadow" result="shape"/>
</filter>
</defs>
</svg>
