<svg width="300" height="200" viewBox="0 0 300 200" fill="none" xmlns="http://www.w3.org/2000/svg">
<g clip-path="url(#clip0_1459_2740)">
<path d="M149.401 117.936C128.973 108.244 120.27 83.8285 129.962 63.4005C139.653 42.9725 164.069 34.2695 184.497 43.9615C204.925 53.6532 213.628 78.0692 203.936 98.4972C194.244 118.925 169.829 127.628 149.401 117.936Z" stroke="#E1E4E5" stroke-width="5.33333" stroke-linecap="round" stroke-linejoin="round"/>
<path d="M189.083 143.19L180.622 119.454" stroke="#E1E4E5" stroke-width="5.33333" stroke-linecap="round" stroke-linejoin="round"/>
<path fill-rule="evenodd" clip-rule="evenodd" d="M235.11 163.234L229.641 154.741C226.47 149.818 221.991 145.875 216.704 143.357L197.924 134.409C196.225 133.599 194.364 133.183 192.481 133.191L188.271 133.209L189.466 137.114L172.85 133.131C170.917 132.668 169.021 134.024 168.836 136.004C168.782 136.578 168.882 137.157 169.125 137.681C169.367 138.204 169.744 138.654 170.217 138.985L174.82 142.201C171.951 143.599 171.569 147.533 174.115 149.456L176.455 151.222C174.247 152.6 174.133 155.773 176.235 157.306L179.629 159.781C179.424 160.84 179.578 161.936 180.065 162.898C180.552 163.859 181.346 164.631 182.32 165.092L185.944 166.806C186.481 167.059 187.039 167.265 187.613 167.42L204.358 171.947L223.076 184.379L235.11 163.234Z" fill="#F8AE9D"/>
<path fill-rule="evenodd" clip-rule="evenodd" d="M266.135 187.137L225.51 148.57L197.778 176.772L208.999 187.383L266.135 187.137Z" fill="#0494FD"/>
<path fill-rule="evenodd" clip-rule="evenodd" d="M76.3483 159.245C76.1983 159.326 76.0286 159.363 75.8587 159.352C75.6887 159.34 75.5254 159.281 75.3873 159.182C75.2491 159.081 75.1416 158.945 75.0772 158.786C75.0127 158.628 74.9938 158.455 75.0227 158.287L75.68 154.468L72.8957 151.761C72.775 151.642 72.6899 151.491 72.65 151.326C72.61 151.161 72.6167 150.988 72.6693 150.827C72.7216 150.666 72.8178 150.522 72.9472 150.413C73.0766 150.303 73.234 150.232 73.4017 150.208L77.251 149.65L78.9703 146.172C79.0462 146.02 79.163 145.891 79.3078 145.802C79.4526 145.712 79.6196 145.664 79.79 145.664C80.137 145.664 80.454 145.861 80.6093 146.172L82.3287 149.65L86.178 150.208C86.3457 150.232 86.5031 150.304 86.6326 150.413C86.762 150.522 86.8583 150.666 86.9107 150.827C86.9633 150.988 86.9699 151.161 86.9299 151.326C86.8898 151.491 86.8047 151.642 86.684 151.761L83.8983 154.466L84.5557 158.286C84.5848 158.454 84.5661 158.627 84.5018 158.786C84.4374 158.944 84.33 159.081 84.1917 159.181C84.0536 159.281 83.8901 159.34 83.72 159.352C83.5499 159.363 83.3801 159.326 83.23 159.245L79.7883 157.444L76.3483 159.245ZM94.53 159.245C94.3801 159.326 94.2104 159.363 94.0405 159.351C93.8706 159.34 93.7073 159.281 93.5693 159.181C93.431 159.081 93.3234 158.944 93.2589 158.786C93.1944 158.628 93.1755 158.455 93.2043 158.287L93.862 154.467L91.0777 151.761C90.9569 151.642 90.8717 151.491 90.8317 151.326C90.7916 151.161 90.7983 150.988 90.851 150.827C90.9034 150.665 90.9997 150.522 91.1291 150.413C91.2586 150.303 91.416 150.232 91.5837 150.207L95.4327 149.65L97.152 146.172C97.2278 146.019 97.3447 145.891 97.4895 145.801C97.6343 145.711 97.8013 145.664 97.9717 145.664C98.3187 145.664 98.636 145.86 98.7913 146.172L100.511 149.65L104.36 150.207C104.527 150.232 104.685 150.303 104.814 150.413C104.944 150.522 105.04 150.665 105.092 150.827C105.145 150.988 105.152 151.161 105.112 151.326C105.072 151.491 104.986 151.642 104.866 151.761L102.08 154.466L102.737 158.285C102.766 158.454 102.748 158.627 102.684 158.785C102.619 158.944 102.512 159.081 102.373 159.181C102.235 159.281 102.072 159.34 101.902 159.351C101.732 159.363 101.562 159.326 101.412 159.245L97.97 157.444L94.53 159.245ZM112.712 159.245C112.562 159.326 112.392 159.363 112.222 159.351C112.052 159.34 111.889 159.281 111.751 159.181C111.613 159.081 111.505 158.944 111.441 158.786C111.376 158.628 111.357 158.455 111.386 158.287L112.044 154.467L109.259 151.761C109.139 151.642 109.053 151.491 109.013 151.326C108.973 151.161 108.98 150.988 109.033 150.827C109.085 150.665 109.181 150.522 109.311 150.413C109.44 150.303 109.598 150.232 109.765 150.207L113.614 149.65L115.334 146.172C115.41 146.02 115.527 145.891 115.672 145.802C115.816 145.712 115.983 145.664 116.153 145.664C116.324 145.664 116.491 145.712 116.635 145.802C116.78 145.891 116.897 146.02 116.973 146.172L118.692 149.65L122.542 150.207C122.709 150.232 122.867 150.303 122.996 150.413C123.125 150.522 123.222 150.666 123.274 150.827C123.327 150.988 123.333 151.161 123.293 151.326C123.253 151.491 123.168 151.642 123.047 151.761L120.262 154.466L120.919 158.285C120.948 158.454 120.93 158.627 120.865 158.785C120.801 158.944 120.693 159.081 120.555 159.181C120.417 159.281 120.254 159.34 120.084 159.351C119.913 159.363 119.744 159.326 119.594 159.245L116.152 157.444L112.712 159.245ZM130.893 159.245C130.743 159.326 130.574 159.363 130.404 159.351C130.234 159.34 130.071 159.281 129.933 159.181C129.794 159.081 129.687 158.944 129.622 158.786C129.558 158.628 129.539 158.455 129.568 158.287L130.225 154.467L127.441 151.761C127.32 151.642 127.235 151.491 127.195 151.326C127.155 151.161 127.162 150.988 127.214 150.827C127.267 150.665 127.363 150.522 127.492 150.413C127.622 150.303 127.779 150.232 127.947 150.207L131.796 149.65L133.516 146.172C133.591 146.019 133.708 145.891 133.853 145.801C133.998 145.711 134.165 145.664 134.335 145.664C134.682 145.664 134.999 145.86 135.155 146.172L136.874 149.65L140.723 150.207C140.891 150.232 141.048 150.303 141.178 150.413C141.307 150.522 141.403 150.665 141.456 150.827C141.508 150.988 141.515 151.161 141.475 151.326C141.435 151.491 141.35 151.642 141.229 151.761L138.443 154.466L139.101 158.285C139.13 158.454 139.111 158.627 139.047 158.785C138.983 158.944 138.875 159.081 138.737 159.181C138.599 159.281 138.435 159.34 138.265 159.351C138.095 159.363 137.925 159.326 137.775 159.245L134.334 157.444L130.893 159.245ZM149.075 159.245C148.925 159.326 148.755 159.363 148.586 159.351C148.416 159.34 148.252 159.281 148.114 159.181C147.976 159.081 147.869 158.944 147.804 158.786C147.74 158.628 147.721 158.455 147.75 158.287L148.407 154.467L145.623 151.761C145.502 151.642 145.417 151.491 145.377 151.326C145.337 151.161 145.343 150.988 145.396 150.827C145.448 150.665 145.545 150.522 145.674 150.413C145.804 150.303 145.961 150.232 146.129 150.207L149.978 149.65L151.697 146.172C151.773 146.019 151.89 145.891 152.035 145.801C152.18 145.711 152.347 145.664 152.517 145.664C152.864 145.664 153.181 145.86 153.336 146.172L155.056 149.65L158.905 150.207C159.073 150.232 159.23 150.303 159.36 150.413C159.489 150.522 159.585 150.665 159.638 150.827C159.69 150.988 159.697 151.161 159.657 151.326C159.617 151.491 159.532 151.642 159.411 151.761L156.625 154.466L157.283 158.285C157.312 158.454 157.293 158.627 157.229 158.785C157.164 158.944 157.057 159.081 156.919 159.181C156.781 159.281 156.617 159.34 156.447 159.351C156.277 159.363 156.107 159.326 155.957 159.245L152.515 157.444L149.075 159.245ZM34.1243 145.822H35.924C36.1323 145.822 36.3321 145.905 36.4794 146.052C36.6267 146.2 36.7095 146.399 36.7097 146.608V148.407C36.7095 148.615 36.6267 148.815 36.4794 148.962C36.3321 149.11 36.1323 149.192 35.924 149.193H34.1243C33.9162 149.192 33.7169 149.109 33.5698 148.962C33.4227 148.814 33.3397 148.615 33.339 148.407V146.608C33.3353 146.176 33.6893 145.822 34.1243 145.822ZM40.3637 145.822H42.1633C42.3714 145.823 42.5707 145.906 42.7178 146.053C42.8649 146.2 42.9479 146.399 42.9487 146.607V148.407C42.9486 148.615 42.8658 148.815 42.7186 148.962C42.5713 149.11 42.3716 149.192 42.1633 149.193H40.3637C40.1556 149.192 39.9563 149.109 39.8092 148.962C39.6621 148.814 39.5791 148.615 39.5783 148.407V146.607C39.5791 146.399 39.6621 146.2 39.8092 146.053C39.9563 145.906 40.1556 145.823 40.3637 145.822ZM46.6073 145.822H48.4067C48.6148 145.823 48.8142 145.906 48.9613 146.053C49.1085 146.2 49.1915 146.4 49.1923 146.608V148.407C49.1922 148.615 49.1093 148.815 48.962 148.962C48.8147 149.11 48.615 149.192 48.4067 149.193H46.6073C46.3992 149.192 46.1998 149.109 46.0527 148.962C45.9055 148.815 45.8225 148.615 45.8217 148.407V146.608C45.818 146.176 46.172 145.822 46.6073 145.822ZM52.8467 145.822H54.646C54.8541 145.823 55.0535 145.906 55.2007 146.053C55.3478 146.2 55.4309 146.4 55.4317 146.608V148.407C55.4315 148.615 55.3487 148.815 55.2014 148.962C55.054 149.11 54.8543 149.192 54.646 149.193H52.8463C52.6377 149.193 52.4375 149.11 52.2897 148.963C52.1418 148.815 52.0583 148.616 52.0573 148.407V146.608C52.0595 146.399 52.1435 146.2 52.2912 146.053C52.4388 145.906 52.6383 145.823 52.8467 145.822ZM59.0863 145.822H60.8857C61.0943 145.822 61.2945 145.905 61.4424 146.052C61.5903 146.199 61.6739 146.399 61.675 146.607V148.407C61.6749 148.51 61.6543 148.613 61.6146 148.708C61.5748 148.804 61.5166 148.891 61.4433 148.964C61.37 149.037 61.283 149.094 61.1873 149.134C61.0916 149.173 60.9891 149.193 60.8857 149.193H59.0863C58.8782 149.192 58.6788 149.109 58.5317 148.962C58.3845 148.815 58.3015 148.615 58.3007 148.407V146.607C58.3015 146.399 58.3845 146.2 58.5317 146.053C58.6789 145.906 58.8782 145.823 59.0863 145.822ZM40.5927 152.626H42.3923C42.6004 152.626 42.7998 152.709 42.9469 152.857C43.094 153.004 43.177 153.203 43.1777 153.411V155.215C43.1769 155.423 43.0939 155.622 42.9468 155.769C42.7997 155.916 42.6004 155.999 42.3923 156H40.5927C40.3844 156 40.1846 155.917 40.0373 155.77C39.89 155.623 39.8072 155.423 39.807 155.215V153.415C39.8064 153.311 39.8263 153.209 39.8655 153.113C39.9047 153.017 39.9625 152.93 40.0355 152.857C40.1085 152.783 40.1954 152.725 40.291 152.686C40.3866 152.646 40.4891 152.626 40.5927 152.626ZM46.832 152.626H48.6313C48.8395 152.626 49.0388 152.709 49.186 152.857C49.3332 153.004 49.4162 153.203 49.417 153.411V155.215C49.4162 155.423 49.3332 155.622 49.186 155.769C49.0388 155.916 48.8394 155.999 48.6313 156H46.832C46.6239 155.999 46.4245 155.916 46.2773 155.769C46.1302 155.622 46.0471 155.423 46.0463 155.215V153.415C46.0457 153.311 46.0656 153.209 46.1048 153.113C46.144 153.017 46.2018 152.93 46.2748 152.857C46.3479 152.783 46.4347 152.725 46.5303 152.686C46.6259 152.646 46.7285 152.626 46.832 152.626ZM53.0717 152.626H54.871C55.0797 152.626 55.2799 152.708 55.4278 152.856C55.5758 153.003 55.6594 153.203 55.6603 153.411V155.215C55.6593 155.423 55.5756 155.623 55.4277 155.77C55.2798 155.917 55.0797 156 54.871 156H53.0717C52.8636 155.999 52.6642 155.916 52.517 155.769C52.3698 155.622 52.2868 155.423 52.286 155.215V153.415C52.286 153.206 52.3687 153.006 52.5159 152.858C52.6631 152.71 52.863 152.627 53.0717 152.626ZM46.6073 138.513H48.4067C48.6148 138.514 48.8141 138.597 48.9613 138.744C49.1085 138.891 49.1915 139.09 49.1923 139.298V141.098C49.1922 141.306 49.1093 141.506 48.962 141.653C48.8147 141.801 48.615 141.883 48.4067 141.884H46.6073C46.3992 141.883 46.1998 141.8 46.0527 141.653C45.9055 141.506 45.8225 141.306 45.8217 141.098V139.298C45.818 138.867 46.172 138.513 46.6073 138.513ZM52.8467 138.513H54.646C54.8541 138.514 55.0535 138.597 55.2007 138.744C55.3478 138.891 55.4309 139.09 55.4317 139.298V141.098C55.4315 141.306 55.3487 141.506 55.2014 141.653C55.054 141.801 54.8543 141.883 54.646 141.884H52.8463C52.6377 141.884 52.4375 141.801 52.2897 141.654C52.1418 141.506 52.0583 141.307 52.0573 141.098V139.298C52.0596 139.09 52.1436 138.891 52.2913 138.744C52.4389 138.597 52.6384 138.514 52.8467 138.513ZM240.642 126.054H242.625C242.854 126.054 243.074 126.145 243.237 126.308C243.399 126.47 243.49 126.69 243.49 126.919V128.902C243.49 129.132 243.399 129.352 243.237 129.514C243.075 129.677 242.854 129.768 242.625 129.768H240.642C240.413 129.767 240.193 129.676 240.031 129.514C239.869 129.351 239.777 129.132 239.776 128.902V126.919C239.772 126.444 240.162 126.054 240.642 126.054ZM247.517 126.054H249.5C249.729 126.055 249.949 126.146 250.111 126.308C250.273 126.471 250.364 126.69 250.365 126.919V128.902C250.365 129.132 250.274 129.352 250.112 129.514C249.95 129.677 249.729 129.768 249.5 129.768H247.517C247.288 129.767 247.068 129.676 246.906 129.513C246.744 129.351 246.652 129.132 246.651 128.902V126.919C246.652 126.69 246.744 126.47 246.906 126.308C247.068 126.146 247.288 126.055 247.517 126.054ZM254.397 126.054H256.38C256.609 126.055 256.828 126.146 256.991 126.308C257.153 126.471 257.244 126.69 257.245 126.919V128.902C257.245 129.132 257.154 129.352 256.991 129.514C256.829 129.677 256.609 129.768 256.38 129.768H254.397C254.167 129.767 253.948 129.676 253.786 129.513C253.623 129.351 253.532 129.132 253.531 128.902V126.919C253.527 126.444 253.917 126.054 254.397 126.054ZM261.272 126.054H263.255C263.484 126.055 263.704 126.146 263.866 126.308C264.028 126.47 264.119 126.69 264.12 126.919V128.902C264.12 129.132 264.029 129.352 263.866 129.514C263.704 129.676 263.484 129.768 263.255 129.768H261.272C261.042 129.768 260.821 129.677 260.658 129.515C260.495 129.352 260.403 129.132 260.402 128.902V126.919C260.406 126.444 260.796 126.054 261.272 126.054ZM268.147 126.054H270.13C270.36 126.054 270.581 126.145 270.744 126.307C270.907 126.469 270.999 126.689 271 126.919V128.902C271 129.016 270.977 129.129 270.933 129.234C270.89 129.34 270.825 129.435 270.745 129.515C270.664 129.596 270.568 129.66 270.463 129.703C270.357 129.746 270.244 129.768 270.13 129.768H268.147C267.918 129.767 267.698 129.676 267.536 129.513C267.374 129.351 267.283 129.132 267.282 128.902V126.919C267.283 126.69 267.374 126.471 267.536 126.308C267.698 126.146 267.918 126.055 268.147 126.054ZM247.769 133.551H249.752C249.981 133.552 250.201 133.643 250.363 133.805C250.525 133.968 250.617 134.187 250.618 134.417V136.404C250.617 136.633 250.525 136.853 250.363 137.015C250.201 137.177 249.981 137.268 249.752 137.269H247.769C247.54 137.269 247.32 137.178 247.157 137.015C246.995 136.853 246.904 136.633 246.904 136.404V134.421C246.903 134.307 246.925 134.194 246.968 134.088C247.011 133.982 247.075 133.887 247.155 133.806C247.236 133.725 247.331 133.661 247.437 133.617C247.542 133.573 247.655 133.551 247.769 133.551ZM254.644 133.551H256.627C256.857 133.552 257.076 133.643 257.238 133.806C257.4 133.968 257.492 134.187 257.493 134.417V136.404C257.492 136.633 257.4 136.852 257.238 137.015C257.076 137.177 256.857 137.268 256.627 137.269H254.644C254.415 137.268 254.195 137.177 254.033 137.015C253.871 136.853 253.78 136.633 253.779 136.404V134.421C253.778 134.307 253.8 134.194 253.843 134.088C253.886 133.982 253.95 133.886 254.03 133.806C254.111 133.725 254.207 133.661 254.312 133.617C254.417 133.573 254.53 133.551 254.644 133.551ZM261.52 133.551H263.503C263.733 133.551 263.953 133.642 264.116 133.804C264.279 133.967 264.371 134.187 264.372 134.417V136.404C264.371 136.634 264.279 136.854 264.116 137.016C263.953 137.178 263.733 137.269 263.503 137.269H261.52C261.29 137.268 261.071 137.177 260.909 137.015C260.747 136.852 260.655 136.633 260.654 136.404V134.421C260.654 134.191 260.745 133.97 260.907 133.807C261.07 133.644 261.29 133.552 261.52 133.551ZM254.397 118H256.38C256.609 118.001 256.829 118.092 256.991 118.255C257.153 118.417 257.244 118.636 257.245 118.866V120.849C257.245 121.078 257.154 121.298 256.991 121.46C256.829 121.623 256.609 121.714 256.38 121.714H254.397C254.167 121.713 253.948 121.622 253.786 121.46C253.623 121.298 253.532 121.078 253.531 120.849V118.866C253.527 118.39 253.917 118 254.397 118ZM261.272 118H263.255C263.484 118.001 263.704 118.092 263.866 118.255C264.028 118.417 264.119 118.636 264.12 118.866V120.849C264.12 121.078 264.029 121.298 263.866 121.46C263.704 121.622 263.484 121.714 263.255 121.714H261.272C261.042 121.714 260.821 121.623 260.658 121.461C260.495 121.299 260.403 121.079 260.402 120.849V118.866C260.406 118.39 260.796 118 261.272 118ZM77.4413 58.8743H79.2157C79.421 58.8744 79.618 58.956 79.7632 59.1012C79.9085 59.2464 79.9902 59.4433 79.9903 59.6487V61.4233C79.9902 61.6287 79.9085 61.8257 79.7632 61.9709C79.618 62.1161 79.4211 62.1978 79.2157 62.198H77.4413C77.2361 62.1972 77.0395 62.1153 76.8944 61.9702C76.7493 61.8251 76.6675 61.6285 76.6667 61.4233V59.6487C76.663 59.2233 77.012 58.8743 77.4413 58.8743ZM83.5937 58.874H85.3683C85.5735 58.8749 85.77 58.9568 85.915 59.1019C86.0601 59.247 86.1419 59.4435 86.1427 59.6487V61.4233C86.1425 61.6286 86.0608 61.8255 85.9157 61.9707C85.7705 62.1158 85.5736 62.1975 85.3683 62.1977H83.5937C83.3885 62.1969 83.192 62.115 83.0469 61.97C82.9018 61.825 82.8199 61.6285 82.819 61.4233V59.6487C82.8199 59.4435 82.9018 59.2469 83.0469 59.1019C83.192 58.9568 83.3885 58.8749 83.5937 58.874ZM89.7503 58.8743H91.525C91.7302 58.8751 91.9267 58.9569 92.0718 59.102C92.2169 59.247 92.2988 59.4435 92.2997 59.6487V61.4233C92.2994 61.6287 92.2177 61.8256 92.0725 61.9708C91.9273 62.116 91.7304 62.1977 91.525 62.198H89.7503C89.5452 62.1971 89.3487 62.1152 89.2037 61.9701C89.0586 61.825 88.9768 61.6285 88.976 61.4233V59.6487C88.9723 59.2233 89.3213 58.8743 89.7503 58.8743ZM95.903 58.8743H97.6777C97.8828 58.8751 98.0793 58.957 98.2243 59.102C98.3694 59.247 98.4512 59.4435 98.452 59.6487V61.4233C98.4518 61.6287 98.3702 61.8256 98.225 61.9708C98.0799 62.116 97.883 62.1977 97.6777 62.198H95.903C95.6972 62.1979 95.4999 62.1164 95.354 61.9712C95.2082 61.8261 95.1257 61.6291 95.1247 61.4233V59.6487C95.127 59.4433 95.2099 59.2471 95.3555 59.1023C95.501 58.9575 95.6977 58.8756 95.903 58.8743ZM102.056 58.874H103.831C104.036 58.8741 104.234 58.9556 104.38 59.1008C104.525 59.2459 104.608 59.4429 104.609 59.6487V61.4233C104.608 61.5253 104.588 61.6262 104.549 61.7203C104.51 61.8144 104.452 61.8998 104.38 61.9718C104.308 62.0437 104.222 62.1006 104.128 62.1394C104.034 62.1782 103.933 62.198 103.831 62.1977H102.056C101.851 62.1969 101.654 62.115 101.509 61.97C101.364 61.825 101.282 61.6285 101.281 61.4233V59.6487C101.282 59.4435 101.364 59.2469 101.509 59.1019C101.654 58.9568 101.851 58.8749 102.056 58.874ZM83.8193 65.5833H85.594C85.7992 65.5841 85.9958 65.666 86.1409 65.8111C86.286 65.9562 86.3679 66.1528 86.3687 66.358V68.136C86.3679 68.3412 86.286 68.5378 86.1409 68.6829C85.9958 68.828 85.7992 68.9099 85.594 68.9107H83.8193C83.614 68.9105 83.4171 68.8288 83.2719 68.6835C83.1267 68.5383 83.0451 68.3414 83.045 68.136V66.3617C83.0443 66.2596 83.0639 66.1584 83.1025 66.064C83.1411 65.9695 83.1981 65.8836 83.2701 65.8112C83.3421 65.7389 83.4277 65.6815 83.5219 65.6424C83.6162 65.6033 83.7173 65.5832 83.8193 65.5833ZM89.972 65.5833H91.7467C91.9518 65.5841 92.1484 65.666 92.2934 65.8111C92.4385 65.9562 92.5203 66.1528 92.521 66.358V68.136C92.5203 68.3412 92.4385 68.5378 92.2934 68.6829C92.1484 68.828 91.9518 68.9099 91.7467 68.9107H89.972C89.7668 68.91 89.5701 68.8281 89.425 68.683C89.2799 68.5379 89.198 68.3412 89.1973 68.136V66.3617C89.1967 66.2596 89.2163 66.1584 89.255 66.0639C89.2936 65.9695 89.3506 65.8836 89.4226 65.8112C89.4946 65.7389 89.5803 65.6815 89.6745 65.6424C89.7688 65.6033 89.8699 65.5832 89.972 65.5833ZM96.125 65.5833H97.8993C98.1051 65.5833 98.3025 65.6648 98.4484 65.81C98.5943 65.9552 98.6767 66.1522 98.6777 66.358V68.136C98.6767 68.3418 98.5943 68.5388 98.4484 68.684C98.3025 68.8292 98.1051 68.9107 97.8993 68.9107H96.125C95.9198 68.91 95.7231 68.8281 95.578 68.683C95.4329 68.5379 95.351 68.3412 95.3503 68.136V66.3617C95.3503 66.1559 95.4318 65.9584 95.577 65.8126C95.7222 65.6667 95.9192 65.5843 96.125 65.5833ZM89.7503 51.6667H91.525C91.7302 51.6674 91.9268 51.7493 92.0719 51.8944C92.217 52.0395 92.2989 52.2361 92.2997 52.4413V54.2157C92.2995 54.4211 92.2178 54.618 92.0726 54.7632C91.9273 54.9085 91.7304 54.9901 91.525 54.9903H89.7503C89.5452 54.9895 89.3486 54.9076 89.2036 54.7625C89.0585 54.6174 88.9767 54.4208 88.976 54.2157V52.4413C88.9723 52.0157 89.3213 51.6667 89.7503 51.6667ZM95.903 51.6667H97.6777C97.8828 51.6674 98.0794 51.7493 98.2244 51.8944C98.3695 52.0396 98.4513 52.2361 98.452 52.4413V54.2157C98.4519 54.421 98.3703 54.618 98.2251 54.7632C98.0799 54.9085 97.883 54.9901 97.6777 54.9903H95.903C95.6972 54.9903 95.4998 54.9088 95.3539 54.7637C95.2081 54.6185 95.1256 54.4214 95.1247 54.2157V52.4413C95.1269 52.2359 95.2098 52.0397 95.3554 51.8948C95.5009 51.7499 95.6976 51.668 95.903 51.6667Z" fill="#E1E4E5"/>
<path fill-rule="evenodd" clip-rule="evenodd" d="M224.566 67.7933C224.566 65.146 226.712 63 229.359 63H275.207C277.854 63 280 65.146 280 67.7933C280 70.4403 277.854 72.5863 275.207 72.5863H229.359C226.712 72.5863 224.566 70.4403 224.566 67.7933ZM104.857 86.0317C104.857 83.4997 102.804 81.447 100.272 81.447H37.7517C35.2197 81.447 33.167 83.4997 33.167 86.0317C33.167 88.5637 35.2197 90.6163 37.7517 90.6163H100.272C102.804 90.6163 104.857 88.5637 104.857 86.0317ZM224.566 84.2713C224.566 81.6243 226.712 79.4783 229.359 79.4783H254.784C257.431 79.4783 259.577 81.6243 259.577 84.2713C259.577 86.9187 257.431 89.0647 254.784 89.0647H229.359C226.712 89.0647 224.566 86.9187 224.566 84.2713ZM86.934 102.127C86.934 99.4793 84.7883 97.3333 82.141 97.3333H37.1267C34.4793 97.3333 32.3333 99.4793 32.3333 102.127C32.3333 104.774 34.4793 106.92 37.1267 106.92H82.141C84.7883 106.92 86.934 104.774 86.934 102.127ZM224.566 100.188C224.566 97.771 226.525 95.8117 228.942 95.8117H255.2C257.617 95.8117 259.577 97.771 259.577 100.188C259.577 102.605 257.617 104.564 255.2 104.564H228.942C226.525 104.564 224.566 102.605 224.566 100.188ZM86.934 118.043C86.934 115.626 84.9747 113.667 82.5577 113.667H36.7097C34.2927 113.667 32.333 115.626 32.333 118.043C32.333 120.46 34.2927 122.419 36.7097 122.419H82.5577C84.9747 122.419 86.934 120.46 86.934 118.043Z" fill="white" stroke="#E1E4E5" stroke-width="1.33333" stroke-linecap="round" stroke-linejoin="round"/>
<path d="M144.817 116.408C144.817 104.585 135.232 95 123.408 95C111.585 95 102 104.585 102 116.408C102 128.232 111.585 137.817 123.408 137.817C135.232 137.817 144.817 128.232 144.817 116.408Z" fill="#0494FD"/>
<path d="M130.634 121.866L130.634 121.866L124.767 116L130.634 110.134L130.634 110.134C130.869 109.9 131 109.582 131 109.25C131 108.918 130.869 108.6 130.634 108.366C130.4 108.131 130.082 108 129.75 108C129.418 108 129.1 108.131 128.866 108.366L128.866 108.366L123 114.233L117.134 108.366L117.134 108.366C116.9 108.131 116.582 108 116.25 108C115.918 108 115.6 108.131 115.366 108.366C115.131 108.6 115 108.918 115 109.25C115 109.582 115.131 109.9 115.366 110.134L115.366 110.134L121.233 116L115.366 121.866L115.366 121.866C115.131 122.1 115 122.418 115 122.75C115 123.082 115.131 123.4 115.366 123.634C115.6 123.869 115.918 124 116.25 124C116.582 124 116.9 123.869 117.134 123.634L117.134 123.634L123 117.767L128.866 123.634L128.866 123.634C128.982 123.75 129.12 123.842 129.271 123.905C129.423 123.968 129.586 124 129.75 124C129.914 124 130.077 123.968 130.229 123.905C130.38 123.842 130.518 123.75 130.634 123.634C130.75 123.518 130.842 123.38 130.905 123.229C130.968 123.077 131 122.914 131 122.75C131 122.586 130.968 122.423 130.905 122.271C130.842 122.12 130.75 121.982 130.634 121.866Z" fill="white" stroke="white"/>
<path d="M185.044 72.3727C187.176 76.8335 187.581 81.9261 186.18 86.6678C184.779 91.4094 181.671 95.464 177.456 98.049C173.241 100.634 168.218 101.566 163.357 100.665C158.495 99.7646 154.139 97.095 151.13 93.1717C148.121 89.2484 146.672 84.3496 147.062 79.4206C147.453 74.4917 149.655 69.8821 153.245 66.4815C156.834 63.0809 161.555 61.1303 166.498 61.0063C171.441 60.8823 176.255 62.5935 180.01 65.8098L184.365 61.4525C184.654 61.1641 185.045 61.0021 185.453 61.0021C185.861 61.0021 186.252 61.1641 186.54 61.4525C186.829 61.7409 186.991 62.132 186.991 62.5399C186.991 62.9478 186.829 63.3389 186.54 63.6273L168.096 82.0711C167.808 82.3595 167.417 82.5215 167.009 82.5215C166.601 82.5215 166.21 82.3595 165.922 82.0711C165.633 81.7827 165.471 81.3915 165.471 80.9837C165.471 80.5758 165.633 80.1847 165.922 79.8963L171.247 74.5706C169.804 73.6161 168.081 73.1766 166.356 73.3233C164.632 73.47 163.008 74.1943 161.747 75.3789C160.485 76.5636 159.661 78.1393 159.407 79.8509C159.152 81.5625 159.483 83.3099 160.345 84.8101C161.208 86.3104 162.551 87.4757 164.158 88.1174C165.765 88.7591 167.542 88.8397 169.2 88.3461C170.859 87.8525 172.302 86.8136 173.297 85.3976C174.291 83.9816 174.779 82.2713 174.68 80.5437C174.669 80.3419 174.698 80.1398 174.764 79.949C174.831 79.7581 174.935 79.5823 175.07 79.4316C175.204 79.2808 175.367 79.1581 175.549 79.0704C175.732 78.9826 175.929 78.9316 176.131 78.9203C176.539 78.8974 176.939 79.0373 177.243 79.3093C177.394 79.444 177.517 79.6071 177.604 79.7892C177.692 79.9713 177.743 80.169 177.754 80.3708C177.895 82.8161 177.196 85.236 175.775 87.2306C174.353 89.2252 172.293 90.675 169.936 91.3405C167.579 92.0059 165.065 91.8472 162.811 90.8905C160.556 89.9338 158.695 88.2364 157.536 86.0788C156.377 83.9213 155.988 81.4327 156.435 79.0245C156.881 76.6162 158.136 74.4324 159.992 72.8341C161.848 71.2357 164.194 70.3184 166.642 70.2339C169.089 70.1493 171.493 70.9025 173.455 72.3689L177.826 67.9981C174.622 65.3387 170.55 63.9565 166.39 64.117C162.23 64.2774 158.276 65.9692 155.287 68.8674C152.298 71.7656 150.486 75.6658 150.197 79.819C149.909 83.9721 151.165 88.0854 153.725 91.3687C156.284 94.6521 159.967 96.8739 164.065 97.6077C168.163 98.3414 172.387 97.5352 175.927 95.3439C179.467 93.1526 182.072 89.7307 183.243 85.7355C184.414 81.7403 184.067 77.4535 182.269 73.6984C182.094 73.3305 182.071 72.9078 182.207 72.5234C182.343 72.139 182.626 71.8242 182.994 71.6484C183.362 71.4727 183.784 71.4502 184.169 71.586C184.553 71.7219 184.868 72.0049 185.044 72.3727Z" fill="#E1E4E5"/>
</g>
<defs>
<clipPath id="clip0_1459_2740">
<rect width="300" height="200" fill="white"/>
</clipPath>
</defs>
</svg>
