<svg width="80" height="80" viewBox="0 0 80 80" fill="none" xmlns="http://www.w3.org/2000/svg">
<path d="M64.8261 23.7463C56.1543 14.4972 43.0048 9.05787 30.5879 13.3911C20.2593 16.9958 11.7185 25.9248 7.07447 35.8747C3.80689 42.8758 1.99763 51.9471 3.98626 59.5709C5.713 66.1905 11.2279 69.1326 17.5351 69.6052C27.5101 70.3526 37.5208 69.2699 47.5029 69.4608C54.5871 69.5964 65.393 72.217 71.7109 68.0097C77.6781 64.036 77.3054 55.3838 76.6511 49.0276C75.677 39.561 71.2023 30.5469 64.8261 23.7463Z" fill="#D94841"/>
<path opacity="0.7" d="M64.8261 23.7463C56.1543 14.4972 43.0048 9.05787 30.5879 13.3911C20.2593 16.9958 11.7185 25.9248 7.07447 35.8747C3.80689 42.8758 1.99763 51.9471 3.98626 59.5709C5.713 66.1905 11.2279 69.1326 17.5351 69.6052C27.5101 70.3526 37.5208 69.2699 47.5029 69.4608C54.5871 69.5964 65.393 72.217 71.7109 68.0097C77.6781 64.036 77.3054 55.3838 76.6511 49.0276C75.677 39.561 71.2023 30.5469 64.8261 23.7463Z" fill="white"/>
<path d="M15.0161 47.1388L11.2171 42.3564L7.41797 47.1388H8.90407V54.3388H13.5302V47.1388H15.0161Z" stroke="white" stroke-width="0.210526" stroke-miterlimit="10" stroke-linecap="round" stroke-linejoin="round"/>
<path d="M61.5083 47.1388L57.7093 42.3564L53.9102 47.1388H55.396V54.3388H60.0224V47.1388H61.5083Z" stroke="white" stroke-width="0.210526" stroke-miterlimit="10" stroke-linecap="round" stroke-linejoin="round"/>
<path d="M73.2397 58.9183L69.4408 54.136L65.6416 58.9183H67.1277V66.1183H71.7538V58.9183H73.2397Z" stroke="white" stroke-width="0.210526" stroke-miterlimit="10" stroke-linecap="round" stroke-linejoin="round"/>
<path d="M68.4272 31.4054L64.6283 26.623L60.8291 31.4054H62.3152V38.6054H66.9413V31.4054H68.4272Z" stroke="white" stroke-width="0.210526" stroke-miterlimit="10" stroke-linecap="round" stroke-linejoin="round"/>
<path d="M24.6772 32.2335L20.878 27.4512L17.0791 32.2335H18.565V39.4335H23.1911V32.2335H24.6772Z" stroke="white" stroke-width="0.210526" stroke-miterlimit="10" stroke-linecap="round" stroke-linejoin="round"/>
<path d="M32.0444 58.9183L28.2454 54.136L24.4463 58.9183H25.9324V66.1183H30.5585V58.9183H32.0444Z" stroke="white" stroke-width="0.210526" stroke-miterlimit="10" stroke-linecap="round" stroke-linejoin="round"/>
<path d="M40.0001 79.0863C51.8596 79.0863 61.4737 77.9712 61.4737 76.5957C61.4737 75.2203 51.8596 74.1052 40.0001 74.1052C28.1405 74.1052 18.5264 75.2203 18.5264 76.5957C18.5264 77.9712 28.1405 79.0863 40.0001 79.0863Z" fill="#D94841"/>
<path opacity="0.5" d="M40.0001 79.0863C51.8596 79.0863 61.4737 77.9712 61.4737 76.5957C61.4737 75.2203 51.8596 74.1052 40.0001 74.1052C28.1405 74.1052 18.5264 75.2203 18.5264 76.5957C18.5264 77.9712 28.1405 79.0863 40.0001 79.0863Z" fill="white"/>
<path d="M56.5681 16.8233C56.6563 16.3498 56.7079 15.8633 56.7079 15.3641C56.7079 10.9841 53.1572 7.4334 48.7772 7.4334C47.1456 7.4334 45.6298 7.92729 44.369 8.77192C42.7679 4.88392 38.9433 2.14624 34.4778 2.14624C28.5715 2.14624 23.7833 6.93424 23.7833 12.8408C23.7833 12.9723 23.7885 13.1027 23.7932 13.2332C20.8753 14.0652 18.7363 16.7454 18.7363 19.9302C18.7363 23.4523 21.3515 26.3563 24.7443 26.8258V26.8997H56.2269C59.0142 26.8997 61.2736 24.6401 61.2736 21.853C61.2742 19.1806 59.1957 16.9993 56.5681 16.8233Z" fill="#263238" stroke="#263238" stroke-width="0.210526" stroke-miterlimit="10" stroke-linecap="round" stroke-linejoin="round"/>
<path d="M56.5681 15.876C56.6563 15.4026 56.7079 14.916 56.7079 14.4169C56.7079 10.0369 53.1572 6.48613 48.7772 6.48613C47.1456 6.48613 45.6298 6.98003 44.369 7.82466C42.7679 3.93666 38.9433 1.19897 34.4778 1.19897C28.5715 1.19897 23.7833 5.98698 23.7833 11.8935C23.7833 12.0251 23.7885 12.1554 23.7932 12.2859C20.8753 13.1179 18.7363 15.7981 18.7363 18.983C18.7363 22.5051 21.3515 25.4091 24.7443 25.8786V25.9524H56.2269C59.0142 25.9524 61.2736 23.6929 61.2736 20.9057C61.2742 18.2333 59.1957 16.052 56.5681 15.876Z" fill="#D94841" stroke="#263238" stroke-width="0.210526" stroke-miterlimit="10" stroke-linecap="round" stroke-linejoin="round"/>
<path d="M40.2006 44.0974L38.8757 44.7913C38.8757 44.7913 37.4248 45.4223 36.4785 45.9269C35.5322 46.4315 30.8637 50.0275 30.8637 50.0275L29.9174 50.0907L29.3496 50.4692C29.3496 50.4692 28.4033 50.6585 28.4033 50.8477C28.4033 51.037 28.5926 51.1001 28.7818 51.1001C28.9711 51.1001 29.6021 50.7848 29.6021 50.7848C29.6021 50.7848 28.9616 51.7241 29.2138 51.7241C29.4663 51.7241 30.3023 51.8983 30.3023 51.8983C30.3023 51.8983 31.2423 51.7309 31.5576 51.7309C31.873 51.7309 32.6301 50.0275 32.6301 50.0275C32.6301 50.0275 38.0555 47.8827 38.7494 47.3778C39.4433 46.8732 41.4621 45.6113 41.4621 45.6113L40.2006 44.0974Z" fill="white" stroke="#263238" stroke-width="0.210526" stroke-miterlimit="10" stroke-linecap="round" stroke-linejoin="round"/>
<path d="M45.2941 38.9133L39.3809 44.2864L41.0842 46.3051L44.3646 45.0434L45.5002 38.987L45.2941 38.9133Z" fill="#D94841" stroke="#263238" stroke-width="0.210526" stroke-miterlimit="10" stroke-linecap="round" stroke-linejoin="round"/>
<path d="M40.1693 43.5701L39.3809 44.2865L41.0842 46.3052L42.1028 45.9134L40.1693 43.5701Z" fill="#263238" stroke="#263238" stroke-width="0.210526" stroke-miterlimit="10" stroke-linecap="round" stroke-linejoin="round"/>
<path d="M55.6144 72.5332C55.6144 72.5332 57.4917 74.4871 57.6832 75.445C57.8748 76.4029 57.415 77.2456 56.6489 77.0157C55.8826 76.7858 55.1931 74.4105 55.0015 73.989C54.81 73.5675 54.5801 73.1077 54.5801 73.1077C54.5801 73.1077 55.1546 72.3416 55.6144 72.5332Z" fill="#D94841" stroke="#263238" stroke-width="0.210526" stroke-miterlimit="10" stroke-linecap="round" stroke-linejoin="round"/>
<path d="M57.6994 75.5472C57.8394 76.4613 57.3874 77.2371 56.6487 77.0157C56.3828 76.9359 56.1264 76.5978 55.8965 76.1729C56.3944 75.359 57.2001 75.4123 57.6994 75.5472Z" fill="white" stroke="#263238" stroke-width="0.210526" stroke-miterlimit="10" stroke-linecap="round" stroke-linejoin="round"/>
<path d="M55.6318 75.6256C56.0487 76.2003 56.5876 76.8173 56.9933 76.7091C57.4163 76.5963 57.6104 75.8416 57.6838 75.4502C57.8727 76.4058 57.4133 77.2451 56.6487 77.0157C56.275 76.9037 55.92 76.2822 55.6318 75.6256Z" fill="white" stroke="#263238" stroke-width="0.210526" stroke-miterlimit="10" stroke-linecap="round" stroke-linejoin="round"/>
<path d="M55.2309 73.6061C55.2309 73.6061 56.0738 73.1463 56.1121 73.2996C56.1505 73.4529 55.3075 73.8743 55.1928 73.8743C55.0776 73.8741 55.001 73.8358 55.2309 73.6061Z" fill="white" stroke="#263238" stroke-width="0.105263" stroke-miterlimit="10" stroke-linecap="round" stroke-linejoin="round"/>
<path d="M55.4233 73.8739C55.4233 73.8739 56.2662 73.4141 56.3045 73.5674C56.3429 73.7207 55.4999 74.1421 55.385 74.1421C55.27 74.1421 55.1934 74.1038 55.4233 73.8739Z" fill="white" stroke="#263238" stroke-width="0.105263" stroke-miterlimit="10" stroke-linecap="round" stroke-linejoin="round"/>
<path d="M55.6147 74.1422C55.6147 74.1422 56.4576 73.6825 56.496 73.8357C56.5343 73.989 55.6913 74.4105 55.5764 74.4105C55.4614 74.4105 55.3848 74.3721 55.6147 74.1422Z" fill="white" stroke="#263238" stroke-width="0.105263" stroke-miterlimit="10" stroke-linecap="round" stroke-linejoin="round"/>
<path d="M55.8061 74.4106C55.8061 74.4106 56.649 73.9508 56.6874 74.104C56.7257 74.2573 55.8827 74.6788 55.7678 74.6788C55.6528 74.6788 55.5762 74.6405 55.8061 74.4106Z" fill="white" stroke="#263238" stroke-width="0.105263" stroke-miterlimit="10" stroke-linecap="round" stroke-linejoin="round"/>
<path d="M40.483 74.29C40.483 74.29 41.2161 75.3107 41.2818 75.8907C41.3474 76.4705 40.863 76.4848 40.2428 76.4183C39.6226 76.3517 38.8847 76.8098 38.0114 76.7873C37.1382 76.7646 36.1329 76.3822 36.6176 75.9679C37.1022 75.5536 38.3649 75.2134 38.6365 74.9751C38.9083 74.7368 39.0957 74.513 39.0957 74.513L40.483 74.29Z" fill="#D94841" stroke="#263238" stroke-width="0.210526" stroke-miterlimit="10" stroke-linecap="round" stroke-linejoin="round"/>
<path d="M36.6176 75.9677C36.7536 75.8515 36.952 75.7412 37.1715 75.6372C37.7547 75.9315 37.993 76.474 38.0852 76.7867C38.0606 76.7869 38.0362 76.7879 38.0113 76.7873C37.1381 76.7646 36.1328 76.382 36.6176 75.9677Z" fill="white" stroke="#263238" stroke-width="0.210526" stroke-miterlimit="10" stroke-linecap="round" stroke-linejoin="round"/>
<path d="M38.7179 74.8391C38.7179 74.8391 39.6166 75.3094 39.389 75.401C39.1614 75.4926 38.4793 74.9673 38.7179 74.8391Z" fill="white" stroke="#263238" stroke-width="0.105263" stroke-miterlimit="10" stroke-linecap="round" stroke-linejoin="round"/>
<path d="M38.3693 74.9343C38.3693 74.9343 39.268 75.4046 39.0404 75.4962C38.8129 75.5878 38.1305 75.0625 38.3693 74.9343Z" fill="white" stroke="#263238" stroke-width="0.105263" stroke-miterlimit="10" stroke-linecap="round" stroke-linejoin="round"/>
<path d="M38.1671 75.0737C38.1671 75.0737 39.0659 75.544 38.8383 75.6356C38.6105 75.7272 37.9284 75.2019 38.1671 75.0737Z" fill="white" stroke="#263238" stroke-width="0.105263" stroke-miterlimit="10" stroke-linecap="round" stroke-linejoin="round"/>
<path d="M37.7961 75.2419C37.7961 75.2419 38.6948 75.7123 38.4672 75.8038C38.2394 75.8954 37.5573 75.3702 37.7961 75.2419Z" fill="white" stroke="#263238" stroke-width="0.105263" stroke-miterlimit="10" stroke-linecap="round" stroke-linejoin="round"/>
<path d="M36.5164 76.0966C37.1749 76.5004 37.8787 76.5477 38.6069 76.406C39.4143 76.2488 39.8364 76.1757 40.6107 76.1286C40.9364 76.1088 41.1488 76.0623 41.2869 76.0149C41.2707 76.4709 40.8153 76.4795 40.2435 76.418C39.6233 76.3515 38.8854 76.8096 38.0121 76.7871C37.2303 76.7669 36.3463 76.4583 36.5164 76.0966Z" fill="white" stroke="#263238" stroke-width="0.210526" stroke-miterlimit="10" stroke-linecap="round" stroke-linejoin="round"/>
<path d="M49.6906 51.7834C49.6906 51.7834 49.2474 57.9381 49.5156 59.4322C49.7838 60.9263 50.4424 65.3688 50.4424 65.3688C50.4424 65.3688 51.4386 66.0968 52.4346 67.7059C53.4308 69.3149 55.6146 72.5333 55.6146 72.5333C55.6146 72.5333 55.6912 73.108 55.0015 73.2996C55.0015 73.2996 54.6567 73.4528 54.4651 73.2996C54.2735 73.1463 47.7222 67.093 46.956 65.8286C46.1897 64.5644 45.1546 56.7947 45.1546 56.7947L44.1584 56.6031L39.9491 64.6495L40.6805 74.4297C40.6805 74.4297 40.739 74.7674 40.2582 74.9027C39.7773 75.0381 39.3956 75.0888 39.1095 74.8427C38.8234 74.5966 36.6051 63.8834 36.7881 63.5017C36.971 63.12 41.2234 52.5878 41.2234 52.5878L41.5683 51.7065C41.5683 51.7065 45.591 52.1663 47.3916 51.8215C49.1927 51.4768 49.5373 51.2086 49.6906 51.7834Z" fill="#263238" stroke="#263238" stroke-width="0.210526" stroke-miterlimit="10" stroke-linecap="round" stroke-linejoin="round"/>
<path d="M44.1584 56.603L41.9746 55.9517" stroke="white" stroke-width="0.210526" stroke-miterlimit="10" stroke-linecap="round" stroke-linejoin="round"/>
<path d="M43.9286 56.7181L40.9404 56.3733" stroke="white" stroke-width="0.210526" stroke-miterlimit="10" stroke-linecap="round" stroke-linejoin="round"/>
<path d="M49.0035 52.9822C49.0035 52.9822 47.3869 54.0125 49.0139 54.7009" stroke="white" stroke-width="0.210526" stroke-miterlimit="10" stroke-linecap="round" stroke-linejoin="round"/>
<path d="M44.4266 53.4019L44.178 54.3966L43.5146 55.06L44.3437 55.8061" stroke="white" stroke-width="0.210526" stroke-miterlimit="10" stroke-linecap="round" stroke-linejoin="round"/>
<path d="M53.8986 41.6258C52.4253 40.4294 50.5956 38.9846 50.5956 38.9846C50.5956 38.9846 46.7152 38.897 45.2935 38.9134L43.2939 45.296C43.2939 45.296 41.455 51.6557 41.5316 51.924C41.6083 52.1922 42.9108 52.8052 45.8226 53.1498C48.7344 53.4947 49.9603 52.2686 50.0369 51.8856C50.1135 51.5025 49.9603 50.8511 49.9603 50.8511L50.9563 49.0888L54.2512 43.6705C54.6613 42.9964 54.511 42.1231 53.8986 41.6258Z" fill="#D94841" stroke="#263238" stroke-width="0.210526" stroke-miterlimit="10" stroke-linecap="round" stroke-linejoin="round"/>
<path d="M52.7413 40.6926C51.6131 39.788 50.5956 38.9846 50.5956 38.9846C50.5956 38.9846 49.308 38.9556 47.9447 38.9341C47.5998 39.7215 47.0045 41.3307 47.4944 42.1267C48.0984 43.108 50.0769 43.4008 52.7413 40.6926Z" fill="#263238" stroke="#263238" stroke-width="0.210526" stroke-miterlimit="10" stroke-linecap="round" stroke-linejoin="round"/>
<path d="M50.994 32.4233C50.994 32.4233 49.8831 32.7298 49.4233 33.4193C48.9635 34.1089 47.6226 38.1317 47.661 38.4765C47.6993 38.8214 49.4233 38.4765 49.4233 38.4765C49.4233 38.4765 48.2357 40.9668 48.2357 41.3883C48.2357 41.8098 48.7721 42.0397 49.4616 41.8864C50.1513 41.7331 52.5005 37.6883 52.5005 37.6883C52.5005 37.6883 53.1965 38.4976 53.6376 38.2199C54.1418 37.9024 53.9824 37.2622 53.5993 37.2622C53.2161 37.2622 54.6719 35.6915 54.174 34.6569C53.6759 33.6222 51.4538 32.0784 50.994 32.4233Z" fill="white" stroke="#263238" stroke-width="0.210526" stroke-miterlimit="10" stroke-linecap="round" stroke-linejoin="round"/>
<path d="M50.5723 31.1971C50.5723 31.1971 48.4269 31.1971 48.3119 32.2316C48.197 33.266 49.3081 33.7257 50.534 33.5342C51.7599 33.3426 52.8711 33.4192 53.0243 33.6108C53.1776 33.8024 51.5302 34.1855 51.9134 34.4537C52.2965 34.722 52.6797 34.6836 52.6797 34.6836C52.6797 34.6836 52.1433 34.8369 52.1816 35.2201C52.2199 35.6032 52.5534 37.2956 52.8216 37.2956C53.0898 37.2956 53.5993 37.262 53.5993 37.262C53.5993 37.262 54.3273 36.9171 54.9018 36.3041C55.4765 35.691 55.6298 34.3885 54.9018 33.6222C54.1738 32.8559 53.5993 32.1167 53.0245 31.5036C52.4498 30.8906 51.9136 30.2394 50.7641 30.0862C49.6144 29.9329 49.0014 30.3927 50.5723 31.1971Z" fill="#263238" stroke="#263238" stroke-width="0.210526" stroke-miterlimit="10" stroke-linecap="round" stroke-linejoin="round"/>
<path d="M55.0459 35.1526C55.1095 35.5429 55.0691 35.8326 55.0691 35.8326" stroke="white" stroke-width="0.210526" stroke-miterlimit="10" stroke-linecap="round" stroke-linejoin="round"/>
<path d="M51.1088 32.4072C51.1088 32.4072 48.7574 32.6361 49.6458 33.0851C50.5343 33.5342 51.8939 32.6925 53.6065 33.3706C54.3299 33.6569 54.7033 34.1407 54.8932 34.6041" stroke="white" stroke-width="0.210526" stroke-miterlimit="10" stroke-linecap="round" stroke-linejoin="round"/>
<path d="M52.5361 34.1912C52.5361 34.1912 54.1418 34.9762 54.3559 36.1179" stroke="white" stroke-width="0.210526" stroke-miterlimit="10" stroke-linecap="round" stroke-linejoin="round"/>
<path d="M49.4229 38.4764C49.4229 38.4764 51.2618 38.3614 51.7599 37.9399" stroke="#263238" stroke-width="0.210526" stroke-miterlimit="10" stroke-linecap="round" stroke-linejoin="round"/>
<path d="M48.8477 36.9439C48.8477 36.9439 50.1885 37.3271 50.5717 36.5225" stroke="#263238" stroke-width="0.210526" stroke-miterlimit="10" stroke-linecap="round" stroke-linejoin="round"/>
<path d="M50.3428 36.3691L50.9173 36.599" stroke="#263238" stroke-width="0.210526" stroke-miterlimit="10" stroke-linecap="round" stroke-linejoin="round"/>
<path d="M49.2696 35.1816C49.2696 35.1816 48.082 35.3349 48.082 35.5265C48.082 35.7181 48.8484 36.2545 48.8484 36.2545" fill="white"/>
<path d="M49.2696 35.1816C49.2696 35.1816 48.082 35.3349 48.082 35.5265C48.082 35.7181 48.8484 36.2545 48.8484 36.2545" stroke="#263238" stroke-width="0.210526" stroke-miterlimit="10" stroke-linecap="round" stroke-linejoin="round"/>
<path d="M49.4214 34.8138C49.366 34.9795 49.254 35.0915 49.1711 35.0637C49.0883 35.0361 49.0658 34.8793 49.1212 34.7136C49.1766 34.5479 49.2886 34.4359 49.3715 34.4637C49.4544 34.4913 49.4768 34.6481 49.4214 34.8138Z" fill="#263238"/>
<path d="M50.4282 35.3248C50.3728 35.4905 50.2608 35.6025 50.1779 35.5747C50.0949 35.5471 50.0728 35.3903 50.128 35.2246C50.1834 35.0589 50.2953 34.9469 50.3783 34.9747C50.4612 35.0023 50.4836 35.1591 50.4282 35.3248Z" fill="#263238"/>
<path d="M50.4844 34.2363C50.4844 34.2363 51.0644 34.289 51.0115 35.0799L50.4844 34.2363Z" fill="#263238" stroke="#263238" stroke-width="0.210526" stroke-miterlimit="10" stroke-linecap="round" stroke-linejoin="round"/>
<path d="M49.9569 33.8672C49.9569 33.8672 49.6404 33.4453 49.2188 34.0253L49.9569 33.8672Z" fill="#263238" stroke="#263238" stroke-width="0.210526" stroke-miterlimit="10" stroke-linecap="round" stroke-linejoin="round"/>
<path d="M39.3851 19.8551L33.8411 12.876L28.2969 19.8551H30.4655V30.3623H37.2167V19.8551H39.3851Z" fill="#263238" stroke="#263238" stroke-width="0.210526" stroke-miterlimit="10" stroke-linecap="round" stroke-linejoin="round"/>
<path d="M39.3851 19.4032L33.8411 12.4241L28.2969 19.4032H30.4655V29.9106H37.2167V19.4032H39.3851Z" fill="white" stroke="#263238" stroke-width="0.210526" stroke-miterlimit="10" stroke-linecap="round" stroke-linejoin="round"/>
<path d="M44.6558 28.7241H22.1055V51.2744H44.6558V28.7241Z" fill="white" stroke="#263238" stroke-width="0.210526" stroke-miterlimit="10" stroke-linecap="round" stroke-linejoin="round"/>
<path d="M43.6069 29.7729H23.1543V50.2256H43.6069V29.7729Z" fill="#05A155" stroke="#263238" stroke-width="0.210526" stroke-miterlimit="10" stroke-linecap="round" stroke-linejoin="round"/>
<path d="M38.8627 36.6585L34.0937 41.6444L30.3785 40.6041C30.0084 40.5006 29.6111 40.5717 29.3 40.7974L23.1543 45.2547V50.2258H43.6069V39.7088L40.681 36.6576C40.185 36.1401 39.3581 36.1406 38.8627 36.6585Z" fill="white" stroke="#263238" stroke-width="0.210526" stroke-miterlimit="10" stroke-linecap="round" stroke-linejoin="round"/>
<path d="M33.1269 36.2545C33.6682 34.9361 33.0382 33.4284 31.7197 32.8871C30.4012 32.3458 28.8935 32.9758 28.3522 34.2943C27.8109 35.6128 28.4409 37.1205 29.7594 37.6618C31.0779 38.2031 32.5856 37.573 33.1269 36.2545Z" fill="white" stroke="#263238" stroke-width="0.210526" stroke-miterlimit="10" stroke-linecap="round" stroke-linejoin="round"/>
<path d="M51.082 42.5999L45.4458 48.3942L36.8574 50.7601C36.8574 50.7601 36.0917 49.8688 35.539 49.8637C34.9864 49.8587 33.2117 50.5056 33.2117 50.5056C33.2117 50.5056 32.9856 51.0564 33.4277 51.0604C33.8698 51.0644 34.7561 50.8515 34.7561 50.8515L32.3203 51.2713C32.3805 51.6547 32.7092 51.9382 33.0972 51.9416L34.1934 51.9517L36.0704 52.19L37.8441 51.6536C37.8441 51.6536 46.254 50.7359 46.6972 50.6294C47.1403 50.5229 54.2715 44.3978 54.2715 44.3978C54.2715 44.3978 55.0788 43.6879 54.7708 42.865C54.4631 42.042 52.891 41.4597 52.891 41.4597" fill="white"/>
<path d="M51.082 42.5999L45.4458 48.3942L36.8574 50.7601C36.8574 50.7601 36.0917 49.8688 35.539 49.8637C34.9864 49.8587 33.2117 50.5056 33.2117 50.5056C33.2117 50.5056 32.9856 51.0564 33.4277 51.0604C33.8698 51.0644 34.7561 50.8515 34.7561 50.8515L32.3203 51.2713C32.3805 51.6547 32.7092 51.9382 33.0972 51.9416L34.1934 51.9517L36.0704 52.19L37.8441 51.6536C37.8441 51.6536 46.254 50.7359 46.6972 50.6294C47.1403 50.5229 54.2715 44.3978 54.2715 44.3978C54.2715 44.3978 55.0788 43.6879 54.7708 42.865C54.4631 42.042 52.891 41.4597 52.891 41.4597" stroke="#263238" stroke-width="0.210526" stroke-miterlimit="10" stroke-linecap="round" stroke-linejoin="round"/>
<path d="M50.0639 43.2043L45.7686 47.5138L48.965 49.8144L54.5077 44.5949C55.0627 44.0721 55.1854 43.2323 54.7913 42.5797C54.7852 42.5696 54.7791 42.5595 54.773 42.5494C54.1515 41.5342 53.146 41.0835 53.146 41.0835" fill="#D94841"/>
<path d="M50.0639 43.2043L45.7686 47.5138L48.965 49.8144L54.5077 44.5949C55.0627 44.0721 55.1854 43.2323 54.7913 42.5797C54.7852 42.5696 54.7791 42.5595 54.773 42.5494C54.1515 41.5342 53.146 41.0835 53.146 41.0835" stroke="#263238" stroke-width="0.210526" stroke-miterlimit="10" stroke-linecap="round" stroke-linejoin="round"/>
<path d="M48.965 49.8145L49.7161 49.1071L46.5098 46.7703L45.7686 47.5138L48.965 49.8145Z" fill="#263238" stroke="#263238" stroke-width="0.210526" stroke-miterlimit="10" stroke-linecap="round" stroke-linejoin="round"/>
<path d="M28.4023 50.8476L29.2127 51.724L29.9965 51.811L28.7773 50.7661L28.4023 50.8476Z" fill="white" stroke="#263238" stroke-width="0.210526" stroke-miterlimit="10" stroke-linecap="round" stroke-linejoin="round"/>
<path d="M29.9268 50.8476L30.7373 51.724L31.5209 51.811L30.3019 50.7661L29.9268 50.8476Z" fill="white" stroke="#263238" stroke-width="0.210526" stroke-miterlimit="10" stroke-linecap="round" stroke-linejoin="round"/>
<path d="M29.9973 51.8108L29.083 50.6353H29.6489L30.7811 51.8108L30.3022 51.898L29.9973 51.8108Z" fill="white" stroke="#263238" stroke-width="0.210526" stroke-miterlimit="10" stroke-linecap="round" stroke-linejoin="round"/>
<path d="M28.0811 50.94L28.4731 51.6803L29.2131 51.7238L28.4027 50.8474L28.0811 50.94Z" fill="white" stroke="#263238" stroke-width="0.210526" stroke-miterlimit="10" stroke-linecap="round" stroke-linejoin="round"/>
</svg>
