<svg xmlns="http://www.w3.org/2000/svg" xmlns:xlink="http://www.w3.org/1999/xlink" version="1.1" x="0px" y="0px" viewBox="0 0 32 40" style="enable-background:new 0 0 32 32;" xml:space="preserve"><path d="M29.7,2.3L2.3,29.7c-0.1,0.1,0,0.3,0.1,0.3H24V10.3c0-0.2,0.1-0.3,0.3-0.3h5.5c0.2,0,0.3-0.1,0.3-0.3V2.5  C30,2.3,29.8,2.2,29.7,2.3z"/><path d="M27,12c-0.6,0-1,0.4-1,1v12c0,0.6,0.4,1,1,1s1-0.4,1-1V13C28,12.4,27.6,12,27,12z"/><circle cx="27" cy="29" r="1"/><text x="0" y="47" fill="#000000" font-size="5px" font-weight="bold" font-family="'Helvetica Neue', Helvetica, Arial-Unicode, Arial, Sans-serif">Created by pertiwi putri</text><text x="0" y="52" fill="#000000" font-size="5px" font-weight="bold" font-family="'Helvetica Neue', Helvetica, Arial-Unicode, Arial, Sans-serif">from the Noun Project</text></svg>