<svg width="90" height="71" viewBox="0 0 90 71" fill="none" xmlns="http://www.w3.org/2000/svg">
<path d="M51.5777 29.1275C52.8229 30.1167 53.0327 31.9252 52.0473 33.1732C51.5546 33.7953 50.8544 34.1591 50.1217 34.2442C49.389 34.3294 48.6276 34.1351 48.0017 33.6428C38.2285 25.8998 23.9791 27.5543 16.2403 37.3313C15.2511 38.5765 13.4426 38.7864 12.1946 37.8009C10.9495 36.8118 10.7396 35.0033 11.725 33.7553C21.4356 21.4932 39.316 19.4169 51.5777 29.1275Z" fill="#6D869A"/>
<path d="M45.4528 38.1407C46.6975 39.1261 46.9079 40.9383 45.922 42.1831C45.4293 42.8052 44.7291 43.1694 43.9964 43.2546C43.2636 43.3398 42.5022 43.1454 41.8763 42.6532C39.2594 40.5774 35.9818 39.6466 32.6509 40.0334C29.3163 40.4207 26.3394 42.0776 24.2679 44.6979C23.2787 45.9431 21.4707 46.1567 20.2222 45.1675C18.9775 44.1821 18.7672 42.3699 19.7531 41.1252C22.7822 37.2998 27.1267 34.8791 31.9874 34.3148C36.8444 33.7506 41.6279 35.1115 45.4533 38.1407H45.4528Z" fill="#6D869A"/>
<path d="M58.1729 24.1638C57.6765 24.7864 56.98 25.1497 56.2473 25.2348C55.5146 25.32 54.7494 25.1261 54.1273 24.6334C39.9979 13.4409 19.4016 15.833 8.21294 29.9652C7.22376 31.2104 5.41529 31.4202 4.16729 30.4348C2.92212 29.4457 2.71223 27.6372 3.69764 26.3892C16.8576 9.7713 41.0854 6.95813 57.7033 20.1181C58.9485 21.1073 59.1583 22.9158 58.1729 24.1638Z" fill="#6D869A"/>
<path d="M39.0918 52.237C39.8184 49.3778 38.0897 46.4709 35.2305 45.7442C32.3713 45.0175 29.4643 46.7463 28.7376 49.6055C28.011 52.4647 29.7397 55.3717 32.5989 56.0983C35.4581 56.825 38.3651 55.0962 39.0918 52.237Z" fill="#6D869A"/>
<path d="M54.6757 49.448C54.6503 49.5247 51.1901 54.8889 51.1901 54.8889L46.1336 44.8438L40.6875 49.2005L45.6588 61.6574C46.5755 63.5943 48.4644 64.888 50.6019 65.0428C52.808 65.2028 54.9204 64.1242 56.0852 62.2438L63.0776 50.9515L54.6762 49.4485L54.6757 49.448Z" fill="white"/>
<path d="M51.0373 65.208C50.889 65.208 50.7403 65.2028 50.5911 65.192C48.4038 65.0334 46.4617 63.7035 45.5234 61.7209L40.5483 49.2555C40.5238 49.1944 40.5422 49.1242 40.594 49.0828L46.0401 44.7261C46.0754 44.6979 46.1215 44.6871 46.1657 44.6965C46.21 44.7059 46.2476 44.7351 46.2678 44.7755L51.2067 54.5868C52.2283 53.0023 54.4594 49.5365 54.5413 49.3821C54.5648 49.3115 54.6288 49.2866 54.7027 49.2998L63.1041 50.8028C63.153 50.8118 63.1944 50.8438 63.2147 50.8894C63.2349 50.9346 63.2316 50.9873 63.2053 51.0296L56.2128 62.3219C55.0937 64.1294 53.1398 65.208 51.0373 65.208ZM40.8683 49.248L45.7982 61.6014C46.6867 63.4776 48.5328 64.7421 50.6128 64.8927C52.7709 65.0489 54.8184 64.0033 55.9577 62.1642L62.834 51.0598L54.7502 49.6136C54.5686 49.9096 53.8909 50.9793 51.3168 54.9703C51.2876 55.0155 51.2382 55.0423 51.1827 55.0391C51.129 55.0362 51.081 55.0047 51.0566 54.9567L46.0834 45.0767L40.8688 49.2485L40.8683 49.248Z" fill="#030047"/>
<path d="M64.0874 43.6767L60.9368 54.3826L57.1622 52.7925L54.1717 51.5322L52.6074 50.8739L56.2921 45.625C57.4385 43.9948 59.3768 43.1087 61.3608 43.3087L64.0874 43.6767Z" fill="#0494FD"/>
<path d="M60.936 54.5322C60.9163 54.5322 60.8965 54.5285 60.8777 54.5205L52.5492 51.0122C52.5078 50.9948 52.4763 50.9595 52.4636 50.9162C52.4509 50.8729 52.4584 50.8263 52.4843 50.7892L55.888 45.8574C55.9351 45.7892 56.0287 45.7722 56.0965 45.8193C56.1647 45.8663 56.1817 45.96 56.1346 46.0278L52.8358 50.8075L60.8391 54.1788L62.1313 49.7416C62.1549 49.6621 62.2377 49.6165 62.3172 49.6395C62.3967 49.6626 62.4424 49.7459 62.4193 49.8254L61.08 54.4245C61.0678 54.4654 61.0391 54.4998 61.0005 54.5181C60.9803 54.528 60.9582 54.5327 60.936 54.5327V54.5322Z" fill="#030047"/>
<path d="M61.9161 43.4249C61.9161 43.4249 67.8229 44.0856 69.9716 44.4616C71.5363 44.7355 75.3439 45.3779 77.4032 46.0499C78.3034 46.3435 78.845 47.456 78.8041 48.4023L77.9867 67.2725H55.2559L61.9156 43.4249H61.9161Z" fill="#0494FD"/>
<g opacity="0.4">
<path d="M69.5835 49.9412C70.2073 49.9412 70.7129 49.4355 70.7129 48.8118C70.7129 48.188 70.2073 47.6823 69.5835 47.6823C68.9598 47.6823 68.4541 48.188 68.4541 48.8118C68.4541 49.4355 68.9598 49.9412 69.5835 49.9412Z" fill="white"/>
</g>
<g opacity="0.4">
<path d="M73.0879 53.5299C73.511 53.5299 73.854 53.1869 73.854 52.7638C73.854 52.3407 73.511 51.9977 73.0879 51.9977C72.6648 51.9977 72.3218 52.3407 72.3218 52.7638C72.3218 53.1869 72.6648 53.5299 73.0879 53.5299Z" fill="white"/>
</g>
<path d="M72.707 45.3581L73.9253 39.0193L68.3639 37.9501C68.3639 37.9501 66.5709 44.0748 66.5747 44.0814C66.9517 47.3191 69.4185 47.8198 72.707 45.3581Z" fill="white"/>
<path d="M69.0695 47.0574C68.7058 47.0574 68.3693 46.993 68.0662 46.8626C67.1575 46.472 66.59 45.5162 66.4253 44.0988L66.4361 44.0974C66.4592 43.9224 66.7081 43.0725 68.2196 37.9078C68.2413 37.8334 68.3156 37.7878 68.3919 37.8024L73.9533 38.8715C73.9924 38.8791 74.0267 38.9017 74.0493 38.9346C74.0714 38.9675 74.0799 39.008 74.0724 39.0471L72.854 45.3859C72.8469 45.4226 72.8267 45.4551 72.7966 45.4777C71.4069 46.5181 70.1218 47.057 69.0695 47.057V47.0574ZM66.7265 44.0927C66.8822 45.3817 67.3862 46.2438 68.1848 46.5873C69.2521 47.0466 70.8083 46.5798 72.5702 45.2729L73.7495 39.1388L68.4691 38.1238C67.8752 40.1529 66.8225 43.7534 66.7265 44.0932V44.0927Z" fill="#030047"/>
<path d="M73.7945 39.7073C75.7799 36.8823 76.3973 32.2386 76.3973 32.2386L69.6283 28.3016C69.4585 28.415 64.7347 29.7341 64.0043 35.0132C63.354 39.7153 64.5794 42.9501 71.186 41.783" fill="white"/>
<path d="M68.7203 42.1746C67.0732 42.1746 65.8506 41.7746 65.0134 40.9685C63.8351 39.8334 63.4563 37.8786 63.8553 34.9929C64.292 31.8362 66.2704 29.432 69.4257 28.2231C69.4892 28.1986 69.5325 28.1826 69.5513 28.1732C69.5993 28.1412 69.6539 28.1435 69.7033 28.1722L76.4723 32.1092C76.5245 32.1398 76.5537 32.1986 76.5457 32.2588C76.5396 32.3054 75.9005 36.9713 73.917 39.7939C73.8694 39.8616 73.7753 39.8776 73.708 39.8306C73.6403 39.7831 73.6238 39.6894 73.6713 39.6216C75.4544 37.0852 76.1306 33.0028 76.2341 32.3181L69.6191 28.4706C69.5965 28.4795 69.5687 28.4903 69.5334 28.5035C66.485 29.6715 64.5739 31.9911 64.1527 35.0343C63.7678 37.8183 64.1174 39.6889 65.2219 40.7529C66.3621 41.8513 68.3047 42.1402 71.1603 41.6358C71.2417 41.6216 71.3198 41.6758 71.3339 41.7572C71.3485 41.8386 71.2939 41.9167 71.212 41.9308C70.293 42.0932 69.4633 42.1746 68.7203 42.1746Z" fill="#030047"/>
<path d="M72.4607 27.1407C72.4607 27.1407 74.6884 26.2626 75.7647 27.0936C76.8409 27.9242 75.6324 29.888 75.6324 29.888C75.6324 29.888 77.4828 29.5859 78.408 31.7007C79.3332 33.8155 75.9722 36.7341 75.9722 36.7341C75.9722 36.7341 74.0362 35.4706 74.0249 35.4631C74.0626 35.4875 73.9124 35.5845 73.9011 35.5882C73.7275 35.6518 73.4282 35.3741 73.3416 35.2569C73.1826 35.0423 73.1459 34.7308 73.04 34.4809C72.9148 34.1849 72.7567 33.9026 72.5722 33.6395C71.8513 32.6122 70.7134 31.8663 69.464 31.6899C68.728 31.5859 67.9727 31.6626 67.2419 31.5247C66.3289 31.3525 65.4851 30.8362 64.9167 30.1012C64.3482 29.3666 64.0597 28.4198 64.1228 27.4932C64.159 26.9534 64.3223 26.4023 64.6908 26.0061C65.2174 25.44 66.0428 25.2936 66.807 25.1783C67.9214 25.0103 69.0701 24.8433 70.1642 25.1134C71.2583 25.3835 72.2969 26.2028 72.4687 27.3162" fill="#4C5053"/>
<path d="M66.3483 34.5948C66.2104 34.8842 65.9412 35.0438 65.7469 34.9515C65.5525 34.8593 65.5073 34.5492 65.6452 34.2598C65.7831 33.9704 66.0523 33.8108 66.2466 33.9031C66.441 33.9953 66.4862 34.3054 66.3483 34.5948Z" fill="#030047"/>
<path d="M66.0815 33.2268C66.4947 33.2165 66.8834 33.4814 67.067 33.8993Z" fill="white"/>
<path d="M67.0667 34.0499C67.0088 34.0499 66.9538 34.0165 66.9293 33.96C66.7698 33.5967 66.4394 33.368 66.0846 33.3769C66.0023 33.3774 65.9331 33.3134 65.9307 33.2306C65.9284 33.1478 65.9943 33.0791 66.0771 33.0767C66.5524 33.0659 66.9947 33.3642 67.2037 33.8391C67.2371 33.9148 67.2027 34.0033 67.1265 34.0367C67.1067 34.0452 67.0865 34.0494 67.0663 34.0494L67.0667 34.0499Z" fill="#030047"/>
<path d="M69.4069 36.0514C69.5449 35.7618 69.4993 35.4521 69.305 35.3595C69.1107 35.2669 68.8414 35.4266 68.7034 35.7161C68.5655 36.0056 68.6111 36.3154 68.8054 36.408C68.9996 36.5005 69.269 36.3409 69.4069 36.0514Z" fill="#030047"/>
<path d="M69.1382 34.68C69.5514 34.6697 69.9401 34.9346 70.1236 35.3525Z" fill="white"/>
<path d="M70.1238 35.5026C70.066 35.5026 70.0109 35.4692 69.9864 35.4127C69.8269 35.0494 69.4984 34.8202 69.1417 34.8297C69.0556 34.8306 68.9902 34.7661 68.9878 34.6833C68.986 34.6005 69.0514 34.5318 69.1342 34.5294C69.6095 34.5177 70.0518 34.8169 70.2608 35.2918C70.2942 35.3675 70.2598 35.456 70.1836 35.4894C70.1638 35.4979 70.1436 35.5021 70.1234 35.5021L70.1238 35.5026Z" fill="#030047"/>
<path d="M73.9249 35.4988C73.9249 35.4988 76.0256 34.0951 76.9386 34.6376C77.8511 35.1798 76.7932 38.5656 75.5631 38.6583C74.3329 38.7511 73.4868 38.1031 73.4868 38.1031" fill="white"/>
<path d="M75.3202 38.8169C74.1875 38.8169 73.4299 38.2475 73.3955 38.2212C73.3301 38.1708 73.3174 38.0772 73.3678 38.0113C73.4176 37.9454 73.5122 37.9327 73.5781 37.9831C73.5861 37.9892 74.3969 38.5948 75.5522 38.5082C76.1711 38.4617 76.7889 37.3774 77.0285 36.3562C77.2148 35.5614 77.1499 34.9369 76.8623 34.7661C76.1814 34.3614 74.5715 35.2475 74.0087 35.6235C73.9395 35.6697 73.8463 35.6508 73.8007 35.5821C73.7546 35.5134 73.7729 35.4202 73.8421 35.3741C73.9311 35.3148 76.0332 33.9247 77.0158 34.5087C77.4303 34.7553 77.5447 35.4715 77.3207 36.4254C77.0534 37.5642 76.3678 38.7482 75.5748 38.808C75.4882 38.8146 75.4031 38.8174 75.3207 38.8174L75.3202 38.8169Z" fill="#030047"/>
<path d="M75.7451 37.1482C75.7145 37.1482 75.6839 37.1388 75.6571 37.12C75.5898 37.0715 75.5748 36.9779 75.6232 36.9106C75.7503 36.7346 75.8425 36.5294 75.8901 36.3176C75.9169 36.1967 75.9122 36.1125 75.8759 36.0668C75.8505 36.0348 75.8011 36.015 75.747 36.0146C75.6976 36.0127 75.6256 36.032 75.5498 36.0696C75.4369 36.1256 75.3343 36.2066 75.2533 36.303C75.2002 36.3666 75.1056 36.375 75.0421 36.3219C74.9785 36.2687 74.9701 36.1741 75.0232 36.1106C75.1305 35.9821 75.2665 35.8753 75.4166 35.8009C75.5357 35.7416 75.6406 35.7148 75.7503 35.7148C75.8948 35.7162 76.0298 35.7783 76.1112 35.8805C76.2077 36.0019 76.2312 36.1666 76.1832 36.383C76.1272 36.6348 76.0181 36.8781 75.867 37.087C75.8378 37.1275 75.7917 37.1492 75.7451 37.1492V37.1482Z" fill="#030047"/>
<path d="M67.491 35.0565C67.2943 35.4758 66.732 36.6052 66.5353 37.0245C66.4167 37.2776 66.2962 37.5407 66.3193 37.8113C66.3423 38.0819 66.5527 38.3619 66.876 38.4118" fill="white"/>
<path d="M66.8758 38.5614C66.8683 38.5614 66.8607 38.5609 66.8527 38.5595C66.4395 38.496 66.1963 38.1412 66.1694 37.8235C66.1426 37.5082 66.2791 37.2169 66.3991 36.9605C66.4974 36.7506 66.6866 36.3642 66.8767 35.9774C67.0664 35.5901 67.2565 35.2023 67.3548 34.9925C67.3901 34.9176 67.4791 34.8852 67.5544 34.9205C67.6292 34.9558 67.6617 35.0452 67.6264 35.12C67.5275 35.3308 67.3365 35.7205 67.1459 36.1096C66.9572 36.4946 66.7685 36.8795 66.6706 37.088C66.5666 37.3106 66.448 37.5628 66.4683 37.7986C66.4847 37.9943 66.6414 38.224 66.8979 38.2635C66.9798 38.2762 67.0358 38.3525 67.0235 38.4348C67.0123 38.5092 66.9483 38.5619 66.8753 38.5619L66.8758 38.5614Z" fill="#030047"/>
<path d="M67.878 40.1064C67.8635 40.1064 67.8489 40.104 67.8343 40.0998C67.7552 40.0758 67.7105 39.992 67.7345 39.9125C67.8644 39.4866 68.1637 39.1214 68.5557 38.9106C68.9477 38.6998 69.4173 38.6513 69.8446 38.7779C69.9242 38.8014 69.9693 38.8847 69.9458 38.9642C69.9223 39.0438 69.8385 39.0889 69.7595 39.0654C69.4079 38.9609 69.0211 39.0009 68.6983 39.1746C68.3755 39.3482 68.1289 39.6489 68.022 40C68.0023 40.0645 67.943 40.1064 67.8785 40.1064H67.878Z" fill="#030047"/>
<path d="M59.0189 53.9511C59.0057 53.9511 58.9921 53.9492 58.9789 53.9454C58.8989 53.9233 58.8523 53.841 58.874 53.761L60.7916 46.8085C60.8137 46.7285 60.897 46.6819 60.9761 46.7035C61.0561 46.7257 61.1027 46.808 61.081 46.888L59.1634 53.8405C59.145 53.9068 59.0848 53.9506 59.0189 53.9506V53.9511Z" fill="#030047"/>
<path d="M84.4991 59.3176H75.2073L73.5791 45.1209L76.7937 45.5351C78.2502 45.6673 79.5584 46.3793 80.4544 47.4635C80.8986 47.9976 81.2426 48.6235 81.4544 49.3139C81.5683 49.688 81.6864 50.072 81.8064 50.464C82.8445 53.8485 84.021 57.7355 84.4991 59.3176Z" fill="#0494FD"/>
<g opacity="0.4">
<path d="M77.6538 57.3541C77.8688 57.265 77.9708 57.0187 77.8818 56.8038C77.7928 56.5889 77.5464 56.4868 77.3315 56.5758C77.1166 56.6648 77.0145 56.9112 77.1036 57.1261C77.1926 57.341 77.4389 57.4431 77.6538 57.3541Z" fill="white"/>
</g>
<path d="M74.9863 59.552C74.9072 59.552 74.8418 59.4908 74.8366 59.4122L74.1703 49.5426C74.1646 49.4598 74.2272 49.3882 74.31 49.3826C74.39 49.3765 74.4644 49.4395 74.47 49.5223L75.127 59.2508L84.2983 59.1694C84.182 58.7774 83.9971 58.1421 83.7811 57.4009C83.2884 55.7087 82.614 53.3915 82.2498 52.2372C82.2249 52.1581 82.2686 52.0739 82.3477 52.0489C82.4267 52.024 82.511 52.0678 82.5359 52.1468C82.9011 53.3045 83.5764 55.6235 84.0691 57.3172C84.3242 58.1943 84.5364 58.9223 84.6423 59.2748C84.6559 59.32 84.6475 59.3689 84.6197 59.4071C84.5915 59.4452 84.5472 59.4678 84.5002 59.4682L74.9877 59.5525H74.9863V59.552Z" fill="#030047"/>
<path d="M84.3069 59.3176L84.8923 62.9275C85.2363 65.4565 83.6942 67.8616 81.2523 68.6047C78.73 69.3722 76.0321 68.1318 74.9738 65.7167L67.7563 49.6701L67.785 49.7332C67.8763 49.9332 67.8265 50.1689 67.6627 50.3153C67.4392 50.5148 67.0914 50.4748 66.9187 50.2296L65.3192 47.9529C65.0627 47.5882 65.0006 47.1106 65.1893 46.7068C65.3102 46.448 65.5163 46.2367 65.8674 46.272C65.8674 46.272 65.9832 45.2231 66.7818 45.2612C66.7818 45.2612 67.0288 44.1412 68.0669 44.4127L66.3389 41.9115C66.0491 41.5205 66.1436 40.9661 66.5469 40.6936C66.8938 40.4593 67.3596 40.5101 67.6472 40.8146C67.6472 40.8146 70.7201 43.5656 71.9168 45.0725C74.5723 48.4169 81.3455 59.3172 81.3455 59.3172H84.305L84.3069 59.3176Z" fill="white"/>
<path d="M79.7383 68.9807C77.6621 68.9807 75.7082 67.7656 74.8362 65.7769L67.8743 50.2983C67.8437 50.3449 67.8061 50.3887 67.7628 50.4273C67.624 50.551 67.4385 50.6094 67.2545 50.5882C67.0701 50.567 66.903 50.4677 66.7962 50.3157L65.1967 48.039C64.9021 47.6198 64.8475 47.0847 65.0541 46.6433C65.207 46.3167 65.4423 46.1379 65.7402 46.1195C65.8211 45.7219 66.0861 45.1553 66.6696 45.1129C66.7317 44.9289 66.8884 44.5713 67.2202 44.368C67.3802 44.2701 67.5581 44.2207 67.7524 44.2202L66.2164 41.9972C66.0545 41.7788 65.9896 41.5059 66.0362 41.2334C66.0828 40.9605 66.2348 40.7247 66.4644 40.5699C66.8738 40.2927 67.4178 40.3525 67.7576 40.712C67.7797 40.7308 70.8451 43.48 72.0357 44.9798C74.5543 48.152 80.8404 58.2212 81.4301 59.168H84.3063C84.3797 59.168 84.4428 59.2212 84.4545 59.2941L85.04 62.904C85.3962 65.5237 83.8216 67.9802 81.296 68.7487C80.7793 68.9059 80.255 68.9812 79.7383 68.9812V68.9807ZM67.9322 49.695L75.1105 65.655C76.1388 68.0005 78.76 69.2061 81.2089 68.4607C83.5929 67.735 85.0795 65.4165 84.7435 62.9473L84.1793 59.4673H81.3473C81.2955 59.4673 81.247 59.4405 81.2197 59.3962C81.152 59.2875 74.4211 48.4649 71.8009 45.1656C70.6254 43.6856 67.5793 40.9534 67.5487 40.9261C67.3011 40.6654 66.92 40.6235 66.6324 40.8179C66.4715 40.9266 66.3651 41.0922 66.3322 41.2833C66.2993 41.4748 66.3454 41.6659 66.4607 41.8221L68.1915 44.327C68.2273 44.3788 68.2268 44.447 68.191 44.4983C68.1548 44.5496 68.0903 44.5732 68.0301 44.5576C67.7769 44.4913 67.5581 44.5134 67.3783 44.6226C67.0371 44.8301 66.9303 45.2889 66.9289 45.2936C66.9129 45.3647 66.8498 45.415 66.7755 45.4108C66.1223 45.3783 66.0183 46.279 66.0174 46.288C66.0084 46.3699 65.9345 46.4292 65.8531 46.4207C65.6178 46.3972 65.447 46.511 65.3261 46.7699C65.1651 47.1143 65.2098 47.5346 65.4428 47.8663L67.0423 50.143C67.1007 50.2263 67.1887 50.2786 67.2894 50.2899C67.3901 50.3016 67.4875 50.2706 67.5632 50.2033C67.6743 50.1045 67.7105 49.9496 67.6564 49.8127L67.6202 49.7318C67.5863 49.6565 67.6202 49.5675 67.695 49.5336C67.7703 49.4997 67.8588 49.5327 67.8936 49.608L67.9223 49.671C67.9261 49.679 67.9294 49.687 67.9327 49.695H67.9322Z" fill="#030047"/>
<path d="M67.7565 49.8202C67.7099 49.8202 67.6638 49.7986 67.6342 49.7576L66.6045 48.3172C66.5565 48.2499 66.5721 48.1562 66.6394 48.1078C66.7066 48.0598 66.8003 48.0753 66.8488 48.1426L67.8784 49.5831C67.9264 49.6504 67.9109 49.744 67.8436 49.7925C67.8172 49.8113 67.7866 49.8202 67.7565 49.8202Z" fill="#030047"/>
<path d="M67.4195 46.2C67.3758 46.2 67.3325 46.1812 67.3028 46.1445L66.6657 45.3558C66.6134 45.2913 66.6238 45.1967 66.6883 45.1449C66.7527 45.0927 66.8473 45.1031 66.8991 45.1675L67.5363 45.9562C67.5885 46.0207 67.5781 46.1153 67.5137 46.1671C67.4859 46.1896 67.4525 46.2005 67.4195 46.2005V46.2Z" fill="#030047"/>
<path d="M66.4189 46.9798C66.3803 46.9798 66.3413 46.9647 66.3121 46.9351L65.7615 46.3769C65.7032 46.3181 65.7041 46.2231 65.7629 46.1647C65.8217 46.1063 65.9168 46.1073 65.9751 46.1661L66.5257 46.7242C66.5841 46.7831 66.5831 46.8781 66.5243 46.9365C66.4951 46.9652 66.457 46.9798 66.4189 46.9798Z" fill="#030047"/>
<path d="M82.5362 61.3751C82.4864 61.3751 82.4374 61.3501 82.4087 61.3045L81.2195 59.3972C81.1758 59.3271 81.1969 59.2344 81.2675 59.1906C81.3376 59.1468 81.4303 59.168 81.4741 59.2386L82.6633 61.1459C82.7071 61.216 82.6859 61.3087 82.6153 61.3525C82.5903 61.368 82.5631 61.3751 82.5358 61.3751H82.5362Z" fill="#030047"/>
<path d="M68.8398 45.4245C68.7984 45.4245 68.7575 45.4075 68.7278 45.3746L67.9561 44.5129C67.901 44.4513 67.9062 44.3562 67.9678 44.3012C68.0295 44.2457 68.1246 44.2513 68.1796 44.3129L68.9514 45.1746C69.0064 45.2362 69.0013 45.3313 68.9396 45.3864C68.9109 45.4122 68.8751 45.4245 68.8394 45.4245H68.8398Z" fill="#030047"/>
<path d="M50.7654 48.0946H43.9183C43.3899 48.095 42.923 47.752 42.7654 47.2475L38.8346 35.1313C38.5917 34.3539 39.1724 33.5638 39.9875 33.5638H46.8346C47.363 33.5633 47.8299 33.9063 47.9875 34.4108L51.9183 46.527C52.1611 47.3045 51.5804 48.0946 50.7654 48.0946Z" fill="url(#paint0_linear_2047_3376)"/>
<path d="M49.9811 47.8993H43.3707C42.8423 47.8998 42.3754 47.5567 42.2178 47.0522L38.6441 35.6122C38.4013 34.8348 38.982 34.0447 39.7971 34.0447H46.4074C46.9359 34.0442 47.4027 34.3873 47.5604 34.8918L51.134 46.3318C51.3768 47.1092 50.7961 47.8993 49.9811 47.8993Z" fill="url(#paint1_linear_2047_3376)"/>
<path d="M40.9558 49.7873C40.9558 49.7873 39.3892 47.1379 39.1172 46.008C38.8471 44.8758 38.7794 42.2889 40.2217 40.92C41.6203 39.5929 43.3022 39.1595 45.0904 39.7859C46.8805 40.4141 46.1328 41.1962 46.1328 41.1962C46.1328 41.1962 48.0711 41.3002 48.145 42.0183C48.193 42.4885 47.689 42.6503 47.3347 42.7082C48.0528 42.7162 48.489 43.2485 48.3187 43.8442C48.1248 44.5266 46.2561 44.6565 46.2561 44.6565C46.7563 44.6466 47.2622 44.9506 47.1742 45.6146C47.0881 46.2786 45.8739 46.4828 45.8739 46.4828C47.0179 47.5148 45.8739 48.7153 45.8739 48.7153" fill="white"/>
<path d="M40.9556 49.9374C40.9043 49.9374 40.8544 49.9111 40.8262 49.8635C40.7617 49.7544 39.245 47.1817 38.9706 46.0428C38.6591 44.7365 38.6949 42.1609 40.1179 40.8108C41.5913 39.4132 43.3278 39.0094 45.1396 39.6438C45.8935 39.9082 46.3236 40.2419 46.4182 40.6358C46.4586 40.8042 46.4299 40.952 46.3848 41.0649C46.9481 41.1214 48.2243 41.3242 48.2939 42.0024C48.3132 42.1901 48.2723 42.4828 47.9076 42.6824C48.0713 42.7591 48.2102 42.8692 48.3137 43.008C48.5001 43.2579 48.5532 43.5694 48.4629 43.8852C48.3255 44.3685 47.5589 44.6033 46.9659 44.7144C47.0182 44.7525 47.0662 44.7958 47.1085 44.8433C47.2906 45.0466 47.3645 45.3205 47.3231 45.6344C47.2511 46.1906 46.5603 46.4598 46.1669 46.5689C46.397 46.84 46.5193 47.1407 46.5316 47.4664C46.5593 48.2047 46.0064 48.7939 45.9829 48.8184C45.9255 48.8781 45.8309 48.8805 45.7711 48.8235C45.7113 48.7666 45.7085 48.6715 45.7655 48.6113C45.7702 48.6061 46.2558 48.0861 46.2318 47.4753C46.2191 47.1529 46.0648 46.8565 45.7735 46.5934C45.7306 46.5548 45.7137 46.4955 45.7302 46.44C45.7462 46.3849 45.7923 46.3435 45.8492 46.3341C46.1565 46.2819 46.9669 46.0475 47.0257 45.5944C47.0558 45.3661 47.0088 45.1807 46.885 45.0424C46.7481 44.8889 46.5132 44.8005 46.2591 44.8057C46.1777 44.8075 46.1099 44.744 46.1062 44.6626C46.1024 44.5812 46.1645 44.512 46.2455 44.5064C46.9273 44.4588 48.0539 44.2254 48.1739 43.8028C48.2379 43.5788 48.2017 43.3605 48.0728 43.1873C47.9193 42.9812 47.6492 42.8612 47.3325 42.8574C47.2549 42.8565 47.1904 42.7962 47.1848 42.7186C47.1791 42.6409 47.2332 42.5718 47.3104 42.5591C47.7928 42.48 48.0233 42.3026 47.9956 42.0325C47.9495 41.5868 46.7151 41.3769 46.1245 41.3449C46.0662 41.3417 46.0149 41.3049 45.9932 41.2504C45.9716 41.1958 45.9838 41.1337 46.0243 41.0913C46.0299 41.0852 46.1801 40.92 46.1259 40.7021C46.077 40.5049 45.8488 40.2099 45.0408 39.9266C43.3415 39.3318 41.7109 39.7125 40.325 41.0282C38.9937 42.2918 38.9669 44.7318 39.2629 45.9727C39.5264 47.0678 41.069 49.6842 41.0845 49.7106C41.1269 49.7821 41.1029 49.8739 41.0318 49.9162C41.0078 49.9304 40.9815 49.9369 40.9556 49.9369V49.9374Z" fill="#030047"/>
<path d="M46.1334 41.1972C46.1334 41.1972 45.0012 41.1233 44.221 41.3911C43.3603 41.6861 42.2412 42.2889 42.2412 42.2889" fill="white"/>
<path d="M42.2412 42.4391C42.1875 42.4391 42.1362 42.4104 42.1089 42.36C42.0694 42.2871 42.0967 42.1962 42.1701 42.1567C42.2162 42.1318 43.3099 41.5449 44.1725 41.2489C44.972 40.9751 46.0958 41.0442 46.1433 41.0475C46.2261 41.0527 46.2887 41.1242 46.2831 41.2071C46.2774 41.2899 46.2063 41.3525 46.1235 41.3468C46.1127 41.3463 45.0115 41.2781 44.2694 41.5327C43.4299 41.8207 42.3231 42.4146 42.3122 42.4207C42.2896 42.4329 42.2652 42.4386 42.2412 42.4386V42.4391Z" fill="#030047"/>
<path d="M47.3815 42.7097C47.3815 42.7097 45.7707 42.7929 45.1067 42.928C44.4427 43.0631 42.438 43.9981 42.438 43.9981" fill="white"/>
<path d="M42.4383 44.1482C42.3818 44.1482 42.3277 44.1162 42.3023 44.0617C42.267 43.9864 42.2999 43.8974 42.3747 43.8621C42.4571 43.8235 44.403 42.9186 45.0769 42.7812C45.7442 42.6452 47.3079 42.5633 47.3743 42.56C47.459 42.5562 47.5277 42.6193 47.5319 42.7021C47.5362 42.7849 47.4726 42.8555 47.3898 42.8598C47.3738 42.8607 45.7827 42.944 45.1371 43.0753C44.4976 43.2056 42.5216 44.1247 42.5018 44.1341C42.4811 44.1435 42.4599 44.1482 42.4387 44.1482H42.4383Z" fill="#030047"/>
<path d="M46.2577 44.656C46.2577 44.656 45.525 44.5732 44.6393 44.7393C43.7537 44.9054 42.813 45.5511 42.813 45.5511" fill="white"/>
<path d="M42.8134 45.7007C42.7654 45.7007 42.7184 45.6781 42.6897 45.6358C42.6431 45.5675 42.6605 45.4739 42.7287 45.4273C42.7683 45.4 43.7062 44.7619 44.612 44.592C45.5094 44.424 46.244 44.504 46.2746 44.5073C46.357 44.5167 46.4163 44.5911 46.4069 44.673C46.3974 44.7553 46.3236 44.8141 46.2412 44.8052C46.2342 44.8042 45.5184 44.7271 44.6676 44.8866C43.8247 45.0447 42.9076 45.6682 42.8986 45.6744C42.8727 45.6922 42.8431 45.7007 42.8139 45.7007H42.8134Z" fill="#030047"/>
<path d="M45.8747 46.4824C45.8747 46.4824 44.9364 46.4908 44.4686 46.6198C44.0009 46.7487 43.0625 47.2292 43.0625 47.2292" fill="white"/>
<path d="M43.0627 47.3793C43.0081 47.3793 42.9559 47.3496 42.929 47.2974C42.8914 47.2235 42.9206 47.1332 42.994 47.0955C43.033 47.0758 43.9516 46.6066 44.4288 46.4748C44.9098 46.3421 45.8345 46.3322 45.8735 46.3318H45.8749C45.9573 46.3318 46.0241 46.3981 46.0251 46.4805C46.026 46.5633 45.9592 46.6311 45.8763 46.632C45.8669 46.632 44.9521 46.6419 44.5088 46.7642C44.0613 46.8875 43.1403 47.3576 43.1309 47.3623C43.1093 47.3736 43.0858 47.3788 43.0627 47.3788V47.3793Z" fill="#030047"/>
<path d="M51.9739 56.6932C51.9179 56.6932 51.8638 56.6617 51.8384 56.6075L51.0549 54.9529C51.0196 54.8781 51.0516 54.7887 51.1264 54.7529C51.2012 54.7177 51.2907 54.7497 51.3259 54.8245L52.1095 56.4791C52.1448 56.5539 52.1128 56.6433 52.0379 56.6791C52.0172 56.6889 51.9951 56.6937 51.9739 56.6937V56.6932Z" fill="#030047"/>
<path d="M56.9343 16.3718C57.5282 11.8727 54.2357 7.72731 49.5802 7.11275C44.9247 6.4982 40.6693 9.64721 40.0754 14.1463C39.4815 18.6453 42.774 22.7907 47.4295 23.4053C52.0849 24.0199 56.3404 20.8708 56.9343 16.3718Z" fill="#F1282E"/>
<path d="M52.5187 17.9041L50.1239 19.6758C50.1168 19.681 50.1069 19.6796 50.1013 19.673L44.4966 12.6156L46.8914 10.8438C46.8985 10.8387 46.9083 10.8401 46.914 10.8467L52.5187 17.9041Z" fill="white"/>
<path d="M43.9482 16.7718L45.8009 19.1045C45.8061 19.1111 45.8165 19.1125 45.8235 19.1074L53.0682 13.7474L51.2155 11.4147C51.2104 11.4081 51.2 11.4067 51.1929 11.4118L43.9482 16.7718Z" fill="white"/>
<path d="M22.2717 60.0889L21.3602 61.0005C20.932 61.4254 20.2416 61.4254 19.8171 61.0005L18.9056 60.0889C18.4807 59.664 18.4807 58.9741 18.9056 58.5492L19.8171 57.6343C20.2421 57.2094 20.932 57.2094 21.3602 57.6343L22.2717 58.5492C22.6967 58.9741 22.6967 59.664 22.2717 60.0889Z" fill="#6D869A"/>
<path d="M14.097 53.4L13.8909 54.1619C13.793 54.5181 13.4265 54.7285 13.0712 54.6325L12.3093 54.4264C11.954 54.3304 11.7436 53.9638 11.8396 53.6085L12.0443 52.8447C12.1403 52.4894 12.5069 52.2791 12.8641 52.3741L13.6274 52.5821C13.9827 52.6781 14.193 53.0447 14.097 53.4Z" fill="#6D869A"/>
<path d="M57.537 37.8466L57.3309 38.6085C57.233 38.9647 56.8664 39.1751 56.5111 39.0791L55.7492 38.873C55.3939 38.777 55.1836 38.4104 55.2796 38.0551L55.4843 37.2913C55.5803 36.936 55.9469 36.7257 56.304 36.8207L57.0673 37.0287C57.4226 37.1247 57.633 37.4913 57.537 37.8466Z" fill="#6D869A"/>
<path d="M78.9627 27.2442C78.7881 27.1609 78.6582 27.0287 78.5726 26.8466C78.4869 26.6645 78.4831 26.4913 78.5613 26.3275C78.6766 26.0856 78.846 25.8984 79.07 25.7652C79.3203 25.6165 79.5608 25.5967 79.7904 25.7064C80.1707 25.8875 80.2511 26.2085 80.0319 26.6687C79.9297 26.8833 79.7862 27.0518 79.6013 27.1746C79.3777 27.3172 79.165 27.3402 78.9631 27.2438L78.9627 27.2442ZM80.349 25.176C80.1867 25.0988 80.0733 24.9694 80.0093 24.7878C79.9448 24.6061 79.95 24.4376 80.0243 24.2814C80.1528 24.0122 80.5641 23.8014 81.2591 23.6489L83.181 23.272C83.8982 23.0824 84.3424 22.808 84.5137 22.4489C84.7293 21.9962 84.7123 21.4758 84.4629 20.8875C84.2234 20.3186 83.87 19.9228 83.4031 19.7002C83.1537 19.5812 82.7768 19.5562 82.2728 19.6249C81.7688 19.6936 81.4709 19.7064 81.3801 19.6626C81.2177 19.5849 81.1086 19.4541 81.0535 19.2696C80.998 19.0852 81.0083 18.9129 81.0846 18.7529C81.2314 18.4447 81.6803 18.2828 82.4314 18.2673C83.1043 18.2527 83.6187 18.3304 83.9754 18.5002C84.7716 18.8795 85.3481 19.5304 85.7062 20.4527C86.0639 21.3751 86.0568 22.2264 85.685 23.0066C85.4135 23.5765 84.9867 23.9929 84.4041 24.2565C84.0558 24.416 83.4803 24.5633 82.6775 24.6979C81.8653 24.8424 81.2761 24.9925 80.91 25.1487C80.6949 25.2428 80.5086 25.2518 80.35 25.1765L80.349 25.176Z" fill="#0494FD"/>
<path d="M80.2626 34.3148C80.1877 34.1774 80.1661 34.0287 80.1962 33.8687C80.2268 33.7087 80.3063 33.5934 80.4357 33.5233C80.6263 33.4198 80.8263 33.3779 81.0362 33.3972C81.271 33.4193 81.4376 33.5205 81.536 33.7016C81.6988 34.0014 81.5986 34.2494 81.2357 34.4466C81.0668 34.5383 80.8927 34.5807 80.7134 34.5727C80.4993 34.5595 80.3492 34.4739 80.2626 34.3143V34.3148ZM82.1543 33.6202C82.0847 33.4922 82.072 33.3534 82.1167 33.2042C82.1609 33.0551 82.2442 32.9468 82.3675 32.88C82.5793 32.7647 82.9492 32.8226 83.4767 33.0532L84.9143 33.7209C85.4743 33.9384 85.8955 33.9699 86.1783 33.816C86.535 33.6221 86.7713 33.2734 86.888 32.7699C87.0019 32.2838 86.959 31.8565 86.759 31.4885C86.6522 31.2918 86.4174 31.096 86.055 30.9012C85.6922 30.7064 85.4913 30.5732 85.4527 30.5012C85.383 30.3732 85.3741 30.2358 85.4254 30.0885C85.4767 29.9412 85.5656 29.8334 85.6917 29.7652C85.9346 29.6334 86.3054 29.7407 86.8042 30.088C87.2517 30.3986 87.5515 30.6941 87.704 30.9751C88.0447 31.6023 88.1124 32.3026 87.9082 33.0767C87.7035 33.8504 87.2941 34.4047 86.6795 34.7384C86.2306 34.9821 85.7529 35.0518 85.2466 34.9473C84.9426 34.8861 84.496 34.7087 83.9063 34.4146C83.3059 34.1228 82.8484 33.9407 82.5346 33.8687C82.3492 33.8282 82.2226 33.7449 82.1548 33.6202H82.1543Z" fill="#0494FD"/>
<path d="M73.8968 22.2386C73.781 22.248 73.6761 22.2127 73.5815 22.1322C73.4869 22.0518 73.4352 21.9562 73.4262 21.8452C73.4107 21.6536 73.5716 21.4028 73.9095 21.0927L74.8591 20.2602C75.1975 19.9223 75.3566 19.6254 75.3354 19.3699C75.309 19.0475 75.1312 18.7633 74.8017 18.5158C74.4841 18.2762 74.1589 18.1699 73.8262 18.1972C73.6483 18.2118 73.4304 18.3195 73.1716 18.5214C72.9128 18.7228 72.7509 18.8263 72.686 18.8315C72.5702 18.8409 72.4671 18.8033 72.3763 18.7186C72.2855 18.6339 72.2356 18.5346 72.2262 18.4207C72.2083 18.2014 72.406 17.9656 72.8201 17.7139C73.1904 17.488 73.5024 17.3642 73.7561 17.3435C74.3227 17.2974 74.8554 17.4734 75.3533 17.8715C75.8511 18.2696 76.1231 18.7468 76.1683 19.3021C76.2013 19.7078 76.0982 20.0781 75.8587 20.4136C75.7161 20.6155 75.4431 20.8838 75.0389 21.2188C74.6328 21.5623 74.3528 21.8367 74.1994 22.0423C74.11 22.1642 74.0088 22.2301 73.8963 22.239L73.8968 22.2386ZM73.7937 23.8409C73.6695 23.8513 73.5542 23.8193 73.4474 23.7454C73.3406 23.6715 73.2827 23.5765 73.2728 23.4598C73.2587 23.2875 73.2926 23.1285 73.374 22.9816C73.4657 22.8174 73.5933 22.7289 73.7566 22.7153C74.0271 22.6932 74.1759 22.8461 74.2027 23.1736C74.2154 23.3266 74.1895 23.4668 74.1264 23.5953C74.0479 23.7473 73.9368 23.8287 73.7933 23.8405L73.7937 23.8409Z" fill="#0494FD"/>
<defs>
<linearGradient id="paint0_linear_2047_3376" x1="45.3764" y1="33.5638" x2="46.5" y2="48.5" gradientUnits="userSpaceOnUse">
<stop stop-color="#949494"/>
<stop offset="0.245" stop-color="#D5D5D5" stop-opacity="0.8775"/>
<stop offset="0.7" stop-color="#CBCBCB" stop-opacity="0.825"/>
<stop offset="1" stop-color="#959595" stop-opacity="0.75"/>
</linearGradient>
<linearGradient id="paint1_linear_2047_3376" x1="44.8891" y1="34.0447" x2="44.8891" y2="47.8993" gradientUnits="userSpaceOnUse">
<stop stop-color="#030047" stop-opacity="0.43"/>
<stop offset="1" stop-color="#030047" stop-opacity="0.87"/>
</linearGradient>
</defs>
</svg>
