<svg width="100" height="100" viewBox="0 0 100 100" fill="none" xmlns="http://www.w3.org/2000/svg">
<g clip-path="url(#clip0_320_502)">
<path d="M33.8601 44.3599C33.4901 44.7599 33.1201 45.0599 32.7301 45.2499C32.3301 45.4499 31.9301 45.5499 31.5101 45.5699C30.8401 45.5999 30.1301 45.4199 29.4101 45.0999C29.0101 44.9199 28.6001 44.6999 28.1901 44.4499C27.1901 43.8399 26.1601 43.0399 25.1101 42.2199C22.7101 40.3499 20.5301 35.9399 23.1101 33.4199C24.1601 32.3999 25.5301 32.1199 27.0301 32.4199C27.8001 32.5699 28.6001 32.8699 29.4101 33.2999C29.8201 33.5099 30.2301 33.7599 30.6301 34.0299C30.9201 34.2299 31.2201 34.4299 31.5101 34.6599C31.7001 34.8099 31.8901 34.9599 32.0801 35.1099C32.3101 35.2999 32.5301 35.4999 32.7401 35.7099C35.3001 38.3299 35.8001 42.2299 33.8701 44.3599H33.8601Z" fill="#FCB89D"/>
<g style="mix-blend-mode:multiply">
<path d="M29.4 38.7299V45.1099C29 44.9299 28.59 44.7099 28.18 44.4599V39.8299C27.5 39.5699 27.01 38.8999 27.01 38.1199V32.6499C27.01 32.5799 27.01 32.4999 27.02 32.4299C27.42 32.5099 27.82 32.6299 28.23 32.7799V38.1199C28.23 38.4499 28.5 38.7199 28.84 38.7199H29.41L29.4 38.7299Z" fill="#CCCCCC"/>
</g>
<path d="M71.2301 4.52991H34.1801C32.0041 4.52991 30.2401 6.29391 30.2401 8.46991V91.5299C30.2401 93.7059 32.0041 95.4699 34.1801 95.4699H71.2301C73.4061 95.4699 75.1701 93.7059 75.1701 91.5299V8.46991C75.1701 6.29391 73.4061 4.52991 71.2301 4.52991Z" fill="#CDDCF8"/>
<path d="M71.23 3.69994H34.18C31.66 3.69994 29.59 5.65994 29.42 8.12994C29.42 8.23994 29.41 8.35994 29.41 8.46994V91.5199C29.41 94.1499 31.55 96.2999 34.19 96.2999H71.24C72.43 96.2999 73.52 95.8599 74.36 95.1399C75.33 94.2999 75.97 93.0699 76.01 91.6999C76.01 91.6399 76.01 91.5899 76.01 91.5299V8.46994C76.01 5.83994 73.87 3.68994 71.23 3.68994V3.69994ZM73.9 91.1499C73.9 92.1199 73.45 92.9799 72.75 93.5299C72.23 93.9399 71.57 94.1899 70.86 94.1899H34.55C32.87 94.1899 31.51 92.8299 31.51 91.1499V8.84994C31.51 8.59994 31.54 8.35994 31.6 8.12994C31.92 6.79994 33.12 5.79994 34.56 5.79994H70.87C72.55 5.79994 73.91 7.15994 73.91 8.83994V91.1399L73.9 91.1499Z" fill="#8AA8F7"/>
<path d="M77.39 24.83V34.78C77.39 35.11 77.12 35.39 76.79 35.39H76.01V24.23H76.79C77.12 24.23 77.39 24.5 77.39 24.83Z" fill="white"/>
<path d="M29.4001 23.6699V30.3499C28.7501 30.3499 28.2301 29.8299 28.2301 29.1799V24.8399C28.2301 24.1899 28.7501 23.6699 29.4001 23.6699Z" fill="white"/>
<path d="M29.4001 16.2V19.2099C28.7501 19.2099 28.2301 18.69 28.2301 18.04V17.37C28.2301 16.72 28.7501 16.2 29.4001 16.2Z" fill="white"/>
<path d="M29.4001 32.0499V38.7299H28.8301C28.5001 38.7299 28.2201 38.4599 28.2201 38.1299V32.6599C28.2201 32.3299 28.4901 32.0499 28.8301 32.0499H29.4001Z" fill="white"/>
<path d="M10.5701 17.75C10.5701 13.31 14.1701 9.69995 18.6201 9.69995H63.3701C67.8101 9.69995 71.4201 13.3 71.4201 17.75V41.5299C71.4201 45.9699 67.8201 49.58 63.3701 49.58H18.6101C14.1701 49.58 10.5601 45.9799 10.5601 41.5299" fill="#E84231"/>
<path d="M50.9601 40.7799L50.0801 36.9399C49.8501 35.9299 49.8501 34.8899 50.0801 33.8799L51.3001 28.4099C52.3901 23.5399 49.9201 18.6699 45.6301 16.5199C45.6701 16.4199 45.7101 16.3199 45.7301 16.2099C46.0401 14.8199 45.1701 13.4299 43.7701 13.1199C42.3801 12.8099 40.9901 13.6799 40.6801 15.0799C40.6601 15.1899 40.6501 15.2999 40.6401 15.3999C35.8501 15.5099 31.5301 18.8599 30.4401 23.7299L29.2201 29.1999C28.9901 30.2099 28.5501 31.1499 27.9101 31.9599L25.4801 35.0599C24.4401 36.3799 25.1401 38.3299 26.7801 38.6999L48.2401 43.5099C49.8801 43.8799 51.3401 42.4099 50.9601 40.7699V40.7799Z" fill="white"/>
<path d="M34.7401 41.9599C34.0301 41.7999 33.4001 42.4099 33.5201 43.1299C33.7701 44.5699 34.8501 45.7899 36.3701 46.1299C37.8801 46.4699 39.3901 45.8299 40.2301 44.6299C40.6401 44.0399 40.3301 43.2099 39.6301 43.0499L34.7501 41.9599H34.7401Z" fill="white"/>
<path d="M38.33 31.2099L40.22 31.6999C41.54 28.7099 42.82 26.2099 44.17 23.4799C44.69 22.4499 44.92 21.8199 45.06 21.2899C45.35 20.1999 44.69 19.2099 42.66 18.6799C40.45 18.0999 39.47 18.7299 39.2 19.7599C39.06 20.2899 38.98 20.9599 38.93 22.1099C38.76 25.1499 38.62 28.1099 38.34 31.2099H38.33Z" fill="#E84231"/>
<path d="M38.9 33.0899C37.34 32.6799 35.88 33.5599 35.46 35.1499C35.04 36.7399 35.88 38.2199 37.45 38.6299C39.02 39.0399 40.48 38.2299 40.92 36.5799C41.36 34.9299 40.5 33.5099 38.9 33.0899Z" fill="#E84231"/>
<path d="M52.7 63.3L60.63 49.58H44.78L52.7 63.3Z" fill="#E84231"/>
<path d="M67.17 68.47H38.25V70.23H67.17V68.47Z" fill="white"/>
<path d="M67.17 74.0499H38.25V75.8099H67.17V74.0499Z" fill="white"/>
<path d="M67.17 79.6399H38.25V81.3999H67.17V79.6399Z" fill="white"/>
</g>
<defs>
<clipPath id="clip0_320_502">
<rect width="100" height="100" fill="white"/>
</clipPath>
</defs>
</svg>
