<?xml version="1.0" encoding="UTF-8"?>
<svg id="Layer_1" data-name="Layer 1" xmlns="http://www.w3.org/2000/svg" viewBox="0 0 24 24">
  <defs>
    <style>
      .cls-1, .cls-2 {
        stroke-width: 0px;
      }

      .cls-2 {
        fill: none;
      }
    </style>
  </defs>
  <path class="cls-1" d="M.63,18.5v5.5h1v-5.5c0-1.93,1.57-3.5,3.5-3.5h5.5v-1h-5.5c-2.48,0-4.5,2.02-4.5,4.5Z"/>
  <path class="cls-1" d="M10.84,18.5v5.5h1v-5.5c0-1.93,1.57-3.5,3.5-3.5h5.5v-1h-5.5c-2.48,0-4.5,2.02-4.5,4.5Z"/>
  <g>
    <path class="cls-2" d="M9.63,1c-2.76,0-5,2.24-5,5s2.24,5,5,5c.92,0,1.77-.27,2.51-.7-.63-.95-.99-2.08-.99-3.3,0-1.79.79-3.4,2.04-4.5-.91-.92-2.17-1.5-3.56-1.5Z"/>
    <path class="cls-2" d="M14.63,6c0-1-.3-1.92-.81-2.7-1.02.92-1.67,2.23-1.67,3.7,0,1,.3,1.92.81,2.7,1.02-.92,1.67-2.23,1.67-3.7Z"/>
    <path class="cls-2" d="M17.16,2c-.92,0-1.77.27-2.51.7.63.95.99,2.08.99,3.3,0,1.79-.79,3.4-2.04,4.5.91.92,2.17,1.5,3.56,1.5,2.76,0,5-2.24,5-5s-2.24-5-5-5Z"/>
    <path class="cls-1" d="M7.56,11.09c-2.5,0-4.54-2.04-4.54-4.54S5.06,2.01,7.56,2.01c1.27,0,2.41.52,3.24,1.36.23-.2.47-.38.73-.54-.99-1.06-2.4-1.73-3.97-1.73-3.01,0-5.45,2.44-5.45,5.45s2.44,5.45,5.45,5.45c1.05,0,2.03-.3,2.86-.82-.21-.23-.41-.47-.58-.73-.67.4-1.45.64-2.28.64Z"/>
    <path class="cls-1" d="M17.16,2c-1.06,0-2.05.31-2.89.83-.26.16-.51.35-.74.55-1.14,1.01-1.87,2.48-1.87,4.12,0,1.12.34,2.15.91,3.02.17.26.37.51.58.73,1,1.07,2.43,1.74,4.01,1.74,3.03,0,5.5-2.47,5.5-5.5s-2.47-5.5-5.5-5.5ZM17.16,12.08c-1.28,0-2.43-.53-3.27-1.38-.22-.22-.41-.47-.58-.73-.46-.72-.74-1.56-.74-2.48,0-1.35.6-2.56,1.53-3.4.23-.21.48-.39.75-.54.68-.4,1.46-.64,2.3-.64,2.53,0,4.58,2.06,4.58,4.58s-2.06,4.58-4.58,4.58Z"/>
  </g>
</svg>