<svg width="218" height="145" viewBox="0 0 218 145" fill="none" xmlns="http://www.w3.org/2000/svg">
<g clip-path="url(#clip0_261_611)">
<path fill-rule="evenodd" clip-rule="evenodd" d="M0 144.21C0 144.21 27.65 122.34 66.51 122.03C105.54 121.72 136.59 143.46 139.45 144.58L0 144.21Z" fill="#0FF2DC"/>
<path fill-rule="evenodd" clip-rule="evenodd" d="M76.22 144.21C76.22 144.21 103.87 122.34 142.73 122.03C181.76 121.72 212.81 143.46 215.67 144.58L76.22 144.21Z" fill="#0FF2DC"/>
<path fill-rule="evenodd" clip-rule="evenodd" d="M45.12 144.21C45.12 144.21 72.77 122.34 111.63 122.03C150.66 121.72 181.71 143.46 184.57 144.58L45.12 144.21Z" fill="#0FF2DC" stroke="#07E2C2"/>
<path d="M114.47 137.74V83.74C114.47 80.52 111.86 77.91 108.64 77.91C105.42 77.91 102.81 80.52 102.81 83.74V137.74C102.81 140.96 105.42 143.57 108.64 143.57C111.86 143.57 114.47 140.96 114.47 137.74Z" fill="#0677BC" stroke="#0771A5" stroke-width="1.12"/>
<path d="M119.14 135.41H97.67C95.44 135.41 93.64 137.21 93.64 139.44C93.64 141.67 95.44 143.47 97.67 143.47H119.14C121.37 143.47 123.17 141.67 123.17 139.44C123.17 137.21 121.37 135.41 119.14 135.41ZM79.3 38.5H133.9C143.13 38.5 150.61 45.98 150.61 55.21V82.51C150.61 84.88 148.68 86.81 146.31 86.81H66.89C64.52 86.81 62.59 84.88 62.59 82.51V55.21C62.59 45.98 70.07 38.5 79.3 38.5Z" fill="#26A3FE"/>
<path d="M116.79 23.72V58.47" stroke="#E1E4E5" stroke-width="2.43"/>
<path d="M75.5 40C72 39.8333 64.6 42.4 63 54C61.4 65.6 62.3333 78.8333 63 84" stroke="#0771A5"/>
<path d="M116.79 56.61C116.3 56.61 115.82 56.81 115.48 57.16C115.13 57.51 114.94 57.98 114.94 58.48C114.94 59.51 115.77 60.34 116.8 60.34C117.29 60.34 117.77 60.14 118.12 59.79C118.47 59.44 118.67 58.97 118.67 58.47C118.67 58.23 118.62 57.98 118.53 57.76C118.44 57.53 118.3 57.33 118.13 57.16C117.96 56.99 117.75 56.85 117.53 56.76C117.3 56.67 117.06 56.62 116.82 56.62L116.79 56.61Z" stroke="#E1E4E5" stroke-width="4.94" stroke-linecap="round" stroke-linejoin="round"/>
<path fill-rule="evenodd" clip-rule="evenodd" d="M75 40C87.1456 40 97 47.3685 97 56.448V87" fill="#0677BC"/>
<path d="M75 40C87.1456 40 97 47.3685 97 56.448V87" stroke="#0771A5" stroke-width="1.12"/>
<path d="M151.57 26.97C152.05 27.79 151.46 28.82 150.51 28.82H115.88C115.72 28.82 115.56 28.79 115.41 28.73C115.26 28.67 115.12 28.58 115.01 28.46C114.9 28.35 114.8 28.21 114.74 28.06C114.68 27.91 114.65 27.75 114.65 27.59V10.23C114.65 9.89998 114.71 9.57998 114.84 9.26998C114.97 8.96998 115.15 8.68998 115.38 8.45998C115.61 8.22998 115.89 8.03998 116.19 7.91998C116.49 7.78998 116.82 7.72998 117.15 7.72998H150.54C151.49 7.72998 152.08 8.76998 151.6 9.58998L146.84 17.65C146.73 17.84 146.67 18.05 146.67 18.27C146.67 18.49 146.73 18.71 146.84 18.89L151.58 26.96L151.57 26.97Z" fill="#26A3FE"/>
<path d="M84.42 74.58L56.64 80.2C56.2 80.29 55.76 80.29 55.32 80.2C54.88 80.12 54.47 79.94 54.1 79.7C53.73 79.45 53.41 79.14 53.16 78.77C52.91 78.4 52.74 77.99 52.65 77.55L49.44 61.68C49.35 61.24 49.35 60.8 49.44 60.36C49.53 59.92 49.7 59.51 49.94 59.14C50.19 58.77 50.5 58.45 50.87 58.2C51.24 57.95 51.65 57.78 52.09 57.69L79.87 52.07C80.3 51.98 80.75 51.98 81.19 52.07C81.62 52.16 82.04 52.33 82.41 52.57C82.78 52.82 83.1 53.13 83.35 53.5C83.6 53.87 83.77 54.28 83.86 54.72L87.07 70.59C87.16 71.03 87.16 71.47 87.07 71.91C86.98 72.35 86.81 72.76 86.57 73.13C86.32 73.5 86.01 73.82 85.64 74.07C85.27 74.32 84.86 74.49 84.42 74.58Z" fill="white"/>
<path d="M75.13 59.23L77.11 58.83C77.46 58.76 77.83 58.83 78.13 59.03C78.43 59.23 78.64 59.54 78.71 59.89L79.11 61.87C79.18 62.22 79.11 62.59 78.91 62.89C78.71 63.19 78.4 63.4 78.05 63.47L76.07 63.87C75.72 63.94 75.35 63.87 75.05 63.67C74.75 63.47 74.54 63.16 74.47 62.81L74.07 60.83C74 60.48 74.07 60.11 74.27 59.81C74.47 59.51 74.78 59.3 75.13 59.23Z" fill="white" stroke="#E1E4E5" stroke-width="1.33"/>
<path d="M62.31 67.34L56.36 68.54" stroke="#E1E4E5" stroke-width="0.5" stroke-linecap="round" stroke-linejoin="round"/>
<path d="M123.03 72.18L102.78 72.14" stroke="#E1E4E5" stroke-width="1.33" stroke-linecap="round" stroke-linejoin="round"/>
<path d="M67.48 72.49L57.56 74.5" stroke="#E1E4E5" stroke-width="0.5" stroke-linecap="round" stroke-linejoin="round"/>
<path d="M136.4 78.28L102.65 78.22" stroke="#E1E4E5" stroke-width="1.33" stroke-linecap="round" stroke-linejoin="round"/>
<path d="M79.91 98.28L58.38 102.63C58.06 102.7 57.73 102.7 57.42 102.63C57.1 102.57 56.8 102.44 56.53 102.26C56.26 102.08 56.03 101.85 55.85 101.58C55.67 101.31 55.54 101.01 55.48 100.69L52.99 88.38C52.93 88.06 52.92 87.73 52.99 87.42C53.05 87.1 53.18 86.8 53.36 86.53C53.54 86.26 53.77 86.03 54.04 85.85C54.31 85.67 54.61 85.54 54.93 85.48L76.46 81.13C76.78 81.06 77.11 81.06 77.42 81.13C77.74 81.19 78.04 81.32 78.31 81.5C78.58 81.68 78.81 81.91 78.99 82.18C79.17 82.45 79.3 82.75 79.36 83.07L81.85 95.38C81.91 95.7 81.91 96.03 81.85 96.34C81.79 96.66 81.66 96.96 81.48 97.23C81.3 97.5 81.07 97.73 80.8 97.91C80.53 98.09 80.23 98.22 79.91 98.28Z" fill="white"/>
<path d="M72.76 86.68L74.3 86.37C74.53 86.32 74.78 86.37 74.98 86.5C75.18 86.63 75.32 86.84 75.37 87.07L75.68 88.61C75.73 88.85 75.68 89.09 75.55 89.29C75.42 89.49 75.21 89.63 74.98 89.68L73.44 89.99C73.2 90.04 72.96 89.99 72.76 89.86C72.56 89.73 72.42 89.52 72.37 89.29L72.06 87.75C72.01 87.52 72.06 87.27 72.19 87.07C72.32 86.87 72.53 86.73 72.76 86.68Z" fill="white" stroke="#E1E4E5" stroke-width="1.33"/>
<path d="M62.8 92.8199L58.19 93.7499M66.81 96.8099L59.12 98.3699" stroke="#E1E4E5" stroke-width="0.5" stroke-linecap="round" stroke-linejoin="round"/>
<path d="M42.03 87.99L20.5 92.34C20.18 92.4 19.85 92.41 19.54 92.34C19.22 92.28 18.92 92.15 18.65 91.97C18.38 91.79 18.15 91.56 17.97 91.29C17.79 91.02 17.66 90.72 17.6 90.4L15.11 78.09C15.05 77.77 15.04 77.44 15.11 77.13C15.17 76.81 15.3 76.51 15.48 76.24C15.66 75.97 15.89 75.74 16.16 75.56C16.43 75.38 16.73 75.25 17.05 75.19L38.58 70.84C38.9 70.78 39.23 70.77 39.54 70.84C39.86 70.9 40.16 71.03 40.43 71.21C40.7 71.39 40.93 71.62 41.11 71.89C41.29 72.16 41.42 72.46 41.48 72.78L43.97 85.09C44.03 85.41 44.04 85.74 43.97 86.05C43.91 86.37 43.78 86.67 43.6 86.94C43.42 87.21 43.19 87.44 42.92 87.62C42.65 87.8 42.35 87.93 42.03 87.99Z" fill="white"/>
<path d="M34.88 76.38L36.42 76.07C36.65 76.02 36.9 76.07 37.1 76.2C37.3 76.33 37.44 76.54 37.49 76.77L37.8 78.31C37.85 78.55 37.8 78.79 37.67 78.99C37.54 79.19 37.33 79.33 37.1 79.38L35.56 79.69C35.33 79.74 35.08 79.69 34.88 79.56C34.68 79.43 34.54 79.22 34.49 78.99L34.18 77.45C34.13 77.21 34.18 76.97 34.31 76.77C34.44 76.57 34.65 76.43 34.88 76.38Z" fill="white" stroke="#E1E4E5" stroke-width="1.33"/>
<path d="M24.91 82.52L20.3 83.45M28.92 86.52L21.23 88.07" stroke="#E1E4E5" stroke-width="0.5" stroke-linecap="round" stroke-linejoin="round"/>
<path d="M32.81 144.24V139.8" stroke="#049B89" stroke-width="1.33"/>
<path d="M71.78 144.24V139.8" stroke="#049B89" stroke-width="1.33"/>
<path d="M138.76 144.24V139.8" stroke="#049B89" stroke-width="1.33"/>
<path d="M194.82 144.24V139.8" stroke="#049B89" stroke-width="1.33"/>
<path d="M37.6 144.24V141.16" stroke="#049B89" stroke-width="1.33"/>
<path d="M76.22 144.24V141.16" stroke="#049B89" stroke-width="1.33"/>
<path d="M143.55 144.24V141.16" stroke="#049B89" stroke-width="1.33"/>
<path d="M199.6 144.24V141.16" stroke="#049B89" stroke-width="1.33"/>
<path d="M28.03 144.24V141.16" stroke="#049B89" stroke-width="1.33"/>
<path d="M66.99 144.24V141.16" stroke="#049B89" stroke-width="1.33"/>
<path d="M133.98 144.24V141.16" stroke="#049B89" stroke-width="1.33"/>
<path d="M190.03 144.24V141.16" stroke="#049B89" stroke-width="1.33"/>
</g>
<defs>
<clipPath id="clip0_261_611">
<rect width="217.58" height="144.33" fill="white"/>
</clipPath>
</defs>
</svg>
