<svg width="310" height="250" viewBox="0 0 310 250" fill="none" xmlns="http://www.w3.org/2000/svg">
<g clip-path="url(#clip0_2580_3652)">
<path d="M151.494 230.95C210.386 230.95 258.128 183.209 258.128 124.317C258.128 65.4245 210.386 17.6829 151.494 17.6829C92.6017 17.6829 44.8601 65.4245 44.8601 124.317C44.8601 183.209 92.6017 230.95 151.494 230.95Z" fill="#0494FD"/>
<path d="M166.621 46.2567C166.436 46.2413 166.25 46.232 166.064 46.2287C166.003 46.2279 165.942 46.2254 165.88 46.2262C165.815 46.2267 165.751 46.2283 165.686 46.23C165.62 46.2317 165.554 46.2337 165.487 46.2367C165.425 46.2392 165.363 46.2437 165.3 46.2487C165.229 46.2537 165.159 46.2592 165.089 46.2671C164.954 46.2799 164.819 46.2965 164.684 46.3171C164.543 46.3379 164.403 46.3625 164.263 46.3908C164.218 46.4 164.172 46.4075 164.127 46.4179C163.996 46.4462 163.865 46.4779 163.734 46.5129L103.655 62.6108C103.106 62.7559 102.574 62.9578 102.067 63.2133C98.827 64.8337 96.9582 68.415 97.5495 72.06C97.5949 72.3408 97.6553 72.6212 97.7303 72.9017L124.585 173.124L130.712 195.99C131.653 199.504 134.682 201.9 138.103 202.195L138.148 202.197C138.317 202.211 138.488 202.219 138.659 202.222C138.72 202.223 138.781 202.225 138.844 202.225C138.909 202.224 138.973 202.222 139.038 202.221C139.104 202.219 139.17 202.217 139.237 202.214C139.299 202.211 139.361 202.207 139.424 202.202C139.494 202.197 139.564 202.191 139.634 202.184C139.694 202.178 139.753 202.171 139.812 202.165C139.887 202.156 139.963 202.145 140.039 202.134C140.093 202.126 140.148 202.117 140.203 202.108C140.289 202.094 140.374 202.077 140.46 202.06C140.505 202.051 140.551 202.043 140.596 202.033C140.727 202.005 140.858 201.973 140.989 201.938L201.068 185.84C201.348 185.765 201.62 185.677 201.886 185.576C205.594 184.167 207.812 180.315 207.175 176.39C207.129 176.106 207.068 175.825 206.994 175.547L180.14 75.3271L174.013 52.4617C173.07 48.9475 170.041 46.5521 166.621 46.2567Z" fill="white"/>
<path d="M141.533 59.9379L129.87 63.0631C128.685 63.3808 127.981 64.5994 128.299 65.7851C128.616 66.9707 129.835 67.6743 131.021 67.3566L142.684 64.2315C143.869 63.9138 144.573 62.6951 144.255 61.5095C143.938 60.3239 142.719 59.6203 141.533 59.9379Z" fill="#0494FD"/>
<path d="M144.423 132.725C144.423 132.725 148.656 133.995 154.713 132.372C160.769 130.75 163.8 127.532 163.8 127.532" stroke="#0494FD" stroke-width="5.8175" stroke-linecap="round" stroke-linejoin="round"/>
<path d="M139.492 124.52C142.23 123.786 143.868 121.023 143.151 118.348C142.434 115.672 139.634 114.098 136.896 114.832C134.159 115.565 132.521 118.329 133.237 121.004C133.954 123.679 136.755 125.254 139.492 124.52Z" fill="#0494FD"/>
<path d="M163.742 118.022C166.479 117.289 168.117 114.525 167.401 111.85C166.684 109.174 163.883 107.6 161.146 108.334C158.408 109.067 156.77 111.831 157.487 114.506C158.204 117.181 161.004 118.756 163.742 118.022Z" fill="#0494FD"/>
<path d="M240.294 236.146C240.294 236.146 229.353 221.425 220.539 217.711C211.818 214.038 187.556 209.104 171.855 196.85C171.707 196.736 171.604 196.574 171.563 196.393C171.521 196.211 171.545 196.021 171.629 195.855C172.254 194.648 174.314 192.274 180.629 194.25C188.845 196.836 195.186 198.653 195.186 198.653C195.186 198.653 176.415 166.571 171.975 157.5C171.097 155.71 170.592 154.171 170.353 152.831C169.608 148.654 175.272 146.598 177.465 150.232L190.308 171.492C190.308 171.492 190.188 168.667 192.448 167.54C194.588 166.478 198.749 168.495 200.571 171.942C200.571 171.942 200.704 168.76 203.948 168.202C207.191 167.645 210.368 170.961 211.578 172.884C211.578 172.884 211.047 169.82 213.267 168.746C215.487 167.672 219.861 170.47 220.898 171.73C221.935 172.99 232.371 181.929 241.039 201.465L264.343 216.146C264.343 216.146 265.381 226.504 240.294 236.146Z" fill="#F8AE9D"/>
<path d="M267.304 173.7C262.236 173.7 258.127 177.809 258.127 182.878C258.127 187.947 262.236 192.055 267.304 192.055H281.289C286.358 192.055 290.467 187.947 290.467 182.878C290.467 177.809 286.358 173.7 281.289 173.7H267.304Z" fill="#E1E4E5"/>
<path d="M267.572 175.412C263.499 175.412 260.197 178.714 260.197 182.787C260.197 186.861 263.499 190.162 267.572 190.162C271.645 190.162 274.947 186.861 274.947 182.787C274.947 178.714 271.645 175.412 267.572 175.412Z" fill="white"/>
<path d="M56.2224 212.595C51.1538 212.595 47.0449 216.704 47.0449 221.773C47.0449 226.842 51.1538 230.95 56.2224 230.95H70.207C75.2756 230.95 79.3845 226.842 79.3845 221.773C79.3845 216.704 75.2756 212.595 70.207 212.595H56.2224Z" fill="#E1E4E5"/>
<path d="M56.4895 214.307C52.4164 214.307 49.1145 217.609 49.1145 221.682C49.1145 225.756 52.4164 229.057 56.4895 229.057C60.5626 229.057 63.8645 225.756 63.8645 221.682C63.8645 217.609 60.5626 214.307 56.4895 214.307Z" fill="white"/>
<path d="M271.675 53.5192C276.744 53.5192 280.853 49.4103 280.853 44.3417C280.853 39.2731 276.744 35.1642 271.675 35.1642H257.69C252.622 35.1642 248.513 39.2731 248.513 44.3417C248.513 49.4103 252.622 53.5192 257.69 53.5192H271.675Z" fill="#0494FD"/>
<path d="M271.408 51.8071C275.481 51.8071 278.783 48.5052 278.783 44.4321C278.783 40.359 275.481 37.0571 271.408 37.0571C267.335 37.0571 264.033 40.359 264.033 44.4321C264.033 48.5052 267.335 51.8071 271.408 51.8071Z" fill="white"/>
<path fill-rule="evenodd" clip-rule="evenodd" d="M37.1362 68.2317L44.1641 71.9142C45.5328 72.6321 47.1324 71.4734 46.8703 69.9521L45.5287 62.1467L51.2149 56.6229C52.322 55.5463 51.7116 53.67 50.1828 53.4479L42.3257 52.3088L38.8141 45.2054C38.1295 43.8204 36.1545 43.8204 35.4703 45.2054L31.9582 52.3088L24.0978 53.4517C22.5687 53.6742 21.9587 55.5504 23.0653 56.6271L28.7516 62.1504L27.4103 69.9563C27.1482 71.4775 28.7478 72.6359 30.1166 71.9184L37.1441 68.2359H37.1362V68.2317ZM283.689 134.397L290.717 138.08C292.086 138.798 293.685 137.639 293.423 136.118L292.082 128.312L297.768 122.788C298.874 121.712 298.264 119.835 296.735 119.613L288.879 118.474L285.367 111.371C284.682 109.986 282.707 109.986 282.023 111.371L278.511 118.474L270.651 119.617C269.122 119.84 268.511 121.716 269.618 122.793L275.305 128.316L273.963 136.121C273.701 137.643 275.3 138.801 276.669 138.084L283.697 134.401H283.689V134.397Z" fill="#0494FD"/>
<path fill-rule="evenodd" clip-rule="evenodd" d="M98.9458 131.809C100.027 132.636 100.246 134.202 99.4354 135.305L92.0933 145.294C91.3141 146.354 89.8587 146.608 88.7783 145.873L83.4725 142.264L79.9354 147.678C79.1858 148.825 77.6662 149.135 76.5416 148.37C75.417 147.605 75.1133 146.055 75.8629 144.908L80.7574 137.416C81.507 136.268 83.0266 135.958 84.1512 136.723L89.567 140.407L95.5195 132.308C96.3308 131.205 97.8645 130.981 98.9458 131.809ZM222.623 96.41C223.705 97.2375 223.924 98.8025 223.113 99.9059L215.771 109.895C214.992 110.955 213.536 111.21 212.455 110.474L207.15 106.865L203.613 112.279C202.863 113.427 201.344 113.737 200.219 112.972C199.095 112.207 198.791 110.656 199.54 109.508L204.435 102.017C205.185 100.869 206.704 100.559 207.829 101.324L213.244 105.008L219.197 96.9092C220.008 95.8059 221.542 95.5825 222.623 96.41Z" fill="white"/>
<path fill-rule="evenodd" clip-rule="evenodd" d="M283.54 72.3113C287.163 72.3113 289.593 75.7296 289.593 78.9134C289.593 85.3754 279.507 90.6663 279.323 90.6663C279.139 90.6663 269.053 85.3754 269.053 78.9134C269.053 75.7296 271.482 72.3113 275.105 72.3113C277.176 72.3113 278.537 73.3492 279.323 74.2738C280.109 73.3492 281.469 72.3113 283.54 72.3113ZM29.037 91.9771C33.2766 91.9771 36.1195 95.9654 36.1195 99.6796C36.1195 107.219 24.3162 113.391 24.1016 113.391C23.8866 113.391 12.0833 107.219 12.0833 99.6796C12.0833 95.9654 14.9262 91.9771 19.1658 91.9771C21.5895 91.9771 23.1812 93.1884 24.1016 94.2671C25.0216 93.1884 26.6132 91.9771 29.037 91.9771ZM21.3166 152.073V150.177H23.6816L25.6895 148.165L28.4612 149.344C28.9519 149.553 29.494 149.611 30.0177 149.509C30.5413 149.407 31.0223 149.15 31.3987 148.772L35.3358 144.826C35.7129 144.448 35.9687 143.966 36.0704 143.441C36.1722 142.917 36.1153 142.374 35.907 141.882L33.8978 137.141C33.6274 136.502 33.1195 135.993 32.4812 135.722L27.7508 133.708C27.26 133.499 26.7178 133.442 26.1942 133.544C25.6706 133.646 25.1896 133.902 24.8133 134.28L20.8762 138.226C20.4992 138.604 20.2436 139.087 20.1421 139.611C20.0407 140.135 20.0979 140.678 20.3066 141.17L21.4528 143.877L13.3945 151.953V156.22H17.6512L19.4249 154.442V152.071H21.3166V152.073Z" fill="#0494FD"/>
<path fill-rule="evenodd" clip-rule="evenodd" d="M28.0638 139.493C26.9326 139.498 26.0138 140.416 26.0188 141.548C26.0191 141.817 26.0726 142.083 26.1761 142.332C26.2795 142.581 26.431 142.806 26.6219 142.996C26.8127 143.186 27.0392 143.337 27.2882 143.439C27.5373 143.542 27.8041 143.594 28.0734 143.593C28.617 143.593 29.1383 143.377 29.5227 142.992C29.9071 142.608 30.1232 142.087 30.1234 141.543C30.1232 140.999 29.9071 140.478 29.5227 140.094C29.1383 139.709 28.617 139.493 28.0734 139.493" fill="white"/>
<path d="M31.3467 200.57C38.6849 200.57 44.6337 194.621 44.6337 187.283C44.6337 179.944 38.6849 173.995 31.3467 173.995C24.0084 173.995 18.0596 179.944 18.0596 187.283C18.0596 194.621 24.0084 200.57 31.3467 200.57Z" fill="#0494FD" stroke="#0494FD" stroke-width="0.59"/>
<path d="M35.492 186.455C36.2787 186.909 36.2787 188.045 35.492 188.499L30.227 191.538C29.4404 191.992 28.457 191.425 28.457 190.517V184.437C28.457 183.529 29.4404 182.961 30.227 183.415L35.492 186.455Z" fill="white"/>
<path d="M211.331 59.5033C223.827 59.5033 233.957 49.3736 233.957 36.8779C233.957 24.3822 223.827 14.2525 211.331 14.2525C198.836 14.2525 188.706 24.3822 188.706 36.8779C188.706 49.3736 198.836 59.5033 211.331 59.5033Z" fill="#0494FD" stroke="#0494FD" stroke-width="1.00458"/>
<path d="M218.39 35.4688C219.73 36.2421 219.73 38.1754 218.39 38.9487L209.425 44.125C208.085 44.8983 206.411 43.9317 206.411 42.385V32.0325C206.411 30.4858 208.085 29.5192 209.425 30.2925L218.39 35.4688Z" fill="white"/>
<path d="M246.327 19.4321C242.948 19.4321 240.209 22.1714 240.209 25.5504C240.209 28.9295 242.948 31.6688 246.327 31.6688C249.707 31.6688 252.446 28.9295 252.446 25.5504C252.446 22.1714 249.707 19.4321 246.327 19.4321Z" fill="#0494FD"/>
<path d="M41.5826 85.4217C39.7725 85.4217 38.3051 83.9543 38.3051 82.1442C38.3051 80.3341 39.7725 78.8667 41.5826 78.8667C43.3927 78.8667 44.8601 80.3341 44.8601 82.1442C44.8601 83.9543 43.3927 85.4217 41.5826 85.4217Z" fill="#0494FD"/>
<path d="M270.723 105.806C269.076 105.806 267.742 104.471 267.742 102.825C267.742 101.178 269.076 99.8433 270.723 99.8433C272.369 99.8433 273.704 101.178 273.704 102.825C273.704 104.471 272.369 105.806 270.723 105.806Z" fill="#0494FD"/>
<path d="M213.013 235.994C210.896 235.994 209.18 234.278 209.18 232.161C209.18 230.044 210.896 228.328 213.013 228.328C215.13 228.328 216.846 230.044 216.846 232.161C216.846 234.278 215.13 235.994 213.013 235.994Z" fill="#E1E4E5"/>
<path d="M99.7063 236.195C98.1373 236.195 96.8655 234.923 96.8655 233.354C96.8655 231.785 98.1373 230.513 99.7063 230.513C101.275 230.513 102.547 231.785 102.547 233.354C102.547 234.923 101.275 236.195 99.7063 236.195Z" fill="#E1E4E5"/>
<path d="M73.1754 75.8613C70.8482 75.8613 68.9617 73.9747 68.9617 71.6475C68.9617 69.3203 70.8482 67.4338 73.1754 67.4338C75.5026 67.4338 77.3892 69.3203 77.3892 71.6475C77.3892 73.9747 75.5026 75.8613 73.1754 75.8613Z" fill="#E1E4E5"/>
<path d="M160.111 221.965C157.524 221.965 155.427 219.867 155.427 217.28C155.427 214.693 157.524 212.595 160.111 212.595C162.699 212.595 164.796 214.693 164.796 217.28C164.796 219.867 162.699 221.965 160.111 221.965Z" fill="white"/>
<path d="M43.587 160.283C44.1883 162.527 42.8566 164.834 40.6124 165.435C38.3683 166.036 36.0617 164.705 35.4603 162.461C34.859 160.216 36.1908 157.91 38.4349 157.308C40.679 156.707 42.9857 158.039 43.587 160.283Z" fill="#E1E4E5"/>
<path d="M89.0458 30.5275C85.9551 30.5275 83.4496 28.022 83.4496 24.9313C83.4496 21.8405 85.9551 19.335 89.0458 19.335C92.1366 19.335 94.6421 21.8405 94.6421 24.9313C94.6421 28.022 92.1366 30.5275 89.0458 30.5275Z" fill="#E1E4E5"/>
<path d="M280.787 159.611C278.409 159.611 276.482 158.069 276.482 156.167C276.482 154.265 278.409 152.723 280.787 152.723C283.165 152.723 285.092 154.265 285.092 156.167C285.092 158.069 283.165 159.611 280.787 159.611Z" fill="#E1E4E5"/>
<path d="M262.342 66.3927C262.759 67.9511 261.834 69.5529 260.276 69.9705C258.718 70.388 257.116 69.4632 256.698 67.9048C256.281 66.3465 257.205 64.7446 258.764 64.3271C260.322 63.9095 261.924 64.8343 262.342 66.3927Z" fill="#E1E4E5"/>
</g>
<defs>
<clipPath id="clip0_2580_3652">
<rect width="310" height="250" fill="white"/>
</clipPath>
</defs>
</svg>
