<svg width="90" height="71" viewBox="0 0 90 71" fill="none" xmlns="http://www.w3.org/2000/svg">
<path d="M51.5777 29.1277C52.8229 30.1169 53.0327 31.9254 52.0473 33.1734C51.5546 33.7955 50.8544 34.1593 50.1217 34.2444C49.389 34.3296 48.6276 34.1353 48.0017 33.643C38.2285 25.9 23.9791 27.5545 16.2403 37.3315C15.2511 38.5767 13.4426 38.7866 12.1946 37.8011C10.9495 36.812 10.7396 35.0035 11.725 33.7555C21.4356 21.4934 39.316 19.4171 51.5777 29.1277Z" fill="#6D869A"/>
<path d="M45.4528 38.1412C46.6975 39.1266 46.9079 40.9388 45.922 42.1836C45.4293 42.8057 44.7291 43.1699 43.9964 43.2551C43.2636 43.3403 42.5022 43.1459 41.8763 42.6537C39.2594 40.5779 35.9818 39.6471 32.6509 40.0339C29.3163 40.4212 26.3394 42.0781 24.2679 44.6984C23.2787 45.9436 21.4707 46.1572 20.2222 45.168C18.9775 44.1826 18.7672 42.3704 19.7531 41.1257C22.7822 37.3003 27.1267 34.8796 31.9874 34.3153C36.8444 33.7511 41.6274 35.112 45.4528 38.1412Z" fill="#6D869A"/>
<path d="M58.1729 24.1638C57.6765 24.7864 56.98 25.1497 56.2473 25.2348C55.5146 25.32 54.7494 25.1261 54.1273 24.6334C39.9979 13.4409 19.4016 15.833 8.21294 29.9652C7.22376 31.2104 5.41529 31.4202 4.16729 30.4348C2.92212 29.4457 2.71223 27.6372 3.69764 26.3892C16.8576 9.77133 41.0854 6.95816 57.7033 20.1181C58.9485 21.1073 59.1583 22.9158 58.1729 24.1638Z" fill="#6D869A"/>
<path d="M39.0918 52.2368C39.8184 49.3776 38.0897 46.4707 35.2305 45.744C32.3713 45.0173 29.4643 46.7461 28.7376 49.6053C28.011 52.4645 29.7397 55.3715 32.5989 56.0981C35.4581 56.8248 38.3651 55.096 39.0918 52.2368Z" fill="#6D869A"/>
<path d="M54.6757 49.448C54.6503 49.5247 51.1901 54.8889 51.1901 54.8889L46.1336 44.8438L40.6875 49.2005L45.6588 61.6573C46.5755 63.5942 48.4644 64.888 50.6019 65.0428C52.808 65.2028 54.9204 64.1242 56.0852 62.2438L63.0776 50.9515L54.6757 49.448Z" fill="white"/>
<path d="M51.0373 65.2082C50.889 65.2082 50.7403 65.203 50.5911 65.1922C48.4038 65.0336 46.4617 63.7037 45.5234 61.7211L40.5483 49.2557C40.5238 49.1946 40.5422 49.1244 40.594 49.083L46.0401 44.7263C46.0754 44.6981 46.1215 44.6873 46.1657 44.6967C46.21 44.7061 46.2476 44.7353 46.2678 44.7757L51.2067 54.587C52.2283 53.0025 54.4594 49.5367 54.5413 49.3823C54.5648 49.3117 54.6288 49.2868 54.7027 49.3L63.1041 50.803C63.153 50.812 63.1944 50.844 63.2147 50.8896C63.2349 50.9348 63.2316 50.9875 63.2053 51.0298L56.2128 62.3221C55.0937 64.1296 53.1398 65.2082 51.0373 65.2082ZM40.8683 49.2482L45.7982 61.6016C46.6867 63.4778 48.5328 64.7423 50.6128 64.8929C52.7709 65.0491 54.8184 64.0035 55.9577 62.1644L62.834 51.06L54.7502 49.6138C54.5686 49.9098 53.8909 50.9795 51.3168 54.9705C51.2876 55.0157 51.2382 55.0425 51.1827 55.0393C51.129 55.0364 51.081 55.0049 51.0566 54.9569L46.0834 45.0769L40.8683 49.2482Z" fill="#030047"/>
<path d="M64.0874 43.6771L60.9368 54.383L57.1622 52.7929L54.1717 51.5326L52.6074 50.8743L56.2921 45.6254C57.4385 43.9952 59.3768 43.1091 61.3608 43.3091L64.0874 43.6771Z" fill="#0494FD"/>
<path d="M60.936 54.5325C60.9163 54.5325 60.8965 54.5288 60.8777 54.5208L52.5492 51.0125C52.5078 50.9951 52.4763 50.9598 52.4636 50.9165C52.4509 50.8732 52.4584 50.8266 52.4843 50.7895L55.888 45.8577C55.9351 45.7895 56.0287 45.7725 56.0965 45.8196C56.1647 45.8666 56.1817 45.9603 56.1346 46.0281L52.8358 50.8078L60.8391 54.1791L62.1313 49.7419C62.1549 49.6624 62.2377 49.6168 62.3172 49.6398C62.3967 49.6629 62.4424 49.7462 62.4193 49.8257L61.08 54.4248C61.0678 54.4657 61.0391 54.5001 61.0005 54.5184C60.9803 54.5283 60.9582 54.5325 60.936 54.5325Z" fill="#030047"/>
<path d="M61.9161 43.4248C61.9161 43.4248 67.8229 44.0855 69.9716 44.4615C71.5363 44.7354 75.3439 45.3778 77.4032 46.0498C78.3034 46.3434 78.845 47.4559 78.8041 48.4022L77.9867 67.2724H55.2559L61.9161 43.4248Z" fill="#0494FD"/>
<g opacity="0.4">
<path d="M69.5835 49.9415C70.2073 49.9415 70.7129 49.4358 70.7129 48.8121C70.7129 48.1883 70.2073 47.6826 69.5835 47.6826C68.9598 47.6826 68.4541 48.1883 68.4541 48.8121C68.4541 49.4358 68.9598 49.9415 69.5835 49.9415Z" fill="white"/>
</g>
<g opacity="0.4">
<path d="M73.0879 53.5302C73.511 53.5302 73.854 53.1872 73.854 52.7641C73.854 52.341 73.511 51.998 73.0879 51.998C72.6648 51.998 72.3218 52.341 72.3218 52.7641C72.3218 53.1872 72.6648 53.5302 73.0879 53.5302Z" fill="white"/>
</g>
<path d="M72.707 45.3582L73.9253 39.0194L68.3639 37.9502C68.3639 37.9502 66.5709 44.0749 66.5747 44.0815C66.9517 47.3192 69.4185 47.8199 72.707 45.3582Z" fill="white"/>
<path d="M69.0695 47.0575C68.7058 47.0575 68.3693 46.9931 68.0662 46.8627C67.1575 46.4721 66.59 45.5163 66.4253 44.0989L66.4361 44.0975C66.4592 43.9225 66.7081 43.0726 68.2196 37.9079C68.2413 37.8335 68.3156 37.7879 68.3919 37.8025L73.9533 38.8716C73.9924 38.8792 74.0267 38.9018 74.0493 38.9347C74.0714 38.9676 74.0799 39.0081 74.0724 39.0472L72.854 45.386C72.8469 45.4227 72.8267 45.4552 72.7966 45.4778C71.4069 46.5182 70.1218 47.0575 69.0695 47.0575ZM66.7265 44.0928C66.8822 45.3818 67.3862 46.2439 68.1848 46.5874C69.2521 47.0467 70.8083 46.5799 72.5702 45.273L73.7495 39.1389L68.4691 38.1239C67.8752 40.153 66.8225 43.753 66.7265 44.0928Z" fill="#030047"/>
<path d="M73.7945 39.7075C75.7799 36.8825 76.3973 32.2388 76.3973 32.2388L69.6283 28.3018C69.4585 28.4152 64.7347 29.7343 64.0043 35.0134C63.354 39.7155 64.5794 42.9503 71.186 41.7832" fill="white"/>
<path d="M68.7203 42.1751C67.0732 42.1751 65.8506 41.7751 65.0134 40.969C63.8351 39.8339 63.4563 37.8791 63.8553 34.9934C64.292 31.8367 66.2704 29.4325 69.4257 28.2236C69.4892 28.1991 69.5325 28.1831 69.5513 28.1737C69.5993 28.1417 69.6539 28.144 69.7033 28.1727L76.4723 32.1097C76.5245 32.1403 76.5537 32.1991 76.5457 32.2593C76.5396 32.3059 75.9005 36.9718 73.917 39.7944C73.8694 39.8621 73.7753 39.8781 73.708 39.8311C73.6403 39.7836 73.6238 39.6899 73.6713 39.6221C75.4544 37.0857 76.1306 33.0033 76.2341 32.3186L69.6191 28.4711C69.5965 28.48 69.5687 28.4908 69.5334 28.504C66.485 29.672 64.5739 31.9916 64.1527 35.0348C63.7678 37.8188 64.1174 39.6894 65.2219 40.7534C66.3621 41.8518 68.3047 42.1407 71.1603 41.6363C71.2417 41.6221 71.3198 41.6763 71.3339 41.7577C71.3485 41.8391 71.2939 41.9172 71.212 41.9313C70.293 42.0937 69.4633 42.1751 68.7203 42.1751Z" fill="#030047"/>
<path d="M72.4607 27.1405C72.4607 27.1405 74.6884 26.2624 75.7647 27.0934C76.8409 27.924 75.6324 29.8878 75.6324 29.8878C75.6324 29.8878 77.4828 29.5857 78.408 31.7005C79.3332 33.8153 75.9722 36.7339 75.9722 36.7339C75.9722 36.7339 74.0362 35.4704 74.0249 35.4629C74.0626 35.4873 73.9124 35.5843 73.9011 35.588C73.7275 35.6516 73.4282 35.3739 73.3416 35.2567C73.1826 35.0421 73.1459 34.7306 73.04 34.4807C72.9148 34.1847 72.7567 33.9024 72.5722 33.6393C71.8513 32.612 70.7134 31.8661 69.464 31.6897C68.728 31.5857 67.9727 31.6624 67.2419 31.5245C66.3289 31.3523 65.4851 30.836 64.9167 30.101C64.3482 29.3664 64.0597 28.4196 64.1228 27.493C64.159 26.9532 64.3223 26.4021 64.6908 26.0059C65.2174 25.4398 66.0428 25.2934 66.807 25.1781C67.9214 25.0101 69.0701 24.8431 70.1642 25.1132C71.2583 25.3833 72.2969 26.2026 72.4687 27.316" fill="#4C5053"/>
<path d="M66.3483 34.5948C66.2104 34.8842 65.9412 35.0438 65.7469 34.9515C65.5525 34.8593 65.5073 34.5492 65.6452 34.2598C65.7831 33.9704 66.0523 33.8108 66.2466 33.9031C66.441 33.9953 66.4862 34.3054 66.3483 34.5948Z" fill="#030047"/>
<path d="M66.0815 33.2269C66.4947 33.2166 66.8834 33.4815 67.067 33.8994L66.0815 33.2269Z" fill="white"/>
<path d="M67.0667 34.0497C67.0088 34.0497 66.9538 34.0163 66.9293 33.9598C66.7698 33.5965 66.4394 33.3678 66.0846 33.3767C66.0023 33.3772 65.9331 33.3132 65.9307 33.2304C65.9284 33.1476 65.9943 33.0789 66.0771 33.0765C66.5524 33.0657 66.9947 33.364 67.2037 33.8389C67.2371 33.9146 67.2027 34.0031 67.1265 34.0365C67.1067 34.045 67.0869 34.0497 67.0667 34.0497Z" fill="#030047"/>
<path d="M69.4069 36.0512C69.5449 35.7616 69.4993 35.4519 69.305 35.3593C69.1107 35.2667 68.8414 35.4264 68.7034 35.7159C68.5655 36.0054 68.6111 36.3152 68.8054 36.4078C68.9996 36.5003 69.269 36.3407 69.4069 36.0512Z" fill="#030047"/>
<path d="M69.1382 34.68C69.5514 34.6697 69.9401 34.9346 70.1236 35.3525L69.1382 34.68Z" fill="white"/>
<path d="M70.1238 35.5028C70.066 35.5028 70.0109 35.4694 69.9864 35.4129C69.8269 35.0496 69.4984 34.8204 69.1417 34.8299C69.0556 34.8308 68.9902 34.7663 68.9878 34.6835C68.986 34.6007 69.0514 34.532 69.1342 34.5296C69.6095 34.5179 70.0518 34.8171 70.2608 35.292C70.2942 35.3677 70.2598 35.4562 70.1836 35.4896C70.1638 35.4981 70.144 35.5028 70.1238 35.5028Z" fill="#030047"/>
<path d="M73.9249 35.4986C73.9249 35.4986 76.0256 34.0949 76.9386 34.6374C77.8511 35.1796 76.7932 38.5654 75.5631 38.6581C74.3329 38.7509 73.4868 38.1029 73.4868 38.1029" fill="white"/>
<path d="M75.3202 38.8174C74.1875 38.8174 73.4299 38.248 73.3955 38.2217C73.3301 38.1713 73.3174 38.0777 73.3678 38.0118C73.4176 37.9459 73.5122 37.9332 73.5781 37.9836C73.5861 37.9897 74.3969 38.5953 75.5522 38.5087C76.1711 38.4622 76.7889 37.3779 77.0285 36.3567C77.2148 35.5619 77.1499 34.9374 76.8623 34.7666C76.1814 34.3619 74.5715 35.248 74.0087 35.624C73.9395 35.6702 73.8463 35.6513 73.8007 35.5826C73.7546 35.5139 73.7729 35.4207 73.8421 35.3746C73.9311 35.3153 76.0332 33.9252 77.0158 34.5092C77.4303 34.7558 77.5447 35.472 77.3207 36.4259C77.0534 37.5647 76.3678 38.7487 75.5748 38.8085C75.4882 38.8151 75.4026 38.8174 75.3202 38.8174Z" fill="#030047"/>
<path d="M75.7451 37.1482C75.7145 37.1482 75.6839 37.1388 75.6571 37.12C75.5898 37.0715 75.5748 36.9779 75.6232 36.9106C75.7503 36.7346 75.8425 36.5294 75.8901 36.3176C75.9169 36.1967 75.9122 36.1125 75.8759 36.0668C75.8505 36.0348 75.8011 36.015 75.747 36.0146C75.6976 36.0127 75.6256 36.032 75.5498 36.0696C75.4369 36.1256 75.3343 36.2066 75.2533 36.303C75.2002 36.3666 75.1056 36.375 75.0421 36.3219C74.9785 36.2687 74.9701 36.1741 75.0232 36.1106C75.1305 35.9821 75.2665 35.8753 75.4166 35.8009C75.5357 35.7416 75.6406 35.7148 75.7503 35.7148C75.8948 35.7162 76.0298 35.7783 76.1112 35.8805C76.2077 36.0019 76.2312 36.1666 76.1832 36.383C76.1272 36.6348 76.0181 36.8781 75.867 37.087C75.8378 37.1275 75.7917 37.1482 75.7451 37.1482Z" fill="#030047"/>
<path d="M67.491 35.0566C67.2943 35.4759 66.732 36.6053 66.5353 37.0246C66.4167 37.2777 66.2962 37.5408 66.3193 37.8114C66.3423 38.082 66.5527 38.362 66.876 38.4119" fill="white"/>
<path d="M66.8758 38.5614C66.8683 38.5614 66.8607 38.5609 66.8527 38.5595C66.4395 38.496 66.1963 38.1412 66.1694 37.8235C66.1426 37.5082 66.2791 37.2169 66.3991 36.9605C66.4974 36.7506 66.6866 36.3642 66.8767 35.9774C67.0664 35.5901 67.2565 35.2023 67.3548 34.9925C67.3901 34.9176 67.4791 34.8852 67.5544 34.9205C67.6292 34.9558 67.6617 35.0452 67.6264 35.12C67.5275 35.3308 67.3365 35.7205 67.1459 36.1096C66.9572 36.4946 66.7685 36.8795 66.6706 37.088C66.5666 37.3106 66.448 37.5628 66.4683 37.7986C66.4847 37.9943 66.6414 38.224 66.8979 38.2635C66.9798 38.2762 67.0358 38.3525 67.0235 38.4348C67.0123 38.5092 66.9488 38.5614 66.8758 38.5614Z" fill="#030047"/>
<path d="M67.878 40.1068C67.8635 40.1068 67.8489 40.1044 67.8343 40.1002C67.7552 40.0762 67.7105 39.9924 67.7345 39.9129C67.8644 39.487 68.1637 39.1218 68.5557 38.911C68.9477 38.7002 69.4173 38.6517 69.8446 38.7783C69.9242 38.8018 69.9693 38.8851 69.9458 38.9646C69.9223 39.0442 69.8385 39.0893 69.7595 39.0658C69.4079 38.9613 69.0211 39.0013 68.6983 39.175C68.3755 39.3486 68.1289 39.6493 68.022 40.0004C68.0023 40.0649 67.9425 40.1068 67.878 40.1068Z" fill="#030047"/>
<path d="M59.0189 53.9511C59.0057 53.9511 58.9921 53.9492 58.9789 53.9454C58.8989 53.9233 58.8523 53.841 58.874 53.761L60.7916 46.8085C60.8137 46.7285 60.897 46.6819 60.9761 46.7035C61.0561 46.7257 61.1027 46.808 61.081 46.888L59.1634 53.8405C59.145 53.9068 59.0848 53.9511 59.0189 53.9511Z" fill="#030047"/>
<path d="M84.4991 59.3178H75.2073L73.5791 45.1211L76.7937 45.5353C78.2502 45.6675 79.5584 46.3795 80.4544 47.4637C80.8986 47.9978 81.2426 48.6237 81.4544 49.3141C81.5683 49.6882 81.6864 50.0722 81.8064 50.4642C82.8445 53.8487 84.021 57.7357 84.4991 59.3178Z" fill="#0494FD"/>
<g opacity="0.4">
<path d="M77.6538 57.3544C77.8688 57.2653 77.9708 57.019 77.8818 56.8041C77.7928 56.5892 77.5464 56.4871 77.3315 56.5761C77.1166 56.6651 77.0145 56.9115 77.1036 57.1264C77.1926 57.3413 77.4389 57.4434 77.6538 57.3544Z" fill="white"/>
</g>
<path d="M74.9863 59.5516C74.9072 59.5516 74.8418 59.4904 74.8366 59.4118L74.1703 49.5422C74.1646 49.4594 74.2272 49.3878 74.31 49.3822C74.39 49.3761 74.4644 49.4391 74.47 49.5219L75.127 59.2504L84.2983 59.169C84.182 58.777 83.9971 58.1417 83.7811 57.4005C83.2884 55.7083 82.614 53.3911 82.2498 52.2368C82.2249 52.1577 82.2686 52.0735 82.3477 52.0485C82.4267 52.0236 82.511 52.0674 82.5359 52.1464C82.9011 53.3041 83.5764 55.6231 84.0691 57.3168C84.3242 58.1939 84.5364 58.9219 84.6423 59.2744C84.6559 59.3196 84.6475 59.3685 84.6197 59.4067C84.5915 59.4448 84.5472 59.4674 84.5002 59.4678L74.9877 59.5521L74.9863 59.5516Z" fill="#030047"/>
<path d="M84.3069 59.3175L84.8923 62.9274C85.2363 65.4564 83.6942 67.8615 81.2523 68.6046C78.73 69.3721 76.0321 68.1317 74.9738 65.7166L67.7563 49.67L67.785 49.7331C67.8763 49.9331 67.8265 50.1688 67.6627 50.3152C67.4392 50.5147 67.0914 50.4747 66.9187 50.2295L65.3192 47.9528C65.0627 47.5881 65.0006 47.1105 65.1893 46.7067C65.3102 46.4479 65.5163 46.2366 65.8674 46.2719C65.8674 46.2719 65.9832 45.223 66.7818 45.2611C66.7818 45.2611 67.0288 44.1411 68.0669 44.4126L66.3389 41.9114C66.0491 41.5204 66.1436 40.966 66.5469 40.6935C66.8938 40.4592 67.3596 40.51 67.6472 40.8145C67.6472 40.8145 70.7201 43.5655 71.9168 45.0724C74.5723 48.4168 81.3455 59.3171 81.3455 59.3171H84.305L84.3069 59.3175Z" fill="white"/>
<path d="M79.7383 68.981C77.6621 68.981 75.7082 67.7659 74.8362 65.7772L67.8743 50.2986C67.8437 50.3452 67.8061 50.389 67.7628 50.4276C67.624 50.5513 67.4385 50.6097 67.2545 50.5885C67.0701 50.5673 66.903 50.468 66.7962 50.316L65.1967 48.0393C64.9021 47.6201 64.8475 47.085 65.0541 46.6436C65.207 46.317 65.4423 46.1382 65.7402 46.1198C65.8211 45.7222 66.0861 45.1556 66.6696 45.1132C66.7317 44.9292 66.8884 44.5716 67.2202 44.3683C67.3802 44.2704 67.5581 44.221 67.7524 44.2205L66.2164 41.9975C66.0545 41.7791 65.9896 41.5062 66.0362 41.2337C66.0828 40.9608 66.2348 40.725 66.4644 40.5702C66.8738 40.293 67.4178 40.3528 67.7576 40.7123C67.7797 40.7311 70.8451 43.4803 72.0357 44.9801C74.5543 48.1523 80.8404 58.2215 81.4301 59.1683H84.3063C84.3797 59.1683 84.4428 59.2215 84.4545 59.2944L85.04 62.9043C85.3962 65.524 83.8216 67.9805 81.296 68.749C80.7793 68.9062 80.255 68.981 79.7383 68.981ZM67.9322 49.6953L75.1105 65.6553C76.1388 68.0008 78.76 69.2064 81.2089 68.461C83.5929 67.7353 85.0795 65.4168 84.7435 62.9476L84.1793 59.4676H81.3473C81.2955 59.4676 81.247 59.4408 81.2197 59.3965C81.152 59.2878 74.4211 48.4652 71.8009 45.1659C70.6254 43.6859 67.5793 40.9537 67.5487 40.9264C67.3011 40.6657 66.92 40.6238 66.6324 40.8182C66.4715 40.9269 66.3651 41.0925 66.3322 41.2836C66.2993 41.4751 66.3454 41.6662 66.4607 41.8224L68.1915 44.3273C68.2273 44.3791 68.2268 44.4473 68.191 44.4986C68.1548 44.5499 68.0903 44.5735 68.0301 44.5579C67.7769 44.4916 67.5581 44.5137 67.3783 44.6229C67.0371 44.8304 66.9303 45.2892 66.9289 45.2939C66.9129 45.365 66.8498 45.4153 66.7755 45.4111C66.1223 45.3786 66.0183 46.2793 66.0174 46.2883C66.0084 46.3702 65.9345 46.4295 65.8531 46.421C65.6178 46.3975 65.447 46.5113 65.3261 46.7702C65.1651 47.1146 65.2098 47.5349 65.4428 47.8666L67.0423 50.1433C67.1007 50.2266 67.1887 50.2789 67.2894 50.2902C67.3901 50.3019 67.4875 50.2709 67.5632 50.2036C67.6743 50.1048 67.7105 49.9499 67.6564 49.813L67.6202 49.7321C67.5863 49.6568 67.6202 49.5678 67.695 49.5339C67.7703 49.5 67.8588 49.533 67.8936 49.6083L67.9223 49.6713C67.9261 49.6793 67.9289 49.6873 67.9322 49.6953Z" fill="#030047"/>
<path d="M67.7565 49.8204C67.7099 49.8204 67.6638 49.7988 67.6342 49.7578L66.6045 48.3174C66.5565 48.2501 66.5721 48.1564 66.6394 48.108C66.7066 48.06 66.8003 48.0755 66.8488 48.1428L67.8784 49.5833C67.9264 49.6506 67.9109 49.7442 67.8436 49.7927C67.8172 49.8115 67.7866 49.8204 67.7565 49.8204Z" fill="#030047"/>
<path d="M67.4195 46.1997C67.3758 46.1997 67.3325 46.1809 67.3028 46.1442L66.6657 45.3555C66.6134 45.291 66.6238 45.1964 66.6883 45.1446C66.7527 45.0924 66.8473 45.1028 66.8991 45.1672L67.5363 45.9559C67.5885 46.0204 67.5781 46.115 67.5137 46.1668C67.4859 46.1893 67.4525 46.1997 67.4195 46.1997Z" fill="#030047"/>
<path d="M66.4189 46.9794C66.3803 46.9794 66.3413 46.9643 66.3121 46.9347L65.7615 46.3765C65.7032 46.3177 65.7041 46.2227 65.7629 46.1643C65.8217 46.1059 65.9168 46.1069 65.9751 46.1657L66.5257 46.7239C66.5841 46.7828 66.5831 46.8777 66.5243 46.9361C66.4951 46.9648 66.457 46.9794 66.4189 46.9794Z" fill="#030047"/>
<path d="M82.5362 61.3752C82.4864 61.3752 82.4374 61.3502 82.4087 61.3046L81.2195 59.3973C81.1758 59.3272 81.1969 59.2345 81.2675 59.1907C81.3376 59.1469 81.4303 59.1681 81.4741 59.2387L82.6633 61.146C82.7071 61.2161 82.6859 61.3088 82.6153 61.3526C82.5903 61.3681 82.5635 61.3752 82.5362 61.3752Z" fill="#030047"/>
<path d="M68.8398 45.4243C68.7984 45.4243 68.7575 45.4073 68.7278 45.3744L67.9561 44.5127C67.901 44.4511 67.9062 44.356 67.9678 44.301C68.0295 44.2455 68.1246 44.2511 68.1796 44.3127L68.9514 45.1744C69.0064 45.236 69.0013 45.3311 68.9396 45.3862C68.9109 45.412 68.8755 45.4243 68.8398 45.4243Z" fill="#030047"/>
<path d="M50.7654 48.0943H43.9183C43.3899 48.0947 42.923 47.7517 42.7654 47.2472L38.8346 35.131C38.5917 34.3536 39.1724 33.5635 39.9875 33.5635H46.8346C47.363 33.563 47.8299 33.906 47.9875 34.4105L51.9183 46.5267C52.1611 47.3042 51.5804 48.0943 50.7654 48.0943Z" fill="url(#paint0_linear_165_1447)"/>
<path d="M49.9811 47.8995H43.3707C42.8423 47.9 42.3754 47.5569 42.2178 47.0524L38.6441 35.6124C38.4013 34.835 38.982 34.0449 39.7971 34.0449H46.4074C46.9359 34.0444 47.4027 34.3875 47.5604 34.892L51.134 46.332C51.3768 47.1094 50.7961 47.8995 49.9811 47.8995Z" fill="url(#paint1_linear_165_1447)"/>
<path d="M40.9558 49.7874C40.9558 49.7874 39.3892 47.138 39.1172 46.0081C38.8471 44.8759 38.7794 42.289 40.2217 40.9201C41.6203 39.593 43.3022 39.1596 45.0904 39.786C46.8805 40.4142 46.1328 41.1963 46.1328 41.1963C46.1328 41.1963 48.0711 41.3003 48.145 42.0184C48.193 42.4886 47.689 42.6504 47.3347 42.7083C48.0528 42.7163 48.489 43.2486 48.3187 43.8443C48.1248 44.5267 46.2561 44.6566 46.2561 44.6566C46.7563 44.6467 47.2622 44.9507 47.1742 45.6147C47.0881 46.2787 45.8739 46.4829 45.8739 46.4829C47.0179 47.5149 45.8739 48.7154 45.8739 48.7154" fill="white"/>
<path d="M40.9556 49.9372C40.9043 49.9372 40.8544 49.9109 40.8262 49.8633C40.7617 49.7542 39.245 47.1815 38.9706 46.0426C38.6591 44.7363 38.6949 42.1607 40.1179 40.8106C41.5913 39.413 43.3278 39.0092 45.1396 39.6436C45.8935 39.908 46.3236 40.2417 46.4182 40.6356C46.4586 40.804 46.4299 40.9518 46.3848 41.0647C46.9481 41.1212 48.2243 41.324 48.2939 42.0022C48.3132 42.1899 48.2723 42.4826 47.9076 42.6822C48.0713 42.7589 48.2102 42.869 48.3137 43.0078C48.5001 43.2577 48.5532 43.5692 48.4629 43.885C48.3255 44.3683 47.5589 44.6031 46.9659 44.7142C47.0182 44.7523 47.0662 44.7956 47.1085 44.8431C47.2906 45.0464 47.3645 45.3203 47.3231 45.6342C47.2511 46.1904 46.5603 46.4596 46.1669 46.5687C46.397 46.8398 46.5193 47.1405 46.5316 47.4662C46.5593 48.2045 46.0064 48.7937 45.9829 48.8182C45.9255 48.8779 45.8309 48.8803 45.7711 48.8233C45.7113 48.7664 45.7085 48.6713 45.7655 48.6111C45.7702 48.6059 46.2558 48.0859 46.2318 47.4751C46.2191 47.1527 46.0648 46.8563 45.7735 46.5932C45.7306 46.5546 45.7137 46.4953 45.7302 46.4398C45.7462 46.3847 45.7923 46.3433 45.8492 46.3339C46.1565 46.2817 46.9669 46.0473 47.0257 45.5942C47.0558 45.3659 47.0088 45.1805 46.885 45.0422C46.7481 44.8887 46.5132 44.8003 46.2591 44.8055C46.1777 44.8073 46.1099 44.7438 46.1062 44.6624C46.1024 44.581 46.1645 44.5118 46.2455 44.5062C46.9273 44.4586 48.0539 44.2252 48.1739 43.8026C48.2379 43.5786 48.2017 43.3603 48.0728 43.1871C47.9193 42.981 47.6492 42.861 47.3325 42.8572C47.2549 42.8563 47.1904 42.796 47.1848 42.7184C47.1791 42.6407 47.2332 42.5716 47.3104 42.5589C47.7928 42.4798 48.0233 42.3024 47.9956 42.0323C47.9495 41.5866 46.7151 41.3767 46.1245 41.3447C46.0662 41.3415 46.0149 41.3047 45.9932 41.2502C45.9716 41.1956 45.9838 41.1335 46.0243 41.0911C46.0299 41.085 46.1801 40.9198 46.1259 40.7019C46.077 40.5047 45.8488 40.2097 45.0408 39.9264C43.3415 39.3316 41.7109 39.7123 40.325 41.028C38.9937 42.2916 38.9669 44.7316 39.2629 45.9725C39.5264 47.0676 41.069 49.684 41.0845 49.7104C41.1269 49.7819 41.1029 49.8737 41.0318 49.916C41.0078 49.9302 40.9815 49.9372 40.9556 49.9372Z" fill="#030047"/>
<path d="M46.1334 41.1968C46.1334 41.1968 45.0012 41.1229 44.221 41.3907C43.3603 41.6857 42.2412 42.2885 42.2412 42.2885" fill="white"/>
<path d="M42.2412 42.4388C42.1875 42.4388 42.1362 42.4101 42.1089 42.3597C42.0694 42.2868 42.0967 42.1959 42.1701 42.1564C42.2162 42.1315 43.3099 41.5446 44.1725 41.2486C44.972 40.9748 46.0958 41.0439 46.1433 41.0472C46.2261 41.0524 46.2887 41.1239 46.2831 41.2068C46.2774 41.2896 46.2063 41.3522 46.1235 41.3465C46.1127 41.346 45.0115 41.2778 44.2694 41.5324C43.4299 41.8204 42.3231 42.4143 42.3122 42.4204C42.2896 42.4326 42.2652 42.4388 42.2412 42.4388Z" fill="#030047"/>
<path d="M47.3815 42.71C47.3815 42.71 45.7707 42.7932 45.1067 42.9283C44.4427 43.0634 42.438 43.9984 42.438 43.9984" fill="white"/>
<path d="M42.4383 44.1479C42.3818 44.1479 42.3277 44.1159 42.3023 44.0614C42.267 43.9861 42.2999 43.8971 42.3747 43.8618C42.4571 43.8232 44.403 42.9183 45.0769 42.7809C45.7442 42.6449 47.3079 42.563 47.3743 42.5597C47.459 42.5559 47.5277 42.619 47.5319 42.7018C47.5362 42.7846 47.4726 42.8552 47.3898 42.8595C47.3738 42.8604 45.7827 42.9437 45.1371 43.075C44.4976 43.2053 42.5216 44.1244 42.5018 44.1338C42.4811 44.1432 42.4595 44.1479 42.4383 44.1479Z" fill="#030047"/>
<path d="M46.2577 44.6564C46.2577 44.6564 45.525 44.5736 44.6393 44.7397C43.7537 44.9058 42.813 45.5515 42.813 45.5515" fill="white"/>
<path d="M42.8134 45.7006C42.7654 45.7006 42.7184 45.6781 42.6897 45.6358C42.6431 45.5675 42.6605 45.4739 42.7287 45.4273C42.7683 45.4 43.7062 44.7619 44.612 44.592C45.5094 44.424 46.244 44.504 46.2746 44.5073C46.357 44.5167 46.4163 44.5911 46.4069 44.673C46.3974 44.7553 46.3236 44.814 46.2412 44.8051C46.2342 44.8041 45.5184 44.7271 44.6676 44.8866C43.8247 45.0447 42.9076 45.6682 42.8986 45.6744C42.8727 45.6922 42.8426 45.7006 42.8134 45.7006Z" fill="#030047"/>
<path d="M45.8747 46.4824C45.8747 46.4824 44.9364 46.4908 44.4686 46.6198C44.0009 46.7487 43.0625 47.2292 43.0625 47.2292" fill="white"/>
<path d="M43.0627 47.3795C43.0081 47.3795 42.9559 47.3498 42.929 47.2976C42.8914 47.2237 42.9206 47.1334 42.994 47.0957C43.033 47.076 43.9516 46.6068 44.4288 46.475C44.9098 46.3423 45.8345 46.3324 45.8735 46.332H45.8749C45.9573 46.332 46.0241 46.3983 46.0251 46.4807C46.026 46.5635 45.9592 46.6313 45.8763 46.6322C45.8669 46.6322 44.9521 46.6421 44.5088 46.7644C44.0613 46.8877 43.1403 47.3578 43.1309 47.3625C43.1093 47.3738 43.0858 47.3795 43.0627 47.3795Z" fill="#030047"/>
<path d="M51.9739 56.6929C51.9179 56.6929 51.8638 56.6614 51.8384 56.6072L51.0549 54.9526C51.0196 54.8778 51.0516 54.7884 51.1264 54.7526C51.2012 54.7174 51.2907 54.7494 51.3259 54.8242L52.1095 56.4788C52.1448 56.5536 52.1128 56.643 52.0379 56.6788C52.0172 56.6886 51.9951 56.6929 51.9739 56.6929Z" fill="#030047"/>
<path d="M56.9343 16.3718C57.5282 11.8727 54.2357 7.72732 49.5802 7.11276C44.9247 6.49821 40.6693 9.64722 40.0754 14.1463C39.4815 18.6453 42.774 22.7907 47.4295 23.4053C52.0849 24.0199 56.3404 20.8708 56.9343 16.3718Z" fill="#F1282E"/>
<path d="M52.5187 17.9042L50.1239 19.6759C50.1168 19.6811 50.1069 19.6797 50.1013 19.6731L44.4966 12.6157L46.8914 10.8439C46.8985 10.8388 46.9083 10.8402 46.914 10.8468L52.5187 17.9042Z" fill="white"/>
<path d="M43.9482 16.7723L45.8009 19.105C45.8061 19.1116 45.8165 19.113 45.8235 19.1079L53.0682 13.7479L51.2155 11.4152C51.2104 11.4086 51.2 11.4072 51.1929 11.4123L43.9482 16.7723Z" fill="white"/>
<path d="M22.2717 60.0887L21.3602 61.0003C20.932 61.4252 20.2416 61.4252 19.8171 61.0003L18.9056 60.0887C18.4807 59.6638 18.4807 58.9739 18.9056 58.549L19.8171 57.6341C20.2421 57.2092 20.932 57.2092 21.3602 57.6341L22.2717 58.549C22.6967 58.9739 22.6967 59.6638 22.2717 60.0887Z" fill="#6D869A"/>
<path d="M14.097 53.4003L13.8909 54.1622C13.793 54.5184 13.4265 54.7288 13.0712 54.6328L12.3093 54.4267C11.954 54.3307 11.7436 53.9641 11.8396 53.6088L12.0443 52.845C12.1403 52.4897 12.5069 52.2794 12.8641 52.3744L13.6274 52.5824C13.9827 52.6784 14.193 53.045 14.097 53.4003Z" fill="#6D869A"/>
<path d="M57.537 37.8466L57.3309 38.6085C57.233 38.9647 56.8664 39.1751 56.5111 39.0791L55.7492 38.873C55.3939 38.777 55.1836 38.4104 55.2796 38.0551L55.4843 37.2913C55.5803 36.936 55.9469 36.7257 56.304 36.8207L57.0673 37.0287C57.4226 37.1247 57.633 37.4913 57.537 37.8466Z" fill="#6D869A"/>
<path d="M78.9627 27.2443C78.7881 27.161 78.6582 27.0288 78.5726 26.8467C78.4869 26.6646 78.4831 26.4914 78.5613 26.3276C78.6766 26.0857 78.846 25.8985 79.07 25.7653C79.3203 25.6166 79.5608 25.5968 79.7904 25.7065C80.1707 25.8876 80.2511 26.2086 80.0319 26.6688C79.9297 26.8834 79.7862 27.0519 79.6013 27.1747C79.3777 27.3173 79.1646 27.3407 78.9627 27.2443ZM80.349 25.1761C80.1867 25.0989 80.0733 24.9695 80.0093 24.7879C79.9448 24.6062 79.95 24.4377 80.0243 24.2815C80.1528 24.0123 80.5641 23.8015 81.2591 23.649L83.181 23.2721C83.8982 23.0825 84.3424 22.8081 84.5137 22.449C84.7293 21.9963 84.7123 21.4759 84.4629 20.8876C84.2234 20.3187 83.87 19.9229 83.4031 19.7003C83.1537 19.5813 82.7768 19.5563 82.2728 19.625C81.7688 19.6937 81.4709 19.7065 81.3801 19.6627C81.2177 19.585 81.1086 19.4542 81.0535 19.2697C80.998 19.0853 81.0083 18.913 81.0846 18.753C81.2314 18.4448 81.6803 18.2829 82.4314 18.2674C83.1043 18.2528 83.6187 18.3305 83.9754 18.5003C84.7716 18.8796 85.3481 19.5305 85.7062 20.4528C86.0639 21.3752 86.0568 22.2265 85.685 23.0067C85.4135 23.5766 84.9867 23.993 84.4041 24.2566C84.0558 24.4161 83.4803 24.5634 82.6775 24.698C81.8653 24.8425 81.2761 24.9926 80.91 25.1488C80.6949 25.2429 80.5086 25.2519 80.35 25.1766L80.349 25.1761Z" fill="#9747FF"/>
<path d="M80.2626 34.315C80.1877 34.1776 80.1661 34.0289 80.1962 33.8689C80.2268 33.7089 80.3063 33.5936 80.4357 33.5235C80.6263 33.42 80.8263 33.3781 81.0362 33.3974C81.271 33.4195 81.4376 33.5207 81.536 33.7018C81.6988 34.0016 81.5986 34.2496 81.2357 34.4468C81.0668 34.5385 80.8927 34.5809 80.7134 34.5729C80.4993 34.5597 80.3492 34.4746 80.2626 34.315ZM82.1543 33.6204C82.0847 33.4924 82.072 33.3536 82.1167 33.2044C82.1609 33.0553 82.2442 32.947 82.3675 32.8802C82.5793 32.7649 82.9492 32.8228 83.4767 33.0534L84.9143 33.7211C85.4743 33.9386 85.8955 33.9701 86.1783 33.8162C86.535 33.6223 86.7713 33.2736 86.888 32.7701C87.0019 32.284 86.959 31.8567 86.759 31.4887C86.6522 31.292 86.4174 31.0962 86.055 30.9014C85.6922 30.7066 85.4913 30.5734 85.4527 30.5014C85.383 30.3734 85.3741 30.236 85.4254 30.0887C85.4767 29.9414 85.5656 29.8336 85.6917 29.7654C85.9346 29.6336 86.3054 29.7409 86.8042 30.0882C87.2517 30.3988 87.5515 30.6943 87.704 30.9753C88.0447 31.6025 88.1124 32.3028 87.9082 33.0769C87.7035 33.8506 87.2941 34.4049 86.6795 34.7386C86.2306 34.9823 85.7529 35.052 85.2466 34.9475C84.9426 34.8863 84.496 34.7089 83.9063 34.4148C83.3059 34.123 82.8484 33.9409 82.5346 33.8689C82.3492 33.8284 82.2221 33.7451 82.1543 33.6204Z" fill="#9747FF"/>
<path d="M73.8968 22.2382C73.781 22.2476 73.6761 22.2123 73.5815 22.1318C73.4869 22.0514 73.4352 21.9558 73.4262 21.8448C73.4107 21.6532 73.5716 21.4024 73.9095 21.0923L74.8591 20.2598C75.1975 19.9219 75.3566 19.625 75.3354 19.3695C75.309 19.0471 75.1312 18.7629 74.8017 18.5154C74.4841 18.2758 74.1589 18.1695 73.8262 18.1968C73.6483 18.2114 73.4304 18.3191 73.1716 18.521C72.9128 18.7224 72.7509 18.8259 72.686 18.8311C72.5702 18.8405 72.4671 18.8029 72.3763 18.7182C72.2855 18.6335 72.2356 18.5342 72.2262 18.4203C72.2083 18.201 72.406 17.9652 72.8201 17.7135C73.1904 17.4876 73.5024 17.3638 73.7561 17.3431C74.3227 17.297 74.8554 17.473 75.3533 17.8711C75.8511 18.2692 76.1231 18.7464 76.1683 19.3017C76.2013 19.7074 76.0982 20.0777 75.8587 20.4132C75.7161 20.6151 75.4431 20.8834 75.0389 21.2184C74.6328 21.5619 74.3528 21.8363 74.1994 22.0419C74.11 22.1638 74.0093 22.2293 73.8968 22.2382ZM73.7937 23.8405C73.6695 23.8509 73.5542 23.8189 73.4474 23.745C73.3406 23.6711 73.2827 23.5761 73.2728 23.4594C73.2587 23.2871 73.2926 23.1281 73.374 22.9812C73.4657 22.817 73.5933 22.7285 73.7566 22.7149C74.0271 22.6928 74.1759 22.8457 74.2027 23.1732C74.2154 23.3262 74.1895 23.4664 74.1264 23.5949C74.0479 23.7469 73.9372 23.8287 73.7937 23.8405Z" fill="#9747FF"/>
<defs>
<linearGradient id="paint0_linear_165_1447" x1="45.3764" y1="33.5635" x2="46.5" y2="48.4997" gradientUnits="userSpaceOnUse">
<stop stop-color="#949494"/>
<stop offset="0.245" stop-color="#D5D5D5" stop-opacity="0.8775"/>
<stop offset="0.7" stop-color="#CBCBCB" stop-opacity="0.825"/>
<stop offset="1" stop-color="#959595" stop-opacity="0.75"/>
</linearGradient>
<linearGradient id="paint1_linear_165_1447" x1="44.8891" y1="34.0449" x2="44.8891" y2="47.8995" gradientUnits="userSpaceOnUse">
<stop stop-color="#030047" stop-opacity="0.43"/>
<stop offset="1" stop-color="#030047" stop-opacity="0.87"/>
</linearGradient>
</defs>
</svg>
