<svg width="100" height="100" viewBox="0 0 100 100" fill="none" xmlns="http://www.w3.org/2000/svg">
<path d="M50 42.3242C42.9492 42.3242 36.0156 44.9023 29.375 50.0195C28.4961 50.7031 27.6758 51.3672 26.9336 52.0312C25.3906 53.3984 23.0469 53.3008 21.6016 51.8555C20 50.2539 20.0781 47.6562 21.7773 46.1523C27.832 40.8203 37.5977 34.5117 50.0195 34.5117C56.7773 34.5117 62.7344 36.3672 67.7539 38.9258L63.5547 45.5664C59.1016 43.418 54.5703 42.3242 50 42.3242ZM50 64.6484C45.6836 64.6484 42.1875 68.1445 42.1875 72.4609C42.1875 76.7773 45.6836 80.2734 50 80.2734C54.3164 80.2734 57.8125 76.7773 57.8125 72.4609C57.8125 68.1445 54.3164 64.6484 50 64.6484ZM76.7969 36.2695C79.4531 38.1445 81.6016 40.0391 83.1836 41.6016C84.7266 43.1055 87.168 43.1055 88.6914 41.582C90.2148 40.0586 90.2148 37.5586 88.6719 36.0352C86.875 34.2773 84.4922 32.168 81.5625 30.0586C72.0898 23.2812 61.1719 19.707 50 19.707C38.8281 19.707 27.9102 23.2812 18.4375 30.0586C15.5078 32.168 13.125 34.2578 11.3281 36.0352C9.78516 37.5586 9.78516 40.0391 11.3086 41.582C12.832 43.1055 15.2734 43.1055 16.7969 41.6016C22.0703 36.4453 33.5352 27.5391 50 27.5391C59.5703 27.5391 68.5938 30.4687 76.7969 36.2695ZM55.6836 58.3984C55.8398 57.8516 56.0742 57.3242 56.3867 56.7969L59.6875 51.6016C56.875 50.332 53.6328 49.4336 50 49.4336C42.1094 49.4336 35.9961 53.6133 32.4023 56.9141C30.7617 58.418 30.7227 60.9766 32.2852 62.5586C33.7695 64.043 36.1523 64.082 37.6953 62.6562C40.2734 60.293 44.6484 57.2461 49.9805 57.2461C52.0508 57.2461 53.9648 57.7148 55.6836 58.3984ZM88.5938 57.832L76.6211 38.9648C75.8984 37.8125 74.6875 37.1484 73.3203 37.1484C71.9531 37.1484 70.7617 37.8125 70.0195 38.9648L58.0469 57.832C57.2656 59.043 57.2266 60.5469 57.9297 61.7969C58.6328 63.0664 59.9023 63.8281 61.3477 63.8281H85.2734C86.7188 63.8281 88.0078 63.0664 88.6914 61.7969C89.4141 60.5469 89.3555 59.0625 88.5938 57.832ZM73.3203 40.9766C74.7656 40.9766 75.8984 42.1875 75.8008 43.6328L75.2148 52.2461C75.1367 53.2422 74.3164 54.0039 73.3203 54.0039C72.3242 54.0039 71.5039 53.2227 71.4258 52.2461L70.8398 43.6328C70.7422 42.1875 71.8945 40.9766 73.3203 40.9766ZM73.3203 61.1914C71.9336 61.1914 70.8008 60.0586 70.8008 58.6719C70.8008 57.2852 71.9336 56.1523 73.3203 56.1523C74.707 56.1523 75.8398 57.2852 75.8398 58.6719C75.8398 60.0586 74.707 61.1914 73.3203 61.1914Z" fill="url(#paint0_linear_163_1444)"/>
<defs>
<linearGradient id="paint0_linear_163_1444" x1="28.4658" y1="18.91" x2="80.1533" y2="70.5973" gradientUnits="userSpaceOnUse">
<stop stop-color="#2492FF"/>
<stop offset="1" stop-color="#0043AE"/>
</linearGradient>
</defs>
</svg>
