<svg width="307" height="250" viewBox="0 0 307 250" fill="none" xmlns="http://www.w3.org/2000/svg">
<g clip-path="url(#clip0_2072_7374)">
<path d="M253.775 147.658C255.209 174.084 203.544 227.818 139.864 207.93C110.247 198.679 112.756 183.324 90.2349 163.088C76.8111 151.028 57.5236 141.908 52.1595 124.376C47.5253 109.244 50.367 92.9793 58.4011 82.4001C76.4699 58.608 112.947 42.3163 148.889 79.8026C184.83 117.289 250.069 79.5038 253.775 147.658Z" fill="url(#paint0_linear_2072_7374)"/>
<path d="M231.357 79.9667C226.623 88.4163 216.254 89.5771 199.642 87.9713C187.149 86.7617 175.756 85.8254 163.262 79.0133C154.517 74.2488 147.595 67.8025 142.542 61.5417C137.067 54.7592 129.425 47.0183 133.171 39.3283C138.32 28.7642 168.092 19.8667 197.001 34.4167C228.759 50.4046 235.989 71.7083 231.357 79.9667Z" fill="url(#paint1_linear_2072_7374)"/>
<path d="M90.0314 215.36C78.4189 199.114 66.5259 181.848 50.9564 173.343C34.8964 164.567 31.9347 169.976 30.823 178.575C29.7114 187.175 34.6659 207.55 56.583 219.142C78.5059 230.738 100.897 230.564 90.0314 215.36Z" fill="url(#paint2_linear_2072_7374)"/>
<path d="M258.073 105.621C249.855 107.567 241.163 100.598 241.163 100.598C241.163 100.598 245.801 90.4758 254.022 88.535C262.24 86.5879 270.929 93.5517 270.929 93.5517C270.929 93.5517 266.291 103.674 258.073 105.621Z" fill="url(#paint3_linear_2072_7374)"/>
<path d="M271.696 181.556C279.147 186.688 290.53 183.101 290.53 183.101C290.53 183.101 289.825 171.194 282.369 166.067C274.919 160.935 263.541 164.517 263.541 164.517C263.541 164.517 264.246 176.424 271.696 181.556Z" fill="url(#paint4_linear_2072_7374)"/>
<path d="M18.8193 128.699C26.8964 136.92 42.001 135.187 42.001 135.187C42.001 135.187 43.9997 120.125 35.9147 111.908C27.8376 103.688 12.7405 105.416 12.7405 105.416C12.7405 105.416 10.7418 120.478 18.8193 128.699Z" fill="url(#paint5_linear_2072_7374)"/>
<path d="M266.083 131.6C262.768 131.6 260.08 134.17 260.08 137.341C260.08 140.512 262.768 143.083 266.083 143.083C269.398 143.083 272.086 140.512 272.086 137.341C272.086 134.17 269.398 131.6 266.083 131.6Z" fill="#0494FD"/>
<path d="M63.9287 178.475C59.4603 178.475 55.8379 181.98 55.8379 186.304C55.8379 190.628 59.4603 194.134 63.9287 194.134C68.3971 194.134 72.0195 190.628 72.0195 186.304C72.0195 181.98 68.3971 178.475 63.9287 178.475Z" fill="#0494FD"/>
<path d="M59.2114 86.1417C55.9573 86.1417 53.3193 83.5037 53.3193 80.2496C53.3193 76.9955 55.9573 74.3575 59.2114 74.3575C62.4655 74.3575 65.1035 76.9955 65.1035 80.2496C65.1035 83.5037 62.4655 86.1417 59.2114 86.1417Z" fill="#0494FD"/>
<path d="M187.992 65.1983C184.965 65.1983 182.511 62.7445 182.511 59.7175C182.511 56.6905 184.965 54.2367 187.992 54.2367C191.019 54.2367 193.473 56.6905 193.473 59.7175C193.473 62.7445 191.019 65.1983 187.992 65.1983Z" fill="#0494FD"/>
<path d="M254.055 194.036C251.333 194.036 249.126 191.829 249.126 189.107C249.126 186.385 251.333 184.178 254.055 184.178C256.778 184.178 258.984 186.385 258.984 189.107C258.984 191.829 256.778 194.036 254.055 194.036Z" fill="#E1E4E5"/>
<path d="M47.833 155.661C44.9696 155.661 42.6484 153.34 42.6484 150.477C42.6484 147.613 44.9696 145.292 47.833 145.292C50.6964 145.292 53.0176 147.613 53.0176 150.477C53.0176 153.34 50.6964 155.661 47.833 155.661Z" fill="#E1E4E5"/>
<path d="M104.721 214.3C103.31 214.3 102.166 213.157 102.166 211.746C102.166 210.335 103.31 209.191 104.721 209.191C106.132 209.191 107.275 210.335 107.275 211.746C107.275 213.157 106.132 214.3 104.721 214.3Z" fill="#E1E4E5"/>
<path d="M228.186 65.2667C226.032 65.2667 224.287 63.5209 224.287 61.3675C224.287 59.214 226.032 57.4683 228.186 57.4683C230.339 57.4683 232.085 59.214 232.085 61.3675C232.085 63.5209 230.339 65.2667 228.186 65.2667Z" fill="#E1E4E5"/>
<path d="M64.4397 119.341C64.8042 120.702 63.9968 122.1 62.6362 122.465C61.2757 122.829 59.8772 122.022 59.5126 120.661C59.1481 119.301 59.9555 117.902 61.3161 117.538C62.6766 117.173 64.0751 117.981 64.4397 119.341Z" fill="#E1E4E5"/>
<path d="M106.897 61.0225C105.023 61.0225 103.504 59.5034 103.504 57.6296C103.504 55.7557 105.023 54.2367 106.897 54.2367C108.771 54.2367 110.29 55.7557 110.29 57.6296C110.29 59.5034 108.771 61.0225 106.897 61.0225Z" fill="#E1E4E5"/>
<path d="M224.9 130.846C223.458 130.846 222.29 129.911 222.29 128.758C222.29 127.605 223.458 126.67 224.9 126.67C226.341 126.67 227.51 127.605 227.51 128.758C227.51 129.911 226.341 130.846 224.9 130.846Z" fill="#E1E4E5"/>
<path d="M176.065 35.0935C176.824 37.9251 175.144 40.8356 172.312 41.5943C169.481 42.3531 166.57 40.6727 165.811 37.8411C165.053 35.0095 166.733 32.099 169.565 31.3402C172.396 30.5815 175.307 32.2619 176.065 35.0935Z" fill="#E1E4E5"/>
<path d="M285.554 107.502H285.623C286.027 113.23 290.287 113.318 290.287 113.318C290.287 113.318 285.589 113.41 285.589 120.029C285.589 113.41 280.892 113.318 280.892 113.318C280.892 113.318 285.15 113.23 285.554 107.502ZM89.0167 28.6344H89.1342C89.8305 38.6594 97.1676 38.8136 97.1676 38.8136C97.1676 38.8136 89.0772 38.974 89.0772 50.5578C89.0772 38.9744 80.9863 38.8136 80.9863 38.8136C80.9863 38.8136 88.3205 38.6594 89.0167 28.6344Z" fill="#E1E4E5"/>
<path fill-rule="evenodd" clip-rule="evenodd" d="M129.038 63.1204L133.908 52.0892C136.865 45.3804 143.468 41.0579 150.754 41.0579C158.041 41.0579 164.644 45.3804 167.601 52.0892L172.47 63.1204C174.197 67.0275 177.112 70.2905 180.801 72.445C184.501 74.5971 188.79 75.5149 193.047 75.0654L204.96 73.7879C212.205 73.0158 219.222 76.6158 222.862 82.9729C226.508 89.3263 226.094 97.2471 221.807 103.18L214.754 112.943C212.24 116.452 210.899 120.665 210.921 124.981C210.919 129.286 212.273 133.482 214.79 136.973L221.844 146.736C226.131 152.669 226.545 160.59 222.899 166.943C219.259 173.3 212.242 176.9 204.997 176.128L193.084 174.851C188.827 174.401 184.538 175.319 180.838 177.471C177.142 179.638 174.226 182.918 172.507 186.843L167.601 197.874C164.644 204.583 158.041 208.905 150.754 208.905C143.468 208.905 136.865 204.583 133.908 197.874L129.038 186.843C127.32 182.918 124.404 179.638 120.708 177.471C117.007 175.319 112.718 174.401 108.461 174.851L96.5113 176.128C89.2663 176.9 82.2501 173.3 78.6092 166.943C74.9638 160.59 75.3776 152.669 79.6642 146.736L86.718 136.973C89.2355 133.482 90.5893 129.286 90.5871 124.981C90.5893 120.677 89.2355 116.481 86.718 112.99L79.6642 103.227C75.3776 97.2938 74.9638 89.3729 78.6092 83.0196C82.2534 76.6663 89.2671 73.0675 96.5113 73.8346L108.424 75.1121C112.681 75.5617 116.97 74.6438 120.67 72.4917C124.38 70.3312 127.31 67.0503 129.038 63.1204Z" fill="#0494FD"/>
<path fill-rule="evenodd" clip-rule="evenodd" d="M150.753 169.907C126.37 169.907 106.603 149.793 106.603 124.981C106.603 100.17 126.37 80.0558 150.753 80.0558C175.137 80.0558 194.904 100.17 194.904 124.981C194.904 149.793 175.137 169.907 150.753 169.907Z" fill="white"/>
<path fill-rule="evenodd" clip-rule="evenodd" d="M142.208 88.2321C141.659 88.84 141.171 89.5005 140.751 90.2042C137.32 95.9329 134.812 102.109 133.229 108.491C128.182 107.757 123.283 106.7 118.659 105.321C123.831 96.8404 132.26 90.5646 142.208 88.2321ZM116.226 110.276C121.263 111.832 126.612 113.018 132.125 113.835C130.882 121.361 130.882 129.04 132.124 136.566C126.659 137.376 121.356 138.55 116.359 140.085C114.311 135.441 113.175 130.305 113.175 124.904C113.175 119.705 114.228 114.751 116.134 110.246C116.164 110.256 116.195 110.267 116.226 110.276ZM118.971 144.99C124.054 153.038 132.102 159.028 141.581 161.424C141.281 161.033 141.004 160.626 140.751 160.203C137.319 154.472 134.811 148.295 133.227 141.91C128.294 142.629 123.502 143.655 118.971 144.99ZM138.68 141.247C140.142 146.885 142.391 152.337 145.426 157.404L145.426 157.404C147.948 161.617 153.737 161.617 156.259 157.404L156.26 157.404C159.294 152.337 161.543 146.885 163.005 141.247C154.916 140.46 146.769 140.46 138.68 141.247ZM168.458 141.911C166.874 148.295 164.366 154.472 160.934 160.203C160.682 160.625 160.405 161.032 160.105 161.423C169.582 159.025 177.629 153.036 182.711 144.988C178.181 143.654 173.39 142.628 168.458 141.911ZM185.323 140.084C180.326 138.549 175.024 137.376 169.561 136.566C170.804 129.04 170.804 121.361 169.56 113.835C175.07 113.017 180.416 111.831 185.449 110.276C185.482 110.266 185.515 110.255 185.547 110.244C187.453 114.75 188.507 119.704 188.507 124.904C188.507 130.305 187.37 135.44 185.323 140.084ZM164.15 135.887C155.302 134.982 146.384 134.982 137.535 135.887C136.343 128.812 136.343 121.588 137.536 114.514C146.312 115.419 155.374 115.419 164.149 114.514C165.342 121.588 165.343 128.813 164.15 135.887ZM138.681 109.154C146.77 109.941 154.915 109.941 163.004 109.153C161.541 103.518 159.294 98.0688 156.26 93.0042C153.734 88.7888 147.947 88.7913 145.426 93.0029L145.426 93.0033C142.392 98.0683 140.144 103.518 138.681 109.154ZM168.456 108.49C173.501 107.755 178.399 106.699 183.021 105.319C177.85 96.8408 169.422 90.5658 159.476 88.2329C160.026 88.8402 160.514 89.5 160.934 90.2029L160.934 90.2038C164.365 95.9325 166.873 102.108 168.456 108.49Z" fill="#0494FD"/>
<path fill-rule="evenodd" clip-rule="evenodd" d="M204.02 166.817C203.889 166.817 203.759 166.814 203.628 166.808L172.372 166.808C169.385 166.954 166.578 165.386 165.075 162.784C163.642 160.302 163.646 157.332 165.085 154.839L181.059 127.17C182.501 124.673 185.095 123.183 187.999 123.183C190.903 123.183 193.498 124.673 194.94 127.17L210.915 154.839C212.354 157.332 212.357 160.301 210.924 162.783C209.487 165.271 206.842 166.817 204.02 166.817Z" fill="#F1282E"/>
<path fill-rule="evenodd" clip-rule="evenodd" d="M190.774 161.137C191.084 161.137 191.336 160.886 191.336 160.575V155.985C191.336 155.674 191.085 155.422 190.774 155.422L185.227 155.422C184.916 155.422 184.664 155.674 184.664 155.985V160.575C184.664 160.886 184.916 161.137 185.227 161.137L190.774 161.137Z" fill="white"/>
<path fill-rule="evenodd" clip-rule="evenodd" d="M190.773 152.154C191.072 152.154 191.319 151.92 191.335 151.621L192.273 134.141C192.281 133.987 192.225 133.835 192.119 133.724C192.013 133.612 191.865 133.548 191.711 133.548L184.289 133.548C184.135 133.548 183.987 133.612 183.881 133.724C183.775 133.835 183.719 133.987 183.727 134.141L184.665 151.621C184.681 151.92 184.927 152.154 185.227 152.154H190.773Z" fill="white"/>
</g>
<defs>
<linearGradient id="paint0_linear_2072_7374" x1="192.025" y1="306.06" x2="95.3828" y2="-129.955" gradientUnits="userSpaceOnUse">
<stop stop-color="white"/>
<stop offset="1" stop-color="#EEEEEE"/>
</linearGradient>
<linearGradient id="paint1_linear_2072_7374" x1="199.463" y1="134.727" x2="157.264" y2="-54.8975" gradientUnits="userSpaceOnUse">
<stop stop-color="white"/>
<stop offset="1" stop-color="#EEEEEE"/>
</linearGradient>
<linearGradient id="paint2_linear_2072_7374" x1="77.0647" y1="268.69" x2="38.9651" y2="92.5004" gradientUnits="userSpaceOnUse">
<stop stop-color="white"/>
<stop offset="1" stop-color="#EEEEEE"/>
</linearGradient>
<linearGradient id="paint3_linear_2072_7374" x1="227.126" y1="110.461" x2="299.067" y2="76.4741" gradientUnits="userSpaceOnUse">
<stop stop-color="white"/>
<stop offset="1" stop-color="#EEEEEE"/>
</linearGradient>
<linearGradient id="paint4_linear_2072_7374" x1="300.72" y1="198.394" x2="242.07" y2="136.55" gradientUnits="userSpaceOnUse">
<stop stop-color="white"/>
<stop offset="1" stop-color="#EEEEEE"/>
</linearGradient>
<linearGradient id="paint5_linear_2072_7374" x1="51.046" y1="156.78" x2="-7.34821" y2="65.2425" gradientUnits="userSpaceOnUse">
<stop stop-color="white"/>
<stop offset="1" stop-color="#EEEEEE"/>
</linearGradient>
<clipPath id="clip0_2072_7374">
<rect width="307" height="250" fill="white"/>
</clipPath>
</defs>
</svg>
