<svg width="24" height="24" viewBox="0 0 24 24" fill="none" xmlns="http://www.w3.org/2000/svg">
<path d="M23.0938 5.74219C23.0938 5.85938 23.8359 9.0625 21.7656 12.1094C20.3203 14.2969 17.8594 15.8203 14.4609 16.7188C13.7188 16.9141 12.9375 17.5781 12.9375 18.3203V20.625H16.0234C16.4922 20.625 16.9219 21.0547 16.9219 21.5625C16.9219 22.1094 16.5312 22.5 16.0234 22.5H7.9375C7.39062 22.5 7 22.1094 7 21.5625C7 21.0547 7.39062 20.625 7.9375 20.625H11.0625L11.0234 18.3203C11.0234 17.5781 10.2422 16.9141 9.5 16.7188C6.10156 15.8203 3.64062 14.2969 2.19531 12.1094C0.125 9.0625 0.867188 5.85938 0.867188 5.74219C0.984375 5.3125 1.375 5 1.80469 5H5.75C5.71094 4.53125 5.71094 4.10156 5.75 3.71094C5.75 3.04688 6.29688 2.5 7 2.5H16.9609C17.6641 2.5 18.2109 3.04688 18.2109 3.71094C18.25 4.10156 18.25 4.53125 18.2109 5H22.1562C22.5859 5 22.9766 5.3125 23.0938 5.74219ZM3.75781 11.0938C4.65625 12.4609 6.10156 13.5156 8.01562 14.2969C6.57031 12.0312 5.98438 9.21875 5.75 6.875H2.625C2.58594 7.8125 2.66406 9.49219 3.75781 11.0938ZM12 16.25C14.1484 13.8281 16.375 11.5234 16.3359 4.375H7.625C7.58594 11.5234 9.8125 13.8281 12 16.25ZM20.2031 11.0938C21.2969 9.49219 21.375 7.8125 21.3359 6.875H18.2109C17.9766 9.21875 17.3906 12.0312 15.9453 14.2969C17.8594 13.5156 19.3047 12.4609 20.2031 11.0938Z" fill="#0494FD"/>
</svg>
