<svg width="20" height="20" viewBox="0 0 20 20" fill="none" xmlns="http://www.w3.org/2000/svg">
<g id="Motivation">
<path id="&#238;&#140;&#155;" d="M7.17728 6.25C6.90384 6.25 6.6304 6.17188 6.43509 5.9375C6.12259 5.54688 6.16165 4.96094 6.6304 4.60938C7.60697 3.78906 8.15384 2.61719 8.15384 1.32812V0.9375C8.15384 0.429688 8.58353 0 9.05228 0C9.56009 0 9.95072 0.429688 9.95072 0.9375V1.32812C9.95072 3.16406 9.16947 4.88281 7.76322 6.05469C7.5679 6.21094 7.37259 6.25 7.17728 6.25ZM2.48978 2.5C1.78665 2.5 1.23978 1.95312 1.23978 1.25C1.23978 0.625 1.78665 0.0390625 2.48978 0.0390625C3.11478 0.0390625 3.70072 0.585938 3.70072 1.25C3.70072 1.91406 3.15384 2.5 2.48978 2.5ZM19.0132 10C19.5601 10 19.9507 10.4297 19.9507 10.9375C19.9507 11.4844 19.5601 11.875 19.0523 11.875H18.6617C17.3726 11.875 16.2007 12.4609 15.3413 13.4375C15.146 13.6719 14.8726 13.75 14.6382 13.75C14.4429 13.75 14.2476 13.7109 14.0523 13.5547C13.6617 13.2031 13.6226 12.6172 13.9351 12.2266C15.107 10.8203 16.8257 10 18.6226 10H19.0132ZM18.7007 16.25C19.4038 16.25 19.9507 16.8359 19.9117 17.5C19.9117 18.125 19.3257 18.7109 18.7007 18.7109C18.0367 18.7109 17.4898 18.1641 17.4898 17.5C17.4898 16.8359 17.9976 16.25 18.7007 16.25ZM18.7007 5C19.4038 5 19.9507 5.58594 19.9117 6.25C19.9117 6.875 19.3257 7.46094 18.7007 7.46094C18.0367 7.46094 17.4898 6.91406 17.4898 6.25C17.4898 5.58594 17.9976 5 18.7007 5ZM15.1851 6.875C14.3648 7.85156 13.4663 7.92969 12.7242 8.00781C12.1773 8.04688 11.9038 8.08594 11.5913 8.4375C11.396 8.67188 11.1226 8.75 10.8882 8.75C10.6929 8.75 10.4585 8.71094 10.3023 8.55469C9.91165 8.20312 9.87259 7.61719 10.1851 7.22656C11.0054 6.25 11.9429 6.17188 12.607 6.13281C13.1929 6.05469 13.4663 6.05469 13.7788 5.66406C14.0913 5.3125 14.0913 5.03906 14.0523 4.45312C13.9742 3.78906 13.9351 2.85156 14.7554 1.91406C15.5757 0.9375 16.4742 0.859375 17.1773 0.78125C17.7632 0.742188 17.9976 0.703125 18.3101 0.351562C18.6617 -0.0390625 19.2476 -0.078125 19.6382 0.234375C20.0288 0.585938 20.0679 1.17188 19.7554 1.5625C18.9351 2.53906 17.9976 2.61719 17.3335 2.65625C16.7476 2.73438 16.4742 2.77344 16.1617 3.125C15.8492 3.47656 15.8492 3.75 15.8882 4.33594C15.9663 5 16.0054 5.9375 15.1851 6.875ZM5.84915 7.89062L12.0601 14.1406C12.3726 14.4531 12.4898 14.8828 12.4117 15.2734C12.3335 15.7031 12.021 16.0547 11.6304 16.1719L1.66947 19.9219C1.51322 20 1.35697 20 1.23978 20C0.888217 20 0.575717 19.8828 0.380404 19.6484C0.0288419 19.2969 -0.0883456 18.7891 0.0679044 18.3203L3.77884 8.32031C3.93509 7.92969 4.28665 7.65625 4.71634 7.53906C4.79447 7.53906 4.87259 7.5 4.95072 7.5C5.30228 7.5 5.61478 7.65625 5.84915 7.89062ZM2.29447 17.6953L5.6929 16.4453L3.54447 14.2969L2.29447 17.6953ZM7.60697 15.7031L10.107 14.7656L5.22415 9.88281L4.28665 12.3828L7.60697 15.7031Z" fill="#2DC38D"/>
</g>
</svg>
