<svg width="16" height="21" viewBox="0 0 16 21" fill="none" xmlns="http://www.w3.org/2000/svg">
<g id="Prize">
<path id="&#239;&#149;&#153;" d="M13.5469 12.6875L15.4219 17.4531C15.5391 17.7656 15.5 18.1172 15.2657 18.3906C15.0703 18.5859 14.836 18.7422 14.5625 18.7422C14.4844 18.7422 14.4063 18.7031 14.3672 18.7031L12.6094 18.3516L11.75 19.9922C11.5938 20.3438 11.2813 20.5 10.9297 20.5C10.8907 20.5 10.8907 20.5 10.8907 20.5C10.5 20.5 10.1875 20.2656 10.0703 19.9531L8.31253 15.5H7.68753L5.89065 19.9531C5.77346 20.2656 5.46096 20.5 5.07034 20.5C5.07034 20.5 5.07034 20.5 5.03128 20.5C4.67971 20.5 4.36721 20.3047 4.21096 19.9922L3.35159 18.3516L1.59378 18.7031C1.55471 18.7031 1.47659 18.7422 1.39846 18.7422C1.12503 18.7422 0.890651 18.5859 0.695338 18.3906C0.460963 18.1172 0.421901 17.7656 0.539088 17.4531L2.45315 12.7266C2.10159 12.5312 1.75003 12.2188 1.47659 11.75C1.08596 11.0469 1.12503 10.3438 1.12503 9.91406C1.12503 9.875 1.12503 9.875 1.12503 9.875C1.12503 9.83594 1.12503 9.83594 1.12503 9.83594C0.890651 9.48438 0.500026 8.85938 0.500026 8C0.500026 7.17969 0.890651 6.55469 1.12503 6.20312C1.12503 6.20312 1.12503 6.20312 1.12503 6.16406C1.12503 6.16406 1.12503 6.16406 1.12503 6.125C1.12503 5.69531 1.08596 4.99219 1.47659 4.25C1.90628 3.54688 2.53128 3.23438 2.9219 3.03906C2.96096 3.03906 2.96096 3 2.96096 3C2.96096 3 3.00003 3 3.00003 2.96094C3.19534 2.57031 3.50784 1.94531 4.21096 1.51562C4.64065 1.28125 5.14846 1.16406 5.69534 1.16406C5.81253 1.16406 5.96878 1.16406 6.08596 1.16406C6.12503 1.16406 6.12503 1.16406 6.12503 1.16406C6.16409 1.16406 6.16409 1.16406 6.16409 1.16406C6.51565 0.929688 7.14065 0.5 8.00003 0.5C8.82034 0.5 9.44534 0.929688 9.75784 1.16406H9.83596C9.95315 1.16406 10.1094 1.16406 10.2266 1.16406C10.8125 1.16406 11.2813 1.28125 11.711 1.51562C12.4141 1.94531 12.7266 2.57031 12.9219 2.96094C12.961 3 12.961 3 12.961 3C12.961 3 12.961 3.03906 13 3.03906C13.3907 3.23438 14.0157 3.54688 14.4453 4.25C14.836 4.99219 14.7969 5.69531 14.7969 6.125C14.7969 6.16406 14.7969 6.16406 14.7969 6.16406C14.7969 6.20312 14.7969 6.20312 14.7969 6.20312C15.0313 6.55469 15.461 7.17969 15.461 8C15.461 8.85938 15.0703 9.48438 14.836 9.875C14.836 9.91406 14.836 9.91406 14.836 9.95312C14.836 10.3828 14.875 11.0859 14.4844 11.7891C14.211 12.2188 13.8594 12.4922 13.5469 12.6875ZM12.8438 10.8125C13.0782 10.4219 12.8438 9.83594 12.961 9.36719C13.1172 8.89844 13.625 8.50781 13.625 8C13.625 7.53125 13.1172 7.14062 13 6.67188C12.8438 6.20312 13.0782 5.61719 12.8438 5.1875C12.6094 4.79688 11.9844 4.67969 11.6328 4.36719C11.3203 4.01562 11.2032 3.39062 10.8125 3.15625C10.6563 3.07812 10.461 3.03906 10.2657 3.03906C10.0703 3.03906 9.87503 3.07812 9.67971 3.07812C9.56253 3.07812 9.44534 3.03906 9.32815 3.03906C8.8594 2.88281 8.46878 2.375 8.00003 2.375C7.49221 2.375 7.10159 2.88281 6.63284 3C6.51565 3.03906 6.39846 3.07812 6.28128 3.07812C6.08596 3.07812 5.89065 3.03906 5.69534 3.03906C5.50003 3.03906 5.30471 3.07812 5.18753 3.15625C4.75784 3.39062 4.64065 4.01562 4.32815 4.36719C3.97659 4.67969 3.35159 4.79688 3.11721 5.1875C2.88284 5.61719 3.11721 6.20312 3.00003 6.67188C2.84378 7.14062 2.37503 7.53125 2.37503 8C2.37503 8.50781 2.84378 8.89844 3.00003 9.36719C3.11721 9.83594 2.88284 10.4219 3.11721 10.8125C3.35159 11.2422 3.97659 11.3594 4.32815 11.6719C4.64065 12.0234 4.75784 12.6484 5.14846 12.8438C5.30471 12.9609 5.50003 12.9609 5.69534 12.9609C5.89065 12.9609 6.08596 12.9609 6.28128 12.9609C6.39846 12.9609 6.51565 13 6.63284 13C7.10159 13.1562 7.49221 13.625 8.00003 13.625C8.46878 13.625 8.8594 13.1172 9.32815 13C9.44534 13 9.56253 12.9609 9.67971 12.9609C9.87503 12.9609 10.0703 13 10.2657 13C10.461 13 10.6563 12.9609 10.7735 12.8828C11.2032 12.6484 11.3203 12.0234 11.6328 11.6719C11.9844 11.3594 12.6094 11.2422 12.8438 10.8125ZM8.00003 5.5C9.36721 5.5 10.5 6.63281 10.5 8C10.5 9.40625 9.36721 10.5 8.00003 10.5C6.59378 10.5 5.50003 9.40625 5.50003 8C5.50003 6.63281 6.59378 5.5 8.00003 5.5Z" fill="#0494FD"/>
</g>
</svg>
