<svg width="14" height="14" viewBox="0 0 14 14" fill="none" xmlns="http://www.w3.org/2000/svg">
<path d="M1.82583 12.1042V12.1742H1.89583H5.99452L6.95929 12.984C7.11534 13.1229 7.31549 13.195 7.51552 13.195C7.7151 13.195 7.90508 13.1283 8.06128 12.9893L9.05146 12.1742H13.1301H13.2001V12.1042V6.74479C13.2001 6.00176 12.5971 5.39875 11.8541 5.39875H11.849H3.17188C2.42884 5.39875 1.82583 6.00176 1.82583 6.74479V12.1042ZM8.8375 11.5238H8.81238L8.79299 11.5397L7.63435 12.4942L7.63431 12.4942L7.63218 12.4961C7.56243 12.5585 7.45885 12.56 7.38221 12.4949L7.38195 12.4947L6.25393 11.5453L6.23439 11.5289H6.20885H2.47625V6.7499C2.47625 6.36491 2.78689 6.05427 3.17188 6.05427H11.849C12.2339 6.05427 12.5446 6.36491 12.5446 6.7499V11.5238H8.8375ZM12.1742 8.53125V8.46125H12.1042H11.0506L10.7631 7.36506L10.7494 7.31281H10.6954H10.4453H10.3913L10.3776 7.36506L10.0902 8.46125H7.98297L7.69552 7.36506L7.68182 7.31281H7.62781H7.37771H7.3237L7.31 7.36506L7.02255 8.46125H4.91537L4.62792 7.36506L4.61422 7.31281H4.56021H4.3101H4.25609L4.24239 7.36506L3.95495 8.46125H2.90135H2.83135V8.53125V8.76604V8.80728L2.86742 8.82727L3.66453 9.26904L3.35018 10.2556L3.33508 10.303L3.37488 10.3329L3.55863 10.4707L3.6013 10.5027L3.64348 10.47L4.43775 9.85496L5.22688 10.465L5.26718 10.4961L5.30922 10.4674L5.50317 10.3346L5.54655 10.305L5.53015 10.255L5.21104 9.28319L5.96961 8.84644L6.73214 9.26904L6.41778 10.2556L6.40268 10.303L6.44248 10.3329L6.62623 10.4707L6.66891 10.5027L6.71109 10.47L7.50535 9.85496L8.29448 10.465L8.33478 10.4961L8.37682 10.4674L8.57078 10.3346L8.61415 10.305L8.59776 10.255L8.27864 9.28319L9.03722 8.84644L9.79974 9.26904L9.48539 10.2556L9.47028 10.303L9.51008 10.3329L9.69383 10.4707L9.73651 10.5027L9.77869 10.47L10.573 9.85496L11.3621 10.465L11.4024 10.4961L11.4444 10.4674L11.6384 10.3346L11.6818 10.305L11.6654 10.255L11.3462 9.28319L12.1391 8.82671L12.1742 8.80651V8.76604V8.53125ZM10.0625 4.51792H10.1325V4.44792V3.9375V3.8675H10.0625H5.97917H5.90917V3.9375V4.44792V4.51792H5.97917H10.0625ZM2.91667 3.8675H2.84667V3.9375V4.44792V4.51792H2.91667H4.95833H5.02833V4.44792V3.9375V3.8675H4.95833H2.91667ZM7 2.98667H7.07V2.91667V2.40625V2.33625H7H2.91667H2.84667V2.40625V2.91667V2.98667H2.91667H7ZM10.0625 2.98667H10.1325V2.91667V2.40625V2.33625H10.0625H8.02083H7.95083V2.40625V2.91667V2.98667H8.02083H10.0625ZM1.43994 5.36463L1.45542 5.34541V5.32073V2.15104C1.45542 1.76606 1.76606 1.45542 2.15104 1.45542H10.8281C11.2131 1.45542 11.5238 1.76606 11.5238 2.15104V4.44792V4.51792H11.5938H12.1042H12.1742V4.44792V2.15104C12.1742 1.40801 11.5712 0.805 10.8281 0.805H2.15104C1.40801 0.805 0.805 1.40801 0.805 2.15104V6.74479H0.875H0.945C0.945 6.22105 1.13263 5.74629 1.43994 5.36463Z" fill="white" stroke="white" stroke-width="0.14"/>
</svg>
