<?xml version="1.0" encoding="UTF-8"?>
<svg id="Layer_4" data-name="Layer 4" xmlns="http://www.w3.org/2000/svg" viewBox="0 0 25 25">
  <defs>
    <style>
      .cls-1 {
        stroke-width: 0px;
      }
    </style>
  </defs>
  <path class="cls-1" d="M12.28,24.5C5.66,24.5.28,19.12.28,12.5S5.66.5,12.28.5s12,5.38,12,12-5.38,12-12,12ZM12.28,1.5C6.22,1.5,1.28,6.43,1.28,12.5s4.93,11,11,11,11-4.93,11-11S18.35,1.5,12.28,1.5ZM13.02,13.44c.16-.09.26-.26.26-.44v-7c0-.28-.22-.5-.5-.5s-.5.22-.5.5v6.1l-3.23-2.02c-.23-.15-.54-.08-.69.16-.15.23-.07.54.16.69l4,2.5c.08.05.17.08.27.08.08,0,.17-.02.24-.06h0Z"/>
</svg>