<svg width="107" height="116" viewBox="0 0 107 116" fill="none" xmlns="http://www.w3.org/2000/svg">
<path d="M74.8744 54.0761C72.5567 54.0761 70.6776 52.197 70.6776 49.8788V27.5986C70.6776 18.5727 63.3347 11.2297 54.3083 11.2297H50.0236C40.9977 11.2297 33.6543 18.5731 33.6543 27.5986V49.8788C33.6543 52.197 31.7757 54.0761 29.4575 54.0761C27.1398 54.0761 25.2607 52.197 25.2607 49.8788V27.5986C25.2607 13.9439 36.3699 2.83569 50.0231 2.83569H54.3078C67.962 2.83569 79.0707 13.9439 79.0707 27.5986V49.8788C79.0712 52.197 77.1926 54.0761 74.8744 54.0761Z" fill="#4D4D4D"/>
<path d="M54.3084 2.83617H52.166V11.2297H54.3084C63.3347 11.2297 70.6777 18.5731 70.6777 27.5986V49.8788C70.6777 52.197 72.5568 54.0761 74.8745 54.0761C77.1926 54.0761 79.0712 52.197 79.0712 49.8788V27.5986C79.0712 13.9444 67.9625 2.83617 54.3084 2.83617Z" fill="#404040"/>
<path d="M88.7364 93.9157C88.7364 97.8894 85.515 101.111 81.5409 101.111H22.7897C18.816 101.111 15.5947 97.8898 15.5947 93.9157V44.6981C15.5947 40.7248 18.8156 37.5035 22.7897 37.5035H81.5409C85.5146 37.5035 88.7364 40.7248 88.7364 44.6981V93.9157Z" fill="#22A2FF"/>
<path d="M81.5416 37.504H52.166V101.111H81.5416C85.5153 101.111 88.7371 97.8898 88.7371 93.9157V44.698C88.7371 40.7248 85.5157 37.504 81.5416 37.504Z" fill="#0494FD"/>
<path d="M79.3358 76.9211C79.3358 78.4552 78.0919 79.6996 76.5573 79.6996H27.7736C26.239 79.6996 24.9951 78.4552 24.9951 76.9211V61.6931C24.9951 60.159 26.239 58.9146 27.7736 58.9146H76.5573C78.0919 58.9146 79.3358 60.159 79.3358 61.6931V76.9211Z" fill="#4D4D4D" fill-opacity="0.2"/>
<path d="M76.5579 58.9151H52.166V79.7H76.5579C78.0925 79.7 79.3364 78.4556 79.3364 76.9215V61.6936C79.3364 60.159 78.0925 58.9151 76.5579 58.9151Z" fill="#404040" fill-opacity="0.1"/>
<path d="M34.8864 69.6935L34.2167 69.3074L34.8874 68.9203C35.2631 68.7034 35.3916 68.2218 35.1752 67.8461C34.9568 67.4694 34.4757 67.3404 34.1005 67.5578L33.4308 67.9444V67.1721C33.4308 66.7373 33.0782 66.3848 32.6439 66.3848C32.2091 66.3848 31.857 66.7373 31.857 67.1721V67.9448L31.1873 67.5578C30.8111 67.3404 30.33 67.4699 30.1121 67.8461C29.8952 68.2223 30.0242 68.7034 30.4004 68.9203L31.0701 69.3069L30.4009 69.693C30.0242 69.9104 29.8952 70.3915 30.1131 70.7677C30.33 71.1444 30.8116 71.2725 31.1873 71.0556L31.857 70.6694V71.4431C31.857 71.8779 32.2091 72.23 32.6439 72.23C33.0782 72.23 33.4308 71.8779 33.4308 71.4431V70.6699L34.0995 71.0565C34.4757 71.2734 34.9564 71.1444 35.1742 70.7682C35.3916 70.3916 35.2631 69.9109 34.8864 69.6935Z" fill="white"/>
<path d="M44.6479 69.6935L43.9791 69.3074L44.6488 68.9203C45.0245 68.7034 45.1531 68.2218 44.9366 67.8461C44.7187 67.4694 44.2372 67.3404 43.8619 67.5578L43.1922 67.9444V67.1721C43.1922 66.7373 42.8401 66.3848 42.4053 66.3848C41.971 66.3848 41.6184 66.7373 41.6184 67.1721V67.9448L40.9483 67.5578C40.5721 67.3404 40.0909 67.4699 39.8731 67.8461C39.6557 68.2223 39.7852 68.7034 40.1614 68.9203L40.8311 69.3069L40.1618 69.693C39.7852 69.9104 39.6562 70.3915 39.8736 70.7677C40.091 71.1444 40.5721 71.2725 40.9483 71.0556L41.618 70.6694V71.4431C41.618 71.8779 41.9705 72.23 42.4049 72.23C42.8397 72.23 43.1917 71.8779 43.1917 71.4431V70.6699L43.8605 71.0565C44.2367 71.2734 44.7178 71.1444 44.9352 70.7682C45.1531 70.3916 45.0245 69.9109 44.6479 69.6935Z" fill="white"/>
<path d="M54.4098 69.6935L53.7406 69.3074L54.4113 68.9203C54.787 68.7034 54.9151 68.2218 54.6986 67.8461C54.4812 67.4694 53.9992 67.3404 53.6239 67.5578L52.9547 67.9444V67.1721C52.9547 66.7373 52.6021 66.3848 52.1673 66.3848C51.733 66.3848 51.3804 66.7373 51.3804 67.1721V67.9448L50.7107 67.5578C50.335 67.3404 49.8534 67.4699 49.636 67.8461C49.4181 68.2223 49.5481 68.7034 49.9234 68.9203L50.5935 69.3069L49.9243 69.693C49.5481 69.9104 49.4191 70.3915 49.6365 70.7677C49.8534 71.1444 50.3355 71.2725 50.7112 71.0556L51.3804 70.6694V71.4431C51.3804 71.8779 51.733 72.23 52.1673 72.23C52.6021 72.23 52.9547 71.8779 52.9547 71.4431V70.6699L53.6229 71.0565C53.9991 71.2734 54.4807 71.1444 54.6977 70.7682C54.9155 70.3916 54.787 69.9109 54.4098 69.6935Z" fill="white"/>
<path d="M64.1706 69.6935L63.5009 69.3074L64.1716 68.9203C64.5478 68.7034 64.6763 68.2218 64.4594 67.8461C64.2415 67.4694 63.7604 67.3404 63.3847 67.5578L62.715 67.9444V67.1721C62.715 66.7373 62.3624 66.3848 61.9281 66.3848C61.4933 66.3848 61.1407 66.7373 61.1407 67.1721V67.9448L60.471 67.5578C60.0953 67.3404 59.6142 67.4699 59.3963 67.8461C59.1794 68.2223 59.3084 68.7034 59.6846 68.9203L60.3538 69.3069L59.6846 69.693C59.3079 69.9104 59.1799 70.3915 59.3968 70.7677C59.6142 71.1444 60.0953 71.2725 60.4715 71.0556L61.1407 70.6694V71.4431C61.1407 71.8779 61.4933 72.23 61.9281 72.23C62.3624 72.23 62.715 71.8779 62.715 71.4431V70.6699L63.3837 71.0565C63.7599 71.2734 64.2415 71.1444 64.458 70.7682C64.6763 70.3916 64.5477 69.9109 64.1706 69.6935Z" fill="white"/>
<path d="M73.9323 69.6935L73.2626 69.3074L73.9332 68.9203C74.3094 68.7034 74.4379 68.2218 74.221 67.8461C74.0036 67.4694 73.5225 67.3404 73.1463 67.5578L72.4766 67.9444V67.1721C72.4766 66.7373 72.124 66.3848 71.6897 66.3848C71.2554 66.3848 70.9028 66.7373 70.9028 67.1721V67.9448L70.2327 67.5578C69.8569 67.3404 69.3758 67.4699 69.1579 67.8461C68.941 68.2223 69.0705 68.7034 69.4458 68.9203L70.1159 69.3069L69.4462 69.693C69.0705 69.9104 68.9415 70.3915 69.1584 70.7677C69.3758 71.1444 69.8574 71.2725 70.2331 71.0556L70.9028 70.6694V71.4431C70.9028 71.8779 71.2554 72.23 71.6897 72.23C72.124 72.23 72.4766 71.8779 72.4766 71.4431V70.6699L73.1454 71.0565C73.5215 71.2734 74.0031 71.1444 74.2201 70.7682C74.4379 70.3916 74.3094 69.9109 73.9323 69.6935Z" fill="white"/>
<rect x="71.8848" y="80.0877" width="29.9123" height="29.9123" rx="14.9561" fill="white"/>
<rect x="71.8848" y="80.0877" width="29.9123" height="29.9123" rx="14.9561" stroke="#EDEDED" stroke-width="0.964912"/>
<path d="M87.0205 98.8273C86.8156 98.8273 86.6545 98.7615 86.5374 98.6297C86.4203 98.4979 86.3617 98.3076 86.3617 98.0587C86.3617 97.561 86.4203 97.0925 86.5374 96.6533C86.6545 96.2141 86.8448 95.7749 87.1083 95.3357C87.3865 94.8819 87.7525 94.3915 88.2063 93.8644C88.5577 93.4545 88.8358 93.0885 89.0408 92.7665C89.2604 92.4444 89.4141 92.1369 89.502 91.8441C89.6044 91.5367 89.6557 91.222 89.6557 90.8999C89.6557 90.3143 89.4434 89.8531 89.0188 89.5164C88.6089 89.1651 88.0307 88.9894 87.284 88.9894C86.6252 88.9894 86.0177 89.0919 85.4614 89.2968C84.9197 89.4871 84.3927 89.758 83.8803 90.1093C83.646 90.2704 83.4264 90.3509 83.2215 90.3509C83.0165 90.3509 82.8482 90.2923 82.7164 90.1752C82.5993 90.0581 82.5188 89.9117 82.4748 89.736C82.4456 89.5603 82.4748 89.3773 82.5627 89.187C82.6505 88.9821 82.8042 88.7991 83.0238 88.638C83.6094 88.1988 84.2902 87.8548 85.0661 87.6059C85.842 87.357 86.6106 87.2326 87.3719 87.2326C88.2356 87.2326 88.9896 87.379 89.6337 87.6718C90.2779 87.9646 90.7829 88.3745 91.1489 88.9015C91.5149 89.4139 91.6979 90.0215 91.6979 90.7242C91.6979 91.1927 91.632 91.6319 91.5003 92.0418C91.3685 92.4517 91.1563 92.8689 90.8635 93.2935C90.5707 93.718 90.1754 94.1865 89.6776 94.6989C89.2238 95.1674 88.8505 95.5993 88.5577 95.9945C88.2795 96.3752 88.0746 96.7412 87.9428 97.0925C87.8257 97.4439 87.7452 97.8245 87.7013 98.2344C87.6866 98.4101 87.6207 98.5565 87.5036 98.6736C87.3865 98.7761 87.2255 98.8273 87.0205 98.8273ZM86.9985 103C86.6033 103 86.2812 102.875 86.0323 102.626C85.7981 102.377 85.681 102.063 85.681 101.682C85.681 101.301 85.7981 100.994 86.0323 100.76C86.2812 100.526 86.6033 100.408 86.9985 100.408C87.3938 100.408 87.7086 100.526 87.9428 100.76C88.1771 100.994 88.2942 101.301 88.2942 101.682C88.2942 102.063 88.1771 102.377 87.9428 102.626C87.7086 102.875 87.3938 103 86.9985 103Z" fill="#F1282E"/>
</svg>
