<svg width="48" height="48" viewBox="0 0 48 48" fill="none" xmlns="http://www.w3.org/2000/svg">
<path d="M39.97 11.25C40.27 11.55 40.5 12 40.5 12.45V41.78C40.5 42.23 40.35 42.68 39.97 42.98C39.67 43.28 39.22 43.51 38.77 43.51H9.98C9.53 43.51 9.08 43.36 8.78 42.98C8.48 42.68 8.26 42.23 8.26 41.78V6.21999C8.26 5.76999 8.41 5.31999 8.78 5.01999C9.08 4.71999 9.53 4.48999 9.98 4.48999H32.48C32.93 4.48999 33.38 4.63999 33.68 5.01999L39.98 11.24L39.97 11.25Z" fill="white"/>
<path d="M9 41.62C34.42 44.24 39.3 26.62 39.75 17.62L39.83 40.87C40.13 42.75 39.45 42.75 38.71 42.75H11.32C8.92 43.05 9 42 9 41.63V41.62Z" fill="#26A3FE"/>
<path d="M38.17 9.51999L33.67 5.01999C33.37 4.71999 32.92 4.48999 32.47 4.48999H9.98C9.53 4.48999 9.08 4.63999 8.78 5.01999C8.48 5.31999 8.26 5.76999 8.26 6.21999V39.45L38.18 9.51999H38.17Z" fill="white"/>
<path d="M35.78 43.5H9.98C9.53 43.5 9.08 43.35 8.78 42.97C8.48 42.67 8.26 42.22 8.26 41.77V6.21999C8.26 5.76999 8.41 5.31999 8.78 5.01999C9.08 4.71999 9.53 4.48999 9.98 4.48999H32.48C32.93 4.48999 33.38 4.63999 33.68 5.01999L39.98 11.32C40.28 11.62 40.51 12.07 40.51 12.52V41.84" stroke="#00303E" stroke-width="1.5" stroke-linecap="round" stroke-linejoin="round"/>
<path d="M33 5.25V11.25C33 12.07 33.67 12.75 34.5 12.75H39.75" stroke="#102F3D" stroke-width="1.5" stroke-linecap="round" stroke-linejoin="round"/>
<path d="M20.4 18.6L17.32 22.72C17.17 22.95 16.87 23.1 16.57 23.17C16.27 23.25 15.97 23.17 15.75 22.95C15.68 22.95 15.68 22.87 15.6 22.87L13.95 21.22" stroke="#102F3D" stroke-width="1.5" stroke-linecap="round" stroke-linejoin="round"/>
<path d="M20.4 30.45L18.82 32.47L17.25 34.5C17.17 34.65 17.02 34.72 16.95 34.8C16.8 34.88 16.72 34.95 16.57 34.95H16.12C15.97 34.95 15.82 34.87 15.74 34.8C15.67 34.8 15.67 34.72 15.59 34.72L14.02 33" stroke="#102F3D" stroke-width="1.5" stroke-linecap="round" stroke-linejoin="round"/>
<path d="M33.6 22.5H24.82" stroke="#00303E" stroke-width="1.5" stroke-linecap="round" stroke-linejoin="round"/>
<path d="M33.6 33.53H24.82" stroke="#00303E" stroke-width="1.5" stroke-linecap="round" stroke-linejoin="round"/>
</svg>
