<svg width="48" height="48" viewBox="0 0 48 48" fill="none" xmlns="http://www.w3.org/2000/svg">
<path d="M18.98 21.34C23.48 21.34 27.1 17.72 27.1 13.22C27.1 8.72001 23.48 5.10001 18.98 5.10001C14.48 5.10001 10.86 8.72001 10.86 13.22C10.86 17.72 14.48 21.34 18.98 21.34Z" stroke="#0FF2DC" stroke-width="1.11" stroke-linecap="round" stroke-linejoin="round"/>
<path d="M34.71 42.98C39.66 42.98 43.72 38.92 43.72 33.97C43.72 29.02 39.66 24.96 34.71 24.96C29.76 24.96 25.7 29.02 25.7 33.97C25.7 38.92 29.76 42.98 34.71 42.98Z" stroke="#0FF2DC" stroke-width="1.11" stroke-linecap="round" stroke-linejoin="round"/>
<path d="M20.53 35.37C19.5 36.55 18.46 36.48 17.5 35.59C17.35 35.44 17.28 35.22 17.28 35L18.46 24.59H19.27L20.53 35.37Z" fill="#0FF2DC"/>
<path d="M23.48 38.4H4.28C4.28 35.89 4.94 33.38 6.27 31.24C7.53 29.1 9.37 27.33 11.59 26.07C13.81 24.89 16.32 24.3 18.83 24.37C21.34 24.44 23.78 25.26 25.92 26.59" stroke="#0FF2DC" stroke-width="1.11" stroke-linecap="round" stroke-linejoin="round"/>
<path d="M30.18 35.1C29.75 34.73 29.72 34.07 30.11 33.66L30.15 33.62C30.51 33.24 31.11 33.2 31.52 33.54L32.83 34.63C33.23 34.96 33.82 34.94 34.18 34.57L43.01 25.61C43.38 25.24 43.97 25.24 44.34 25.61C44.71 25.98 44.71 26.57 44.34 26.93L34.11 37.29C33.74 37.67 33.14 37.69 32.74 37.34L30.17 35.1H30.18Z" fill="#26A3FE"/>
</svg>
