<svg width="128" height="33" viewBox="0 0 128 33" fill="none" xmlns="http://www.w3.org/2000/svg">
<g clip-path="url(#clip0_551_14148)">
<path d="M28.3629 11.1313C26.8451 11.1313 25.5966 11.4495 24.6419 12.1105C23.6872 12.747 23.2221 13.6528 23.2221 14.8033C23.2221 15.8805 23.7117 16.7373 24.6909 17.3493C25.2784 17.7409 26.331 18.1081 27.8243 18.4509C29.1218 18.7446 29.9786 18.9894 30.3703 19.1853C31.1047 19.528 31.4963 20.0176 31.4963 20.6296C31.4963 21.7557 30.4682 22.3432 28.4608 22.3432C27.4816 22.3432 26.7962 22.1718 26.3555 21.8536C25.9149 21.5109 25.5966 20.8989 25.4497 20.0421H22.9038C23.1976 22.9797 25.0581 24.473 28.5342 24.473C32.2797 24.473 34.1647 23.1266 34.1647 20.4582C34.1647 19.3322 33.6506 18.4509 32.6469 17.8144C31.9615 17.3737 30.8843 16.9576 29.44 16.6149C28.167 16.2966 27.3347 16.0518 26.8941 15.856C26.2086 15.5377 25.8659 15.1705 25.8659 14.7299C25.8659 14.2403 26.0862 13.8486 26.5514 13.6038C26.943 13.359 27.5306 13.2611 28.3139 13.2611C29.1952 13.2611 29.8807 13.408 30.3213 13.7017C30.7375 13.971 31.0312 14.4361 31.2271 15.1216H33.7485C33.4548 12.4532 31.6432 11.1313 28.3629 11.1313Z" fill="#003256"/>
<path d="M40.8363 11.1313C39.2696 11.1313 37.9966 11.4006 37.0663 11.9881C35.9892 12.6246 35.3038 13.6528 35.0345 15.0236L37.6049 15.244C37.7518 14.534 38.119 14.02 38.7065 13.6772C39.1961 13.3835 39.8571 13.2366 40.6649 13.2366C42.5744 13.2366 43.5291 14.1179 43.5291 15.8805V16.3945L40.6894 16.468C38.8289 16.5169 37.3601 16.8841 36.3319 17.6185C35.2058 18.3774 34.6428 19.479 34.6428 20.8989C34.6428 21.9515 35.0345 22.8083 35.8423 23.4693C36.5767 24.1303 37.6049 24.473 38.9268 24.473C40.0529 24.473 41.0321 24.2527 41.8644 23.861C42.5989 23.4938 43.2109 22.9797 43.7005 22.3432V24.1303H46.0995V16.0518C46.0995 14.5096 45.7078 13.3345 44.9489 12.5267C44.0677 11.5964 42.6968 11.1313 40.8363 11.1313ZM43.5291 18.2795V19.0139C43.5291 19.9931 43.1129 20.8254 42.3296 21.4864C41.5462 22.1474 40.616 22.4901 39.5144 22.4901C38.8534 22.4901 38.3148 22.3187 37.9231 22.0005C37.507 21.6822 37.3111 21.2906 37.3111 20.801C37.3111 19.2342 38.4862 18.4019 40.8608 18.3529L43.5291 18.2795Z" fill="#003256"/>
<path d="M48.1396 6.30872V24.1303H50.7345V6.30872H48.1396Z" fill="#003256"/>
<path d="M58.103 11.1313C56.2425 11.1313 54.7492 11.7678 53.6721 13.0652C52.546 14.3382 52.0074 15.9049 52.0074 17.7899C52.0074 19.8707 52.595 21.5109 53.77 22.7349C54.8471 23.8855 56.3404 24.473 58.2009 24.473C59.8901 24.473 61.2854 23.9834 62.387 23.0287C63.2683 22.2453 63.8314 21.2416 64.1251 20.0666H61.5302C61.1875 20.801 60.8203 21.364 60.3797 21.7067C59.8166 22.1229 59.0822 22.3432 58.1764 22.3432C57.1483 22.3432 56.3404 22.0005 55.7529 21.364C55.1654 20.703 54.8471 19.7483 54.7492 18.5243H64.3454C64.321 16.2721 63.8069 14.5096 62.8277 13.2366C61.7505 11.8167 60.1593 11.1313 58.103 11.1313ZM58.1764 13.2611C60.2328 13.2611 61.3833 14.3627 61.6281 16.5659H54.7982C54.9451 15.4888 55.3123 14.6809 55.8508 14.1179C56.4384 13.5304 57.1972 13.2611 58.1764 13.2611Z" fill="#003256"/>
<path d="M70.0604 11.1313C68.5426 11.1313 67.2941 11.4495 66.3394 12.1105C65.3847 12.747 64.9196 13.6528 64.9196 14.8033C64.9196 15.8805 65.4092 16.7373 66.3884 17.3493C66.9759 17.7409 68.0286 18.1081 69.5218 18.4509C70.8193 18.7446 71.6761 18.9894 72.0678 19.1853C72.8022 19.528 73.1939 20.0176 73.1939 20.6296C73.1939 21.7557 72.1657 22.3432 70.1583 22.3432C69.1791 22.3432 68.4937 22.1718 68.053 21.8536C67.6124 21.5109 67.2942 20.8989 67.1473 20.0421H64.6013C64.8951 22.9797 66.7556 24.473 70.2318 24.473C73.9772 24.473 75.8622 23.1266 75.8622 20.4582C75.8622 19.3322 75.3481 18.4509 74.3444 17.8144C73.659 17.3737 72.5819 16.9576 71.1375 16.6149C69.8646 16.2966 69.0322 16.0518 68.5916 15.856C67.9062 15.5377 67.5634 15.1705 67.5634 14.7299C67.5634 14.2403 67.7838 13.8486 68.2489 13.6038C68.6406 13.359 69.2281 13.2611 70.0114 13.2611C70.8927 13.2611 71.5782 13.408 72.0188 13.7017C72.435 13.971 72.7287 14.4361 72.9246 15.1216H75.446C75.1523 12.4532 73.3407 11.1313 70.0604 11.1313Z" fill="#003256"/>
<path d="M18.1467 21.299L4.45312 16.7573V11.5694L18.1467 15.5333V21.299Z" fill="url(#paint0_linear_551_14148)"/>
<path d="M18.8674 3.28131L4.45312 11.5911V16.7689L14.0558 11.4482C17.025 9.80297 18.8674 6.67586 18.8674 3.28131Z" fill="url(#paint1_linear_551_14148)"/>
<path d="M18.1447 15.5334L8.57533 21.3405C5.56732 23.1659 3.73047 26.4292 3.73047 29.9477L18.1447 21.3238V15.5334Z" fill="url(#paint2_linear_551_14148)"/>
<path d="M81.7377 7.38584L79.8037 8.19369V11.474H77.2578V13.1142H79.8037V21.1682C79.8037 22.1229 79.9996 22.8328 80.4158 23.3224C80.8564 23.861 81.6153 24.1303 82.6434 24.1303H84.5529V22.4901H82.9372C82.4966 22.4901 82.1783 22.3677 82.007 22.1718C81.8111 21.976 81.7377 21.6333 81.7377 21.1682V13.1142H84.8711V11.474H81.7377V7.38584Z" fill="#003256"/>
<path d="M91.3454 11.1313C89.8276 11.1313 88.6281 11.4251 87.6978 12.0126C86.6697 12.6491 86.0087 13.6528 85.7394 14.9747L87.6733 15.1216C87.8692 14.3137 88.2854 13.7017 88.9463 13.31C89.5338 12.9184 90.2927 12.747 91.223 12.747C93.4262 12.747 94.5278 13.7996 94.5278 15.9294V16.5904L91.4923 16.6393C89.5828 16.6638 88.114 17.031 87.0858 17.7165C85.9108 18.4509 85.3477 19.528 85.3477 20.9723C85.3477 22.0005 85.7394 22.8573 86.5228 23.5183C87.2817 24.1547 88.2854 24.473 89.5583 24.473C90.7334 24.473 91.786 24.2037 92.7163 23.6896C93.4996 23.249 94.1606 22.6859 94.6502 22.0005V24.1303H96.4862V16.0029C96.4862 14.534 96.0945 13.3835 95.3601 12.5512C94.4788 11.5964 93.1569 11.1313 91.3454 11.1313ZM94.5278 18.0592V19.1363C94.5278 20.1155 94.0627 20.9968 93.1569 21.7557C92.2267 22.539 91.174 22.9307 89.9745 22.9307C89.1911 22.9307 88.5546 22.7349 88.065 22.3677C87.5754 21.976 87.3551 21.5109 87.3551 20.9234C87.3551 19.0873 88.775 18.1571 91.6147 18.1081L94.5278 18.0592Z" fill="#003256"/>
<path d="M98.2878 6.30872V24.1303H100.124V22.0494C100.981 23.6651 102.376 24.473 104.334 24.473C106.17 24.473 107.615 23.7875 108.667 22.4656C109.598 21.2416 110.087 19.6749 110.087 17.7654C110.087 15.9049 109.598 14.3872 108.667 13.1632C107.639 11.7923 106.219 11.1313 104.432 11.1313C102.621 11.1313 101.225 12.0126 100.246 13.7996V6.30872H98.2878ZM104.016 12.747C105.387 12.747 106.415 13.2366 107.125 14.2158C107.762 15.0726 108.08 16.2477 108.08 17.7654C108.08 19.2832 107.762 20.4827 107.174 21.364C106.489 22.3432 105.46 22.8573 104.09 22.8573C102.817 22.8573 101.813 22.3677 101.127 21.3885C100.491 20.5072 100.173 19.3566 100.173 17.9368V17.692C100.173 16.2232 100.515 15.0236 101.25 14.1179C101.935 13.1876 102.866 12.747 104.016 12.747Z" fill="#003256"/>
<path d="M111.799 6.30872V24.1303H113.733V6.30872H111.799Z" fill="#003256"/>
<path d="M121.159 11.1313C119.323 11.1313 117.879 11.7923 116.802 13.1142C115.725 14.3627 115.211 15.9294 115.211 17.7899C115.211 19.8462 115.749 21.4619 116.875 22.6859C117.952 23.861 119.421 24.473 121.233 24.473C122.873 24.473 124.219 23.9834 125.272 23.0531C126.129 22.2698 126.692 21.2906 126.986 20.0666H125.027C124.709 20.9478 124.293 21.6088 123.754 22.0494C123.118 22.5635 122.261 22.8328 121.233 22.8328C120.033 22.8328 119.079 22.4411 118.393 21.6578C117.708 20.8744 117.34 19.7728 117.242 18.3529H127.23C127.181 16.1497 126.692 14.4116 125.762 13.1876C124.733 11.8167 123.191 11.1313 121.159 11.1313ZM121.208 12.7715C123.607 12.7715 124.954 14.1179 125.199 16.8352H117.291C117.414 15.5867 117.806 14.6075 118.491 13.8731C119.176 13.1387 120.082 12.7715 121.208 12.7715Z" fill="#003256"/>
</g>
<defs>
<linearGradient id="paint0_linear_551_14148" x1="10.8434" y1="12.3801" x2="11.6526" y2="26.3311" gradientUnits="userSpaceOnUse">
<stop stop-color="#0494FD"/>
<stop offset="1" stop-color="#0494FD" stop-opacity="0.03"/>
</linearGradient>
<linearGradient id="paint1_linear_551_14148" x1="11.1798" y1="4.42236" x2="12.6985" y2="24.0054" gradientUnits="userSpaceOnUse">
<stop stop-color="#0494FD"/>
<stop offset="1" stop-color="#0494FD" stop-opacity="0.03"/>
</linearGradient>
<linearGradient id="paint2_linear_551_14148" x1="10.4571" y1="16.7345" x2="12.1388" y2="37.3349" gradientUnits="userSpaceOnUse">
<stop stop-color="#0494FD"/>
<stop offset="1" stop-color="#0494FD" stop-opacity="0.03"/>
</linearGradient>
<clipPath id="clip0_551_14148">
<rect width="128" height="33" fill="white"/>
</clipPath>
</defs>
</svg>
