<svg width="320" height="320" viewBox="0 0 320 320" fill="none" xmlns="http://www.w3.org/2000/svg">
<path d="M264.075 268.733C206.204 298.476 112.376 298.476 54.5056 268.733C-3.36574 238.99 -3.36574 190.767 54.5056 161.025C112.376 131.281 206.204 131.281 264.076 161.024C321.946 190.767 321.946 238.99 264.075 268.733Z" fill="url(#paint0_linear_634_27502)"/>
<path d="M105.018 235.391L72.7309 216.753C71.8669 216.253 70.432 216.187 69.5264 216.606L36.6029 235.612C35.6973 236.031 35.6634 236.774 36.5274 237.273L69.4336 256.222C70.2976 256.721 71.6544 256.651 72.4634 256.067L105.119 237.352C105.927 236.769 105.882 235.89 105.018 235.391Z" fill="white" fill-opacity="0.32"/>
<path d="M133.588 215.017C146.461 221.153 167.332 221.153 180.205 215.017C193.079 208.883 193.079 198.934 180.205 192.798C167.332 186.664 146.461 186.664 133.588 192.798C120.715 198.934 120.715 208.883 133.588 215.017Z" fill="white" fill-opacity="0.32"/>
<path d="M43.0112 226.603C42.9588 223.588 40.6695 217.382 37.4733 213.523C34.2772 209.663 29.3088 206.887 25.8362 208.143C22.6016 209.313 23.0285 213.575 27.026 216.335C31.0234 219.095 37.0196 222.545 38.841 227.405L42.5882 233.341L43.0112 226.603Z" fill="#4AB3FE"/>
<path opacity="0.1" d="M43.0112 226.603C42.9588 223.588 40.6695 217.382 37.4733 213.523C34.2772 209.663 29.3088 206.887 25.8362 208.143C22.6016 209.313 23.0285 213.575 27.026 216.335C31.0234 219.095 37.0196 222.545 38.841 227.405L42.5882 233.341L43.0112 226.603Z" fill="black"/>
<path d="M43.3057 230.724C43.2097 230.718 43.1252 230.649 43.1041 230.551C40.9057 220.296 32.4353 212.077 27.4209 210.316C27.3063 210.275 27.2455 210.149 27.2858 210.035C27.3255 209.921 27.449 209.857 27.5668 209.9C32.6772 211.694 41.3038 220.047 43.5348 230.458C43.5604 230.577 43.4849 230.694 43.3658 230.719C43.3454 230.724 43.3255 230.726 43.3057 230.724Z" fill="white"/>
<path d="M41.8861 237.338C41.3722 235.652 39.2538 232.891 35.8656 230.64C32.1178 228.149 27.4106 227.056 26.2957 225.086C24.9562 222.719 26.9306 220.427 30.7431 220.833C34.5549 221.238 41.3338 226.312 42.5396 234.107L41.8861 237.338Z" fill="#4AB3FE"/>
<path d="M42.5908 235.547C42.5069 235.542 42.4301 235.489 42.3981 235.405C39.0887 226.644 32.3085 223.667 29.1866 223.317C29.0656 223.304 28.9786 223.194 28.992 223.074C29.0055 222.953 29.1098 222.866 29.2352 222.879C32.688 223.266 39.4324 226.307 42.8103 235.249C42.8532 235.362 42.7956 235.49 42.6816 235.533C42.6522 235.544 42.6215 235.549 42.5908 235.547Z" fill="white"/>
<path d="M253.873 216.968L250.086 214.805C250.086 214.805 248.27 204.797 249.629 196.194C251.539 184.099 259.774 179.926 262.765 181.128C265.756 182.331 266.459 185.914 261.057 192.902C257.869 197.026 253.77 205.743 253.873 216.968Z" fill="#4AB3FE"/>
<g opacity="0.1">
<path d="M253.873 216.968L250.086 214.805C250.086 214.805 248.27 204.797 249.629 196.194C251.539 184.099 259.774 179.926 262.765 181.128C265.756 182.331 266.459 185.914 261.057 192.902C257.869 197.026 253.77 205.743 253.873 216.968Z" fill="black"/>
</g>
<path d="M252.5 212.164C252.513 212.164 252.525 212.163 252.538 212.162C252.685 212.141 252.788 212.005 252.768 211.858C251.203 200.534 255.757 188.127 260.874 183.127C260.98 183.023 260.982 182.852 260.878 182.746C260.774 182.64 260.603 182.637 260.497 182.741C255.286 187.832 250.646 200.441 252.234 211.932C252.252 212.067 252.367 212.164 252.5 212.164Z" fill="white"/>
<path d="M264.378 223.037C264.977 223.381 266.209 222.63 266.682 222.313C267.491 221.77 268.146 221.002 268.581 220.133C269.087 219.122 269.215 218.038 269.057 216.92C268.974 216.34 268.812 215.774 268.65 215.211C268.492 214.658 268.332 214.105 268.174 213.552C268.017 213.006 267.858 212.442 267.93 211.879C268.076 210.745 269.082 209.95 269.998 209.265C271.01 208.507 272.064 207.506 272.058 206.14C272.054 205.087 271.508 204.108 270.855 203.281C270.202 202.454 269.427 201.723 268.837 200.85C268.412 200.221 268.081 199.484 268.15 198.728C268.193 198.259 268.387 197.816 268.612 197.402C269.094 196.513 269.731 195.698 270.063 194.742C270.396 193.787 270.348 192.599 269.603 191.916C268.991 191.354 268.081 191.276 267.253 191.331C266.486 191.381 265.738 191.727 265.067 192.1C262.899 193.306 261.662 195.873 259.361 196.801C258.473 197.159 257.501 197.237 256.576 197.482C255.651 197.726 254.708 198.198 254.28 199.054C253.435 200.741 255.002 202.82 254.409 204.611C253.884 206.195 252.344 206.802 251.479 208.23C251.101 208.854 251.014 209.576 251.075 210.304C251.178 211.535 251.358 212.44 251.95 213.809C252.438 214.941 253.873 216.967 253.873 216.967C253.909 217.004 264.286 222.984 264.378 223.037Z" fill="#4AB3FE"/>
<path d="M258.232 219.763C258.236 219.763 258.239 219.763 258.239 219.763C258.392 219.756 258.507 219.63 258.501 219.482C258.055 208.764 263.105 196.931 266.778 193.492C266.887 193.391 266.892 193.22 266.791 193.111C266.688 193.002 266.518 192.997 266.409 193.098C262.663 196.605 257.51 208.635 257.962 219.503C257.968 219.649 258.088 219.763 258.232 219.763Z" fill="white"/>
<path d="M259.838 207.1C259.864 207.1 259.891 207.096 259.917 207.087C263.361 206.023 267.653 205.835 267.696 205.834C267.845 205.827 267.96 205.701 267.954 205.553C267.948 205.404 267.835 205.286 267.673 205.294C267.63 205.296 263.269 205.487 259.758 206.572C259.616 206.616 259.535 206.767 259.58 206.909C259.616 207.025 259.722 207.1 259.838 207.1Z" fill="white"/>
<path d="M219.436 179.063V177.528L246.734 193.318L245.432 194.086L219.436 179.063Z" fill="#37474F"/>
<path d="M253.473 75.1181C253.335 75.1981 253.265 75.3581 253.3 75.5136L275.916 175.918L276.563 178.766C276.889 178.785 277.215 178.721 277.465 178.587C277.471 178.581 277.478 178.581 277.484 178.574L279 177.697C279.138 177.617 279.208 177.457 279.173 177.302L255.955 74.2317C255.901 73.9917 255.63 73.8733 255.417 73.9962L253.473 75.1181Z" fill="#37474F"/>
<path d="M250.636 73.7485L273.97 177.303C274.007 177.468 274.112 177.61 274.259 177.695L275.776 178.574C275.994 178.702 276.275 178.766 276.563 178.766L275.917 175.918L253.242 75.2519L250.636 73.7485Z" fill="#455A64"/>
<path d="M248.031 213.307V216.302C248.339 216.302 248.639 216.238 248.87 216.11C248.876 216.104 248.883 216.104 248.889 216.097L250.297 215.285C250.527 215.15 250.636 214.971 250.636 214.798L250.643 124.878L248.038 126.382L248.031 213.307Z" fill="#37474F"/>
<path d="M245.427 124.885L245.433 214.766V214.83C245.439 214.997 245.561 215.157 245.779 215.285L247.18 216.097C247.411 216.238 247.724 216.302 248.031 216.302V213.307L248.038 126.382L245.427 124.885Z" fill="#455A64"/>
<path d="M214.284 196.821C214.464 196.821 214.785 196.762 215.095 196.584L216.544 195.747C216.73 195.639 216.86 195.456 216.9 195.245L232.409 114.35L229.804 115.854L214.841 193.909L214.284 196.821Z" fill="#37474F"/>
<path d="M211.686 195.304C211.686 195.31 211.686 195.31 211.686 195.317C211.686 195.496 211.808 195.669 212.044 195.809L213.369 196.577L213.433 196.616C213.67 196.75 213.977 196.821 214.284 196.821L214.841 193.909L229.804 115.854L227.193 114.357L211.712 195.189C211.712 195.195 211.705 195.201 211.705 195.208L211.686 195.304Z" fill="#455A64"/>
<path d="M246.327 197.594L216.837 180.568V177.565L246.327 194.592V197.594Z" fill="#455A64"/>
<path d="M287.029 153.009V154.091C287.029 154.621 286.657 155.266 286.198 155.531L277.462 160.575C277.003 160.84 276.258 160.84 275.799 160.575L202.071 118.008C201.612 117.743 201.239 117.098 201.239 116.568V115.485C201.239 114.956 201.612 114.31 202.071 114.045L210.807 109.002C211.265 108.737 212.01 108.737 212.469 109.002L286.198 151.569C286.657 151.834 287.029 152.479 287.029 153.009Z" fill="#4AB3FE"/>
<path opacity="0.4" d="M286.198 152.529L277.462 157.573C277.003 157.838 276.258 157.838 275.799 157.573L202.07 115.006C201.612 114.741 201.612 114.311 202.07 114.046L210.806 109.002C211.265 108.737 212.01 108.737 212.469 109.002L286.198 151.569C286.657 151.834 286.657 152.264 286.198 152.529Z" fill="white"/>
<path opacity="0.1" d="M276.633 157.773V160.775C276.934 160.775 277.235 160.705 277.459 160.577L286.195 155.533C286.656 155.265 287.027 154.618 287.027 154.093V153.012C287.027 152.545 286.745 151.994 286.361 151.687C286.649 151.949 286.592 152.301 286.195 152.532L277.459 157.575C277.235 157.704 276.928 157.773 276.633 157.773Z" fill="black"/>
<path d="M280.617 155.752L283.046 154.35C283.811 153.908 284.473 152.835 284.524 151.953L289.537 65.0912C289.587 64.2093 289.009 63.136 288.243 62.6938L215.623 20.7667C214.858 20.3251 213.617 20.3245 212.852 20.7667L210.422 22.169C209.656 22.6106 208.995 23.6839 208.944 24.5664L203.93 111.428C203.879 112.31 204.458 113.384 205.224 113.825L277.846 155.752C278.611 156.194 279.852 156.194 280.617 155.752Z" fill="#E0E0E0"/>
<path d="M208.979 24.3277C209.126 23.6237 209.727 23.3741 210.425 23.7709L283.046 65.6973C283.43 65.9213 283.769 66.3053 283.999 66.7405L289.203 63.7389C288.966 63.3037 288.627 62.9197 288.243 62.6957L215.622 20.7693C214.86 20.3277 213.619 20.3277 212.857 20.7629L210.412 22.1709C209.715 22.5805 209.113 23.5021 208.979 24.3277Z" fill="#FAFAFA"/>
<path d="M284.338 68.0928L279.324 154.954C279.273 155.836 278.612 156.193 277.846 155.752L205.224 113.825C204.459 113.383 203.88 112.31 203.931 111.427L208.945 24.5658C208.996 23.6839 209.657 23.3267 210.422 23.7683L283.045 65.696C283.809 66.1376 284.389 67.2109 284.338 68.0928Z" fill="#F0F0F0"/>
<path d="M229.836 35.648V40.3079C229.836 40.6791 230.097 41.1303 230.418 41.3159L260.451 58.6547C260.772 58.8403 261.293 58.8403 261.615 58.6547L263.05 57.8259C263.372 57.6403 263.632 57.1891 263.632 56.8179L263.631 54.4877L268.831 51.4887L271.427 52.9869L271.43 47.6551C271.43 47.2839 271.171 46.8327 270.849 46.6471L240.816 29.3075C240.495 29.1219 239.974 29.1219 239.652 29.3075L230.417 34.6394C230.097 34.8256 229.836 35.2768 229.836 35.648Z" fill="#263238"/>
<path d="M229.836 35.6486V40.3078C229.836 40.679 230.099 41.127 230.419 41.3126L260.447 58.6566C260.614 58.7462 260.819 58.791 261.03 58.791V52.7942C260.819 52.7942 260.607 52.743 260.447 52.6534L230.419 35.3094C230.137 35.1494 230.105 34.8934 230.316 34.7142C230.041 34.9261 229.836 35.3165 229.836 35.6486Z" fill="#37474F"/>
<path d="M270.849 47.3197L261.613 52.6516C261.292 52.8372 260.771 52.8372 260.449 52.6516L230.418 35.312C230.097 35.1264 230.097 34.8256 230.418 34.64L239.653 29.3082C239.974 29.1226 240.495 29.1226 240.817 29.3082L270.849 46.6477C271.171 46.8327 271.171 47.1341 270.849 47.3197Z" fill="#455A64"/>
<path d="M275.485 84.9351C275.127 91.1316 270.403 93.5949 264.934 90.4372C259.464 87.2794 255.32 79.6967 255.677 73.5002C256.035 67.3037 260.759 64.8397 266.229 67.9975C271.699 71.1553 275.843 78.738 275.485 84.9351Z" fill="#4AB3FE"/>
<path opacity="0.1" d="M259.235 67.1482L265.584 79.2186L266.23 67.9994C263.587 66.4762 261.123 66.2586 259.235 67.1482Z" fill="black"/>
<path opacity="0.2" d="M257.206 81.2346L265.584 79.2186L259.235 67.1482C257.213 68.089 255.862 70.297 255.677 73.5034C255.536 75.9802 256.112 78.6874 257.206 81.2346Z" fill="black"/>
<path d="M250.742 66.0525L250.687 67.0407C250.658 67.5699 250.262 67.7843 249.802 67.5194C245.012 64.7539 220.985 50.8864 216.194 48.121C215.735 47.856 215.386 47.2116 215.416 46.6823L215.471 45.6941C215.5 45.1648 215.896 44.9504 216.355 45.2154L249.964 64.6138C250.424 64.8787 250.772 65.5232 250.742 66.0525Z" fill="#37474F"/>
<path d="M248.082 71.6474L247.989 73.2749C247.968 73.6276 248.2 74.057 248.506 74.233L249.676 74.9063C249.982 75.0829 250.246 74.9396 250.266 74.5869L250.355 72.9594C250.375 72.6068 250.142 72.1773 249.836 72.0007L248.673 71.3287C248.367 71.1514 248.103 71.2941 248.082 71.6474Z" fill="#4AB3FE"/>
<path d="M215.79 55.3485L244.458 71.8913C244.918 72.1562 245.313 71.9418 245.343 71.4125L245.397 70.4244C245.427 69.8951 245.078 69.2513 244.618 68.9857L215.956 52.4429C215.497 52.178 215.1 52.3924 215.07 52.9217L215.013 53.9105C214.982 54.4397 215.331 55.0836 215.79 55.3485Z" fill="#455A64"/>
<path d="M247.757 78.937L247.667 80.5645C247.648 80.9171 247.88 81.3466 248.186 81.5238L249.35 82.1959C249.656 82.3725 249.92 82.2298 249.939 81.8771L250.029 80.2496C250.048 79.897 249.816 79.4675 249.51 79.2903L248.346 78.6183C248.04 78.4416 247.777 78.5843 247.757 78.937Z" fill="#4AB3FE"/>
<path opacity="0.1" d="M247.757 78.937L247.667 80.5645C247.648 80.9171 247.88 81.3466 248.186 81.5238L249.35 82.1959C249.656 82.3725 249.92 82.2298 249.939 81.8771L250.029 80.2496C250.048 79.897 249.816 79.4675 249.51 79.2903L248.346 78.6183C248.04 78.4416 247.777 78.5843 247.757 78.937Z" fill="black"/>
<path d="M215.463 62.6388L244.138 79.1879C244.597 79.4528 244.993 79.2384 245.023 78.7092L245.077 77.7204C245.107 77.1911 244.758 76.5472 244.298 76.2823L215.623 59.7332C215.164 59.4682 214.768 59.6826 214.739 60.2119L214.684 61.2007C214.655 61.73 215.004 62.3738 215.463 62.6388Z" fill="#455A64"/>
<path d="M247.436 86.2887L247.343 87.9098C247.322 88.2624 247.554 88.6919 247.86 88.8685L249.037 89.5469C249.343 89.7235 249.607 89.5808 249.626 89.2275L249.716 87.6064C249.736 87.2538 249.503 86.8237 249.197 86.6471L248.027 85.9699C247.72 85.7933 247.455 85.936 247.436 86.2887Z" fill="#4AB3FE"/>
<path opacity="0.2" d="M247.436 86.2887L247.343 87.9098C247.322 88.2624 247.554 88.6919 247.86 88.8685L249.037 89.5469C249.343 89.7235 249.607 89.5808 249.626 89.2275L249.716 87.6064C249.736 87.2538 249.503 86.8237 249.197 86.6471L248.027 85.9699C247.72 85.7933 247.455 85.936 247.436 86.2887Z" fill="black"/>
<path d="M215.149 69.9904L243.818 86.5332C244.278 86.7981 244.673 86.5837 244.703 86.0544L244.757 85.072C244.786 84.5428 244.438 83.8983 243.979 83.6333L215.31 67.0848C214.851 66.8199 214.455 67.0343 214.426 67.5636L214.371 68.5524C214.342 69.0816 214.69 69.7255 215.149 69.9904Z" fill="#455A64"/>
<path d="M271.28 98.8019L257.373 90.7578C256.915 90.4922 256.518 90.7059 256.488 91.2359L256.354 93.5629C256.323 94.0922 256.671 94.7367 257.13 95.0023L271.036 103.046C271.495 103.312 271.892 103.098 271.922 102.568L272.056 100.241C272.086 99.7114 271.739 99.0675 271.28 98.8019Z" fill="#37474F"/>
<path d="M274.177 117.612L253.75 105.819C253.291 105.554 252.894 105.768 252.863 106.298L252.806 107.286C252.776 107.815 253.123 108.459 253.583 108.724L274.01 120.517C274.469 120.782 274.866 120.568 274.896 120.038L274.953 119.05C274.983 118.521 274.636 117.877 274.177 117.612Z" fill="#455A64"/>
<path d="M273.727 125.364L253.301 113.56C252.842 113.295 252.444 113.509 252.414 114.038L252.357 115.026C252.326 115.555 252.674 116.199 253.133 116.464L273.56 128.257C274.019 128.522 274.416 128.308 274.447 127.779L274.503 126.803C274.533 126.273 274.186 125.629 273.727 125.364Z" fill="#455A64"/>
<path d="M273.278 133.116L252.851 121.301C252.392 121.035 251.996 121.249 251.965 121.778L251.908 122.766C251.877 123.295 252.225 123.939 252.684 124.204L273.11 135.997C273.569 136.262 273.967 136.049 273.997 135.519L274.053 134.554C274.083 134.025 273.736 133.381 273.278 133.116Z" fill="#455A64"/>
<path d="M272.828 140.867L252.402 129.042C251.943 128.776 251.546 128.99 251.516 129.519L251.459 130.508C251.429 131.037 251.776 131.681 252.236 131.946L272.663 143.74C273.121 144.004 273.519 143.791 273.549 143.261L273.604 142.307C273.633 141.777 273.287 141.133 272.828 140.867Z" fill="#455A64"/>
<path d="M245.902 105.819L242.965 104.123C242.506 103.858 242.109 104.072 242.078 104.601L241.171 120.062C241.139 120.591 241.487 121.235 241.946 121.5L244.883 123.196C245.342 123.461 245.739 123.247 245.77 122.717L246.677 107.256C246.709 106.728 246.362 106.084 245.902 105.819Z" fill="#4AB3FE"/>
<path d="M244.716 126.102L241.779 124.406C241.32 124.141 240.929 124.251 240.905 124.652C240.882 125.053 241.235 125.594 241.694 125.859L244.631 127.555C245.09 127.82 245.481 127.709 245.504 127.308C245.528 126.907 245.174 126.367 244.716 126.102Z" fill="#37474F"/>
<path d="M235.44 107.372L232.503 105.676C232.044 105.411 231.647 105.625 231.616 106.154L231.143 114.262C231.113 114.791 231.459 115.435 231.919 115.7L234.856 117.395C235.315 117.66 235.712 117.446 235.743 116.917L236.216 108.809C236.247 108.28 235.9 107.637 235.44 107.372Z" fill="#4AB3FE"/>
<path opacity="0.1" d="M235.44 107.372L232.503 105.676C232.044 105.411 231.647 105.625 231.616 106.154L231.143 114.262C231.113 114.791 231.459 115.435 231.919 115.7L234.856 117.395C235.315 117.66 235.712 117.446 235.743 116.917L236.216 108.809C236.247 108.28 235.9 107.637 235.44 107.372Z" fill="black"/>
<path d="M234.688 120.301L231.751 118.605C231.292 118.34 230.901 118.45 230.878 118.851C230.855 119.253 231.208 119.793 231.667 120.058L234.604 121.754C235.063 122.019 235.454 121.909 235.478 121.507C235.5 121.106 235.147 120.566 234.688 120.301Z" fill="#37474F"/>
<path d="M226.061 89.7754L223.124 88.0794C222.665 87.8144 222.268 88.0288 222.238 88.5581L221.114 108.461C221.084 108.99 221.432 109.634 221.891 109.9L224.828 111.595C225.286 111.86 225.683 111.645 225.713 111.116L226.838 91.2135C226.868 90.6848 226.52 90.041 226.061 89.7754Z" fill="#4AB3FE"/>
<path opacity="0.2" d="M226.061 89.7754L223.124 88.0794C222.665 87.8144 222.268 88.0288 222.238 88.5581L221.114 108.461C221.084 108.99 221.432 109.634 221.891 109.9L224.828 111.595C225.286 111.86 225.683 111.645 225.713 111.116L226.838 91.2135C226.868 90.6848 226.52 90.041 226.061 89.7754Z" fill="black"/>
<path d="M224.66 114.5L221.723 112.804C221.265 112.539 220.874 112.649 220.85 113.05C220.827 113.452 221.18 113.992 221.64 114.257L224.577 115.952C225.035 116.217 225.426 116.107 225.45 115.706C225.473 115.305 225.119 114.765 224.66 114.5Z" fill="#37474F"/>
<path d="M215.518 92.7636L212.581 91.0676C212.122 90.8026 211.726 91.017 211.697 91.5463L211.085 102.66C211.056 103.189 211.404 103.834 211.863 104.099L214.8 105.794C215.259 106.059 215.655 105.845 215.685 105.315L216.297 94.2016C216.326 93.6724 215.978 93.0285 215.518 92.7636Z" fill="#4AB3FE"/>
<path opacity="0.3" d="M215.518 92.7636L212.581 91.0676C212.122 90.8026 211.726 91.017 211.697 91.5463L211.085 102.66C211.056 103.189 211.404 103.834 211.863 104.099L214.8 105.794C215.259 106.059 215.655 105.845 215.685 105.315L216.297 94.2016C216.326 93.6724 215.978 93.0285 215.518 92.7636Z" fill="black"/>
<path d="M214.633 108.699L211.696 107.003C211.237 106.738 210.846 106.848 210.822 107.249C210.799 107.651 211.153 108.191 211.612 108.456L214.549 110.151C215.008 110.416 215.399 110.306 215.423 109.905C215.445 109.504 215.092 108.965 214.633 108.699Z" fill="#37474F"/>
<path d="M142.675 121.788L137.685 118.849C137.346 119.735 137.029 120.521 136.75 121.156C136.48 121.77 135.185 122.587 134.576 122.867C132.94 123.616 132.205 124.508 130.912 125.552C129.899 126.369 129.11 126.503 129.188 126.815C129.29 127.217 129.845 127.917 130.981 127.725C131.553 127.629 132.319 127.292 133.278 126.84C133.278 126.84 132.404 128.616 130.591 130.33C128.133 132.654 127.833 134.238 132.108 134.832C134.787 135.204 137.142 133.828 139.928 128.18C140.73 126.553 141.989 123.983 142.675 121.788Z" fill="#B16668"/>
<path d="M149.82 72.2029C149.82 72.2029 150.855 75.1162 151.863 76.8365C152.677 78.2246 151.994 100.383 151.584 102.243C151.172 104.102 143.063 122.227 143.063 122.227C143.063 122.227 139.763 123.206 136.72 120.25L142.748 101.273L143.124 85.1002C143.124 85.1002 142.888 73.4368 149.82 72.2029Z" fill="#4AB3FE"/>
<path opacity="0.1" d="M149.82 72.2029C149.82 72.2029 150.855 75.1162 151.863 76.8365C152.677 78.2246 151.994 100.383 151.584 102.243C151.172 104.102 143.063 122.227 143.063 122.227C143.063 122.227 139.763 123.206 136.72 120.25L142.748 101.273L143.124 85.1002C143.124 85.1002 142.888 73.4368 149.82 72.2029Z" fill="black"/>
<path d="M175.224 200.05H169.229V189.788H175.224V200.05Z" fill="#B16668"/>
<path d="M150.705 192.278L144.714 192.485L144.414 181.624L150.705 181.418V192.278Z" fill="#B16668"/>
<path d="M174.382 116.527C174.382 122.252 174.776 155.537 174.776 155.537C174.916 157.185 176.502 160.113 176.625 166.047C176.803 174.651 175.48 194.919 175.48 194.919C175.48 194.919 172.57 196.62 168.806 195.051C168.806 195.051 164.097 166.383 163.023 157.866C162.085 150.433 158.851 130.591 158.851 130.591L154.269 155.717C154.269 155.717 155.374 160.15 155.012 165.244C154.732 169.183 151.084 188.915 151.084 188.915C151.084 188.915 148.263 190.83 144.163 189.445C144.163 189.445 143.805 158.471 143.736 154.857C143.656 150.736 145.454 115.289 145.454 115.289L174.382 116.527Z" fill="#37474F"/>
<path d="M169.23 197.091V196.234C168.908 196.227 168.709 196.547 168.586 197.318C168.499 197.87 168.417 198.287 168.236 199.014C167.958 200.125 167.708 200.804 167.189 202.083C166.341 204.171 165.63 204.949 163.689 207.39C163.229 207.969 162.19 208.889 161.827 209.534C161.465 210.179 161.338 211.974 161.953 212.384C164.216 213.893 167.653 213.935 170.085 213.222C171.955 212.674 173.304 211.18 173.615 209.256C173.704 208.704 173.671 208.139 173.735 207.583C173.879 206.314 174.516 205.155 175.236 204.101C175.653 203.489 176.108 202.891 176.387 202.205C176.891 200.973 176.487 199.587 176.165 198.36C175.887 197.3 175.586 196.134 175.224 196.234C175.223 196.363 175.224 196.887 175.224 196.887C174.789 197.37 173.585 197.848 172.227 197.9C171.35 197.934 169.223 197.76 169.23 197.091Z" fill="#263238"/>
<path d="M144.65 190.636C144.339 190.647 144.085 191.086 143.399 191.829C142.568 192.727 141.212 193.696 139.872 194.367C137.628 195.491 133.263 197.219 131.288 198.109C130.054 198.664 130.111 200.155 131.387 201.004C132.663 201.852 135.742 202.463 139.439 201.636C141.454 201.185 144.076 199.325 145.736 199.425C147.395 199.526 150.501 199.502 151.726 198.657C152.951 197.813 152.461 196.009 152.115 194.46C151.737 192.768 151.264 190.131 150.704 190.246V190.829C149.983 191.921 146.264 192.365 144.681 191.562L144.65 190.636Z" fill="#263238"/>
<path d="M158.851 130.59C158.851 130.59 154.06 129.24 150.503 125.804C150.503 125.804 152.114 128.819 156.904 131.626L154.587 153.976L158.851 130.59Z" fill="#263238"/>
<path d="M163.988 72.608C166.026 73.0982 170.137 73.7709 171.06 77.8368C172.169 82.7168 172.529 93.344 172.529 93.344L172.908 116.99C168.779 119.997 153.616 121.635 144.928 115.289C144.928 115.289 145.991 86.8947 145.991 82.4755C145.991 78.0557 148.446 72.7462 155.226 72.352L163.988 72.608Z" fill="#F5F5F5"/>
<path d="M155.322 71.8932C155.322 71.8932 152.274 74.313 151.449 77.8887C150.624 81.4644 150.491 121.396 150.491 121.396C150.491 121.396 146.253 120.613 144.267 119.053C144.267 119.053 144.524 87.5316 144.928 82.3213C145.54 74.418 145.475 72.1396 155.316 71.3063L155.322 71.8932Z" fill="#4AB3FE"/>
<path d="M165.774 71.3056C165.773 71.3018 160.124 74.7827 160.061 88.6112C160.007 100.568 159.607 121.395 159.607 121.395C159.607 121.395 168.961 122.769 174.887 119.229C174.887 119.229 175.593 90.2355 175.48 85.7446C175.352 80.6035 174.149 73.959 172.502 73.2979C169.5 72.0928 165.774 71.3056 165.774 71.3056Z" fill="#4AB3FE"/>
<path d="M178.732 80.8647C181.38 85.3639 187.117 94.432 187.117 94.432C187.624 94.0327 199.681 86.4826 202.398 83.1117C203.043 81.7914 203.538 80.681 204.446 79.497C205.485 78.1408 206.559 76.8109 207.667 75.5091C207.751 75.4106 207.837 75.3101 207.948 75.2448C208.355 75.0048 208.904 75.3619 209.039 75.8151C209.173 76.2682 209.025 76.752 208.878 77.2013C208.684 77.7907 208.085 78.6119 208.919 78.7488C209.617 78.864 210.371 78.5549 210.999 78.2842C212.066 77.8247 213.114 77.3197 214.14 76.7712C214.8 76.4179 215.485 76.0371 216.234 76.0256C217.327 76.0083 218.326 76.8442 218.681 77.8784C219.037 78.9127 218.823 80.0832 218.296 81.0419C217.77 82.0007 216.959 82.7738 216.095 83.4439C214.221 84.896 211.738 85.5629 209.463 86.1632C208.365 86.4531 207.63 86.7955 206.263 87.6615C204.449 88.9287 195.012 96.9658 190.499 100.27C186.409 103.265 185.255 102.092 182.87 99.6743C180.484 97.257 171.483 85.8835 171.483 85.8835L178.732 80.8647Z" fill="#B16668"/>
<path d="M170.828 72.6867C176.961 74.4781 176.549 76.6483 180.635 83.1654C184.72 89.6825 187.447 92.6413 187.447 92.6413L200.479 84.4301C200.479 84.4301 203.203 86.1811 204.662 89.7798C204.662 89.7798 191.559 99.9417 189.736 101.081C187.137 102.706 185.802 103.334 183.666 101.531C181.53 99.7273 172.908 90.2477 172.908 90.2477C168.968 86.2637 168.139 75.623 170.828 72.6867Z" fill="#4AB3FE"/>
<path opacity="0.1" d="M170.828 72.6867C176.961 74.4781 176.549 76.6483 180.635 83.1654C184.72 89.6825 187.447 92.6413 187.447 92.6413L200.479 84.4301C200.479 84.4301 203.203 86.1811 204.662 89.7798C204.662 89.7798 191.559 99.9417 189.736 101.081C187.137 102.706 185.802 103.334 183.666 101.531C181.53 99.7273 172.908 90.2477 172.908 90.2477C168.968 86.2637 168.139 75.623 170.828 72.6867Z" fill="black"/>
<path opacity="0.1" d="M166.407 78.8685L163.82 82.0704L165.114 85.7165L161.712 94.432L165.813 85.7165L164.378 82.2752L166.407 78.8685Z" fill="black"/>
<path opacity="0.1" d="M148.157 77.8387L148.72 81.1495L146.479 84.0666L149.594 93.8791L147.183 84.1747L149.249 81.4477L148.157 77.8387Z" fill="black"/>
<path d="M148.462 58.7315C145.245 55.5141 145.245 50.2977 148.462 47.0803C151.68 43.8629 156.896 43.8629 160.114 47.0803C163.331 50.2977 163.331 55.5141 160.114 58.7315C156.896 61.9489 151.68 61.9489 148.462 58.7315Z" fill="#263238"/>
<path d="M168.528 58.7629C168.528 58.7629 167.193 65.0349 166.657 66.0659C166.122 67.0963 165.016 67.3894 165.016 67.3894L165.109 62.9773L168.528 58.7629Z" fill="#263238"/>
<path d="M166.852 49.7773C166.852 49.7773 168.29 49.5309 169.411 50.6771C170.51 51.801 169.896 55.3178 168.528 58.7629L166.013 59.0515L166.852 49.7773Z" fill="#263238"/>
<path d="M165.259 59.0534C165.763 59.3549 166.483 58.3859 167.105 57.735C167.727 57.0848 169.757 56.1952 170.769 58.329C171.801 60.5037 169.875 63.3766 168.277 63.8784C165.523 64.743 165.109 62.976 165.109 62.976L164.906 73.2147C163.001 75.6563 158.723 78.5261 156.419 78.1165C154.581 77.7894 154.18 74.6842 155.937 72.6483L155.945 69.625C155.945 69.625 153.45 70.0038 152.232 69.8157C150.206 69.5027 148.932 67.9046 148.317 65.712C147.331 62.1901 146.956 59.3466 147.793 52.4211C148.711 44.8301 157.54 44.7507 162.308 47.7517C167.077 50.7526 165.259 59.0534 165.259 59.0534Z" fill="#B16668"/>
<path d="M165.259 59.9021C165.512 59.9072 166.477 58.3066 167.105 57.7357C167.974 56.944 166.852 49.7773 166.852 49.7773C166.852 49.7773 167.928 47.7517 166.253 45.9078C165.062 44.5965 163.4 42.9952 157.993 43.6346C154.139 44.0902 149.944 45.2922 146.555 43.6275C146.047 45.7363 146.458 48.0883 148.564 49.7549C148.564 49.7549 149.791 50.5459 153.017 50.9389C156.243 51.3318 161.268 50.8634 161.956 50.7693C162.891 50.6413 163.091 51.5482 163.595 54.0256C164.039 56.1997 164.406 59.8854 165.259 59.9021Z" fill="#263238"/>
<path d="M166.847 50.3347L169.896 48.6983C169.464 47.8247 168.43 47.4829 167.588 47.9347C166.746 48.3866 166.415 49.4611 166.847 50.3347Z" fill="#263238"/>
<path d="M155.946 69.6256C155.946 69.6256 160.467 68.7149 162.048 67.8746C163.106 67.312 163.978 66.3373 164.233 65.7126C164.233 65.7126 163.937 67.0541 162.991 68.263C161.835 69.7408 155.946 70.8294 155.946 70.8294V69.6256Z" fill="#9A4A4D"/>
<path d="M157.032 57.9232C157.032 58.4435 157.438 58.8634 157.938 58.8621C158.439 58.8608 158.845 58.4384 158.845 57.9181C158.845 57.3984 158.439 56.9779 157.938 56.9792C157.438 56.9805 157.032 57.4029 157.032 57.9232Z" fill="#263238"/>
<path d="M157.993 54.5024L159.932 55.5725C160.218 55.0157 160.015 54.3245 159.48 54.0294C158.945 53.7331 158.279 53.945 157.993 54.5024Z" fill="#263238"/>
<path d="M156.355 64.1824L154.287 64.9587C154.492 65.5513 155.121 65.8585 155.692 65.6441C156.262 65.4297 156.56 64.775 156.355 64.1824Z" fill="#9A4A4D"/>
<path d="M148.952 55.2563L150.72 53.895C150.36 53.3888 149.672 53.2832 149.183 53.6595C148.695 54.0352 148.591 54.7501 148.952 55.2563Z" fill="#263238"/>
<path d="M149.496 57.6653C149.496 58.1849 149.902 58.6054 150.403 58.6041C150.903 58.6029 151.309 58.1805 151.309 57.6601C151.309 57.1405 150.903 56.72 150.403 56.7213C149.902 56.7225 149.496 57.1449 149.496 57.6653Z" fill="#263238"/>
<path d="M154.113 56.8057L153.815 62.2547L150.97 61.2851L154.113 56.8057Z" fill="#9A4A4D"/>
<path d="M153.128 77.4912C153.685 78.8115 154.71 79.3504 156.569 79.559C158.428 79.7677 160.687 78.8467 161.712 77.7696L159.399 75.4675L156.468 77.6768L156.218 75.216L153.128 77.4912Z" fill="#4AB3FE"/>
<path opacity="0.1" d="M153.128 77.4912C153.685 78.8115 154.71 79.3504 156.569 79.559C158.428 79.7677 160.687 78.8467 161.712 77.7696L159.399 75.4675L156.468 77.6768L156.218 75.216L153.128 77.4912Z" fill="black"/>
<path d="M154.585 76.7706C154.585 76.7706 154.127 78.0449 154.28 79.2449C154.443 80.53 155.105 81.3069 155.105 81.3069C155.105 81.3069 155.843 81.8932 157.103 81.5239C158.088 80.6151 159.08 79.1585 159.006 77.3863L156.467 77.6762L154.585 76.7706Z" fill="#4AB3FE"/>
<path d="M155.105 81.3069C155.105 81.3069 152.097 97.913 151.975 99.2532C151.853 100.593 153.703 105.355 154.85 105.395C155.997 105.436 158.249 101.125 158.283 99.9066C158.317 98.6881 157.103 81.5233 157.103 81.5233L155.105 81.3069Z" fill="#4AB3FE"/>
<path opacity="0.1" d="M157.104 81.5245C157.104 81.5245 156.079 82.032 155.106 81.3076L155.059 81.57C155.059 81.57 155.9 82.3316 157.137 81.9815L157.104 81.5245Z" fill="black"/>
<path d="M156.468 77.6762L164.946 71.2179L164.984 69.3024C164.984 69.3024 166.954 70.0499 167.397 73.5283C166.19 76.3341 164.001 78.7283 160.787 80.5607L159.006 77.3863L156.468 77.6762Z" fill="#E0E0E0"/>
<path d="M155.946 70.1824C155.946 70.1824 154.062 70.4621 153.211 71.8637C152.362 73.2628 152.557 78.6125 152.557 78.6125L154.585 76.7706L156.468 77.6768C156.287 75.8944 155.938 72.6496 155.938 72.6496L155.946 70.1824Z" fill="#E0E0E0"/>
<path d="M103.43 221.225C103.091 221.674 103.03 222.711 102.687 224.114C102.344 225.516 102.228 226.603 102.457 227.29C102.687 227.976 104.136 229.767 106.044 230.093C107.13 230.278 108.852 230.324 111.054 229.009C113.256 227.693 114.121 226.685 119.144 226.322C122.396 226.088 124.736 224.673 126.161 223.408C128.099 221.687 127.636 218.638 124.282 218.654C120.255 218.673 114.61 219.386 109.152 218.65L103.43 221.225Z" fill="#263238"/>
<path d="M83.9609 214.908C83.6223 215.357 83.5609 216.394 83.2178 217.797C82.8748 219.199 82.759 220.287 82.9887 220.973C83.2178 221.659 84.6674 223.45 86.5753 223.776C87.6613 223.962 89.3836 224.008 91.5852 222.692C93.7868 221.376 94.6521 220.369 99.6754 220.006C102.927 219.771 105.267 218.356 106.692 217.092C108.631 215.371 108.167 212.322 104.813 212.338C100.786 212.357 95.1417 213.069 89.6831 212.333L83.9609 214.908Z" fill="#263238"/>
<path d="M83.9512 210.675V215.604C83.9512 215.604 84.6276 217.243 87.4379 217.347C89.1518 217.411 90.4004 216.627 91.1665 215.562V210.676H83.9512V210.675Z" fill="#FFA8A7"/>
<path d="M93.3645 178.429C93.3997 184.561 91.6429 212.835 91.6429 212.835C91.6429 212.835 89.1354 216.008 83.689 212.835L81.84 181.461L93.3645 178.429Z" fill="#37474F"/>
<path d="M102.445 217.112L103.43 222.04C103.43 222.04 104.106 223.679 106.916 223.784C108.63 223.847 109.879 223.063 110.645 221.999L110.244 216.331L102.445 217.112Z" fill="#FFA8A7"/>
<path d="M108.041 186.904C108.56 189.736 110.678 218.084 110.678 218.084C110.678 218.084 107.892 221.965 102.445 218.792L96.6334 191.099L108.041 186.904Z" fill="#37474F"/>
<path d="M93.1385 197.745V236.921C93.1385 237.251 93.3727 237.656 93.6582 237.821L95.0572 238.629C95.3433 238.794 95.8111 238.794 96.0966 238.629L97.495 237.821C97.781 237.656 98.0146 237.251 98.0146 236.921V197.745C98.0146 196.772 97.2262 195.983 96.2534 195.983H94.8991C93.927 195.983 93.1385 196.772 93.1385 197.745Z" fill="#455A64"/>
<path d="M96.796 195.983C96.1227 195.983 95.5768 196.529 95.5768 197.203L95.5775 238.329C95.5775 238.659 95.8111 238.794 96.0965 238.628L97.516 237.809C97.7906 237.651 98.0159 237.261 98.0159 236.944V197.203C98.0152 196.529 97.4693 195.983 96.796 195.983Z" fill="#263238"/>
<path d="M46.0203 197.745V236.921C46.0203 237.251 45.786 237.656 45.5006 237.821L44.1015 238.629C43.8155 238.794 43.3476 238.794 43.0615 238.629L41.6631 237.821C41.3771 237.656 41.1434 237.251 41.1434 236.921V197.745C41.1434 196.772 41.9319 195.983 42.9047 195.983H44.259C45.2318 195.983 46.0203 196.772 46.0203 197.745Z" fill="#455A64"/>
<path d="M42.3626 195.983C43.0359 195.983 43.5818 196.529 43.5818 197.203L43.5812 238.329C43.5812 238.659 43.3476 238.794 43.0621 238.628L41.6426 237.809C41.368 237.651 41.1428 237.261 41.1428 236.944V197.203C41.1434 196.529 41.6893 195.983 42.3626 195.983Z" fill="#263238"/>
<path d="M67.1412 211.594V251.931C67.1412 252.262 67.3741 252.666 67.6608 252.831L69.0599 253.639C69.3473 253.805 69.8125 253.805 70.0992 253.639L71.4976 252.831C71.785 252.666 72.0173 252.262 72.0173 251.931V211.594C72.0173 211.262 71.7485 210.993 71.417 210.993H67.7408C67.41 210.993 67.1412 211.262 67.1412 211.594Z" fill="#455A64"/>
<path d="M71.4175 210.993H70.1797C69.8482 210.993 69.5794 211.262 69.5794 211.594L69.58 253.338C69.58 253.67 69.813 253.804 70.0997 253.638L71.4981 252.831C71.7855 252.665 72.0178 252.262 72.0178 251.93V211.593C72.0178 211.262 71.749 210.993 71.4175 210.993Z" fill="#263238"/>
<path d="M101.103 198.691V199.229C101.103 200.113 100.521 201.25 99.8053 201.768L70.8766 218.36C70.1605 218.878 68.9592 218.939 68.1931 218.498L39.0424 201.712C38.2769 201.27 37.6562 200.195 37.6562 199.311V198.759C37.6562 197.875 38.307 196.858 39.1089 196.487L68.275 179.65C69.0776 179.279 70.3486 179.338 71.1141 179.78L99.7163 196.291C100.482 196.731 101.103 197.807 101.103 198.691Z" fill="#4AB3FE"/>
<g opacity="0.4">
<path d="M99.7163 196.289L71.114 179.779C70.3486 179.336 69.0776 179.278 68.275 179.649L39.1089 196.486C38.3064 196.856 38.2763 197.516 39.0417 197.957L68.1918 214.743C68.9572 215.185 70.1592 215.124 70.8753 214.606L99.8033 198.027C100.521 197.51 100.482 196.732 99.7163 196.289Z" fill="white"/>
</g>
<path d="M95.6358 134.897L114.821 144.909L105.288 170.975L87.3836 160.946L95.6358 134.897Z" fill="#4AB3FE"/>
<path d="M96.5165 137.45L112.612 145.849L104.175 168.259L89.1545 159.844L96.5165 137.45Z" fill="#F5F5F5"/>
<path opacity="0.15" d="M99.9123 139.867C99.9123 139.867 100.052 139.51 100.224 139.069C100.396 138.629 101.736 138.892 103.216 139.656L106.051 141.119C107.531 141.883 108.591 142.86 108.419 143.3L108.107 144.097L99.9123 139.867Z" fill="black"/>
<path d="M100.223 136.678C100.329 136.403 100.912 136.447 101.526 136.778L102.635 137.377C102.635 137.377 103.319 135.656 105.872 136.847C108.425 138.039 107.842 140.035 107.842 140.035C107.842 140.035 108.369 140.326 109.02 140.684C109.671 141.043 110.134 141.56 110.055 141.84L109.912 142.347L100.029 137.19C100.029 137.19 100.117 136.953 100.223 136.678Z" fill="#37474F"/>
<path d="M101.291 137.835C102.21 138.287 102.572 138.505 102.307 139.184C102.005 139.959 101.723 140.516 101.723 140.516L106.095 142.803C106.095 142.803 106.459 141.817 106.618 141.437C106.778 141.057 107.098 140.874 107.793 141.238L108.052 140.964L101.157 137.45L101.291 137.835Z" fill="#263238"/>
<path d="M99.7246 139.909C99.7246 139.909 99.8641 139.551 100.036 139.111C100.208 138.671 101.548 138.933 103.028 139.698L105.863 141.161C107.343 141.925 108.404 142.902 108.231 143.342L107.92 144.14L99.7246 139.909Z" fill="#37474F"/>
<path d="M46.3961 185.941C46.3961 185.941 71.8086 178.273 76.2266 177.064C80.6445 175.855 89.1194 173.818 91.5955 174.927C94.0717 176.036 95.3293 177.322 95.5571 180.895C95.6038 181.566 95.5571 184.835 95.5571 184.835C95.5571 184.835 83.2742 188.637 73.2109 188.637C63.1475 188.638 46.3961 185.941 46.3961 185.941Z" fill="#263238"/>
<path d="M67.8445 142.738L68.032 152.003L59.1014 154.948L57.8784 142.36L67.8445 142.738Z" fill="#FFA8A7"/>
<path d="M74.9146 133.85C74.9146 133.85 76.8755 137.283 76.5549 137.585C76.2343 137.887 74.5779 138.115 74.5779 138.115L74.9146 133.85Z" fill="#F28F8F"/>
<path d="M70.1224 122.539C72.0404 123.871 74.1115 126.339 74.9025 133.507C75.7697 141.361 73.8907 143.891 73.0139 144.543C71.7032 145.518 66.5262 145.355 64.6779 144.504C62.3649 143.439 57.8241 140.536 55.9009 136.2C53.6398 131.099 53.8702 124.725 57.5188 122.692C62.6529 119.832 68.4993 121.411 70.1224 122.539Z" fill="#FFA8A7"/>
<path d="M73.3934 125.387C72.2491 126.771 71.042 127.555 69.7339 128.351C68.8456 129.758 70.2715 133.641 68.3188 134.577C68.3188 134.577 67.4247 131.643 64.9396 132.125C62.4379 132.611 62.2388 135.835 63.9105 137.716C65.5828 139.596 67.0292 138.784 67.0292 138.784C67.0292 138.784 67.5079 141.817 64.7835 143.944C64.7835 143.944 61.8702 146.154 58.1089 144.719C56.4161 144.074 53.5879 141.716 52.0103 138.579C48.6734 131.942 47.899 126.494 52.1409 124.479C52.4718 121.339 53.7889 120.08 56.5614 119.314C62.5281 117.666 67.362 121.336 72.3911 120.298C75.0132 119.757 74.8775 123.592 73.3934 125.387Z" fill="#263238"/>
<path d="M56.5409 122.204L53.4497 120.879C53.8151 120.026 54.8039 119.63 55.657 119.996C56.5108 120.362 56.9063 121.35 56.5409 122.204Z" fill="#263238"/>
<path d="M47.2416 182.966C47.2506 187.848 46.624 193.116 48.6592 196.693C50.6266 200.151 59.2922 207.364 69.6768 205.617C76.4602 204.475 98.3847 196.12 98.3847 196.12C98.3847 196.12 108.088 192.531 108.132 189.979C108.143 189.354 108.199 188.706 108.158 188.029C107.953 184.633 106.581 180.974 99.4791 181.162C91.7223 181.368 68.7085 185.137 68.7085 185.137L47.2416 182.966Z" fill="#37474F"/>
<path d="M48.0448 152.155C48.8839 149.605 52.3386 146.005 55.5757 146.606C61.5226 147.711 68.0275 149.637 69.7523 150.147L69.7543 150.146C69.7543 150.146 68.9805 163.25 75.7037 167.217L75.9443 190.243C75.9443 190.243 75.4573 191.883 72.8896 193.516C70.112 195.282 64.7392 196.061 57.977 194.227C48.8979 191.766 47.2416 186.565 47.2416 186.565C47.2416 186.565 47.312 171.114 47.2416 164.051C47.1776 157.658 47.4688 153.906 48.0448 152.155Z" fill="#F0F0F0"/>
<path d="M75.7358 170.298C75.7358 170.298 72.3623 166.806 71.1258 162.575C71.1258 162.575 70.9377 168.877 75.7556 172.22L75.7358 170.298Z" fill="#E0E0E0"/>
<path d="M69.7536 150.146C73.424 151.247 75.6602 151.446 79.7152 157.686C83.7709 163.924 92.9511 175.618 93.8304 177.105C95.0541 179.174 95.2851 182.32 94.2291 184.22C93.2429 185.994 90.8704 184.949 86.8461 181.418C82.9543 178.003 74.7431 168.614 74.7431 168.614C74.7431 168.614 70.7232 159.811 69.7536 150.146Z" fill="#FFA8A7"/>
<path d="M69.7537 150.146C69.7537 150.146 73.026 150.831 75.0599 151.826C75.6858 152.132 77.9034 152.703 79.5815 154.947C82.8769 159.354 87.1316 166.794 87.1316 166.794C87.1316 166.794 86.3726 172.57 79.275 174.607L75.7863 170.353C74.2477 168.693 72.962 166.811 72.0244 164.751C70.4269 161.238 68.6029 155.66 69.7537 150.146Z" fill="#F0F0F0"/>
<path d="M92.9939 185.094C96.3891 184.683 103.719 174.415 105.974 170.9C108.443 167.053 110.744 165.203 112.844 163.651C116.438 160.996 115.915 156.917 114.347 153.178C113.803 151.883 111.963 152.726 111.963 152.726L111.314 154.5L110.19 157.572C109.429 158.278 108.995 158.509 108.945 158.298C108.849 157.902 109.504 156.25 109.488 154.527C109.469 152.456 108.018 153.818 107.585 154.543C107.151 155.27 106.645 156.451 106.053 157.966C105.329 159.82 105.628 161.697 104.747 162.961C103.866 164.225 92.0358 175.56 92.0358 175.56L92.9939 185.094Z" fill="#FFA8A7"/>
<path d="M62.0684 185.975V211.803C62.0684 211.969 61.9512 212.171 61.8085 212.253L61.109 212.657C60.9663 212.74 60.732 212.74 60.5893 212.657L59.8898 212.253C59.7471 212.171 59.63 211.969 59.63 211.803V185.975C59.63 185.489 60.0242 185.094 60.5106 185.094H61.1877C61.6741 185.094 62.0684 185.489 62.0684 185.975Z" fill="#263238"/>
<path d="M60.2399 185.094C60.5766 185.094 60.8499 185.367 60.8499 185.704V212.507C60.8499 212.673 60.7334 212.74 60.59 212.657L59.8802 212.248C59.7426 212.168 59.6307 211.974 59.6307 211.815V185.704C59.63 185.368 59.9033 185.094 60.2399 185.094Z" fill="#455A64"/>
<path d="M49.0701 178.621V204.45C49.0701 204.615 48.9529 204.817 48.8102 204.9L48.1107 205.304C47.968 205.386 47.7337 205.386 47.591 205.304L46.8922 204.9C46.7494 204.817 46.6323 204.615 46.6323 204.45V178.621C46.6323 178.135 47.0266 177.741 47.513 177.741H48.1901C48.6758 177.741 49.0701 178.135 49.0701 178.621Z" fill="#263238"/>
<path d="M47.2416 177.741C47.5783 177.741 47.8516 178.014 47.8516 178.35V205.154C47.8516 205.319 47.7351 205.386 47.5917 205.304L46.882 204.894C46.7444 204.815 46.6324 204.62 46.6324 204.461V178.35C46.6317 178.014 46.905 177.741 47.2416 177.741Z" fill="#455A64"/>
<path d="M41.3522 157.103C42.069 156.687 43.3042 156.649 44.1042 157.02L67.1954 167.689C67.5922 167.875 67.9506 168.207 68.213 168.611C68.2514 168.668 68.2834 168.726 68.3218 168.79C68.373 168.892 68.4242 168.995 68.469 169.103C68.5842 169.385 68.6482 169.679 68.6482 169.961V187.062C68.6482 187.945 68.0658 189.001 67.349 189.417C66.677 189.801 65.5442 189.859 64.7442 189.551C64.693 189.539 64.6482 189.519 64.597 189.494L63.4514 188.963L41.5058 178.825C40.7058 178.46 40.053 177.443 40.053 176.559V159.452C40.053 158.569 40.6354 157.519 41.3522 157.103Z" fill="#4AB3FE"/>
<path opacity="0.4" d="M40.0529 159.452C40.0529 158.569 40.7057 158.153 41.5057 158.524L64.5969 169.187C64.9873 169.372 65.3521 169.711 65.6145 170.115L68.2129 168.611C67.9505 168.207 67.5921 167.875 67.1953 167.689L44.1041 157.02C43.3041 156.649 42.0689 156.687 41.3521 157.103C40.6353 157.519 40.0529 158.569 40.0529 159.452Z" fill="white"/>
<path opacity="0.1" d="M64.7442 189.551C65.5442 189.859 66.677 189.801 67.349 189.417C68.0658 189.001 68.6482 187.945 68.6482 187.062V169.961C68.6482 169.679 68.5842 169.385 68.469 169.103C68.4242 168.995 68.373 168.892 68.3218 168.79C68.2834 168.726 68.2514 168.668 68.213 168.611L65.6146 170.115C65.8834 170.531 66.0498 171.011 66.0498 171.459V188.566C66.0498 189.391 65.4738 189.814 64.7442 189.551Z" fill="black"/>
<defs>
<linearGradient id="paint0_linear_634_27502" x1="307.479" y1="214.879" x2="11.1021" y2="214.879" gradientUnits="userSpaceOnUse">
<stop stop-color="#E0EAFC"/>
<stop offset="1" stop-color="#CFDEF3"/>
</linearGradient>
</defs>
</svg>
