<svg width="240" height="240" viewBox="0 0 240 240" fill="none" xmlns="http://www.w3.org/2000/svg">
<path d="M120 10C100.109 10 81.0322 17.9018 66.967 31.967C52.9018 46.0322 45 65.1088 45 85V143.5L28.4 168.5C26.4103 171.568 25.2817 175.114 25.1324 178.767C24.983 182.421 25.8184 186.047 27.551 189.267C29.2836 192.487 31.8499 195.182 34.9811 197.07C38.1124 198.959 41.6936 199.97 45.35 200H194.65C198.33 199.988 201.938 198.98 205.092 197.085C208.246 195.189 210.829 192.475 212.566 189.231C214.303 185.987 215.131 182.333 214.961 178.657C214.791 174.981 213.629 171.42 211.6 168.35L195 143.5V85C195 65.1088 187.098 46.0322 173.033 31.967C158.968 17.9018 139.891 10 120 10Z" fill="#D0E1EA"/>
<path d="M120 230C126.198 229.993 132.242 228.066 137.3 224.485C142.359 220.904 146.184 215.844 148.25 210H91.75C93.816 215.844 97.6412 220.904 102.7 224.485C107.758 228.066 113.802 229.993 120 230Z" fill="#D0E1EA"/>
</svg>
