<svg width="43" height="42" viewBox="0 0 43 42" fill="none" xmlns="http://www.w3.org/2000/svg">
<g clip-path="url(#clip0_716_23235)">
<path d="M56.401 17.3887C59.5233 23.9188 60.116 31.374 58.0648 38.3153C56.0136 45.2567 51.4639 51.1922 45.2937 54.9764C39.1236 58.7605 31.7705 60.125 24.6535 58.8065C17.5365 57.4879 11.1601 53.5799 6.75511 47.8365C2.35009 42.0932 0.228647 34.9217 0.80022 27.7062C1.37179 20.4907 4.59586 13.7427 9.85019 8.76449C15.1045 3.78631 22.0166 0.930883 29.2524 0.749304C36.4883 0.567725 43.5349 3.07287 49.0323 7.78124L55.4082 1.40249C55.8304 0.980299 56.403 0.743114 57.0001 0.743114C57.5972 0.743114 58.1698 0.980299 58.592 1.40249C59.0142 1.82468 59.2513 2.3973 59.2513 2.99437C59.2513 3.59143 59.0142 4.16405 58.592 4.58624L31.592 31.5862C31.1698 32.0084 30.5972 32.2456 30.0001 32.2456C29.403 32.2456 28.8304 32.0084 28.4082 31.5862C27.986 31.164 27.7488 30.5914 27.7488 29.9944C27.7488 29.3973 27.986 28.8247 28.4082 28.4025L36.2045 20.6062C34.0916 19.2089 31.5689 18.5655 29.0449 18.7802C26.5208 18.995 24.1431 20.0553 22.2967 21.7895C20.4502 23.5238 19.2431 25.8304 18.8708 28.3361C18.4984 30.8417 18.9826 33.3997 20.245 35.5959C21.5073 37.7921 23.4739 39.4981 25.8265 40.4375C28.179 41.3769 30.7797 41.4949 33.2077 40.7723C35.6356 40.0497 37.7486 38.5289 39.2046 36.4559C40.6606 34.383 41.3744 31.8794 41.2304 29.3503C41.2138 29.0548 41.2555 28.759 41.3532 28.4796C41.451 28.2003 41.6027 27.9429 41.7999 27.7222C41.9971 27.5016 42.2358 27.3219 42.5024 27.1934C42.7691 27.065 43.0584 26.9904 43.3538 26.9737C43.9506 26.9402 44.5362 27.145 44.9819 27.5433C45.2026 27.7404 45.3823 27.9792 45.5107 28.2458C45.6391 28.5124 45.7138 28.8017 45.7304 29.0972C45.9355 32.6769 44.9131 36.2194 42.8321 39.1393C40.7511 42.0592 37.7361 44.1816 34.2854 45.1558C30.8347 46.1299 27.1549 45.8976 23.8542 44.497C20.5535 43.0965 17.8294 40.6116 16.1323 37.4532C14.4351 34.2947 13.8664 30.6517 14.5203 27.1262C15.1741 23.6008 17.0112 20.404 19.7281 18.0641C22.445 15.7242 25.8789 14.3814 29.4623 14.2576C33.0457 14.1338 36.5641 15.2364 39.436 17.3831L45.8345 10.9847C41.1455 7.09161 35.1834 5.0682 29.0935 5.30308C23.0035 5.53796 17.2151 8.01457 12.8399 12.2572C8.46465 16.4999 5.81119 22.2095 5.38914 28.2893C4.96709 34.3692 6.80619 40.3906 10.5532 45.1971C14.3002 50.0036 19.691 53.2563 25.6901 54.3303C31.6892 55.4044 37.8736 54.2242 43.0555 51.0164C48.2374 47.8085 52.0515 42.7992 53.7651 36.9506C55.4788 31.102 54.9711 24.8265 52.3398 19.3294C52.0824 18.7908 52.0496 18.1721 52.2484 17.6093C52.4473 17.0465 52.8615 16.5858 53.4001 16.3284C53.9386 16.0711 54.5574 16.0382 55.1202 16.2371C55.6829 16.4359 56.1437 16.8502 56.401 17.3887Z" fill="#27A4FF"/>
</g>
<defs>
<clipPath id="clip0_716_23235">
<rect width="43" height="42" fill="white"/>
</clipPath>
</defs>
</svg>
