<svg width="26" height="25" viewBox="0 0 26 25" fill="none" xmlns="http://www.w3.org/2000/svg">
<path d="M23.5482 7.74056C24.8123 10.3844 25.0523 13.4028 24.2218 16.2131C23.3913 19.0235 21.5493 21.4266 19.0512 22.9587C16.5531 24.4908 13.576 25.0432 10.6945 24.5094C7.81305 23.9755 5.23146 22.3933 3.448 20.068C1.66453 17.7427 0.805624 14.8391 1.03704 11.9178C1.26845 8.99645 2.57378 6.26437 4.7011 4.24885C6.82843 2.23333 9.62693 1.07725 12.5565 1.00373C15.4861 0.930218 18.3391 1.94448 20.5648 3.85076L23.1462 1.26819C23.3172 1.09726 23.549 1.00123 23.7907 1.00123C24.0325 1.00123 24.2643 1.09726 24.4352 1.26819C24.6062 1.43912 24.7022 1.67096 24.7022 1.91269C24.7022 2.15443 24.6062 2.38626 24.4352 2.5572L13.5037 13.4887C13.3328 13.6596 13.1009 13.7557 12.8592 13.7557C12.6175 13.7557 12.3856 13.6596 12.2147 13.4887C12.0438 13.3178 11.9477 13.0859 11.9477 12.8442C11.9477 12.6025 12.0438 12.3706 12.2147 12.1997L15.3712 9.04323C14.5157 8.47747 13.4944 8.21698 12.4725 8.30392C11.4506 8.39087 10.4879 8.82016 9.74033 9.5223C8.99276 10.2244 8.50404 11.1583 8.35328 12.1728C8.20253 13.1873 8.39856 14.2229 8.90965 15.1121C9.42074 16.0013 10.217 16.692 11.1694 17.0723C12.1219 17.4527 13.1749 17.5004 14.1579 17.2079C15.1409 16.9153 15.9964 16.2996 16.5858 15.4603C17.1753 14.621 17.4643 13.6074 17.406 12.5834C17.3993 12.4638 17.4162 12.344 17.4558 12.2309C17.4953 12.1178 17.5568 12.0136 17.6366 11.9243C17.7165 11.8349 17.8131 11.7622 17.921 11.7102C18.029 11.6582 18.1461 11.628 18.2658 11.6212C18.5074 11.6077 18.7445 11.6906 18.9249 11.8518C19.0143 11.9317 19.087 12.0283 19.139 12.1363C19.191 12.2442 19.2212 12.3613 19.228 12.481C19.311 13.9303 18.8971 15.3645 18.0545 16.5467C17.212 17.7289 15.9913 18.5882 14.5942 18.9826C13.1971 19.377 11.7073 19.2829 10.3709 18.7159C9.03455 18.1489 7.93166 17.1428 7.24453 15.8641C6.5574 14.5853 6.32717 13.1103 6.59188 11.683C6.85659 10.2556 7.6004 8.96133 8.70038 8.01399C9.80036 7.06665 11.1907 6.52299 12.6415 6.47285C14.0923 6.42272 15.5168 6.86912 16.6795 7.73828L19.2701 5.14774C17.3717 3.57155 14.9578 2.75233 12.4922 2.84742C10.0265 2.94252 7.68293 3.94523 5.91154 5.66296C4.14014 7.38069 3.06584 9.69233 2.89496 12.1539C2.72408 14.6154 3.46868 17.0533 4.98574 18.9993C6.50281 20.9454 8.68536 22.2623 11.1142 22.6971C13.5431 23.132 16.047 22.6542 18.145 21.3554C20.243 20.0566 21.7872 18.0285 22.481 15.6606C23.1748 13.2927 22.9693 10.7519 21.9039 8.52626C21.7997 8.30821 21.7864 8.05771 21.8669 7.82985C21.9474 7.602 22.1151 7.41546 22.3332 7.31127C22.5512 7.20708 22.8017 7.19377 23.0296 7.27428C23.2575 7.35479 23.444 7.52251 23.5482 7.74056Z" fill="#0494FD"/>
</svg>
