<svg width="21" height="20" viewBox="0 0 21 20" fill="none" xmlns="http://www.w3.org/2000/svg">
<circle cx="8.60001" cy="8" r="8" fill="#F9F2FF"/>
<path d="M15.879 19.1145C15.879 19.3252 15.7042 19.5 15.4934 19.5H10.3529C10.1422 19.5 9.96738 19.3252 9.96738 19.1145C9.96738 18.9037 10.1422 18.7289 10.3529 18.7289H15.4934C15.7042 18.7289 15.879 18.9037 15.879 19.1145ZM18.4492 10.8896C18.4492 12.586 17.673 14.1899 16.3365 15.2334C16.0486 15.4544 15.879 15.7937 15.879 16.1587V16.5442C15.879 17.0428 15.478 17.4438 14.9794 17.4438H10.867C10.3683 17.4438 9.96738 17.0428 9.96738 16.5442V16.1587C9.96738 15.7988 9.80288 15.4647 9.51502 15.2437C8.18362 14.2053 7.40227 12.6117 7.39713 10.9256C7.3817 7.92871 9.79774 5.43557 12.7895 5.3636C15.843 5.29163 18.3721 7.70253 18.4492 10.756C18.4492 10.8023 18.4492 10.8434 18.4492 10.8896ZM17.6781 10.8896C17.6781 8.26285 15.55 6.13468 12.9232 6.13468C12.882 6.13468 12.8461 6.13468 12.8049 6.13468C10.2347 6.2015 8.15278 8.33995 8.1682 10.9153C8.1682 12.3701 8.84675 13.7426 9.99308 14.6319C10.466 14.9969 10.7385 15.5572 10.7385 16.1535V16.5391C10.7385 16.611 10.795 16.6676 10.867 16.6676H12.5376V13.6141L10.5945 11.671C10.4506 11.5168 10.4557 11.27 10.6151 11.1261C10.7642 10.9873 10.9903 10.9873 11.1394 11.1261L12.9232 12.9099L14.7069 11.1261C14.8611 10.9822 15.1079 10.9873 15.2518 11.1467C15.3906 11.2957 15.3906 11.5219 15.2518 11.671L13.3087 13.6141V16.6676H14.9794C15.0513 16.6676 15.1079 16.611 15.1079 16.5391V16.1535C15.1079 15.5572 15.3855 14.9918 15.8584 14.6268C17.0099 13.7272 17.6833 12.3444 17.6781 10.8845V10.8896Z" fill="#9747FF"/>
<path d="M16.4598 5.28135C16.6046 5.28135 16.722 5.16398 16.722 5.01918C16.722 4.87439 16.6046 4.75702 16.4598 4.75702C16.3151 4.75702 16.1977 4.87439 16.1977 5.01918C16.1977 5.16398 16.3151 5.28135 16.4598 5.28135Z" fill="white" stroke="#9747FF" stroke-width="0.2625" stroke-miterlimit="10"/>
<path d="M17.6781 5.20939C17.7832 5.20939 17.8683 5.12424 17.8683 5.01919C17.8683 4.91415 17.7832 4.82899 17.6781 4.82899C17.5731 4.82899 17.4879 4.91415 17.4879 5.01919C17.4879 5.12424 17.5731 5.20939 17.6781 5.20939Z" fill="white" stroke="#9747FF" stroke-width="0.2625" stroke-miterlimit="10"/>
<path d="M18.8348 5.15285C18.9086 5.15285 18.9684 5.09301 18.9684 5.0192C18.9684 4.94538 18.9086 4.88554 18.8348 4.88554C18.7609 4.88554 18.7011 4.94538 18.7011 5.0192C18.7011 5.09301 18.7609 5.15285 18.8348 5.15285Z" fill="white" stroke="#9747FF" stroke-width="0.2625" stroke-miterlimit="10"/>
<path d="M19.7189 5.08602C19.7558 5.08602 19.7857 5.0561 19.7857 5.01919C19.7857 4.98228 19.7558 4.95236 19.7189 4.95236C19.682 4.95236 19.6521 4.98228 19.6521 5.01919C19.6521 5.0561 19.682 5.08602 19.7189 5.08602Z" fill="white" stroke="#9747FF" stroke-width="0.2625" stroke-miterlimit="10"/>
</svg>
