<svg width="11" height="11" viewBox="0 0 11 11" fill="none" xmlns="http://www.w3.org/2000/svg">
<path d="M9.30678 3.18658C9.21719 3.08505 9.10702 3.00374 8.98358 2.94806C8.86015 2.89238 8.72629 2.8636 8.59088 2.86363H6.36361V2.22726C6.36361 1.80533 6.196 1.40067 5.89764 1.10232C5.59929 0.803966 5.19464 0.636353 4.77271 0.636353C4.71359 0.63631 4.65564 0.652735 4.60534 0.683786C4.55504 0.714837 4.51439 0.759286 4.48793 0.812148L2.98532 3.81817H1.27271C1.10394 3.81817 0.94208 3.88522 0.822739 4.00456C0.703398 4.1239 0.636353 4.28576 0.636353 4.45453V7.95453C0.636353 8.12331 0.703398 8.28517 0.822739 8.40451C0.94208 8.52385 1.10394 8.5909 1.27271 8.5909H8.11361C8.34616 8.59098 8.57074 8.50616 8.74518 8.35237C8.91962 8.19858 9.03192 7.9864 9.06099 7.75567L9.53826 3.93749C9.55518 3.80307 9.54328 3.66658 9.50337 3.53711C9.46346 3.40764 9.39645 3.28815 9.30678 3.18658ZM1.27271 4.45453H2.86362V7.95453H1.27271V4.45453Z" fill="#0494FD"/>
</svg>
