<svg width="20" height="20" viewBox="0 0 20 20" fill="none" xmlns="http://www.w3.org/2000/svg">
<g clip-path="url(#clip0_716_23579)">
<path d="M8.41195 4.08644L8.41205 4.08648C8.59648 4.14677 8.7981 4.04414 8.85835 3.85982C8.91863 3.67543 8.81606 3.47386 8.63181 3.41356C7.96502 3.19339 7.26998 3.08333 6.5625 3.08333C2.92074 3.08333 -0.0416667 6.04574 -0.0416667 9.6875C-0.0416667 13.3154 2.89817 16.269 6.52083 16.2915V16.2948H6.5625C7.48065 16.2948 8.3675 16.1093 9.20395 15.7445C9.38846 15.6663 9.46576 15.4569 9.38826 15.2772C9.31027 15.0965 9.10121 15.0153 8.92099 15.093L8.9208 15.0931C8.17614 15.4189 7.38183 15.5833 6.5625 15.5833C3.31051 15.5833 0.666667 12.9395 0.666667 9.6875C0.666667 6.43553 3.3105 3.79167 6.56562 3.79167C7.19874 3.79167 7.81933 3.89097 8.41195 4.08644Z" fill="black" stroke="black" stroke-width="0.0833333"/>
<path d="M4.85729 14.651H4.81562C4.74918 14.651 4.67894 14.6411 4.61154 14.6176C4.61144 14.6175 4.61134 14.6175 4.61123 14.6174L4.1526 14.4646C4.15255 14.4646 4.15251 14.4645 4.15246 14.4645L4.15245 14.4645L4.16562 14.425C3.91875 14.3437 3.75312 14.1125 3.75312 13.85L4.85729 14.651ZM4.85729 14.651V14.6434C5.11167 14.627 5.34452 14.4607 5.43015 14.2038L5.43019 14.2037L5.62084 13.6256L6.10446 13.142C6.22783 13.0186 6.29479 12.858 6.2948 12.6844L6.29479 12.6837L6.28883 12.3326L7.04196 11.5795C7.16533 11.4561 7.23229 11.2955 7.23229 11.1219V10.5969C7.23229 10.2395 6.94176 9.94895 6.58437 9.94893L6.58316 9.94897L5.98229 9.96647V9.88749C5.98229 9.60661 5.80167 9.36302 5.53848 9.27307L5.53848 9.27305L5.53717 9.27264L5.04479 9.12228V9.03124C5.04479 8.67386 4.75426 8.38333 4.39687 8.38332L4.39636 8.38333L3.90437 8.38937L3.48192 7.97282L3.47043 7.43289L4.13137 7.21158C4.19938 7.19108 4.25962 7.15729 4.31815 7.11502L4.31815 7.11503L4.31878 7.11455L5.41217 6.29295C5.41224 6.2929 5.4123 6.29285 5.41237 6.2928C5.57621 6.17233 5.67292 5.97861 5.67292 5.77499V5.59062C5.67292 5.2409 5.39472 4.9552 5.04792 4.9431V4.48124C5.04792 4.31086 4.97792 4.14067 4.85411 4.02018C4.85409 4.02016 4.85407 4.02015 4.85406 4.02013L4.39791 3.57335L4.36813 3.54419L4.33898 3.57397L3.90148 4.02085L3.87212 4.05083L3.90231 4.07997L4.33958 4.50206V5.00624C4.33958 5.3567 4.61895 5.64286 4.96678 5.65383L4.97006 5.74226L3.90227 6.54386L3.21495 6.77296L3.21465 6.77307C2.951 6.86317 2.77396 7.11021 2.77396 7.38749V7.99374C2.77396 8.1674 2.84092 8.32797 2.96429 8.45133L3.41741 8.90446C3.54078 9.02782 3.70135 9.09479 3.875 9.09481L3.87655 9.09476L4.33646 9.07762V9.15624C4.33646 9.43713 4.51708 9.68072 4.78027 9.77067L4.78027 9.77069L4.78158 9.77109L5.27396 9.92146V10.0125C5.27396 10.3699 5.56449 10.6604 5.92188 10.6604L5.92309 10.6604L6.52448 10.6429L6.53 11.0923L5.77679 11.8455C5.65342 11.9689 5.58646 12.1295 5.58645 12.3031L5.58646 12.3038L5.59241 12.6549L5.11429 13.133L5.11428 13.133L5.11361 13.1337C5.04462 13.206 4.98765 13.2925 4.95721 13.3872L4.9572 13.3872L4.95692 13.3882L4.79691 13.9293L4.41979 13.8159V13.5031C4.41979 13.403 4.39645 13.3031 4.35317 13.2132L4.35317 13.2132L4.3528 13.2124L4.10729 12.7275V11.7531C4.10729 11.4862 3.947 11.2488 3.69958 11.1518L3.69948 11.1518L2.5445 10.7026L2.53872 10.1452L2.66696 10.017C2.79033 9.89359 2.85729 9.73302 2.85729 9.55937V9.21249C2.85729 8.9955 2.75038 8.79496 2.56999 8.6747L2.56957 8.67443L1.91979 8.25237V7.33124C1.91979 7.12428 1.81976 6.9273 1.65257 6.80688C1.65254 6.80685 1.6525 6.80683 1.65247 6.8068L1.33078 6.57256L1.2971 6.54804L1.27257 6.58171L0.903821 7.08796L0.878706 7.12244L0.913765 7.14674L1.21146 7.35306V8.27499C1.21146 8.49199 1.31837 8.69253 1.49876 8.81279L1.49918 8.81306L2.14938 9.23539L2.15488 9.52993L2.02679 9.65803C1.90342 9.7814 1.83646 9.94197 1.83646 10.1156V10.7344C1.83646 11.0013 1.99675 11.2387 2.24417 11.3357L2.24427 11.3357L3.39896 11.7847V12.7406C3.39896 12.8408 3.4223 12.9407 3.46558 13.0306L3.46558 13.0306L3.46595 13.0313L3.71146 13.5162L4.85729 14.651Z" fill="black" stroke="black" stroke-width="0.0833333"/>
<path d="M13.4375 16.25C9.81875 16.25 6.875 13.3062 6.875 9.6875C6.875 6.06875 9.81875 3.125 13.4375 3.125C17.0562 3.125 20 6.06875 20 9.6875C20 13.3062 17.0562 16.25 13.4375 16.25ZM13.4375 3.75C10.1625 3.75 7.5 6.4125 7.5 9.6875C7.5 12.9625 10.1625 15.625 13.4375 15.625C16.7125 15.625 19.375 12.9625 19.375 9.6875C19.375 6.4125 16.7125 3.75 13.4375 3.75Z" fill="black"/>
<path d="M13.4375 15.3125C10.3375 15.3125 7.8125 12.7875 7.8125 9.6875C7.8125 6.5875 10.3375 4.0625 13.4375 4.0625C16.5375 4.0625 19.0625 6.5875 19.0625 9.6875C19.0625 12.7875 16.5375 15.3125 13.4375 15.3125ZM13.4375 4.6875C10.6813 4.6875 8.4375 6.93125 8.4375 9.6875C8.4375 12.4438 10.6813 14.6875 13.4375 14.6875C16.1938 14.6875 18.4375 12.4438 18.4375 9.6875C18.4375 6.93125 16.1938 4.6875 13.4375 4.6875Z" fill="black"/>
<path d="M13.0833 5.625C13.0833 5.81989 13.2426 5.97917 13.4375 5.97917C13.6324 5.97917 13.7917 5.81989 13.7917 5.625V5.3125C13.7917 5.11761 13.6324 4.95833 13.4375 4.95833C13.2426 4.95833 13.0833 5.11761 13.0833 5.3125V5.625Z" fill="black" stroke="black" stroke-width="0.0833333"/>
<path d="M10.3141 7.06697L10.3141 7.06698L10.3149 7.06771C10.384 7.13345 10.4712 7.16899 10.5623 7.16978V7.1698H10.5654V7.16979C10.6557 7.16907 10.7435 7.13713 10.8136 7.06697C10.9518 6.92882 10.9518 6.70557 10.8136 6.56742L10.5918 6.34554C10.4536 6.2074 10.2304 6.2074 10.0922 6.34554C9.95407 6.48369 9.95407 6.70695 10.0922 6.84509L10.3141 7.06697Z" fill="black" stroke="black" stroke-width="0.0833333"/>
<path d="M9.0625 10.0417H9.375C9.56989 10.0417 9.72917 9.88239 9.72917 9.6875C9.72917 9.49261 9.56989 9.33333 9.375 9.33333H9.0625C8.86761 9.33333 8.70833 9.49261 8.70833 9.6875C8.70833 9.88239 8.86761 10.0417 9.0625 10.0417Z" fill="black" stroke="black" stroke-width="0.0833333"/>
<path d="M10.0922 13.0326L10.0922 13.0326L10.093 13.0333C10.1622 13.0991 10.2493 13.1346 10.3404 13.1354V13.1354H10.3436V13.1354C10.4338 13.1347 10.5216 13.1027 10.5918 13.0326L10.8136 12.8107C10.9518 12.6726 10.9518 12.4493 10.8136 12.3112C10.6755 12.173 10.4522 12.173 10.3141 12.3112L10.0922 12.533C9.95407 12.6712 9.95407 12.8944 10.0922 13.0326ZM10.5328 12.9736C10.4792 13.0273 10.4126 13.0517 10.342 13.0521C10.2725 13.0517 10.2053 13.0249 10.1508 12.9733C10.0455 12.8676 10.0457 12.6974 10.1511 12.592L10.373 12.3701C10.4786 12.2645 10.6491 12.2645 10.7547 12.3701C10.8603 12.4757 10.8603 12.6462 10.7547 12.7518L10.5328 12.9736Z" fill="black" stroke="black" stroke-width="0.0833333"/>
<path d="M13.0833 14.0625C13.0833 14.2574 13.2426 14.4167 13.4375 14.4167C13.6324 14.4167 13.7917 14.2574 13.7917 14.0625V13.75C13.7917 13.5551 13.6324 13.3958 13.4375 13.3958C13.2426 13.3958 13.0833 13.5551 13.0833 13.75V14.0625Z" fill="black" stroke="black" stroke-width="0.0833333"/>
<path d="M16.2799 13.0326L16.2799 13.0326L16.2807 13.0333C16.3499 13.0991 16.437 13.1346 16.5281 13.1354V13.1354H16.5313V13.1354C16.6215 13.1347 16.7093 13.1027 16.7795 13.0326C16.9176 12.8944 16.9176 12.6712 16.7795 12.533L16.5576 12.3112C16.4194 12.173 16.1962 12.173 16.058 12.3112C15.9199 12.4493 15.9199 12.6726 16.058 12.8107L16.2799 13.0326Z" fill="black" stroke="black" stroke-width="0.0833333"/>
<path d="M17.5 10.0417H17.8125C18.0074 10.0417 18.1667 9.88239 18.1667 9.6875C18.1667 9.49261 18.0074 9.33333 17.8125 9.33333H17.5C17.3051 9.33333 17.1458 9.49261 17.1458 9.6875C17.1458 9.88239 17.3051 10.0417 17.5 10.0417Z" fill="black" stroke="black" stroke-width="0.0833333"/>
<path d="M16.058 7.06697L16.058 7.06698L16.0588 7.06771C16.128 7.13345 16.2151 7.16899 16.3063 7.16978V7.1698H16.3094V7.16979C16.3996 7.16907 16.4874 7.13713 16.5576 7.06697L16.7795 6.84509C16.9176 6.70695 16.9176 6.48369 16.7795 6.34554C16.6413 6.2074 16.4181 6.2074 16.2799 6.34554L16.058 6.56742C15.9199 6.70557 15.9199 6.92882 16.058 7.06697ZM16.4987 7.00804C16.445 7.06166 16.3784 7.08609 16.3079 7.08646C16.2384 7.08608 16.1711 7.05932 16.1166 7.00767C16.0114 6.90204 16.0115 6.73182 16.117 6.62634L16.3388 6.40447C16.4444 6.29887 16.6149 6.29887 16.7205 6.40447C16.8261 6.51007 16.8261 6.68057 16.7205 6.78617L16.4987 7.00804Z" fill="black" stroke="black" stroke-width="0.0833333"/>
<path d="M13.0833 9.6875C13.0833 9.88239 13.2426 10.0417 13.4375 10.0417C13.6324 10.0417 13.7917 9.88239 13.7917 9.6875V6.875C13.7917 6.68011 13.6324 6.52083 13.4375 6.52083C13.2426 6.52083 13.0833 6.68011 13.0833 6.875V9.6875Z" fill="black" stroke="black" stroke-width="0.0833333"/>
<path d="M12.2485 10.8763L12.2485 10.8764L12.2492 10.8771C12.3184 10.9428 12.4055 10.9784 12.4967 10.9792V10.9792H12.4998V10.9792C12.59 10.9784 12.6779 10.9465 12.748 10.8763L13.6855 9.93884C13.8237 9.8007 13.8237 9.57744 13.6855 9.43929C13.5474 9.30115 13.3241 9.30115 13.186 9.43929L12.2485 10.3768C12.1103 10.5149 12.1103 10.7382 12.2485 10.8763ZM12.6891 10.8174C12.6355 10.871 12.5689 10.8955 12.4983 10.8958C12.4288 10.8955 12.3616 10.8687 12.307 10.817C12.2018 10.7114 12.2019 10.5412 12.3074 10.4357L13.2449 9.49822C13.3505 9.39262 13.521 9.39262 13.6266 9.49822C13.7322 9.60382 13.7322 9.77432 13.6266 9.87992L12.6891 10.8174Z" fill="black" stroke="black" stroke-width="0.0833333"/>
</g>
<defs>
<clipPath id="clip0_716_23579">
<rect width="20" height="20" fill="white"/>
</clipPath>
</defs>
</svg>
