<svg width="14" height="15" viewBox="0 0 14 15" fill="none" xmlns="http://www.w3.org/2000/svg">
<path d="M0.858683 13.9011V13.9758H0.93335H1.47779H1.55246V13.9011V10.9067C1.55246 9.89714 2.37381 9.07579 3.38335 9.07579H6.37779H6.45246V9.00113V8.45668V8.38202H6.37779H3.38335C1.99189 8.38202 0.858683 9.51522 0.858683 10.9067V13.9011ZM6.41746 13.9011V13.9758H6.49213H7.03657H7.11124V13.9011V10.9067C7.11124 9.89714 7.93259 9.07579 8.94213 9.07579H11.9366H12.0112V9.00113V8.45668V8.38202H11.9366H8.94213C7.55067 8.38202 6.41746 9.51522 6.41746 10.9067V13.9011ZM6.41724 2.72172L6.46648 2.77155L6.51934 2.72558C6.64186 2.61905 6.76925 2.52355 6.90693 2.43883L6.98467 2.39099L6.92236 2.32427C6.36998 1.73283 5.58287 1.35868 4.70635 1.35868C3.02633 1.35868 1.66446 2.72056 1.66446 4.40057C1.66446 6.08059 3.02633 7.44246 4.70635 7.44246C5.29244 7.44246 5.83968 7.27496 6.3031 6.98462L6.37895 6.9371L6.3186 6.871C6.20565 6.74729 6.09968 6.61993 6.01018 6.48304L5.97095 6.42305L5.90941 6.45979C5.55522 6.67125 5.14366 6.79768 4.70635 6.79768C3.38648 6.79768 2.30924 5.72045 2.30924 4.40057C2.30924 3.0807 3.38648 2.00346 4.70635 2.00346C5.3768 2.00346 5.97863 2.27782 6.41724 2.72172ZM7.90769 2.61834L7.90717 2.6188C7.27154 3.18194 6.86391 4.00219 6.86391 4.9178C6.86391 5.54307 7.0538 6.11794 7.37156 6.60294C7.46661 6.7483 7.57825 6.88785 7.6955 7.01072C8.25349 7.60763 9.05145 7.98146 9.93302 7.98146C11.6239 7.98146 13.0021 6.60325 13.0021 4.91235C13.0021 3.22145 11.6239 1.84324 9.93302 1.84324H9.85835V1.8496C9.29473 1.86349 8.76895 2.03402 8.32036 2.3117C8.17469 2.40135 8.03532 2.50735 7.90769 2.61834ZM9.92757 7.33124H9.77024C9.16007 7.29028 8.61406 7.02066 8.20579 6.60753L8.20548 6.60722C8.09049 6.49223 7.99027 6.36065 7.89963 6.22206C7.65618 5.8409 7.50868 5.39746 7.50868 4.91235C7.50868 4.20005 7.8252 3.56092 8.31707 3.11665L8.31736 3.11638C8.43834 3.00593 8.56973 2.91133 8.71161 2.83251L8.71162 2.83253L8.71321 2.8316C9.07309 2.6199 9.48481 2.49346 9.92757 2.49346C11.2637 2.49346 12.3465 3.58148 12.3465 4.91235C12.3465 6.24311 11.2583 7.33124 9.92757 7.33124ZM8.15268 6.66002C8.03291 6.54024 7.92946 6.40413 7.83691 6.26257L8.15268 6.66002Z" fill="white" stroke="white" stroke-width="0.149333"/>
</svg>
