<svg width="14" height="15" viewBox="0 0 14 15" fill="none" xmlns="http://www.w3.org/2000/svg">
<path d="M0.287432 14V14.08H0.367432H0.950765H1.03076V14V10.7917C1.03076 9.71001 1.91078 8.82999 2.99243 8.82999H6.20076H6.28076V8.74999V8.16666V8.08666H6.20076H2.99243C1.50158 8.08666 0.287432 9.30081 0.287432 10.7917V14Z" fill="white" stroke="white" stroke-width="0.16"/>
<path d="M6.24324 14V14.08H6.32324H6.90658H6.98658V14V10.7917C6.98658 9.71001 7.86659 8.82999 8.94824 8.82999H12.1566H12.2366V8.74999V8.16666V8.08666H12.1566H8.94824C7.45739 8.08666 6.24324 9.30081 6.24324 10.7917V14Z" fill="white" stroke="white" stroke-width="0.16"/>
<path d="M6.24297 2.02203L6.29573 2.07542L6.35237 2.02617C6.48364 1.91202 6.62013 1.80971 6.76764 1.71893L6.85094 1.66767L6.78418 1.59619C6.19234 0.962507 5.34901 0.561632 4.40988 0.561632C2.60986 0.561632 1.15071 2.02078 1.15071 3.8208C1.15071 5.62081 2.60986 7.07996 4.40988 7.07996C5.03784 7.07996 5.62416 6.9005 6.12069 6.58943L6.20195 6.53851L6.13729 6.46769C6.01627 6.33514 5.90273 6.19868 5.80684 6.05202L5.76481 5.98774L5.69887 6.02711C5.31938 6.25367 4.87842 6.38913 4.40988 6.38913C2.99573 6.38913 1.84155 5.23495 1.84155 3.8208C1.84155 2.40665 2.99573 1.25247 4.40988 1.25247C5.12822 1.25247 5.77303 1.54643 6.24297 2.02203Z" fill="white" stroke="white" stroke-width="0.16"/>
<path d="M7.83985 1.91126L7.83985 1.91126L7.8393 1.91175C7.15826 2.51512 6.72151 3.39396 6.72151 4.37496C6.72151 5.0449 6.92497 5.66083 7.26543 6.18047C7.36728 6.33623 7.48689 6.48575 7.61252 6.61739C8.21037 7.25693 9.06532 7.65746 10.0098 7.65746C11.8215 7.65746 13.2982 6.18081 13.2982 4.36913C13.2982 2.55745 11.8215 1.0808 10.0098 1.0808H9.92985V1.08762C9.32596 1.1025 8.76264 1.2852 8.28199 1.58272C8.12592 1.67877 7.9766 1.79235 7.83985 1.91126ZM10.004 6.9608H9.83545C9.18169 6.91691 8.59668 6.62803 8.15925 6.1854L8.15892 6.18506C8.03571 6.06186 7.92833 5.92088 7.83121 5.77238C7.57038 5.364 7.41235 4.88889 7.41235 4.36913C7.41235 3.60595 7.75147 2.92117 8.27847 2.44517L8.27847 2.44517L8.27879 2.44488C8.4084 2.32653 8.54918 2.22519 8.7012 2.14073L8.70121 2.14075L8.70291 2.13975C9.08849 1.91294 9.52962 1.77746 10.004 1.77746C11.4356 1.77746 12.5957 2.9432 12.5957 4.36913C12.5957 5.79495 11.4298 6.9608 10.004 6.9608Z" fill="white" stroke="white" stroke-width="0.16"/>
</svg>
