<svg width="80" height="54" viewBox="0 0 80 54" fill="none" xmlns="http://www.w3.org/2000/svg">
<path d="M62.4693 22.054H74.4587H77.6686L75.1926 23.8535V27.3937C75.1926 27.802 74.864 28.1329 74.4587 28.1329H62.4693C62.064 28.1329 61.7354 27.8019 61.7354 27.3937V22.7933C61.7354 22.385 62.064 22.054 62.4693 22.054Z" fill="#F5F5F5"/>
<path d="M63.1035 24.556C63.1035 24.5708 65.3959 24.5827 68.223 24.5827C71.051 24.5827 73.343 24.5708 73.343 24.556C73.343 24.5413 71.051 24.5292 68.223 24.5292C65.3959 24.5293 63.1035 24.5413 63.1035 24.556Z" fill="#2DC38D"/>
<path d="M63.1035 25.9152C63.1035 25.93 65.3959 25.942 68.223 25.942C71.051 25.942 73.343 25.9301 73.343 25.9152C73.343 25.9005 71.051 25.8885 68.223 25.8885C65.3959 25.8885 63.1035 25.9004 63.1035 25.9152Z" fill="#2DC38D"/>
<path d="M39.3856 8.99088H38.6743V11.3905H39.3856V8.99088Z" fill="#2DC38D"/>
<path d="M33.4447 8.6431H32.7334V11.3904H33.4447V8.6431Z" fill="#2DC38D"/>
<path d="M34.93 8.07053H34.2188V11.3904H34.93V8.07053Z" fill="#2DC38D"/>
<path d="M36.4149 8.25259H35.7036V11.3904H36.4149V8.25259Z" fill="#2DC38D"/>
<path d="M37.9002 7.1911H37.189V11.3904H37.9002V7.1911Z" fill="#2DC38D"/>
<path d="M40.8709 7.21149H40.1597V11.3904H40.8709V7.21149Z" fill="#2DC38D"/>
<path d="M42.3563 8.58401H41.645V11.3904H42.3563V8.58401Z" fill="#2DC38D"/>
<path d="M43.8416 7.39566H43.1304V11.3904H43.8416V7.39566Z" fill="#2DC38D"/>
<path d="M45.3265 6.4957H44.6152V11.3904H45.3265V6.4957Z" fill="#2DC38D"/>
<path d="M46.8118 7.37524H46.1006V11.3905H46.8118V7.37524Z" fill="#2DC38D"/>
<path d="M65.553 11.1679L71.4352 10.2627C71.9282 13.5126 69.6787 16.5955 66.4519 17.0922C63.225 17.5887 60.164 15.3231 59.6708 12.0732C59.1778 8.82327 61.4273 5.74039 64.6542 5.24386C65.1679 5.16479 65.6898 5.15383 66.2063 5.21131L65.553 11.1679Z" fill="#67D5B5"/>
<path d="M67.4617 5.23013L66.7476 9.82238L71.2234 8.97584C71.2234 8.97584 70.5652 6.40229 67.4617 5.23013Z" fill="#2DC38D"/>
<path d="M5.4911 22.3081C5.46529 20.6811 6.75254 19.3362 8.36054 19.3101C9.96854 19.284 11.2978 20.5864 11.3236 22.2134C11.3495 23.8404 10.0622 25.1853 8.4542 25.2114C6.8462 25.2375 5.51692 23.935 5.4911 22.3081ZM9.80172 22.2381C9.78934 21.4602 9.15382 20.8375 8.38497 20.8499C7.61612 20.8624 7.00065 21.5054 7.01302 22.2833C7.0254 23.0612 7.66092 23.684 8.42977 23.6715C9.19862 23.6591 9.81409 23.016 9.80172 22.2381Z" fill="#F5F5F5"/>
<path d="M5.4911 22.3081C5.46529 20.6811 6.75254 19.3362 8.36044 19.3101L8.38486 20.8499C7.61601 20.8624 7.00054 21.5055 7.01292 22.2834C7.02529 23.0613 7.66081 23.6841 8.42966 23.6715L8.45409 25.2113C6.8462 25.2375 5.51692 23.9351 5.4911 22.3081Z" fill="#2DC38D"/>
<path d="M8.09863 19.0733C9.97991 19.0426 11.4806 20.5131 11.5108 22.4165L9.73031 22.4454C9.71591 21.5353 9.02823 20.9623 8.12882 20.977L8.09863 19.0733Z" fill="#67D5B5"/>
<path d="M24.4396 32.6687H20.7324V37.1074H24.4396V32.6687Z" fill="#F5F5F5"/>
<path d="M20.8602 32.3792H4.10645V37.3865H20.8602V32.3792Z" fill="#2DC38D"/>
<path d="M24.552 32.8004H20.4111V32.3792H24.552C24.6675 32.3792 24.7611 32.4736 24.7611 32.5898C24.7611 32.706 24.6676 32.8004 24.552 32.8004Z" fill="#2DC38D"/>
<path d="M24.552 37.3865H20.4111V36.9654H24.552C24.6675 36.9654 24.7611 37.0596 24.7611 37.1759C24.7611 37.2923 24.6676 37.3865 24.552 37.3865Z" fill="#2DC38D"/>
<path d="M19.5428 32.3792H17.5635V37.3865H19.5428V32.3792Z" fill="#67D5B5"/>
<path d="M7.67912 32.4347H5.69971V37.4419H7.67912V32.4347Z" fill="#67D5B5"/>
<path d="M24.4394 33.4028C24.4394 33.4151 23.637 33.425 22.6475 33.425C21.6576 33.425 20.8555 33.4151 20.8555 33.4028C20.8555 33.3906 21.6576 33.3807 22.6475 33.3807C23.637 33.3807 24.4394 33.3906 24.4394 33.4028Z" fill="#2DC38D"/>
<path d="M24.4394 34.0685C24.4394 34.0807 23.637 34.0907 22.6475 34.0907C21.6576 34.0907 20.8555 34.0808 20.8555 34.0685C20.8555 34.0562 21.6576 34.0463 22.6475 34.0463C23.637 34.0462 24.4394 34.0562 24.4394 34.0685Z" fill="#2DC38D"/>
<path d="M24.4394 34.888C24.4394 34.9003 23.637 34.9102 22.6475 34.9102C21.6576 34.9102 20.8555 34.9003 20.8555 34.888C20.8555 34.8758 21.6576 34.8658 22.6475 34.8658C23.637 34.8658 24.4394 34.8758 24.4394 34.888Z" fill="#2DC38D"/>
<path d="M24.4394 35.7076C24.4394 35.7199 23.637 35.7297 22.6475 35.7297C21.6576 35.7297 20.8555 35.7199 20.8555 35.7076C20.8555 35.6954 21.6576 35.6855 22.6475 35.6855C23.637 35.6854 24.4394 35.6954 24.4394 35.7076Z" fill="#2DC38D"/>
<path d="M24.4394 36.5272C24.4394 36.5394 23.637 36.5493 22.6475 36.5493C21.6576 36.5493 20.8555 36.5394 20.8555 36.5272C20.8555 36.5149 21.6576 36.5051 22.6475 36.5051C23.637 36.505 24.4394 36.5149 24.4394 36.5272Z" fill="#2DC38D"/>
<path d="M16.4992 34.4372H8.96191V35.3388H16.4992V34.4372Z" fill="#67D5B5"/>
<path d="M24.4018 37.4847H20.6377V40.1893H24.4018V37.4847Z" fill="#FAFAFA"/>
<path d="M20.6799 37.3865H4.66113V40.2874H20.6799V37.3865Z" fill="#F5F5F5"/>
<path d="M20.5635 37.5828H24.6092C24.6631 37.5828 24.7066 37.5388 24.7066 37.4846C24.7066 37.4304 24.663 37.3865 24.6092 37.3865H20.5635V37.5828Z" fill="#F5F5F5"/>
<path d="M20.5635 40.2874H24.6619C24.6867 40.2874 24.7066 40.2672 24.7066 40.2424V40.1361C24.7066 40.1113 24.6866 40.0911 24.6619 40.0911H20.5635V40.2874Z" fill="#F5F5F5"/>
<path d="M24.4017 37.9984C24.4017 38.0107 23.5684 38.0207 22.5408 38.0207C21.5128 38.0207 20.6797 38.0108 20.6797 37.9984C20.6797 37.9862 21.5128 37.9763 22.5408 37.9763C23.5684 37.9763 24.4017 37.9862 24.4017 37.9984Z" fill="#2DC38D"/>
<path d="M24.4017 38.5101C24.4017 38.5224 23.5684 38.5323 22.5408 38.5323C21.5128 38.5323 20.6797 38.5225 20.6797 38.5101C20.6797 38.4979 21.5128 38.488 22.5408 38.488C23.5684 38.488 24.4017 38.4979 24.4017 38.5101Z" fill="#2DC38D"/>
<path d="M24.4017 39.0218C24.4017 39.034 23.5684 39.044 22.5408 39.044C21.5128 39.044 20.6797 39.0342 20.6797 39.0218C20.6797 39.0096 21.5128 38.9997 22.5408 38.9997C23.5684 38.9997 24.4017 39.0096 24.4017 39.0218Z" fill="#2DC38D"/>
<path d="M24.4017 39.5335C24.4017 39.5457 23.5684 39.5556 22.5408 39.5556C21.5128 39.5556 20.6797 39.5457 20.6797 39.5335C20.6797 39.5212 21.5128 39.5113 22.5408 39.5113C23.5684 39.5113 24.4017 39.5212 24.4017 39.5335Z" fill="#2DC38D"/>
<path d="M24.9728 40.5451H21.1309V47.8768H24.9728V40.5451Z" fill="#67D5B5"/>
<path d="M21.1308 40.2874H3.09668V48.2369H21.1308V40.2874Z" fill="#2DC38D"/>
<path d="M25.2734 48.2369H20.6377V47.7213H25.2734C25.4148 47.7213 25.5294 47.8367 25.5294 47.9791C25.5293 48.1214 25.4148 48.2369 25.2734 48.2369Z" fill="#2DC38D"/>
<path d="M25.4119 40.8029H20.6377V40.2874H25.4119C25.4767 40.2874 25.5293 40.3403 25.5293 40.4057V40.6847C25.5293 40.75 25.4767 40.8029 25.4119 40.8029Z" fill="#2DC38D"/>
<path d="M24.9728 41.528C24.9728 41.5402 24.1126 41.5501 23.0519 41.5501C21.9908 41.5501 21.1309 41.5402 21.1309 41.528C21.1309 41.5157 21.9908 41.5059 23.0519 41.5059C24.1126 41.5059 24.9728 41.5157 24.9728 41.528Z" fill="#2DC38D"/>
<path d="M24.9728 42.4683C24.9728 42.4805 24.1126 42.4904 23.0519 42.4904C21.9908 42.4904 21.1309 42.4805 21.1309 42.4683C21.1309 42.456 21.9908 42.4461 23.0519 42.4461C24.1126 42.4461 24.9728 42.456 24.9728 42.4683Z" fill="#2DC38D"/>
<path d="M24.9728 43.4086C24.9728 43.4209 24.1126 43.4307 23.0519 43.4307C21.9908 43.4307 21.1309 43.4209 21.1309 43.4086C21.1309 43.3964 21.9908 43.3865 23.0519 43.3865C24.1126 43.3865 24.9728 43.3964 24.9728 43.4086Z" fill="#2DC38D"/>
<path d="M24.9728 44.3489C24.9728 44.3612 24.1126 44.3712 23.0519 44.3712C21.9908 44.3712 21.1309 44.3613 21.1309 44.3489C21.1309 44.3367 21.9908 44.3268 23.0519 44.3268C24.1126 44.3268 24.9728 44.3367 24.9728 44.3489Z" fill="#2DC38D"/>
<path d="M24.9728 45.2892C24.9728 45.3015 24.1126 45.3114 23.0519 45.3114C21.9908 45.3114 21.1309 45.3015 21.1309 45.2892C21.1309 45.277 21.9908 45.2671 23.0519 45.2671C24.1126 45.2671 24.9728 45.277 24.9728 45.2892Z" fill="#2DC38D"/>
<path d="M24.9728 46.2297C24.9728 46.2419 24.1126 46.2518 23.0519 46.2518C21.9908 46.2518 21.1309 46.2419 21.1309 46.2297C21.1309 46.2174 21.9908 46.2076 23.0519 46.2076C24.1126 46.2074 24.9728 46.2174 24.9728 46.2297Z" fill="#2DC38D"/>
<path d="M24.9728 47.17C24.9728 47.1823 24.1126 47.1921 23.0519 47.1921C21.9908 47.1921 21.1309 47.1823 21.1309 47.17C21.1309 47.1578 21.9908 47.1479 23.0519 47.1479C24.1126 47.1478 24.9728 47.1578 24.9728 47.17Z" fill="#2DC38D"/>
<path d="M9.26776 44.6971V45.1394C9.26776 45.672 9.00334 45.9765 8.49326 45.9765C7.98328 45.9765 7.71875 45.6721 7.71875 45.1394V43.4082C7.71875 42.8756 7.98318 42.5711 8.49326 42.5711C9.00323 42.5711 9.26776 42.8755 9.26776 43.4082V43.7317H8.77667V43.375C8.77667 43.1371 8.67278 43.0468 8.50755 43.0468C8.34222 43.0468 8.23832 43.1371 8.23832 43.375V45.1728C8.23832 45.4107 8.34222 45.4963 8.50755 45.4963C8.67278 45.4963 8.77667 45.4107 8.77667 45.1728V44.6972H9.26776V44.6971Z" fill="#67D5B5"/>
<path d="M9.54102 43.4082C9.54102 42.8756 9.81963 42.5711 10.3296 42.5711C10.8396 42.5711 11.1183 42.8755 11.1183 43.4082V45.1394C11.1183 45.672 10.8397 45.9765 10.3296 45.9765C9.81952 45.9765 9.54102 45.6721 9.54102 45.1394V43.4082ZM10.0605 45.1728C10.0605 45.4107 10.1644 45.501 10.3296 45.501C10.4949 45.501 10.5988 45.4107 10.5988 45.1728V43.375C10.5988 43.1371 10.4949 43.0468 10.3296 43.0468C10.1644 43.0468 10.0605 43.1371 10.0605 43.375V45.1728Z" fill="#67D5B5"/>
<path d="M11.4536 42.6092H11.9731V45.463H12.8278V45.9385H11.4536V42.6092Z" fill="#67D5B5"/>
<path d="M13.0112 43.4082C13.0112 42.8756 13.2898 42.5711 13.7999 42.5711C14.3099 42.5711 14.5886 42.8755 14.5886 43.4082V45.1394C14.5886 45.672 14.31 45.9765 13.7999 45.9765C13.2898 45.9765 13.0112 45.6721 13.0112 45.1394V43.4082ZM13.5307 45.1728C13.5307 45.4107 13.6346 45.501 13.7999 45.501C13.9652 45.501 14.0692 45.4107 14.0692 45.1728V43.375C14.0692 43.1371 13.9653 43.0468 13.7999 43.0468C13.6346 43.0468 13.5307 43.1371 13.5307 43.375V45.1728Z" fill="#67D5B5"/>
<path d="M15.4194 42.6092V45.1775C15.4194 45.4154 15.5233 45.5009 15.6886 45.5009C15.8539 45.5009 15.9578 45.4153 15.9578 45.1775V42.6092H16.4489V45.1442C16.4489 45.6768 16.1845 45.9813 15.6744 45.9813C15.1644 45.9813 14.8999 45.677 14.8999 45.1442V42.6092H15.4194Z" fill="#67D5B5"/>
<path d="M17.8889 45.9384C17.8605 45.8528 17.8417 45.8005 17.8417 45.5295V45.0063C17.8417 44.6971 17.7378 44.583 17.5016 44.583H17.3222V45.9385H16.8027V42.6092H17.5866C18.125 42.6092 18.3563 42.8612 18.3563 43.375V43.6366C18.3563 43.979 18.2477 44.2025 18.0163 44.312C18.276 44.4213 18.361 44.6735 18.361 45.0207V45.5343C18.361 45.696 18.3657 45.8149 18.4177 45.9385L17.8889 45.9384ZM17.3222 43.0848V44.1074H17.5253C17.7189 44.1074 17.837 44.0218 17.837 43.7555V43.4273C17.837 43.1894 17.7567 43.0848 17.5725 43.0848H17.3222Z" fill="#67D5B5"/>
<path d="M9.15563 38.529H8.77686L8.7968 38.4301H9.66635L9.64491 38.529H9.26752L9.07275 39.5112H8.96086L9.15563 38.529Z" fill="#2DC38D"/>
<path d="M10.3956 38.6988L9.80672 39.6164C9.70709 39.7709 9.63189 39.8187 9.51541 39.8187C9.44032 39.8187 9.36352 39.7924 9.32373 39.7461L9.38197 39.6658C9.41728 39.7028 9.46325 39.7245 9.52458 39.7245C9.5937 39.7245 9.64725 39.692 9.71018 39.5932L9.76693 39.5067L9.56597 38.6987H9.67637L9.84352 39.3907L10.2836 38.6987H10.3956V38.6988Z" fill="#2DC38D"/>
<path d="M11.2923 39.0356C11.2923 39.3149 11.0992 39.5188 10.8354 39.5188C10.682 39.5188 10.5746 39.4555 10.5286 39.3412L10.4367 39.8108H10.3276L10.547 38.6987H10.6513L10.6252 38.8286C10.7019 38.7421 10.8093 38.6927 10.9397 38.6927C11.1466 38.6928 11.2923 38.8225 11.2923 39.0356ZM11.1819 39.0418C11.1819 38.8826 11.0853 38.7885 10.9165 38.7885C10.7157 38.7885 10.5685 38.9475 10.5685 39.1698C10.5685 39.329 10.6651 39.4216 10.8338 39.4216C11.0347 39.4217 11.1819 39.2627 11.1819 39.0418Z" fill="#2DC38D"/>
<path d="M11.4194 39.1747C11.4194 38.8981 11.6142 38.6928 11.8856 38.6928C12.1095 38.6928 12.2521 38.8256 12.2521 39.0356C12.2521 39.3136 12.0573 39.5189 11.7859 39.5189C11.5622 39.519 11.4194 39.3831 11.4194 39.1747ZM12.1433 39.0419C12.1433 38.8827 12.0466 38.7886 11.878 38.7886C11.677 38.7886 11.5283 38.9491 11.5283 39.1698C11.5283 39.329 11.625 39.4216 11.7936 39.4216C11.9946 39.4217 12.1433 39.2627 12.1433 39.0419Z" fill="#2DC38D"/>
<path d="M13.2957 38.6988L13.1547 39.4125C13.098 39.6998 12.9477 39.8187 12.6855 39.8187C12.5336 39.8187 12.4094 39.7755 12.3267 39.6966L12.3911 39.6133C12.4554 39.6797 12.5644 39.7215 12.6933 39.7215C12.8971 39.7215 13.0045 39.6271 13.0428 39.4311L13.0613 39.3414C12.9846 39.428 12.8757 39.4806 12.7392 39.4806C12.526 39.4806 12.3834 39.3554 12.3834 39.153C12.3834 38.8921 12.5751 38.6929 12.8435 38.6929C12.9922 38.6929 13.1118 38.7546 13.1578 38.8782L13.1915 38.6989H13.2957V38.6988ZM13.1117 39.0247C13.1117 38.8764 13.012 38.7885 12.8448 38.7885C12.6409 38.7885 12.4937 38.9399 12.4937 39.1467C12.4937 39.295 12.5918 39.3831 12.7606 39.3831C12.9629 39.3831 13.1117 39.2317 13.1117 39.0247Z" fill="#2DC38D"/>
<path d="M14.0068 38.6928L13.9869 38.7993C13.9761 38.7993 13.9684 38.7977 13.9561 38.7977C13.7844 38.7977 13.6694 38.8965 13.6295 39.0989L13.5484 39.5112H13.4395L13.599 38.6987H13.7032L13.6756 38.847C13.7476 38.7406 13.8534 38.6928 14.0068 38.6928Z" fill="#2DC38D"/>
<path d="M14.9311 38.6988L14.7702 39.5113H14.6658L14.6919 39.3832C14.6152 39.4681 14.5079 39.5191 14.3775 39.5191C14.1706 39.5191 14.0264 39.3894 14.0264 39.1747C14.0264 38.8966 14.2196 38.6929 14.4818 38.6929C14.6352 38.6929 14.7425 38.7562 14.7885 38.8689L14.8223 38.6989H14.9311V38.6988ZM14.7502 39.0419C14.7502 38.8826 14.6536 38.7885 14.4849 38.7885C14.2841 38.7885 14.1353 38.949 14.1353 39.1698C14.1353 39.329 14.2319 39.4216 14.4006 39.4216C14.6014 39.4217 14.7502 39.2627 14.7502 39.0419Z" fill="#2DC38D"/>
<path d="M15.9782 39.0356C15.9782 39.3149 15.785 39.5188 15.5212 39.5188C15.3678 39.5188 15.2604 39.4555 15.2144 39.3412L15.1225 39.8108H15.0137L15.233 38.6987H15.3372L15.3112 38.8286C15.3879 38.7421 15.4953 38.6927 15.6256 38.6927C15.8324 38.6928 15.9782 38.8225 15.9782 39.0356ZM15.8678 39.0418C15.8678 38.8826 15.7711 38.7885 15.6025 38.7885C15.4016 38.7885 15.2543 38.9475 15.2543 39.1698C15.2543 39.329 15.351 39.4216 15.5196 39.4216C15.7206 39.4217 15.8678 39.2627 15.8678 39.0418Z" fill="#2DC38D"/>
<path d="M16.9543 38.9569C16.9543 38.9862 16.9512 39.017 16.9451 39.0495L16.8531 39.5112H16.7442L16.8363 39.0478C16.8407 39.0216 16.8438 38.9969 16.8438 38.9738C16.8438 38.8579 16.7748 38.7916 16.6353 38.7916C16.4636 38.7916 16.3455 38.8857 16.3071 39.0757L16.2212 39.5112H16.1123L16.3393 38.3652H16.4481L16.3576 38.8208C16.4343 38.7329 16.5416 38.6928 16.6659 38.6928C16.8484 38.6928 16.9543 38.7917 16.9543 38.9569Z" fill="#2DC38D"/>
<path d="M17.9737 38.6988L17.3848 39.6164C17.2851 39.7709 17.21 39.8187 17.0935 39.8187C17.0184 39.8187 16.9416 39.7924 16.9019 39.7461L16.9601 39.6658C16.9954 39.7028 17.0414 39.7245 17.1027 39.7245C17.1718 39.7245 17.2254 39.692 17.2883 39.5932L17.3451 39.5067L17.1441 38.6987H17.2545L17.4216 39.3907L17.8617 38.6987H17.9737V38.6988Z" fill="#2DC38D"/>
<path d="M20.4034 5.31219H7.49735H4.04199L6.70727 7.24924V11.0602C6.70727 11.4997 7.06098 11.856 7.49735 11.856H20.4034C20.8398 11.856 21.1936 11.4998 21.1936 11.0602V6.10803C21.1936 5.66843 20.8399 5.31219 20.4034 5.31219Z" fill="white"/>
<path d="M19.7211 8.00541C19.7211 8.02131 17.2535 8.0342 14.2102 8.0342C11.1658 8.0342 8.69873 8.02131 8.69873 8.00541C8.69873 7.98951 11.1658 7.97662 14.2102 7.97662C17.2534 7.97662 19.7211 7.98951 19.7211 8.00541Z" fill="#2DC38D"/>
<path d="M19.7211 9.46858C19.7211 9.48448 17.2535 9.49737 14.2102 9.49737C11.1658 9.49737 8.69873 9.48448 8.69873 9.46858C8.69873 9.45268 11.1658 9.43979 14.2102 9.43979C17.2534 9.43979 19.7211 9.45268 19.7211 9.46858Z" fill="#2DC38D"/>
<path d="M77.1484 48.2369C77.1484 48.2524 60.4196 48.2648 39.7884 48.2648C19.15 48.2648 2.4248 48.2522 2.4248 48.2369C2.4248 48.2215 19.15 48.209 39.7884 48.209C60.4197 48.2088 77.1484 48.2214 77.1484 48.2369Z" fill="#263238"/>
<path d="M70.128 42.7537C70.128 42.7537 67.3005 39.4762 66.2337 36.1987C65.1667 32.9212 65.6735 33.2973 65.6735 33.2973C65.6735 33.2973 67.114 36.4812 68.2076 38.019C69.3013 39.5569 71.2485 41.8135 71.2485 41.8135L70.128 42.7537Z" fill="#455A64"/>
<path d="M70.6916 33.8079C70.6004 33.648 70.3576 33.731 70.3849 33.9134C70.5573 35.0646 70.9299 37.7664 70.9153 39.5185C70.8963 41.7948 70.916 42.6747 70.916 42.6747H72.0929C72.0929 42.6747 71.8839 37.9691 71.6181 36.5345C71.4316 35.5286 71.0358 34.4118 70.6916 33.8079Z" fill="#455A64"/>
<path d="M71.333 42.2922C71.333 42.2922 72.0737 40.7237 72.3017 38.7535C72.3986 37.9156 72.2257 36.7833 71.9685 35.2722C71.8439 34.5403 71.8158 33.9833 71.8197 33.5971C71.8227 33.3052 72.2052 33.2099 72.3469 33.4645C72.489 33.7197 72.8999 34.5917 73.0044 35.1383C73.2893 36.6304 73.6122 37.3764 73.3652 38.7919C73.1183 40.2074 72.2067 42.3881 72.2067 42.3881L71.333 42.2922Z" fill="#455A64"/>
<path d="M72.3931 42.3878C72.3931 42.3878 75.4975 35.6686 75.7126 34.6719C75.9278 33.675 76.6594 31.378 76.7454 31.508C76.8315 31.638 76.9605 32.8516 76.4012 34.2384C75.8417 35.6253 73.4531 42.5925 73.4531 42.5925H72.3931" fill="#455A64"/>
<path d="M70.9933 42.0871C70.9919 42.089 70.962 42.0682 70.9062 42.027C70.8511 41.9849 70.7675 41.9258 70.6657 41.8421C70.4591 41.6786 70.1691 41.4299 69.8314 41.1003C69.1537 40.4449 68.3103 39.4343 67.5791 38.189C66.8463 36.9439 66.3536 35.7262 66.0417 34.835C65.8855 34.3887 65.7716 34.0234 65.6977 33.7696C65.6597 33.643 65.6336 33.5437 65.6153 33.4765C65.5973 33.4093 65.589 33.3737 65.5911 33.373C65.5934 33.3723 65.606 33.4067 65.6281 33.4727C65.6515 33.5445 65.6829 33.6409 65.7222 33.7619C65.8036 34.013 65.9242 34.3756 66.0857 34.819C66.4082 35.7045 66.9062 36.9151 67.636 38.1549C68.3641 39.3951 69.1972 40.405 69.864 41.0668C70.1963 41.3994 70.4806 41.6528 70.6818 41.8221C70.7808 41.9088 70.8618 41.971 70.9141 42.0166C70.9675 42.061 70.9947 42.0853 70.9933 42.0871Z" fill="#263238"/>
<path d="M71.333 38.8637C71.3284 38.864 71.3187 38.7938 71.3051 38.6666C71.2903 38.5275 71.2711 38.3462 71.248 38.1279C71.1988 37.6734 71.1221 37.0465 71.0124 36.3578C70.9022 35.6691 70.7799 35.0495 70.6852 34.6022C70.6393 34.3877 70.6011 34.2095 70.5719 34.0727C70.5452 33.9477 70.5325 33.8779 70.537 33.8768C70.5415 33.8756 70.5626 33.9433 70.597 34.0665C70.6317 34.1897 70.6777 34.3691 70.7309 34.5918C70.8376 35.0371 70.9674 35.6568 71.0779 36.3472C71.1879 37.0375 71.2573 37.667 71.2947 38.1233C71.3134 38.3516 71.3256 38.5365 71.3309 38.6646C71.3365 38.7926 71.3374 38.8634 71.333 38.8637Z" fill="#263238"/>
<path d="M72.0602 33.4116C72.0623 33.4108 72.0749 33.4402 72.0969 33.497C72.1205 33.5603 72.1514 33.6433 72.1899 33.7466C72.231 33.8549 72.2782 33.9884 72.3231 34.1467C72.3693 34.3045 72.4292 34.4823 72.4741 34.6847C72.4986 34.7855 72.5243 34.8909 72.551 35.0006C72.5771 35.1106 72.5956 35.227 72.6194 35.3464C72.67 35.585 72.7014 35.8437 72.739 36.1152C72.7997 36.6599 72.8329 37.2631 72.8132 37.8958C72.7879 38.5287 72.7119 39.128 72.6126 39.667C72.5558 39.9351 72.5061 40.1909 72.4386 40.4252C72.4063 40.5426 72.3797 40.6574 72.3458 40.7652C72.3113 40.8728 72.2782 40.976 72.2466 41.0748C72.1874 41.2735 72.115 41.4465 72.0578 41.6006C72.0018 41.7552 71.9451 41.885 71.8965 41.99C71.8506 42.0904 71.8139 42.1709 71.786 42.2323C71.7601 42.2873 71.7454 42.3157 71.7434 42.3148C71.7414 42.3138 71.7518 42.2835 71.7738 42.2267C71.7989 42.1642 71.8317 42.0822 71.8728 41.9798C71.9177 41.8736 71.9706 41.7427 72.0232 41.5873C72.077 41.4325 72.146 41.259 72.2021 41.0602C72.2323 40.9615 72.2638 40.8582 72.2967 40.7507C72.3291 40.643 72.3544 40.5285 72.3853 40.4113C72.4503 40.1775 72.4977 39.9226 72.5526 39.6555C72.6481 39.1187 72.7217 38.5227 72.7469 37.8933C72.7665 37.2641 72.7354 36.6645 72.6783 36.1222C72.6425 35.8519 72.6134 35.5943 72.5653 35.3564C72.5428 35.2373 72.5257 35.1213 72.501 35.0115C72.4758 34.9019 72.4517 34.7966 72.4285 34.6958C72.3867 34.4936 72.3303 34.3155 72.2876 34.1573C72.2462 33.9985 72.2027 33.8642 72.1655 33.755C72.1319 33.65 72.1049 33.5658 72.0843 33.5017C72.0664 33.4434 72.0581 33.4125 72.0602 33.4116Z" fill="#263238"/>
<path d="M76.7101 31.643C76.7112 31.6433 76.7104 31.6535 76.7077 31.6732C76.7039 31.6969 76.6995 31.7255 76.6939 31.7606C76.6803 31.8371 76.6631 31.9505 76.6327 32.095C76.5727 32.3841 76.4729 32.8 76.3176 33.3046C76.163 33.8094 75.9509 34.4013 75.6995 35.0514C75.449 35.7019 75.1579 36.4106 74.8823 37.1651C74.6024 37.9183 74.3868 38.6534 74.1843 39.3205C73.9835 39.9882 73.7931 40.5873 73.609 41.0821C73.4268 41.5775 73.2514 41.9677 73.1189 42.2312C73.0553 42.3643 72.9981 42.4636 72.9612 42.5319C72.9438 42.5627 72.9295 42.588 72.9178 42.6087C72.9077 42.6258 72.902 42.6343 72.9011 42.6337C72.9 42.6332 72.9037 42.6235 72.9119 42.6054C72.9221 42.5838 72.9344 42.5576 72.9495 42.5256C72.9824 42.4554 73.0359 42.3544 73.0957 42.2198C73.2207 41.9535 73.389 41.5619 73.5651 41.0658C73.743 40.5704 73.9284 39.9712 74.1258 39.3027C74.3251 38.635 74.5395 37.8973 74.8201 37.142C75.0964 36.3857 75.3893 35.6776 75.6426 35.029C75.897 34.3807 76.113 33.792 76.2729 33.2903C76.4335 32.789 76.54 32.376 76.6075 32.0893C76.6416 31.946 76.6629 31.8335 76.6808 31.758C76.6889 31.7235 76.6955 31.6952 76.701 31.6719C76.706 31.6526 76.709 31.6428 76.7101 31.643Z" fill="#263238"/>
<path d="M67.1373 30.1588C66.9416 29.9631 66.6163 30.1677 66.6973 30.4333C66.7794 30.7025 66.9038 31.0507 67.0873 31.4435C67.5141 32.3569 68.7679 35.6344 69.3546 37.4344C69.9415 39.2344 70.7684 42.5925 70.7684 42.5925L72.0215 42.3877C72.0215 42.3877 70.8751 36.8702 69.7548 34.8822C68.8546 33.285 67.9544 30.9765 67.1373 30.1588Z" fill="#455A64"/>
<path d="M69.6975 38.5603C69.7019 38.5588 69.7246 38.6126 69.7621 38.7115C69.7992 38.8106 69.8496 38.9551 69.9066 39.1352C70.022 39.4952 70.1632 39.9981 70.3055 40.5568C70.4474 41.1158 70.5657 41.6241 70.6482 41.9927C70.6857 42.1671 70.7173 42.3136 70.7424 42.4301C70.7634 42.5336 70.7728 42.5914 70.7684 42.5926C70.7639 42.5937 70.746 42.538 70.7174 42.4363C70.6869 42.3211 70.6484 42.1763 70.6026 42.0039C70.5067 41.6242 70.3807 41.1253 70.2413 40.5735C70.0992 40.0155 69.9654 39.5117 69.8617 39.1491C69.8122 38.978 69.7707 38.8342 69.7376 38.7199C69.7078 38.6186 69.6932 38.5618 69.6975 38.5603Z" fill="#263238"/>
<path d="M71.3976 42.4901C71.3964 42.4902 71.3941 42.4788 71.3906 42.4565C71.3868 42.4303 71.3822 42.3976 71.3764 42.3571C71.3633 42.2699 71.3515 42.1403 71.3251 41.9749C71.2791 41.6434 71.197 41.1655 71.0624 40.5827C70.9286 39.9997 70.7335 39.3139 70.4758 38.5664C70.2187 37.8186 69.8963 37.0107 69.5311 36.1746C68.7938 34.5043 68.0574 33.0227 67.5734 31.9273C67.3288 31.3808 67.1394 30.9347 67.0147 30.6239C66.9511 30.469 66.9056 30.3471 66.8738 30.2648C66.8596 30.2265 66.8482 30.1955 66.839 30.1707C66.8315 30.1494 66.8282 30.1383 66.8293 30.1379C66.8304 30.1374 66.8358 30.1477 66.8453 30.1683C66.8561 30.1924 66.8695 30.2225 66.8862 30.2598C66.9231 30.3454 66.9739 30.4638 67.0385 30.6138C67.1704 30.9212 67.3662 31.3642 67.6161 31.9077C68.1106 32.9974 68.8534 34.475 69.5918 36.1478C69.9576 36.9852 70.2791 37.7957 70.5336 38.5465C70.7888 39.2971 70.9798 39.9863 71.1081 40.5723C71.2373 41.1581 71.3125 41.6384 71.3507 41.9715C71.3732 42.1377 71.3809 42.2679 71.3897 42.3557C71.3928 42.3964 71.3954 42.4294 71.3974 42.4558C71.3987 42.4784 71.3988 42.49 71.3976 42.4901Z" fill="#263238"/>
<path d="M72.0214 42.3878C72.0168 42.3885 72.0019 42.3128 71.9791 42.1757C71.9543 42.0275 71.9213 41.832 71.8816 41.5955C71.7952 41.1065 71.6634 40.433 71.4738 39.6999C71.2862 38.9661 71.0747 38.3134 70.912 37.8445C70.8321 37.6186 70.7661 37.4318 70.7161 37.2902C70.6691 37.1595 70.6451 37.0863 70.6494 37.0846C70.6537 37.0829 70.6857 37.1527 70.7401 37.2807C70.7941 37.4087 70.8696 37.5953 70.9561 37.8284C71.1304 38.294 71.3497 38.9468 71.5379 39.6831C71.7281 40.4185 71.853 41.0959 71.9278 41.5877C71.9634 41.834 71.9908 42.0335 72.0047 42.172C72.0198 42.3105 72.0258 42.3872 72.0214 42.3878Z" fill="#263238"/>
<path d="M74.5936 42.2065H69.7021V48.2087H74.5936V42.2065Z" fill="#0494FD"/>
<g opacity="0.3">
<path d="M74.5936 42.2065H69.7021V48.2087H74.5936V42.2065Z" fill="black"/>
</g>
<path d="M73.033 42.2065H68.6934V48.2087H73.033V42.2065Z" fill="#0494FD"/>
<path d="M9.44293 40.1197C8.60976 39.5822 7.45488 39.572 6.644 40.1429C5.87418 40.6849 5.48325 41.6714 5.51717 42.6167C5.55109 43.5621 6.00613 44.7174 6.85658 45.2139L9.3529 45.2042C10.15 44.6138 10.689 43.6628 10.7266 42.667C10.7642 41.6714 10.2761 40.6571 9.44293 40.1197Z" fill="#455A64"/>
<path d="M8.21364 45.3054C8.20809 45.3054 8.20286 45.2283 8.19796 45.089C8.19358 44.9344 8.18804 44.7364 8.18132 44.4993C8.16873 44.0015 8.14921 43.314 8.11625 42.5551C8.08297 41.796 8.04244 41.1093 8.01161 40.6122C7.99753 40.3755 7.9859 40.1778 7.97673 40.0234C7.96948 39.8843 7.96809 39.8071 7.97353 39.8066C7.97897 39.8061 7.99092 39.8824 8.00766 40.0209C8.02462 40.1592 8.04532 40.3598 8.06782 40.6081C8.11305 41.1045 8.16254 41.7915 8.19593 42.5517C8.229 43.3116 8.23956 44.0003 8.23774 44.4988C8.23689 44.748 8.2338 44.9498 8.229 45.0891C8.2243 45.2283 8.21918 45.3054 8.21364 45.3054Z" fill="#263238"/>
<path d="M5.76881 42.4028C5.767 42.4249 5.63132 42.4317 5.46588 42.418C5.30033 42.4044 5.16764 42.3754 5.16945 42.3533C5.17127 42.3312 5.30684 42.3244 5.47238 42.338C5.63782 42.3517 5.77063 42.3807 5.76881 42.4028Z" fill="#263238"/>
<path d="M5.81511 41.5545C5.80615 41.5748 5.68914 41.5421 5.55378 41.4816C5.41842 41.4212 5.3158 41.3557 5.32476 41.3354C5.33362 41.3151 5.45063 41.3478 5.5861 41.4083C5.72156 41.4688 5.82407 41.5342 5.81511 41.5545Z" fill="#263238"/>
<path d="M6.24882 40.9248C6.23741 40.9433 6.10589 40.8809 5.96925 40.7665C5.83218 40.6527 5.74674 40.5342 5.76264 40.5195C5.77896 40.504 5.88744 40.5946 6.02013 40.7048C6.15229 40.8153 6.26088 40.9057 6.24882 40.9248Z" fill="#263238"/>
<path d="M6.68459 40.3308C6.66443 40.3397 6.60139 40.2405 6.54379 40.1093C6.48619 39.9779 6.45579 39.8642 6.47595 39.8552C6.49611 39.8463 6.55905 39.9454 6.61675 40.0768C6.67435 40.208 6.70475 40.3218 6.68459 40.3308Z" fill="#263238"/>
<path d="M7.36852 39.9092C7.3489 39.9185 7.28106 39.8129 7.23604 39.6665C7.1906 39.5201 7.18708 39.3944 7.20842 39.3909C7.2305 39.387 7.26836 39.502 7.3122 39.6427C7.3553 39.7834 7.3889 39.8998 7.36852 39.9092Z" fill="#263238"/>
<path d="M8.50936 39.4341C8.53016 39.4415 8.51747 39.5316 8.4811 39.6355C8.44472 39.7394 8.39843 39.8176 8.37763 39.8102C8.35694 39.8028 8.36952 39.7126 8.406 39.6088C8.44227 39.5049 8.48856 39.4267 8.50936 39.4341Z" fill="#263238"/>
<path d="M9.35575 39.7999C9.37068 39.8161 9.31639 39.8912 9.23447 39.9676C9.15255 40.044 9.07404 40.0926 9.05911 40.0763C9.04418 40.0601 9.09847 39.985 9.18039 39.9086C9.26221 39.8323 9.34071 39.7835 9.35575 39.7999Z" fill="#263238"/>
<path d="M10.1006 40.2844C10.113 40.3028 10.0468 40.3697 9.95281 40.4337C9.85884 40.4978 9.77254 40.535 9.76028 40.5166C9.7479 40.4983 9.81414 40.4315 9.90812 40.3672C10.0021 40.3032 10.0884 40.266 10.1006 40.2844Z" fill="#263238"/>
<path d="M10.6297 41.007C10.6384 41.0274 10.534 41.0918 10.3967 41.1508C10.2593 41.2098 10.141 41.241 10.1323 41.2207C10.1237 41.2003 10.228 41.136 10.3654 41.077C10.5028 41.0179 10.6211 40.9866 10.6297 41.007Z" fill="#263238"/>
<path d="M10.8385 41.795C10.8412 41.817 10.735 41.8484 10.6015 41.8651C10.4678 41.8817 10.3573 41.8774 10.3545 41.8554C10.3519 41.8334 10.458 41.8021 10.5917 41.7853C10.7252 41.7687 10.8357 41.773 10.8385 41.795Z" fill="#263238"/>
<path d="M10.9466 42.765C10.9378 42.7853 10.8247 42.7554 10.694 42.6982C10.5632 42.6409 10.4644 42.5781 10.4732 42.5577C10.482 42.5374 10.595 42.5672 10.7258 42.6245C10.8566 42.6819 10.9554 42.7447 10.9466 42.765Z" fill="#263238"/>
<path d="M10.8513 43.5975C10.8443 43.6177 10.7013 43.5834 10.5518 43.4846C10.4019 43.3864 10.3133 43.2682 10.3289 43.2537C10.3451 43.2376 10.4537 43.3248 10.5954 43.4174C10.7364 43.5109 10.8594 43.5761 10.8513 43.5975Z" fill="#263238"/>
<path d="M10.4211 44.3553C10.408 44.3725 10.2941 44.3051 10.1849 44.1863C10.0753 44.0678 10.017 43.9485 10.0349 43.9365C10.0535 43.9238 10.1383 44.0183 10.2433 44.1316C10.3477 44.2455 10.4349 44.3375 10.4211 44.3553Z" fill="#263238"/>
<path d="M6.33505 44.4442C6.34518 44.4639 6.22571 44.5468 6.06806 44.6294C5.9104 44.7121 5.77441 44.7632 5.76427 44.7435C5.75414 44.7239 5.87361 44.6409 6.03126 44.5583C6.18881 44.4756 6.32481 44.4246 6.33505 44.4442Z" fill="#263238"/>
<path d="M5.96171 43.7588C5.97078 43.779 5.87489 43.8425 5.74763 43.9006C5.62027 43.9588 5.50977 43.9896 5.50059 43.9694C5.49153 43.9492 5.58731 43.8857 5.71467 43.8276C5.84203 43.7694 5.95254 43.7386 5.96171 43.7588Z" fill="#263238"/>
<path d="M5.68712 43.1518C5.69021 43.1737 5.57224 43.2087 5.42365 43.23C5.27496 43.2512 5.15197 43.2506 5.14899 43.2287C5.14589 43.2068 5.26387 43.1717 5.41245 43.1505C5.56104 43.1293 5.68403 43.1298 5.68712 43.1518Z" fill="#263238"/>
<path d="M6.58726 42.8171C6.59376 42.8377 6.47867 42.8919 6.32518 42.9091C6.17168 42.9268 6.04752 42.8999 6.04934 42.8784C6.05083 42.8557 6.17094 42.8462 6.31622 42.8293C6.4616 42.8131 6.58086 42.7954 6.58726 42.8171Z" fill="#263238"/>
<path d="M7.3345 42.0679C7.341 42.0886 7.24938 42.1353 7.12586 42.1473C7.00234 42.1598 6.90346 42.1319 6.9058 42.1103C6.90794 42.0879 7.00319 42.0791 7.11796 42.0674C7.23284 42.0564 7.3281 42.0463 7.3345 42.0679Z" fill="#263238"/>
<path d="M7.47733 41.4678C7.47018 41.4887 7.37099 41.4733 7.25589 41.4332C7.1408 41.3931 7.05323 41.3436 7.06048 41.3227C7.06763 41.3017 7.16682 41.3172 7.28192 41.3573C7.39701 41.3973 7.48458 41.4469 7.47733 41.4678Z" fill="#263238"/>
<path d="M7.75162 40.8608C7.73636 40.8762 7.6682 40.831 7.61967 40.7459C7.57082 40.6609 7.56602 40.5789 7.58692 40.5732C7.60847 40.567 7.64516 40.6304 7.68868 40.7057C7.73156 40.7814 7.76772 40.8452 7.75162 40.8608Z" fill="#263238"/>
<path d="M7.42137 43.3457C7.4266 43.3673 7.34073 43.4068 7.22959 43.4342C7.16537 43.45 7.10681 43.4583 7.06841 43.4581L7.05273 43.4112C7.08153 43.406 7.10009 43.4072 7.10383 43.4157C7.10756 43.4243 7.09583 43.4388 7.07257 43.4567L7.05689 43.4098C7.09092 43.3919 7.1466 43.372 7.21081 43.3562C7.32185 43.3289 7.41615 43.3242 7.42137 43.3457Z" fill="#263238"/>
<path d="M7.57524 44.4096C7.58324 44.4303 7.4738 44.4929 7.33076 44.5495C7.18761 44.6061 7.06516 44.6354 7.05705 44.6147C7.04905 44.5941 7.15849 44.5315 7.30153 44.4749C7.44468 44.4182 7.56724 44.3891 7.57524 44.4096Z" fill="#263238"/>
<path d="M6.73078 43.937C6.73793 43.958 6.66486 44.002 6.56769 44.0353C6.47051 44.0686 6.38603 44.0786 6.37889 44.0576C6.37185 44.0366 6.44481 43.9926 6.54198 43.9593C6.63915 43.9261 6.72363 43.9161 6.73078 43.937Z" fill="#263238"/>
<path d="M6.79546 41.7712C6.79045 41.7925 6.6633 41.7798 6.51642 41.7272C6.36943 41.675 6.26277 41.6042 6.27205 41.5845C6.28154 41.5642 6.40026 41.6008 6.54298 41.6515C6.68559 41.7027 6.80079 41.7494 6.79546 41.7712Z" fill="#263238"/>
<path d="M8.83909 41.5358C8.85125 41.5543 8.77957 41.6234 8.6792 41.6901C8.57872 41.7568 8.48752 41.7958 8.47547 41.7773C8.46331 41.7588 8.53488 41.6898 8.63536 41.623C8.73573 41.5563 8.82693 41.5172 8.83909 41.5358Z" fill="#263238"/>
<path d="M8.95006 42.6042C8.95454 42.6259 8.87934 42.6599 8.78206 42.6803C8.68478 42.7007 8.60233 42.6996 8.59785 42.6779C8.59337 42.6562 8.66857 42.6221 8.76585 42.6018C8.86313 42.5814 8.94558 42.5826 8.95006 42.6042Z" fill="#263238"/>
<path d="M9.0794 43.8057C9.07012 43.8258 8.96185 43.795 8.83748 43.7371C8.71311 43.6791 8.61977 43.6159 8.62905 43.5957C8.63833 43.5756 8.7466 43.6063 8.87097 43.6643C8.99535 43.7223 9.08868 43.7856 9.0794 43.8057Z" fill="#263238"/>
<path d="M8.80614 44.9755C8.78908 44.9895 8.71878 44.9316 8.64902 44.8461C8.57926 44.7606 8.53649 44.6798 8.55356 44.6657C8.57052 44.6517 8.64092 44.7096 8.71068 44.7951C8.78033 44.8806 8.8231 44.9614 8.80614 44.9755Z" fill="#263238"/>
<path d="M8.7499 40.749C8.76334 40.7662 8.71694 40.8251 8.63726 40.8652C8.55769 40.9056 8.48302 40.9079 8.47747 40.8868C8.4715 40.8652 8.52974 40.8301 8.60153 40.7936C8.67353 40.7573 8.73625 40.7312 8.7499 40.749Z" fill="#263238"/>
<path d="M9.75148 41.8267C9.75873 41.8471 9.66614 41.8985 9.53932 41.916C9.4126 41.9341 9.30956 41.91 9.31105 41.8884C9.31222 41.8658 9.41025 41.8534 9.52833 41.8365C9.64652 41.8203 9.74422 41.8054 9.75148 41.8267Z" fill="#263238"/>
<path d="M9.55184 40.8593C9.56165 40.8788 9.4696 40.9449 9.33882 40.9868C9.20805 41.0291 9.09509 41.029 9.09189 41.0075C9.08826 40.9853 9.19034 40.9507 9.31461 40.9103C9.43888 40.8705 9.54192 40.839 9.55184 40.8593Z" fill="#263238"/>
<path d="M9.97016 43.325C9.96984 43.3466 9.81251 43.3607 9.62275 43.3257C9.43277 43.2913 9.29038 43.2225 9.29763 43.2022C9.30488 43.1808 9.45368 43.2136 9.63694 43.2467C9.81998 43.2806 9.97091 43.3024 9.97016 43.325Z" fill="#263238"/>
<path d="M9.59782 44.7304C9.5846 44.7476 9.46876 44.679 9.35313 44.5618C9.23718 44.4448 9.16956 44.3279 9.18673 44.3146C9.20444 44.3007 9.29756 44.3921 9.40966 44.5051C9.52134 44.6185 9.61169 44.7127 9.59782 44.7304Z" fill="#263238"/>
<path d="M7.96177 39.7157C7.97361 39.7329 7.64401 39.8675 7.26311 40.2717C6.88241 40.6671 6.48967 41.3654 6.39292 42.2089C6.34663 42.6282 6.38631 43.0338 6.4454 43.3959C6.50759 43.7583 6.59004 44.0802 6.66609 44.3484C6.74257 44.6166 6.81276 44.8314 6.85991 44.9803C6.90716 45.1292 6.93244 45.212 6.927 45.2141C6.92209 45.2159 6.887 45.1367 6.83068 44.9907C6.77447 44.8448 6.69585 44.6323 6.61212 44.3648C6.52871 44.0973 6.43985 43.7745 6.37297 43.4085C6.30929 43.0429 6.26609 42.6308 6.31367 42.1995C6.41244 41.3366 6.82353 40.6254 7.22247 40.2323C7.42097 40.0326 7.60753 39.8993 7.74364 39.8221C7.80967 39.78 7.86673 39.7576 7.90311 39.7387C7.94055 39.7212 7.9606 39.7132 7.96177 39.7157Z" fill="#263238"/>
<path d="M9.04847 45.2656C9.03119 45.2569 9.22757 44.9525 9.40666 44.4037C9.59109 43.8618 9.74362 43.0591 9.62074 42.1873C9.56325 41.7526 9.43845 41.3497 9.28143 41.0055C9.11845 40.6659 8.90831 40.3877 8.70277 40.1937C8.49018 40.0044 8.28143 39.8958 8.13583 39.8329C7.98842 39.771 7.90021 39.7565 7.90138 39.7497C7.90181 39.7471 7.92421 39.7484 7.96655 39.7548C8.00847 39.7625 8.07034 39.7766 8.14703 39.8038C8.29925 39.8592 8.51557 39.9614 8.73999 40.1511C8.95855 40.3476 9.17551 40.6251 9.34778 40.9735C9.51205 41.3238 9.64111 41.7333 9.69978 42.1762C9.8249 43.0642 9.6601 43.8793 9.45999 44.4224C9.41498 44.561 9.35706 44.6798 9.31386 44.7868C9.26255 44.8904 9.22021 44.9803 9.18127 45.0515C9.1001 45.1922 9.05327 45.2683 9.04847 45.2656Z" fill="#263238"/>
<path d="M5.96143 45.0758H10.3542L10.3812 45.9613H5.96143V45.0758Z" fill="#0494FD"/>
<path d="M6.33496 45.5185L6.58723 48.2216H9.79864L10.0566 45.5482L6.33496 45.5185Z" fill="#0494FD"/>
<path d="M10.3815 45.972C10.3815 45.9941 9.39222 46.0121 8.17228 46.0121C6.9519 46.0121 5.96289 45.9942 5.96289 45.972C5.96289 45.9497 6.9519 45.9318 8.17228 45.9318C9.39222 45.9318 10.3815 45.9497 10.3815 45.972Z" fill="#263238"/>
<path d="M9.93508 46.7953C9.93935 46.7979 9.9097 46.8601 9.841 46.9642C9.7721 47.0679 9.66244 47.2133 9.50031 47.3694L9.48015 47.3889L9.4602 47.3678C9.24868 47.1444 8.95812 46.8704 8.5993 46.6088L8.64783 46.6067C8.52516 46.7151 8.39738 46.8281 8.26618 46.944C8.11023 47.0808 7.95908 47.2133 7.81498 47.3397L7.79002 47.3616L7.76495 47.3404C7.49146 47.1088 7.2426 46.8981 7.03151 46.7194L7.07418 46.7147C6.92271 46.9009 6.79546 47.0573 6.69476 47.1811C6.60346 47.2902 6.55055 47.349 6.54575 47.3454C6.54106 47.3416 6.585 47.2758 6.66831 47.1604C6.76346 47.0323 6.88367 46.8703 7.02692 46.6776L7.04516 46.653L7.06959 46.673C7.28388 46.8479 7.53636 47.054 7.81402 47.2807L7.7641 47.2814C7.90767 47.1545 8.05818 47.0212 8.21359 46.8838C8.34522 46.7684 8.47343 46.6558 8.59642 46.5478L8.61999 46.5271L8.64506 46.5457C9.00666 46.8134 9.29594 47.0964 9.5018 47.3291L9.4617 47.3275C9.78756 47.0295 9.9225 46.7857 9.93508 46.7953Z" fill="#263238"/>
<path d="M62.7151 47.4797H16.2169C15.3588 47.4797 14.6631 46.7791 14.6631 45.9148V16.0065C14.6631 15.1422 15.3588 14.4416 16.2169 14.4416H62.7151C63.5733 14.4416 64.269 15.1422 64.269 16.0065V45.9148C64.269 46.7791 63.5733 47.4797 62.7151 47.4797Z" fill="#455A64"/>
<path d="M64.8849 48.2369H14.9375C13.8891 48.2369 13.0391 47.3809 13.0391 46.3249V45.346H66.7833V46.3249C66.7834 47.3808 65.9335 48.2369 64.8849 48.2369Z" fill="#455A64"/>
<path d="M34.5757 45.0362L35.2427 46.1046H44.6271L45.2463 45.0362H34.5757Z" fill="#263238"/>
<path d="M63.8427 45.0362C63.8427 45.0541 52.8326 45.0685 39.2541 45.0685C25.6709 45.0685 14.6631 45.054 14.6631 45.0362C14.6631 45.0183 25.6709 45.0038 39.2541 45.0038C52.8326 45.0038 63.8427 45.0183 63.8427 45.0362Z" fill="#263238"/>
<path d="M62.3051 44.1626H16.4326C16.2398 44.1626 16.0835 44.0053 16.0835 43.811V16.693C16.0835 16.4987 16.2398 16.3413 16.4326 16.3413H62.3051C62.4979 16.3413 62.6543 16.4987 62.6543 16.6928V43.8111C62.6543 44.0053 62.4979 44.1626 62.3051 44.1626Z" fill="#67D5B5"/>
<path d="M62.6044 44.2034H16.0337L16.0835 18.4205H62.6044V44.2034Z" fill="white"/>
<path d="M19.903 17.4157C19.903 17.6226 19.7365 17.7903 19.531 17.7903C19.3256 17.7903 19.1592 17.6226 19.1592 17.4157C19.1592 17.2088 19.3257 17.0412 19.531 17.0412C19.7364 17.0412 19.903 17.2088 19.903 17.4157Z" fill="#263238"/>
<path d="M17.6487 17.4157C17.6487 17.6226 17.4822 17.7903 17.2767 17.7903C17.0714 17.7903 16.9048 17.6226 16.9048 17.4157C16.9048 17.2088 17.0714 17.0412 17.2767 17.0412C17.4822 17.0412 17.6487 17.2088 17.6487 17.4157Z" fill="#263238"/>
<path d="M18.7307 17.4157C18.7307 17.6226 18.5642 17.7903 18.3588 17.7903C18.1533 17.7903 17.9868 17.6226 17.9868 17.4157C17.9868 17.2088 18.1533 17.0412 18.3588 17.0412C18.5642 17.0412 18.7307 17.2088 18.7307 17.4157Z" fill="#263238"/>
<path d="M62.6543 41.7137H16.0337V44.2035H62.6543V41.7137Z" fill="#263238"/>
<path d="M17.7949 43.2467V43.3264H17.4237V43.2634L17.6238 43.0721C17.6727 43.025 17.6813 42.9952 17.6813 42.9671C17.6813 42.9207 17.6496 42.8938 17.5878 42.8938C17.5389 42.8938 17.4978 42.9105 17.4698 42.9467L17.4043 42.896C17.4431 42.8431 17.513 42.8119 17.5957 42.8119C17.705 42.8119 17.7755 42.8676 17.7755 42.9575C17.7755 43.0067 17.7618 43.0517 17.692 43.1177L17.5575 43.2467H17.7949Z" fill="white"/>
<path d="M17.8457 42.9952C17.8457 42.959 17.8723 42.9351 17.9047 42.9351C17.937 42.9351 17.9637 42.959 17.9637 42.9952C17.9637 43.0299 17.937 43.0553 17.9047 43.0553C17.8723 43.0553 17.8457 43.0299 17.8457 42.9952ZM17.8457 43.2713C17.8457 43.235 17.8723 43.2113 17.9047 43.2113C17.937 43.2113 17.9637 43.235 17.9637 43.2713C17.9637 43.306 17.937 43.3314 17.9047 43.3314C17.8723 43.3315 17.8457 43.3061 17.8457 43.2713Z" fill="white"/>
<path d="M18.1976 42.8192V43.3264H18.1041V42.8982H17.9976V42.8192H18.1976Z" fill="white"/>
<path d="M18.7467 43.2113H18.6575V43.3264H18.5668V43.2113H18.2905V43.1459L18.5387 42.8192H18.6388L18.4049 43.1316H18.5697V43.0293H18.6575V43.1316H18.7467V43.2113Z" fill="white"/>
<path d="M57.7814 43.0085H19.5693V43.1839H57.7814V43.0085Z" fill="white"/>
<path d="M31.4819 42.8195H19.5405V43.2875H31.4819V42.8195Z" fill="#0494FD"/>
<path d="M31.8675 43.0962C31.8675 43.4196 31.6072 43.6817 31.286 43.6817C30.965 43.6817 30.7046 43.4196 30.7046 43.0962C30.7046 42.7729 30.9649 42.5107 31.286 42.5107C31.6072 42.5108 31.8675 42.7729 31.8675 43.0962Z" fill="#0494FD"/>
<path d="M58.744 43.0905C58.744 43.1914 58.6628 43.2551 58.5598 43.2551C58.4224 43.2551 58.3418 43.1661 58.3418 43.0029C58.3418 42.8289 58.4425 42.7333 58.5886 42.7333C58.639 42.7333 58.6872 42.7442 58.721 42.7659L58.6865 42.8369C58.6592 42.8187 58.6261 42.8123 58.5909 42.8123C58.4959 42.8123 58.4362 42.8718 58.4362 42.987V42.9877C58.4665 42.9522 58.5147 42.9349 58.5707 42.9349C58.67 42.9349 58.744 42.9956 58.744 43.0905ZM58.6534 43.0949C58.6534 43.0421 58.6138 43.0088 58.5527 43.0088C58.4922 43.0088 58.4505 43.0456 58.4505 43.0957C58.4505 43.1435 58.4879 43.1811 58.5548 43.1811C58.6132 43.1811 58.6534 43.1478 58.6534 43.0949Z" fill="white"/>
<path d="M58.7896 42.9167C58.7896 42.8805 58.8161 42.8565 58.8485 42.8565C58.8809 42.8565 58.9075 42.8805 58.9075 42.9167C58.9075 42.9514 58.8809 42.9768 58.8485 42.9768C58.816 42.9768 58.7896 42.9514 58.7896 42.9167ZM58.7896 43.1928C58.7896 43.1565 58.8161 43.1327 58.8485 43.1327C58.8809 43.1327 58.9075 43.1565 58.9075 43.1928C58.9075 43.2275 58.8809 43.2529 58.8485 43.2529C58.816 43.2528 58.7896 43.2275 58.7896 43.1928Z" fill="white"/>
<path d="M58.9678 42.9943C58.9678 42.8276 59.0583 42.7333 59.1778 42.7333C59.298 42.7333 59.3887 42.8276 59.3887 42.9943C59.3887 43.1608 59.298 43.2552 59.1778 43.2552C59.0584 43.2551 58.9678 43.1608 58.9678 42.9943ZM59.2945 42.9943C59.2945 42.8718 59.2471 42.8153 59.1779 42.8153C59.1096 42.8153 59.0621 42.8718 59.0621 42.9943C59.0621 43.1168 59.1096 43.1731 59.1779 43.1731C59.247 43.1731 59.2945 43.1168 59.2945 42.9943Z" fill="white"/>
<path d="M59.4512 42.9943C59.4512 42.8276 59.5417 42.7333 59.6612 42.7333C59.7814 42.7333 59.8721 42.8276 59.8721 42.9943C59.8721 43.1608 59.7815 43.2552 59.6612 43.2552C59.5418 43.2551 59.4512 43.1608 59.4512 42.9943ZM59.7779 42.9943C59.7779 42.8718 59.7304 42.8153 59.6613 42.8153C59.593 42.8153 59.5455 42.8718 59.5455 42.9943C59.5455 43.1168 59.5929 43.1731 59.6613 43.1731C59.7304 43.1731 59.7779 43.1168 59.7779 42.9943Z" fill="white"/>
<path d="M60.686 42.9627H60.5117V42.4569H61.0131V42.6324H60.686V42.9627Z" fill="white"/>
<path d="M61.013 43.6228H60.5107V43.118H60.6849V43.4474H61.013V43.6228Z" fill="white"/>
<path d="M61.8133 43.6229H61.312V43.4474H61.6391V43.117H61.8133V43.6229Z" fill="white"/>
<path d="M61.8138 42.9617H61.6395V42.6324H61.3115V42.4569H61.8138V42.9617Z" fill="white"/>
<path d="M22.4202 19.9535H19.6752L18.3027 22.3478L19.6752 24.7419H22.4202L23.7927 22.3478L22.4202 19.9535Z" fill="#67D5B5"/>
<path d="M19.899 22.8164C19.7764 22.6796 19.6526 22.5414 19.5633 22.3805C19.4739 22.2197 19.4205 22.0321 19.4501 21.8503C19.4674 21.7439 19.5123 21.6426 19.5194 21.5351C19.5292 21.3871 19.4675 21.2326 19.5195 21.0939C19.6009 20.8771 19.8906 20.8437 20.0663 20.6939C20.203 20.5774 20.2697 20.388 20.4202 20.2899C20.5516 20.2041 20.7206 20.2061 20.8756 20.2281C21.0307 20.2502 21.1866 20.2896 21.3418 20.2686C21.4524 20.2536 21.5566 20.2086 21.665 20.1816C21.7734 20.1546 21.8942 20.1474 21.9908 20.2039C22.0873 20.2604 22.1415 20.3984 22.0781 20.491C22.258 20.4075 22.4863 20.5487 22.5356 20.7418C22.5848 20.935 22.4863 21.1437 22.3339 21.2711C22.1816 21.3985 21.9845 21.4578 21.7899 21.4947C21.239 21.5992 20.6414 21.5402 20.1667 21.24" fill="#263238"/>
<path d="M22.4441 23.4073C22.4255 23.0646 22.3304 22.3621 22.2369 21.7272C22.1363 21.0444 21.5321 20.5537 20.8483 20.5998L20.7803 20.6044C20.0506 20.6969 19.7209 21.3727 19.8329 22.1048L20.0471 24.742H21.8279C21.8279 24.742 21.7858 24.2793 21.7855 24.2747C21.7855 24.2747 22.4825 24.1169 22.4441 23.4073Z" fill="#FFBE9D"/>
<path d="M21.7859 24.2644C21.7859 24.2644 21.3434 24.3308 20.8506 24.0635C20.8506 24.0635 21.1015 24.5592 21.7998 24.448L21.7859 24.2644Z" fill="#EB996E"/>
<path d="M22.0104 22.3355C22.0159 22.3889 21.9755 22.4375 21.9203 22.4442C21.8652 22.4509 21.816 22.4133 21.8106 22.3599C21.8051 22.3066 21.8454 22.2578 21.9006 22.2512C21.9558 22.2444 22.0051 22.2822 22.0104 22.3355Z" fill="#263238"/>
<path d="M22.1088 22.0839C22.0972 22.098 22.0173 22.0463 21.9091 22.054C21.8009 22.06 21.7252 22.1214 21.7126 22.1088C21.7064 22.1034 21.7175 22.0787 21.7504 22.0509C21.7828 22.0234 21.8392 21.995 21.9067 21.9907C21.9741 21.9865 22.0325 22.0077 22.0667 22.0311C22.1017 22.0545 22.1146 22.0776 22.1088 22.0839Z" fill="#263238"/>
<path d="M20.988 22.4091C20.9934 22.4625 20.953 22.5111 20.8978 22.5178C20.8427 22.5246 20.7935 22.4869 20.7881 22.4335C20.7826 22.3801 20.8231 22.3314 20.8781 22.3248C20.9334 22.318 20.9825 22.3558 20.988 22.4091Z" fill="#263238"/>
<path d="M21.0463 22.1759C21.0347 22.1899 20.9547 22.1383 20.8466 22.1459C20.7384 22.1519 20.6627 22.2134 20.6501 22.2008C20.6439 22.1953 20.6549 22.1706 20.6879 22.1429C20.7203 22.1153 20.7767 22.0869 20.8441 22.0826C20.9115 22.0784 20.9699 22.0996 21.0042 22.123C21.0392 22.1464 21.0521 22.1696 21.0463 22.1759Z" fill="#263238"/>
<path d="M21.4925 22.9576C21.4916 22.9515 21.5581 22.9352 21.6662 22.9138C21.6936 22.9091 21.7194 22.9018 21.7228 22.8824C21.728 22.8619 21.7144 22.8327 21.6989 22.8012C21.6684 22.7356 21.6367 22.6668 21.6032 22.5948C21.4696 22.3008 21.3711 22.0582 21.3828 22.053C21.3946 22.0477 21.5124 22.2817 21.6459 22.5757C21.6782 22.6482 21.709 22.7174 21.7384 22.7836C21.751 22.8145 21.7714 22.8491 21.76 22.8919C21.7539 22.9132 21.7347 22.9296 21.7172 22.9356C21.6998 22.9423 21.6843 22.9436 21.6707 22.9454C21.5613 22.9587 21.4934 22.9638 21.4925 22.9576Z" fill="#263238"/>
<path d="M21.0458 21.7469C21.0371 21.7772 20.9282 21.7705 20.8022 21.7945C20.6758 21.8159 20.5759 21.8603 20.5573 21.8348C20.549 21.8226 20.565 21.7936 20.6045 21.7621C20.6436 21.7307 20.7073 21.699 20.7829 21.6854C20.8585 21.6718 20.9292 21.6794 20.9766 21.6951C21.0244 21.7108 21.0495 21.7325 21.0458 21.7469Z" fill="#263238"/>
<path d="M22.0475 21.7712C22.0301 21.7972 21.9539 21.7766 21.8642 21.7814C21.7744 21.783 21.6998 21.8092 21.6806 21.7845C21.6721 21.7725 21.6824 21.7469 21.714 21.7212C21.7451 21.6957 21.7985 21.6729 21.8602 21.6706C21.922 21.6685 21.9768 21.6873 22.0097 21.7106C22.0429 21.7338 22.0551 21.7586 22.0475 21.7712Z" fill="#263238"/>
<path d="M19.9251 22.6259C19.9128 22.6215 19.4318 22.5144 19.4794 22.9982C19.527 23.4819 20.0475 23.3242 20.047 23.3102C20.0464 23.2964 19.9251 22.6259 19.9251 22.6259Z" fill="#FFBE9D"/>
<path d="M19.8341 23.1515C19.8319 23.1501 19.8263 23.1582 19.8128 23.1662C19.7997 23.1739 19.7763 23.1807 19.7504 23.1737C19.6978 23.16 19.647 23.0831 19.6362 22.9961C19.6306 22.9522 19.6356 22.9094 19.6477 22.8731C19.6589 22.8363 19.6791 22.8093 19.7043 22.8021C19.7292 22.7936 19.7487 22.8073 19.7559 22.8203C19.7637 22.8332 19.7616 22.8431 19.7643 22.8437C19.7658 22.8448 19.7738 22.8346 19.768 22.815C19.7651 22.8057 19.7583 22.7947 19.7461 22.7865C19.7336 22.7783 19.7163 22.7751 19.6987 22.7788C19.6619 22.785 19.6319 22.8227 19.6187 22.8625C19.6034 22.9027 19.5967 22.9509 19.6029 23.0002C19.6156 23.0973 19.674 23.1837 19.7455 23.1969C19.7802 23.2024 19.8074 23.1894 19.8208 23.1765C19.8343 23.1633 19.8358 23.1522 19.8341 23.1515Z" fill="#EB996E"/>
<path d="M22.201 21.0648C22.168 21.2574 21.7802 21.4338 21.4587 21.4243C21.1623 21.4156 21.0158 21.2675 20.8004 21.1622C20.6641 21.0956 20.6641 21.0956 20.4792 21.1259C20.3296 21.1504 20.252 21.3281 20.168 21.4552C20.328 21.8063 20.2634 22.2148 20.1955 22.5952C20.1881 22.6372 20.1788 22.6826 20.1469 22.7108C20.0929 22.7587 20.0054 22.73 19.9522 22.681C19.8672 22.6026 19.8285 22.4864 19.8007 22.3737C19.7372 22.117 19.7128 21.8484 19.7531 21.587C19.7934 21.3256 19.9007 21.0718 20.0781 20.8767C20.2996 20.6328 20.6236 20.4923 20.9513 20.4753C21.2791 20.4583 21.6081 20.5605 21.8827 20.7416C22.0099 20.8257 22.129 20.9296 22.201 21.0648Z" fill="#263238"/>
<path d="M21.5634 23.2027C21.4818 23.1644 21.4002 23.126 21.3186 23.0878C21.3045 23.0811 21.2895 23.0743 21.274 23.0765C21.2566 23.0788 21.2427 23.0918 21.2316 23.1055C21.1749 23.1748 21.1605 23.2793 21.2045 23.3575C21.2485 23.4357 21.352 23.477 21.4343 23.4426C21.521 23.4064 21.5633 23.3049 21.57 23.2106L21.5634 23.2027Z" fill="#EB996E"/>
<path d="M21.4417 23.4599C21.4456 23.4647 21.3906 23.4995 21.2983 23.4729C21.2537 23.4593 21.2028 23.4249 21.1713 23.369C21.1392 23.3146 21.1275 23.2368 21.1552 23.1668C21.1684 23.1321 21.1891 23.1014 21.2144 23.0772C21.2273 23.065 21.2403 23.0551 21.2561 23.0457C21.2716 23.0342 21.3049 23.0324 21.3207 23.042C21.3767 23.0734 21.4143 23.1001 21.4519 23.1244C21.5236 23.1723 21.566 23.2053 21.5622 23.2119C21.5583 23.2186 21.5088 23.1978 21.432 23.1585C21.3873 23.135 21.3441 23.1123 21.3014 23.0898C21.2911 23.087 21.2922 23.087 21.2824 23.0922C21.2728 23.0984 21.2615 23.1072 21.2522 23.1166C21.2331 23.1358 21.2172 23.1599 21.207 23.1868C21.1856 23.2408 21.193 23.2992 21.2161 23.3442C21.2391 23.3897 21.2762 23.4198 21.3119 23.4357C21.3855 23.4675 21.4403 23.451 21.4417 23.4599Z" fill="#263238"/>
<path d="M21.3647 22.3478C21.3592 22.348 21.3599 22.3028 21.3385 22.2271C21.3174 22.1527 21.2661 22.0445 21.1546 21.9619C21.0469 21.879 20.8708 21.8332 20.7009 21.8975C20.5323 21.9564 20.3873 22.137 20.3892 22.3477C20.3873 22.5584 20.5325 22.7391 20.7009 22.798C20.8708 22.8623 21.047 22.8165 21.1546 22.7336C21.266 22.6509 21.3173 22.5427 21.3384 22.4684C21.3599 22.3927 21.3592 22.3475 21.3647 22.3478C21.3666 22.3478 21.3679 22.3589 21.3686 22.3804C21.3698 22.4017 21.3678 22.4336 21.3594 22.4738C21.3439 22.5529 21.2957 22.6714 21.1784 22.7652C21.0653 22.8589 20.8728 22.915 20.6834 22.8466C20.4957 22.7843 20.3313 22.5834 20.3335 22.3478C20.3314 22.1122 20.4957 21.9114 20.6834 21.8491C20.8728 21.7807 21.0653 21.8368 21.1784 21.9306C21.2957 22.0242 21.3439 22.1427 21.3594 22.2219C21.3678 22.262 21.3698 22.294 21.3686 22.3154C21.3679 22.3366 21.3666 22.3478 21.3647 22.3478Z" fill="#263238"/>
<path d="M22.5625 22.3003C22.5572 22.3005 22.5577 22.2565 22.5367 22.1828C22.516 22.1104 22.466 22.0051 22.3575 21.9247C22.2526 21.8441 22.0811 21.7996 21.9159 21.8622C21.7519 21.9197 21.6108 22.0953 21.6126 22.3003C21.6107 22.5053 21.7519 22.681 21.9159 22.7385C22.0812 22.8011 22.2527 22.7567 22.3576 22.6759C22.4661 22.5954 22.5161 22.4901 22.5368 22.4178C22.5577 22.3441 22.5572 22.3001 22.5625 22.3003C22.5644 22.3003 22.5658 22.3112 22.5665 22.332C22.5677 22.3528 22.5658 22.384 22.5577 22.4231C22.5426 22.5002 22.4957 22.6158 22.3814 22.7072C22.2711 22.7988 22.0833 22.8536 21.8985 22.7868C21.7153 22.7262 21.5549 22.5301 21.5572 22.3002C21.555 22.0703 21.7153 21.8744 21.8985 21.8137C22.0833 21.7469 22.2711 21.8016 22.3814 21.8931C22.4957 21.9846 22.5426 22.1002 22.5577 22.1773C22.5658 22.2164 22.5677 22.2476 22.5665 22.2684C22.5658 22.2895 22.5644 22.3003 22.5625 22.3003Z" fill="#263238"/>
<path d="M21.5849 22.1889C21.574 22.1992 21.5264 22.1683 21.4623 22.1703C21.3981 22.1703 21.352 22.2031 21.3406 22.1934C21.326 22.1857 21.3707 22.116 21.4614 22.1145C21.5518 22.1131 21.5991 22.1804 21.5849 22.1889Z" fill="#263238"/>
<path d="M20.3914 22.2759C20.4006 22.2883 20.3075 22.374 20.1833 22.4672C20.0593 22.5606 19.9512 22.6261 19.942 22.6138C19.9329 22.6014 20.026 22.5157 20.1501 22.4224C20.2742 22.3292 20.3822 22.2636 20.3914 22.2759Z" fill="#263238"/>
<path d="M30.2922 22.3233C30.2922 22.3387 29.0582 22.3512 27.5363 22.3512C26.014 22.3512 24.7803 22.3386 24.7803 22.3233C24.7803 22.3079 26.014 22.2953 27.5363 22.2953C29.0581 22.2953 30.2922 22.3079 30.2922 22.3233Z" fill="#263238"/>
<path d="M27.7432 22.9042C27.7432 22.9197 27.088 22.9322 26.2799 22.9322C25.4714 22.9322 24.8164 22.9196 24.8164 22.9042C24.8164 22.8889 25.4716 22.8763 26.2799 22.8763C27.088 22.8763 27.7432 22.8888 27.7432 22.9042Z" fill="#263238"/>
<path d="M46.8049 26.6157C46.8049 26.6157 48.2699 27.3346 48.7843 29.1909C49.2988 31.0472 50.8745 35.8813 50.8745 35.8813C50.8745 35.8813 51.7748 36.9481 51.8713 37.7381C51.9677 38.5282 51.7748 40.4389 51.4855 40.7951C51.1961 41.1513 50.7834 41.0924 50.7834 41.0924L46.9937 40.7303L45.5015 30.6669L46.8049 26.6157Z" fill="#0494FD"/>
<path d="M34.2727 26.4399C34.2727 26.4399 31.563 27.2959 30.8877 28.0407L33.1065 38.4363L33.0711 41.7163H45.9178C45.9178 41.5544 46.033 30.8258 46.033 30.8258L46.8047 26.6158L42.2386 25.8062L41.3383 25.0938L36.2577 25.3529L35.486 26.1301L34.2727 26.4399Z" fill="#0494FD"/>
<g opacity="0.3">
<path d="M35.3018 35.4586C35.2623 35.3704 35.2056 35.2751 35.1115 35.2555C34.9568 35.2234 34.8533 35.4076 34.8007 35.5577C34.3833 36.7477 33.8313 37.8422 33.113 38.8764L33.0801 40.4725C33.829 39.8378 34.5674 39.1579 35.0449 38.2973C35.5223 37.4367 35.7049 36.3569 35.3018 35.4586Z" fill="black"/>
</g>
<path d="M30.8878 28.0406C30.8878 28.0406 29.995 29.2665 29.6242 30.0666C29.2534 30.8667 26.1814 37.5881 25.996 38.2817C25.8106 38.9751 25.3339 41.1623 26.7376 41.669H29.6242L32.5216 35.7684L32.6697 28.9197L30.8878 28.0406Z" fill="#0494FD"/>
<path d="M29.809 37.4066C29.8051 37.411 29.7447 37.3494 29.6117 37.2733C29.4791 37.1978 29.273 37.1109 29.0059 37.0523C28.8726 37.0229 28.7243 36.9999 28.5643 36.9898C28.4042 36.9797 28.2323 36.9826 28.0579 37.023C27.7078 37.1016 27.3598 37.3243 27.0861 37.6373C26.8082 37.95 26.6367 38.3193 26.5359 38.6677C26.4336 39.0168 26.3899 39.3443 26.3623 39.6188C26.3353 39.8938 26.3251 40.1177 26.3158 40.2722C26.3113 40.3445 26.3075 40.4034 26.3047 40.4503C26.3016 40.491 26.299 40.5124 26.2971 40.5122C26.2952 40.5121 26.294 40.4908 26.2935 40.4499C26.2937 40.403 26.2939 40.3439 26.2942 40.2715C26.2971 40.1166 26.3011 39.8921 26.3232 39.6152C26.3459 39.3389 26.3858 39.0082 26.4868 38.6532C26.5862 38.2995 26.7602 37.92 27.0446 37.6003C27.3246 37.2799 27.6839 37.0512 28.0468 36.9727C28.2279 36.9323 28.4056 36.9312 28.5674 36.9435C28.73 36.9557 28.88 36.9813 29.0147 37.0137C29.2844 37.0782 29.4914 37.172 29.6228 37.2546C29.6884 37.2964 29.7359 37.3339 29.766 37.3615C29.7955 37.3898 29.8103 37.4052 29.809 37.4066Z" fill="#263238"/>
<path d="M28.4399 36.2318C28.4396 36.2279 28.4741 36.2225 28.537 36.2161C28.5998 36.2083 28.6917 36.2065 28.8047 36.2124C28.918 36.2174 29.0522 36.2369 29.1984 36.271C29.3439 36.3078 29.5012 36.3609 29.6582 36.4352C29.8144 36.5114 29.9543 36.601 30.0743 36.6918C30.1927 36.7848 30.2922 36.8775 30.3673 36.9631C30.443 37.0479 30.4994 37.121 30.533 37.175C30.5675 37.2284 30.585 37.2587 30.5819 37.2608C30.5734 37.2668 30.4951 37.1504 30.3388 36.9903C30.2614 36.9097 30.1611 36.8219 30.0436 36.733C29.9244 36.6464 29.7869 36.5602 29.6342 36.4857C29.4807 36.4131 29.3276 36.3598 29.1859 36.321C29.0434 36.2849 28.9125 36.2617 28.8015 36.2518C28.5798 36.2302 28.4406 36.2423 28.4399 36.2318Z" fill="#263238"/>
<path d="M31.0499 35.9084C31.0493 35.9121 31.0016 35.9084 30.9164 35.8982C30.8312 35.8871 30.7076 35.8747 30.5548 35.8633C30.2494 35.84 29.8247 35.8344 29.3606 35.8897C28.8965 35.9462 28.4851 36.0526 28.1937 36.1477C28.0479 36.1951 27.9306 36.2367 27.8505 36.2676C27.7701 36.2978 27.7247 36.3129 27.7232 36.3093C27.7217 36.3058 27.764 36.284 27.8423 36.2474C27.9202 36.2102 28.0359 36.1628 28.1811 36.1102C28.4711 36.0048 28.8853 35.8912 29.354 35.8342C29.8226 35.7783 30.2517 35.7902 30.5583 35.8238C30.7117 35.8404 30.8352 35.859 30.9197 35.8767C31.0042 35.8935 31.0506 35.9046 31.0499 35.9084Z" fill="#263238"/>
<path d="M39.2721 30.1658C39.2709 30.1666 39.2609 30.1546 39.2427 30.1308C39.2221 30.1029 39.1961 30.0679 39.1639 30.0245C39.0932 29.9259 38.9956 29.7896 38.8737 29.6196C38.6245 29.2655 38.277 28.7717 37.8683 28.1908L37.9131 28.1845C37.7575 28.6446 37.5858 29.1521 37.4052 29.6862L37.3938 29.7201L37.3647 29.7012C37.3458 29.6889 37.3253 29.6757 37.3049 29.6624C37.0659 29.5098 36.8553 29.3264 36.6763 29.1278C36.4981 28.9282 36.3503 28.7153 36.2275 28.5028C35.9821 28.0767 35.8341 27.6564 35.7337 27.3003C35.6338 26.9433 35.5817 26.6476 35.5467 26.4439C35.5298 26.3464 35.5164 26.2684 35.5062 26.2096C35.5013 26.1829 35.496 26.1632 35.4927 26.1497C35.4877 26.1373 35.4852 26.1304 35.486 26.1298C35.4978 26.1248 35.5291 26.2373 35.5679 26.4398C35.6093 26.6421 35.6672 26.9357 35.7713 27.2893C35.8759 27.6419 36.0268 28.0573 36.2716 28.4767C36.394 28.6858 36.5407 28.895 36.7165 29.0909C36.893 29.2856 37.1001 29.4652 37.3344 29.615C37.3546 29.628 37.3746 29.6411 37.3932 29.653L37.3526 29.668C37.5348 29.1344 37.7081 28.6273 37.865 28.1677L37.8813 28.1198L37.9098 28.1613C38.3118 28.7468 38.6535 29.2447 38.8987 29.6017C39.0156 29.7752 39.1092 29.9142 39.1771 30.0148C39.2065 30.0601 39.2304 30.0967 39.2493 30.1257C39.2655 30.1514 39.2733 30.165 39.2721 30.1658Z" fill="#263238"/>
<g opacity="0.3">
<path d="M42.6168 35.1284C42.4978 36.3304 42.7613 37.5676 43.3591 38.6147C43.957 39.6618 44.8328 40.5949 45.924 41.0959C45.9593 40.029 45.9085 38.7723 45.9437 37.7053L42.6168 35.1284Z" fill="black"/>
</g>
<path d="M42.4959 33.7238C42.4959 33.7238 42.0292 33.8542 42.3792 34.8171C42.7291 35.7799 42.8458 35.7218 43.0791 36.6225C43.3124 37.5233 43.5846 38.3452 43.9929 38.8543C44.4013 39.3634 45.9178 40.4013 45.9178 40.4013L47.2789 39.1089C47.2789 39.1089 47.0546 38.1457 47.1085 37.4916C47.1623 36.8374 47.2984 35.2317 47.2789 34.9575C47.2595 34.6834 46.9678 34.0176 46.9678 34.0176V33.5621L46.2678 31.3936C46.2678 31.3936 45.8789 31.2173 45.7429 31.8439L45.5096 31.1788C45.5096 31.1788 45.1402 31.1194 45.043 31.883C44.9458 32.6467 45.1207 33.7042 45.1207 33.7042L44.9263 35.0357L44.6346 35.9365L44.3818 35.9757C44.3818 35.9757 44.0014 35.8711 43.793 35.1499C43.5847 34.4288 43.0209 33.5672 42.4959 33.7238Z" fill="#FFBE9D"/>
<path d="M46.8234 37.13C46.8219 37.1301 46.8198 37.1131 46.8171 37.0805C46.8145 37.0432 46.8113 36.9958 46.8073 36.937C46.8003 36.8056 46.7907 36.624 46.7785 36.3977C46.7576 35.9301 46.7284 35.2795 46.6943 34.5199L46.7004 34.5357C46.638 34.4602 46.5263 34.4379 46.425 34.4634C46.3221 34.4884 46.2298 34.5531 46.1727 34.6495C46.0538 34.8422 46.0474 35.0932 46.0102 35.3356C45.9364 35.8844 45.8661 36.4071 45.8021 36.8833C45.7697 37.1211 45.7355 37.3476 45.6894 37.5571C45.6447 37.7669 45.5818 37.9578 45.5207 38.1283C45.4605 38.2993 45.4073 38.454 45.3742 38.5933C45.3409 38.7325 45.3277 38.8556 45.3303 38.9559C45.3344 39.1583 45.3928 39.2609 45.3841 39.2631C45.3824 39.2638 45.3712 39.2381 45.3515 39.188C45.3355 39.1369 45.3129 39.0596 45.3087 38.9568C45.3028 38.8544 45.3132 38.7282 45.344 38.5863C45.3747 38.4442 45.4257 38.2872 45.4836 38.1153C45.5423 37.9436 45.602 37.7555 45.6444 37.5472C45.6881 37.3393 45.7204 37.1142 45.7513 36.8763C45.814 36.3999 45.8828 35.877 45.9551 35.3281C45.9723 35.2057 45.9854 35.0848 46.0065 34.9642C46.0281 34.8444 46.0612 34.724 46.1265 34.62C46.1887 34.5144 46.2975 34.4368 46.4127 34.4107C46.5264 34.3819 46.6624 34.4071 46.7402 34.5017L46.746 34.5088L46.7463 34.5176C46.7722 35.2776 46.7944 35.9285 46.8104 36.3963C46.8161 36.6228 46.8208 36.8047 46.8243 36.9363C46.8249 36.9951 46.8253 37.0426 46.8258 37.0801C46.8256 37.1129 46.8249 37.1298 46.8234 37.13Z" fill="#EB996E"/>
<path d="M46.0789 34.6623C46.0756 34.6636 46.0539 34.6206 46.0215 34.5397C45.9896 34.4587 45.9472 34.3397 45.9076 34.1888C45.8678 34.0379 45.831 33.855 45.8099 33.6493C45.7994 33.5466 45.7921 33.4367 45.804 33.3222C45.8156 33.2088 45.8491 33.0883 45.9213 32.9865C45.9828 32.8982 46.0705 32.8277 46.1702 32.7984L46.1911 32.7923L46.2018 32.8112C46.3989 33.1614 46.5701 33.4706 46.6905 33.693C46.7458 33.7971 46.7923 33.8847 46.8299 33.9559C46.8616 34.0179 46.8776 34.0528 46.8746 34.0545C46.8716 34.0562 46.8501 34.0247 46.8131 33.9655C46.7715 33.8967 46.7203 33.8118 46.6594 33.7109C46.5305 33.4934 46.3534 33.1876 46.1543 32.8385L46.1858 32.8513C46.1 32.8771 46.0225 32.9387 45.9667 33.0189C45.9013 33.111 45.8699 33.2206 45.858 33.3284C45.8459 33.4364 45.8517 33.543 45.8606 33.6444C45.8787 33.8476 45.9111 34.0289 45.9456 34.1794C45.9798 34.33 46.0163 34.4499 46.0418 34.5326C46.0678 34.615 46.0827 34.6607 46.0789 34.6623Z" fill="#EB996E"/>
<path d="M45.7536 34.8385C45.7498 34.8386 45.7455 34.7941 45.741 34.7137C45.7373 34.6213 45.7327 34.5074 45.7273 34.3728C45.7181 34.085 45.7093 33.6873 45.703 33.248C45.6997 32.8092 45.6827 32.4101 45.7202 32.1209C45.7384 31.9768 45.767 31.8622 45.7932 31.7855C45.8191 31.7086 45.8404 31.6689 45.8431 31.67C45.8527 31.6731 45.7837 31.8395 45.7594 32.1251C45.7323 32.4095 45.7552 32.8076 45.7585 33.2472C45.7648 33.6864 45.7675 34.0842 45.7666 34.3723C45.7652 34.507 45.7638 34.621 45.7627 34.7133C45.7605 34.7939 45.7575 34.8385 45.7536 34.8385Z" fill="#EB996E"/>
<path d="M44.603 38.4494C44.5952 38.4429 44.6804 38.3419 44.7857 38.1588C44.839 38.0677 44.8932 37.9542 44.9441 37.8245C44.9925 37.6939 45.0361 37.5467 45.0653 37.3886C45.0929 37.23 45.1031 37.0767 45.1031 36.9373C45.1004 36.7979 45.0891 36.6723 45.0708 36.5682C45.0357 36.3597 44.9909 36.2351 45.0006 36.2317C45.0042 36.2304 45.0178 36.2605 45.0393 36.3165C45.0619 36.3722 45.0866 36.4559 45.1093 36.5609C45.133 36.666 45.1486 36.7938 45.1542 36.9363C45.1571 37.0788 45.1481 37.2361 45.12 37.3984C45.09 37.5605 45.0437 37.711 44.9915 37.8434C44.9369 37.975 44.8778 38.0892 44.8192 38.1792C44.7613 38.2697 44.7092 38.3394 44.6688 38.3836C44.6292 38.4285 44.6059 38.4519 44.603 38.4494Z" fill="#EB996E"/>
<path d="M46.9923 37.7757L48.1734 38.1885C48.1734 38.1885 49.3011 37.6011 50.0788 38.1885C50.8565 38.776 51.5321 40.3242 51.3182 40.9509C51.3182 40.9509 50.7814 41.6183 50.3731 41.7162C49.9648 41.814 48.3775 41.4269 47.7171 41.2868C47.0549 41.1464 45.918 40.4012 45.918 40.4012L46.9923 37.7757Z" fill="#FFBE9D"/>
<path d="M47.1374 39.5282C47.1335 39.5282 47.1293 39.4907 47.1248 39.4229C47.1201 39.3423 47.1144 39.2467 47.1079 39.1355C47.0954 38.8929 47.0791 38.5573 47.0742 38.1859C47.0687 37.8145 47.0791 37.4775 47.1014 37.2347C47.1119 37.1133 47.1251 37.0153 47.1372 36.9482C47.1493 36.881 47.1578 36.8443 47.1617 36.8449C47.1703 36.8463 47.152 36.9953 47.1407 37.2375C47.1285 37.4796 47.1242 37.8147 47.1298 38.1852C47.1365 38.5483 47.1425 38.8766 47.1472 39.1344C47.1486 39.256 47.1482 39.3545 47.1463 39.4226C47.1442 39.4906 47.1412 39.5282 47.1374 39.5282Z" fill="#EB996E"/>
<path d="M51.0318 38.1419C51.0229 38.1502 50.9019 37.981 50.639 37.7853C50.3802 37.5899 49.9598 37.3818 49.462 37.3536C48.964 37.3264 48.5234 37.4869 48.2449 37.6524C47.9621 37.8178 47.8235 37.9726 47.8155 37.9634C47.8133 37.9612 47.846 37.9215 47.9129 37.8572C47.9796 37.7928 48.0838 37.7067 48.2247 37.6184C48.5028 37.4413 48.953 37.2698 49.465 37.2977C49.9768 37.3266 50.4056 37.5469 50.6627 37.7537C50.7931 37.857 50.8873 37.954 50.9466 38.0256C51.006 38.0969 51.0343 38.14 51.0318 38.1419Z" fill="#263238"/>
<path d="M50.8802 37.15C50.8726 37.1617 50.7149 37.0012 50.3888 36.8772C50.0678 36.7505 49.57 36.6921 49.0591 36.837C48.804 36.9087 48.5709 37.0114 48.3714 37.1252C48.1721 37.2402 48.0056 37.3658 47.8733 37.4796C47.7407 37.5935 47.6393 37.693 47.5698 37.7622C47.5004 37.8315 47.4616 37.8698 47.4586 37.867C47.456 37.8647 47.4893 37.8214 47.5541 37.7471C47.6191 37.673 47.7168 37.5687 47.8474 37.4498C47.9778 37.3308 48.1444 37.2 48.3458 37.0805C48.5476 36.962 48.7841 36.8562 49.0441 36.7831C49.5677 36.6345 50.0787 36.7012 50.4031 36.8403C50.5669 36.9081 50.6889 36.9859 50.7666 37.047C50.8066 37.076 50.8335 37.1041 50.8531 37.1209C50.8721 37.1387 50.8814 37.1487 50.8802 37.15Z" fill="#263238"/>
<path d="M50.8896 36.2904C50.8866 36.3015 50.6801 36.2379 50.3372 36.1911C50.166 36.1667 49.9601 36.1529 49.7317 36.1525C49.5033 36.1559 49.2526 36.1748 48.9926 36.2195C48.7331 36.2669 48.4909 36.3353 48.2751 36.4107C48.0606 36.4896 47.8718 36.5733 47.719 36.6552C47.4125 36.8171 47.24 36.9479 47.2335 36.9384C47.2312 36.9353 47.2734 36.9017 47.3518 36.8432C47.3906 36.8135 47.4391 36.7785 47.4984 36.7423C47.5573 36.7055 47.6227 36.6605 47.7005 36.6203C47.8521 36.5331 48.0415 36.4447 48.2576 36.3622C48.475 36.2832 48.7201 36.2123 48.9829 36.1644C49.2462 36.1192 49.5005 36.1016 49.7316 36.101C49.9628 36.1042 50.1705 36.1223 50.3427 36.152C50.4294 36.1631 50.5061 36.1829 50.574 36.1972C50.642 36.2108 50.6994 36.227 50.746 36.2416C50.8397 36.2696 50.8907 36.2868 50.8896 36.2904Z" fill="#263238"/>
<path d="M41.8405 25.7707C41.8405 25.7707 41.8953 25.8736 41.9223 26.087C41.9513 26.299 41.9473 26.6164 41.8775 27.0098C41.8424 27.2064 41.7951 27.4224 41.7249 27.6529C41.6515 27.8838 41.5404 28.1198 41.4147 28.3675C41.1603 28.8615 40.8402 29.4003 40.4694 29.9748L40.4261 30.0419L40.426 29.9616C40.4255 29.5819 40.4248 29.1835 40.4242 28.7696L40.4657 28.7895C40.1481 29.0477 39.8138 29.3195 39.4695 29.5993L39.4781 29.5866C39.2473 30.3234 39.0953 31.1438 39.0351 31.9981C38.9376 33.3055 39.0162 34.556 39.0774 35.6904C39.1299 36.8265 39.1642 37.8494 39.1994 38.7084C39.2332 39.5674 39.2641 40.2624 39.2898 40.7424C39.3037 40.9802 39.3146 41.1659 39.3222 41.2949C39.3263 41.356 39.3293 41.4037 39.3317 41.4385C39.3335 41.4709 39.3331 41.4876 39.3331 41.4876C39.3331 41.4876 39.3298 41.4713 39.326 41.439C39.3224 41.4043 39.3174 41.3568 39.3111 41.2958C39.2993 41.1698 39.284 40.9837 39.2682 40.7438C39.2359 40.264 39.1991 39.5691 39.1602 38.7102C39.122 37.8506 39.0767 36.8282 39.0263 35.6931C38.9623 34.5595 38.8819 33.3064 38.9797 31.9939C39.0402 31.1362 39.1936 30.3112 39.4271 29.57L39.4295 29.5623L39.4358 29.5571C39.7808 29.2779 40.1156 29.0069 40.4337 28.7494L40.4753 28.7157L40.4752 28.7695C40.4745 29.1833 40.4739 29.5818 40.4733 29.9615L40.4299 29.9483C41.1627 28.8037 41.7587 27.8093 41.8504 27.0046C41.9238 26.6141 41.9321 26.2993 41.9079 26.0886C41.8977 25.9828 41.8771 25.9038 41.8641 25.8505C41.8474 25.7984 41.8405 25.7707 41.8405 25.7707Z" fill="#263238"/>
<path d="M39.9275 39.6284L39.8894 39.6271C39.7351 39.6315 39.5976 39.7737 39.5972 39.9291C39.5967 40.0846 39.7334 40.2276 39.8876 40.2329C40.042 40.2383 40.1881 40.1053 40.1983 39.9502C40.2086 39.7949 40.0812 39.6436 39.9275 39.6284Z" fill="white"/>
<path d="M39.9275 35.4879L39.8894 35.4866C39.7351 35.4911 39.5976 35.6331 39.5972 35.7886C39.5967 35.944 39.7334 36.087 39.8876 36.0924C40.042 36.0978 40.1881 35.9648 40.1983 35.8096C40.2086 35.6545 40.0812 35.5031 39.9275 35.4879Z" fill="white"/>
<path d="M39.8876 31.7837C40.042 31.789 40.1881 31.6561 40.1983 31.5009C40.2086 31.3458 40.0812 31.1944 39.9275 31.1792L39.8894 31.1779C39.7351 31.1824 39.5976 31.3244 39.5972 31.4799C39.5966 31.6353 39.7334 31.7783 39.8876 31.7837Z" fill="white"/>
<path d="M35.2826 20.9191C34.9086 20.5022 34.5313 20.0806 34.2587 19.5903C33.9861 19.1 33.8235 18.5279 33.9137 17.9733C33.9665 17.6491 34.1032 17.3402 34.125 17.0124C34.155 16.5612 33.9666 16.0898 34.1254 15.6669C34.3736 15.006 35.2571 14.9039 35.7926 14.4473C36.2097 14.0917 36.4129 13.5144 36.8717 13.2154C37.2725 12.9541 37.7875 12.9598 38.2602 13.0272C38.7329 13.0945 39.2085 13.2146 39.6817 13.1506C40.019 13.105 40.3366 12.9676 40.6671 12.8852C40.9974 12.8028 41.3661 12.7811 41.6604 12.9533C41.9547 13.1255 42.1198 13.5462 41.9268 13.8286C42.4752 13.574 43.1716 14.0044 43.3217 14.5934C43.4718 15.1824 43.1713 15.8187 42.7068 16.2072C42.2422 16.5955 41.6413 16.7763 41.048 16.8889C39.3682 17.2078 37.546 17.0279 36.0984 16.1123" fill="#263238"/>
<path d="M41.188 26.6069C41.1059 25.9665 41.0389 25.4322 41.0347 25.3658C41.0347 25.3658 43.1597 24.8848 43.0426 22.7209C42.986 21.6751 42.6953 19.5307 42.4101 17.5938C42.1037 15.5136 40.2602 14.0204 38.1768 14.1608L37.9696 14.1747C35.7447 14.4566 34.7394 16.5172 35.0808 18.7494L36.2813 26.234C36.2813 26.234 36.7936 27.8897 37.8893 28.1763L39.2722 30.1659L39.5008 29.3094L40.5317 28.4056C40.5317 28.4056 40.7681 28.1479 41.0398 27.6437C41.2618 27.2317 41.2151 26.8079 41.188 26.6069Z" fill="#FFBE9D"/>
<path d="M41.0362 25.3344C41.0362 25.3344 39.6868 25.537 38.1841 24.7219C38.1841 24.7219 38.949 26.2334 41.0784 25.8943L41.0362 25.3344Z" fill="#EB996E"/>
<path d="M41.7193 19.4532C41.7359 19.6158 41.6127 19.7641 41.4444 19.7846C41.2763 19.805 41.1264 19.6901 41.1099 19.5274C41.0934 19.3647 41.2164 19.2163 41.3844 19.1958C41.5528 19.1754 41.7027 19.2905 41.7193 19.4532Z" fill="#263238"/>
<path d="M42.0192 18.686C41.9839 18.7288 41.7402 18.5713 41.4101 18.5945C41.0803 18.6127 40.8496 18.8 40.8111 18.7617C40.7923 18.7449 40.8261 18.6696 40.9264 18.5852C41.0251 18.5013 41.1971 18.4144 41.4027 18.4015C41.6082 18.3889 41.7861 18.4533 41.8907 18.5246C41.9976 18.5962 42.0367 18.6667 42.0192 18.686Z" fill="#263238"/>
<path d="M38.6031 19.6776C38.6196 19.8402 38.4965 19.9885 38.3282 20.009C38.1602 20.0295 38.0102 19.9146 37.9937 19.7519C37.9771 19.5893 38.1002 19.4408 38.2683 19.4203C38.4366 19.3998 38.5865 19.5149 38.6031 19.6776Z" fill="#263238"/>
<path d="M38.7805 18.9664C38.745 19.0093 38.501 18.8518 38.1714 18.8749C37.8416 18.8932 37.6108 19.0804 37.5724 19.0421C37.5536 19.0253 37.5871 18.9501 37.6879 18.8656C37.7865 18.7816 37.9585 18.6948 38.164 18.6818C38.3696 18.6691 38.5475 18.7337 38.6521 18.8049C38.7585 18.8767 38.798 18.9472 38.7805 18.9664Z" fill="#263238"/>
<path d="M40.1413 21.35C40.1386 21.3312 40.3412 21.2817 40.6707 21.2166C40.7545 21.2022 40.8331 21.18 40.8434 21.1211C40.8592 21.0585 40.8179 20.9694 40.7705 20.8734C40.6777 20.6734 40.5805 20.4637 40.4784 20.244C40.0714 19.3474 39.7707 18.608 39.8066 18.5918C39.8427 18.5757 40.2018 19.2891 40.6089 20.1858C40.7072 20.407 40.8012 20.6179 40.8907 20.8198C40.9289 20.9141 40.9911 21.0197 40.9565 21.1498C40.938 21.2147 40.8793 21.2649 40.8263 21.2832C40.7733 21.3034 40.726 21.3076 40.6845 21.3128C40.3513 21.3533 40.1439 21.3688 40.1413 21.35Z" fill="#263238"/>
<path d="M38.7793 17.6586C38.7527 17.751 38.4204 17.7304 38.0366 17.8036C37.6511 17.8689 37.3465 18.004 37.2898 17.9265C37.2643 17.8892 37.313 17.8006 37.4335 17.7046C37.5527 17.6088 37.7469 17.5124 37.9775 17.4707C38.2081 17.4295 38.4233 17.4523 38.5682 17.5005C38.7142 17.5485 38.7905 17.6147 38.7793 17.6586Z" fill="#263238"/>
<path d="M41.8341 17.7325C41.7811 17.8119 41.5486 17.7488 41.2751 17.7635C41.0011 17.7686 40.7738 17.8483 40.7152 17.7729C40.6894 17.7361 40.7206 17.658 40.8171 17.5798C40.9119 17.5019 41.0748 17.4325 41.263 17.4255C41.4512 17.4189 41.6185 17.4764 41.7187 17.5473C41.8204 17.6184 41.8573 17.6939 41.8341 17.7325Z" fill="#263238"/>
<path d="M35.3625 20.3386C35.3249 20.3251 33.8582 19.9986 34.0033 21.4737C34.1483 22.9488 35.7356 22.4679 35.7339 22.4254C35.7323 22.3827 35.3625 20.3386 35.3625 20.3386Z" fill="#FFBE9D"/>
<path d="M35.0849 21.941C35.078 21.9369 35.0612 21.9615 35.02 21.9858C34.9799 22.0093 34.9088 22.0299 34.8297 22.0088C34.6694 21.967 34.5147 21.7326 34.4814 21.4674C34.4645 21.3336 34.4799 21.203 34.5167 21.0924C34.5509 20.98 34.6127 20.8978 34.6893 20.8761C34.7651 20.8503 34.8248 20.8917 34.8468 20.9315C34.8704 20.9708 34.864 21.0011 34.872 21.0029C34.8765 21.0063 34.9011 20.9751 34.8832 20.9154C34.8743 20.8867 34.8537 20.8536 34.8166 20.8287C34.7786 20.8033 34.7255 20.7939 34.6717 20.8052C34.5596 20.8243 34.4682 20.9391 34.4277 21.0604C34.3811 21.1829 34.3606 21.33 34.3797 21.4803C34.4183 21.7766 34.5967 22.0397 34.8145 22.0802C34.9203 22.097 35.0031 22.0572 35.0441 22.0179C35.0858 21.9769 35.0903 21.9431 35.0849 21.941Z" fill="#EB996E"/>
<path d="M42.3021 15.5783C42.2015 16.1655 41.019 16.7035 40.0386 16.6747C39.1348 16.6482 38.6883 16.1965 38.0316 15.8755C37.6159 15.6724 37.6159 15.6724 37.0518 15.7647C36.5958 15.8393 36.359 16.3813 36.103 16.7686C36.5908 17.8396 36.3937 19.0849 36.1869 20.2446C36.164 20.3727 36.1357 20.5111 36.0387 20.5971C35.874 20.7433 35.6071 20.6558 35.4451 20.5065C35.1859 20.2674 35.0678 19.9129 34.9829 19.5695C34.7893 18.787 34.715 17.9676 34.8379 17.1707C34.9607 16.3739 35.2881 15.5998 35.8287 15.0049C36.5043 14.2615 37.4918 13.833 38.4912 13.7812C39.4904 13.7296 40.4941 14.041 41.3312 14.5933C41.7196 14.8495 42.0827 15.1663 42.3021 15.5783Z" fill="#263238"/>
<path d="M40.357 22.0973C40.1082 21.9804 39.8593 21.8635 39.6105 21.7466C39.5676 21.7264 39.5216 21.7058 39.4747 21.7121C39.4218 21.7192 39.3794 21.7591 39.3455 21.8005C39.1724 22.0118 39.1286 22.3306 39.2627 22.5689C39.3968 22.8072 39.712 22.9331 39.9633 22.8283C40.228 22.718 40.3565 22.4085 40.3772 22.1208L40.357 22.0973Z" fill="#EB996E"/>
<path d="M39.9868 22.8814C39.9889 22.8878 39.9523 22.9095 39.8776 22.9252C39.8036 22.9395 39.689 22.9451 39.5564 22.9014C39.4252 22.8589 39.2772 22.7561 39.1856 22.5911C39.0925 22.4303 39.0589 22.2031 39.1402 21.9981C39.179 21.8963 39.2396 21.8062 39.3134 21.7351C39.3509 21.6992 39.3897 21.6697 39.4345 21.6429C39.4579 21.6298 39.4871 21.617 39.5206 21.6153C39.5535 21.6135 39.5831 21.622 39.6072 21.6322C39.6559 21.6541 39.6876 21.6777 39.7236 21.6987C39.7583 21.7202 39.7924 21.7412 39.8253 21.7616C39.8896 21.8021 39.9503 21.8404 40.0071 21.8762C40.2285 22.0178 40.3615 22.112 40.3539 22.1253C40.3462 22.1386 40.1991 22.0686 39.9676 21.9446C39.9087 21.9126 39.8458 21.8782 39.779 21.8419C39.7451 21.823 39.7102 21.8037 39.6745 21.7838C39.6388 21.7645 39.6 21.7401 39.569 21.7278C39.535 21.7159 39.5201 21.7167 39.4873 21.7357C39.4548 21.7564 39.4193 21.7837 39.3892 21.814C39.3277 21.8751 39.2768 21.9519 39.244 22.0382C39.1756 22.2112 39.2003 22.3993 39.2756 22.5417C39.35 22.6861 39.4703 22.7801 39.584 22.8273C39.6986 22.8753 39.8025 22.8825 39.8731 22.8819C39.9441 22.8802 39.9845 22.8732 39.9868 22.8814Z" fill="#263238"/>
<path d="M39.7511 19.4902C39.7425 19.4909 39.7523 19.3528 39.6928 19.1167C39.634 18.8851 39.4807 18.5447 39.1351 18.2814C38.9639 18.1528 38.7482 18.0436 38.4996 17.9998C38.2527 17.9576 37.9741 17.9658 37.7092 18.0676C37.5758 18.1145 37.4472 18.185 37.329 18.2742C37.2095 18.3616 37.101 18.4702 37.0116 18.5958C36.8267 18.8436 36.7226 19.1619 36.7196 19.49C36.7225 19.8182 36.8266 20.1366 37.0115 20.3844C37.1009 20.5102 37.2094 20.6187 37.3289 20.7062C37.4471 20.7953 37.5757 20.866 37.7091 20.9129C37.974 21.0147 38.2526 21.0229 38.4995 20.9807C38.7481 20.9368 38.9637 20.8277 39.135 20.699C39.4806 20.4357 39.6339 20.0951 39.6926 19.8637C39.7523 19.6276 39.7425 19.4894 39.7511 19.4902C39.7521 19.4902 39.7526 19.4987 39.7527 19.5152C39.7525 19.5352 39.7522 19.5593 39.7517 19.5887C39.7519 19.6211 39.7501 19.6611 39.7424 19.7079C39.7362 19.7549 39.7303 19.8095 39.7137 19.8689C39.6887 19.9895 39.6348 20.1326 39.5482 20.2847C39.4609 20.4362 39.3336 20.595 39.1589 20.7303C38.9848 20.8644 38.7639 20.9789 38.508 21.0262C38.2539 21.0718 37.9664 21.0651 37.6917 20.9613C37.5534 20.9135 37.42 20.841 37.2973 20.7491C37.1733 20.659 37.0607 20.547 36.9676 20.4169C36.7756 20.1606 36.6669 19.8301 36.6641 19.49C36.667 19.15 36.7757 18.8195 36.9677 18.5634C37.0608 18.4334 37.1734 18.3214 37.2975 18.2312C37.4201 18.1394 37.5536 18.0669 37.6917 18.0191C37.9664 17.9153 38.2539 17.9085 38.508 17.9542C38.7639 18.0013 38.9847 18.1159 39.1589 18.2499C39.3336 18.3852 39.4609 18.544 39.5482 18.6954C39.6349 18.8475 39.6887 18.9906 39.7138 19.1113C39.7304 19.1707 39.7363 19.2253 39.7425 19.2722C39.7503 19.3191 39.7518 19.359 39.7518 19.3915C39.7523 19.4209 39.7525 19.4451 39.7528 19.4649C39.7526 19.4818 39.7521 19.4902 39.7511 19.4902Z" fill="#263238"/>
<path d="M43.4043 19.3457C43.3957 19.3464 43.4051 19.2118 43.3472 18.9818C43.2898 18.7563 43.1405 18.4247 42.8037 18.1683C42.6369 18.043 42.4269 17.9367 42.1847 17.894C41.9442 17.853 41.6729 17.8609 41.4149 17.9601C41.285 18.0056 41.1598 18.0745 41.0447 18.1613C40.9283 18.2464 40.8226 18.3522 40.7356 18.4746C40.5555 18.7158 40.4542 19.0259 40.4512 19.3454C40.4541 19.665 40.5554 19.9751 40.7355 20.2165C40.8225 20.339 40.9282 20.4447 41.0447 20.5299C41.1598 20.6168 41.285 20.6855 41.4149 20.7312C41.6731 20.8304 41.9443 20.8383 42.1848 20.7973C42.427 20.7546 42.6371 20.6483 42.8038 20.523C43.1406 20.2665 43.2899 19.9349 43.3473 19.7094C43.4052 19.4794 43.3957 19.3449 43.4043 19.3457C43.4062 19.3457 43.4064 19.3787 43.405 19.4417C43.4051 19.4733 43.4035 19.5123 43.3959 19.558C43.39 19.6037 43.3843 19.6569 43.3681 19.7148C43.3164 19.945 43.1701 20.287 42.8275 20.5546C42.6578 20.6853 42.4425 20.7969 42.1932 20.843C41.9455 20.8875 41.6652 20.8811 41.3973 20.7799C41.2626 20.7332 41.1325 20.6625 41.0129 20.5731C40.8919 20.4852 40.7821 20.3759 40.6914 20.2492C40.5042 19.9994 40.3983 19.6772 40.3955 19.3456C40.3984 19.0141 40.5043 18.692 40.6915 18.4423C40.7822 18.3156 40.892 18.2064 41.0129 18.1185C41.1325 18.029 41.2625 17.9584 41.3972 17.9117C41.6649 17.8105 41.9453 17.8041 42.1929 17.8485C42.4423 17.8944 42.6577 18.0062 42.8273 18.1368C43.1699 18.4043 43.3161 18.7462 43.3679 18.9766C43.3841 19.0346 43.3897 19.0876 43.3957 19.1335C43.4033 19.1792 43.4049 19.2182 43.4048 19.2498C43.4064 19.3127 43.4062 19.3457 43.4043 19.3457Z" fill="#263238"/>
<path d="M40.4233 19.0058C40.4174 19.012 40.3821 18.9822 40.3172 18.9512C40.2529 18.9203 40.1567 18.89 40.0485 18.8919C39.9403 18.8934 39.8452 18.9273 39.7822 18.9607C39.7186 18.9941 39.6847 19.0256 39.6784 19.0196C39.6733 19.0155 39.698 18.9725 39.7616 18.9269C39.8242 18.8818 39.9275 18.8377 40.0475 18.8361C40.1675 18.8339 40.272 18.8742 40.3362 18.9168C40.4017 18.9597 40.4284 19.0014 40.4233 19.0058Z" fill="#263238"/>
<path d="M36.7845 19.2713C36.7937 19.2837 36.4944 19.5244 36.116 19.8088C35.7376 20.0934 35.4234 20.3139 35.4143 20.3015C35.4051 20.2891 35.7043 20.0485 36.0827 19.7639C36.4612 19.4795 36.7753 19.259 36.7845 19.2713Z" fill="#263238"/>
<g opacity="0.3">
<path d="M35.5223 26.2634C35.3739 27.7214 35.9243 29.2602 37.0854 30.1438C37.1765 30.2131 37.2908 30.2818 37.3982 30.2427C37.4728 30.2157 37.5206 30.1436 37.5601 30.0744C37.8911 29.4973 38.0022 28.8606 37.9063 28.2011C37.7224 28.6887 37.5646 29.1673 37.379 29.6773C36.3674 29.0587 35.7369 27.7432 35.5223 26.2634Z" fill="black"/>
</g>
<path opacity="0.3" d="M39.4526 29.5783L40.3045 29.2649L40.4456 30.7162C40.4456 30.7162 41.365 29.0286 41.7454 28.2586C42.1258 27.4887 41.9302 26.1298 41.9302 26.1298C41.9302 26.1298 42.0663 27.3134 41.145 28.8232L40.4496 29.9614V28.7693L39.4526 29.5783Z" fill="black"/>
<g opacity="0.3">
<path d="M29.5419 36.9542C29.1619 36.7735 28.7248 36.7492 28.3074 36.7982C27.8666 36.8499 27.4241 36.9858 27.0787 37.2665C26.7334 37.5472 26.4991 37.9895 26.5422 38.4344L26.5849 38.4405C26.8821 37.6302 27.4734 37.0405 28.236 36.9691C28.9984 36.8978 29.7424 37.2395 30.2658 37.8026C30.215 37.3824 29.9218 37.1349 29.5419 36.9542Z" fill="black"/>
</g>
<g opacity="0.3">
<path d="M51.087 37.7827C50.8015 37.4723 50.4004 37.2843 49.9866 37.2117C49.26 37.0841 48.4802 37.3114 47.9336 37.8103L48.0962 37.6774C48.5091 37.4341 48.9851 37.2897 49.4633 37.3033C49.9416 37.317 50.4202 37.4952 50.7666 37.8277C51.0851 38.1333 51.2765 38.546 51.459 38.949C51.5303 38.5321 51.3724 38.093 51.087 37.7827Z" fill="black"/>
</g>
<path d="M45.5948 31.0426C45.5913 31.0411 45.605 30.9994 45.633 30.9253C45.6659 30.8404 45.7064 30.7361 45.7541 30.613C45.8574 30.3498 45.9989 29.986 46.1484 29.5815C46.2977 29.1768 46.4268 28.8082 46.5195 28.541C46.5632 28.4164 46.6002 28.3109 46.6304 28.225C46.6573 28.1505 46.6739 28.1099 46.6776 28.1111C46.6812 28.1123 46.6716 28.155 46.651 28.2316C46.6305 28.3082 46.5984 28.4182 46.5567 28.5535C46.4735 28.8242 46.3501 29.1956 46.2004 29.601C46.0507 30.0063 45.903 30.3686 45.7904 30.6283C45.7341 30.7581 45.687 30.8626 45.6529 30.934C45.6189 31.0053 45.5983 31.0441 45.5948 31.0426Z" fill="#263238"/>
<path d="M32.1471 31.148C32.1321 31.1511 32.0161 30.6399 31.8882 30.0063C31.7602 29.3724 31.6687 28.8563 31.6837 28.8532C31.6988 28.8501 31.8147 29.3613 31.9426 29.9951C32.0706 30.6287 32.1621 31.145 32.1471 31.148Z" fill="#263238"/>
<path d="M31.9455 37.5385C31.9792 37.5557 31.5547 34.1908 31.5547 34.1908C31.5547 34.1908 31.8226 31.6373 31.9732 31.5192L31.9771 30.6183C31.9771 30.6183 32.3917 30.3653 32.5031 30.7737C32.5031 30.7737 32.8707 30.4522 32.935 31.2176C32.9992 31.983 33.0127 32.7652 33.0127 32.7652L33.8311 34.8261L33.9658 34.8948C33.9658 34.8948 34.1416 33.2802 34.2439 33.0426C34.3462 32.805 34.4162 32.2272 34.8042 32.3139C35.1921 32.4006 35.2244 32.7239 35.1547 33.2506C35.0849 33.7774 34.9981 34.3211 35.0304 34.6613C35.0627 35.0016 35.2162 35.7503 35.1691 36.3453C35.1219 36.9402 34.7985 37.5679 34.4589 38.0085C34.1194 38.4491 33.4707 39.3604 33.1182 39.635C32.9951 39.7309 31.9455 37.5385 31.9455 37.5385Z" fill="#FFBE9D"/>
<path d="M32.3588 34.8003C32.3549 34.8 32.3559 34.7488 32.361 34.6563C32.3681 34.5529 32.377 34.4219 32.3877 34.2654C32.4126 33.9355 32.4509 33.4802 32.4967 32.9777C32.5203 32.7271 32.5428 32.4884 32.5634 32.2693C32.574 32.161 32.5807 32.0587 32.5671 31.9656C32.5542 31.8725 32.5179 31.7917 32.4651 31.7334C32.3571 31.6154 32.2181 31.5855 32.131 31.5857C32.0408 31.585 31.9935 31.6097 31.9917 31.6036C31.991 31.6018 32.0023 31.5959 32.0249 31.586C32.0479 31.5776 32.0831 31.5665 32.1303 31.5639C32.2217 31.5572 32.3713 31.5809 32.4938 31.7064C32.5542 31.7686 32.5971 31.8588 32.6125 31.9583C32.6293 32.058 32.6235 32.1649 32.6143 32.274C32.5951 32.493 32.5741 32.7319 32.5521 32.9828C32.5063 33.4853 32.4618 33.9401 32.4269 34.269C32.4092 34.4249 32.3944 34.5554 32.3827 34.6582C32.3709 34.7501 32.3626 34.8007 32.3588 34.8003Z" fill="#EB996E"/>
<path d="M32.7988 33.4242C32.8068 33.431 32.7156 33.5118 32.654 33.6899C32.588 33.8653 32.5643 34.1288 32.518 34.4162C32.4739 34.7039 32.4309 34.9638 32.3971 35.1516C32.3633 35.3392 32.3386 35.4548 32.331 35.4536C32.3234 35.4525 32.3344 35.3348 32.3583 35.1455C32.3822 34.9563 32.419 34.6954 32.463 34.4077C32.5093 34.1219 32.5391 33.8561 32.6174 33.6756C32.6544 33.5856 32.6996 33.5196 32.7357 33.4793C32.7714 33.4384 32.797 33.4222 32.7988 33.4242Z" fill="#EB996E"/>
<path d="M32.4979 30.7295C32.5016 30.7288 32.5116 30.7665 32.5263 30.8353C32.5413 30.904 32.5598 31.0042 32.5802 31.1284C32.6209 31.3766 32.6656 31.7217 32.6939 32.1048C32.7219 32.4881 32.728 32.836 32.7239 33.0876C32.7219 33.2134 32.7182 33.3152 32.7134 33.3854C32.7088 33.4557 32.7046 33.4945 32.7007 33.4944C32.6925 33.4941 32.6907 33.3387 32.6846 33.0878C32.6787 32.837 32.6663 32.4907 32.6384 32.109C32.6103 31.7274 32.5721 31.383 32.5413 31.1339C32.5105 30.8849 32.4897 30.7309 32.4979 30.7295Z" fill="#EB996E"/>
<path d="M34.8587 33.8841C34.8668 33.8968 34.7391 33.9566 34.583 33.9076C34.4265 33.8606 34.3536 33.7392 34.3674 33.7331C34.3796 33.7224 34.4617 33.8136 34.5993 33.8541C34.7359 33.8979 34.8544 33.8683 34.8587 33.8841Z" fill="#EB996E"/>
<path d="M31.9917 37.1201L29.8297 38.0351H28.5417C28.5417 38.0351 27.2676 38.4355 27.0716 39.6384C26.8756 40.8413 26.8476 41.4603 27.4076 41.6091C27.9676 41.7579 29.5498 41.7743 30.3338 41.5123C31.1178 41.2503 33.1717 39.5811 33.1717 39.5811L33.3696 38.3736L31.9917 37.1201Z" fill="#FFBE9D"/>
<path d="M32.4979 38.4494C32.4951 38.452 32.4735 38.4318 32.4365 38.3926C32.3981 38.3545 32.3508 38.2922 32.2961 38.2126C32.1892 38.0519 32.0722 37.8081 31.9941 37.5239C31.9133 37.2403 31.8788 36.9751 31.8609 36.7839C31.8445 36.5923 31.8454 36.4732 31.8525 36.4728C31.8607 36.4723 31.8736 36.5901 31.8998 36.7794C31.9276 36.9682 31.9679 37.2294 32.0475 37.5085C32.1244 37.7884 32.2328 38.0286 32.3292 38.1915C32.4264 38.3542 32.5056 38.4424 32.4979 38.4494Z" fill="#EB996E"/>
<path d="M33.4392 38.8312C33.4276 38.8269 33.525 38.6614 33.5624 38.3644C33.5804 38.2169 33.5788 38.0375 33.5369 37.846C33.4956 37.654 33.4044 37.4562 33.2721 37.2717C33.1407 37.0862 32.993 36.9249 32.8686 36.7687C32.7428 36.6133 32.6422 36.4613 32.5763 36.3237C32.51 36.1861 32.4793 36.0646 32.4679 35.9803C32.457 35.8955 32.4614 35.8483 32.4642 35.8483C32.4751 35.846 32.4713 36.0404 32.6113 36.3059C32.68 36.4379 32.7814 36.5842 32.908 36.736C33.0335 36.889 33.1828 37.0497 33.3172 37.2393C33.4526 37.4277 33.5471 37.6359 33.5869 37.835C33.6274 38.034 33.6247 38.2191 33.6013 38.3698C33.5778 38.521 33.5365 38.6383 33.5022 38.7157C33.4856 38.7549 33.4697 38.7837 33.4585 38.8031C33.4476 38.8224 33.4409 38.8321 33.4392 38.8312Z" fill="#EB996E"/>
<path d="M30.1066 33.5883C30.0929 33.5953 29.8571 33.1631 29.5797 32.6229C29.3023 32.0825 29.0885 31.6389 29.1022 31.6318C29.1158 31.6247 29.3517 32.0569 29.629 32.5972C29.9064 33.1374 30.1202 33.5812 30.1066 33.5883Z" fill="white"/>
<path d="M33.603 29.6682C33.589 29.6618 33.7348 29.3015 33.9286 28.8633C34.1225 28.425 34.291 28.0748 34.3051 28.0811C34.319 28.0875 34.1733 28.4478 33.9794 28.8861C33.7856 29.3243 33.6171 29.6744 33.603 29.6682Z" fill="white"/>
<path d="M37.027 32.2123C37.0152 32.2222 36.7958 31.9749 36.5371 31.6601C36.2782 31.3452 36.0781 31.082 36.0898 31.0722C36.1017 31.0623 36.321 31.3096 36.5799 31.6244C36.8386 31.9392 37.0389 32.2025 37.027 32.2123Z" fill="white"/>
<path d="M36.2394 35.7115C36.227 35.7025 36.3924 35.4515 36.6086 35.1511C36.825 34.8507 37.0104 34.6144 37.0229 34.6235C37.0353 34.6326 36.87 34.8835 36.6536 35.184C36.4373 35.4844 36.2519 35.7205 36.2394 35.7115Z" fill="white"/>
<path d="M35.1787 40.6539C35.172 40.6572 35.1234 40.5751 35.0535 40.438C34.9834 40.3009 34.8926 40.1085 34.8012 39.8921C34.7099 39.6755 34.6353 39.4761 34.5861 39.3302C34.5367 39.1843 34.5117 39.0922 34.5187 39.0897C34.5261 39.087 34.5642 39.1743 34.6229 39.3163C34.6898 39.4778 34.7671 39.6643 34.8524 39.8703C34.9403 40.075 35.02 40.2606 35.089 40.4212C35.1497 40.5622 35.1857 40.6504 35.1787 40.6539Z" fill="white"/>
<path d="M38.1915 38.5528C38.1886 38.5679 37.8985 38.5242 37.5439 38.455C37.1891 38.3858 36.9039 38.3175 36.9068 38.3023C36.9096 38.2872 37.1996 38.3309 37.5544 38.4001C37.9091 38.4693 38.1943 38.5376 38.1915 38.5528Z" fill="white"/>
<path d="M40.5277 33.9346C40.5165 33.9241 40.7929 33.6053 41.1452 33.2228C41.4975 32.84 41.7922 32.5385 41.8034 32.549C41.8146 32.5595 41.5382 32.8782 41.1859 33.2608C40.8336 33.6435 40.5389 33.9451 40.5277 33.9346Z" fill="white"/>
<path d="M42.8781 40.0938C42.8663 40.1036 42.5213 39.7016 42.1078 39.1959C41.694 38.6902 41.3684 38.2723 41.3802 38.2624C41.392 38.2526 41.7369 38.6545 42.1507 39.1603C42.5642 39.666 42.89 40.0839 42.8781 40.0938Z" fill="white"/>
<path d="M28.2876 37.4686C28.2955 37.484 27.9803 37.645 27.637 37.9103C27.2919 38.1739 27.0546 38.4374 27.0419 38.4257C27.0365 38.4209 27.0892 38.349 27.1869 38.2433C27.2845 38.1375 27.4291 37.9999 27.6033 37.8659C27.7776 37.7321 27.9476 37.6281 28.0745 37.5613C28.2017 37.4944 28.2845 37.4623 28.2876 37.4686Z" fill="white"/>
<path d="M29.1666 35.0948C29.1794 35.1034 29.0672 35.2959 28.916 35.5248C28.7649 35.7537 28.632 35.9324 28.6192 35.9238C28.6064 35.9152 28.7186 35.7228 28.8697 35.4937C29.0209 35.2649 29.1538 35.0862 29.1666 35.0948Z" fill="white"/>
<path d="M31.1467 37.4259C31.1346 37.4331 31.0234 37.2453 30.9654 36.9846C30.9059 36.7243 30.9254 36.5065 30.9395 36.5078C30.956 36.5078 30.9616 36.7198 31.0195 36.9723C31.0756 37.2251 31.1617 37.4188 31.1467 37.4259Z" fill="white"/>
<path d="M31.44 30.0218C31.4422 30.037 31.2582 30.076 31.0291 30.1089C30.8 30.1416 30.6125 30.1558 30.6104 30.1406C30.6082 30.1253 30.7921 30.0863 31.0214 30.0534C31.2504 30.0207 31.4379 30.0065 31.44 30.0218Z" fill="white"/>
<path d="M32.9273 27.3656C32.9347 27.3791 32.7737 27.4833 32.5676 27.5984C32.3614 27.7134 32.1884 27.7957 32.1809 27.7822C32.1734 27.7686 32.3345 27.6644 32.5407 27.5494C32.7467 27.4343 32.9198 27.352 32.9273 27.3656Z" fill="white"/>
<path d="M37.1094 28.4876C37.0972 28.4969 36.9129 28.274 36.698 27.9896C36.4829 27.7051 36.3185 27.4671 36.3307 27.4577C36.3429 27.4484 36.5271 27.6713 36.7422 27.9558C36.9572 28.2401 37.1217 28.4782 37.1094 28.4876Z" fill="white"/>
<path d="M42.4185 31.1588C42.4082 31.1686 42.2143 30.9676 42.0344 30.675C41.8533 30.3831 41.76 30.1192 41.7732 30.1141C41.7884 30.1076 41.9031 30.3581 42.0816 30.6455C42.2585 30.9335 42.431 31.148 42.4185 31.1588Z" fill="white"/>
<path d="M44.4448 31.8315C44.4588 31.8378 44.3603 32.0867 44.225 32.3872C44.0895 32.6878 43.9684 32.9262 43.9544 32.9198C43.9405 32.9135 44.0389 32.6647 44.1744 32.3641C44.3098 32.0636 44.4308 31.8251 44.4448 31.8315Z" fill="white"/>
<path d="M44.7284 29.0458C44.7166 29.0557 44.4753 28.7833 44.1895 28.4374C43.9037 28.0913 43.6815 27.8029 43.6933 27.793C43.7052 27.7831 43.9463 28.0556 44.2323 28.4016C44.5181 28.7475 44.7403 29.036 44.7284 29.0458Z" fill="white"/>
<path d="M41.6335 26.7831C41.6182 26.7838 41.5966 26.5506 41.5853 26.2625C41.574 25.9743 41.5773 25.7403 41.5927 25.7397C41.6081 25.739 41.6296 25.9721 41.6409 26.2603C41.6521 26.5484 41.6488 26.7825 41.6335 26.7831Z" fill="white"/>
<path d="M44.1566 26.6422C44.1587 26.6575 43.8637 26.7098 43.4981 26.7591C43.1322 26.8084 42.8341 26.8359 42.832 26.8205C42.83 26.8051 43.1248 26.7528 43.4907 26.7036C43.8565 26.6543 44.1546 26.6268 44.1566 26.6422Z" fill="white"/>
<path d="M48.1312 29.5824C48.1174 29.5891 47.9399 29.2485 47.7349 28.8217C47.5298 28.3948 47.3748 28.0432 47.3885 28.0365C47.4023 28.0297 47.5798 28.3703 47.7848 28.7973C47.9898 29.2242 48.1449 29.5757 48.1312 29.5824Z" fill="white"/>
<path d="M47.4621 32.1231C47.447 32.1201 47.4886 31.8462 47.555 31.5116C47.6213 31.1768 47.6873 30.9081 47.7024 30.9111C47.7174 30.9141 47.6758 31.1878 47.6095 31.5226C47.5431 31.8572 47.4771 32.1261 47.4621 32.1231Z" fill="white"/>
<path d="M49.3055 34.1259C49.291 34.1311 49.1493 33.7614 48.9892 33.3005C48.829 32.8394 48.7108 32.4616 48.7253 32.4565C48.7398 32.4513 48.8814 32.8209 49.0417 33.282C49.2018 33.743 49.3199 34.1208 49.3055 34.1259Z" fill="white"/>
<path d="M49.0487 35.2973C49.046 35.3111 48.7902 35.2574 48.5099 35.1033C48.2285 34.9509 48.0442 34.7645 48.0541 34.7547C48.065 34.7418 48.2616 34.9054 48.5363 35.0541C48.8099 35.2047 49.0535 35.2812 49.0487 35.2973Z" fill="white"/>
<path d="M51.41 37.9688C51.396 37.9751 51.3103 37.8119 51.2187 37.6046C51.1271 37.3972 51.0641 37.224 51.0781 37.2176C51.0921 37.2113 51.1777 37.3744 51.2694 37.5818C51.361 37.7893 51.4239 37.9626 51.41 37.9688Z" fill="white"/>
<path d="M37.4623 41.6941C37.4471 41.6959 37.41 41.4829 37.3795 41.2185C37.3489 40.9539 37.3365 40.7381 37.3517 40.7363C37.367 40.7345 37.4041 40.9474 37.4346 41.212C37.4652 41.4764 37.4776 41.6923 37.4623 41.6941Z" fill="white"/>
<path d="M44.7084 41.5097C44.6933 41.5065 44.7246 41.2982 44.7781 41.0446C44.8317 40.7908 44.8872 40.5878 44.9023 40.591C44.9173 40.5942 44.8861 40.8024 44.8324 41.0562C44.7789 41.3098 44.7233 41.513 44.7084 41.5097Z" fill="white"/>
<path d="M46.0977 20.2076L47.0346 18.5446C46.6201 17.867 46.3805 17.0693 46.3805 16.2151C46.3805 13.7584 48.3579 11.7669 50.7971 11.7669C53.2363 11.7669 55.2136 13.7584 55.2136 16.2151C55.2136 18.6717 53.2362 20.6632 50.7971 20.6632C49.7785 20.6632 48.8413 20.315 48.0941 19.7317L48.0956 19.7336L46.0977 20.2076Z" fill="#FAFAFA"/>
<path d="M46.0977 20.2076C46.1926 20.1858 46.8251 20.0402 48.0988 19.747L48.1193 19.7423L48.1065 19.7253L48.105 19.7234L48.0859 19.7425C48.3379 19.9391 48.6396 20.1328 48.9944 20.2942C49.3496 20.4528 49.7565 20.5824 50.2058 20.6426C50.4301 20.6715 50.6645 20.69 50.9053 20.6782C51.0257 20.6713 51.1482 20.6684 51.2717 20.658C51.3945 20.6393 51.5189 20.6204 51.6451 20.6012C52.1453 20.5017 52.6568 20.3105 53.1338 20.0124C53.6106 19.7153 54.0521 19.3118 54.406 18.8162C54.7593 18.3213 55.0273 17.7347 55.1527 17.0971C55.277 16.4604 55.2666 15.7781 55.1005 15.1176C54.9334 14.4595 54.6211 13.8165 54.1535 13.2876L53.9731 13.0876C53.9138 13.0204 53.843 12.965 53.7787 12.9033C53.7114 12.845 53.6507 12.7789 53.5784 12.7273L53.3663 12.5677C53.2977 12.5118 53.222 12.4667 53.1468 12.4215C53.0719 12.3757 52.9972 12.3299 52.9226 12.2844C52.8442 12.246 52.766 12.2078 52.6879 12.1697C52.6092 12.1331 52.5335 12.0898 52.451 12.0636C51.8092 11.8071 51.1248 11.7093 50.4706 11.7571C49.8162 11.8046 49.1899 11.9937 48.6527 12.2983C48.1139 12.6003 47.6595 13.0037 47.3088 13.4543C46.957 13.9051 46.7091 14.4022 46.5557 14.8973C46.4032 15.3947 46.362 15.888 46.3637 16.3446C46.3768 16.8023 46.4596 17.224 46.58 17.5941C46.7007 17.9647 46.8594 18.2834 47.0231 18.5516L47.0229 18.5381C46.4319 19.6045 46.143 20.1257 46.0977 20.2076C46.1442 20.1264 46.4403 19.6092 47.0459 18.5511L47.0498 18.5445L47.0457 18.5377C46.8847 18.27 46.729 17.9524 46.6109 17.584C46.4932 17.216 46.413 16.7974 46.4017 16.3434C46.4018 15.8906 46.4442 15.402 46.5966 14.9098C46.75 14.42 46.9966 13.9286 47.3458 13.4833C47.6938 13.0382 48.1441 12.6402 48.6773 12.3423C49.2088 12.042 49.8279 11.8561 50.4746 11.8098C51.1213 11.7633 51.7974 11.8603 52.4311 12.114C52.5126 12.1399 52.5874 12.1828 52.665 12.2189C52.742 12.2566 52.8194 12.2944 52.8968 12.3323C52.9704 12.3773 53.0442 12.4226 53.1181 12.4678C53.1925 12.5126 53.2673 12.5571 53.335 12.6123L53.5445 12.77C53.6159 12.8209 53.6758 12.8862 53.7422 12.9438C53.8057 13.0048 53.8757 13.0595 53.9341 13.1259L54.1124 13.3234C54.5742 13.8459 54.8827 14.4809 55.0482 15.1308C55.2124 15.783 55.2232 16.4574 55.1012 17.0866C54.9779 17.7166 54.7138 18.2967 54.3653 18.7865C54.0162 19.2771 53.5802 19.677 53.1092 19.972C52.6378 20.268 52.1321 20.4585 51.637 20.5585C51.5122 20.5779 51.389 20.597 51.2675 20.6159C51.1451 20.6266 51.0237 20.6299 50.9045 20.6371C50.6659 20.6496 50.4335 20.6319 50.211 20.6042C49.7654 20.5462 49.3613 20.4194 49.0079 20.2637C48.6551 20.1052 48.3543 19.9145 48.1026 19.7207L48.0203 19.6573L48.0835 19.7398L48.085 19.7418L48.0926 19.7202C46.8228 20.0305 46.1922 20.1845 46.0977 20.2076Z" fill="#263238"/>
<path d="M51.9897 16.0295C51.9897 16.2696 52.1829 16.4641 52.4213 16.4641C52.6597 16.4641 52.853 16.2696 52.853 16.0295C52.853 15.7894 52.6598 15.5948 52.4213 15.5948C52.1829 15.5948 51.9897 15.7894 51.9897 16.0295Z" fill="#263238"/>
<path d="M50.2627 16.0295C50.2627 16.2696 50.456 16.4641 50.6943 16.4641C50.9327 16.4641 51.1259 16.2696 51.1259 16.0295C51.1259 15.7894 50.9328 15.5948 50.6943 15.5948C50.456 15.5948 50.2627 15.7894 50.2627 16.0295Z" fill="#263238"/>
<path d="M48.5398 15.8122C48.4207 16.02 48.4914 16.2859 48.6978 16.406C48.9043 16.526 49.1682 16.4548 49.2874 16.2469C49.4066 16.039 49.3359 15.7732 49.1295 15.6532C48.923 15.5329 48.659 15.6042 48.5398 15.8122Z" fill="#263238"/>
</svg>
