<svg width="21" height="20" viewBox="0 0 21 20" fill="none" xmlns="http://www.w3.org/2000/svg">
<g id="Component 12">
<path id="Vector" d="M18.625 16.25C18.625 16.4158 18.5592 16.5747 18.4419 16.6919C18.3247 16.8092 18.1658 16.875 18 16.875H3C2.83424 16.875 2.67527 16.8092 2.55806 16.6919C2.44085 16.5747 2.375 16.4158 2.375 16.25C2.375 16.0842 2.44085 15.9253 2.55806 15.8081C2.67527 15.6908 2.83424 15.625 3 15.625H3.625V10.625C3.625 10.4592 3.69085 10.3003 3.80806 10.1831C3.92527 10.0658 4.08424 10 4.25 10H6.125C6.29076 10 6.44973 10.0658 6.56694 10.1831C6.68415 10.3003 6.75 10.4592 6.75 10.625V15.625H8V6.875C8 6.70924 8.06585 6.55027 8.18306 6.43306C8.30027 6.31585 8.45924 6.25 8.625 6.25H11.125C11.2908 6.25 11.4497 6.31585 11.5669 6.43306C11.6842 6.55027 11.75 6.70924 11.75 6.875V15.625H13V3.125C13 2.95924 13.0658 2.80027 13.1831 2.68306C13.3003 2.56585 13.4592 2.5 13.625 2.5H16.75C16.9158 2.5 17.0747 2.56585 17.1919 2.68306C17.3092 2.80027 17.375 2.95924 17.375 3.125V15.625H18C18.1658 15.625 18.3247 15.6908 18.4419 15.8081C18.5592 15.9253 18.625 16.0842 18.625 16.25Z" fill="#0494FD"/>
</g>
</svg>
