<svg width="21" height="20" viewBox="0 0 21 20" fill="none" xmlns="http://www.w3.org/2000/svg">
<g id="Component 12">
<path id="Vector" d="M18 15.625H17.375V3.125C17.375 2.95924 17.3092 2.80027 17.1919 2.68306C17.0747 2.56585 16.9158 2.5 16.75 2.5H12.375C12.2092 2.5 12.0503 2.56585 11.9331 2.68306C11.8158 2.80027 11.75 2.95924 11.75 3.125V6.25H8C7.83424 6.25 7.67527 6.31585 7.55806 6.43306C7.44085 6.55027 7.375 6.70924 7.375 6.875V10H4.25C4.08424 10 3.92527 10.0658 3.80806 10.1831C3.69085 10.3003 3.625 10.4592 3.625 10.625V15.625H3C2.83424 15.625 2.67527 15.6908 2.55806 15.8081C2.44085 15.9253 2.375 16.0842 2.375 16.25C2.375 16.4158 2.44085 16.5747 2.55806 16.6919C2.67527 16.8092 2.83424 16.875 3 16.875H18C18.1658 16.875 18.3247 16.8092 18.4419 16.6919C18.5592 16.5747 18.625 16.4158 18.625 16.25C18.625 16.0842 18.5592 15.9253 18.4419 15.8081C18.3247 15.6908 18.1658 15.625 18 15.625ZM13 3.75H16.125V15.625H13V3.75ZM8.625 7.5H11.75V15.625H8.625V7.5ZM4.875 11.25H7.375V15.625H4.875V11.25Z" fill="black"/>
</g>
</svg>
