<svg width="137" height="121" viewBox="0 0 137 121" fill="none" xmlns="http://www.w3.org/2000/svg">
<path d="M3.18638 51.3176C5.22194 53.3531 7.98298 54.4971 10.8621 54.4971C13.0251 54.4971 15.1209 53.8514 16.893 52.6671L9.16564 60.3945C7.13008 62.4301 5.98609 65.1911 5.98609 68.0702C5.98609 70.9493 7.12967 73.7104 9.16564 75.7459C11.2012 77.7815 13.9622 78.9255 16.8413 78.9255C19.0039 78.9255 21.1001 78.2798 22.8723 77.0959L18.8166 81.1516C16.7811 83.1871 15.6371 85.9482 15.6371 88.8272C15.6371 91.7063 16.7807 94.4674 18.8166 96.5029C20.8522 98.5385 23.6132 99.6825 26.4923 99.6825C28.6549 99.6825 30.7511 99.0368 32.5233 97.8529L31.5324 98.8438C29.4968 100.879 28.3528 103.64 28.3528 106.52C28.3528 109.399 29.4964 112.16 31.5324 114.195C33.5679 116.231 36.329 117.375 39.2081 117.375C42.0872 117.375 44.8482 116.231 46.8838 114.195L57.1703 103.909C55.986 105.681 55.3407 107.777 55.3407 109.94C55.3407 112.819 56.4843 115.58 58.5203 117.615C60.5558 119.651 63.3169 120.795 66.196 120.795C69.0751 120.795 71.8361 119.651 73.8717 117.615L89.5011 101.986C88.3168 103.758 87.6715 105.854 87.6715 108.017C87.6715 110.896 88.8151 113.657 90.8511 115.693C92.8867 117.728 95.6477 118.872 98.5268 118.872C101.406 118.872 104.167 117.729 106.202 115.693L130.534 91.3607C132.57 89.3251 133.714 86.5641 133.714 83.685C133.714 80.8059 132.57 78.0449 130.534 76.0093C128.499 73.9738 125.738 72.8298 122.859 72.8298C120.696 72.8298 118.6 73.4755 116.828 74.6593L121.921 69.5659C123.957 67.5304 125.101 64.7694 125.101 61.8903C125.101 59.0112 123.957 56.2501 121.921 54.2146C119.886 52.179 117.124 51.035 114.245 51.035C112.083 51.035 109.987 51.6807 108.214 52.8646L118.501 42.5781C120.536 40.5425 121.68 37.7815 121.68 34.9024C121.68 32.0233 120.537 29.2622 118.501 27.2267C116.465 25.1911 113.704 24.0471 110.825 24.0471C108.663 24.0471 106.566 24.6928 104.794 25.8767L111.345 19.3259C113.381 17.2903 114.525 14.5293 114.525 11.6502C114.525 8.77106 113.381 6.01003 111.345 3.97447C109.31 1.93891 106.549 0.794922 103.669 0.794922C100.79 0.794922 98.0293 1.9385 95.9937 3.97447L81.402 18.5662C82.5863 16.794 83.2316 14.6978 83.2316 12.5352C83.2316 9.65613 82.088 6.89509 80.052 4.85953C78.0165 2.82397 75.2554 1.67998 72.3763 1.67998C69.4972 1.67998 66.7362 2.82356 64.7006 4.85953L44.2192 25.3409C45.4035 23.5688 46.0492 21.4726 46.0492 19.3096C46.0492 16.4305 44.9056 13.6694 42.8696 11.6339C40.8341 9.59832 38.0731 8.45433 35.194 8.45433C32.3149 8.45433 29.5538 9.59791 27.5183 11.6339L3.18638 35.9658C1.15082 38.0013 0.00683594 40.7623 0.00683594 43.6414C0.00683594 46.5205 1.15041 49.2816 3.18638 51.3171V51.3176Z" fill="white"/>
<path d="M133.394 97.5863L132.643 98.3374C132.349 98.6309 132.349 99.1068 132.643 99.4004C132.936 99.6939 133.412 99.6939 133.706 99.4004L134.457 98.6493L135.208 99.4004C135.502 99.6939 135.977 99.6939 136.271 99.4004C136.565 99.1068 136.565 98.6309 136.271 98.3374L135.52 97.5863L136.271 96.8352C136.565 96.5416 136.565 96.0657 136.271 95.7722C136.124 95.6252 135.932 95.5519 135.739 95.5519C135.547 95.5519 135.355 95.6252 135.208 95.7722L134.457 96.5233L133.705 95.7722C133.558 95.6252 133.366 95.5519 133.174 95.5519C132.981 95.5519 132.789 95.6252 132.642 95.7722C132.348 96.0657 132.348 96.5416 132.642 96.8352L133.393 97.5863H133.394Z" fill="white"/>
<path d="M26.0688 113.769L25.3176 114.52C25.0241 114.813 25.0241 115.289 25.3176 115.583C25.6112 115.876 26.0871 115.876 26.3806 115.583L27.1317 114.832L27.8829 115.583C28.1764 115.876 28.6523 115.876 28.9458 115.583C29.2394 115.289 29.2394 114.813 28.9458 114.52L28.1947 113.769L28.9458 113.017C29.2394 112.724 29.2394 112.248 28.9458 111.954C28.7989 111.808 28.6067 111.734 28.4141 111.734C28.2216 111.734 28.0294 111.808 27.8824 111.954L27.1313 112.706L26.3802 111.954C26.2332 111.808 26.0411 111.734 25.8485 111.734C25.656 111.734 25.4638 111.808 25.3168 111.954C25.0233 112.248 25.0233 112.724 25.3168 113.017L26.0679 113.769H26.0688Z" fill="white"/>
<path d="M6.8505 47.1919L6.09938 47.943C5.80585 48.2365 5.80585 48.7124 6.09938 49.006C6.39291 49.2995 6.86882 49.2995 7.16235 49.006L7.91347 48.2548L8.66459 49.006C8.95812 49.2995 9.43404 49.2995 9.72756 49.006C10.0211 48.7124 10.0211 48.2365 9.72756 47.943L8.97644 47.1919L9.72756 46.4408C10.0211 46.1472 10.0211 45.6713 9.72756 45.3778C9.5806 45.2308 9.38844 45.1575 9.19587 45.1575C9.00331 45.1575 8.81115 45.2308 8.66419 45.3778L7.91306 46.1289L7.16194 45.3778C7.01497 45.2308 6.82282 45.1575 6.63025 45.1575C6.43769 45.1575 6.24553 45.2308 6.09856 45.3778C5.80504 45.6713 5.80504 46.1472 6.09856 46.4408L6.84969 47.1919H6.8505Z" fill="white"/>
<path d="M97.2533 8.59071L96.5022 9.34183C96.2087 9.63536 96.2087 10.1113 96.5022 10.4048C96.7957 10.6983 97.2716 10.6983 97.5652 10.4048L98.3163 9.65368L99.0674 10.4048C99.361 10.6983 99.8369 10.6983 100.13 10.4048C100.424 10.1113 100.424 9.63536 100.13 9.34183L99.3793 8.59071L100.13 7.83958C100.424 7.54606 100.424 7.07014 100.13 6.77662C99.9834 6.62965 99.7913 6.55637 99.5987 6.55637C99.4061 6.55637 99.214 6.62965 99.067 6.77662L98.3159 7.52774L97.5648 6.77662C97.4178 6.62965 97.2256 6.55637 97.0331 6.55637C96.8405 6.55637 96.6484 6.62965 96.5014 6.77662C96.2079 7.07014 96.2079 7.54606 96.5014 7.83958L97.2525 8.59071H97.2533Z" fill="white"/>
<path d="M83.5016 114.816C84.7124 114.816 85.6976 115.801 85.6976 117.012C85.6976 118.222 84.7124 119.208 83.5016 119.208C82.2909 119.208 81.3057 118.222 81.3057 117.012C81.3057 115.801 82.2909 114.816 83.5016 114.816ZM83.5016 117.704C83.8835 117.704 84.1941 117.394 84.1941 117.012C84.1941 116.63 83.8835 116.319 83.5016 116.319C83.1198 116.319 82.8091 116.63 82.8091 117.012C82.8091 117.394 83.1198 117.704 83.5016 117.704Z" fill="white"/>
<path d="M124.888 44.8424C126.099 44.8424 127.084 45.8276 127.084 47.0384C127.084 48.2492 126.099 49.2344 124.888 49.2344C123.678 49.2344 122.692 48.2492 122.692 47.0384C122.692 45.8276 123.678 44.8424 124.888 44.8424ZM124.888 47.7309C125.27 47.7309 125.581 47.4203 125.581 47.0384C125.581 46.6565 125.27 46.3459 124.888 46.3459C124.506 46.3459 124.196 46.6565 124.196 47.0384C124.196 47.4203 124.506 47.7309 124.888 47.7309Z" fill="white"/>
<path d="M32.9601 9.59912C34.1709 9.59912 35.1561 10.5843 35.1561 11.7951C35.1561 13.0058 34.1709 13.991 32.9601 13.991C31.7494 13.991 30.7642 13.0058 30.7642 11.7951C30.7642 10.5843 31.7494 9.59912 32.9601 9.59912ZM32.9601 12.4876C33.342 12.4876 33.6526 12.177 33.6526 11.7951C33.6526 11.4132 33.342 11.1026 32.9601 11.1026C32.5783 11.1026 32.2676 11.4132 32.2676 11.7951C32.2676 12.177 32.5783 12.4876 32.9601 12.4876Z" fill="white"/>
<path d="M7.37809 78.163C8.58884 78.163 9.57405 79.1482 9.57405 80.3589C9.57405 81.5697 8.58884 82.5549 7.37809 82.5549C6.16734 82.5549 5.18213 81.5697 5.18213 80.3589C5.18213 79.1482 6.16734 78.163 7.37809 78.163ZM7.37809 81.0514C7.75996 81.0514 8.07059 80.7408 8.07059 80.3589C8.07059 79.9771 7.75996 79.6664 7.37809 79.6664C6.99622 79.6664 6.68559 79.9771 6.68559 80.3589C6.68559 80.7408 6.99622 81.0514 7.37809 81.0514Z" fill="white"/>
<path d="M3.18638 51.3176C5.22194 53.3531 7.98298 54.4971 10.8621 54.4971C13.0251 54.4971 15.1209 53.8514 16.893 52.6671L9.16564 60.3945C7.13008 62.4301 5.98609 65.1911 5.98609 68.0702C5.98609 70.9493 7.12967 73.7104 9.16564 75.7459C11.2012 77.7815 13.9622 78.9255 16.8413 78.9255C19.0039 78.9255 21.1001 78.2798 22.8723 77.0959L18.8166 81.1516C16.7811 83.1871 15.6371 85.9482 15.6371 88.8272C15.6371 91.7063 16.7807 94.4674 18.8166 96.5029C20.8522 98.5385 23.6132 99.6825 26.4923 99.6825C28.6549 99.6825 30.7511 99.0368 32.5233 97.8529L31.5324 98.8438C29.4968 100.879 28.3528 103.64 28.3528 106.52C28.3528 109.399 29.4964 112.16 31.5324 114.195C33.5679 116.231 36.329 117.375 39.2081 117.375C42.0872 117.375 44.8482 116.231 46.8838 114.195L57.1703 103.909C55.986 105.681 55.3407 107.777 55.3407 109.94C55.3407 112.819 56.4843 115.58 58.5203 117.615C60.5558 119.651 63.3169 120.795 66.196 120.795C69.0751 120.795 71.8361 119.651 73.8717 117.615L89.5011 101.986C88.3168 103.758 87.6715 105.854 87.6715 108.017C87.6715 110.896 88.8151 113.657 90.8511 115.693C92.8867 117.728 95.6477 118.872 98.5268 118.872C101.406 118.872 104.167 117.729 106.202 115.693L130.534 91.3607C132.57 89.3251 133.714 86.5641 133.714 83.685C133.714 80.8059 132.57 78.0449 130.534 76.0093C128.499 73.9738 125.738 72.8298 122.859 72.8298C120.696 72.8298 118.6 73.4755 116.828 74.6593L121.921 69.5659C123.957 67.5304 125.101 64.7694 125.101 61.8903C125.101 59.0112 123.957 56.2501 121.921 54.2146C119.886 52.179 117.124 51.035 114.245 51.035C112.083 51.035 109.987 51.6807 108.214 52.8646L118.501 42.5781C120.536 40.5425 121.68 37.7815 121.68 34.9024C121.68 32.0233 120.537 29.2622 118.501 27.2267C116.465 25.1911 113.704 24.0471 110.825 24.0471C108.663 24.0471 106.566 24.6928 104.794 25.8767L111.345 19.3259C113.381 17.2903 114.525 14.5293 114.525 11.6502C114.525 8.77106 113.381 6.01003 111.345 3.97447C109.31 1.93891 106.549 0.794922 103.669 0.794922C100.79 0.794922 98.0293 1.9385 95.9937 3.97447L81.402 18.5662C82.5863 16.794 83.2316 14.6978 83.2316 12.5352C83.2316 9.65613 82.088 6.89509 80.052 4.85953C78.0165 2.82397 75.2554 1.67998 72.3763 1.67998C69.4972 1.67998 66.7362 2.82356 64.7006 4.85953L44.2192 25.3409C45.4035 23.5688 46.0492 21.4726 46.0492 19.3096C46.0492 16.4305 44.9056 13.6694 42.8696 11.6339C40.8341 9.59832 38.0731 8.45433 35.194 8.45433C32.3149 8.45433 29.5538 9.59791 27.5183 11.6339L3.18638 35.9658C1.15082 38.0013 0.00683594 40.7623 0.00683594 43.6414C0.00683594 46.5205 1.15041 49.2816 3.18638 51.3171V51.3176Z" fill="#ECF2F6"/>
<path d="M133.394 97.5863L132.643 98.3374C132.349 98.6309 132.349 99.1068 132.643 99.4004C132.936 99.6939 133.412 99.6939 133.706 99.4004L134.457 98.6493L135.208 99.4004C135.502 99.6939 135.977 99.6939 136.271 99.4004C136.565 99.1068 136.565 98.6309 136.271 98.3374L135.52 97.5863L136.271 96.8352C136.565 96.5416 136.565 96.0657 136.271 95.7722C136.124 95.6252 135.932 95.5519 135.739 95.5519C135.547 95.5519 135.355 95.6252 135.208 95.7722L134.457 96.5233L133.705 95.7722C133.558 95.6252 133.366 95.5519 133.174 95.5519C132.981 95.5519 132.789 95.6252 132.642 95.7722C132.348 96.0657 132.348 96.5416 132.642 96.8352L133.393 97.5863H133.394Z" fill="#0494FD"/>
<path d="M26.0688 113.769L25.3176 114.52C25.0241 114.813 25.0241 115.289 25.3176 115.583C25.6112 115.876 26.0871 115.876 26.3806 115.583L27.1317 114.832L27.8829 115.583C28.1764 115.876 28.6523 115.876 28.9458 115.583C29.2394 115.289 29.2394 114.813 28.9458 114.52L28.1947 113.769L28.9458 113.017C29.2394 112.724 29.2394 112.248 28.9458 111.954C28.7989 111.808 28.6067 111.734 28.4141 111.734C28.2216 111.734 28.0294 111.808 27.8824 111.954L27.1313 112.706L26.3802 111.954C26.2332 111.808 26.0411 111.734 25.8485 111.734C25.656 111.734 25.4638 111.808 25.3168 111.954C25.0233 112.248 25.0233 112.724 25.3168 113.017L26.0679 113.769H26.0688Z" fill="#0494FD"/>
<path d="M6.8505 47.1919L6.09938 47.943C5.80585 48.2365 5.80585 48.7124 6.09938 49.006C6.39291 49.2995 6.86882 49.2995 7.16235 49.006L7.91347 48.2548L8.66459 49.006C8.95812 49.2995 9.43404 49.2995 9.72756 49.006C10.0211 48.7124 10.0211 48.2365 9.72756 47.943L8.97644 47.1919L9.72756 46.4408C10.0211 46.1472 10.0211 45.6713 9.72756 45.3778C9.5806 45.2308 9.38844 45.1575 9.19587 45.1575C9.00331 45.1575 8.81115 45.2308 8.66419 45.3778L7.91306 46.1289L7.16194 45.3778C7.01497 45.2308 6.82282 45.1575 6.63025 45.1575C6.43769 45.1575 6.24553 45.2308 6.09856 45.3778C5.80504 45.6713 5.80504 46.1472 6.09856 46.4408L6.84969 47.1919H6.8505Z" fill="#0494FD"/>
<path d="M97.2533 8.59071L96.5022 9.34183C96.2087 9.63536 96.2087 10.1113 96.5022 10.4048C96.7957 10.6983 97.2716 10.6983 97.5652 10.4048L98.3163 9.65368L99.0674 10.4048C99.361 10.6983 99.8369 10.6983 100.13 10.4048C100.424 10.1113 100.424 9.63536 100.13 9.34183L99.3793 8.59071L100.13 7.83958C100.424 7.54606 100.424 7.07014 100.13 6.77662C99.9834 6.62965 99.7913 6.55637 99.5987 6.55637C99.4061 6.55637 99.214 6.62965 99.067 6.77662L98.3159 7.52774L97.5648 6.77662C97.4178 6.62965 97.2256 6.55637 97.0331 6.55637C96.8405 6.55637 96.6484 6.62965 96.5014 6.77662C96.2079 7.07014 96.2079 7.54606 96.5014 7.83958L97.2525 8.59071H97.2533Z" fill="#0494FD"/>
<path d="M83.5016 114.816C84.7124 114.816 85.6976 115.801 85.6976 117.012C85.6976 118.222 84.7124 119.208 83.5016 119.208C82.2909 119.208 81.3057 118.222 81.3057 117.012C81.3057 115.801 82.2909 114.816 83.5016 114.816ZM83.5016 117.704C83.8835 117.704 84.1941 117.394 84.1941 117.012C84.1941 116.63 83.8835 116.319 83.5016 116.319C83.1198 116.319 82.8091 116.63 82.8091 117.012C82.8091 117.394 83.1198 117.704 83.5016 117.704Z" fill="#0494FD"/>
<path d="M124.888 44.8424C126.099 44.8424 127.084 45.8276 127.084 47.0384C127.084 48.2492 126.099 49.2344 124.888 49.2344C123.678 49.2344 122.692 48.2492 122.692 47.0384C122.692 45.8276 123.678 44.8424 124.888 44.8424ZM124.888 47.7309C125.27 47.7309 125.581 47.4203 125.581 47.0384C125.581 46.6565 125.27 46.3459 124.888 46.3459C124.506 46.3459 124.196 46.6565 124.196 47.0384C124.196 47.4203 124.506 47.7309 124.888 47.7309Z" fill="#0494FD"/>
<path d="M32.9601 9.59912C34.1709 9.59912 35.1561 10.5843 35.1561 11.7951C35.1561 13.0058 34.1709 13.991 32.9601 13.991C31.7494 13.991 30.7642 13.0058 30.7642 11.7951C30.7642 10.5843 31.7494 9.59912 32.9601 9.59912ZM32.9601 12.4876C33.342 12.4876 33.6526 12.177 33.6526 11.7951C33.6526 11.4132 33.342 11.1026 32.9601 11.1026C32.5783 11.1026 32.2676 11.4132 32.2676 11.7951C32.2676 12.177 32.5783 12.4876 32.9601 12.4876Z" fill="#0494FD"/>
<path d="M7.37809 78.163C8.58884 78.163 9.57405 79.1482 9.57405 80.3589C9.57405 81.5697 8.58884 82.5549 7.37809 82.5549C6.16734 82.5549 5.18213 81.5697 5.18213 80.3589C5.18213 79.1482 6.16734 78.163 7.37809 78.163ZM7.37809 81.0514C7.75996 81.0514 8.07059 80.7408 8.07059 80.3589C8.07059 79.9771 7.75996 79.6664 7.37809 79.6664C6.99622 79.6664 6.68559 79.9771 6.68559 80.3589C6.68559 80.7408 6.99622 81.0514 7.37809 81.0514Z" fill="#0494FD"/>
<path d="M43.9866 100.396C42.4131 100.396 40.8779 100.097 39.4237 99.507C37.9166 98.8959 36.5658 97.9995 35.4088 96.8424L30.8117 92.2453C29.6551 91.0887 28.7586 89.7379 28.1471 88.2304C27.5576 86.7766 27.2588 85.2414 27.2588 83.6675C27.2588 82.0936 27.5576 80.5588 28.1471 79.105C28.7586 77.5974 29.6546 76.2466 30.8117 75.09L43.7342 62.1675C44.8908 61.0109 46.2416 60.1144 47.7492 59.5029C49.2029 58.9134 50.7382 58.6142 52.3117 58.6142C53.8852 58.6142 55.4204 58.913 56.8742 59.5029C57.7258 59.8482 58.536 60.2899 59.2831 60.8155L60.0154 61.3309L54.2943 67.0516L53.8355 66.8721C53.349 66.6815 52.836 66.585 52.3104 66.585C51.1974 66.585 50.1519 67.017 49.3674 67.8015L36.4449 80.7241C34.8217 82.3472 34.8217 84.9877 36.4449 86.6109L41.042 91.208C41.8265 91.9925 42.872 92.4249 43.9854 92.4249C45.0989 92.4249 46.1439 91.9925 46.9288 91.208L59.8514 78.2854C61.021 77.1158 61.3858 75.3624 60.7808 73.8178L60.6013 73.359L66.3224 67.6378L66.8378 68.3702C67.3634 69.1173 67.8051 69.9278 68.1504 70.7791C68.7399 72.2329 69.0387 73.7681 69.0387 75.342C69.0387 76.9159 68.7399 78.4507 68.15 79.9049C67.5389 81.4121 66.6424 82.7633 65.4854 83.9199L52.5629 96.8424C51.4062 97.9991 50.0554 98.8955 48.5479 99.507C47.0941 100.096 45.5589 100.396 43.9854 100.396H43.9866Z" fill="white"/>
<path d="M81.4086 62.974C79.8347 62.974 78.2999 62.6752 76.8461 62.0853C75.9944 61.74 75.1838 61.2983 74.4372 60.7727L73.7048 60.2573L79.4259 54.5362L79.8848 54.7157C80.3713 54.9062 80.8842 55.0027 81.4094 55.0027C82.5229 55.0027 83.5679 54.5708 84.3524 53.7863L97.275 40.8637C98.8977 39.241 98.8977 36.6 97.275 34.9769L92.6779 30.3798C91.8929 29.5953 90.8479 29.1629 89.7344 29.1629C88.621 29.1629 87.5759 29.5953 86.791 30.3798L73.8685 43.3023C72.6988 44.472 72.3341 46.2254 72.939 47.77L73.1186 48.2288L67.3978 53.9499L66.8824 53.2175C66.3568 52.4705 65.9151 51.6599 65.5699 50.8082C64.9804 49.3545 64.6812 47.8192 64.6812 46.2457C64.6812 44.6723 64.98 43.137 65.5699 41.6832C66.181 40.1757 67.0774 38.8249 68.2344 37.6683L81.157 24.7457C82.3136 23.5891 83.6644 22.6927 85.1719 22.0812C86.6257 21.4917 88.1609 21.1929 89.7344 21.1929C91.3079 21.1929 92.8431 21.4917 94.2969 22.0812C95.8045 22.6923 97.1553 23.5887 98.3119 24.7457L102.909 29.3428C104.066 30.4995 104.962 31.8503 105.574 33.3578C106.163 34.8116 106.462 36.3468 106.462 37.9203C106.462 39.4938 106.163 41.029 105.574 42.4832C104.962 43.9907 104.066 45.3415 102.909 46.4982L89.9864 59.4207C88.8298 60.5773 87.479 61.4738 85.9715 62.0853C84.5177 62.6748 82.9825 62.974 81.4086 62.974Z" fill="#DDDDDD"/>
<path d="M55.2763 76.3627C54.2121 76.3627 53.2119 75.9482 52.4591 75.1959C50.9056 73.6424 50.9056 71.115 52.4591 69.5619L75.627 46.3939C76.3794 45.6416 77.3801 45.2271 78.4443 45.2271C79.5085 45.2271 80.5087 45.6416 81.2615 46.3939C82.0138 47.1463 82.4283 48.147 82.4283 49.2111C82.4283 50.2753 82.0138 51.2756 81.2615 52.0284L58.0935 75.1963C57.3412 75.9486 56.3405 76.3631 55.2763 76.3631V76.3627Z" fill="#0494FD"/>
<g style="mix-blend-mode:multiply">
<path d="M54.0358 66.9197C53.9967 66.914 53.9576 66.9091 53.9181 66.9051L54.0134 66.9421L54.2951 67.0528L54.37 66.9779C54.2593 66.9547 54.1478 66.9352 54.0358 66.9197ZM80.2526 54.0501L79.67 54.6327L79.7071 54.6473L80.2909 54.0635C80.2782 54.0595 80.2652 54.055 80.2526 54.0501ZM107.31 34.115C106.661 32.5134 105.709 31.0788 104.481 29.8505L103.441 28.8112L99.8836 25.2534C99.8705 25.2404 99.8579 25.2278 99.8449 25.2151C98.6248 24.0048 97.2035 23.066 95.619 22.4236C94.8663 22.1186 94.0936 21.887 93.305 21.7294C92.4762 21.5633 91.6302 21.4799 90.7732 21.4799C89.9162 21.4799 89.1122 21.5593 88.3028 21.7168C87.4935 21.8748 86.6996 22.1105 85.9273 22.4236C84.3262 23.0729 82.8915 24.0247 81.6632 25.2534L68.7407 38.176C67.5124 39.4042 66.5602 40.8389 65.9109 42.4401C65.2847 43.9842 64.9672 45.6147 64.9672 47.2859C64.9672 48.1429 65.0506 48.9889 65.2167 49.8177C65.3743 50.6059 65.6059 51.379 65.9109 52.1318C66.1832 52.8027 66.5117 53.4504 66.8916 54.0639C67.0235 54.2769 67.1615 54.4861 67.3056 54.6909L67.3154 54.7051L67.4774 54.9356L67.7343 55.3003L61.3659 61.6688L61.0011 61.4119L60.7707 61.2499L60.7568 61.2401C60.552 61.096 60.3428 60.958 60.1295 60.8261C59.5159 60.4462 58.8682 60.1177 58.1973 59.8453C57.4445 59.5404 56.6714 59.3088 55.8833 59.1512C55.0544 58.9851 54.2084 58.9016 53.3514 58.9016C51.6802 58.9016 50.0498 59.2192 48.5056 59.8453C46.9044 60.4947 45.4697 61.4469 44.2415 62.6752L31.3189 75.5977C30.0907 76.826 29.1384 78.2607 28.4891 79.8618C27.863 81.4064 27.5454 83.0365 27.5454 84.7077C27.5454 85.5646 27.6289 86.4106 27.795 87.2395C27.9525 88.0281 28.1842 88.8008 28.4891 89.5535C29.1315 91.138 30.0707 92.5592 31.2807 93.7794L33.4526 95.9517L35.916 98.4151C36.3622 98.8609 36.8353 99.2709 37.334 99.6426C38.1421 100.246 39.017 100.75 39.9505 101.149H50.1006C51.0342 100.75 51.9094 100.246 52.7184 99.6426C53.2171 99.2709 53.6902 98.8609 54.1364 98.4151L67.0585 85.4926C68.2872 84.2643 69.239 82.8293 69.8883 81.2281C70.5149 79.6839 70.832 78.0534 70.832 76.3822C70.832 74.711 70.5149 73.081 69.8883 71.5368C69.5215 70.6322 69.0525 69.7711 68.494 68.9773L68.0653 68.3678L74.4333 61.9998L75.0428 62.4285C75.8367 62.987 76.6977 63.456 77.6023 63.8228C79.1465 64.449 80.7766 64.7665 82.4477 64.7665C84.1189 64.7665 85.7494 64.4494 87.2936 63.8228C88.8948 63.1735 90.3298 62.2216 91.5581 60.993L104.481 48.0708C105.709 46.8422 106.661 45.4075 107.31 43.8063C107.937 42.2622 108.254 40.6317 108.254 38.9605C108.254 37.2893 107.937 35.6592 107.31 34.115ZM68.1361 53.2118C68.0861 53.1304 68.0372 53.0482 67.99 52.9655C67.9073 52.8226 67.8279 52.6777 67.7518 52.5307C67.589 52.2177 67.4404 51.8957 67.3068 51.5655C66.754 50.2021 66.4735 48.7621 66.4735 47.2859C66.4735 45.8097 66.754 44.3698 67.3068 43.0064C67.8801 41.5929 68.7207 40.3259 69.8057 39.241L82.7283 26.3184C83.8132 25.2335 85.0801 24.3928 86.4936 23.8196C87.8571 23.2663 89.297 22.9862 90.7732 22.9862C91.5113 22.9862 92.2404 23.0562 92.9553 23.1955C93.6702 23.3347 94.3713 23.5431 95.0528 23.8196C96.4663 24.3928 97.7332 25.2335 98.8181 26.3184L102.376 29.8762L103.415 30.9155C104.501 32.0005 105.341 33.2674 105.915 34.6809C106.033 34.974 106.14 35.2712 106.233 35.5713C106.575 36.6656 106.748 37.8018 106.748 38.9605C106.748 40.4367 106.467 41.8766 105.915 43.2404C105.341 44.6535 104.501 45.9205 103.415 47.0054L90.4931 59.928C89.4077 61.0129 88.1412 61.854 86.7277 62.4272C85.3639 62.9801 83.9243 63.2602 82.4477 63.2602C81.7097 63.2602 80.9805 63.1902 80.2656 63.0509C79.8585 62.9715 79.4559 62.8702 79.0585 62.746C78.7585 62.6524 78.4613 62.5461 78.1682 62.4272C77.3662 62.1015 76.611 61.69 75.9095 61.1965L76.1636 60.9425L80.6487 56.4573C81.226 56.6833 81.8371 56.7961 82.4486 56.7961C83.7069 56.7961 84.9657 56.3169 85.9237 55.359L98.8462 42.4364C100.763 40.5197 100.763 37.4012 98.8462 35.4846L97.8069 34.4452L94.2491 30.8874C93.4345 30.0728 92.4033 29.6046 91.3391 29.4825C91.151 29.4605 90.9621 29.4499 90.7732 29.4499C89.5144 29.4499 88.2556 29.9291 87.2973 30.8874L74.3747 43.81C73.2731 44.912 72.8049 46.411 72.9698 47.851C72.9747 47.8909 72.9795 47.9304 72.9852 47.9703C73.0007 48.0818 73.0202 48.1934 73.0439 48.3041C73.0809 48.4828 73.1285 48.6599 73.1864 48.8342C73.214 48.9184 73.2442 49.0019 73.2767 49.0849L68.5375 53.8241C68.4903 53.7574 68.4443 53.6898 68.3987 53.6218C68.3079 53.4871 68.2204 53.3503 68.1361 53.2118ZM97.7812 41.3714L84.8587 54.2939C84.2163 54.936 83.3605 55.2897 82.4486 55.2897C82.0647 55.2897 81.6893 55.2266 81.3302 55.1029L82.2996 54.1335L82.8333 53.5998C83.7281 52.705 84.2207 51.5154 84.2207 50.2501C84.2207 48.9848 83.7281 47.7952 82.8333 46.9004C82.6574 46.7245 82.4706 46.5645 82.2735 46.4208C81.6058 45.9319 80.8262 45.6294 79.9994 45.541C79.8292 45.5223 79.657 45.5129 79.4836 45.5129C78.2183 45.5129 77.0287 46.006 76.1339 46.9004L74.6308 48.4034C74.5359 48.129 74.4777 47.8477 74.4545 47.566C74.4219 47.1703 74.459 46.7738 74.5612 46.3943C74.7134 45.8305 75.0106 45.3045 75.4401 44.875L88.3627 31.9529C89.0051 31.3104 89.8613 30.9562 90.7732 30.9562C91.6851 30.9562 92.5417 31.3104 93.1841 31.9529L96.7573 35.5261L97.7812 36.55C98.0792 36.848 98.3105 37.1879 98.4745 37.5511C99.0437 38.807 98.8124 40.3402 97.7812 41.3714ZM52.9659 76.7678C53.8607 77.6626 55.0503 78.1552 56.3156 78.1552C57.5809 78.1552 58.7705 77.6626 59.6653 76.7678L61.1684 75.2647C61.5942 76.4974 61.284 77.8686 60.3595 78.7932L47.4369 91.7157C46.7945 92.3581 45.9383 92.7119 45.026 92.7119C44.5309 92.7119 44.0522 92.6077 43.6154 92.4094C43.2473 92.2429 42.909 92.0092 42.6155 91.7157L41.5961 90.6963C41.5892 90.6898 41.5826 90.6833 41.5757 90.6763L38.0184 87.1186C36.6887 85.7894 36.6887 83.6264 38.0184 82.2968L50.9405 69.3746C51.368 68.9471 51.8899 68.6475 52.4603 68.4952C52.7469 68.4179 53.0461 68.3784 53.351 68.3784C53.4447 68.3784 53.5383 68.3821 53.6307 68.3898C53.9173 68.413 54.1978 68.472 54.469 68.5657L52.9659 70.0683C52.0715 70.9632 51.5785 72.1527 51.5785 73.418C51.5785 73.589 51.5874 73.7588 51.6053 73.9265C51.6933 74.7558 51.9962 75.5383 52.4863 76.208C52.63 76.405 52.79 76.5919 52.9659 76.7678ZM58.6003 75.7028C57.9693 76.3334 57.1425 76.6489 56.3156 76.6489C55.8511 76.6489 55.3862 76.5491 54.9567 76.3501C54.6216 76.1946 54.3073 75.9792 54.0313 75.7028C53.8526 75.524 53.6987 75.3294 53.5709 75.1234C52.7945 73.8769 52.948 72.2167 54.0313 71.1337L56.8412 68.3234L61.4106 63.7544L69.8199 55.3447L74.389 50.7757L77.1993 47.9658C77.8299 47.3348 78.6567 47.0193 79.4836 47.0193C80.0763 47.0193 80.6691 47.1813 81.1898 47.5058C81.3954 47.634 81.5896 47.7871 81.7683 47.9658C82.0443 48.2418 82.2597 48.5553 82.4152 48.8899C82.9697 50.0852 82.7539 51.5492 81.7683 52.5348L80.2526 54.0501L79.67 54.6327L78.958 55.3447L74.389 59.9141L58.6003 75.7028ZM42.8439 100.473C42.4368 100.394 42.0341 100.292 41.6368 100.168C41.3367 100.075 41.0396 99.9679 40.7464 99.849C40.5856 99.7839 40.4264 99.715 40.2693 99.6426C39.0467 99.0812 37.9422 98.3113 36.981 97.3497L35.9417 96.3104L32.3839 92.7526C31.299 91.6677 30.4583 90.4007 29.8851 88.9872C29.3318 87.6238 29.0517 86.1839 29.0517 84.7077C29.0517 83.2315 29.3318 81.7915 29.8851 80.4281C30.4583 79.0146 31.299 77.7477 32.3839 76.6627L45.3065 63.7402C46.3914 62.6552 47.6584 61.8145 49.0719 61.2413C50.4353 60.6885 51.8753 60.408 53.3514 60.408C54.8276 60.408 56.2676 60.6885 57.631 61.2413C57.9612 61.3749 58.2832 61.5234 58.5963 61.6863C58.7432 61.7624 58.8882 61.8414 59.0311 61.9245C59.1137 61.9717 59.1959 62.0201 59.2774 62.0706C59.4158 62.1545 59.5526 62.242 59.6873 62.3332C59.7553 62.3784 59.8229 62.4244 59.8897 62.4716L55.1505 67.2112C55.0674 67.1786 54.9835 67.1485 54.8993 67.1212C54.725 67.063 54.5483 67.0154 54.37 66.9779C54.2593 66.9547 54.1478 66.9352 54.0358 66.9197C53.9967 66.914 53.9576 66.9091 53.9181 66.9051C53.7301 66.8831 53.5403 66.8721 53.351 66.8721C52.0922 66.8721 50.8339 67.3513 49.8755 68.3092L36.953 81.2318C35.8517 82.333 35.3835 83.8312 35.548 85.2703C35.6693 86.3353 36.1375 87.3682 36.953 88.1836L40.5107 91.7413L41.5501 92.7807C42.5088 93.7391 43.7672 94.2182 45.026 94.2182C46.2848 94.2182 47.544 93.7391 48.5019 92.7807L61.4245 79.8582C62.8481 78.4349 63.2137 76.348 62.5229 74.5832L67.008 70.098L67.2621 69.844C67.7555 70.5455 68.1671 71.3002 68.4928 72.1027C68.6116 72.3962 68.7179 72.693 68.8115 72.993C69.1531 74.0877 69.3257 75.2236 69.3257 76.3822C69.3257 77.8588 69.0456 79.2984 68.4928 80.6622C67.9195 82.0757 67.0784 83.3422 65.9935 84.4276L53.0709 97.3497C52.1093 98.3117 51.0053 99.0812 49.7827 99.6426C49.6255 99.715 49.4668 99.7839 49.306 99.849C47.9421 100.402 46.5022 100.682 45.026 100.682C44.2879 100.682 43.5588 100.612 42.8439 100.473Z" fill="#DDDDDD"/>
</g>
<path d="M68.8488 70.4974C68.482 69.5928 68.013 68.7318 67.4544 67.9379L67.0257 67.3284L67.0046 67.2983L66.5857 66.7035L66.4236 66.4731L65.1571 67.7396L60.4179 72.4788L59.7209 73.1758L59.8313 73.4579L60.0804 74.0934C60.0926 74.1248 60.1044 74.1561 60.1154 74.1875C60.1203 74.2001 60.1248 74.2127 60.1289 74.2253C60.3568 74.8853 60.3739 75.5847 60.1985 76.2344C60.0462 76.7983 59.749 77.3243 59.3195 77.7538L46.3974 90.6763C45.7549 91.3188 44.8988 91.6725 43.9864 91.6725C43.0741 91.6725 42.2363 91.3261 41.5959 90.6963C41.589 90.6898 41.5824 90.6833 41.5755 90.6763L36.9784 86.0792C35.6492 84.7496 35.6492 82.5866 36.9784 81.2574L49.901 68.3352C50.5434 67.6928 51.3991 67.339 52.3115 67.339C52.695 67.339 53.0707 67.4017 53.4294 67.5259C53.4738 67.541 53.5178 67.5572 53.5613 67.5743L54.1968 67.8235L54.4789 67.9338L55.1759 67.2368L59.9151 62.4977L61.0009 61.4119L61.1816 61.2311L60.9512 61.0691L60.3263 60.629L59.7169 60.2003C58.923 59.6418 58.0619 59.1728 57.1573 58.806C55.6132 58.1798 53.9831 57.8623 52.3119 57.8623C50.6407 57.8623 49.0102 58.1798 47.466 58.806C45.8649 59.4553 44.4302 60.4071 43.2015 61.6358L30.2794 74.5584C29.0507 75.7866 28.0989 77.2213 27.4495 78.8225C26.8234 80.3666 26.5059 81.9971 26.5059 83.6683C26.5059 85.3395 26.8234 86.9696 27.4495 88.5142C28.0989 90.1153 29.0507 91.55 30.2794 92.7783L31.2805 93.7793L33.4524 95.9517L34.8761 97.3754C34.9038 97.4031 34.9315 97.4307 34.9595 97.458C35.8499 98.3333 36.8469 99.0649 37.9355 99.6426C38.3255 99.8502 38.7274 100.038 39.1402 100.205C40.6848 100.832 42.3148 101.149 43.986 101.149C45.6572 101.149 47.2877 100.832 48.8319 100.205C49.2447 100.038 49.6465 99.8502 50.0369 99.6426C51.1594 99.0466 52.1845 98.2873 53.0964 97.3754L66.0185 84.4532C67.2472 83.2245 68.199 81.7899 68.8484 80.1887C69.4745 78.6445 69.7921 77.0141 69.7921 75.3429C69.7921 73.6717 69.4745 72.0416 68.8484 70.4974H68.8488ZM41.8043 99.4333C41.0894 99.2941 40.3888 99.0861 39.7069 98.8092C38.2934 98.2364 37.0265 97.3953 35.9415 96.3104L32.3837 92.7526L31.3444 91.7132C30.2594 90.6283 29.4183 89.3614 28.8451 87.9479C28.2923 86.5844 28.0122 85.1445 28.0122 83.6683C28.0122 82.1921 28.2923 80.7522 28.8451 79.3887C29.4183 77.9752 30.2594 76.7083 31.3444 75.6234L44.2669 62.7008C45.3519 61.6158 46.6188 60.7752 48.0323 60.2019C49.3957 59.6487 50.8357 59.3686 52.3119 59.3686C53.7881 59.3686 55.228 59.6487 56.5915 60.2019C57.3939 60.5272 58.1487 60.9388 58.8501 61.4322L58.5961 61.6863L54.1109 66.1718C53.5336 65.9459 52.9226 65.8327 52.3115 65.8327C51.0527 65.8327 49.7939 66.3119 48.836 67.2698L35.9134 80.1924C33.9967 82.1091 33.9967 85.2275 35.9134 87.1442L36.9528 88.1836L40.5105 91.7413C41.4689 92.6997 42.7277 93.1789 43.9864 93.1789C45.2452 93.1789 46.504 92.6997 47.4624 91.7413L60.3849 78.8188C61.8086 77.3951 62.1742 75.3087 61.4829 73.5438L66.2225 68.8046C66.5132 69.2175 66.7754 69.649 67.0078 70.098C67.1707 70.4115 67.3189 70.7335 67.4528 71.0633C68.0061 72.4267 68.2862 73.8667 68.2862 75.3429C68.2862 76.8191 68.0061 78.259 67.4528 79.6224C66.8796 81.0359 66.0389 82.3029 64.9539 83.3878L52.0314 96.3104C50.9464 97.3953 49.6795 98.2364 48.266 98.8092C46.9026 99.3625 45.4626 99.6426 43.9864 99.6426C43.2484 99.6426 42.5192 99.5726 41.8043 99.4333Z" fill="#2DC38D"/>
<path d="M106.271 33.0752C105.621 31.4741 104.669 30.0394 103.441 28.8112L99.8448 25.2151L98.8437 24.214C97.6155 22.9854 96.1808 22.0335 94.5796 21.3842C93.0354 20.7581 91.405 20.4405 89.7338 20.4405C88.0626 20.4405 86.4321 20.7581 84.8879 21.3842C83.2867 22.0335 81.8521 22.9854 80.6238 24.214L67.7013 37.1362C66.4726 38.3649 65.5208 39.7995 64.8714 41.4007C64.2453 42.9449 63.9277 44.5754 63.9277 46.2466C63.9277 47.9177 64.2453 49.5478 64.8714 51.092C65.2382 51.9966 65.7072 52.8576 66.2658 53.6515L66.6945 54.261L67.1346 54.8859L67.2966 55.1163L67.4773 54.9355L68.5631 53.8498L73.9993 48.4136L73.889 48.1315L73.6398 47.496C73.6227 47.4524 73.6064 47.4084 73.5914 47.3641C73.1655 46.1313 73.4757 44.7606 74.4007 43.8356L87.3228 30.9131C87.9653 30.2707 88.8214 29.9169 89.7338 29.9169C90.6461 29.9169 91.5019 30.2707 92.1447 30.9131L93.184 31.9528L96.7418 35.5102C96.7471 35.5155 96.7524 35.5208 96.7573 35.5261C98.071 36.8569 98.0657 39.0081 96.7418 40.332L83.8192 53.2542C83.3918 53.6816 82.8699 53.9813 82.2995 54.1335C82.0129 54.2109 81.7137 54.2504 81.4087 54.2504C81.0252 54.2504 80.6495 54.1877 80.2908 54.0635C80.2782 54.0594 80.2651 54.055 80.2525 54.0501C80.2212 54.0391 80.1898 54.0273 80.1589 54.0151L79.5234 53.7659L79.2413 53.6556L73.8051 59.0918L72.5386 60.3583L72.769 60.5203L73.3638 60.9392L73.3939 60.9604L74.0034 61.3891C74.7972 61.9476 75.6583 62.4166 76.5629 62.7835C78.1071 63.4096 79.7371 63.7271 81.4083 63.7271C83.0795 63.7271 84.71 63.4096 86.2542 62.7835C87.8553 62.1341 89.29 61.1823 90.5187 59.9536L103.441 47.0311C104.669 45.8028 105.621 44.3681 106.271 42.767C106.897 41.2228 107.214 39.5923 107.214 37.9211C107.214 36.2499 106.897 34.6194 106.271 33.0752ZM77.1288 61.3875C76.799 61.2535 76.477 61.1053 76.1635 60.9425C75.7144 60.71 75.2829 60.4478 74.8701 60.1572L79.6093 55.4176C80.1866 55.6435 80.7977 55.7567 81.4087 55.7567C82.6675 55.7567 83.9263 55.2775 84.8842 54.3196L97.8068 41.397C99.7235 39.4803 99.7235 36.3619 97.8068 34.4452L94.249 30.8874L93.2097 29.8481C92.2513 28.8897 90.9926 28.4106 89.7338 28.4106C88.475 28.4106 87.2162 28.8897 86.2578 29.8481L73.3353 42.7706C71.912 44.1943 71.546 46.2807 72.2373 48.0456L67.7517 52.5307L67.4977 52.7848C67.0043 52.0833 66.5927 51.3285 66.2674 50.5261C65.7141 49.1627 65.434 47.7227 65.434 46.2466C65.434 44.7704 65.7141 43.3304 66.2674 41.9666C66.8406 40.5535 67.6813 39.2866 68.7663 38.2016L81.6888 25.279C82.7738 24.1941 84.0407 23.353 85.4542 22.7798C86.8176 22.2269 88.2576 21.9468 89.7338 21.9468C91.21 21.9468 92.6499 22.2269 94.0133 22.7798C95.4268 23.353 96.6938 24.1941 97.7787 25.279L102.376 29.8762C103.461 30.9611 104.302 32.228 104.875 33.6415C105.428 35.005 105.708 36.4449 105.708 37.9211C105.708 39.3973 105.428 40.8373 104.875 42.2007C104.302 43.6142 103.461 44.8811 102.376 45.9661L89.4533 58.8886C88.3683 59.9736 87.1014 60.8143 85.6883 61.3875C84.3245 61.9407 82.8845 62.2208 81.4083 62.2208C80.6702 62.2208 79.9411 62.1508 79.2262 62.0116C78.5113 61.8723 77.8107 61.6643 77.1288 61.3875Z" fill="#2DC38D"/>
<path d="M82.2735 46.4208C82.1298 46.2238 81.9698 46.0369 81.7939 45.861C80.8991 44.9662 79.7095 44.4736 78.4442 44.4736C77.1789 44.4736 75.9893 44.9662 75.0944 45.861L74.5611 46.3943L73.5914 47.3641L72.9852 47.9703L72.2841 48.6713L67.9899 52.9655L60.3264 60.629L60.1294 60.8261L59.7858 61.1697L59.3058 61.6496L54.0134 66.9421L53.4296 67.5259L52.4602 68.4952L51.9265 69.029C51.0317 69.9238 50.5391 71.1134 50.5391 72.3787C50.5391 73.644 51.0317 74.8336 51.9265 75.7284C52.1024 75.9043 52.2892 76.0643 52.4863 76.208C53.2916 76.7979 54.2593 77.1158 55.2762 77.1158C56.5415 77.1158 57.7311 76.6232 58.6259 75.7284L60.129 74.2253L60.7128 73.6415L66.0053 68.3491L66.4852 67.8691L67.0259 67.3284L74.4146 59.9398L78.9836 55.3707L79.707 54.6473L81.7939 52.5604C82.6887 51.6656 83.1813 50.476 83.1813 49.2107C83.1813 48.1938 82.8634 47.2261 82.2735 46.4208ZM53.5708 75.1234C53.3648 74.9956 53.1702 74.8421 52.9915 74.6634C51.7299 73.4013 51.7299 71.356 52.9915 70.094L55.8018 67.2841L60.3708 62.7146L68.7805 54.3053L73.3496 49.7363L76.1594 46.926C76.7905 46.2954 77.6173 45.9799 78.4442 45.9799C79.271 45.9799 80.0979 46.2954 80.7289 46.926C80.908 47.1051 81.0615 47.2997 81.1897 47.5057C81.9653 48.7523 81.8114 50.4125 80.7289 51.4954L77.9186 54.3053L73.3496 58.8744L64.9403 67.2841L60.3708 71.8531L57.5609 74.6634C56.9299 75.294 56.1031 75.6095 55.2762 75.6095C54.6839 75.6095 54.0915 75.4475 53.5708 75.1234Z" fill="#2DC38D"/>
<path d="M112.953 100.396C112.953 100.812 112.615 101.149 112.2 101.149H21.4792C21.0636 101.149 20.7261 100.812 20.7261 100.396C20.7261 99.9797 21.0636 99.6426 21.4792 99.6426H112.2C112.615 99.6426 112.953 99.9801 112.953 100.396Z" fill="#2DC38D"/>
<path d="M18.372 101.149H14.9416C14.5256 101.149 14.1885 100.812 14.1885 100.396C14.1885 99.9797 14.5256 99.6426 14.9416 99.6426H18.372C18.788 99.6426 19.1251 99.9797 19.1251 100.396C19.1251 100.812 18.788 101.149 18.372 101.149Z" fill="#2DC38D"/>
<path d="M35.2641 97.458H31.8337C31.4177 97.458 31.0806 97.1209 31.0806 96.7048C31.0806 96.2888 31.4177 95.9517 31.8337 95.9517H35.2641C35.6801 95.9517 36.0172 96.2888 36.0172 96.7048C36.0172 97.1209 35.6801 97.458 35.2641 97.458Z" fill="#2DC38D"/>
<path d="M28.726 97.458H25.2956C24.8796 97.458 24.5425 97.1209 24.5425 96.7048C24.5425 96.2888 24.8796 95.9517 25.2956 95.9517H28.726C29.142 95.9517 29.4791 96.2888 29.4791 96.7048C29.4791 97.1209 29.142 97.458 28.726 97.458Z" fill="#2DC38D"/>
<path d="M101.846 97.458H98.4153C97.9992 97.458 97.6621 97.1209 97.6621 96.7048C97.6621 96.2888 97.9992 95.9517 98.4153 95.9517H101.846C102.262 95.9517 102.599 96.2888 102.599 96.7048C102.599 97.1209 102.262 97.458 101.846 97.458Z" fill="#2DC38D"/>
<path d="M108.383 97.458H104.953C104.537 97.458 104.2 97.1209 104.2 96.7048C104.2 96.2888 104.537 95.9517 104.953 95.9517H108.383C108.799 95.9517 109.136 96.2888 109.136 96.7048C109.136 97.1209 108.799 97.458 108.383 97.458Z" fill="#2DC38D"/>
<path d="M118.737 101.149H115.307C114.891 101.149 114.554 100.812 114.554 100.396C114.554 99.9797 114.891 99.6426 115.307 99.6426H118.737C119.153 99.6426 119.49 99.9797 119.49 100.396C119.49 100.812 119.153 101.149 118.737 101.149Z" fill="#2DC38D"/>
</svg>
