<svg width="84" height="56" viewBox="0 0 84 56" fill="none" xmlns="http://www.w3.org/2000/svg">
<g clip-path="url(#clip0_514_17513)">
<path d="M73.9533 30.6672C73.0505 31.115 71.8523 30.5393 71.8523 30.5393C71.8523 30.5393 72.1187 29.2376 73.0219 28.7904C73.9247 28.3426 75.1223 28.9178 75.1223 28.9178C75.1223 28.9178 74.856 30.2194 73.9533 30.6672Z" fill="#000064"/>
<path d="M70.7729 16.7688C70.4343 16.7688 70.1598 17.0433 70.1598 17.3819C70.1598 17.7205 70.4343 17.995 70.7729 17.995C71.1115 17.995 71.386 17.7205 71.386 17.3819C71.386 17.0433 71.1115 16.7688 70.7729 16.7688Z" fill="#2DC38D"/>
<path d="M20.0324 42.1994C19.5269 42.1994 19.1171 41.7896 19.1171 41.2841C19.1171 40.7786 19.5269 40.3688 20.0324 40.3688C20.538 40.3688 20.9478 40.7786 20.9478 41.2841C20.9478 41.7896 20.538 42.1994 20.0324 42.1994Z" fill="#666AF6"/>
<path d="M68.1191 24.4276C67.7807 24.4276 67.5063 24.1532 67.5063 23.8147C67.5063 23.4763 67.7807 23.2019 68.1191 23.2019C68.4576 23.2019 68.7319 23.4763 68.7319 23.8147C68.7319 24.1532 68.4576 24.4276 68.1191 24.4276Z" fill="#2DC38D"/>
<path d="M71.6861 43.1183C71.2078 43.1183 70.82 42.7305 70.82 42.2521C70.82 41.7738 71.2078 41.386 71.6861 41.386C72.1645 41.386 72.5522 41.7738 72.5522 42.2521C72.5522 42.7305 72.1645 43.1183 71.6861 43.1183Z" fill="#E1E4E5"/>
<path d="M61.9262 11.5941C61.3249 11.5941 60.8374 11.1067 60.8374 10.5054C60.8374 9.90407 61.3249 9.41663 61.9262 9.41663C62.5275 9.41663 63.0149 9.90407 63.0149 10.5054C63.0149 11.1067 62.5275 11.5941 61.9262 11.5941Z" fill="#2DC38D"/>
<path d="M19.9566 16.6173C20.0802 17.0786 19.8064 17.5527 19.3451 17.6763C18.8838 17.7999 18.4097 17.5262 18.2861 17.0649C18.1625 16.6036 18.4362 16.1294 18.8975 16.0058C19.3588 15.8822 19.833 16.156 19.9566 16.6173Z" fill="#2DC38D"/>
<path d="M28.3936 11.6189C27.7583 11.6189 27.2433 11.1039 27.2433 10.4686C27.2433 9.83326 27.7583 9.31824 28.3936 9.31824C29.0289 9.31824 29.5439 9.83326 29.5439 10.4686C29.5439 11.1039 29.0289 11.6189 28.3936 11.6189Z" fill="#E1E4E5"/>
<path d="M66.5841 32.5487C66.0954 32.5487 65.6992 32.2317 65.6992 31.8407C65.6992 31.4498 66.0954 31.1328 66.5841 31.1328C67.0728 31.1328 67.469 31.4498 67.469 31.8407C67.469 32.2317 67.0728 32.5487 66.5841 32.5487Z" fill="#E1E4E5"/>
<path d="M56.6747 9.48214C56.6747 10.2621 56.0424 10.8945 55.2624 10.8945C54.4824 10.8945 53.8501 10.2621 53.8501 9.48214C53.8501 8.70214 54.4824 8.06982 55.2624 8.06982C56.0424 8.06982 56.6747 8.70214 56.6747 9.48214Z" fill="#E1E4E5"/>
<path d="M11.1882 19.9575H11.2008C11.2755 21.0152 12.0621 21.0315 12.0621 21.0315C12.0621 21.0315 11.1947 21.0484 11.1947 22.2705C11.1947 21.0484 10.3274 21.0315 10.3274 21.0315C10.3274 21.0315 11.1136 21.0152 11.1882 19.9575ZM20.8475 45.4888H20.8595C20.9312 46.5433 21.6864 46.5595 21.6864 46.5595C21.6864 46.5595 20.8536 46.5764 20.8536 47.7948C20.8536 46.5764 20.0209 46.5595 20.0209 46.5595C20.0209 46.5595 20.7758 46.5433 20.8475 45.4888Z" fill="#000064"/>
<path fill-rule="evenodd" clip-rule="evenodd" d="M12.7755 26.5717C8.83339 27.0949 5.78662 30.3453 5.78662 34.3199C5.78662 38.6574 9.40553 42.1749 13.8682 42.1749H31.6474C35.2179 42.1749 38.1126 39.3612 38.1126 35.8909C38.1126 32.4205 35.2179 29.6069 31.6474 29.6069C31.6474 24.4006 27.306 20.1809 21.9496 20.1809C17.6875 20.1809 14.0767 22.8563 12.7755 26.5717Z" fill="url(#paint0_linear_514_17513)"/>
<path fill-rule="evenodd" clip-rule="evenodd" d="M52.8763 34.3464C48.9341 34.8695 45.8875 38.1199 45.8875 42.0945C45.8875 46.4321 49.5064 49.9496 53.9689 49.9496H71.7483C75.3186 49.9496 78.2135 47.1359 78.2135 43.6655C78.2135 40.1952 75.3186 37.3816 71.7483 37.3816C71.7483 32.1753 67.4069 27.9556 62.0505 27.9556C57.7883 27.9556 54.1774 30.631 52.8763 34.3464Z" fill="url(#paint1_linear_514_17513)"/>
<path fill-rule="evenodd" clip-rule="evenodd" d="M31.1561 4.09192C26.3618 4.09192 22.4753 7.97851 22.4753 12.7728V43.1555C22.4753 47.9498 26.3618 51.8363 31.1561 51.8363H52.858C57.6523 51.8363 61.5389 47.9498 61.5389 43.1555V16.3684C61.5389 15.2284 61.3143 14.0996 60.8781 13.0464C60.4418 11.9932 59.8024 11.0363 58.9963 10.2302L55.4006 6.63451C53.7726 5.00657 51.5647 4.09201 49.2624 4.09201H31.1561V4.09192ZM55.9272 13.2993C56.3903 13.7625 56.7426 14.3244 56.9577 14.9429H52.858C51.6595 14.9429 50.6879 13.9713 50.6879 12.7728V8.67309C51.3065 8.88817 51.8684 9.24047 52.3315 9.70359L55.9272 13.2993Z" fill="#2DC38D"/>
<path d="M41.949 40.7428C48.9829 40.7428 54.685 35.0406 54.685 28.0067C54.685 20.9728 48.9829 15.2706 41.949 15.2706C34.915 15.2706 29.2129 20.9728 29.2129 28.0067C29.2129 35.0406 34.915 40.7428 41.949 40.7428Z" fill="white"/>
<path d="M38.1125 26.7098L41.9817 22.8407L45.8507 26.7098M41.9817 33.3646V23.1502" stroke="#2DC38D" stroke-width="1.86667" stroke-linecap="round" stroke-linejoin="round"/>
</g>
<defs>
<linearGradient id="paint0_linear_514_17513" x1="22.6389" y1="54.5059" x2="22.1774" y2="-3.74901" gradientUnits="userSpaceOnUse">
<stop stop-color="#CDEAFF"/>
<stop offset="1" stop-color="#EEEEEE"/>
</linearGradient>
<linearGradient id="paint1_linear_514_17513" x1="62.7397" y1="62.2807" x2="62.2783" y2="4.02564" gradientUnits="userSpaceOnUse">
<stop stop-color="#DCECF7"/>
<stop offset="1" stop-color="#EEEEEE"/>
</linearGradient>
<clipPath id="clip0_514_17513">
<rect width="84" height="56" fill="white"/>
</clipPath>
</defs>
</svg>
