<svg width="14" height="14" viewBox="0 0 14 14" fill="none" xmlns="http://www.w3.org/2000/svg">
<path d="M13.3152 3.98046C14.0617 5.54171 14.2034 7.32413 13.713 8.98372C13.2226 10.6433 12.1348 12.0624 10.6596 12.9671C9.18446 13.8719 7.42642 14.1981 5.72485 13.8829C4.02327 13.5676 2.49878 12.6333 1.4456 11.2601C0.392424 9.88695 -0.114784 8.17235 0.0218714 6.44722C0.158527 4.7221 0.929357 3.10874 2.18559 1.91852C3.44183 0.728311 5.09441 0.045618 6.8244 0.00220499C8.55438 -0.041208 10.2391 0.557737 11.5535 1.68344L13.0779 0.158373C13.1788 0.0574325 13.3157 0.000725051 13.4585 0.000725051C13.6012 0.000725051 13.7381 0.0574325 13.8391 0.158373C13.94 0.259313 13.9967 0.396217 13.9967 0.538968C13.9967 0.681718 13.94 0.818623 13.8391 0.919563L7.38374 7.37488C7.2828 7.47582 7.1459 7.53253 7.00315 7.53253C6.8604 7.53253 6.72349 7.47582 6.62255 7.37488C6.52161 7.27394 6.46491 7.13704 6.46491 6.99429C6.46491 6.85154 6.52161 6.71463 6.62255 6.61369L8.48653 4.74972C7.98137 4.41563 7.37824 4.2618 6.77477 4.31314C6.17131 4.36449 5.60283 4.61799 5.16137 5.03263C4.71992 5.44726 4.43131 5.99875 4.34229 6.59781C4.25327 7.19688 4.36903 7.80846 4.67084 8.33354C4.97265 8.85863 5.44284 9.26649 6.0053 9.49109C6.56776 9.7157 7.18956 9.74391 7.77004 9.57114C8.35052 9.39838 8.85571 9.03477 9.20382 8.53916C9.55193 8.04356 9.72258 7.44497 9.68816 6.8403C9.68419 6.76966 9.69417 6.69892 9.71753 6.63214C9.74089 6.56535 9.77718 6.50382 9.82432 6.45106C9.87147 6.39829 9.92854 6.35533 9.99229 6.32463C10.056 6.29392 10.1252 6.27607 10.1958 6.2721C10.3385 6.26408 10.4785 6.31305 10.5851 6.40826C10.6379 6.45541 10.6808 6.51248 10.7115 6.57623C10.7422 6.63997 10.7601 6.70914 10.764 6.77978C10.8131 7.63564 10.5686 8.48261 10.0711 9.18071C9.57356 9.87881 8.85272 10.3863 8.02771 10.6192C7.20269 10.8521 6.32291 10.7965 5.53375 10.4617C4.74459 10.1268 4.09331 9.53273 3.68755 8.77759C3.28178 8.02244 3.14582 7.15145 3.30214 6.30856C3.45846 5.46568 3.8977 4.70136 4.54726 4.14193C5.19682 3.5825 6.01783 3.26146 6.87457 3.23185C7.73132 3.20225 8.57252 3.46586 9.25915 3.97912L10.7889 2.44934C9.66785 1.51856 8.24242 1.03479 6.78639 1.09095C5.33037 1.14711 3.94643 1.73923 2.90038 2.75359C1.85433 3.76795 1.21993 5.13303 1.11902 6.58664C1.01811 8.04024 1.45781 9.47988 2.35368 10.6291C3.24954 11.7782 4.53839 12.5559 5.97269 12.8127C7.40699 13.0695 8.88559 12.7873 10.1245 12.0204C11.3634 11.2534 12.2753 10.0558 12.685 8.65744C13.0947 7.25912 12.9734 5.75873 12.3443 4.44444C12.2827 4.31568 12.2749 4.16775 12.3224 4.03319C12.37 3.89864 12.469 3.78848 12.5978 3.72696C12.7265 3.66543 12.8745 3.65757 13.009 3.70511C13.1436 3.75265 13.2537 3.8517 13.3152 3.98046Z" fill="#0494FD" fill-opacity="0.7"/>
</svg>
