<svg width="60" height="55" viewBox="0 0 60 55" fill="none" xmlns="http://www.w3.org/2000/svg">
<path d="M32.6826 12.1501L21.9865 37.0275L42.2851 45.755L52.9813 20.8777L32.6826 12.1501Z" fill="#C2E8FF"/>
<path d="M47.8844 23.9233C47.8444 24.0164 47.7231 24.0546 47.615 24.0081L34.1069 18.1996C33.9987 18.153 33.943 18.0388 33.9831 17.9456C34.0231 17.8525 34.1444 17.8144 34.2525 17.861L47.7605 23.6695C47.8687 23.7159 47.9244 23.8302 47.8844 23.9233Z" fill="white"/>
<path d="M42.8549 22.4913C42.8149 22.5845 42.6936 22.6226 42.5855 22.576L33.8417 18.8161C33.7335 18.7695 33.6778 18.6553 33.7178 18.5621C33.7579 18.469 33.8791 18.4309 33.9873 18.4775L42.7311 22.2374C42.8392 22.284 42.895 22.3982 42.8549 22.4913Z" fill="white"/>
<path d="M40.3992 22.1777C40.3591 22.2708 40.2379 22.3089 40.1297 22.2624L33.5724 19.4427C33.4643 19.3961 33.4085 19.2819 33.4485 19.1887C33.4886 19.0956 33.6098 19.0575 33.718 19.1041L40.2753 21.9238C40.3834 21.9703 40.4392 22.0845 40.3992 22.1777Z" fill="white"/>
<path d="M46.5729 26.9734C46.5328 27.0665 46.4115 27.1046 46.3034 27.058L32.7954 21.2495C32.6873 21.203 32.6315 21.0887 32.6715 20.9957C32.7116 20.9026 32.8329 20.8645 32.941 20.9109L46.449 26.7194C46.5572 26.766 46.6129 26.8802 46.5729 26.9734Z" fill="white"/>
<path d="M41.5435 25.5415C41.5035 25.6346 41.3822 25.6727 41.2741 25.6261L32.5303 21.8662C32.4221 21.8196 32.3664 21.7054 32.4064 21.6123C32.4464 21.5191 32.5677 21.481 32.6759 21.5276L41.4197 25.2875C41.5278 25.3341 41.5836 25.4483 41.5435 25.5415Z" fill="white"/>
<path d="M39.0877 25.2276C39.0476 25.3207 38.9263 25.3589 38.8182 25.3123L32.2609 22.4926C32.1526 22.446 32.097 22.3318 32.137 22.2387C32.177 22.1455 32.2983 22.1074 32.4065 22.154L38.9638 24.9737C39.0719 25.0202 39.1277 25.1345 39.0877 25.2276Z" fill="white"/>
<path d="M45.0501 30.5149C45.01 30.6081 44.8887 30.6462 44.7806 30.5996L31.2726 24.7911C31.1644 24.7445 31.1087 24.6303 31.1487 24.5372C31.1888 24.444 31.3101 24.4059 31.4182 24.4525L44.9262 30.261C45.0343 30.3076 45.0901 30.4219 45.0501 30.5149Z" fill="white"/>
<path d="M40.0206 29.083C39.9805 29.1762 39.8593 29.2143 39.7511 29.1677L31.0073 25.4078C30.8992 25.3612 30.8434 25.247 30.8835 25.1538C30.9235 25.0607 31.0448 25.0226 31.1529 25.0692L39.8967 28.8291C40.0048 28.8757 40.0606 28.9899 40.0206 29.083Z" fill="white"/>
<path d="M37.5647 28.7692C37.5247 28.8623 37.4034 28.9005 37.2953 28.8539L30.7379 26.0342C30.6298 25.9876 30.574 25.8734 30.614 25.7803C30.6541 25.6871 30.7754 25.649 30.8835 25.6956L37.4409 28.5153C37.549 28.5618 37.6047 28.6761 37.5647 28.7692Z" fill="white"/>
<path d="M41.7335 38.2277C41.6935 38.3208 41.5722 38.3589 41.4641 38.3123L27.9561 32.5038C27.8478 32.4573 27.7922 32.343 27.8322 32.2499C27.8722 32.1568 27.9935 32.1187 28.1017 32.1652L41.6097 37.9737C41.7178 38.0203 41.7736 38.1345 41.7335 38.2277Z" fill="white"/>
<path d="M36.7041 36.7957C36.664 36.8888 36.5427 36.9269 36.4346 36.8804L27.6908 33.1204C27.5827 33.0739 27.5269 32.9597 27.5669 32.8665C27.607 32.7734 27.7283 32.7353 27.8364 32.7818L36.5802 36.5418C36.6884 36.5883 36.7441 36.7026 36.7041 36.7957Z" fill="white"/>
<path d="M34.2482 36.4819C34.2082 36.5751 34.0869 36.6132 33.9787 36.5667L27.4214 33.747C27.3132 33.7005 27.2575 33.5862 27.2975 33.4931C27.3376 33.4 27.4589 33.3619 27.567 33.4084L34.1243 36.2281C34.2325 36.2746 34.2882 36.3888 34.2482 36.4819Z" fill="white"/>
<path d="M43.7501 33.5377C43.7101 33.6308 43.5888 33.6689 43.4807 33.6223L29.9727 27.8137C29.8644 27.7672 29.8088 27.6529 29.8488 27.5599C29.8888 27.4668 30.0101 27.4287 30.1183 27.4752L43.6263 33.2838C43.7344 33.3303 43.7902 33.4445 43.7501 33.5377Z" fill="white"/>
<path d="M38.7207 32.1057C38.6806 32.1989 38.5593 32.237 38.4512 32.1904L29.7074 28.4305C29.5993 28.3839 29.5435 28.2697 29.5835 28.1767C29.6236 28.0835 29.7449 28.0454 29.853 28.092L38.5968 31.8519C38.705 31.8984 38.7608 32.0126 38.7207 32.1057Z" fill="white"/>
<path d="M37.8841 34.0514C37.8441 34.1446 37.7228 34.1827 37.6147 34.1361L28.8708 30.3762C28.7627 30.3296 28.7069 30.2154 28.747 30.1223C28.787 30.0291 28.9083 29.991 29.0164 30.0376L37.7603 33.7975C37.8684 33.8441 37.9241 33.9583 37.8841 34.0514Z" fill="white"/>
<path d="M36.2649 31.792C36.2249 31.8851 36.1036 31.9232 35.9955 31.8767L29.4381 29.057C29.33 29.0104 29.2742 28.8962 29.3142 28.8032C29.3543 28.71 29.4756 28.6719 29.5837 28.7185L36.141 31.5382C36.2493 31.5846 36.3051 31.6989 36.2649 31.792Z" fill="#ECECF0"/>
<path d="M34.7952 31.94C34.7552 32.0331 34.6339 32.0713 34.5258 32.0247L29.155 29.7152C29.0469 29.6688 28.9911 29.5544 29.0312 29.4614C29.0712 29.3683 29.1925 29.3301 29.3006 29.3767L34.6714 31.6862C34.7795 31.7326 34.8353 31.8469 34.7952 31.94Z" fill="#ECECF0"/>
<path d="M46.0254 25.6054C46.0142 25.6054 46.0031 25.6031 45.9927 25.5984C45.9698 25.5882 45.9531 25.568 45.9472 25.5437L45.7119 24.5582C45.7027 24.5197 45.723 24.4802 45.7595 24.4652C45.7694 24.4611 45.7797 24.4591 45.79 24.4591C45.8173 24.4591 45.8436 24.4732 45.8586 24.4977L46.2064 25.0697L47.4874 24.637C47.4959 24.6341 47.5045 24.6327 47.5131 24.6327C47.5442 24.6327 47.5736 24.6508 47.5868 24.6807C47.6034 24.719 47.5883 24.7635 47.5516 24.7834L46.0638 25.5952C46.0519 25.602 46.0387 25.6054 46.0254 25.6054Z" fill="#0494FD"/>
<path d="M45.79 24.5395L46.1711 25.1664L47.5132 24.7131L46.0253 25.5249L45.79 24.5395ZM47.5132 24.7131H47.5136ZM45.7899 24.3789C45.7695 24.3789 45.7488 24.3829 45.7289 24.391C45.6558 24.4211 45.6154 24.4999 45.6338 24.5767L45.8691 25.5622C45.8808 25.6108 45.9144 25.6512 45.96 25.6716C45.9808 25.6809 46.0031 25.6854 46.0252 25.6854C46.0518 25.6854 46.0782 25.6789 46.1022 25.6658L47.5862 24.856C47.6382 24.8295 47.6739 24.7754 47.6739 24.713C47.6739 24.6268 47.6064 24.5566 47.5212 24.5527C47.5185 24.5525 47.5157 24.5524 47.513 24.5524C47.5052 24.5524 47.4974 24.553 47.4895 24.5542C47.4787 24.5558 47.4682 24.5584 47.4581 24.5621L46.2415 24.9729L45.9272 24.4559C45.8973 24.407 45.8446 24.3789 45.7899 24.3789Z" fill="#0494FD"/>
<path d="M39.969 39.6894C39.9578 39.6894 39.9467 39.6871 39.9363 39.6825C39.9134 39.6724 39.8967 39.6521 39.8908 39.6277L39.6555 38.6422C39.6463 38.6039 39.6666 38.5644 39.7031 38.5494C39.713 38.5453 39.7233 38.5433 39.7336 38.5433C39.7609 38.5433 39.7872 38.5573 39.8022 38.5818L40.15 39.1539L41.431 38.7212C41.4395 38.7184 41.4481 38.717 41.4567 38.717C41.4878 38.717 41.5171 38.7352 41.5304 38.7651C41.547 38.8032 41.5319 38.8477 41.4952 38.8678L40.0075 39.6795C39.9956 39.6862 39.9823 39.6894 39.969 39.6894Z" fill="#0494FD"/>
<path d="M39.7336 38.6236L40.1147 39.2505L41.4568 38.7973L39.9689 39.6091L39.7336 38.6236ZM41.4568 38.7974H41.4573ZM39.7336 38.463C39.7132 38.463 39.6925 38.467 39.6726 38.4751C39.5995 38.5052 39.5591 38.584 39.5776 38.661L39.8129 39.6464C39.8245 39.695 39.858 39.7355 39.9037 39.7558C39.9246 39.765 39.9468 39.7696 39.9689 39.7696C39.9955 39.7696 40.0219 39.7631 40.0459 39.75L41.5299 38.9403C41.5819 38.9137 41.6177 38.8596 41.6177 38.7973C41.6177 38.7111 41.5501 38.6409 41.4649 38.6369C41.4622 38.6368 41.4594 38.6367 41.4568 38.6367C41.449 38.6367 41.441 38.6372 41.4332 38.6385C41.4224 38.6401 41.4119 38.6428 41.4019 38.6464L40.1852 39.0573L39.8709 38.5402C39.8409 38.4911 39.7882 38.463 39.7336 38.463Z" fill="#0494FD"/>
<path d="M43.1129 32.3775C43.1018 32.3775 43.0907 32.3753 43.0803 32.3707C43.0574 32.3605 43.0407 32.3403 43.0348 32.3159L42.7996 31.3303C42.7904 31.292 42.8105 31.2525 42.8471 31.2375C42.8571 31.2334 42.8675 31.2314 42.8776 31.2314C42.9049 31.2314 42.9313 31.2454 42.9462 31.27L43.294 31.842L44.5751 31.4092C44.5835 31.4064 44.5922 31.4051 44.6008 31.4051C44.6318 31.4051 44.6611 31.4233 44.6744 31.4531C44.691 31.4912 44.6759 31.5358 44.6393 31.5558L43.1515 32.3677C43.1396 32.3743 43.1263 32.3775 43.1129 32.3775Z" fill="#0494FD"/>
<path d="M42.8778 31.3118L43.2589 31.9387L44.6009 31.4855L43.1131 32.2973L42.8778 31.3118ZM44.6009 31.4855H44.6015ZM42.8777 31.1512C42.8572 31.1512 42.8366 31.155 42.8167 31.1633C42.7435 31.1933 42.7032 31.2721 42.7216 31.3491L42.9569 32.3345C42.9686 32.3831 43.0022 32.4236 43.0478 32.4439C43.0687 32.4531 43.0908 32.4577 43.113 32.4577C43.1395 32.4577 43.166 32.4512 43.19 32.4382L44.6739 31.6284C44.726 31.6018 44.7617 31.5477 44.7617 31.4854C44.7617 31.3992 44.6942 31.329 44.6089 31.325C44.6063 31.3249 44.6035 31.3248 44.6008 31.3248C44.593 31.3248 44.5852 31.3253 44.5773 31.3265C44.5664 31.3281 44.556 31.3308 44.5459 31.3344L43.3292 31.7453L43.0149 31.2282C42.9851 31.1792 42.9324 31.1512 42.8777 31.1512Z" fill="#0494FD"/>
<path d="M33.6366 44.6462C33.6366 45.1681 33.2135 45.591 32.6918 45.591H6.94486C6.42297 45.591 6 45.1679 6 44.6462V11.3248C6 10.8029 6.42308 10.3799 6.94486 10.3799H32.6918C33.2136 10.3799 33.6366 10.803 33.6366 11.3248V44.6462Z" fill="#0494FD"/>
<path d="M33.6366 43.4812C33.6366 43.9853 33.2135 44.3939 32.6918 44.3939H6.94486C6.42297 44.3939 6 43.9853 6 43.4812V11.2927C6 10.7886 6.42308 10.3799 6.94486 10.3799H32.6918C33.2136 10.3799 33.6366 10.7886 33.6366 11.2927V43.4812Z" fill="#C8E8FF" fill-opacity="0.7"/>
<path d="M32.0318 12.2813H7.60474V42.2183H32.0318V12.2813Z" fill="white"/>
<path d="M27.5973 10.6758C27.5973 9.90304 26.9709 9.27667 26.1982 9.27667H13.4385C12.6658 9.27667 12.0394 9.90304 12.0394 10.6758V13.1382H27.5974V10.6758H27.5973Z" fill="#B4B3B3"/>
<path d="M21.5631 11.3164C22.2726 10.3516 22.0656 8.99423 21.1008 8.28473C20.1359 7.57523 18.7786 7.78222 18.0691 8.74707C17.3596 9.71192 17.5666 11.0692 18.5314 11.7787C19.4963 12.4883 20.8536 12.2813 21.5631 11.3164Z" fill="#B4B3B3"/>
<path d="M20.4827 9.36802C20.4827 9.73489 20.1853 10.0324 19.8183 10.0324C19.4514 10.0324 19.1539 9.735 19.1539 9.36802C19.1539 9.00114 19.4513 8.70364 19.8183 8.70364C20.1852 8.70364 20.4827 9.00114 20.4827 9.36802Z" fill="#EDEFC7"/>
<path d="M27.5973 11.4244H12.0393V13.1383H27.5973V11.4244Z" fill="#D2D2D2"/>
<path d="M27.7633 18.7704C27.7633 18.8825 27.667 18.9741 27.5492 18.9741H11.2482C11.1304 18.9741 11.0341 18.8825 11.0341 18.7704C11.0341 18.6583 11.1304 18.5667 11.2482 18.5667H27.5493C27.667 18.5667 27.7633 18.6584 27.7633 18.7704Z" fill="#ECECF0"/>
<path d="M22.03 19.5127C22.03 19.6247 21.9336 19.7164 21.8158 19.7164H11.2482C11.1304 19.7164 11.0341 19.6247 11.0341 19.5127C11.0341 19.4006 11.1304 19.3089 11.2482 19.3089H21.8158C21.9336 19.3088 22.03 19.4006 22.03 19.5127Z" fill="#ECECF0"/>
<path d="M19.3987 20.2664C19.3987 20.3785 19.3023 20.4702 19.1846 20.4702H11.2482C11.1304 20.4702 11.0341 20.3785 11.0341 20.2664C11.0341 20.1544 11.1304 20.0627 11.2482 20.0627H19.1846C19.3023 20.0627 19.3987 20.1545 19.3987 20.2664Z" fill="#ECECF0"/>
<path d="M27.8769 24.0089C27.8769 24.1267 27.7806 24.223 27.6628 24.223H14.805C14.6873 24.223 14.5909 24.1267 14.5909 24.0089V23.8055C14.5909 23.6877 14.6873 23.5914 14.805 23.5914H27.6628C27.7806 23.5914 27.8769 23.6877 27.8769 23.8055V24.0089Z" fill="#ECECF0"/>
<path d="M27.8769 27.1899C27.8769 27.3076 27.7806 27.404 27.6628 27.404H14.805C14.6873 27.404 14.5909 27.3076 14.5909 27.1899V26.9864C14.5909 26.8687 14.6873 26.7723 14.805 26.7723H27.6628C27.7806 26.7723 27.8769 26.8687 27.8769 26.9864V27.1899Z" fill="#ECECF0"/>
<path d="M27.8769 30.4273C27.8769 30.545 27.7806 30.6414 27.6628 30.6414H14.805C14.6873 30.6414 14.5909 30.545 14.5909 30.4273V30.2239C14.5909 30.1061 14.6873 30.0098 14.805 30.0098H27.6628C27.7806 30.0098 27.8769 30.1061 27.8769 30.2239V30.4273Z" fill="#ECECF0"/>
<path d="M27.8769 33.4469C27.8769 33.5647 27.7806 33.661 27.6628 33.661H14.805C14.6873 33.661 14.5909 33.5647 14.5909 33.4469V33.2435C14.5909 33.1258 14.6873 33.0294 14.805 33.0294H27.6628C27.7806 33.0294 27.8769 33.1258 27.8769 33.2435V33.4469Z" fill="#ECECF0"/>
<path d="M13.2678 22.7663V24.7483H11.2858V22.7663H13.2678ZM13.5197 22.5144H11.0341V25H13.5197V22.5144Z" fill="#ECECF0"/>
<path d="M13.2678 25.9888V27.9708H11.2858V25.9888H13.2678ZM13.5197 25.7369H11.0341V28.2226H13.5197V25.7369Z" fill="#ECECF0"/>
<path d="M13.2678 29.2078V31.1898H11.2858V29.2078H13.2678ZM13.5197 28.9561H11.0341V31.4417H13.5197V28.9561Z" fill="#ECECF0"/>
<path d="M13.2678 32.4678V34.4498H11.2858V32.4678H13.2678ZM13.5197 32.216H11.0341V34.7017H13.5197V32.216Z" fill="#ECECF0"/>
<path d="M12.2878 24.4377C12.2629 24.4374 12.2393 24.4254 12.2245 24.4054L11.4052 23.3062C11.3816 23.2745 11.3845 23.2303 11.4121 23.202C11.4278 23.1861 11.4485 23.1778 11.4696 23.1778C11.4858 23.1778 11.5021 23.1826 11.5161 23.1927L12.2725 23.731L13.6507 22.4931C13.666 22.4794 13.6852 22.4726 13.7044 22.4726C13.7241 22.4726 13.7438 22.4797 13.7592 22.4942C13.7896 22.5227 13.7932 22.5697 13.7675 22.6024L12.3518 24.4069C12.3366 24.4263 12.3133 24.4376 12.2887 24.4376C12.2885 24.4377 12.2881 24.4377 12.2878 24.4377Z" fill="#0494FD"/>
<path d="M13.7045 22.553H13.705ZM13.7045 22.553L12.2889 24.3575L11.4696 23.2581L12.2785 23.8337L13.7045 22.553ZM13.7045 22.3924C13.7033 22.3924 13.7021 22.3924 13.7008 22.3924C13.6608 22.3933 13.6244 22.4088 13.5968 22.4338L12.2669 23.6283L11.5627 23.1273C11.5346 23.1074 11.5021 23.0976 11.4696 23.0976C11.4277 23.0976 11.386 23.1139 11.3548 23.1458C11.2995 23.2024 11.2935 23.2907 11.3407 23.3541L12.16 24.4534C12.1899 24.4935 12.2368 24.5174 12.2868 24.5181C12.2874 24.5181 12.288 24.5181 12.2888 24.5181C12.338 24.5181 12.3847 24.4955 12.4151 24.4566L13.8268 22.657C13.8507 22.629 13.8652 22.5927 13.8652 22.553C13.8652 22.4643 13.7935 22.3924 13.7049 22.3924H13.7047C13.7047 22.3924 13.7045 22.3924 13.7045 22.3924Z" fill="#0494FD"/>
<path d="M12.2878 27.4078C12.2629 27.4075 12.2393 27.3956 12.2245 27.3755L11.4052 26.2761C11.3816 26.2445 11.3845 26.2002 11.4121 26.172C11.4278 26.156 11.4485 26.1479 11.4696 26.1479C11.4858 26.1479 11.5021 26.1528 11.5161 26.1628L12.2726 26.701L13.6508 25.4632C13.6661 25.4495 13.6853 25.4426 13.7045 25.4426C13.7242 25.4426 13.7439 25.4498 13.7593 25.4643C13.7897 25.4927 13.7933 25.5397 13.7676 25.5725L12.3521 27.377C12.3367 27.3965 12.3135 27.4077 12.2889 27.4077C12.2885 27.4078 12.2881 27.4078 12.2878 27.4078Z" fill="#0494FD"/>
<path d="M13.7045 25.523H13.705ZM13.7045 25.523L12.2889 27.3275L11.4696 26.2282L12.2785 26.8037L13.7045 25.523ZM13.7045 25.3624C13.7033 25.3624 13.7021 25.3624 13.7008 25.3624C13.6608 25.3633 13.6244 25.3788 13.5968 25.4038L12.2669 26.5983L11.5627 26.0973C11.5346 26.0774 11.5021 26.0676 11.4696 26.0676C11.4277 26.0676 11.386 26.084 11.3548 26.1159C11.2995 26.1724 11.2935 26.2607 11.3407 26.3241L12.16 27.4233C12.1899 27.4634 12.2368 27.4873 12.2868 27.488C12.2874 27.488 12.288 27.488 12.2888 27.488C12.338 27.488 12.3847 27.4654 12.4151 27.4265L13.8268 25.6269C13.8507 25.5989 13.8652 25.5626 13.8652 25.5229C13.8652 25.4342 13.7935 25.3623 13.7049 25.3623H13.7047C13.7047 25.3624 13.7045 25.3624 13.7045 25.3624Z" fill="#0494FD"/>
<path d="M7.60474 34.8733V42.1854H11.1612C11.0044 42.1863 7.81906 38.5471 7.60474 34.8733Z" fill="#DDDDE0"/>
<path d="M11.616 38.7272C10.5613 38.4129 9.78296 37.973 9.2084 37.4882C7.85417 36.3457 7.63375 34.9534 7.60474 34.3658V34.8436C7.81906 38.5174 11.0044 42.1862 11.1612 42.1853C10.9973 41.995 10.9249 41.7288 10.917 41.4504C10.8976 40.7733 11.2598 39.847 11.616 38.7272Z" fill="#ECECF0"/>
<path d="M6.47465 3.06444H5.84448V2.25873H6.47465V3.06444Z" fill="#B0B1B3"/>
<path d="M10.0599 4.58464L9.7843 4.30905L10.3155 3.77783L10.5911 4.05343L10.0599 4.58464Z" fill="#B0B1B3"/>
<path d="M2.40962 4.68961L2.68521 4.41401L2.04561 3.77441L1.77002 4.05001L2.40962 4.68961Z" fill="#B0B1B3"/>
<path d="M6.8466 2.15555C6.8466 2.36097 6.68013 2.52744 6.47471 2.52744H5.91693C5.71152 2.52744 5.54504 2.36097 5.54504 2.15555V1.89728C5.54504 1.69186 5.71152 1.52539 5.91693 1.52539H6.47471C6.68013 1.52539 6.8466 1.69186 6.8466 1.89728V2.15555Z" fill="#BDBEC0"/>
<path d="M10.7828 4.18698C10.693 4.27677 10.5474 4.27677 10.4576 4.18698L10.2136 3.943C10.1238 3.85321 10.1238 3.70754 10.2136 3.61775L10.3265 3.50478C10.4163 3.41499 10.562 3.41499 10.6518 3.50478L10.8958 3.74876C10.9856 3.83855 10.9856 3.98423 10.8958 4.07401L10.7828 4.18698Z" fill="#BDBEC0"/>
<path d="M1.58168 4.18698C1.67146 4.27677 1.81714 4.27677 1.90693 4.18698L2.15091 3.943C2.2407 3.85321 2.2407 3.70754 2.15091 3.61775L2.03794 3.50478C1.94816 3.41499 1.80248 3.41499 1.71269 3.50478L1.46871 3.74876C1.37892 3.83855 1.37892 3.98423 1.46871 4.07401L1.58168 4.18698Z" fill="#BDBEC0"/>
<path d="M7.37339 1.54601C7.37339 1.75142 7.20692 1.9179 7.00151 1.9179H5.32806C5.12265 1.9179 4.95618 1.75142 4.95618 1.54601V1.0192C4.95618 0.813784 5.12265 0.647308 5.32806 0.647308H7.00151C7.20692 0.647308 7.37339 0.813784 7.37339 1.0192V1.54601Z" fill="#D1D2D4"/>
<path d="M11.2797 4.15087C11.1899 4.24066 11.0443 4.24066 10.9545 4.15087L10.2226 3.41901C10.1328 3.32922 10.1328 3.18354 10.2226 3.09367L10.453 2.86324C10.5428 2.77345 10.6885 2.77345 10.7783 2.86324L11.5102 3.5951C11.5999 3.68489 11.5999 3.83056 11.5102 3.92035L11.2797 4.15087Z" fill="#D1D2D4"/>
<path d="M1.08463 4.15087C1.17442 4.24066 1.32009 4.24066 1.40988 4.15087L2.14174 3.41901C2.23153 3.32922 2.23153 3.18354 2.14174 3.09367L1.91132 2.86324C1.82153 2.77345 1.67585 2.77345 1.58607 2.86324L0.854206 3.5951C0.764418 3.68489 0.764418 3.83056 0.854206 3.92035L1.08463 4.15087Z" fill="#D1D2D4"/>
<path d="M8.12052 12.4559C10.683 11.3973 11.9021 8.46179 10.8435 5.89931C9.78495 3.33683 6.84949 2.11769 4.287 3.17629C1.72452 4.23489 0.505379 7.17035 1.56398 9.73283C2.62257 12.2953 5.55804 13.5145 8.12052 12.4559Z" fill="#D1D2D4"/>
<path d="M6.20608 11.7957C8.40391 11.7957 10.1856 10.0141 10.1856 7.81622C10.1856 5.61839 8.40391 3.8367 6.20608 3.8367C4.00825 3.8367 2.22656 5.61839 2.22656 7.81622C2.22656 10.0141 4.00825 11.7957 6.20608 11.7957Z" fill="#BDBEC0"/>
<path d="M7.57276 11.0299C9.34688 10.2746 10.1728 8.22412 9.41755 6.45C8.66228 4.67589 6.61181 3.84995 4.83769 4.60521C3.06357 5.36048 2.23763 7.41095 2.9929 9.18507C3.74817 10.9592 5.79864 11.7851 7.57276 11.0299Z" fill="white"/>
<path d="M6.30788 5.29519C6.30788 5.31415 6.29249 5.32955 6.27344 5.32955H6.18658C6.16761 5.32955 6.15222 5.31415 6.15222 5.29519V4.83966C6.15222 4.82069 6.16761 4.8053 6.18658 4.8053H6.27344C6.2924 4.8053 6.30788 4.82069 6.30788 4.83966V5.29519Z" fill="#B0B1B3"/>
<path d="M6.30788 10.7102C6.30788 10.7292 6.29249 10.7446 6.27344 10.7446H6.18658C6.16761 10.7446 6.15222 10.7292 6.15222 10.7102V10.2547C6.15222 10.2357 6.16761 10.2203 6.18658 10.2203H6.27344C6.2924 10.2203 6.30788 10.2357 6.30788 10.2547V10.7102Z" fill="#B0B1B3"/>
<path d="M7.58539 5.69683C7.5755 5.71304 7.55433 5.71817 7.53812 5.70828L7.4639 5.66311C7.44769 5.65321 7.44256 5.63205 7.45236 5.61583L7.68911 5.22672C7.699 5.2105 7.72016 5.20537 7.73638 5.21518L7.8106 5.26035C7.82681 5.27024 7.83194 5.29141 7.82214 5.30762L7.58539 5.69683Z" fill="#B0B1B3"/>
<path d="M4.77079 10.323C4.7609 10.3393 4.73973 10.3444 4.72352 10.3346L4.6493 10.2894C4.63309 10.2795 4.62796 10.2584 4.63785 10.2421L4.8746 9.85303C4.88449 9.83682 4.90566 9.83169 4.92187 9.84149L4.99609 9.88666C5.0123 9.89655 5.01743 9.91772 5.00763 9.93393L4.77079 10.323Z" fill="#B0B1B3"/>
<path d="M8.41863 6.60648C8.40213 6.61592 8.38115 6.61024 8.37162 6.59384L8.32829 6.51853C8.31885 6.50204 8.32453 6.48105 8.34102 6.47153L8.73591 6.24449C8.7524 6.23505 8.77338 6.24073 8.78282 6.25713L8.82615 6.33245C8.83559 6.34894 8.82991 6.36992 8.81351 6.37945L8.41863 6.60648Z" fill="#B0B1B3"/>
<path d="M3.72405 9.30531C3.70756 9.31474 3.68658 9.30906 3.67714 9.29266L3.63389 9.21735C3.62437 9.20086 3.63005 9.17988 3.64654 9.17035L4.04142 8.94331C4.05791 8.93388 4.07889 8.93956 4.08833 8.95596L4.13157 9.03127C4.1411 9.04776 4.13542 9.06874 4.11893 9.07818L3.72405 9.30531Z" fill="#B0B1B3"/>
<path d="M8.70944 7.86099C8.69047 7.86089 8.67508 7.8455 8.67517 7.82644L8.67545 7.73959C8.67554 7.72062 8.69093 7.70523 8.70999 7.70532L9.16552 7.70688C9.18449 7.70697 9.19988 7.72237 9.19979 7.74142L9.19951 7.82828C9.19942 7.84724 9.18403 7.86263 9.16497 7.86254L8.70944 7.86099Z" fill="#B0B1B3"/>
<path d="M3.29452 7.84286C3.27556 7.84277 3.26016 7.82737 3.26025 7.80832L3.26053 7.72146C3.26062 7.7025 3.27601 7.6871 3.29507 7.6872L3.75061 7.68875C3.76957 7.68884 3.78496 7.70423 3.78487 7.72329L3.7846 7.81015C3.78451 7.82911 3.76911 7.84451 3.75006 7.84442L3.29452 7.84286Z" fill="#B0B1B3"/>
<path d="M8.33702 9.08474C8.32053 9.07521 8.31494 9.05414 8.32447 9.03774L8.36799 8.96261C8.37752 8.94621 8.39859 8.94053 8.41499 8.95006L8.80923 9.17829C8.82563 9.18781 8.83131 9.20889 8.82178 9.22529L8.77827 9.30042C8.76874 9.31691 8.74766 9.3225 8.73126 9.31297L8.33702 9.08474Z" fill="#B0B1B3"/>
<path d="M3.65072 6.37158C3.63432 6.36205 3.62864 6.34098 3.63817 6.32458L3.68169 6.24945C3.69122 6.23305 3.7122 6.22737 3.72869 6.23689L4.12293 6.46512C4.13933 6.47465 4.14501 6.49563 4.13549 6.51212L4.09197 6.58734C4.08244 6.60374 4.06136 6.60942 4.04496 6.59989L3.65072 6.37158Z" fill="#B0B1B3"/>
<path d="M8.33702 9.08474C8.32053 9.07521 8.31494 9.05414 8.32447 9.03774L8.36799 8.96261C8.37752 8.94621 8.39859 8.94053 8.41499 8.95006L8.80923 9.17829C8.82563 9.18781 8.83131 9.20889 8.82178 9.22529L8.77827 9.30042C8.76874 9.31691 8.74766 9.3225 8.73126 9.31297L8.33702 9.08474Z" fill="#B0B1B3"/>
<path d="M3.65072 6.37158C3.63432 6.36205 3.62864 6.34098 3.63817 6.32458L3.68169 6.24945C3.69122 6.23305 3.7122 6.22737 3.72869 6.23689L4.12293 6.46512C4.13933 6.47465 4.14501 6.49563 4.13549 6.51212L4.09197 6.58734C4.08244 6.60374 4.06136 6.60942 4.04496 6.59989L3.65072 6.37158Z" fill="#B0B1B3"/>
<path d="M7.41831 9.95268C7.40869 9.93628 7.41419 9.91521 7.43059 9.90559L7.50553 9.86161C7.52193 9.85199 7.54301 9.85749 7.55263 9.87389L7.78323 10.2668C7.79285 10.2832 7.78736 10.3042 7.77096 10.3138L7.69601 10.3578C7.67961 10.3674 7.65854 10.3619 7.64892 10.3455L7.41831 9.95268Z" fill="#B0B1B3"/>
<path d="M4.67686 5.28303C4.66724 5.26663 4.67273 5.24556 4.68913 5.23594L4.76408 5.19196C4.78048 5.18234 4.80155 5.18784 4.81117 5.20424L5.04178 5.59702C5.0514 5.61342 5.0459 5.63449 5.0295 5.64411L4.95456 5.68809C4.93816 5.69771 4.91708 5.69221 4.90746 5.67581L4.67686 5.28303Z" fill="#B0B1B3"/>
<path d="M6.49622 7.76256C6.49622 7.88927 6.39351 7.99198 6.2668 7.99198C6.14018 7.99198 6.03748 7.88927 6.03748 7.76256C6.03748 7.63585 6.14018 7.53314 6.2668 7.53314C6.3936 7.53323 6.49622 7.63594 6.49622 7.76256Z" fill="#B0B1B3"/>
<path d="M5.63611 8.18054L8.22484 6.60458" stroke="#B0B1B3" stroke-width="1.05879" stroke-miterlimit="10" stroke-linecap="round" stroke-linejoin="round"/>
<path d="M57.4078 54.583C57.9624 55.1384 58.8624 55.139 59.418 54.5844C59.9735 54.0297 59.974 53.1297 59.4193 52.5742L57.4484 50.6006C56.8938 50.0452 55.9938 50.0446 55.4384 50.5993C54.883 51.1539 54.8823 52.0539 55.437 52.6093L57.4078 54.583Z" fill="white"/>
<path d="M58.1034 51.2398L59.066 52.2039L57.0393 54.2277L56.0766 53.2637L58.1034 51.2398Z" fill="#D2D2D2"/>
<path d="M43.3784 36.4568L41.3517 38.4809L39.4655 34.5882L43.3784 36.4568Z" fill="#FDFFFE"/>
<path d="M39.4266 34.5285L40.6528 35.1141L40.0172 35.7472L39.4266 34.5285Z" fill="#543823"/>
<path d="M43.3794 36.4567L58.1082 51.2438L56.0782 53.2658L41.3495 38.4786L43.3794 36.4567Z" fill="#FCB040"/>
<path d="M42.8098 37.0249L57.5386 51.8121L56.6482 52.6989L41.9195 37.9117L42.8098 37.0249Z" fill="#E6A03A"/>
<path d="M38.8225 37.8877C38.8225 37.8877 38.8233 37.8912 38.8246 37.8962Z" fill="#ECECF0"/>
</svg>
