<svg width="25" height="24" viewBox="0 0 25 24" fill="none" xmlns="http://www.w3.org/2000/svg">
<g clip-path="url(#clip0_514_17224)">
<path opacity="0.1" d="M12.2 24C18.8274 24 24.2 18.6274 24.2 12C24.2 5.37258 18.8274 0 12.2 0C5.57258 0 0.199997 5.37258 0.199997 12C0.199997 18.6274 5.57258 24 12.2 24Z" fill="#CFECFF"/>
<path d="M19.9403 7.43846C19.9403 7.51755 20.4413 9.67969 19.0438 11.7363C18.0682 13.2129 16.4072 14.2412 14.1132 14.8476C13.6122 14.9795 13.0848 15.4278 13.0848 15.9287V17.4844H15.1679C15.4843 17.4844 15.7744 17.7744 15.7744 18.1172C15.7744 18.4863 15.5106 18.75 15.1679 18.75H9.70981C9.3407 18.75 9.077 18.4863 9.077 18.1172C9.077 17.7744 9.3407 17.4844 9.70981 17.4844H11.8192L11.7929 15.9287C11.7929 15.4278 11.2656 14.9795 10.7645 14.8476C8.47062 14.2412 6.80945 13.2129 5.83388 11.7363C4.43642 9.67969 4.93739 7.51755 4.93739 7.43846C5.01649 7.14844 5.28017 6.9375 5.57021 6.9375H8.23325C8.20692 6.62115 8.20692 6.33101 8.23325 6.06742C8.23325 5.61911 8.60247 5.25 9.077 5.25H15.8007C16.2753 5.25 16.6444 5.61911 16.6444 6.06742C16.6707 6.33101 16.6707 6.62115 16.6444 6.9375H19.3075C19.5976 6.9375 19.8612 7.14844 19.9403 7.43846ZM6.88854 11.0507C7.49502 11.9737 8.47062 12.6856 9.76257 13.2129C8.78697 11.6837 8.39154 9.7851 8.23325 8.20312H6.12387C6.09755 8.83594 6.15031 9.96971 6.88854 11.0507ZM12.452 14.5312C13.9022 12.8965 15.4051 11.3409 15.3788 6.51562H9.49888C9.47255 11.3409 10.9754 12.8965 12.452 14.5312ZM17.9891 11.0507C18.7275 9.96971 18.7801 8.83594 18.7538 8.20312H16.6444C16.4862 9.7851 16.0907 11.6837 15.1151 13.2129C16.4072 12.6856 17.3828 11.9737 17.9891 11.0507Z" fill="#0494FD"/>
</g>
<defs>
<clipPath id="clip0_514_17224">
<rect x="0.199997" width="24" height="24" rx="6" fill="white"/>
</clipPath>
</defs>
</svg>
