<?xml version="1.0" encoding="UTF-8"?>
<svg id="Layer_3" data-name="Layer 3" xmlns="http://www.w3.org/2000/svg" viewBox="0 0 25 25">
  <defs>
    <style>
      .cls-1 {
        stroke-width: 0px;
      }
    </style>
  </defs>
  <path class="cls-1" d="M21.88,19.55v-10.52c0-.08-.12-7.99-10.33-8.53-.88-.04-1.69.4-1.95,1.08-1.03,2.76-2.68,3.77-5.19,4.57-1.04.33-1.74,1.18-1.74,2.1,0,1.24,1.21,2.25,2.7,2.25h5.57c-.77,2.62-2.85,3.6-4.76,4.32-2.13.8-3.51,2.52-3.51,4.39v.34c-1.37.23-2.4,1.24-2.4,2.45,0,1.38,1.35,2.5,3,2.5h18c1.65,0,3-1.12,3-2.5,0-1.21-1.03-2.22-2.4-2.45h0ZM6.68,15.73c2.51-.94,4.92-2.27,5.59-5.65.03-.14-.02-.29-.13-.4-.12-.11-.28-.18-.46-.18h-6.3c-.83,0-1.5-.56-1.5-1.25,0-.51.39-.98.97-1.16,2.7-.87,4.73-2.08,5.9-5.21.09-.24.37-.39.73-.38,9.07.48,9.2,7.25,9.2,7.53v10.47H3.88v-.29c0-1.48,1.1-2.84,2.8-3.48h0ZM21.28,23.5H3.28c-.99,0-1.8-.67-1.8-1.5s.81-1.5,1.8-1.5h18c.99,0,1.8.67,1.8,1.5s-.81,1.5-1.8,1.5Z"/>
</svg>