<svg width="25" height="24" viewBox="0 0 25 24" fill="none" xmlns="http://www.w3.org/2000/svg">
<g clip-path="url(#clip0_514_17209)">
<path opacity="0.1" d="M12.4 24C19.0274 24 24.4 18.6274 24.4 12C24.4 5.37258 19.0274 0 12.4 0C5.77259 0 0.400009 5.37258 0.400009 12C0.400009 18.6274 5.77259 24 12.4 24Z" fill="#CFECFF"/>
<path d="M13.6858 12.3214V11.0358L12.4 11.6786L11.1143 11.0358V12.3214L9.8286 12.9642L11.1143 13.6072V14.8928L12.4 14.25L13.6858 14.8928V13.6072L14.9714 12.9642M13.6858 5.25H9.18578C8.84479 5.25 8.51775 5.38545 8.27655 5.62654C8.03547 5.86774 7.90002 6.19478 7.90002 6.53576V15.5358C7.90002 15.8768 8.03547 16.2038 8.27655 16.4449C8.51775 16.686 8.84479 16.8214 9.18578 16.8214H9.8286V15.5358H9.18578V6.53576H13.0428V9.10718H15.6143V15.5358H14.9714V16.8214H15.6143C15.9552 16.8214 16.2823 16.686 16.5235 16.4449C16.7646 16.2038 16.9 15.8768 16.9 15.5358V8.46424M13.6858 12.3214V11.0358L12.4 11.6786L11.1143 11.0358V12.3214L9.8286 12.9642L11.1143 13.6072V14.8928L12.4 14.25L13.6858 14.8928V13.6072L14.9714 12.9642M11.1143 18.75L12.4 18.1072L13.6858 18.75V15.5358H11.1143M13.6858 12.3214V11.0358L12.4 11.6786L11.1143 11.0358V12.3214L9.8286 12.9642L11.1143 13.6072V14.8928L12.4 14.25L13.6858 14.8928V13.6072L14.9714 12.9642L13.6858 12.3214Z" fill="#0494FD"/>
</g>
<defs>
<clipPath id="clip0_514_17209">
<rect x="0.400009" width="24" height="24" rx="6" fill="white"/>
</clipPath>
</defs>
</svg>
