<svg width="21" height="20" viewBox="0 0 21 20" fill="none" xmlns="http://www.w3.org/2000/svg">
<ellipse cx="7.73999" cy="8" rx="7.53998" ry="8" fill="#D0EDFF"/>
<path d="M19.2128 7.78723H17.3794V7.04255C17.3794 6.46468 16.9394 6 16.3922 6H7.36619C6.81899 6 6.37898 6.46468 6.37898 7.04255V7.78723H4.54557C3.99837 7.78723 3.55836 8.25191 3.55836 8.82979V10.0213C3.55836 11.5821 4.75994 12.8511 6.23795 12.8511H6.59898C7.24209 15.1685 9.17703 16.8187 11.4561 17.0034V19.1064H9.62269C9.3914 19.1064 9.1996 19.3089 9.1996 19.5532C9.1996 19.7974 9.3914 20 9.62269 20H14.1357C14.367 20 14.5588 19.7974 14.5588 19.5532C14.5588 19.3089 14.367 19.1064 14.1357 19.1064H12.3023V17.0034C14.5926 16.8128 16.4937 15.1209 17.1425 12.8511H17.5204C18.9984 12.8511 20.2 11.5821 20.2 10.0213V8.82979C20.2 8.25191 19.76 7.78723 19.2128 7.78723ZM6.23795 11.9574C5.22816 11.9574 4.40454 11.0877 4.40454 10.0213V8.82979C4.40454 8.74638 4.4666 8.68085 4.54557 8.68085H6.37898V11.2128C6.37898 11.463 6.3959 11.7132 6.42411 11.9574H6.23795ZM11.913 16.1277C9.34063 16.1455 7.24209 13.9651 7.22516 11.2485C7.22516 11.2366 7.22516 11.2247 7.22516 11.2128V7.04255C7.22516 6.95915 7.28722 6.89362 7.36619 6.89362H16.3922C16.4712 6.89362 16.5332 6.95915 16.5332 7.04255V11.1472C16.5332 13.8757 14.4629 16.1098 11.913 16.1277ZM19.3538 10.0213C19.3538 11.0877 18.5302 11.9574 17.5204 11.9574H17.323C17.3568 11.6894 17.3794 11.4153 17.3794 11.1472V8.68085H19.2128C19.2918 8.68085 19.3538 8.74638 19.3538 8.82979V10.0213Z" fill="#0494FD"/>
</svg>
